<svg width="921" height="459" viewBox="0 0 921 459" fill="none" xmlns="http://www.w3.org/2000/svg">
<g id="abs-logo 1">
<g id="Layer 2">
<g id="Layer 1">
<path id="bulb" d="M456.966 192.663C456.966 236.614 432.59 275.074 396.169 296.182C385.188 302.515 378.437 313.915 378.437 326.296C378.433 326.518 378.385 326.737 378.296 326.94C378.207 327.144 378.079 327.328 377.919 327.482C377.759 327.636 377.571 327.757 377.364 327.838C377.157 327.92 376.936 327.959 376.714 327.955H287.242C287.02 327.959 286.799 327.92 286.592 327.838C286.386 327.757 286.197 327.636 286.037 327.482C285.877 327.328 285.749 327.144 285.66 326.94C285.571 326.737 285.523 326.518 285.519 326.296V326.296C285.519 314.01 278.718 302.718 267.787 296.429C232.797 276.354 208.827 240.313 206.693 198.737C203.007 127.174 261.79 69.6008 336.107 72.077C403.237 74.2555 456.966 127.408 456.966 192.663Z" fill="#1877F2"/>
<path id="bulb-bottom" d="M286.64 338.252C291.677 345.615 298.434 351.639 306.324 355.801C314.214 359.963 323 362.138 331.921 362.138C340.842 362.138 349.628 359.963 357.518 355.801C365.409 351.639 372.165 345.615 377.202 338.252H286.64Z" fill="white"/>
<path id="a" d="M299.135 298.957L289.484 253.803L225.749 239.553L198.472 276.449L171 270.306L283.594 121.906L317.564 298.798L299.135 298.957ZM239.928 220.143L284.766 230.168L275.9 190.093C275.435 187.56 275.013 184.67 274.633 181.423C274.253 178.176 273.93 174.588 273.664 170.657C272.055 173.942 270.443 176.983 268.826 179.783C267.209 182.582 265.619 185.134 264.057 187.439L239.928 220.143Z" fill="white"/>
<path id="s" d="M341.117 207.603L359.843 204.399C359.799 211.859 361.743 210.985 365.765 216.115C369.786 221.245 375.688 224.981 383.497 227.324C390.894 229.541 397.356 229.229 402.882 226.387C408.409 223.546 412.147 218.64 414.098 211.669C416.631 202.596 411.432 192.267 398.5 180.682C396.701 178.993 395.312 177.739 394.333 176.92C379.767 163.549 370.618 152.665 366.886 144.267C363.153 135.87 362.645 126.814 365.359 117.099C368.893 104.5 375.995 95.5688 386.663 90.3039C397.332 85.0391 409.54 84.4649 423.287 88.5814C434.598 91.959 443.441 96.9916 449.816 103.679C456.053 110.053 459.781 118.463 460.316 127.365L438.005 131.658C436.287 125.883 433.914 121.321 430.887 117.973C427.737 114.549 423.695 112.07 419.215 110.816C412.515 108.807 406.701 108.969 401.774 111.304C396.847 113.639 393.554 117.762 391.895 123.672C389.29 132.961 395.519 144.21 410.583 157.421C411.729 158.447 412.641 159.257 413.313 159.84C426.485 171.408 434.957 181.402 438.727 189.82C442.497 198.239 442.972 207.477 440.152 217.534C436.052 232.167 428.223 242.422 416.663 248.299C405.105 254.183 377.88 266.766 375.98 250.123C375.004 241.542 365.29 235.557 357.221 227.958C349.394 220.523 340.54 219.636 341.117 207.603Z" fill="white"/>
<path id="b" d="M382.256 226.608C376.974 219.431 369.733 215.103 360.534 213.626C367.939 211.32 373.58 207.25 377.455 201.416C381.331 195.581 383.271 188.319 383.275 179.63C383.363 172.767 381.986 165.963 379.235 159.675C376.742 153.934 372.83 148.922 367.867 145.109C363.751 142.056 359.032 139.914 354.023 138.827C348.602 137.56 340.213 136.927 328.856 136.927H289.085V300.121H329.071C344.165 300.121 354.908 299.193 361.3 297.335C367.419 295.643 372.968 292.331 377.36 287.747C381.565 283.425 384.803 278.26 386.86 272.592C389.098 266.556 390.223 260.164 390.178 253.726C390.178 242.821 387.537 233.781 382.256 226.608ZM314.189 159.004H323.992C337 159.004 345.839 160.804 350.508 164.406C355.178 168.007 357.515 174.268 357.519 183.189C357.519 191.367 354.986 197.183 349.919 200.637C344.853 204.09 336.211 205.817 323.992 205.817H314.189V159.004ZM361.053 264.232C359.442 267.739 356.91 270.742 353.726 272.921C351.138 274.783 347.616 276.086 343.162 276.829C338.708 277.572 331.989 277.943 323.004 277.943H314.138V225.861H330.737C334.903 225.785 339.068 226.081 343.181 226.747C346.088 227.271 348.903 228.212 351.541 229.54C355.338 231.612 358.447 234.749 360.483 238.565C362.569 242.428 363.611 246.962 363.611 252.168C363.681 256.329 362.814 260.453 361.072 264.232H361.053Z" fill="black"/>
<g id="text">
<path id="ACADEMIC" d="M506.692 207H492.264V205.267C493.533 205.185 494.583 205.022 495.413 204.778C496.259 204.534 496.683 204.233 496.683 203.875C496.683 203.729 496.666 203.549 496.634 203.338C496.601 203.126 496.552 202.939 496.487 202.776L493.606 195.013H481.473C481.017 196.152 480.643 197.145 480.35 197.991C480.073 198.838 479.821 199.619 479.593 200.335C479.381 201.035 479.235 201.604 479.153 202.044C479.072 202.483 479.031 202.841 479.031 203.118C479.031 203.769 479.544 204.274 480.569 204.632C481.595 204.99 482.75 205.201 484.036 205.267V207H470.999V205.267C471.422 205.234 471.951 205.145 472.586 204.998C473.221 204.835 473.742 204.624 474.148 204.363C474.799 203.924 475.304 203.468 475.662 202.996C476.02 202.508 476.37 201.84 476.712 200.994C478.453 196.648 480.374 191.766 482.474 186.346C484.573 180.926 486.445 176.1 488.089 171.868H490.042L501.59 201.751C501.834 202.386 502.111 202.898 502.42 203.289C502.729 203.68 503.16 204.062 503.714 204.437C504.088 204.664 504.576 204.86 505.179 205.022C505.781 205.169 506.285 205.25 506.692 205.267V207ZM492.728 192.84L487.479 179.412L482.327 192.84H492.728ZM523.196 207.806C521.129 207.806 519.144 207.399 517.239 206.585C515.351 205.771 513.675 204.599 512.21 203.069C510.761 201.539 509.606 199.676 508.743 197.479C507.881 195.265 507.449 192.775 507.449 190.008C507.449 187.241 507.872 184.734 508.719 182.488C509.565 180.226 510.737 178.281 512.234 176.653C513.715 175.042 515.465 173.797 517.483 172.918C519.502 172.039 521.658 171.6 523.953 171.6C525.662 171.6 527.208 171.811 528.592 172.234C529.975 172.658 531.294 173.252 532.547 174.017L533.548 172.356H535.501L535.721 184.71H533.719C533.458 183.506 533.068 182.203 532.547 180.804C532.026 179.388 531.416 178.191 530.716 177.215C529.935 176.108 529.007 175.245 527.933 174.627C526.858 173.992 525.63 173.675 524.246 173.675C522.667 173.675 521.194 174.025 519.827 174.725C518.476 175.424 517.304 176.458 516.312 177.825C515.368 179.144 514.627 180.82 514.09 182.854C513.553 184.889 513.284 187.16 513.284 189.666C513.284 191.88 513.561 193.914 514.114 195.77C514.684 197.609 515.49 199.228 516.531 200.628C517.573 202.011 518.802 203.094 520.218 203.875C521.65 204.656 523.245 205.047 525.003 205.047C526.321 205.047 527.534 204.843 528.641 204.437C529.747 204.013 530.708 203.46 531.521 202.776C532.335 202.06 533.051 201.246 533.67 200.335C534.288 199.424 534.793 198.431 535.184 197.356L537.015 198.235C535.615 201.67 533.759 204.127 531.448 205.608C529.137 207.073 526.386 207.806 523.196 207.806ZM572.366 207H557.938V205.267C559.207 205.185 560.257 205.022 561.087 204.778C561.933 204.534 562.356 204.233 562.356 203.875C562.356 203.729 562.34 203.549 562.308 203.338C562.275 203.126 562.226 202.939 562.161 202.776L559.28 195.013H547.146C546.691 196.152 546.316 197.145 546.023 197.991C545.747 198.838 545.494 199.619 545.267 200.335C545.055 201.035 544.909 201.604 544.827 202.044C544.746 202.483 544.705 202.841 544.705 203.118C544.705 203.769 545.218 204.274 546.243 204.632C547.269 204.99 548.424 205.201 549.71 205.267V207H536.673V205.267C537.096 205.234 537.625 205.145 538.26 204.998C538.895 204.835 539.415 204.624 539.822 204.363C540.473 203.924 540.978 203.468 541.336 202.996C541.694 202.508 542.044 201.84 542.386 200.994C544.127 196.648 546.048 191.766 548.147 186.346C550.247 180.926 552.119 176.1 553.763 171.868H555.716L567.264 201.751C567.508 202.386 567.785 202.898 568.094 203.289C568.403 203.68 568.834 204.062 569.388 204.437C569.762 204.664 570.25 204.86 570.853 205.022C571.455 205.169 571.959 205.25 572.366 205.267V207ZM558.401 192.84L553.152 179.412L548.001 192.84H558.401ZM606.79 189.886C606.79 192.832 606.237 195.387 605.13 197.552C604.023 199.716 602.583 201.491 600.809 202.874C599.018 204.257 597.008 205.291 594.778 205.975C592.549 206.658 590.245 207 587.869 207H573.514V205.267C573.986 205.267 574.596 205.226 575.345 205.145C576.11 205.047 576.614 204.941 576.858 204.827C577.347 204.616 577.697 204.306 577.908 203.899C578.136 203.476 578.25 202.972 578.25 202.386V177.386C578.25 176.832 578.152 176.336 577.957 175.896C577.778 175.457 577.412 175.107 576.858 174.847C576.354 174.603 575.809 174.424 575.223 174.31C574.637 174.196 574.132 174.122 573.709 174.09V172.356H588.846C590.929 172.356 592.98 172.682 594.998 173.333C597.016 173.968 598.774 174.83 600.271 175.921C602.306 177.369 603.901 179.266 605.057 181.609C606.212 183.953 606.79 186.712 606.79 189.886ZM600.809 189.861C600.809 187.534 600.499 185.434 599.881 183.562C599.262 181.674 598.359 180.031 597.171 178.631C596.048 177.296 594.664 176.246 593.021 175.481C591.393 174.716 589.578 174.334 587.576 174.334C586.909 174.334 586.152 174.35 585.306 174.383C584.476 174.399 583.857 174.415 583.45 174.432V201.067C583.45 202.549 583.882 203.574 584.744 204.144C585.607 204.713 586.933 204.998 588.724 204.998C590.791 204.998 592.597 204.632 594.144 203.899C595.69 203.167 596.943 202.15 597.903 200.848C598.912 199.48 599.645 197.902 600.101 196.111C600.573 194.305 600.809 192.221 600.809 189.861ZM640.188 196.795L639.529 207H610.77V205.267C611.258 205.234 611.909 205.169 612.723 205.071C613.536 204.957 614.065 204.843 614.31 204.729C614.83 204.485 615.188 204.168 615.384 203.777C615.595 203.387 615.701 202.89 615.701 202.288V177.386C615.701 176.849 615.612 176.377 615.433 175.97C615.254 175.547 614.879 175.205 614.31 174.944C613.87 174.733 613.276 174.546 612.527 174.383C611.795 174.22 611.209 174.122 610.77 174.09V172.356H637.576V180.706H635.745C635.42 179.469 634.712 178.159 633.621 176.775C632.547 175.376 631.521 174.611 630.545 174.48C630.04 174.415 629.438 174.367 628.738 174.334C628.038 174.301 627.241 174.285 626.346 174.285H620.901V188.055H624.808C626.061 188.055 626.972 187.941 627.542 187.713C628.128 187.469 628.641 187.07 629.08 186.517C629.438 186.045 629.739 185.418 629.983 184.637C630.244 183.839 630.415 183.09 630.496 182.391H632.327V195.94H630.496C630.431 195.159 630.252 194.337 629.959 193.475C629.682 192.596 629.389 191.961 629.08 191.57C628.576 190.936 627.998 190.521 627.347 190.325C626.712 190.13 625.866 190.032 624.808 190.032H620.901V200.433C620.901 201.474 620.975 202.296 621.121 202.898C621.268 203.501 621.552 203.956 621.976 204.266C622.399 204.575 622.977 204.778 623.709 204.876C624.441 204.957 625.483 204.998 626.834 204.998C627.371 204.998 628.079 204.998 628.958 204.998C629.837 204.998 630.577 204.965 631.18 204.9C631.798 204.835 632.433 204.721 633.084 204.559C633.751 204.38 634.223 204.144 634.5 203.851C635.249 203.069 636.03 201.889 636.844 200.311C637.674 198.715 638.203 197.544 638.431 196.795H640.188ZM685.428 207H670.12V205.267C670.674 205.25 671.382 205.193 672.244 205.096C673.123 204.998 673.725 204.86 674.051 204.681C674.555 204.371 674.922 204.021 675.149 203.631C675.394 203.224 675.516 202.719 675.516 202.117V176.922H675.149L663.333 206.438H662.112L650.857 176.312H650.54V196.99C650.54 198.992 650.662 200.514 650.906 201.556C651.167 202.597 651.557 203.346 652.078 203.802C652.436 204.144 653.177 204.469 654.3 204.778C655.423 205.088 656.155 205.25 656.497 205.267V207H642.508V205.267C643.24 205.201 644.005 205.079 644.803 204.9C645.617 204.721 646.243 204.453 646.683 204.095C647.252 203.639 647.643 202.939 647.854 201.995C648.066 201.051 648.172 199.472 648.172 197.259V179.534C648.172 178.509 648.05 177.671 647.806 177.02C647.562 176.368 647.212 175.84 646.756 175.433C646.251 174.993 645.633 174.668 644.9 174.456C644.168 174.244 643.444 174.122 642.728 174.09V172.356H654.544L664.456 198.333L672.928 176.604C673.237 175.807 673.497 174.977 673.709 174.114C673.937 173.235 674.059 172.649 674.075 172.356H685.379V174.09C684.923 174.106 684.337 174.179 683.621 174.31C682.921 174.44 682.409 174.562 682.083 174.676C681.53 174.871 681.155 175.197 680.96 175.652C680.765 176.108 680.667 176.604 680.667 177.142V202.117C680.667 202.687 680.765 203.167 680.96 203.558C681.155 203.948 681.53 204.29 682.083 204.583C682.376 204.746 682.897 204.9 683.646 205.047C684.394 205.177 684.988 205.25 685.428 205.267V207ZM705.252 207H689.651V205.267C690.091 205.234 690.726 205.185 691.556 205.12C692.386 205.055 692.972 204.957 693.313 204.827C693.851 204.616 694.241 204.331 694.485 203.973C694.729 203.598 694.852 203.086 694.852 202.435V177.337C694.852 176.767 694.762 176.295 694.583 175.921C694.404 175.53 693.981 175.205 693.313 174.944C692.825 174.749 692.207 174.57 691.458 174.407C690.726 174.228 690.123 174.122 689.651 174.09V172.356H705.252V174.09C704.747 174.106 704.145 174.171 703.445 174.285C702.745 174.383 702.135 174.513 701.614 174.676C700.996 174.871 700.581 175.188 700.369 175.628C700.158 176.067 700.052 176.556 700.052 177.093V202.166C700.052 202.703 700.166 203.183 700.394 203.606C700.638 204.013 701.045 204.339 701.614 204.583C701.956 204.713 702.509 204.86 703.274 205.022C704.056 205.169 704.715 205.25 705.252 205.267V207ZM724.856 207.806C722.789 207.806 720.804 207.399 718.899 206.585C717.011 205.771 715.335 204.599 713.87 203.069C712.422 201.539 711.266 199.676 710.403 197.479C709.541 195.265 709.109 192.775 709.109 190.008C709.109 187.241 709.533 184.734 710.379 182.488C711.225 180.226 712.397 178.281 713.895 176.653C715.376 175.042 717.125 173.797 719.144 172.918C721.162 172.039 723.318 171.6 725.613 171.6C727.322 171.6 728.868 171.811 730.252 172.234C731.635 172.658 732.954 173.252 734.207 174.017L735.208 172.356H737.161L737.381 184.71H735.379C735.118 183.506 734.728 182.203 734.207 180.804C733.686 179.388 733.076 178.191 732.376 177.215C731.595 176.108 730.667 175.245 729.593 174.627C728.519 173.992 727.29 173.675 725.906 173.675C724.327 173.675 722.854 174.025 721.487 174.725C720.136 175.424 718.965 176.458 717.972 177.825C717.028 179.144 716.287 180.82 715.75 182.854C715.213 184.889 714.944 187.16 714.944 189.666C714.944 191.88 715.221 193.914 715.774 195.77C716.344 197.609 717.15 199.228 718.191 200.628C719.233 202.011 720.462 203.094 721.878 203.875C723.31 204.656 724.905 205.047 726.663 205.047C727.981 205.047 729.194 204.843 730.301 204.437C731.408 204.013 732.368 203.46 733.182 202.776C733.995 202.06 734.712 201.246 735.33 200.335C735.949 199.424 736.453 198.431 736.844 197.356L738.675 198.235C737.275 201.67 735.42 204.127 733.108 205.608C730.797 207.073 728.047 207.806 724.856 207.806Z" fill="white"/>
<path id="SOLUTIONS" d="M495.95 249.106C496.683 249.92 497.22 250.815 497.562 251.792C497.92 252.752 498.099 253.875 498.099 255.161C498.099 258.221 496.967 260.744 494.705 262.729C492.443 264.715 489.635 265.708 486.282 265.708C484.736 265.708 483.19 265.472 481.644 265C480.097 264.512 478.763 263.926 477.64 263.242L476.59 265.024H474.637L474.295 253.159H476.272C476.679 254.624 477.151 255.951 477.688 257.139C478.242 258.311 478.966 259.409 479.861 260.435C480.708 261.395 481.692 262.16 482.815 262.729C483.955 263.299 485.273 263.584 486.771 263.584C487.894 263.584 488.87 263.438 489.7 263.145C490.547 262.852 491.23 262.437 491.751 261.899C492.272 261.362 492.654 260.736 492.898 260.02C493.159 259.287 493.289 258.449 493.289 257.505C493.289 256.121 492.898 254.836 492.117 253.647C491.336 252.443 490.172 251.532 488.626 250.913C487.568 250.49 486.355 250.026 484.988 249.521C483.621 249.001 482.441 248.512 481.448 248.057C479.495 247.178 477.973 246.03 476.883 244.614C475.809 243.182 475.271 241.318 475.271 239.023C475.271 237.705 475.54 236.476 476.077 235.337C476.614 234.198 477.379 233.18 478.372 232.285C479.316 231.439 480.431 230.78 481.717 230.308C483.003 229.819 484.345 229.575 485.745 229.575C487.34 229.575 488.764 229.819 490.018 230.308C491.287 230.796 492.443 231.366 493.484 232.017L494.485 230.356H496.438L496.634 241.855H494.656C494.298 240.537 493.891 239.276 493.436 238.071C492.996 236.867 492.418 235.776 491.702 234.8C491.002 233.856 490.148 233.107 489.139 232.554C488.13 231.984 486.893 231.699 485.428 231.699C483.882 231.699 482.563 232.196 481.473 233.188C480.382 234.181 479.837 235.394 479.837 236.826C479.837 238.324 480.187 239.569 480.887 240.562C481.587 241.538 482.604 242.344 483.938 242.979C485.127 243.548 486.29 244.045 487.43 244.468C488.585 244.875 489.7 245.314 490.774 245.786C491.751 246.209 492.687 246.689 493.582 247.227C494.493 247.764 495.283 248.39 495.95 249.106ZM530.447 234.458C531.977 236.053 533.174 237.982 534.036 240.244C534.899 242.49 535.33 244.98 535.33 247.715C535.33 250.465 534.891 252.964 534.012 255.21C533.133 257.456 531.912 259.368 530.35 260.947C528.836 262.51 527.078 263.714 525.076 264.561C523.074 265.407 520.942 265.83 518.68 265.83C516.271 265.83 514.041 265.382 511.99 264.487C509.956 263.576 508.206 262.314 506.741 260.703C505.276 259.124 504.121 257.212 503.274 254.966C502.444 252.703 502.029 250.286 502.029 247.715C502.029 244.899 502.469 242.393 503.348 240.195C504.227 237.982 505.439 236.069 506.985 234.458C508.515 232.863 510.289 231.642 512.308 230.796C514.342 229.95 516.466 229.526 518.68 229.526C520.975 229.526 523.139 229.958 525.174 230.82C527.208 231.683 528.966 232.896 530.447 234.458ZM526.81 259.019C527.721 257.537 528.38 255.861 528.787 253.989C529.21 252.118 529.422 250.026 529.422 247.715C529.422 245.339 529.186 243.158 528.714 241.172C528.258 239.186 527.583 237.493 526.688 236.094C525.792 234.71 524.669 233.636 523.318 232.871C521.967 232.09 520.421 231.699 518.68 231.699C516.727 231.699 515.066 232.147 513.699 233.042C512.332 233.937 511.217 235.133 510.354 236.631C509.541 238.063 508.93 239.74 508.523 241.66C508.133 243.581 507.938 245.599 507.938 247.715C507.938 250.059 508.149 252.174 508.572 254.062C508.995 255.951 509.663 257.627 510.574 259.092C511.453 260.524 512.56 261.647 513.895 262.461C515.229 263.258 516.824 263.657 518.68 263.657C520.421 263.657 521.992 263.25 523.392 262.437C524.791 261.623 525.931 260.483 526.81 259.019ZM567.483 254.697L566.751 265H539.676V263.267C540.066 263.234 540.628 263.177 541.36 263.096C542.109 263.014 542.63 262.909 542.923 262.778C543.411 262.567 543.761 262.257 543.973 261.851C544.201 261.444 544.314 260.923 544.314 260.288V235.483C544.314 234.93 544.217 234.442 544.021 234.019C543.842 233.595 543.476 233.254 542.923 232.993C542.549 232.798 542.02 232.611 541.336 232.432C540.669 232.236 540.115 232.122 539.676 232.09V230.356H554.3V232.09C553.844 232.106 553.25 232.188 552.518 232.334C551.801 232.48 551.281 232.611 550.955 232.725C550.402 232.92 550.019 233.254 549.808 233.726C549.612 234.198 549.515 234.702 549.515 235.239V258.506C549.515 259.58 549.563 260.418 549.661 261.021C549.775 261.606 550.027 262.062 550.418 262.388C550.792 262.681 551.346 262.876 552.078 262.974C552.827 263.055 553.868 263.096 555.203 263.096C555.805 263.096 556.432 263.079 557.083 263.047C557.734 263.014 558.353 262.949 558.938 262.852C559.508 262.754 560.029 262.624 560.501 262.461C560.989 262.282 561.347 262.062 561.575 261.802C562.243 261.053 563.016 259.922 563.895 258.408C564.79 256.878 565.408 255.641 565.75 254.697H567.483ZM604.886 232.09C604.43 232.106 603.763 232.204 602.884 232.383C602.005 232.562 601.289 232.83 600.735 233.188C600.182 233.563 599.799 234.336 599.588 235.508C599.376 236.68 599.271 238.112 599.271 239.805V254.868C599.271 256.789 598.872 258.457 598.074 259.873C597.277 261.289 596.227 262.453 594.925 263.364C593.639 264.243 592.28 264.87 590.848 265.244C589.432 265.635 588.073 265.83 586.771 265.83C584.687 265.83 582.832 265.553 581.204 265C579.576 264.463 578.209 263.73 577.103 262.803C576.012 261.875 575.19 260.817 574.637 259.629C574.083 258.424 573.807 257.171 573.807 255.869V235.386C573.807 234.816 573.709 234.344 573.514 233.97C573.335 233.579 572.96 233.221 572.391 232.896C571.984 232.668 571.463 232.489 570.828 232.358C570.193 232.212 569.673 232.122 569.266 232.09V230.356H583.694V232.09C583.239 232.106 582.661 232.179 581.961 232.31C581.277 232.44 580.773 232.562 580.447 232.676C579.894 232.871 579.52 233.197 579.324 233.652C579.145 234.108 579.056 234.604 579.056 235.142V254.282C579.056 255.21 579.153 256.187 579.349 257.212C579.56 258.221 579.967 259.165 580.569 260.044C581.204 260.939 582.067 261.672 583.157 262.241C584.248 262.811 585.745 263.096 587.649 263.096C589.44 263.096 590.937 262.811 592.142 262.241C593.362 261.672 594.323 260.923 595.022 259.995C595.69 259.116 596.162 258.197 596.438 257.236C596.715 256.276 596.854 255.308 596.854 254.331V240.122C596.854 238.315 596.723 236.842 596.463 235.703C596.202 234.548 595.82 233.791 595.315 233.433C594.746 233.026 593.965 232.708 592.972 232.48C591.995 232.253 591.246 232.122 590.726 232.09V230.356H604.886V232.09ZM635.843 239.756H634.158C634.012 239.17 633.743 238.478 633.353 237.681C632.978 236.867 632.555 236.102 632.083 235.386C631.595 234.637 631.058 233.986 630.472 233.433C629.902 232.863 629.349 232.537 628.812 232.456C628.307 232.391 627.672 232.342 626.907 232.31C626.142 232.277 625.434 232.261 624.783 232.261H623.367V259.971C623.367 260.508 623.481 261.004 623.709 261.46C623.937 261.899 624.336 262.241 624.905 262.485C625.198 262.599 625.809 262.754 626.736 262.949C627.68 263.145 628.413 263.25 628.934 263.267V265H612.576V263.267C613.032 263.234 613.724 263.169 614.651 263.071C615.595 262.974 616.246 262.852 616.604 262.705C617.142 262.493 617.532 262.192 617.776 261.802C618.037 261.395 618.167 260.858 618.167 260.19V232.261H616.751C616.246 232.261 615.62 232.277 614.871 232.31C614.122 232.326 613.406 232.375 612.723 232.456C612.186 232.521 611.624 232.847 611.038 233.433C610.468 234.002 609.939 234.653 609.451 235.386C608.963 236.118 608.532 236.899 608.157 237.729C607.783 238.543 607.522 239.219 607.376 239.756H605.667V230.356H635.843V239.756ZM653.787 265H638.187V263.267C638.626 263.234 639.261 263.185 640.091 263.12C640.921 263.055 641.507 262.957 641.849 262.827C642.386 262.616 642.776 262.331 643.021 261.973C643.265 261.598 643.387 261.086 643.387 260.435V235.337C643.387 234.767 643.297 234.295 643.118 233.921C642.939 233.53 642.516 233.205 641.849 232.944C641.36 232.749 640.742 232.57 639.993 232.407C639.261 232.228 638.659 232.122 638.187 232.09V230.356H653.787V232.09C653.283 232.106 652.68 232.171 651.98 232.285C651.281 232.383 650.67 232.513 650.149 232.676C649.531 232.871 649.116 233.188 648.904 233.628C648.693 234.067 648.587 234.556 648.587 235.093V260.166C648.587 260.703 648.701 261.183 648.929 261.606C649.173 262.013 649.58 262.339 650.149 262.583C650.491 262.713 651.045 262.86 651.81 263.022C652.591 263.169 653.25 263.25 653.787 263.267V265ZM686.111 234.458C687.641 236.053 688.838 237.982 689.7 240.244C690.563 242.49 690.994 244.98 690.994 247.715C690.994 250.465 690.555 252.964 689.676 255.21C688.797 257.456 687.576 259.368 686.014 260.947C684.5 262.51 682.742 263.714 680.74 264.561C678.738 265.407 676.606 265.83 674.344 265.83C671.935 265.83 669.705 265.382 667.654 264.487C665.62 263.576 663.87 262.314 662.405 260.703C660.94 259.124 659.785 257.212 658.938 254.966C658.108 252.703 657.693 250.286 657.693 247.715C657.693 244.899 658.133 242.393 659.012 240.195C659.891 237.982 661.103 236.069 662.649 234.458C664.179 232.863 665.953 231.642 667.972 230.796C670.006 229.95 672.13 229.526 674.344 229.526C676.639 229.526 678.803 229.958 680.838 230.82C682.872 231.683 684.63 232.896 686.111 234.458ZM682.474 259.019C683.385 257.537 684.044 255.861 684.451 253.989C684.874 252.118 685.086 250.026 685.086 247.715C685.086 245.339 684.85 243.158 684.378 241.172C683.922 239.186 683.247 237.493 682.352 236.094C681.456 234.71 680.333 233.636 678.982 232.871C677.632 232.09 676.085 231.699 674.344 231.699C672.391 231.699 670.73 232.147 669.363 233.042C667.996 233.937 666.881 235.133 666.019 236.631C665.205 238.063 664.594 239.74 664.188 241.66C663.797 243.581 663.602 245.599 663.602 247.715C663.602 250.059 663.813 252.174 664.236 254.062C664.66 255.951 665.327 257.627 666.238 259.092C667.117 260.524 668.224 261.647 669.559 262.461C670.893 263.258 672.488 263.657 674.344 263.657C676.085 263.657 677.656 263.25 679.056 262.437C680.455 261.623 681.595 260.483 682.474 259.019ZM730.887 232.09C730.431 232.106 729.731 232.236 728.787 232.48C727.843 232.725 727.168 232.977 726.761 233.237C726.175 233.644 725.776 234.425 725.564 235.581C725.369 236.737 725.271 238.201 725.271 239.976V265.342H723.147L702.151 236.997V254.868C702.151 256.87 702.273 258.408 702.518 259.482C702.778 260.557 703.169 261.322 703.689 261.777C704.064 262.135 704.837 262.469 706.009 262.778C707.181 263.088 707.954 263.25 708.328 263.267V265H694.119V263.267C694.559 263.234 695.299 263.079 696.341 262.803C697.382 262.51 698.034 262.249 698.294 262.021C698.864 261.566 699.254 260.874 699.466 259.946C699.677 259.002 699.783 257.399 699.783 255.137V238.071C699.783 237.323 699.653 236.574 699.393 235.825C699.132 235.076 698.782 234.499 698.343 234.092C697.757 233.555 696.959 233.099 695.95 232.725C694.957 232.334 694.152 232.122 693.533 232.09V230.356H703.421L722.903 256.772V240.293C722.903 238.275 722.773 236.729 722.513 235.654C722.252 234.564 721.878 233.84 721.39 233.481C720.934 233.172 720.185 232.871 719.144 232.578C718.118 232.285 717.337 232.122 716.8 232.09V230.356H730.887V232.09ZM755.276 249.106C756.009 249.92 756.546 250.815 756.888 251.792C757.246 252.752 757.425 253.875 757.425 255.161C757.425 258.221 756.294 260.744 754.031 262.729C751.769 264.715 748.961 265.708 745.608 265.708C744.062 265.708 742.516 265.472 740.97 265C739.424 264.512 738.089 263.926 736.966 263.242L735.916 265.024H733.963L733.621 253.159H735.599C736.006 254.624 736.478 255.951 737.015 257.139C737.568 258.311 738.292 259.409 739.188 260.435C740.034 261.395 741.019 262.16 742.142 262.729C743.281 263.299 744.599 263.584 746.097 263.584C747.22 263.584 748.196 263.438 749.026 263.145C749.873 262.852 750.556 262.437 751.077 261.899C751.598 261.362 751.98 260.736 752.225 260.02C752.485 259.287 752.615 258.449 752.615 257.505C752.615 256.121 752.225 254.836 751.443 253.647C750.662 252.443 749.498 251.532 747.952 250.913C746.894 250.49 745.682 250.026 744.314 249.521C742.947 249.001 741.767 248.512 740.774 248.057C738.821 247.178 737.299 246.03 736.209 244.614C735.135 243.182 734.598 241.318 734.598 239.023C734.598 237.705 734.866 236.476 735.403 235.337C735.94 234.198 736.705 233.18 737.698 232.285C738.642 231.439 739.757 230.78 741.043 230.308C742.329 229.819 743.672 229.575 745.071 229.575C746.666 229.575 748.09 229.819 749.344 230.308C750.613 230.796 751.769 231.366 752.811 232.017L753.812 230.356H755.765L755.96 241.855H753.982C753.624 240.537 753.217 239.276 752.762 238.071C752.322 236.867 751.744 235.776 751.028 234.8C750.328 233.856 749.474 233.107 748.465 232.554C747.456 231.984 746.219 231.699 744.754 231.699C743.208 231.699 741.889 232.196 740.799 233.188C739.708 234.181 739.163 235.394 739.163 236.826C739.163 238.324 739.513 239.569 740.213 240.562C740.913 241.538 741.93 242.344 743.265 242.979C744.453 243.548 745.617 244.045 746.756 244.468C747.911 244.875 749.026 245.314 750.101 245.786C751.077 246.209 752.013 246.689 752.908 247.227C753.82 247.764 754.609 248.39 755.276 249.106Z" fill="white"/>
</g>
</g>
</g>
</g>
</svg>
