<svg width="625" height="443" viewBox="0 0 625 443" fill="none" xmlns="http://www.w3.org/2000/svg">
<path d="M562.375 429.363H520.975V429.675H562.375V429.363Z" fill="#EBEBEB"/>
<path d="M414.025 432.763H403.163V433.075H414.025V432.763Z" fill="#EBEBEB"/>
<path d="M519.725 417.763H495.738V418.075H519.725V417.763Z" fill="#EBEBEB"/>
<path d="M119.562 419.863H65.575V420.175H119.562V419.863Z" fill="#EBEBEB"/>
<path d="M138.612 419.863H130.7V420.175H138.612V419.863Z" fill="#EBEBEB"/>
<path d="M281.438 425.137H164.338V425.45H281.438V425.137Z" fill="#EBEBEB"/>
<path d="M296.25 353.5H54.9C53.007 353.5 51.1915 352.748 49.853 351.409C48.5145 350.071 47.7625 348.255 47.7625 346.362V7.075C47.779 5.19287 48.5382 3.39343 49.875 2.06838C51.2117 0.743328 53.0178 -7.21574e-05 54.9 5.25318e-09H296.25C298.143 5.2532e-09 299.958 0.751985 301.297 2.09053C302.635 3.42907 303.387 5.24452 303.387 7.1375V346.362C303.387 348.255 302.635 350.071 301.297 351.409C299.958 352.748 298.143 353.5 296.25 353.5V353.5ZM54.9 0.250001C53.0909 0.253305 51.3569 0.973425 50.0776 2.25265C48.7984 3.53187 48.0783 5.26591 48.075 7.075V346.362C48.0783 348.172 48.7984 349.906 50.0776 351.185C51.3569 352.464 53.0909 353.184 54.9 353.187H296.25C298.059 353.184 299.793 352.464 301.072 351.185C302.352 349.906 303.072 348.172 303.075 346.362V7.075C303.072 5.26591 302.352 3.53187 301.072 2.25265C299.793 0.973425 298.059 0.253305 296.25 0.250001H54.9Z" fill="#EBEBEB"/>
<path d="M566.637 353.5H325.262C323.371 353.497 321.557 352.744 320.219 351.406C318.881 350.068 318.128 348.254 318.125 346.362V7.075C318.145 5.19389 318.905 3.39635 320.241 2.07199C321.577 0.747636 323.381 0.00318536 325.262 0H566.637C568.515 0.00650562 570.315 0.752811 571.646 2.07716C572.978 3.40151 573.734 5.19719 573.75 7.075V346.362C573.75 348.251 573.001 350.063 571.668 351.401C570.335 352.738 568.526 353.493 566.637 353.5V353.5ZM325.262 0.250001C323.453 0.253305 321.719 0.973425 320.44 2.25265C319.161 3.53187 318.441 5.26591 318.438 7.075V346.362C318.441 348.172 319.161 349.906 320.44 351.185C321.719 352.464 323.453 353.184 325.262 353.187H566.637C568.447 353.184 570.181 352.464 571.46 351.185C572.739 349.906 573.459 348.172 573.462 346.362V7.075C573.459 5.26591 572.739 3.53187 571.46 2.25265C570.181 0.973425 568.447 0.253305 566.637 0.250001H325.262Z" fill="#EBEBEB"/>
<path d="M625 409.25H0V409.563H625V409.25Z" fill="#EBEBEB"/>
<path d="M253.9 330.762H103.15V57.875L104.687 56.4C124.519 37.3069 150.996 26.6703 178.525 26.7375C206.054 26.6677 232.532 37.3046 252.363 56.4L253.9 57.875V330.762ZM113.15 320.762H243.9V62.175C226.059 45.8138 202.732 36.737 178.525 36.737C154.318 36.737 130.991 45.8138 113.15 62.175V320.762Z" fill="#E0E0E0"/>
<path d="M245.8 106.463V98.9625H182.275V35.4375H174.775V98.9625H111.25V106.463H174.775V174.975H111.25V182.475H174.775V251H111.25V258.5H174.775V322.013H182.275V258.5H245.8V251H182.275V182.475H245.8V174.975H182.275V106.463H245.8Z" fill="#F5F5F5"/>
<path d="M258.9 335.763H98.15V55.8375L99.6125 54.375C120.56 33.4578 148.953 21.7092 178.556 21.7092C208.159 21.7092 236.552 33.4578 257.5 54.375L258.962 55.8375L258.9 335.763ZM108.15 325.763H248.9V60C229.965 41.8538 204.752 31.7231 178.525 31.7231C152.298 31.7231 127.085 41.8538 108.15 60V325.763Z" fill="#EBEBEB"/>
<path d="M519.6 330.762H368.85V57.875L370.388 56.4C390.219 37.3069 416.696 26.6703 444.225 26.7375V26.7375C471.758 26.6671 498.24 37.3039 518.075 56.4L519.6 57.875V330.762ZM378.85 320.762H509.6V62.175C491.759 45.8138 468.432 36.737 444.225 36.737C420.018 36.737 396.691 45.8138 378.85 62.175V320.762Z" fill="#E0E0E0"/>
<path d="M511.5 106.463V98.9625H447.975V35.4375H440.475V98.9625H376.963V106.463H440.475V174.975H376.963V182.475H440.475V251H376.963V258.5H440.475V322.013H447.975V258.5H511.5V251H447.975V182.475H511.5V174.975H447.975V106.463H511.5Z" fill="#F5F5F5"/>
<path d="M524.6 335.762H363.85V55.8375L365.325 54.375C386.268 33.4777 414.646 21.7415 444.231 21.7415C473.817 21.7415 502.194 33.4777 523.138 54.375L524.6 55.8375V335.762ZM373.85 325.762H514.6V60C495.665 41.8538 470.452 31.7231 444.225 31.7231C417.998 31.7231 392.785 41.8538 373.85 60V325.762Z" fill="#EBEBEB"/>
<path d="M313.975 394.725H339.075C339.986 394.725 340.725 393.986 340.725 393.075V388.75C340.725 387.839 339.986 387.1 339.075 387.1H313.975C313.064 387.1 312.325 387.839 312.325 388.75V393.075C312.325 393.986 313.064 394.725 313.975 394.725Z" fill="#EBEBEB"/>
<path d="M284.188 394.725H309.287C310.199 394.725 310.938 393.986 310.938 393.075V388.75C310.938 387.839 310.199 387.1 309.287 387.1H284.188C283.276 387.1 282.537 387.839 282.537 388.75V393.075C282.537 393.986 283.276 394.725 284.188 394.725Z" fill="#F5F5F5"/>
<path d="M297.463 385.275H322.563C323.474 385.275 324.213 384.536 324.213 383.625V379.3C324.213 378.389 323.474 377.65 322.563 377.65H297.463C296.551 377.65 295.813 378.389 295.813 379.3V383.625C295.813 384.536 296.551 385.275 297.463 385.275Z" fill="#F5F5F5"/>
<path d="M267.738 385.275H292.838C293.749 385.275 294.488 384.536 294.488 383.625V379.3C294.488 378.389 293.749 377.65 292.838 377.65H267.738C266.826 377.65 266.088 378.389 266.088 379.3V383.625C266.088 384.536 266.826 385.275 267.738 385.275Z" fill="#F0F0F0"/>
<path d="M103.15 390H128.25C129.161 390 129.9 389.261 129.9 388.35V384.025C129.9 383.114 129.161 382.375 128.25 382.375H103.15C102.239 382.375 101.5 383.114 101.5 384.025V388.35C101.5 389.261 102.239 390 103.15 390Z" fill="#F0F0F0"/>
<path d="M73.3625 390H98.4625C99.3738 390 100.113 389.261 100.113 388.35V384.025C100.113 383.114 99.3738 382.375 98.4625 382.375H73.3625C72.4512 382.375 71.7125 383.114 71.7125 384.025V388.35C71.7125 389.261 72.4512 390 73.3625 390Z" fill="#F5F5F5"/>
<path d="M86.625 380.562H111.725C112.636 380.562 113.375 379.824 113.375 378.912V374.588C113.375 373.676 112.636 372.937 111.725 372.937H86.625C85.7137 372.937 84.975 373.676 84.975 374.588V378.912C84.975 379.824 85.7137 380.562 86.625 380.562Z" fill="#F5F5F5"/>
<path d="M56.9 380.562H82C82.9112 380.562 83.65 379.824 83.65 378.912V374.588C83.65 373.676 82.9112 372.937 82 372.937H56.9C55.9887 372.937 55.25 373.676 55.25 374.588V378.912C55.25 379.824 55.9887 380.562 56.9 380.562Z" fill="#F5F5F5"/>
<path d="M85.1875 29.975L110.287 29.975C111.199 29.975 111.937 29.2363 111.937 28.325V24C111.937 23.0888 111.199 22.35 110.287 22.35L85.1875 22.35C84.2762 22.35 83.5375 23.0888 83.5375 24V28.325C83.5375 29.2363 84.2762 29.975 85.1875 29.975Z" fill="#F5F5F5"/>
<path d="M98.45 20.5375L123.55 20.5375C124.461 20.5375 125.2 19.7988 125.2 18.8875V14.5625C125.2 13.6512 124.461 12.9125 123.55 12.9125L98.45 12.9125C97.5387 12.9125 96.8 13.6512 96.8 14.5625V18.8875C96.8 19.7988 97.5387 20.5375 98.45 20.5375Z" fill="#F5F5F5"/>
<path d="M68.725 20.5375L93.825 20.5375C94.7363 20.5375 95.475 19.7988 95.475 18.8875V14.5625C95.475 13.6512 94.7363 12.9125 93.825 12.9125L68.725 12.9125C67.8137 12.9125 67.075 13.6512 67.075 14.5625V18.8875C67.075 19.7988 67.8137 20.5375 68.725 20.5375Z" fill="#F0F0F0"/>
<path d="M535.188 38.525H560.287C561.199 38.525 561.938 37.7863 561.938 36.875V32.55C561.938 31.6387 561.199 30.9 560.287 30.9L535.188 30.9C534.276 30.9 533.537 31.6387 533.537 32.55V36.875C533.537 37.7863 534.276 38.525 535.188 38.525Z" fill="#F0F0F0"/>
<path d="M518.65 29.075L543.75 29.075C544.661 29.075 545.4 28.3363 545.4 27.425V23.1C545.4 22.1887 544.661 21.45 543.75 21.45L518.65 21.45C517.739 21.45 517 22.1887 517 23.1V27.425C517 28.3363 517.739 29.075 518.65 29.075Z" fill="#F5F5F5"/>
<path d="M446.075 335.538H371.288V410.325H446.075V335.538Z" fill="#F5F5F5"/>
<path d="M492.025 335.538H446.087V410.325H492.025V335.538Z" fill="#EBEBEB"/>
<path d="M464.463 335.538V363.85L465.65 362.775L467.75 364.088L469.588 362.775L471.95 364.088L474.438 362.775L476.013 364.088L477.838 363.125V335.538H464.463Z" fill="#E0E0E0"/>
<path opacity="0.7" d="M464.463 335.538V363.85L465.65 362.775L467.75 364.088L469.588 362.775L471.95 364.088L474.438 362.775L476.013 364.088L477.838 363.125V335.538H464.463Z" fill="#E0E0E0"/>
<path d="M515.938 365.8H471.4V410.337H515.938V365.8Z" fill="#F5F5F5"/>
<path d="M543.275 365.8H515.925V410.337H543.275V365.8Z" fill="#E6E6E6"/>
<path d="M507.425 378.312H462.888L471.4 365.8H515.925L507.425 378.312Z" fill="#E6E6E6"/>
<path d="M523.988 378.312H551.338L543.288 365.8H515.925L523.988 378.312Z" fill="#F5F5F5"/>
<path d="M370.262 365.8H325.725V410.337H370.262V365.8Z" fill="#F5F5F5"/>
<path d="M397.6 365.8H370.25V410.337H397.6V365.8Z" fill="#E6E6E6"/>
<path d="M361.75 354.625H317.213L325.725 365.8H370.25L361.75 354.625Z" fill="#E6E6E6"/>
<path d="M378.313 354.625H405.663L397.613 365.8H370.25L378.313 354.625Z" fill="#EBEBEB"/>
<path d="M294.551 442.956C423.196 442.956 527.484 436.867 527.484 429.356C527.484 421.846 423.196 415.757 294.551 415.757C165.906 415.757 61.6181 421.846 61.6181 429.356C61.6181 436.867 165.906 442.956 294.551 442.956Z" fill="#F5F5F5"/>
<path d="M382.515 209.386H223.202C221.178 209.386 219.538 211.027 219.538 213.05V217.784C219.538 219.807 221.178 221.448 223.202 221.448H382.515C384.539 221.448 386.179 219.807 386.179 217.784V213.05C386.179 211.027 384.539 209.386 382.515 209.386Z" fill="#407BFF"/>
<path opacity="0.8" d="M382.515 209.386H223.202C221.178 209.386 219.538 211.027 219.538 213.05V217.784C219.538 219.807 221.178 221.448 223.202 221.448H382.515C384.539 221.448 386.179 219.807 386.179 217.784V213.05C386.179 211.027 384.539 209.386 382.515 209.386Z" fill="white"/>
<path d="M382.503 228.031H223.202C220.485 228.028 217.88 226.948 215.959 225.026C214.038 223.105 212.957 220.501 212.954 217.784V213.05C212.957 210.333 214.038 207.729 215.959 205.808C217.88 203.887 220.485 202.806 223.202 202.803H382.503C385.221 202.806 387.827 203.886 389.75 205.807C391.673 207.728 392.756 210.332 392.763 213.05V217.784C392.756 220.502 391.673 223.106 389.75 225.027C387.827 226.948 385.221 228.028 382.503 228.031ZM223.202 205.001C221.067 205.004 219.02 205.853 217.51 207.362C215.999 208.87 215.147 210.915 215.141 213.05V217.784C215.144 219.92 215.995 221.967 217.506 223.476C219.017 224.985 221.066 225.833 223.202 225.833H382.503C384.639 225.833 386.688 224.985 388.199 223.476C389.71 221.967 390.561 219.92 390.564 217.784V213.05C390.558 210.915 389.706 208.87 388.195 207.362C386.685 205.853 384.638 205.004 382.503 205.001H223.202Z" fill="#263238"/>
<g opacity="0.3">
<path opacity="0.3" d="M382.503 228.031H223.202C220.485 228.028 217.88 226.948 215.959 225.026C214.038 223.105 212.957 220.501 212.954 217.784V213.05C212.957 210.333 214.038 207.729 215.959 205.808C217.88 203.887 220.485 202.806 223.202 202.803H382.503C385.221 202.806 387.827 203.886 389.75 205.807C391.673 207.728 392.756 210.332 392.763 213.05V217.784C392.756 220.502 391.673 223.106 389.75 225.027C387.827 226.948 385.221 228.028 382.503 228.031ZM223.202 205.001C221.067 205.004 219.02 205.853 217.51 207.362C215.999 208.87 215.147 210.915 215.141 213.05V217.784C215.144 219.92 215.995 221.967 217.506 223.476C219.017 224.985 221.066 225.833 223.202 225.833H382.503C384.639 225.833 386.688 224.985 388.199 223.476C389.71 221.967 390.561 219.92 390.564 217.784V213.05C390.558 210.915 389.706 208.87 388.195 207.362C386.685 205.853 384.638 205.004 382.503 205.001H223.202Z" fill="white"/>
</g>
<path d="M345.885 209.386H223.202C222.242 209.405 221.327 209.799 220.653 210.484C219.98 211.169 219.601 212.09 219.598 213.05V217.784C219.601 218.744 219.98 219.666 220.653 220.35C221.327 221.035 222.242 221.429 223.202 221.448H333.824L345.885 209.386Z" fill="#407BFF"/>
<path d="M456.988 228.031H409.089C408.66 228.032 408.235 227.946 407.84 227.776C407.446 227.607 407.09 227.358 406.795 227.046L397.736 217.507C397.176 216.92 396.863 216.139 396.863 215.327C396.863 214.515 397.176 213.734 397.736 213.146L406.771 203.764C407.066 203.461 407.419 203.22 407.809 203.055C408.199 202.89 408.618 202.804 409.041 202.803H456.964C457.802 202.803 458.606 203.136 459.198 203.728C459.791 204.321 460.123 205.124 460.123 205.962V224.884C460.123 225.717 459.793 226.515 459.206 227.105C458.618 227.695 457.821 228.028 456.988 228.031V228.031Z" fill="#407BFF"/>
<path d="M423.41 207.945V210.239L417.823 223.01H414.039L419.433 210.816H414.472V213.219H411.384V207.933L423.41 207.945Z" fill="white"/>
<path d="M436.18 220.138V222.974H424.815V220.727L430.618 215.249C431.093 214.808 431.498 214.298 431.819 213.735C432.018 213.365 432.129 212.954 432.144 212.534C432.158 212.271 432.11 212.009 432.004 211.769C431.897 211.529 431.735 211.317 431.531 211.152C431.001 210.794 430.366 210.625 429.729 210.672C429.116 210.661 428.508 210.788 427.951 211.044C427.416 211.299 426.957 211.688 426.617 212.173L424.082 210.479C424.682 209.589 425.513 208.879 426.485 208.425C427.596 207.917 428.808 207.667 430.029 207.692C431.033 207.671 432.03 207.855 432.961 208.233C433.745 208.556 434.424 209.093 434.919 209.783C435.405 210.487 435.65 211.33 435.616 212.185C435.622 212.98 435.445 213.765 435.099 214.48C434.576 215.389 433.901 216.201 433.105 216.883L429.645 220.138H436.18Z" fill="white"/>
<path d="M438.619 214.937C437.949 214.079 437.585 213.022 437.585 211.933C437.585 210.845 437.949 209.787 438.619 208.93C438.97 208.572 439.389 208.288 439.851 208.095C440.313 207.901 440.809 207.801 441.31 207.801C441.811 207.801 442.307 207.901 442.769 208.095C443.231 208.288 443.65 208.572 444.001 208.93C444.658 209.793 445.013 210.848 445.013 211.933C445.013 213.018 444.658 214.073 444.001 214.937C443.65 215.294 443.231 215.578 442.769 215.772C442.307 215.965 441.811 216.065 441.31 216.065C440.809 216.065 440.313 215.965 439.851 215.772C439.389 215.578 438.97 215.294 438.619 214.937V214.937ZM442.463 213.735C442.777 213.197 442.923 212.578 442.884 211.957C442.923 211.332 442.777 210.709 442.463 210.167C442.335 209.981 442.164 209.829 441.964 209.724C441.764 209.619 441.542 209.565 441.316 209.565C441.09 209.565 440.868 209.619 440.668 209.724C440.468 209.829 440.297 209.981 440.169 210.167C439.882 210.725 439.733 211.342 439.733 211.969C439.733 212.596 439.882 213.214 440.169 213.771C440.297 213.957 440.468 214.109 440.668 214.214C440.868 214.319 441.09 214.374 441.316 214.374C441.542 214.374 441.764 214.319 441.964 214.214C442.164 214.109 442.335 213.957 442.463 213.771V213.735ZM450.272 207.981H452.819L442.559 223.01H440.001L450.272 207.981ZM449.587 222.685C449.018 222.336 448.56 221.831 448.266 221.232C447.94 220.55 447.779 219.801 447.797 219.045C447.782 218.286 447.942 217.534 448.266 216.847C448.56 216.25 449.019 215.75 449.587 215.405C450.17 215.065 450.835 214.89 451.51 214.9C452.014 214.883 452.516 214.973 452.982 215.166C453.449 215.359 453.868 215.649 454.213 216.018C454.873 216.88 455.231 217.935 455.231 219.021C455.231 220.107 454.873 221.163 454.213 222.025C453.866 222.392 453.447 222.682 452.981 222.876C452.515 223.071 452.014 223.165 451.51 223.154C450.835 223.164 450.17 222.99 449.587 222.649V222.685ZM452.663 220.811C452.95 220.254 453.099 219.636 453.099 219.009C453.099 218.382 452.95 217.765 452.663 217.207C452.536 217.007 452.358 216.844 452.146 216.736C451.935 216.628 451.698 216.579 451.462 216.594C451.236 216.592 451.014 216.646 450.815 216.751C450.616 216.855 450.446 217.008 450.32 217.195C450.006 217.737 449.86 218.36 449.9 218.985C449.86 219.606 450.007 220.225 450.32 220.763C450.446 220.95 450.616 221.103 450.815 221.208C451.014 221.313 451.236 221.366 451.462 221.364C451.696 221.381 451.931 221.336 452.142 221.233C452.353 221.129 452.533 220.971 452.663 220.775V220.811Z" fill="white"/>
<path d="M510.184 98.9926L499.672 99.1608C498.342 96.3181 496.766 93.5968 494.963 91.0276L500.369 82.0053C497.593 78.568 494.46 75.4349 491.023 72.6587L482 78.0648C479.43 76.2575 476.704 74.6815 473.855 73.3554L474.035 62.8315C469.93 61.2488 465.67 60.1012 461.325 59.4076L456.207 68.6221C454.657 68.4899 453.095 68.4058 451.51 68.4058C449.924 68.4058 448.362 68.4899 446.812 68.6221L441.694 59.4076C437.317 60.0962 433.025 61.2438 428.888 62.8315L429.068 73.3554C426.223 74.6816 423.501 76.2576 420.935 78.0648L411.913 72.6587C408.475 75.4381 405.338 78.5708 402.554 82.0053L407.972 91.0276C406.16 93.5912 404.584 96.3134 403.263 99.1608L392.739 98.9926C391.13 103.103 389.958 107.371 389.243 111.727L398.457 116.833C398.313 118.383 398.229 119.956 398.229 121.53C398.229 123.104 398.313 124.69 398.457 126.228L389.243 131.381C389.947 135.753 391.111 140.037 392.715 144.164L403.239 143.996C404.56 146.843 406.136 149.565 407.948 152.129L402.53 161.151C405.314 164.586 408.45 167.719 411.889 170.498L420.911 165.092C423.477 166.899 426.199 168.475 429.044 169.801L428.864 180.313C432.987 181.908 437.268 183.06 441.634 183.749L446.752 174.535C448.302 174.667 449.864 174.751 451.45 174.751C453.035 174.751 454.597 174.667 456.147 174.535L461.265 183.749C465.632 183.061 469.913 181.909 474.035 180.313L473.855 169.801C476.704 168.475 479.43 166.899 482 165.092L491.023 170.498C494.46 167.722 497.593 164.589 500.369 161.151L494.963 152.129C496.766 149.56 498.342 146.838 499.672 143.996L510.184 144.164C511.782 140.043 512.93 135.761 513.608 131.393L504.406 126.276C504.538 124.738 504.622 123.164 504.622 121.578C504.622 119.992 504.538 118.431 504.406 116.881L513.608 111.775C512.931 107.403 511.783 103.118 510.184 98.9926V98.9926Z" fill="#407BFF"/>
<path opacity="0.4" d="M510.184 98.9926L499.672 99.1608C498.342 96.3181 496.766 93.5968 494.963 91.0276L500.369 82.0053C497.593 78.568 494.46 75.4349 491.023 72.6587L482 78.0648C479.43 76.2575 476.704 74.6815 473.855 73.3554L474.035 62.8315C469.93 61.2488 465.67 60.1012 461.325 59.4076L456.207 68.6221C454.657 68.4899 453.095 68.4058 451.51 68.4058C449.924 68.4058 448.362 68.4899 446.812 68.6221L441.694 59.4076C437.317 60.0962 433.025 61.2438 428.888 62.8315L429.068 73.3554C426.223 74.6816 423.501 76.2576 420.935 78.0648L411.913 72.6587C408.475 75.4381 405.338 78.5708 402.554 82.0053L407.972 91.0276C406.16 93.5912 404.584 96.3134 403.263 99.1608L392.739 98.9926C391.13 103.103 389.958 107.371 389.243 111.727L398.457 116.833C398.313 118.383 398.229 119.956 398.229 121.53C398.229 123.104 398.313 124.69 398.457 126.228L389.243 131.381C389.947 135.753 391.111 140.037 392.715 144.164L403.239 143.996C404.56 146.843 406.136 149.565 407.948 152.129L402.53 161.151C405.314 164.586 408.45 167.719 411.889 170.498L420.911 165.092C423.477 166.899 426.199 168.475 429.044 169.801L428.864 180.313C432.987 181.908 437.268 183.06 441.634 183.749L446.752 174.535C448.302 174.667 449.864 174.751 451.45 174.751C453.035 174.751 454.597 174.667 456.147 174.535L461.265 183.749C465.632 183.061 469.913 181.909 474.035 180.313L473.855 169.801C476.704 168.475 479.43 166.899 482 165.092L491.023 170.498C494.46 167.722 497.593 164.589 500.369 161.151L494.963 152.129C496.766 149.56 498.342 146.838 499.672 143.996L510.184 144.164C511.782 140.043 512.93 135.761 513.608 131.393L504.406 126.276C504.538 124.738 504.622 123.164 504.622 121.578C504.622 119.992 504.538 118.431 504.406 116.881L513.608 111.775C512.931 107.403 511.783 103.118 510.184 98.9926V98.9926Z" fill="white"/>
<path opacity="0.2" d="M451.45 153.114C468.873 153.114 482.997 138.99 482.997 121.566C482.997 104.143 468.873 90.0184 451.45 90.0184C434.026 90.0184 419.902 104.143 419.902 121.566C419.902 138.99 434.026 153.114 451.45 153.114Z" fill="black"/>
<path d="M468.233 128.126C468.955 127.318 469.354 126.272 469.354 125.188C469.354 124.105 468.955 123.059 468.233 122.251L468.149 122.155V122.095C464.857 118.803 461.561 115.507 458.261 112.208C454.297 108.243 448.134 114.394 452.11 118.371L454.513 120.773H437.694C432.096 120.773 432.084 129.483 437.694 129.483H454.513L452.11 131.886C448.134 135.863 454.297 142.014 458.261 138.049L468.149 128.162V128.09L468.233 128.126Z" fill="#407BFF"/>
<path opacity="0.4" d="M468.233 128.126C468.955 127.318 469.354 126.272 469.354 125.188C469.354 124.105 468.955 123.059 468.233 122.251L468.149 122.155V122.095C464.857 118.803 461.561 115.507 458.261 112.208C454.297 108.243 448.134 114.394 452.11 118.371L454.513 120.773H437.694C432.096 120.773 432.084 129.483 437.694 129.483H454.513L452.11 131.886C448.134 135.863 454.297 142.014 458.261 138.049L468.149 128.162V128.09L468.233 128.126Z" fill="black"/>
<path d="M468.233 124.522C468.955 123.714 469.354 122.668 469.354 121.584C469.354 120.501 468.955 119.455 468.233 118.647L468.149 118.551V118.491C464.857 115.199 461.561 111.903 458.261 108.604C454.297 104.639 448.134 110.79 452.11 114.767L454.513 117.169H437.694C432.096 117.169 432.084 125.879 437.694 125.879H454.513L452.11 128.282C448.134 132.258 454.297 138.409 458.261 134.445L468.149 124.558V124.486L468.233 124.522Z" fill="#407BFF"/>
<path d="M467.524 54.9866C470.205 55.6415 472.848 56.4436 475.441 57.3893C476.09 57.6296 476.378 56.5844 475.729 56.3561C473.136 55.4106 470.493 54.6084 467.812 53.9534C467.139 53.7972 466.851 54.8424 467.524 54.9986V54.9866Z" fill="#407BFF"/>
<path d="M402.458 73.5717C415.504 60.6341 433.089 53.3054 451.462 53.1485C451.605 53.1485 451.742 53.0915 451.844 52.9901C451.945 52.8887 452.002 52.7512 452.002 52.6079C452.002 52.4645 451.945 52.327 451.844 52.2256C451.742 52.1242 451.605 52.0672 451.462 52.0672C432.797 52.2462 414.939 59.7032 401.689 72.8509C401.638 72.9014 401.598 72.9613 401.571 73.0273C401.544 73.0932 401.53 73.1639 401.53 73.2353C401.53 73.3067 401.544 73.3774 401.571 73.4434C401.598 73.5093 401.638 73.5693 401.689 73.6198C401.739 73.6702 401.799 73.7103 401.865 73.7376C401.931 73.7649 402.002 73.779 402.073 73.779C402.145 73.779 402.215 73.7649 402.281 73.7376C402.347 73.7103 402.407 73.6702 402.458 73.6198V73.5717Z" fill="#407BFF"/>
<path d="M378.707 134.085C379.366 131.578 379.824 129.023 380.076 126.444L391.91 123.404C391.91 121.903 391.91 120.413 391.91 118.923L380.016 116.04C379.436 110.891 378.054 105.865 375.92 101.143L384.642 92.5893C383.933 91.2678 383.176 89.9824 382.371 88.7209L370.646 92.1568C367.564 88.0049 363.855 84.3573 359.653 81.3445L362.933 69.5591C361.732 68.7782 360.362 68.0574 359.04 67.3606L350.631 76.2027C348.258 75.1665 345.808 74.3189 343.303 73.6678C340.8 73.0093 338.249 72.5514 335.674 72.2982L332.622 60.4648C331.121 60.4648 329.631 60.4648 328.153 60.4648L325.258 72.3583C320.108 72.9403 315.081 74.3267 310.361 76.467L301.807 67.733C300.486 68.4419 299.2 69.1987 297.939 70.0036L301.375 81.729C297.223 84.8107 293.575 88.5192 290.563 92.7215L278.717 89.4057C277.936 90.6671 277.215 91.9766 276.519 93.2981L285.361 101.708C284.324 104.076 283.477 106.522 282.826 109.024C282.173 111.528 281.715 114.078 281.456 116.653L269.623 119.704C269.623 121.206 269.623 122.696 269.623 124.185L281.516 127.069C282.098 132.219 283.485 137.245 285.625 141.965L276.903 150.519C277.612 151.841 278.357 153.126 279.162 154.388L290.887 150.952C293.969 155.104 297.677 158.751 301.879 161.764L298.6 173.549C299.861 174.33 301.171 175.051 302.504 175.748L310.914 166.906C313.282 167.942 315.728 168.79 318.23 169.441C320.736 170.1 323.291 170.558 325.871 170.81L328.91 182.644C330.412 182.644 331.902 182.644 333.391 182.644L336.275 170.75C341.425 170.171 346.452 168.785 351.171 166.642L359.725 175.375C361.047 174.667 362.332 173.91 363.594 173.105L360.158 161.38C364.312 158.301 367.961 154.592 370.97 150.387L382.755 153.667C383.536 152.405 384.257 151.096 384.954 149.762L376.112 141.353C377.166 139.002 378.034 136.572 378.707 134.085V134.085Z" fill="#407BFF"/>
<path opacity="0.2" d="M378.707 134.085C379.366 131.578 379.824 129.023 380.076 126.444L391.91 123.404C391.91 121.903 391.91 120.413 391.91 118.923L380.016 116.04C379.436 110.891 378.054 105.865 375.92 101.143L384.642 92.5893C383.933 91.2678 383.176 89.9824 382.371 88.7209L370.646 92.1568C367.564 88.0049 363.855 84.3573 359.653 81.3445L362.933 69.5591C361.732 68.7782 360.362 68.0574 359.04 67.3606L350.631 76.2027C348.258 75.1665 345.808 74.3189 343.303 73.6678C340.8 73.0093 338.249 72.5514 335.674 72.2982L332.622 60.4648C331.121 60.4648 329.631 60.4648 328.153 60.4648L325.258 72.3583C320.108 72.9403 315.081 74.3267 310.361 76.467L301.807 67.733C300.486 68.4419 299.2 69.1987 297.939 70.0036L301.375 81.729C297.223 84.8107 293.575 88.5192 290.563 92.7215L278.717 89.4057C277.936 90.6671 277.215 91.9766 276.519 93.2981L285.361 101.708C284.324 104.076 283.477 106.522 282.826 109.024C282.173 111.528 281.715 114.078 281.456 116.653L269.623 119.704C269.623 121.206 269.623 122.696 269.623 124.185L281.516 127.069C282.098 132.219 283.485 137.245 285.625 141.965L276.903 150.519C277.612 151.841 278.357 153.126 279.162 154.388L290.887 150.952C293.969 155.104 297.677 158.751 301.879 161.764L298.6 173.549C299.861 174.33 301.171 175.051 302.504 175.748L310.914 166.906C313.282 167.942 315.728 168.79 318.23 169.441C320.736 170.1 323.291 170.558 325.871 170.81L328.91 182.644C330.412 182.644 331.902 182.644 333.391 182.644L336.275 170.75C341.425 170.171 346.452 168.785 351.171 166.642L359.725 175.375C361.047 174.667 362.332 173.91 363.594 173.105L360.158 161.38C364.312 158.301 367.961 154.592 370.97 150.387L382.755 153.667C383.536 152.405 384.257 151.096 384.954 149.762L376.112 141.353C377.166 139.002 378.034 136.572 378.707 134.085V134.085Z" fill="white"/>
<path opacity="0.3" d="M330.76 152.982C348.111 152.982 362.176 138.917 362.176 121.566C362.176 104.216 348.111 90.1506 330.76 90.1506C313.41 90.1506 299.345 104.216 299.345 121.566C299.345 138.917 313.41 152.982 330.76 152.982Z" fill="black"/>
<path d="M345.861 127.645C346.512 126.918 346.871 125.977 346.871 125.002C346.871 124.027 346.512 123.086 345.861 122.359L345.789 122.275L336.887 113.373C333.283 109.769 327.781 115.343 331.349 118.911C332.082 119.656 332.827 120.389 333.559 121.122H318.422C313.376 121.122 313.364 128.967 318.422 128.967H333.535C332.803 129.7 332.058 130.432 331.325 131.177C327.721 134.781 333.295 140.284 336.863 136.716L345.765 127.813L345.861 127.645Z" fill="#407BFF"/>
<path opacity="0.4" d="M345.861 127.645C346.512 126.918 346.871 125.977 346.871 125.002C346.871 124.027 346.512 123.086 345.861 122.359L345.789 122.275L336.887 113.373C333.283 109.769 327.781 115.343 331.349 118.911C332.082 119.656 332.827 120.389 333.559 121.122H318.422C313.376 121.122 313.364 128.967 318.422 128.967H333.535C332.803 129.7 332.058 130.432 331.325 131.177C327.721 134.781 333.295 140.284 336.863 136.716L345.765 127.813L345.861 127.645Z" fill="black"/>
<path d="M345.861 124.402C346.512 123.675 346.871 122.734 346.871 121.759C346.871 120.783 346.512 119.842 345.861 119.116L345.789 119.031L336.887 110.129C333.283 106.525 327.781 112.1 331.349 115.668C332.082 116.412 332.827 117.145 333.559 117.878H318.422C313.376 117.878 313.364 125.723 318.422 125.723H333.535C332.803 126.456 332.058 127.189 331.325 127.934C327.721 131.538 333.295 137.04 336.863 133.472L345.765 124.57C345.77 124.55 345.77 124.529 345.765 124.51L345.861 124.402Z" fill="#407BFF"/>
<path d="M330.76 186.921C314.919 186.776 299.648 180.987 287.691 170.594C287.163 170.138 286.394 170.906 286.922 171.363C299.089 181.951 314.632 187.855 330.76 188.014C330.904 188.014 331.041 187.957 331.143 187.856C331.244 187.754 331.301 187.617 331.301 187.473C331.301 187.33 331.244 187.192 331.143 187.091C331.041 186.99 330.904 186.933 330.76 186.933V186.921Z" fill="#407BFF"/>
<path d="M349.478 184.182C345.503 185.353 341.429 186.157 337.308 186.584C336.623 186.656 336.623 187.786 337.308 187.666C341.525 187.244 345.695 186.44 349.766 185.263C349.905 185.225 350.022 185.133 350.093 185.008C350.164 184.883 350.183 184.735 350.144 184.596C350.106 184.457 350.014 184.34 349.889 184.269C349.764 184.198 349.616 184.179 349.478 184.218V184.182Z" fill="#407BFF"/>
<path d="M266.607 102.008L257.489 102.164C256.337 99.7006 254.975 97.3411 253.416 95.1122L258.102 87.3033C255.689 84.3284 252.976 81.6109 250.004 79.1941L242.184 83.8915C239.961 82.3199 237.601 80.9527 235.131 79.8068L235.288 70.7004C231.715 69.3222 228.006 68.3275 224.223 67.7331L219.85 75.6861C218.505 75.566 217.147 75.4939 215.777 75.4939C214.408 75.4939 213.05 75.566 211.705 75.6861L207.272 67.709C203.493 68.3033 199.788 69.298 196.219 70.6764L196.363 79.7828C193.899 80.9314 191.543 82.2984 189.323 83.8674L181.406 79.1941C178.429 81.6046 175.715 84.3227 173.309 87.3033L177.994 95.1122C176.428 97.338 175.061 99.6979 173.91 102.164L164.803 102.008C163.426 105.581 162.432 109.29 161.836 113.073L169.813 117.506C169.693 118.839 169.621 120.197 169.621 121.566C169.621 122.936 169.693 124.293 169.813 125.639L161.836 130.072C162.432 133.855 163.426 137.563 164.803 141.137L173.91 140.98C175.061 143.447 176.428 145.807 177.994 148.032L173.309 155.841C175.712 158.821 178.427 161.535 181.406 163.939L189.227 159.253C191.447 160.822 193.803 162.189 196.267 163.338L196.123 172.444C199.692 173.823 203.397 174.817 207.176 175.412L211.609 167.434C212.954 167.555 214.312 167.627 215.681 167.627C217.051 167.627 218.408 167.555 219.754 167.434L224.175 175.412C227.958 174.817 231.667 173.822 235.24 172.444L235.083 163.338C237.553 162.192 239.913 160.825 242.135 159.253L249.956 163.939C252.93 161.529 255.644 158.815 258.054 155.841L253.368 148.032C254.926 145.804 256.289 143.444 257.441 140.98L266.559 141.137C267.931 137.562 268.925 133.853 269.527 130.072L261.55 125.639C261.658 124.293 261.73 122.948 261.73 121.566C261.73 120.185 261.658 118.839 261.55 117.506L269.527 113.073C268.941 109.293 267.962 105.585 266.607 102.008V102.008Z" fill="#407BFF"/>
<path opacity="0.3" d="M266.607 102.008L257.489 102.164C256.337 99.7006 254.975 97.3411 253.416 95.1122L258.102 87.3033C255.689 84.3284 252.976 81.6109 250.004 79.1941L242.184 83.8915C239.961 82.3199 237.601 80.9527 235.131 79.8068L235.288 70.7004C231.715 69.3222 228.006 68.3275 224.223 67.7331L219.85 75.6861C218.505 75.566 217.147 75.4939 215.777 75.4939C214.408 75.4939 213.05 75.566 211.705 75.6861L207.272 67.709C203.493 68.3033 199.788 69.298 196.219 70.6764L196.363 79.7828C193.899 80.9314 191.543 82.2984 189.323 83.8674L181.406 79.1941C178.429 81.6046 175.715 84.3227 173.309 87.3033L177.994 95.1122C176.428 97.338 175.061 99.6979 173.91 102.164L164.803 102.008C163.426 105.581 162.432 109.29 161.836 113.073L169.813 117.506C169.693 118.839 169.621 120.197 169.621 121.566C169.621 122.936 169.693 124.293 169.813 125.639L161.836 130.072C162.432 133.855 163.426 137.563 164.803 141.137L173.91 140.98C175.061 143.447 176.428 145.807 177.994 148.032L173.309 155.841C175.712 158.821 178.427 161.535 181.406 163.939L189.227 159.253C191.447 160.822 193.803 162.189 196.267 163.338L196.123 172.444C199.692 173.823 203.397 174.817 207.176 175.412L211.609 167.434C212.954 167.555 214.312 167.627 215.681 167.627C217.051 167.627 218.408 167.555 219.754 167.434L224.175 175.412C227.958 174.817 231.667 173.822 235.24 172.444L235.083 163.338C237.553 162.192 239.913 160.825 242.135 159.253L249.956 163.939C252.93 161.529 255.644 158.815 258.054 155.841L253.368 148.032C254.926 145.804 256.289 143.444 257.441 140.98L266.559 141.137C267.931 137.562 268.925 133.853 269.527 130.072L261.55 125.639C261.658 124.293 261.73 122.948 261.73 121.566C261.73 120.185 261.658 118.839 261.55 117.506L269.527 113.073C268.941 109.293 267.962 105.585 266.607 102.008V102.008Z" fill="white"/>
<path opacity="0.4" d="M215.729 159.049C236.431 159.049 253.212 142.267 253.212 121.566C253.212 100.865 236.431 84.0837 215.729 84.0837C195.028 84.0837 178.247 100.865 178.247 121.566C178.247 142.267 195.028 159.049 215.729 159.049Z" fill="black"/>
<path d="M228.404 127.177C228.982 126.531 229.302 125.695 229.302 124.828C229.302 123.961 228.982 123.125 228.404 122.479V122.395L220.487 114.49C217.315 111.319 212.39 116.244 215.561 119.416L217.447 121.338H204.016C199.523 121.338 199.523 128.306 204.016 128.306H217.447L215.477 130.276C212.306 133.448 217.231 138.373 220.403 135.202L228.32 127.285L228.404 127.177Z" fill="#407BFF"/>
<path opacity="0.4" d="M228.404 127.177C228.982 126.531 229.302 125.695 229.302 124.828C229.302 123.961 228.982 123.125 228.404 122.479V122.395L220.487 114.49C217.315 111.319 212.39 116.244 215.561 119.416L217.447 121.338H204.016C199.523 121.338 199.523 128.306 204.016 128.306H217.447L215.477 130.276C212.306 133.448 217.231 138.373 220.403 135.202L228.32 127.285L228.404 127.177Z" fill="black"/>
<path d="M228.404 124.293C228.982 123.648 229.302 122.812 229.302 121.945C229.302 121.078 228.982 120.242 228.404 119.596V119.512L220.487 111.607C217.315 108.435 212.39 113.361 215.561 116.533L217.531 118.491H204.016C199.523 118.491 199.523 125.459 204.016 125.459H217.447L215.477 127.345C212.306 130.516 217.231 135.442 220.403 132.27L228.32 124.353L228.404 124.293Z" fill="#407BFF"/>
<path d="M168.348 87.9761C173.818 80.526 180.947 74.4514 189.171 70.2332C197.394 66.0149 206.487 63.7687 215.729 63.6724C215.873 63.6724 216.01 63.6155 216.112 63.5141C216.213 63.4127 216.27 63.2752 216.27 63.1318C216.27 62.9885 216.213 62.8509 216.112 62.7496C216.01 62.6482 215.873 62.5912 215.729 62.5912C206.301 62.6912 197.027 64.9876 188.641 69.2981C180.256 73.6087 172.991 79.8147 167.422 87.4235C167.002 87.9761 167.939 88.5167 168.348 87.9641V87.9761Z" fill="#407BFF"/>
<path d="M223.37 64.177C225.881 64.5218 228.368 65.0193 230.819 65.6667C231.491 65.8349 231.78 64.7897 231.107 64.6215C228.658 63.9724 226.17 63.4788 223.658 63.1438C222.986 63.0477 222.685 64.0929 223.37 64.177V64.177Z" fill="#407BFF"/>
<path d="M180.95 179.004C180.95 179.004 192.603 203.319 197.697 210.335C202.106 216.426 218.3 231.407 218.3 231.407L222.769 230.927C223.459 230.85 224.156 230.985 224.767 231.313C225.379 231.641 225.876 232.148 226.193 232.765L226.698 233.738C226.901 234.132 227.178 234.483 227.515 234.771L228.308 235.456C228.885 235.947 229.283 236.615 229.439 237.357C229.596 238.098 229.502 238.87 229.173 239.553L228.56 240.754C228.332 241.231 227.996 241.649 227.579 241.974C227.162 242.299 226.676 242.523 226.157 242.628L221.352 243.613C220.74 243.734 220.108 243.685 219.521 243.474C218.935 243.262 218.418 242.895 218.024 242.412L213.939 237.474C213.939 237.474 192.387 221.676 186.861 214.792C182.403 209.242 173.646 189.564 173.646 189.564L180.95 179.004Z" fill="#CE7A63"/>
<path d="M243.781 299.068C243.781 289.965 240.165 281.235 233.728 274.798C227.292 268.361 218.561 264.745 209.458 264.745C200.355 264.745 191.625 268.361 185.188 274.798C178.751 281.235 175.135 289.965 175.135 299.068H243.781Z" fill="#407BFF"/>
<path opacity="0.5" d="M243.781 299.068C243.781 289.965 240.165 281.235 233.728 274.798C227.292 268.361 218.561 264.745 209.458 264.745C200.355 264.745 191.625 268.361 185.188 274.798C178.751 281.235 175.135 289.965 175.135 299.068H243.781Z" fill="white"/>
<g opacity="0.3">
<path opacity="0.3" d="M235.348 287.98C234.725 288.247 234.025 288.272 233.385 288.05C232.744 287.828 232.211 287.374 231.888 286.778C229.684 282.756 226.439 279.401 222.493 277.064C218.546 274.727 214.045 273.494 209.458 273.494C204.872 273.494 200.37 274.727 196.424 277.064C192.478 279.401 189.233 282.756 187.029 286.778C186.704 287.372 186.17 287.824 185.53 288.046C184.891 288.268 184.192 288.245 183.569 287.98C183.225 287.835 182.915 287.62 182.659 287.349C182.403 287.078 182.206 286.756 182.08 286.405C181.955 286.053 181.904 285.68 181.931 285.308C181.957 284.936 182.061 284.573 182.235 284.243C184.897 279.346 188.831 275.257 193.622 272.407C198.413 269.558 203.884 268.054 209.458 268.054C215.033 268.054 220.504 269.558 225.295 272.407C230.086 275.257 234.02 279.346 236.681 284.243C236.854 284.574 236.956 284.936 236.982 285.307C237.007 285.679 236.956 286.052 236.831 286.403C236.706 286.754 236.509 287.075 236.254 287.346C235.999 287.617 235.69 287.833 235.348 287.98V287.98Z" fill="black"/>
</g>
<path d="M237.931 197.469L215.045 274.092C216.216 274.352 217.368 274.693 218.493 275.113C224.852 253.849 231.203 232.585 237.546 211.32L241.403 198.43C242.075 196.195 238.591 195.246 237.931 197.469Z" fill="#263238"/>
<g opacity="0.5">
<path opacity="0.5" d="M237.931 197.469L215.045 274.092C216.216 274.352 217.368 274.693 218.493 275.113C224.852 253.849 231.203 232.585 237.546 211.32L241.403 198.43C242.075 196.195 238.591 195.246 237.931 197.469Z" fill="white"/>
</g>
<path d="M225.617 254.437C231.167 235.84 236.721 217.251 242.28 198.67C243.277 195.33 238.051 193.865 237.066 197.228C231.499 215.818 225.945 234.407 220.403 252.996C219.406 256.336 224.62 257.801 225.617 254.437Z" fill="#263238"/>
<path d="M172.108 299.068H246.917C249.424 299.068 251.829 300.064 253.602 301.837C255.376 303.611 256.372 306.015 256.372 308.523V424.467H162.665V308.523C162.665 306.018 163.66 303.614 165.43 301.842C167.201 300.069 169.602 299.071 172.108 299.068V299.068Z" fill="#407BFF"/>
<path opacity="0.7" d="M172.108 299.068H246.917C249.424 299.068 251.829 300.064 253.602 301.837C255.376 303.611 256.372 306.015 256.372 308.523V424.467H162.665V308.523C162.665 306.018 163.66 303.614 165.43 301.842C167.201 300.069 169.602 299.071 172.108 299.068V299.068Z" fill="white"/>
<path d="M211.909 397.857L217.916 420.683L228.043 417.871L223.718 393.448L211.909 397.857Z" fill="#CE7A63"/>
<path d="M230.026 415.421C229.972 415.421 229.919 415.406 229.872 415.379C229.826 415.351 229.787 415.312 229.761 415.264C229.739 415.214 229.733 415.158 229.743 415.105C229.754 415.051 229.781 415.002 229.821 414.964C229.954 414.82 233.113 411.672 235.035 411.672C235.392 411.669 235.735 411.802 235.996 412.045C236.158 412.173 236.276 412.348 236.334 412.546C236.392 412.744 236.388 412.955 236.321 413.15C236.032 413.847 234.723 414.459 233.389 414.82C232.287 415.116 231.162 415.317 230.026 415.421ZM230.758 414.856C232.825 414.556 235.564 413.799 235.828 412.97C235.828 412.862 235.9 412.693 235.624 412.429C235.549 412.35 235.457 412.288 235.356 412.248C235.254 412.209 235.144 412.193 235.035 412.201C234.865 412.2 234.694 412.224 234.531 412.273C233.121 412.887 231.841 413.763 230.758 414.856V414.856Z" fill="#407BFF"/>
<path d="M229.894 415.433C229.847 415.423 229.805 415.4 229.773 415.365C229.741 415.331 229.72 415.287 229.713 415.24C229.713 415.096 229.185 412.129 230.254 410.639C230.403 410.423 230.593 410.238 230.813 410.096C231.034 409.953 231.281 409.856 231.539 409.81C232.26 409.69 232.573 409.99 232.741 410.279C233.305 411.42 231.359 414.447 230.23 415.361C230.195 415.375 230.156 415.375 230.122 415.361C230.096 415.395 230.06 415.421 230.019 415.434C229.978 415.446 229.934 415.446 229.894 415.433ZM231.503 410.339C231.18 410.426 230.898 410.626 230.71 410.903C230.166 412.047 229.981 413.329 230.182 414.58C231.299 413.378 232.5 411.156 232.236 410.447C232.236 410.447 232.116 410.207 231.648 410.291H231.503V410.339Z" fill="#407BFF"/>
<path d="M228.524 414.207L216.823 417.403C216.608 417.46 216.42 417.589 216.289 417.768C216.157 417.948 216.092 418.166 216.102 418.388L216.582 428.491C216.59 428.704 216.64 428.913 216.729 429.106C216.818 429.299 216.944 429.473 217.1 429.617C217.257 429.761 217.44 429.873 217.64 429.946C217.84 430.018 218.052 430.051 218.264 430.041C218.376 430.06 218.489 430.06 218.601 430.041C222.805 428.84 226.494 427.566 231.756 426.137C237.955 424.455 236.561 425.62 243.901 423.734C248.298 422.593 247.746 417.379 245.824 417.643C237.006 418.845 235.42 416.562 231.299 414.411C230.431 414.003 229.442 413.93 228.524 414.207V414.207Z" fill="#263238"/>
<path d="M99.6774 392.282L90.0184 413.823L99.6654 418.004L111.631 396.271L99.6774 392.282Z" fill="#CE7A63"/>
<path d="M102.753 417.331C102.707 417.3 102.672 417.256 102.652 417.204C102.633 417.152 102.63 417.096 102.645 417.042C102.656 416.989 102.684 416.941 102.725 416.907C102.767 416.872 102.819 416.852 102.873 416.85C103.065 416.85 107.51 416.358 109 417.571C109.28 417.79 109.465 418.108 109.517 418.46C109.56 418.661 109.541 418.87 109.462 419.059C109.382 419.248 109.246 419.408 109.072 419.517C108.411 419.878 107.006 419.517 105.744 418.989C104.702 418.522 103.701 417.967 102.753 417.331V417.331ZM103.678 417.331C105.468 418.4 108.039 419.505 108.808 419.049C108.904 419.049 109.036 418.881 108.988 418.508C108.978 418.4 108.943 418.295 108.887 418.201C108.831 418.108 108.754 418.028 108.664 417.967C108.532 417.854 108.381 417.765 108.219 417.703C106.741 417.302 105.201 417.179 103.678 417.343V417.331Z" fill="#407BFF"/>
<path d="M102.633 417.259C102.607 417.219 102.593 417.173 102.593 417.127C102.593 417.08 102.607 417.034 102.633 416.994C102.633 416.874 104.17 414.243 105.937 413.751C106.189 413.676 106.454 413.652 106.716 413.681C106.978 413.71 107.232 413.791 107.462 413.919C108.099 414.279 108.159 414.712 108.063 415C107.775 416.201 104.363 417.403 102.909 417.403C102.874 417.413 102.836 417.413 102.801 417.403C102.764 417.393 102.729 417.375 102.7 417.35C102.671 417.325 102.648 417.294 102.633 417.259ZM107.09 414.315C106.786 414.17 106.437 414.148 106.117 414.255C104.973 414.796 104.024 415.677 103.402 416.778C104.987 416.586 107.354 415.577 107.594 414.844C107.594 414.772 107.594 414.592 107.234 414.363H107.09V414.315Z" fill="#407BFF"/>
<path d="M102.332 415.445L91.2198 410.579C91.0137 410.488 90.7827 410.469 90.5645 410.526C90.3464 410.582 90.1539 410.711 90.0184 410.891L84.0116 419.061C83.7579 419.407 83.6509 419.84 83.7139 420.265C83.7768 420.69 84.0046 421.073 84.3479 421.331C84.4439 421.394 84.5443 421.451 84.6483 421.5C88.6849 423.193 92.337 424.527 97.3227 426.725C103.209 429.308 101.407 429.356 108.279 432.48C112.424 434.366 115.271 429.957 113.601 428.948C105.961 424.395 106.189 421.584 104.339 417.319C103.92 416.471 103.207 415.805 102.332 415.445V415.445Z" fill="#263238"/>
<path d="M185.96 131.874C185.96 131.874 194.189 129.351 192.123 125.591C190.32 122.335 187.317 126.264 187.317 126.264L185.96 131.874Z" fill="#263238"/>
<path opacity="0.6" d="M185.96 131.874C185.96 131.874 194.189 129.351 192.123 125.591C190.32 122.335 187.317 126.264 187.317 126.264L185.96 131.874Z" fill="black"/>
<path d="M180.049 159.445L178.451 167.062L167.122 163.194L170.51 154.448L180.049 159.445Z" fill="#CE7A63"/>
<path opacity="0.2" d="M179.256 163.242C178.422 162.786 177.695 162.156 177.125 161.396C176.555 160.635 176.155 159.761 175.952 158.833L177.814 158.268L180.049 159.469L179.256 163.242Z" fill="black"/>
<path d="M192.603 140.127C192.675 140.812 192.363 141.401 191.906 141.437C191.45 141.473 190.993 140.92 190.957 140.236C190.921 139.551 191.197 138.974 191.654 138.95C192.111 138.926 192.543 139.455 192.603 140.127Z" fill="#263238"/>
<path d="M191.306 142.266L195.162 147.324C194.556 147.763 193.856 148.054 193.118 148.175C192.38 148.296 191.623 148.243 190.909 148.02L191.306 142.266Z" fill="#BA4D3C"/>
<path d="M165.452 139.455C165.885 148.549 165.861 152.405 170.474 157.199C177.562 162.136 188.735 162.004 191.077 153.042C193.192 144.945 192.135 131.417 183.1 127.549C180.055 126.193 176.598 126.094 173.48 127.272C170.362 128.451 167.836 130.813 166.449 133.844C165.677 135.609 165.335 137.532 165.452 139.455Z" fill="#CE7A63"/>
<path d="M191.618 134.073C191.559 134.087 191.504 134.115 191.458 134.155C191.412 134.195 191.377 134.245 191.354 134.301C191.204 134.721 190.956 135.1 190.63 135.405C190.303 135.71 189.909 135.933 189.48 136.055C189.433 136.063 189.389 136.081 189.349 136.107C189.309 136.133 189.275 136.166 189.248 136.205C189.221 136.244 189.203 136.288 189.193 136.335C189.183 136.381 189.183 136.429 189.191 136.475C189.217 136.569 189.277 136.649 189.359 136.701C189.442 136.752 189.54 136.77 189.636 136.752C190.186 136.616 190.695 136.344 191.114 135.963C191.534 135.581 191.851 135.101 192.038 134.565C192.056 134.521 192.065 134.474 192.064 134.426C192.063 134.379 192.053 134.332 192.034 134.288C192.015 134.245 191.987 134.205 191.953 134.173C191.919 134.14 191.878 134.114 191.834 134.097V134.097C191.765 134.071 191.691 134.063 191.618 134.073V134.073Z" fill="#263238"/>
<path d="M161.211 165.981L163.506 163.302C164.205 162.497 165.131 161.923 166.162 161.654C167.194 161.386 168.282 161.437 169.285 161.8L177.117 164.623C177.878 164.898 178.566 165.344 179.126 165.928C179.687 166.511 180.105 167.216 180.349 167.987L181.238 170.786L161.211 165.981Z" fill="#407BFF"/>
<path opacity="0.5" d="M161.211 165.981L163.506 163.302C164.205 162.497 165.131 161.923 166.162 161.654C167.194 161.386 168.282 161.437 169.285 161.8L177.117 164.623C177.878 164.898 178.566 165.344 179.126 165.928C179.687 166.511 180.105 167.216 180.349 167.987L181.238 170.786L161.211 165.981Z" fill="white"/>
<path d="M177.946 234.795C177.946 234.795 204.785 301.915 211.501 325.174C216.979 344.095 228.043 402.458 228.043 402.458L211.224 406.747C211.224 406.747 196.604 349.429 190.248 330.772C184.866 314.986 171.027 283.655 159.529 271.545C157.595 269.503 152.153 267.208 150.279 265.106C146.423 260.757 141.965 249.572 140.752 243.877C140.199 241.282 140.752 233.269 140.752 233.269L177.946 234.795Z" fill="#263238"/>
<path d="M177.946 234.795C177.946 234.795 171.531 255.158 168.756 261.694C167.266 265.238 163.518 271.989 162.052 275.533C155.156 292.172 144.224 326.832 137.941 343.399C131.742 359.701 108.688 406.747 108.688 406.747L93.4663 400.055C93.4663 400.055 112.989 352.889 118.299 336.743C123.476 321.029 131.201 288.688 133.28 272.302C133.916 267.232 133.628 256.972 134.121 251.879C134.565 247.193 136.92 233.257 136.92 233.257L177.946 234.795Z" fill="#263238"/>
<path d="M136.511 234.903L180.517 241.042L190.633 180.205C190.994 178.052 190.533 175.841 189.343 174.011C188.153 172.18 186.32 170.862 184.206 170.318L164.707 165.26C163.007 164.818 161.235 164.727 159.499 164.992C157.762 165.256 156.098 165.871 154.606 166.8C153.115 167.728 151.828 168.95 150.824 170.391C149.82 171.832 149.119 173.463 148.765 175.183L136.511 234.903Z" fill="#407BFF"/>
<path opacity="0.2" d="M186.656 204.124L188.603 192.411L180.577 185.611L186.656 204.124Z" fill="black"/>
<path d="M93.4783 395.898L91.2198 401.16L108.796 409.27L111.343 404.308L93.4783 395.898Z" fill="#407BFF"/>
<path d="M209.11 403.791L210.708 409.282L229.425 404.392L228.26 398.938L209.11 403.791Z" fill="#407BFF"/>
<path d="M184.878 145.365C184.878 145.365 187.281 142.29 185.527 137.328C183.773 132.367 193.937 121.999 187.485 118.947C183.473 117.049 182.307 122.395 182.307 122.395C182.307 122.395 179.845 118.563 176.301 120.161C174.258 121.086 174.799 123.765 174.799 123.765C174.799 123.765 160.31 126.059 163.326 139.491C162.997 142.331 163.31 145.208 164.241 147.911C165.173 150.614 166.699 153.074 168.708 155.108C168.708 155.108 173.934 153.198 178.235 155.877C178.259 155.889 178.787 150.351 184.878 145.365Z" fill="#263238"/>
<path d="M164.683 141.545C164.683 141.545 160.13 137.869 159.77 134.097C159.409 130.324 163.386 136.704 164.683 141.545Z" fill="#263238"/>
<path d="M184.145 141.929C184.837 142.548 185.399 143.298 185.799 144.135C186.199 144.972 186.429 145.88 186.476 146.807C186.572 149.282 184.17 149.931 182.103 148.753C180.037 147.576 177.922 145.149 178.823 142.891C179.035 142.399 179.365 141.967 179.785 141.634C180.204 141.3 180.699 141.076 181.226 140.981C181.753 140.886 182.296 140.923 182.805 141.088C183.315 141.254 183.775 141.543 184.145 141.929V141.929Z" fill="#CE7A63"/>
<path opacity="0.6" d="M143.179 251.746C144.933 264.961 153.763 277.816 158.701 284.183C159.902 280.988 161.019 278.08 162.052 275.57C147.035 263.364 143.179 251.746 143.179 251.746Z" fill="black"/>
<path d="M187.774 174.727C187.774 174.727 198.886 194.093 204.268 199.499C208.93 204.16 226.902 214.961 226.902 214.961L233.005 214.852C233.496 214.838 233.983 214.94 234.428 215.148C234.872 215.357 235.261 215.667 235.564 216.054C235.938 216.545 236.447 216.917 237.03 217.123L237.558 217.315C238.245 217.553 238.828 218.022 239.207 218.643C239.586 219.263 239.738 219.995 239.637 220.715L239.276 223.334C239.192 223.922 238.944 224.475 238.559 224.928C238.174 225.381 237.669 225.715 237.102 225.893L232.188 227.443C231.683 227.602 231.146 227.631 230.627 227.526C230.108 227.421 229.624 227.186 229.221 226.842L223.13 221.676C223.13 221.676 200.64 212.065 194.706 206.587C190.248 202.514 181.551 186.356 181.551 186.356L187.774 174.727Z" fill="#CE7A63"/>
<path d="M189.564 173.165L201.457 188.711L186.212 197.949L176.901 181.755C176.122 180.384 175.864 178.779 176.175 177.233C176.487 175.688 177.346 174.307 178.595 173.345L180.361 172C181.041 171.469 181.819 171.078 182.65 170.849C183.481 170.62 184.35 170.558 185.205 170.667C186.06 170.775 186.886 171.051 187.634 171.48C188.382 171.909 189.038 172.482 189.564 173.165V173.165Z" fill="#407BFF"/>
</svg>
