<svg width="635" height="446" viewBox="0 0 635 446" fill="none" xmlns="http://www.w3.org/2000/svg">
<g id="HERO" clip-path="url(#clip0)">
<g id="Group 29">
<g id="Group 12">
<path id="Vector" d="M683 393.346H48V393.644H683V393.346Z" fill="#EBEBEB"/>
<path id="Vector_2" d="M613.48 406.992H548.837V407.289H613.48V406.992Z" fill="#EBEBEB"/>
<path id="Vector_3" d="M174.581 403.464H114.624V403.762H174.581V403.464Z" fill="#EBEBEB"/>
<path id="Vector_4" d="M553.46 401.462H529.088V401.76H553.46V401.462Z" fill="#EBEBEB"/>
<path id="Vector_5" d="M468.65 409.363H450.768V409.661H468.65V409.363Z" fill="#EBEBEB"/>
<path id="Vector_6" d="M439.452 409.363H394.444V409.661H439.452V409.363Z" fill="#EBEBEB"/>
</g>
<path id="Vector_7" d="M368.306 404.334H295.93V404.632H368.306V404.334Z" fill="#EBEBEB"/>
</g>
<g id="Group 51">
<g id="Group 28">
<path id="Vector_8" d="M226.424 38H15.6288V289.719H226.424V38Z" fill="#E6E6E6"/>
<path id="Vector_9" d="M223.795 38H13V289.719H223.795V38Z" fill="#FAFAFA"/>
<path id="Vector_10" d="M118.397 261.952C133.253 261.952 145.296 250.651 145.296 236.711C145.296 222.77 133.253 211.47 118.397 211.47C103.542 211.47 91.4985 222.77 91.4985 236.711C91.4985 250.651 103.542 261.952 118.397 261.952Z" fill="#FAFAFA"/>
</g>
<g id="Group 13">
<path id="Vector_11" d="M217.902 284.19V43.5416H18.9058V284.19H217.902Z" fill="white"/>
<g id="star">
<path id="Vector_12" d="M146.909 163.859C146.909 168.46 142.591 172.011 140.305 175.777C138.019 179.543 136.749 184.87 132.685 187.087C128.621 189.304 123.325 187.635 118.422 187.635C113.521 187.635 108.123 189.232 104.161 187.087C100.198 184.941 98.8902 179.603 96.541 175.777C94.1912 171.952 89.9238 168.507 89.9238 163.859C89.9238 159.212 94.2418 155.708 96.541 152.002C98.8395 148.295 100.097 142.909 104.161 140.692C108.225 138.476 113.508 140.132 118.41 140.132C123.312 140.132 128.723 138.547 132.672 140.692C136.622 142.837 137.956 148.164 140.292 152.002C142.629 155.839 146.909 159.272 146.909 163.859Z" fill="#EBEBEB"/>
<path id="Vector_13" d="M149.373 91.0089L140.114 97.635L143.455 108.098L131.821 108.349L127.973 118.669L118.397 112.436L108.834 118.669L104.986 108.349L93.3403 108.098L96.6805 97.635L87.4352 91.0089L96.6805 84.3945L93.3403 73.9312L104.986 73.6808L108.834 63.3722L118.397 69.5932L127.973 63.3722L131.821 73.6808L143.455 73.9312L140.114 84.3945L149.373 91.0089Z" fill="#E0E0E0"/>
</g>
</g>
</g>
<g id="Group 33">
<path id="Vector_14" d="M389.058 393.346H595.942V388.937H389.058V393.346Z" fill="#F0F0F0"/>
<path id="Vector_15" d="M563.912 357.57H395.992V380.38H563.912V357.57Z" fill="#F0F0F0"/>
<path id="Vector_16" d="M430.588 329.278H529.342C530.227 329.278 530.943 328.606 530.943 327.776V327.657C530.943 326.828 530.227 326.156 529.342 326.156H430.588C429.704 326.156 428.987 326.828 428.987 327.657V327.776C428.987 328.606 429.704 329.278 430.588 329.278Z" fill="#F5F5F5"/>
<path id="Vector_17" d="M430.588 359.131H529.342C530.227 359.131 530.943 358.459 530.943 357.629V357.511C530.943 356.681 530.227 356.009 529.342 356.009H430.588C429.704 356.009 428.987 356.681 428.987 357.511V357.629C428.987 358.459 429.704 359.131 430.588 359.131Z" fill="#F5F5F5"/>
</g>
<g id="Group 37">
<g id="Group 14">
<path id="Vector_18" d="M577.475 388.937H602.558V293.073H577.475V388.937Z" fill="#F0F0F0"/>
<path id="Vector_19" d="M577.476 293.073H382.442V388.937H577.476V293.073Z" fill="#F5F5F5"/>
<path id="Vector_20" d="M563.912 327.717H395.992V350.527H563.912V327.717Z" fill="#F0F0F0"/>
<path id="Vector_21" d="M563.912 297.864H395.992V320.674H563.912V297.864Z" fill="#F0F0F0"/>
</g>
<path id="Vector_22" d="M430.588 299.437H529.343C530.227 299.437 530.943 298.765 530.943 297.936V297.816C530.943 296.987 530.227 296.315 529.343 296.315H430.588C429.704 296.315 428.987 296.987 428.987 297.816V297.936C428.987 298.765 429.704 299.437 430.588 299.437Z" fill="#F5F5F5"/>
</g>
<g id="bell">
<path id="Vector_23" d="M588.395 45.0297C597.179 36.7874 597.179 23.424 588.395 15.1818C579.612 6.93943 565.371 6.93942 556.588 15.1817C547.804 23.424 547.804 36.7874 556.588 45.0297C565.371 53.272 579.612 53.272 588.395 45.0297Z" fill="#F5F5F5"/>
<path id="Vector_24" d="M580.509 41.1083C586.982 35.0348 586.982 25.1877 580.509 19.1142C574.037 13.0407 563.543 13.0407 557.071 19.1142C550.599 25.1877 550.599 35.0348 557.071 41.1083C563.543 47.1818 574.037 47.1819 580.509 41.1083Z" fill="#EBEBEB"/>
<path id="Vector_25" d="M568.402 30.1047C568.402 30.6633 568.225 31.2094 567.895 31.6738C567.564 32.1383 567.094 32.5003 566.544 32.7141C565.994 32.9279 565.389 32.9838 564.805 32.8748C564.221 32.7659 563.685 32.4969 563.264 32.1019C562.843 31.7068 562.556 31.2035 562.44 30.6557C562.324 30.1078 562.383 29.5399 562.612 29.0238C562.839 28.5077 563.225 28.0666 563.72 27.7562C564.215 27.4459 564.797 27.2803 565.392 27.2803C566.19 27.2803 566.956 27.5778 567.52 28.1075C568.085 28.6372 568.402 29.3556 568.402 30.1047Z" fill="white"/>
<path id="Vector_26" d="M579.095 56.2038C576.739 56.2103 574.389 55.9786 572.085 55.5125C571.664 55.3973 571.306 55.1337 571.087 54.7769C570.867 54.4201 570.804 53.9977 570.909 53.5977C571.014 53.1978 571.279 52.8514 571.65 52.6308C572.021 52.4102 572.468 52.3325 572.898 52.414C573.012 52.414 584.658 55.0001 592.583 49.1487C597.663 45.4185 600.203 39.007 600.203 30.0808C600.203 29.6573 600.382 29.2511 600.701 28.9516C601.021 28.6522 601.454 28.4839 601.905 28.4839C602.356 28.4839 602.789 28.6522 603.108 28.9516C603.427 29.2511 603.606 29.6573 603.606 30.0808C603.606 40.02 600.597 47.2776 594.653 51.6394C590.155 54.7462 584.679 56.3528 579.095 56.2038Z" fill="#EBEBEB"/>
<path id="Vector_27" d="M600.457 32.6551C599.621 32.6551 598.821 32.3437 598.23 31.7894C597.639 31.2352 597.307 30.4835 597.307 29.6996V24.1103C597.307 23.3201 597.641 22.5623 598.237 22.0036C598.832 21.4448 599.64 21.131 600.482 21.131C601.324 21.131 602.132 21.4448 602.727 22.0036C603.322 22.5623 603.657 23.3201 603.657 24.1103V29.6996C603.656 30.0913 603.572 30.4788 603.409 30.8398C603.247 31.2008 603.011 31.5281 602.713 31.8029C602.415 32.0777 602.063 32.2944 601.676 32.4407C601.288 32.5869 600.874 32.6598 600.457 32.6551Z" fill="#EBEBEB"/>
</g>
<path id="Vector_28" d="M365.5 447.165C501.495 447.165 611.74 441.125 611.74 433.675C611.74 426.224 501.495 420.184 365.5 420.184C229.505 420.184 119.259 426.224 119.259 433.675C119.259 441.125 229.505 447.165 365.5 447.165Z" fill="#F5F5F5"/>
<g id="Group 22">
<g id="blackboard">
<path id="Vector_29" d="M614.915 71.6003H370.084V238.956H614.915V71.6003Z" fill="#263238"/>
<path id="Vector_30" d="M505.48 90.0007C505.437 90.0014 505.394 89.9917 505.357 89.973C505.319 89.9543 505.287 89.9265 505.263 89.8932C505.215 89.8447 505.188 89.7808 505.188 89.7143C505.188 89.6484 505.215 89.5846 505.263 89.536C506.355 88.8042 507.501 88.1474 508.692 87.5696C509.236 87.2651 509.851 87.0889 510.483 87.057C511.095 87.0882 511.69 87.2512 512.223 87.5335C512.43 87.6272 512.642 87.7104 512.858 87.7839C514.661 88.4276 516.668 87.9386 518.763 87.4142C520.593 86.8177 522.541 86.6145 524.466 86.8184C524.895 86.9183 525.319 87.0376 525.736 87.1763L526.524 87.4024C529.2 87.888 531.956 87.8436 534.613 87.2713L536.315 87.0452C539.219 86.5084 542.224 86.7144 545.015 87.641C545.37 87.7839 545.726 87.9511 546.068 88.1175C546.876 88.5642 547.769 88.8563 548.697 88.9756C549.762 88.988 550.817 88.7931 551.797 88.4033L552.813 88.094C555.886 87.2477 559.276 87.5578 562.553 87.8436H563.15C572.078 88.6176 581.059 88.678 589.998 88.0225C590.033 88.0191 590.069 88.0225 590.102 88.0315C590.136 88.0412 590.167 88.0572 590.194 88.078C590.221 88.0995 590.244 88.1252 590.26 88.1543C590.277 88.1834 590.287 88.216 590.29 88.2486C590.297 88.3166 590.276 88.3839 590.231 88.4373C590.186 88.4907 590.121 88.5254 590.049 88.5344C581.077 89.1906 572.061 89.1302 563.1 88.3562H562.503C559.276 88.0697 555.936 87.7721 552.965 88.5941C552.634 88.678 552.305 88.7848 551.974 88.8923C550.919 89.3009 549.787 89.5034 548.647 89.4881C547.651 89.3598 546.694 89.0477 545.828 88.5705C545.485 88.4033 545.154 88.2486 544.798 88.1058C542.095 87.22 539.188 87.0272 536.378 87.5453L534.702 87.7839C531.964 88.3631 529.127 88.404 526.371 87.9032L525.571 87.6646C525.156 87.5259 524.732 87.4142 524.301 87.331C522.457 87.1375 520.59 87.3372 518.84 87.915C516.745 88.4276 514.572 88.9638 512.592 88.2722L511.931 87.9982C511.457 87.7645 510.94 87.6188 510.407 87.5696C509.864 87.6036 509.337 87.7583 508.871 88.0225C507.703 88.5871 506.582 89.2322 505.517 89.9529C505.506 89.9695 505.494 89.9855 505.48 90.0007Z" fill="white"/>
<path id="Vector_31" d="M553.6 96.8295C552.473 96.7615 551.366 96.5201 550.323 96.1143C549.254 95.6905 548.116 95.4443 546.957 95.3874C546.156 95.4304 545.363 95.5622 544.596 95.7807C544.086 95.9222 543.569 96.0373 543.046 96.1261C541.659 96.287 540.255 96.287 538.868 96.1261H538.69C532.493 95.5657 526.143 95.3513 519.996 95.137C517.874 95.0656 515.5 95.3874 515.207 96.4951C515.197 96.5465 515.168 96.5922 515.128 96.6269C515.086 96.6609 515.034 96.6817 514.979 96.6859C514.924 96.6928 514.868 96.6838 514.818 96.6609C514.768 96.6373 514.727 96.6006 514.699 96.5548C514.064 95.4706 512.096 95.0059 510.483 95.1127C508.782 95.2966 507.126 95.7439 505.581 96.4362C505.548 96.4494 505.512 96.4563 505.476 96.4563C505.439 96.4563 505.404 96.4494 505.371 96.4362C505.337 96.423 505.307 96.4029 505.283 96.3786C505.258 96.3536 505.238 96.3245 505.226 96.2926C505.2 96.2295 505.202 96.1594 505.23 96.097C505.258 96.0353 505.312 95.9853 505.378 95.959C506.98 95.2473 508.696 94.7881 510.458 94.6008C511.255 94.5148 512.063 94.587 512.829 94.8131C513.595 95.0385 514.301 95.4131 514.903 95.9118C515.792 94.6362 518.713 94.5766 519.983 94.6244C526.143 94.8388 532.505 95.0538 538.728 95.6135H538.893C540.234 95.7745 541.591 95.7745 542.932 95.6135C543.437 95.5317 543.937 95.4242 544.431 95.2917C545.255 95.0524 546.109 94.9116 546.971 94.8748C548.187 94.9414 549.384 95.1953 550.513 95.6253C551.776 96.1962 553.191 96.3994 554.577 96.2094C555.019 96.0914 555.445 95.9278 555.847 95.7211L556.508 95.4228C558.684 94.7659 560.99 94.5863 563.251 94.8984C564.582 95.0115 565.918 95.035 567.252 94.9698C567.287 94.9671 567.322 94.9699 567.356 94.9796C567.39 94.9893 567.422 95.0052 567.449 95.026C567.476 95.0468 567.498 95.0732 567.515 95.1023C567.531 95.1315 567.541 95.1634 567.545 95.1967C567.551 95.2639 567.531 95.3319 567.486 95.3853C567.44 95.4387 567.375 95.4734 567.303 95.4824C565.94 95.5483 564.574 95.5241 563.213 95.411C561.039 95.1044 558.818 95.2716 556.724 95.8993C556.508 95.9832 556.305 96.0901 556.101 96.1858C555.672 96.3994 555.221 96.5707 554.756 96.6984C554.379 96.7927 553.99 96.8371 553.6 96.8295Z" fill="white"/>
<path id="Vector_32" d="M505.48 104.694C505.417 104.692 505.358 104.669 505.31 104.631C505.262 104.592 505.231 104.54 505.219 104.481C505.207 104.424 505.217 104.364 505.245 104.312C505.274 104.26 505.321 104.219 505.378 104.194C507.492 103.384 509.665 102.715 511.88 102.192C513.059 101.871 514.286 101.731 515.513 101.775C516.253 101.855 516.985 101.998 517.697 102.204C518.385 102.397 519.091 102.532 519.805 102.609C520.654 102.638 521.505 102.59 522.345 102.466C523.607 102.222 524.911 102.259 526.155 102.573C526.512 102.699 526.856 102.855 527.183 103.038C527.497 103.22 527.829 103.372 528.175 103.491C529.826 104.027 531.476 103.324 533.254 102.573C534.764 101.771 536.473 101.36 538.208 101.382C539.358 101.568 540.456 101.973 541.433 102.573C542.465 103.223 543.671 103.587 544.913 103.622C545.492 103.568 546.063 103.452 546.614 103.277H546.78C551.397 101.99 556.231 101.534 561.029 101.93H561.283C561.95 101.995 562.623 101.995 563.29 101.93C563.697 101.873 564.1 101.794 564.496 101.691L565.385 101.488C567.235 101.278 569.111 101.404 570.91 101.858L571.951 102.049C576.689 102.844 581.552 102.697 586.226 101.62C586.291 101.617 586.354 101.636 586.406 101.673C586.458 101.71 586.494 101.762 586.509 101.821C586.524 101.88 586.517 101.942 586.488 101.997C586.46 102.052 586.412 102.095 586.353 102.12C581.607 103.21 576.672 103.356 571.863 102.549L570.796 102.359C569.066 101.921 567.265 101.8 565.487 102.001C565.195 102.001 564.916 102.12 564.636 102.18C564.219 102.292 563.795 102.38 563.366 102.442C562.661 102.507 561.95 102.507 561.245 102.442H560.991C556.262 102.056 551.498 102.505 546.945 103.765H546.78C546.193 103.957 545.583 104.081 544.963 104.135C543.608 104.109 542.287 103.725 541.153 103.026C540.233 102.481 539.205 102.113 538.131 101.941C536.493 101.946 534.885 102.357 533.47 103.133C531.705 103.896 529.889 104.671 528.022 104.075C527.647 103.943 527.286 103.78 526.943 103.586C526.638 103.415 526.319 103.268 525.99 103.146C524.834 102.869 523.627 102.845 522.459 103.073C521.586 103.199 520.701 103.247 519.817 103.217C519.069 103.139 518.329 102.994 517.608 102.788C516.928 102.595 516.231 102.46 515.525 102.383C514.354 102.343 513.183 102.48 512.058 102.788C509.869 103.305 507.722 103.966 505.632 104.766L505.48 104.694Z" fill="white"/>
<path id="Vector_33" d="M505.48 111.153C505.417 111.153 505.357 111.132 505.309 111.095C505.26 111.058 505.227 111.008 505.212 110.951C505.203 110.918 505.201 110.884 505.206 110.85C505.212 110.816 505.224 110.784 505.243 110.755C505.262 110.726 505.287 110.701 505.317 110.682C505.346 110.662 505.38 110.649 505.416 110.642C507.914 110.053 510.465 109.686 513.036 109.545C513.788 109.461 514.551 109.51 515.284 109.688C515.449 109.737 515.61 109.797 515.767 109.867C515.971 109.954 516.183 110.021 516.402 110.069C516.889 110.146 517.387 110.146 517.874 110.069C520.142 109.731 522.437 109.575 524.732 109.605C524.803 109.61 524.87 109.64 524.919 109.689C524.968 109.736 524.997 109.8 525 109.867C525 109.901 524.992 109.934 524.978 109.965C524.963 109.997 524.943 110.025 524.917 110.048C524.891 110.071 524.86 110.089 524.826 110.101C524.792 110.113 524.756 110.119 524.72 110.117C522.475 110.083 520.231 110.234 518.015 110.57C517.447 110.684 516.863 110.704 516.287 110.63C516.035 110.572 515.788 110.492 515.55 110.391L515.118 110.237C514.447 110.076 513.749 110.036 513.062 110.117C510.491 110.255 507.94 110.619 505.441 111.201L505.48 111.153Z" fill="white"/>
<path id="Vector_34" d="M535.4 110.272C535.36 110.28 535.318 110.28 535.277 110.271C535.236 110.262 535.198 110.244 535.166 110.22C535.134 110.195 535.107 110.165 535.089 110.129C535.071 110.094 535.062 110.055 535.062 110.016C535.062 109.977 535.071 109.938 535.089 109.902C535.107 109.868 535.134 109.836 535.166 109.811C535.198 109.787 535.236 109.77 535.277 109.761C535.318 109.752 535.36 109.751 535.4 109.759C536.924 109.759 538.474 109.759 539.96 109.759H540.074C550.983 109.759 562.032 109.759 572.929 109.617C573.001 109.619 573.069 109.648 573.119 109.698C573.168 109.746 573.196 109.811 573.196 109.879C573.196 109.945 573.168 110.008 573.118 110.056C573.068 110.103 573 110.129 572.929 110.129C562.032 110.248 550.971 110.296 540.062 110.272H539.947C538.461 110.272 536.912 110.272 535.4 110.272Z" fill="white"/>
<path id="Vector_35" d="M410.966 226.145H387.318C385.965 226.145 384.868 227.175 384.868 228.445V232.509C384.868 233.779 385.965 234.809 387.318 234.809H410.966C412.32 234.809 413.417 233.779 413.417 232.509V228.445C413.417 227.175 412.32 226.145 410.966 226.145Z" fill="#673DE6"/>
<path id="Vector_36" d="M411.982 222.546H386.302C385.51 222.546 384.868 223.149 384.868 223.892V224.798C384.868 225.542 385.51 226.145 386.302 226.145H411.982C412.775 226.145 413.417 225.542 413.417 224.798V223.892C413.417 223.149 412.775 222.546 411.982 222.546Z" fill="white"/>
</g>
<path id="Vector_37" d="M435.147 135.74C444.987 135.74 452.965 128.253 452.965 119.019C452.965 109.785 444.987 102.299 435.147 102.299C425.306 102.299 417.329 109.785 417.329 119.019C417.329 128.253 425.306 135.74 435.147 135.74Z" fill="white"/>
</g>
<path id="white-circle" d="M435.147 148.754C433.893 148.678 432.67 148.362 431.552 147.824C430.799 147.496 430.012 147.24 429.203 147.061C428.364 146.936 427.513 146.889 426.663 146.918C425.435 147.01 424.2 146.868 423.031 146.501C421.915 145.975 420.923 145.246 420.11 144.356C419.538 143.781 418.914 143.255 418.243 142.783C417.514 142.376 416.75 142.029 415.957 141.746C414.777 141.389 413.689 140.809 412.756 140.042C411.944 139.169 411.326 138.152 410.94 137.051C410.655 136.3 410.284 135.582 409.835 134.905C409.344 134.264 408.782 133.673 408.159 133.142C407.208 132.385 406.434 131.452 405.886 130.4C405.497 129.308 405.341 128.154 405.429 127.004C405.464 126.207 405.418 125.409 405.289 124.621C405.096 123.865 404.819 123.131 404.463 122.428C403.815 121.406 403.472 120.239 403.472 119.049C403.472 117.86 403.815 116.693 404.463 115.671C404.817 114.964 405.093 114.225 405.289 113.466C405.419 112.678 405.465 111.879 405.429 111.082C405.343 109.929 405.497 108.771 405.886 107.675C406.438 106.629 407.211 105.7 408.159 104.945C408.782 104.414 409.344 103.823 409.835 103.181C410.282 102.504 410.652 101.785 410.94 101.037C411.329 99.933 411.947 98.912 412.756 98.0331C413.697 97.2771 414.784 96.6986 415.957 96.3289C416.755 96.0584 417.521 95.7109 418.243 95.2919C418.918 94.8348 419.544 94.316 420.11 93.7431C420.929 92.8629 421.921 92.1387 423.031 91.6095C424.2 91.2433 425.435 91.1011 426.663 91.1926C427.513 91.2225 428.364 91.1746 429.203 91.0497C430.012 90.8701 430.799 90.6148 431.552 90.2868C432.67 89.7492 433.893 89.4322 435.147 89.3573C436.404 89.4336 437.631 89.7499 438.753 90.2868C439.502 90.6162 440.286 90.8722 441.091 91.0497C441.93 91.1746 442.781 91.2225 443.631 91.1926C444.858 91.1011 446.094 91.2433 447.262 91.6095C448.375 92.1353 449.367 92.8601 450.183 93.7431C451.277 94.9639 452.717 95.8683 454.337 96.3525C455.567 96.6348 456.692 97.2285 457.588 98.0692C458.483 98.9099 459.116 99.9649 459.417 101.12C459.705 101.869 460.075 102.587 460.522 103.265C461.013 103.906 461.575 104.497 462.198 105.028C463.146 105.784 463.919 106.712 464.471 107.758C464.86 108.855 465.015 110.013 464.929 111.166C464.892 111.963 464.938 112.762 465.068 113.549C465.264 114.308 465.54 115.047 465.893 115.755C466.542 116.776 466.885 117.944 466.885 119.132C466.885 120.322 466.542 121.489 465.893 122.511C465.539 123.214 465.262 123.948 465.068 124.704C464.94 125.492 464.892 126.291 464.929 127.088C465.016 128.237 464.861 129.391 464.471 130.484C463.923 131.535 463.149 132.468 462.198 133.225C461.575 133.756 461.013 134.348 460.522 134.989C460.073 135.665 459.702 136.384 459.417 137.134C459.109 138.278 458.472 139.32 457.576 140.149C456.68 140.977 455.56 141.558 454.337 141.829C453.544 142.112 452.779 142.459 452.05 142.866C451.38 143.338 450.755 143.864 450.183 144.439C449.371 145.329 448.378 146.058 447.262 146.585C446.094 146.951 444.858 147.093 443.631 147.002C442.781 146.972 441.93 147.02 441.091 147.144C440.286 147.322 439.502 147.578 438.753 147.907C437.624 148.415 436.398 148.703 435.147 148.754ZM427.158 146.37C427.885 146.352 428.613 146.4 429.33 146.513C430.179 146.703 431.005 146.974 431.794 147.323C432.804 147.9 433.964 148.205 435.147 148.205C436.329 148.205 437.49 147.9 438.499 147.323C439.289 146.974 440.114 146.703 440.964 146.513C441.853 146.382 442.756 146.334 443.656 146.37C444.798 146.456 445.947 146.327 447.034 145.989C448.069 145.498 448.99 144.817 449.739 143.986C450.334 143.377 450.993 142.825 451.707 142.342C452.466 141.901 453.27 141.534 454.108 141.246C455.202 140.907 456.215 140.373 457.093 139.673C457.847 138.855 458.418 137.902 458.769 136.872C459.081 136.088 459.472 135.333 459.937 134.62C460.456 133.945 461.048 133.322 461.703 132.76C462.584 132.053 463.308 131.19 463.836 130.222C464.192 129.2 464.325 128.123 464.23 127.052C464.196 126.211 464.251 125.368 464.395 124.537C464.594 123.719 464.879 122.92 465.246 122.154C465.861 121.208 466.186 120.122 466.186 119.014C466.186 117.905 465.861 116.819 465.246 115.873C464.881 115.106 464.597 114.308 464.395 113.49C464.251 112.659 464.196 111.817 464.23 110.975C464.325 109.905 464.192 108.827 463.836 107.806C463.308 106.837 462.584 105.974 461.703 105.267C461.048 104.705 460.456 104.082 459.937 103.408C459.472 102.694 459.081 101.94 458.769 101.155C458.499 100.093 457.921 99.1214 457.098 98.3494C456.275 97.5774 455.24 97.0343 454.108 96.7818C453.27 96.494 452.466 96.1264 451.707 95.6852C450.996 95.199 450.337 94.6476 449.739 94.0406C448.993 93.2062 448.072 92.5251 447.034 92.0388C445.947 91.7004 444.798 91.5706 443.656 91.6574C441.876 91.8016 440.089 91.4708 438.499 90.7036C437.49 90.1272 436.329 89.822 435.147 89.822C433.964 89.822 432.804 90.1272 431.794 90.7036C430.205 91.4708 428.418 91.8016 426.638 91.6574C425.497 91.5755 424.35 91.7004 423.259 92.0264C422.224 92.5216 421.304 93.2062 420.555 94.0406C419.96 94.6503 419.3 95.2018 418.586 95.6852C417.827 96.1264 417.024 96.494 416.185 96.7818C415.089 97.1134 414.074 97.6489 413.201 98.355C412.446 99.1728 411.876 100.125 411.525 101.155C411.215 101.94 410.824 102.695 410.357 103.408C409.837 104.082 409.246 104.705 408.591 105.267C407.706 105.971 406.981 106.835 406.457 107.806C406.102 108.827 405.968 109.905 406.064 110.975C406.098 111.817 406.043 112.659 405.898 113.49C405.697 114.308 405.412 115.106 405.048 115.873C404.433 116.819 404.108 117.905 404.108 119.014C404.108 120.122 404.433 121.208 405.048 122.154C405.414 122.92 405.699 123.719 405.898 124.537C406.043 125.368 406.098 126.211 406.064 127.052C405.968 128.123 406.102 129.2 406.457 130.222C406.985 131.19 407.71 132.053 408.591 132.76C409.246 133.322 409.837 133.945 410.357 134.62C410.822 135.333 411.213 136.088 411.525 136.872C411.879 137.901 412.449 138.853 413.201 139.673C414.078 140.373 415.092 140.907 416.185 141.246C417.024 141.534 417.827 141.901 418.586 142.342C419.3 142.825 419.96 143.377 420.555 143.986C421.304 144.817 422.224 145.498 423.259 145.989C424.348 146.32 425.496 146.45 426.638 146.37H427.158Z" fill="white"/>
<g id="Group 50">
<g id="Group 23">
<path id="Vector_38" d="M447.872 102.597C447.83 102.599 447.788 102.592 447.749 102.578C447.709 102.564 447.673 102.542 447.643 102.514C447.613 102.486 447.589 102.453 447.572 102.416C447.555 102.379 447.546 102.339 447.546 102.3C447.546 102.259 447.555 102.22 447.572 102.183C447.589 102.146 447.613 102.113 447.643 102.085L461.613 88.9758C461.643 88.9481 461.679 88.9259 461.719 88.9113C461.758 88.8974 461.8 88.8905 461.842 88.8926H489.401C489.485 88.8926 489.566 88.9238 489.625 88.98C489.685 89.0355 489.719 89.1111 489.719 89.1901C489.719 89.2692 489.685 89.3448 489.625 89.401C489.566 89.4572 489.485 89.4884 489.401 89.4884H461.969L448.05 102.514C448.004 102.561 447.94 102.591 447.872 102.597Z" fill="white"/>
<path id="Vector_39" d="M413.201 166.141H385.642C385.558 166.141 385.477 166.11 385.418 166.053C385.359 165.998 385.325 165.922 385.325 165.843C385.325 165.764 385.359 165.688 385.418 165.632C385.477 165.576 385.558 165.545 385.642 165.545H413.074L426.905 152.567C426.966 152.524 427.042 152.503 427.117 152.508C427.194 152.513 427.266 152.544 427.32 152.594C427.373 152.646 427.407 152.713 427.411 152.784C427.417 152.856 427.395 152.927 427.349 152.984L413.379 166.093C413.325 166.123 413.264 166.139 413.201 166.141Z" fill="white"/>
</g>
<g id="Group 49">
<g id="Group" opacity="0.1">
<path id="Vector_40" opacity="0.1" d="M571.303 174.34C571.303 177.2 569.196 179.834 568.624 182.539C568.053 185.244 568.903 188.498 567.773 191.06C566.642 193.623 563.594 195.339 561.943 197.662C560.292 199.986 559.784 203.252 557.663 205.23C555.543 207.208 552.089 207.614 549.599 209.234C547.11 210.855 545.358 213.62 542.576 214.704C539.795 215.789 536.455 214.954 533.483 215.503C530.511 216.051 527.806 218.017 524.758 218.017C521.71 218.017 518.916 216.039 516.033 215.503C513.15 214.966 509.683 215.765 506.94 214.704C504.197 213.643 502.38 210.784 499.917 209.234C497.453 207.685 493.96 207.208 491.853 205.23C489.744 203.252 489.236 199.998 487.573 197.662C485.909 195.327 482.899 193.67 481.756 191.06C480.613 188.45 481.477 185.316 480.892 182.539C480.308 179.763 478.225 177.2 478.225 174.34C478.225 171.48 480.321 168.858 480.892 166.153C481.464 163.447 480.626 160.194 481.756 157.632C482.886 155.07 485.922 153.354 487.573 151.029C489.224 148.706 489.744 145.44 491.853 143.462C493.96 141.484 497.427 141.019 499.917 139.446C502.406 137.873 504.172 135.073 506.94 133.988C509.708 132.904 513.062 133.737 516.033 133.189C519.005 132.641 521.71 130.687 524.758 130.687C527.806 130.687 530.613 132.665 533.483 133.201C536.353 133.737 539.833 132.939 542.576 134C545.32 135.06 547.136 137.909 549.612 139.469C552.089 141.031 555.556 141.496 557.677 143.474C559.798 145.453 560.28 148.706 561.943 151.042C563.608 153.377 566.617 155.034 567.773 157.644C568.928 160.254 568.039 163.388 568.624 166.165C569.208 168.941 571.303 171.492 571.303 174.34Z" fill="white"/>
</g>
<g id="Group 31">
<path id="Vector_41" d="M494.418 237.955H490.583V427.155H494.418V237.955Z" fill="#263238"/>
<path id="Vector_42" d="M454.553 427.168H450.717L490.583 371.597H494.418L454.553 427.168Z" fill="#263238"/>
<path id="Vector_43" d="M530.447 427.168H534.283L494.418 371.597H490.583L530.447 427.168Z" fill="#263238"/>
<path id="Vector_44" d="M497.796 368.272H487.204C486.012 368.272 485.045 369.179 485.045 370.298V372.896C485.045 374.015 486.012 374.922 487.204 374.922H497.796C498.988 374.922 499.955 374.015 499.955 372.896V370.298C499.955 369.179 498.988 368.272 497.796 368.272Z" fill="#263238"/>
</g>
<g id="Group 11">
<path id="Vector_45" d="M615.69 73.3041H369.31C368.828 73.3041 368.366 73.1251 368.026 72.8054C367.685 72.4856 367.494 72.0521 367.494 71.6005C367.497 71.1504 367.69 70.7196 368.03 70.4029C368.37 70.0859 368.83 69.908 369.31 69.908H615.69C616.168 69.908 616.627 70.0863 616.966 70.4036C617.304 70.721 617.494 71.1511 617.494 71.6005C617.495 71.8232 617.45 72.0451 617.36 72.2512C617.27 72.4579 617.138 72.6458 616.97 72.8047C616.802 72.9628 616.603 73.0884 616.383 73.1744C616.163 73.2604 615.928 73.3048 615.69 73.3041Z" fill="#E0E0E0"/>
<path id="Vector_46" d="M625.469 234.809H359.531L365.728 241.113H619.272L625.469 234.809Z" fill="#E0E0E0"/>
<path id="Vector_47" d="M301.784 289.45H179.877V292.251H301.784V289.45Z" fill="#673DE6"/>
</g>
<g id="Group 15">
<path id="Vector_48" d="M301.784 289.45H269.462V292.251H301.784V289.45Z" fill="#263238"/>
<path id="Vector_49" d="M113 204L121.153 211.246L131.961 216.942C131.58 217.276 131.72 219.541 131.872 220.673C131.915 221.909 132.368 223.102 133.167 224.087C133.965 225.072 135.071 225.799 136.33 226.166C137.6 226.679 138.87 227.358 139.111 228.479C139.365 229.861 138.285 231.577 132.24 232.399C126.443 233.129 120.542 232.35 115.184 230.147C112.644 229.17 113.076 228.097 113.711 225.833C115.337 220.053 114.968 209.851 113 204Z" fill="#FFB573"/>
<path id="Vector_50" d="M111 227.623C112.272 224.596 113.304 221.485 114.086 218.315C114.086 218.315 130.596 217.183 136.095 219.209C141.594 221.235 144.985 230.018 144.985 230.018L111 227.623Z" fill="#263238"/>
</g>
</g>
</g>
<g id="men-face">
<g id="Group 10">
<path id="Vector_51" d="M138.43 192.123C138.71 192.863 139.357 193.316 139.891 193.196C140.424 193.077 140.615 192.314 140.335 191.564C140.055 190.813 139.408 190.372 138.887 190.491C138.367 190.61 138.113 191.373 138.43 192.123Z" fill="#263238"/>
<path id="Vector_52" d="M139.154 192.684C140.792 194.307 142.655 195.718 144.691 196.879C144.359 197.345 143.922 197.738 143.411 198.028C142.899 198.318 142.326 198.5 141.732 198.559L139.154 192.684Z" fill="#ED893E"/>
<path id="Vector_53" d="M135.039 189.717C134.956 189.735 134.868 189.735 134.785 189.717C134.721 189.706 134.66 189.685 134.605 189.652C134.551 189.62 134.504 189.577 134.467 189.527C134.431 189.477 134.405 189.42 134.392 189.361C134.378 189.301 134.378 189.239 134.392 189.18C134.509 188.46 134.814 187.777 135.279 187.193C135.744 186.609 136.356 186.142 137.059 185.832C137.177 185.799 137.303 185.809 137.413 185.859C137.524 185.91 137.611 185.997 137.657 186.104C137.703 186.211 137.705 186.33 137.662 186.439C137.619 186.547 137.535 186.636 137.426 186.69C136.88 186.944 136.406 187.319 136.046 187.781C135.686 188.244 135.449 188.781 135.356 189.347C135.342 189.429 135.306 189.506 135.25 189.572C135.195 189.636 135.122 189.686 135.039 189.717Z" fill="#263238"/>
<path id="Vector_54" d="M112.026 199.644C115.925 208.379 117.729 213.67 124.206 216.602C133.947 221.011 144.107 212.896 143.053 203.207C142.1 194.483 135.89 181.684 125.273 181.327C122.921 181.259 120.589 181.75 118.493 182.753C116.397 183.757 114.605 185.241 113.285 187.068C111.963 188.896 111.155 191.006 110.936 193.205C110.716 195.403 111.091 197.618 112.026 199.644Z" fill="#FFB573"/>
<path id="Vector_55" d="M131.635 199.191C135.306 195.258 132.753 188.465 129.502 185.807C132.651 185.7 140.805 185.033 138.392 178.442C135.979 171.852 127.584 171.077 125.146 174.331C118.211 170.756 109.906 173.854 111.899 178.824C103.747 177.632 101.409 185.224 104.775 188.286C100.495 191.635 98.9587 198.225 104.559 200.716C110.16 203.207 110.274 209.416 115.989 212.634C121.704 215.852 134.798 210.369 131.635 199.191Z" fill="#263238"/>
</g>
<path id="Vector_56" d="M126.924 200.514C128.134 202.298 130.001 203.604 132.169 204.184C134.975 204.888 136.335 201.967 135.293 199.417C134.353 197.177 131.483 194.65 128.816 195.019C126.149 195.389 125.425 198.285 126.924 200.514Z" fill="#FFB573"/>
</g>
<g id="Group 17">
<g id="Group_2" opacity="0.3">
<path id="Vector_57" opacity="0.3" d="M111.913 224.348C122.555 224.706 127.393 232.178 118.567 245.478C110.947 256.906 109.944 257.145 109.944 257.145L90.678 248.183C97.155 236.612 101.029 223.967 111.913 224.348Z" fill="black"/>
</g>
<path id="Vector_58" d="M117.449 295.65L116.37 294.518C113.043 291.622 111.621 291.979 107.811 291.979L103.15 295.257C105.969 302.527 111.671 302.205 111.671 302.205L113.322 303.647C113.685 303.961 114.125 304.186 114.603 304.302C115.082 304.418 115.583 304.42 116.063 304.309C116.542 304.198 116.985 303.977 117.351 303.666C117.718 303.355 117.996 302.964 118.161 302.527L118.644 301.239C118.993 300.292 119.067 299.275 118.857 298.292C118.647 297.31 118.161 296.398 117.449 295.65Z" fill="#FFB573"/>
<path id="Vector_59" d="M229.172 403.884L238.278 399.081L228.588 378.261L219.482 383.052L229.172 403.884Z" fill="#FFB573"/>
<path id="Vector_60" opacity="0.2" d="M224.181 393.147L233.426 388.666L228.588 378.261L219.482 383.052L224.181 393.147Z" fill="black"/>
<path id="Vector_61" d="M237.097 394.707L225.413 395.482C225.215 395.492 225.029 395.572 224.893 395.708C224.759 395.844 224.685 396.024 224.689 396.209L224.778 404.909C224.813 405.365 225.038 405.79 225.404 406.093C225.769 406.396 226.246 406.553 226.733 406.529C230.785 406.196 232.436 405.243 237.528 404.564C240.665 404.134 248.196 403.729 252.425 402.633C256.655 401.536 255.956 397.866 252.502 398.032C248.019 398.223 242.024 397.163 238.925 395.196C238.39 394.848 237.747 394.676 237.097 394.707Z" fill="#263238"/>
</g>
<g id="Group 32">
<g id="Group 18">
<path id="Vector_62" d="M157.48 304.1C157.48 304.1 210.667 301.12 215.164 320.474C224.308 359.801 233.134 381.646 233.134 381.646L219.063 388.462C219.063 388.462 198.336 361.22 192.227 333.309C170.561 330.258 132.689 341.019 123.647 325.753C115.646 312.287 122.669 302.61 122.669 302.61L157.48 304.1Z" fill="#263238"/>
<path id="Vector_63" d="M219.329 392.014L235.712 384.566L233.871 378.261L215.862 386.198L219.329 392.014Z" fill="#673DE6"/>
<path id="Vector_64" d="M240.907 396.174C239.972 396.208 239.036 396.151 238.113 396.006C238.065 396.001 238.02 395.982 237.983 395.952C237.947 395.922 237.922 395.884 237.909 395.84C237.897 395.796 237.899 395.75 237.915 395.708C237.931 395.665 237.96 395.628 237.998 395.601C238.316 395.363 241.11 393.278 242.417 393.659C242.565 393.704 242.698 393.783 242.805 393.889C242.911 393.996 242.988 394.125 243.027 394.267C243.113 394.476 243.14 394.702 243.104 394.924C243.069 395.145 242.972 395.354 242.824 395.53C242.288 395.954 241.607 396.182 240.907 396.174ZM238.748 395.626C240.639 395.852 241.999 395.709 242.455 395.22C242.551 395.105 242.612 394.968 242.632 394.824C242.651 394.679 242.63 394.532 242.57 394.398C242.549 394.331 242.512 394.268 242.462 394.216C242.41 394.165 242.348 394.125 242.278 394.1C241.567 393.897 239.903 394.827 238.76 395.626H238.748Z" fill="#673DE6"/>
<path id="Vector_65" d="M238.163 396.006C238.126 396.018 238.086 396.018 238.049 396.006C238.012 395.993 237.98 395.97 237.956 395.941C237.931 395.911 237.915 395.877 237.909 395.84C237.909 395.721 237.439 392.932 238.417 391.907C238.544 391.778 238.7 391.677 238.873 391.611C239.047 391.545 239.233 391.516 239.421 391.526C239.629 391.519 239.834 391.578 240.004 391.692C240.174 391.807 240.299 391.97 240.36 392.158C240.677 393.206 239.28 395.339 238.29 395.995C238.25 396.011 238.206 396.015 238.163 396.006ZM239.294 391.955C239.196 391.961 239.101 391.984 239.013 392.025C238.926 392.066 238.849 392.124 238.786 392.193C238.201 392.801 238.24 394.41 238.328 395.339C239.248 394.534 239.806 393.43 239.891 392.253C239.891 392.121 239.763 391.979 239.407 391.955H239.294Z" fill="#673DE6"/>
<path id="Vector_66" d="M169.152 421.736L179.489 421.271L181.178 398.366L170.841 398.831L169.152 421.736Z" fill="#FFB573"/>
<path id="Vector_67" d="M180.53 418.197L168.834 417.851C168.638 417.841 168.445 417.902 168.296 418.022C168.147 418.142 168.053 418.311 168.033 418.494L167.183 427.158C167.172 427.385 167.21 427.612 167.293 427.826C167.376 428.039 167.504 428.235 167.668 428.402C167.832 428.569 168.029 428.704 168.249 428.8C168.469 428.895 168.706 428.949 168.948 428.958C173.025 428.958 174.739 428.529 179.883 428.684C183.045 428.779 188.773 429.256 194.107 429.256C199.441 429.256 197.294 425.204 194.449 424.823C190.004 424.227 185.178 421.104 182.308 418.864C181.813 418.459 181.187 418.223 180.53 418.197Z" fill="#263238"/>
</g>
<path id="Vector_68" d="M184.15 420.008C183.215 419.952 182.287 419.808 181.382 419.579C181.335 419.567 181.293 419.543 181.262 419.509C181.23 419.475 181.21 419.434 181.203 419.388C181.197 419.344 181.204 419.3 181.224 419.259C181.245 419.219 181.277 419.185 181.318 419.162C181.648 418.959 184.671 417.148 185.916 417.661C186.058 417.718 186.183 417.807 186.278 417.922C186.374 418.037 186.437 418.172 186.462 418.316C186.526 418.525 186.528 418.747 186.467 418.956C186.407 419.167 186.286 419.357 186.118 419.508C185.554 419.903 184.85 420.083 184.15 420.008ZM182.054 419.269C183.908 419.662 185.281 419.651 185.789 419.21C185.893 419.104 185.966 418.976 186.002 418.836C186.038 418.696 186.033 418.549 185.991 418.411C185.982 418.338 185.952 418.27 185.906 418.211C185.859 418.152 185.797 418.107 185.725 418.078C185.077 417.804 183.324 418.578 182.08 419.269H182.054Z" fill="#673DE6"/>
</g>
<g id="Group 30">
<g id="Group 16">
<path id="Vector_69" d="M118.326 239.877L110.071 255.369C108.686 257.955 107.341 260.529 106.032 263.116C104.724 265.702 103.416 268.24 102.286 270.766C101.676 272.042 101.168 273.257 100.622 274.509L99.9233 276.284L99.8345 276.511V276.618V276.677V276.558C99.9629 276.059 100.019 275.546 99.9996 275.033C100.014 274.656 99.9351 274.281 99.7713 273.936C99.6693 273.77 99.7713 274.092 99.8477 274.473C100.018 274.952 100.225 275.418 100.469 275.867C101.016 276.904 101.739 278.024 102.426 279.18C105.41 283.804 109.055 288.714 112.357 293.576L112.446 293.696C113.051 294.589 113.312 295.649 113.185 296.7C113.06 297.751 112.554 298.731 111.753 299.475C110.952 300.22 109.904 300.685 108.783 300.793C107.661 300.902 106.534 300.647 105.588 300.071C102.801 298.398 100.125 296.567 97.5742 294.59C94.9537 292.608 92.4685 290.474 90.1318 288.202C88.857 286.978 87.6647 285.681 86.5633 284.316C85.929 283.551 85.335 282.755 84.7853 281.933C84.049 280.812 83.4605 279.611 83.0323 278.358C82.6714 277.297 82.4702 276.194 82.4355 275.081C82.4133 274.194 82.516 273.309 82.7408 272.447L82.9435 271.684L83.6167 269.218C84.1247 267.68 84.5945 266.083 85.1538 264.617C86.233 261.602 87.4142 258.742 88.6078 255.882C89.8015 253.021 91.1478 250.245 92.4178 247.54C95.1105 242.01 97.8913 236.659 101.066 231.296C102.274 229.142 104.344 227.527 106.821 226.805C109.298 226.083 111.979 226.313 114.274 227.447C116.57 228.58 118.292 230.522 119.061 232.847C119.83 235.171 119.584 237.687 118.376 239.841L118.326 239.877Z" fill="#FFB573"/>
<path id="Vector_70" d="M111.913 224.349C122.555 224.706 127.393 232.178 118.567 245.478C110.947 256.906 109.944 257.145 109.944 257.145L90.678 248.183C97.155 236.612 101.029 223.967 111.913 224.349Z" fill="#673DE6"/>
</g>
<g id="Group 19">
<path id="Vector_71" d="M181.457 419.579H181.356C181.318 419.562 181.286 419.535 181.264 419.501C181.242 419.467 181.229 419.428 181.229 419.388C181.229 419.269 181.076 416.457 182.169 415.527C182.309 415.41 182.475 415.324 182.655 415.275C182.836 415.225 183.025 415.214 183.21 415.241C183.416 415.257 183.611 415.334 183.765 415.464C183.918 415.593 184.022 415.766 184.061 415.956C184.265 417.029 182.639 419.031 181.521 419.531C181.504 419.551 181.482 419.567 181.457 419.579ZM183.02 415.658C182.822 415.655 182.631 415.723 182.487 415.849C181.877 416.772 181.601 417.854 181.699 418.935C182.626 418.245 183.718 416.719 183.578 416.016C183.578 415.885 183.489 415.718 183.134 415.671L183.02 415.658Z" fill="#673DE6"/>
<path id="Vector_72" opacity="0.2" d="M170.841 398.843L181.178 398.378L180.201 411.476L169.9 411.463L170.841 398.843Z" fill="black"/>
<path id="Vector_73" d="M133.147 303.063C133.147 303.063 197.714 314.349 196.456 331.367C194.209 362.006 183.261 405.791 183.261 405.791L167.754 405.993C167.754 405.993 165.634 360.457 167.551 338.291C148.183 338.291 110.071 337.659 102.616 328.304C94.3735 317.983 102.844 301.764 102.844 301.764L133.147 303.063Z" fill="#263238"/>
<path id="Vector_74" d="M166.446 408.627L186.017 408.365L186.944 402.394L165.634 402.978L166.446 408.627Z" fill="#673DE6"/>
<path id="Vector_75" d="M147.015 225.028C140.665 223.836 112.065 224.206 112.065 224.206C109.204 224.138 106.42 225.08 104.264 226.846C102.108 228.611 100.736 231.07 100.419 233.739C99.4153 242.01 102.374 260.327 102.578 269.766C102.819 281.349 103.086 286.236 102.844 301.823L169.43 305.101C171.97 276.689 162.103 262.985 156.222 234.717C155.347 230.391 153.353 226.184 147.015 225.028Z" fill="#673DE6"/>
<path id="Vector_76" opacity="0.3" d="M147.015 225.028C140.665 223.836 112.065 224.206 112.065 224.206C109.204 224.138 106.42 225.08 104.264 226.846C102.108 228.611 100.736 231.07 100.419 233.739C99.4153 242.01 102.374 260.327 102.578 269.766C102.819 281.349 103.086 286.236 102.844 301.823L169.43 305.101C171.97 276.689 162.103 262.985 156.222 234.717C155.347 230.391 153.353 226.184 147.015 225.028Z" fill="black"/>
<path id="Vector_77" d="M155.118 234.168C158.115 239.174 161.201 244.43 164.312 249.447C165.85 251.985 167.437 254.475 169.037 256.906C170.637 259.338 172.288 261.674 173.939 263.938L175.209 265.547C175.629 266.095 176.034 266.524 176.479 267.013L176.784 267.382L176.937 267.561L176.835 267.465L176.606 267.311C176.606 267.311 176.542 267.311 176.606 267.382C176.985 267.676 177.384 267.948 177.8 268.192C179.972 269.515 182.791 270.862 185.521 272.22C191.059 274.926 196.85 277.607 202.464 280.562H202.539C203.585 281.074 204.401 281.919 204.839 282.946C205.277 283.972 205.308 285.113 204.927 286.159C204.546 287.205 203.778 288.089 202.762 288.65C201.746 289.211 200.55 289.411 199.39 289.215C192.789 288.48 186.256 287.284 179.844 285.64C176.438 284.796 173.095 283.741 169.837 282.482C168.802 282.062 167.796 281.581 166.827 281.04C166.573 280.909 166.205 280.67 165.874 280.456L165.354 280.098L164.681 279.562L164.35 279.288L164.122 279.073L163.868 278.835L163.36 278.358C162.713 277.726 161.976 277.071 161.391 276.44L159.575 274.533C155.22 269.596 151.219 264.392 147.6 258.957C144.044 253.629 140.767 248.362 137.744 242.666C136.615 240.526 136.418 238.057 137.197 235.784C137.975 233.511 139.667 231.612 141.914 230.49C144.16 229.369 146.784 229.114 149.228 229.778C151.672 230.443 153.744 231.975 155.003 234.049L155.118 234.168Z" fill="#FFB573"/>
</g>
</g>
<g id="Group 20">
<path id="Vector_78" d="M137.261 230.915C142.989 222.501 152.311 222.382 160.046 236.266C166.688 248.183 166.396 249.148 166.396 249.148L148.4 260.196C141.034 249.089 131.394 239.531 137.261 230.915Z" fill="#673DE6"/>
<g id="Group_3" opacity="0.3">
<path id="Vector_79" opacity="0.3" d="M137.261 230.915C142.989 222.501 152.311 222.382 160.046 236.266C166.688 248.183 166.396 249.148 166.396 249.148L148.4 260.196C141.034 249.089 131.394 239.531 137.261 230.915Z" fill="black"/>
</g>
<path id="Vector_80" d="M207.213 279.847L205.639 279.573C201.104 279.18 200.228 280.288 197.205 282.469L195.643 287.737C202.616 291.872 206.921 288.345 206.921 288.345L209.169 288.547C209.66 288.589 210.155 288.515 210.608 288.332C211.061 288.149 211.459 287.863 211.766 287.501C212.072 287.137 212.277 286.709 212.363 286.253C212.448 285.796 212.411 285.328 212.255 284.888L211.798 283.589C211.462 282.637 210.859 281.787 210.052 281.128C209.245 280.47 208.265 280.028 207.213 279.847Z" fill="#FFB573"/>
</g>
<g id="chairs">
<g id="Group 1">
<path id="Vector_81" d="M204.013 430.233H202.172L194.475 356.286C193.84 350.148 189.573 345.56 184.582 345.56H169.418C164.338 345.56 160.159 350.184 159.524 356.286L151.828 430.233H149.987L157.708 355.952C158.458 348.694 163.487 343.213 169.418 343.213H184.582C190.5 343.213 195.542 348.694 196.291 355.952L204.013 430.233Z" fill="#263238"/>
<path id="Vector_82" d="M146.647 430.233H144.78L137.16 356.286C136.525 350.148 132.271 345.56 127.266 345.56H112.052C107.049 345.56 102.794 350.184 102.159 356.286L94.4623 430.233H92.6212L100.33 355.952C101.08 348.694 106.121 343.213 112.04 343.213H127.203C133.134 343.213 138.164 348.694 138.912 355.952L146.647 430.233Z" fill="#263238"/>
<path id="Vector_83" d="M198.882 338.076L170.485 337.016L163.042 295.96C159.232 274.807 139.7 257.669 119.469 257.669H101.6C81.3688 257.669 68.0847 274.807 71.9202 295.96L77.0002 324.3C78.8927 334.787 88.5697 343.296 98.5902 343.296H211.036C211.272 343.267 211.494 343.17 211.669 343.018C211.844 342.866 211.964 342.665 212.012 342.446C212.059 342.226 212.032 341.998 211.935 341.794C211.837 341.59 211.674 341.419 211.468 341.306C207.569 339.392 203.276 338.29 198.882 338.076Z" fill="#673DE6"/>
</g>
<path id="Vector_84" d="M205.575 342.355H196.558V340.173H205.575C228.245 340.173 246.697 320.832 246.697 297.056V289.691H249.021V297.056C249.021 322.035 229.527 342.355 205.575 342.355Z" fill="#263238"/>
<path id="Vector_85" d="M390.703 288.285H268.795V291.086H390.703V288.285Z" fill="#673DE6"/>
<path id="Vector_86" d="M350.151 286.891H309.334V288.297H350.151V286.891Z" fill="#E0E0E0"/>
<path id="Vector_87" d="M390.703 288.285H358.381V291.086H390.703V288.285Z" fill="#263238"/>
<path id="Vector_88" d="M257.645 259.052L255.194 275.962C254.419 281.599 253.619 287.237 253.035 292.778L252.845 294.84L252.756 295.876C252.772 295.706 252.772 295.534 252.756 295.364C252.727 295.202 252.684 295.043 252.629 294.887C252.556 294.681 252.453 294.484 252.323 294.304C252.133 294.077 252.107 294.113 252.159 294.16C252.267 294.271 252.391 294.367 252.527 294.447C252.977 294.742 253.453 295.001 253.949 295.222C256.501 296.322 259.138 297.243 261.836 297.974C267.475 299.618 273.393 300.954 279.235 302.324L278.575 307.091C272.326 306.901 266.1 306.296 259.943 305.28C256.68 304.764 253.475 303.967 250.368 302.896C249.452 302.561 248.565 302.163 247.714 301.704C247.187 301.425 246.686 301.106 246.215 300.751C245.551 300.263 244.968 299.685 244.487 299.035C244.149 298.552 243.876 298.031 243.675 297.486C243.568 297.157 243.483 296.823 243.421 296.485C243.398 296.139 243.398 295.793 243.421 295.448V294.327V292.099C243.675 286.211 244.247 280.456 244.907 274.711C245.567 268.967 246.342 263.259 247.307 257.538L257.645 259.052Z" fill="#FFC3BD"/>
</g>
<g id="Group 47">
<g id="Group 21">
<path id="Vector_89" d="M347.383 415.086L357.314 414.204L350.621 391.251L340.69 392.133L347.383 415.086Z" fill="#FFC3BD"/>
<path id="Vector_90" d="M370.7 420.485C364.629 418.804 364.82 416.302 358.762 411.678C358.158 411.166 357.4 410.841 356.59 410.749L346.71 410.105C346.518 410.106 346.333 410.172 346.189 410.289C346.044 410.407 345.95 410.57 345.922 410.749L344.525 417.172C344.043 419.4 345.503 421.534 347.561 421.605C350.85 421.725 354.889 421.843 358.483 422.07C363.728 422.415 363.791 424.906 369.913 424.632C373.685 424.465 372.771 421.057 370.7 420.485Z" fill="#263238"/>
<path id="Vector_91" d="M384.34 385.555L391.071 380.073L379.806 364.021L371.386 371.504L384.34 385.555Z" fill="#FFC3BD"/>
<path id="Vector_92" d="M389.267 376.676L381.241 383.648C381.088 383.784 380.991 383.965 380.965 384.161C380.94 384.357 380.988 384.555 381.101 384.721L384.911 390.251C385.237 390.681 385.657 391.041 386.142 391.308C386.628 391.575 387.168 391.742 387.727 391.799C388.287 391.855 388.853 391.799 389.388 391.635C389.923 391.471 390.414 391.202 390.83 390.846C393.458 388.94 394.944 385.591 398.056 382.85C402.59 378.87 403.403 378.976 406.209 373.411C408.114 369.669 403.961 369.657 402.501 370.813C398.831 373.745 400.278 373.864 391.732 375.58C390.819 375.728 389.967 376.107 389.267 376.676Z" fill="#263238"/>
<path id="Vector_93" d="M281.648 305.78C281.648 305.78 349.745 296.317 356.794 312.704C369.062 341.198 386.816 373.304 386.816 373.304L378.815 380.193C378.815 380.193 348.335 354.558 337.769 325.921C325.158 329.758 285.014 342.081 270.307 342.081C254.609 342.081 248.196 329.519 253.873 308.712C254.12 307.806 254.683 307.003 255.473 306.433C256.262 305.863 257.233 305.558 258.229 305.566C268.109 305.566 281.648 305.78 281.648 305.78Z" fill="#673DE6"/>
<path id="Vector_94" opacity="0.5" d="M281.648 305.78C281.648 305.78 349.745 296.317 356.794 312.704C369.062 341.198 386.816 373.304 386.816 373.304L378.815 380.193C378.815 380.193 348.335 354.558 337.769 325.921C325.158 329.758 285.014 342.081 270.307 342.081C254.609 342.081 248.196 329.519 253.873 308.712C254.12 307.806 254.683 307.003 255.473 306.433C256.262 305.863 257.233 305.558 258.229 305.566C268.109 305.566 281.648 305.78 281.648 305.78Z" fill="white"/>
<path id="Vector_95" d="M288.175 314.098C288.175 314.098 344.055 312.514 344.538 331.092C345.313 361.827 355.358 405.779 355.358 405.779L344.348 406.744C344.348 406.744 327.66 371.719 323.278 341.651C303.365 342.843 285.014 342.033 270.307 342.033C253.797 342.033 252.527 325.05 268.516 305.244C278.32 305.292 288.175 314.098 288.175 314.098Z" fill="#673DE6"/>
<path id="Vector_96" opacity="0.5" d="M288.175 314.098C288.175 314.098 344.055 312.514 344.538 331.092C345.313 361.827 355.358 405.779 355.358 405.779L344.348 406.744C344.348 406.744 327.66 371.719 323.278 341.651C303.365 342.843 285.014 342.033 270.307 342.033C253.797 342.033 252.527 325.05 268.516 305.244C278.32 305.292 288.175 314.098 288.175 314.098Z" fill="white"/>
<path id="Vector_97" d="M253.708 302.955L252.514 306.46C252.362 306.734 252.692 307.019 253.187 307.031L296.469 308.223C296.85 308.223 297.168 308.068 297.206 307.854L297.688 304.278C297.688 304.04 297.408 303.813 296.989 303.802L254.394 302.61C254.256 302.6 254.119 302.628 253.997 302.689C253.876 302.75 253.775 302.842 253.708 302.955Z" fill="white"/>
<path id="Vector_98" d="M259.283 307.58H258.14C257.911 307.58 257.747 307.46 257.759 307.318L258.445 302.741C258.445 302.61 258.661 302.502 258.89 302.515H260.033C260.261 302.515 260.426 302.634 260.414 302.765L259.727 307.341C259.715 307.484 259.512 307.592 259.283 307.58Z" fill="#263238"/>
</g>
<g id="Group 46">
<path id="Vector_99" d="M293.255 308.533H292.113C291.884 308.533 291.719 308.414 291.731 308.282L292.418 303.707C292.418 303.576 292.634 303.468 292.862 303.468H294.005C294.233 303.468 294.398 303.587 294.386 303.73L293.7 308.294C293.688 308.438 293.485 308.533 293.255 308.533Z" fill="#263238"/>
<path id="Vector_100" d="M276.263 308.056H275.133C274.904 308.056 274.727 307.937 274.752 307.806L275.425 303.229C275.425 303.098 275.653 302.992 275.882 303.003H277.025C277.253 303.003 277.419 303.134 277.394 303.266L276.721 307.842C276.695 307.961 276.491 308.068 276.263 308.056Z" fill="#263238"/>
</g>
</g>
<path id="Vector_101" d="M269.139 224.301C270.155 230.104 271.018 240.711 266.599 244.429C273.566 248.074 279.654 253.032 284.48 258.992C292.1 253.367 285.75 244.966 285.75 244.966C278.943 243.237 279.273 238.471 280.606 234.025L269.139 224.301Z" fill="#FFC3BD"/>
<g id="Group 52">
<g id="girl-hand">
<g id="Group 48">
<path id="Vector_102" d="M292.503 307.312L288.554 310.696C288.106 311.083 287.543 311.334 286.941 311.417C286.339 311.5 285.723 311.411 285.176 311.161L280.819 309.195C280.819 309.195 274.368 308.945 273.441 305.238L275.117 302.366L285.112 301.318C286.144 301.215 287.183 301.433 288.071 301.937L292.186 304.32C292.449 304.474 292.671 304.682 292.835 304.928C292.999 305.175 293.1 305.454 293.131 305.743C293.161 306.032 293.12 306.324 293.012 306.596C292.903 306.868 292.729 307.113 292.503 307.312Z" fill="#FFC3BD"/>
<path id="Vector_103" d="M254.162 245.854C246.377 248.238 244.701 258.022 245.399 265.637L261.109 274.706C261.109 274.706 264.919 263.587 264.919 257.64C264.856 251.312 259.445 244.245 254.162 245.854Z" fill="#263238"/>
</g>
<path id="Vector_104" d="M303.629 260.083C302.981 268.426 300.987 282.596 296.085 306.371L254.022 305.179C255.127 290.604 253.464 279.747 249.654 254.244C249.498 253.141 249.579 252.019 249.892 250.946C250.204 249.873 250.743 248.869 251.476 247.994C252.208 247.119 253.12 246.391 254.157 245.851C255.194 245.311 256.336 244.972 257.515 244.853C260.207 244.591 263.281 244.376 266.405 244.317C272.76 244.074 279.126 244.253 285.455 244.853C287.512 245.091 289.621 245.39 291.64 245.711C295.187 246.275 298.382 248.061 300.599 250.719C302.817 253.377 303.897 256.717 303.629 260.083Z" fill="#263238"/>
<path id="Vector_105" d="M305.229 264.612C305.394 265.458 305.635 266.555 305.851 267.531C306.067 268.509 306.334 269.557 306.613 270.559C307.159 272.561 307.769 274.551 308.455 276.517C309.145 278.425 309.938 280.298 310.83 282.131C311.69 283.872 312.705 285.542 313.865 287.124L314.068 287.422L313.992 287.327C313.939 287.269 313.879 287.217 313.814 287.171C313.709 287.074 313.594 286.987 313.471 286.909C313.159 286.697 312.798 286.558 312.417 286.504C312.074 286.504 312.265 286.504 312.544 286.504C313.411 286.419 314.264 286.234 315.084 285.956C317.144 285.289 319.162 284.513 321.129 283.632C325.231 281.833 329.41 279.806 333.512 277.793L336.496 281.749C332.883 284.795 329.033 287.583 324.977 290.092C322.857 291.413 320.637 292.588 318.335 293.607C316.976 294.212 315.549 294.672 314.081 294.977C312.966 295.206 311.816 295.238 310.69 295.073C309.728 294.919 308.814 294.568 308.01 294.048C307.768 293.89 307.538 293.715 307.324 293.524L307.007 293.214L306.766 292.976L306.448 292.594C303.135 288.761 300.529 284.435 298.739 279.795C297.845 277.583 297.077 275.327 296.44 273.037C296.123 271.846 295.844 270.749 295.577 269.594C295.31 268.437 295.107 267.329 294.916 266.018L305.229 264.612Z" fill="#FFC3BD"/>
<path id="Vector_106" d="M344.37 277.518C344.258 277.516 344.149 277.486 344.054 277.431C343.958 277.377 343.879 277.301 343.824 277.209L333.778 259.154C333.741 259.087 333.719 259.013 333.712 258.937C333.705 258.863 333.715 258.786 333.74 258.714C333.764 258.642 333.804 258.575 333.856 258.518C333.909 258.46 333.973 258.413 334.045 258.379C334.189 258.311 334.355 258.298 334.509 258.342C334.663 258.387 334.792 258.485 334.871 258.618L344.929 276.673C344.966 276.739 344.989 276.813 344.995 276.888C345.002 276.964 344.993 277.04 344.968 277.112C344.943 277.184 344.904 277.251 344.851 277.308C344.798 277.366 344.734 277.413 344.662 277.447C344.573 277.495 344.473 277.519 344.37 277.518Z" fill="#263238"/>
<path id="Vector_107" d="M340.128 267.246L336.318 269.438C335.357 269.993 334.62 270.831 334.223 271.822L330.667 280.522L329.029 286.051C332.839 287.339 339.747 278.901 339.747 278.901L344.091 275.838C344.436 275.594 344.696 275.257 344.836 274.873C344.977 274.489 344.991 274.074 344.878 273.681L343.392 268.485C343.31 268.172 343.15 267.882 342.925 267.638C342.7 267.394 342.416 267.204 342.098 267.083C341.779 266.961 341.434 266.914 341.092 266.942C340.75 266.97 340.419 267.075 340.128 267.246Z" fill="#FFC3BD"/>
<path id="Vector_108" d="M300.174 250.264C307.54 255.591 307.54 271.25 307.54 271.25L294.84 274.551C294.84 274.551 285.709 264.171 288.02 259.249C290.446 254.124 296.199 247.415 300.174 250.264Z" fill="#263238"/>
</g>
<g id="girld-face">
<path id="Vector_109" d="M288.338 212.497C288.592 213.248 289.227 213.689 289.748 213.57C290.268 213.45 290.484 212.676 290.23 211.937C289.976 211.198 289.341 210.745 288.82 210.865C288.3 210.984 288.058 211.759 288.338 212.497Z" fill="#263238"/>
<path id="Vector_110" d="M288.871 213.629C290.161 215.121 291.666 216.436 293.342 217.539C293.029 217.934 292.629 218.26 292.168 218.494C291.707 218.729 291.198 218.867 290.675 218.897L288.871 213.629Z" fill="#ED847E"/>
<path id="Vector_111" d="M287.042 205.776C287.085 205.707 287.107 205.629 287.107 205.549C287.107 205.47 287.085 205.392 287.042 205.323C286.964 205.226 286.848 205.162 286.72 205.144C286.592 205.126 286.462 205.156 286.357 205.227C285.718 205.647 285.196 206.205 284.835 206.855C284.475 207.504 284.287 208.225 284.287 208.958C284.288 209.018 284.303 209.077 284.33 209.131C284.356 209.186 284.394 209.235 284.442 209.275C284.489 209.315 284.545 209.346 284.606 209.365C284.666 209.384 284.731 209.392 284.795 209.387C284.859 209.385 284.922 209.372 284.981 209.347C285.04 209.322 285.093 209.286 285.137 209.241C285.18 209.197 285.214 209.145 285.237 209.088C285.258 209.031 285.268 208.97 285.264 208.91C285.27 208.331 285.425 207.761 285.717 207.25C286.009 206.74 286.429 206.303 286.941 205.979C286.995 205.922 287.03 205.851 287.042 205.776Z" fill="#263238"/>
<path id="Vector_112" d="M260.207 217.467C264.017 226.452 265.287 230.326 271.891 233.543C281.747 238.382 292.681 232.089 291.868 222.234C291.145 213.367 285.137 200.163 274.317 199.4C271.928 199.207 269.526 199.595 267.343 200.525C265.16 201.455 263.268 202.897 261.851 204.712C260.433 206.527 259.538 208.654 259.25 210.887C258.962 213.122 259.292 215.387 260.207 217.467Z" fill="#FFC3BD"/>
<path id="Vector_113" d="M283.207 215.393C285.061 214.892 288.287 211.425 282.661 204.441C285.671 203.929 288.122 198.745 279.867 195.777C271.612 192.81 262.608 194.252 257.147 201.354C257.147 201.354 239.735 206.181 253.921 222.997C268.107 239.812 286.115 232.959 283.207 215.393Z" fill="#263238"/>
<path id="Vector_114" d="M250.695 201.342C250.693 201.817 250.818 202.284 251.06 202.701C251.303 203.118 251.653 203.47 252.079 203.726C252.896 204.371 253.913 204.752 254.979 204.813C256.045 204.873 257.104 204.609 257.998 204.06C259.926 202.868 261.688 201.455 263.243 199.853C263.703 199.386 264.058 198.836 264.289 198.238C264.519 197.64 264.619 197.005 264.584 196.369C264.548 195.734 264.377 195.112 264.082 194.539C263.786 193.967 263.371 193.456 262.862 193.036C262.629 192.852 262.383 192.685 262.125 192.536C262.125 192.536 252.156 192.809 250.695 201.342Z" fill="#673DE6"/>
<path id="Vector_115" d="M252.105 200.222C257.807 199.364 260.842 195.086 261.173 193.811C259.903 190.665 243.393 170.667 229.321 185.29C214.462 200.783 243.545 216.359 233.131 235.009C251.228 229.301 265.986 217.55 252.105 200.222Z" fill="#263238"/>
<path id="Vector_116" d="M288.605 210.972L290.332 209.875C290.332 209.875 289.836 211.58 288.605 210.972Z" fill="#263238"/>
<path id="Vector_117" d="M279.092 217.252C280.061 219.041 281.746 220.396 283.779 221.018C286.471 221.817 287.919 219.576 287.246 217.145C286.649 214.952 284.528 211.89 281.785 212.152C281.187 212.218 280.615 212.423 280.123 212.749C279.631 213.074 279.232 213.511 278.965 214.017C278.698 214.523 278.57 215.085 278.592 215.65C278.614 216.214 278.786 216.765 279.092 217.252Z" fill="#FFC3BD"/>
</g>
</g>
<g id="Group 45">
<g id="Group 2">
<path id="Vector_118" d="M340.932 430.233H339.09L331.407 356.286C330.759 350.148 326.504 345.561 321.513 345.561H306.273C301.27 345.561 297.027 350.184 296.38 356.286L288.76 430.233H286.893L294.64 355.952C295.39 348.694 300.418 343.213 306.336 343.213H321.576C327.495 343.213 332.524 348.694 333.286 355.952L340.932 430.233Z" fill="#263238"/>
<path id="Vector_119" d="M283.565 430.233H281.724L274.028 356.286C273.393 350.148 269.139 345.561 264.134 345.561H248.92C243.916 345.561 239.661 350.184 239.026 356.286L231.33 430.233H229.489L237.262 355.952C238.01 348.694 243.04 343.213 248.971 343.213H264.16C270.078 343.213 275.12 348.694 275.87 355.952L283.565 430.233Z" fill="#263238"/>
<path id="Vector_120" d="M335.8 338.076L307.34 336.98L299.898 295.924C296.088 274.771 276.568 257.634 256.337 257.634H238.518C218.287 257.634 205.004 274.771 208.839 295.924L213.919 324.264C215.824 334.751 225.501 343.26 235.509 343.26H347.98C348.216 343.23 348.436 343.131 348.609 342.978C348.782 342.825 348.9 342.624 348.947 342.405C348.992 342.186 348.965 341.959 348.866 341.755C348.768 341.552 348.605 341.382 348.399 341.27C344.495 339.364 340.197 338.275 335.8 338.076Z" fill="#673DE6"/>
</g>
</g>
<g id="Group 38">
<path id="Vector_121" d="M347.017 343.663H338V341.483H347.017C369.687 341.483 388.14 322.14 388.14 298.365V291H390.451V298.365C390.451 323.344 370.969 343.663 347.017 343.663Z" fill="#263238"/>
<path id="Vector_122" d="M531.007 407.123L547.275 403.881L550.336 422.115L536.747 424.843L531.007 407.123Z" fill="#B55B52"/>
<path id="Vector_123" opacity="0.2" d="M541.242 335.38C544.57 321.699 549.523 307.696 550.819 294.014C533.216 275.995 535.438 312.737 541.242 335.38Z" fill="black"/>
<path id="Vector_124" opacity="0.2" d="M568.7 409.387L585.363 409.53L585.769 419.851L570.643 419.732L568.7 409.387Z" fill="black"/>
<path id="Vector_125" d="M528.746 170.014C544.148 168.645 559.664 168.876 575.012 170.705C577.113 170.997 579.129 171.688 580.934 172.736C582.741 173.784 584.3 175.167 585.517 176.8C586.733 178.434 587.581 180.284 588.009 182.235C588.436 184.187 588.435 186.201 588.004 188.152C580.816 222.141 586.188 260.086 581.54 267.689C581.54 267.689 530.219 268.524 500.259 266.593C492.068 229.649 508.185 207.113 516.275 178.296C517.71 173.422 523.348 170.598 528.746 170.014Z" fill="#673DE6"/>
</g>
<g id="Group 44">
<path id="Vector_126" d="M536.035 172.564C537.052 170.735 538.693 169.278 540.697 168.429C541.452 166.597 541.51 164.576 540.861 162.708L563.62 155.904C561.779 162.971 560.33 168.56 563.138 171.992C558.654 174.567 550.438 179.142 541.548 178.928C532.658 178.714 534.575 175.531 536.035 172.564Z" fill="#B55B52"/>
<g id="Group 27">
<path id="Vector_127" opacity="0.2" d="M541.04 163.376L558.147 162.435C552.799 167.798 544.697 169.811 540.988 167.631C541.397 166.241 541.414 164.774 541.04 163.376Z" fill="black"/>
<path id="Vector_128" d="M540.988 178.905L544.697 175.973L549.662 178.356C549.662 178.356 546.487 181.157 540.988 178.905Z" fill="#673DE6"/>
<path id="Vector_129" opacity="0.3" d="M540.988 178.905L544.697 175.973L549.662 178.356C549.662 178.356 546.487 181.157 540.988 178.905Z" fill="black"/>
<path id="Vector_130" d="M553.6 133.797C553.321 127.23 546.564 124.263 540.709 127.683C534.855 131.104 534.359 141.674 538.665 147.192C542.97 152.71 553.6 133.797 553.6 133.797Z" fill="#F5F5F5"/>
</g>
</g>
<g id="Group 43">
<path id="Vector_131" d="M568.103 145.083C565.386 154.283 563.302 160.48 556.228 163.447C542.144 169.323 535.908 163.09 535.362 153.365C534.918 144.618 539.439 131.044 550.742 129.066C562.045 127.088 570.821 135.871 568.103 145.083Z" fill="#B55B52"/>
<g id="Group 26">
<path id="Vector_132" d="M560.306 140.292C557.27 142.997 556.063 154.962 560.648 154.76C563.771 154.592 566.878 154.218 569.944 153.639C569.944 153.639 575.774 151.566 572.586 143.367C569.398 135.168 560.306 140.292 560.306 140.292Z" fill="#E0E0E0"/>
<path id="Vector_133" opacity="0.2" d="M552.19 143.963C553.479 143.651 554.847 143.826 556 144.451C554.708 144.52 553.415 144.354 552.19 143.963Z" fill="black"/>
<path id="Vector_134" opacity="0.2" d="M552.063 144.821C552.66 144.79 553.257 144.881 553.815 145.086C554.371 145.292 554.874 145.608 555.289 146.012C554.134 145.838 553.035 145.431 552.063 144.821Z" fill="black"/>
<path id="Vector_135" opacity="0.2" d="M543.554 134.262C546.771 134.248 549.98 134.551 553.13 135.168C547.783 134.81 543.554 134.262 543.554 134.262Z" fill="black"/>
<path id="Vector_136" opacity="0.2" d="M542.03 135.048C542.03 135.048 549.345 135.799 552.736 137.277C549.12 136.75 545.544 136.006 542.03 135.048Z" fill="black"/>
<path id="Vector_137" d="M570.123 155.856C569.197 156.789 568.085 157.543 566.849 158.072C565.614 158.602 564.279 158.897 562.922 158.943C559.276 159.026 558.312 155.761 560.038 152.984C561.6 150.47 565.372 147.395 568.674 148.646C569.388 148.928 570.017 149.371 570.504 149.936C570.991 150.502 571.321 151.172 571.464 151.886C571.608 152.6 571.56 153.336 571.326 154.029C571.092 154.722 570.679 155.35 570.123 155.856Z" fill="#B55B52"/>
<path id="Vector_138" d="M548.966 143.832C549.123 143.01 548.786 142.265 548.213 142.168C547.64 142.071 547.048 142.66 546.891 143.483C546.733 144.305 547.07 145.05 547.643 145.147C548.216 145.244 548.808 144.655 548.966 143.832Z" fill="#263238"/>
<path id="Vector_139" d="M539.897 142.497C539.744 143.307 539.147 143.891 538.627 143.784C538.105 143.676 537.724 142.938 537.89 142.116C538.055 141.293 538.639 140.709 539.16 140.816C539.68 140.924 540.062 141.674 539.897 142.497Z" fill="#263238"/>
</g>
</g>
<g id="Group 24">
<path id="Vector_140" d="M542.78 143.664L541.51 150.576C540.627 150.589 539.75 150.472 538.906 150.231C538.739 150.173 538.592 150.074 538.48 149.944C538.369 149.813 538.298 149.657 538.275 149.492C538.251 149.326 538.276 149.157 538.347 149.004C538.418 148.851 538.532 148.719 538.677 148.622C540.373 147.233 541.766 145.55 542.78 143.664Z" fill="#A02724"/>
</g>
<g id="Group 25">
<path id="Vector_141" d="M554.095 142.33C554.177 142.357 554.267 142.357 554.349 142.33C554.411 142.302 554.466 142.263 554.511 142.214C554.557 142.166 554.591 142.109 554.613 142.048C554.634 141.987 554.642 141.922 554.636 141.858C554.63 141.794 554.61 141.731 554.577 141.674C554.223 140.963 553.692 140.342 553.03 139.863C552.367 139.384 551.591 139.061 550.767 138.921C550.699 138.913 550.63 138.918 550.563 138.935C550.497 138.952 550.434 138.982 550.38 139.021C550.325 139.062 550.28 139.111 550.246 139.168C550.213 139.224 550.191 139.286 550.184 139.351C550.172 139.479 550.213 139.607 550.297 139.709C550.382 139.811 550.505 139.878 550.64 139.899C551.286 140.022 551.891 140.285 552.407 140.668C552.923 141.051 553.336 141.543 553.613 142.104C553.661 142.181 553.732 142.244 553.818 142.284C553.903 142.324 554 142.34 554.095 142.33Z" fill="#263238"/>
<path id="Vector_142" d="M536.861 139.648C536.946 139.661 537.033 139.655 537.114 139.63C537.196 139.605 537.27 139.562 537.331 139.506C537.764 139.045 538.308 138.688 538.917 138.464C539.527 138.24 540.185 138.156 540.836 138.219C540.971 138.24 541.108 138.21 541.22 138.136C541.332 138.063 541.408 137.951 541.433 137.826C541.455 137.697 541.425 137.567 541.346 137.46C541.268 137.353 541.149 137.279 541.014 137.253C540.193 137.163 539.361 137.258 538.588 137.532C537.814 137.806 537.122 138.249 536.569 138.827C536.519 138.871 536.479 138.924 536.452 138.984C536.425 139.044 536.411 139.107 536.411 139.172C536.411 139.236 536.425 139.3 536.452 139.36C536.479 139.42 536.519 139.473 536.569 139.517C536.646 139.593 536.75 139.64 536.861 139.648Z" fill="#263238"/>
<path id="Vector_143" d="M561.614 167.225C561.614 167.225 554.26 175.568 544.697 176.021C550.259 178.5 551.2 184.363 551.2 184.363C551.2 184.363 563.15 180.954 565.398 169.025C564.964 168.466 564.394 168.011 563.737 167.698C563.079 167.385 562.351 167.223 561.614 167.225Z" fill="white"/>
<path id="Vector_144" d="M540.988 178.905L536.797 175.329L531.463 176.819C531.463 176.819 535.49 181.157 540.988 178.905Z" fill="#673DE6"/>
<path id="Vector_145" opacity="0.3" d="M540.988 178.905L536.797 175.329L531.463 176.819C531.463 176.819 535.49 181.157 540.988 178.905Z" fill="black"/>
</g>
<g id="Group 42">
<g id="Group 3">
<path id="Vector_146" opacity="0.2" d="M531.007 407.123L547.288 403.881L549.003 414.094L534.22 417.05L531.007 407.123Z" fill="black"/>
<path id="Vector_147" d="M540.76 337.632C546.17 313.988 557.359 289.308 546.78 266.784L500.348 266.641C500.348 266.641 503.892 318.422 505.518 340.242C507.22 362.886 531.705 414.333 531.705 414.333L550.311 410.495C550.311 410.495 545.015 362.957 540.76 337.632Z" fill="#263238"/>
<path id="Vector_148" d="M554.044 427.18L549.765 428.074L548.495 426.882L546.932 428.634L539.046 431.84C536.156 433.018 533.039 433.627 529.889 433.627H523.412C523.315 432.003 523.674 430.384 524.453 428.932C524.453 428.932 530.701 427.907 533.928 423.033C534.144 422.774 534.426 422.569 534.747 422.436C535.068 422.303 535.419 422.246 535.769 422.27C538.754 422.198 546.602 421.781 550.513 419.374C550.606 419.323 550.71 419.293 550.817 419.286C550.924 419.28 551.032 419.296 551.131 419.336C551.23 419.375 551.317 419.436 551.386 419.513C551.456 419.59 551.505 419.681 551.529 419.779C552.156 422.305 552.997 424.78 554.044 427.18Z" fill="#263238"/>
<path id="Vector_149" d="M568.7 409.375L585.349 409.53L586.073 427.955L572.167 427.847L568.7 409.375Z" fill="#B55B52"/>
<path id="Vector_150" d="M586.81 337.632C588.157 313.988 589.985 278.606 581.539 267.737L529.685 266.641C529.685 266.641 544.1 318.422 549.485 340.242C555.073 362.886 568.789 416.514 568.789 416.514H586.785C586.785 416.514 593.579 364.625 586.81 337.632Z" fill="#263238"/>
<path id="Vector_151" d="M588.436 433.663H584.817L583.839 432.281L581.934 433.675H560.09C559.959 432.06 560.283 430.44 561.029 428.979C561.029 428.979 567.557 428.419 570.071 425.404C570.16 425.286 570.282 425.194 570.423 425.139C570.565 425.084 570.721 425.068 570.872 425.094C573.056 425.523 581.692 427.061 586.442 425.452C586.56 425.408 586.688 425.391 586.814 425.403C586.94 425.415 587.062 425.455 587.168 425.521C587.273 425.587 587.361 425.675 587.422 425.779C587.484 425.883 587.518 426 587.522 426.119C587.617 428.652 587.924 431.174 588.436 433.663Z" fill="#263238"/>
</g>
<g id="Group 41">
<path id="Vector_152" d="M541.192 182.015C542.221 180.513 542.754 178.917 541.598 178.201C540.772 177.701 538.296 177.01 537.788 178.57C537.28 180.132 537.343 181.467 538.042 182.146C538.252 182.343 538.502 182.497 538.779 182.598C539.056 182.699 539.351 182.745 539.648 182.733C539.945 182.72 540.235 182.65 540.5 182.527C540.766 182.403 541.001 182.229 541.192 182.015Z" fill="#263238"/>
<path id="Vector_153" d="M541.713 178.535C543.872 175.722 550.222 174.722 550.222 177.033C550.222 181.479 550.069 185.971 548.037 187.02C546.005 188.069 542.804 181.192 541.242 181.061L541.713 178.535Z" fill="#263238"/>
<path id="Vector_154" d="M538.22 178.356C536.95 175.389 532.924 174.34 532.263 176.545C530.993 180.775 530.816 184.279 532.263 185.495C533.712 186.71 536.887 180.895 538.169 180.943L538.22 178.356Z" fill="#263238"/>
</g>
</g>
<g id="sir-left-hand">
<path id="Vector_155" d="M510.801 205.101L509.822 205.34L509.094 205.502L507.707 205.767C506.815 205.916 505.939 206.033 505.057 206.133C503.331 206.336 501.59 206.444 499.842 206.455C496.361 206.499 492.866 206.213 489.408 205.6C487.676 205.3 485.939 204.891 484.24 204.407C482.54 203.924 480.837 203.36 479.166 202.731C475.825 201.452 472.618 199.841 469.599 197.923L468.456 197.194C467.401 196.524 466.509 195.636 465.85 194.599C464.021 191.691 462.649 188.555 461.779 185.297C461.02 182.477 460.526 179.61 460.302 176.729C460.096 174.023 460.084 171.315 460.267 168.626C460.344 167.338 460.52 165.992 460.691 164.683C460.862 163.375 461.137 162.143 461.466 160.686C461.735 159.469 462.411 158.389 463.394 157.606C464.377 156.824 465.614 156.382 466.918 156.347C468.222 156.312 469.525 156.686 470.63 157.413C471.735 158.139 472.582 159.179 473.046 160.376L473.356 161.19C473.715 162.134 474.09 163.337 474.47 164.384C474.849 165.431 475.222 166.58 475.586 167.659C476.355 169.823 477.109 171.928 477.966 173.909C478.704 175.83 479.579 177.705 480.586 179.52C481.338 180.901 482.276 182.186 483.371 183.344L479.624 180.046C481.566 180.843 483.562 181.497 485.594 182.001C487.636 182.488 489.704 182.836 491.783 183.041C493.893 183.225 496.005 183.284 498.109 183.22C499.169 183.193 500.214 183.105 501.226 183.029C501.74 182.988 502.237 182.925 502.713 182.878L503.388 182.796L503.662 182.757L503.741 182.796L503.673 182.763C506.715 182.006 510.007 182.458 512.823 184.02C515.64 185.583 517.751 188.128 518.692 191.095C519.633 194.062 519.327 197.209 517.84 199.842C516.355 202.476 513.811 204.381 510.768 205.138L510.801 205.101Z" fill="#B65B52"/>
<path id="Vector_156" d="M463.383 164.377L469.821 162.211C475.177 157.742 467.656 151.81 467.656 151.81L464.164 145.668C463.674 144.955 462.946 144.418 462.109 144.153C461.271 143.888 460.378 143.912 459.586 144.22L455.075 145.707C454.602 145.823 454.161 146.03 453.779 146.314C453.397 146.598 453.081 146.955 452.849 147.364C452.617 147.773 452.473 148.226 452.427 148.697C452.38 149.169 452.431 149.649 452.576 150.111L455.127 155.98C455.572 157.125 456.302 158.159 457.249 158.989L463.383 164.377Z" fill="#B55B52"/>
<path id="Vector_157" d="M472.084 161.684C475.908 157.489 473.743 152.682 473.268 148.527C473.175 147.819 471.287 147.257 470.643 148.348C470.19 148.983 469.88 149.707 469.732 150.475C469.583 151.243 469.599 152.04 469.778 152.818C468.111 153.543 464.416 157.126 466.737 161.756C468.501 162.365 470.404 162.339 472.084 161.684Z" fill="#B55B52"/>
</g>
<path id="Vector_158" d="M526.51 170.407C515.259 169.788 498.774 181.932 498.774 181.932C497.211 185.971 501.06 200.999 507.943 207.554C507.943 207.554 515.842 209.317 522.752 201.5C530.27 192.979 538.436 171.051 526.51 170.407Z" fill="#673DE6"/>
<g id="Group 40">
<path id="Vector_159" d="M577.235 170.92C576.672 170.592 576.045 170.372 575.39 170.277C574.736 170.18 574.067 170.209 573.425 170.36C569.462 174.638 552.253 205.778 559.328 263.494H563.354C556.242 205.766 573.272 175.198 577.235 170.92Z" fill="white"/>
</g>
<g id="Group 39">
<path id="Vector_160" d="M540.76 168.429C540.76 168.429 537.039 172.469 536.861 175.389C532.39 176.58 530.231 182.73 530.231 182.73C530.231 182.73 529.419 173.923 536.442 169.18C537.769 168.53 539.273 168.269 540.76 168.429Z" fill="white"/>
<path id="Vector_161" d="M563.734 268.214L563.378 263.959C563.35 263.734 563.229 263.529 563.042 263.387C562.854 263.245 562.616 263.176 562.376 263.196L560.433 263.292C560.195 263.301 559.972 263.397 559.81 263.56C559.648 263.723 559.562 263.939 559.569 264.162L559.925 268.428C559.956 268.651 560.078 268.855 560.265 268.997C560.451 269.138 560.688 269.208 560.927 269.191L562.87 269.083C562.988 269.081 563.104 269.055 563.212 269.01C563.319 268.964 563.416 268.899 563.496 268.818C563.577 268.737 563.639 268.642 563.68 268.538C563.721 268.434 563.739 268.324 563.734 268.214Z" fill="white"/>
<path id="Vector_162" d="M563.823 265.484H559.48C559.248 265.478 559.024 265.398 558.847 265.257C558.669 265.117 558.548 264.924 558.502 264.71L558.223 263.065C558.201 262.969 558.203 262.87 558.229 262.776C558.255 262.681 558.303 262.593 558.37 262.518C558.438 262.443 558.522 262.384 558.618 262.344C558.713 262.305 558.817 262.287 558.921 262.291H563.265C563.495 262.298 563.716 262.378 563.892 262.519C564.068 262.66 564.186 262.853 564.229 263.065L564.521 264.71C564.543 264.805 564.541 264.904 564.515 264.999C564.49 265.094 564.441 265.183 564.374 265.257C564.306 265.332 564.222 265.391 564.127 265.43C564.031 265.47 563.927 265.488 563.823 265.484Z" fill="#263238"/>
<path id="Vector_163" d="M529.8 170.014C529.05 169.454 526.689 169.776 525.507 170.407C521.355 174.685 502.647 205.826 507.016 263.542H511.042C506.686 205.766 525.647 174.245 529.8 170.014Z" fill="white"/>
</g>
<path id="Vector_164" d="M511.233 268.214L511.08 263.959C511.073 263.849 511.041 263.741 510.987 263.643C510.934 263.544 510.86 263.456 510.77 263.385C510.68 263.314 510.576 263.26 510.463 263.228C510.351 263.196 510.232 263.185 510.115 263.197L508.159 263.292C507.92 263.303 507.694 263.4 507.527 263.561C507.36 263.722 507.263 263.937 507.258 264.161L507.41 268.428C507.433 268.649 507.546 268.852 507.727 268.994C507.907 269.137 508.14 269.208 508.375 269.191L510.331 269.083C510.571 269.074 510.798 268.979 510.966 268.817C511.134 268.655 511.229 268.439 511.233 268.214Z" fill="white"/>
<g id="Group 36">
<g id="Group 35">
<path id="Vector_165" d="M511.449 265.484H507.105C506.877 265.479 506.657 265.398 506.486 265.257C506.314 265.115 506.201 264.922 506.165 264.71L505.962 263.065C505.947 262.967 505.955 262.868 505.986 262.773C506.016 262.679 506.068 262.591 506.138 262.518C506.208 262.443 506.295 262.385 506.392 262.346C506.489 262.307 506.594 262.288 506.698 262.291H511.042C511.27 262.296 511.49 262.377 511.661 262.518C511.833 262.66 511.946 262.853 511.982 263.065L512.185 264.71C512.2 264.808 512.192 264.907 512.161 265.002C512.131 265.097 512.079 265.184 512.009 265.257C511.938 265.332 511.852 265.39 511.755 265.429C511.658 265.468 511.554 265.487 511.449 265.484Z" fill="#263238"/>
<path id="Vector_166" d="M551.962 121.522C547.034 117.839 538.867 127.683 549.65 133.153C563.163 140.018 561.537 151.101 579.013 147.86C571.532 142.938 576.282 139.184 573.119 132.081C569.589 124.108 559.95 127.481 551.962 121.522Z" fill="#F5F5F5"/>
</g>
<g id="Group 34">
<path id="Vector_167" d="M544.443 127.421C546.043 132.927 547.987 134.214 549.79 135.656C548.528 133.762 547.621 131.677 547.11 129.495L544.443 127.421Z" fill="#F5F5F5"/>
<path id="Vector_168" d="M537.23 153.115C537.23 153.115 541.04 152.841 551.339 154.307C549.676 157.048 547.047 159.074 541.764 158.323C541.09 158.288 540.432 158.122 539.831 157.836C539.23 157.549 538.699 157.148 538.272 156.657C537.845 156.168 537.532 155.6 537.353 154.989C537.173 154.379 537.131 153.741 537.23 153.115Z" fill="#263238"/>
<path id="Vector_169" d="M544.57 156.344C542.557 155.953 540.464 156.165 538.588 156.953C539.472 157.691 540.576 158.156 541.75 158.287C543.759 158.684 545.849 158.472 547.719 157.68C546.848 156.932 545.744 156.464 544.57 156.344Z" fill="#A02724"/>
<path id="Vector_170" d="M537.712 153.103C537.758 153.474 537.911 153.825 538.155 154.119C538.4 154.414 538.725 154.639 539.096 154.771C542.157 155.192 545.249 155.376 548.342 155.32C548.83 155.344 549.316 155.256 549.759 155.063C550.202 154.869 550.588 154.577 550.882 154.212C546.529 153.525 542.126 153.154 537.712 153.103Z" fill="white"/>
<path id="Vector_171" d="M537.013 160.206C537.115 162.792 539.883 164.973 539.16 166.593C542.583 166.837 546.006 166.115 548.989 164.52C549.211 164.366 549.381 164.153 549.476 163.91C549.572 163.666 549.59 163.402 549.528 163.149C549.466 162.896 549.326 162.665 549.127 162.486C548.928 162.306 548.677 162.185 548.406 162.136C546.229 161.934 544.14 161.221 542.335 160.063C542.106 159.881 541.816 159.782 541.516 159.782C541.216 159.782 540.926 159.881 540.697 160.063C538.512 161.672 537.013 160.206 537.013 160.206Z" fill="#F5F5F5"/>
</g>
</g>
<g id="sir-right-hand">
<path id="Vector_172" d="M591.713 184.053L592.856 185.4L593.872 186.591C594.519 187.402 595.142 188.236 595.751 189.058C597.021 190.703 598.138 192.407 599.256 194.123C601.519 197.624 603.514 201.272 605.225 205.039C607.076 209.019 608.48 213.169 609.416 217.422C610.527 222.202 610.711 227.131 609.963 231.972L609.81 232.95C609.675 233.751 609.387 234.522 608.959 235.226C607.442 237.716 605.744 240.105 603.879 242.377C602.095 244.549 600.183 246.626 598.151 248.597C596.132 250.528 594.062 252.364 591.878 254.091C589.673 255.844 587.353 257.464 584.93 258.942C583.798 259.642 582.45 259.971 581.097 259.879C579.744 259.787 578.462 259.278 577.448 258.432C576.435 257.586 575.747 256.449 575.493 255.199C575.239 253.949 575.431 252.654 576.04 251.517L576.32 251.053C577.412 249.002 578.733 246.822 579.914 244.724C581.095 242.627 582.315 240.53 583.432 238.444C584.549 236.358 585.603 234.297 586.633 232.294C587.661 230.292 588.449 228.266 589.236 226.335L588.232 229.577C588.171 227.184 587.742 224.813 586.962 222.534C586.516 221.175 585.995 219.838 585.401 218.53C584.816 217.171 584.131 215.789 583.406 214.406C581.92 211.653 580.257 208.865 578.428 206.136C577.539 204.753 576.561 203.407 575.622 202.06L574.173 200.07L572.84 198.294L572.395 197.698C570.519 195.282 569.731 192.269 570.202 189.312C570.673 186.356 572.366 183.691 574.913 181.895C577.461 180.1 580.659 179.317 583.817 179.716C586.975 180.115 589.838 181.665 591.788 184.029L591.713 184.053Z" fill="#B65B52"/>
<path id="Vector_173" d="M584.27 267.689L519.805 225.537L520.516 224.572L585.604 265.866L584.27 267.689Z" fill="#263238"/>
<path id="Vector_174" d="M578.707 250.361L584.956 253.328C589.935 258.429 581.832 263.292 581.832 263.292L578.949 267.105C578.395 267.748 577.616 268.185 576.75 268.338C575.885 268.491 574.99 268.349 574.225 267.939L569.831 265.889C569.365 265.713 568.942 265.451 568.584 265.121C568.227 264.79 567.943 264.396 567.748 263.962C567.553 263.528 567.452 263.062 567.449 262.591C567.447 262.12 567.545 261.653 567.735 261.218L569.64 257.559C570.189 256.488 571.014 255.562 572.04 254.866L578.707 250.361Z" fill="#B55B52"/>
</g>
<path id="Vector_175" d="M579 171.802C589.617 175.377 599.625 192.228 599.625 192.228C599.18 198.366 588.766 212.261 581.4 215.301C576.259 211.167 572.45 205.768 570.402 199.712C567.023 189.082 573.539 173.327 579 171.802Z" fill="#673DE6"/>
</g>
<defs>
<clipPath id="clip0">
<rect width="635" height="446" fill="white"/>
</clipPath>
</defs>
</svg>
