<svg xmlns="http://www.w3.org/2000/svg" viewBox="0 0 221 82.17"><defs><style>.cls-1{fill:#1877f2;}.cls-2{fill:#fff;stroke:#fff;stroke-miterlimit:10;}.cls-3,.cls-4{isolation:isolate;}.cls-4{font-size:23.47px;font-family:Georgia;}.cls-5{letter-spacing:0em;}</style></defs><g id="Layer_2" data-name="Layer 2"><g id="Layer_1-2" data-name="Layer 1"><g id="Layer_2-2" data-name="Layer 2"><g id="Layer_1-2-2" data-name="Layer 1-2"><path class="cls-1" d="M81,34.17A34,34,0,0,1,63.77,63.49a9.86,9.86,0,0,0-5,8.53h0a.49.49,0,0,1-.49.47H32.92a.49.49,0,0,1-.49-.47h0a9.79,9.79,0,0,0-5-8.46,34,34,0,0,1-17.3-27.67C9.06,15.63,25.71-.68,46.76,0,65.77.64,81,15.69,81,34.17Z"/><path d="M32.75,75.4a15.55,15.55,0,0,0,25.65,0Z"/><path d="M36.29,64.56,33.55,51.77l-18-4L7.78,58.18,0,56.44l31.89-42,9.62,50.09ZM19.52,42.24l12.7,2.84L29.71,33.73q-.2-1.08-.36-2.46c-.11-.92-.2-1.93-.28-3.05-.45.93-.91,1.79-1.37,2.59s-.9,1.51-1.35,2.17Z"/><path d="M48.18,38.69l5.3-.91c0,2.11.54,1.86,1.68,3.32a9.68,9.68,0,0,0,5,3.17A7.18,7.18,0,0,0,65.67,44a6.34,6.34,0,0,0,3.17-4.17q1.08-3.86-4.41-8.78c-.51-.48-.91-.83-1.18-1.06q-6.2-5.68-7.78-9.25A11.1,11.1,0,0,1,55,13.06a11.41,11.41,0,0,1,6-7.59A13.78,13.78,0,0,1,71.45,5,16.85,16.85,0,0,1,79,9.25a10.48,10.48,0,0,1,3,6.71l-6.31,1.22a9.93,9.93,0,0,0-2-3.88,7,7,0,0,0-3.31-2,6.76,6.76,0,0,0-4.94.13,5.22,5.22,0,0,0-2.79,3.51q-1.11,3.95,5.29,9.55l.77.69q5.59,4.92,7.2,8.49a11.23,11.23,0,0,1,.4,7.85q-1.74,6.21-6.65,8.71c-3.27,1.67-11,5.23-11.52.52-.28-2.43-3-4.13-5.31-6.28S48,42.09,48.18,38.69Z"/><path class="cls-2" d="M59.83,43.78a9.15,9.15,0,0,0-6.15-3.67,8.63,8.63,0,0,0,4.79-3.46,11,11,0,0,0,1.65-6.17A13.74,13.74,0,0,0,59,24.83a10.35,10.35,0,0,0-3.22-4.13,10.1,10.1,0,0,0-3.92-1.77,34.06,34.06,0,0,0-7.13-.54H33.44V64.6H44.77a36.42,36.42,0,0,0,9.12-.79,9.83,9.83,0,0,0,4.55-2.71,12,12,0,0,0,2.69-4.29,15.23,15.23,0,0,0,.94-5.35A12.68,12.68,0,0,0,59.83,43.78ZM40.55,24.64h2.78q5.52,0,7.51,1.53t2,5.32q0,3.47-2.15,4.94c-1.44,1-3.88,1.47-7.34,1.47H40.55Zm13.27,29.8a6,6,0,0,1-2.07,2.46,7.09,7.09,0,0,1-3,1.11,38.12,38.12,0,0,1-5.71.31H40.54V43.57h4.7a20.7,20.7,0,0,1,3.52.25,8.72,8.72,0,0,1,2.37.8,6.28,6.28,0,0,1,2.53,2.55A8,8,0,0,1,54.55,51a7.9,7.9,0,0,1-.72,3.42Z"/><g class="cls-3"><text class="cls-4" transform="translate(86.14 44.46)">ACA<tspan class="cls-5" x="46.56" y="0">D</tspan><tspan x="64.19" y="0">EMIC </tspan></text><text class="cls-4" transform="translate(86.14 61.69)">SOLUTIONS</text></g></g></g></g></g></svg>