<svg xmlns="http://www.w3.org/2000/svg" viewBox="0 0 340.32 341.34"><defs><style>.cls-1{fill:#1877f2;}.cls-2{fill:#fff;stroke:#fff;stroke-miterlimit:10;}</style></defs><g id="Layer_2" data-name="Layer 2"><g id="Layer_1-2" data-name="Layer 1"><path class="cls-1" d="M336.39,142c0,51.7-28.68,96.95-71.54,121.77A41.09,41.09,0,0,0,244,299.17h0a2,2,0,0,1-2,1.95H136.74a2,2,0,0,1-2-1.95h0c0-14.46-8-27.74-20.88-35.13C72.67,240.42,44.48,198,42,149.12,37.63,64.91,106.77-2.79,194.2.09,273.18,2.69,336.39,65.21,336.39,142Z"/><path d="M136,313.23a64.52,64.52,0,0,0,106.53,0Z"/><path d="M150.73,268.19l-11.35-53.12-75-16.76-32.08,43.4L0,234.48,132.44,59.92,172.4,268ZM81.08,175.47l52.74,11.8-10.44-47.14c-.55-3-1-6.39-1.52-10.2s-.84-8-1.14-12.67q-2.84,5.8-5.69,10.74t-5.61,9Z"/><path d="M200.11,160.73l22-3.77c0,8.77,2.25,7.74,7,13.78s11.68,10.43,20.87,13.18q13.05,3.92,22.81-1.1T286,165.51q4.48-16-18.35-36.45-3.18-3-4.9-4.43Q237,101.05,230.43,86.22t-1.79-32Q234.87,32,253.69,22.74t43.08-2q20,6,31.2,17.76a43.48,43.48,0,0,1,12.35,27.86l-26.24,5q-3-10.19-8.37-16.1A29.5,29.5,0,0,0,292,46.87q-11.82-3.54-20.52.58T259.84,62q-4.59,16.38,22,39.69c1.35,1.21,2.41,2.16,3.2,2.85q23.25,20.42,29.9,35.27t1.68,32.59q-7.23,25.83-27.63,36.2c-13.6,6.91-45.63,21.72-47.86,2.14-1.15-10.1-12.57-17.12-22.07-26.11C209.85,175.92,199.43,174.88,200.11,160.73Z"/><path class="cls-2" d="M248.5,181.9q-9.31-12.65-25.55-15.27,13.06-4.06,19.91-14.36t6.85-25.63A56.86,56.86,0,0,0,245,103.16,43.36,43.36,0,0,0,231.57,86a42.47,42.47,0,0,0-16.29-7.35q-9.57-2.22-29.6-2.22H138.89v192h47q26.63,0,37.91-3.28a41.46,41.46,0,0,0,18.89-11.27A50.09,50.09,0,0,0,253.89,236a62.63,62.63,0,0,0,3.93-22.16Q257.82,194.55,248.5,181.9Zm-80.07-79.52H180q23,0,31.19,6.36t8.24,22.09q0,14.43-8.94,20.52T180,157.45H168.43Zm55.16,123.78A25.19,25.19,0,0,1,215,236.39q-4.56,3.27-12.42,4.59t-23.71,1.31h-10.4V181.05H188a81.46,81.46,0,0,1,14.64,1,35.84,35.84,0,0,1,9.83,3.28A26.17,26.17,0,0,1,223,196a33.25,33.25,0,0,1,3.68,16A32.76,32.76,0,0,1,223.59,226.16Z"/></g></g></svg>