<svg xmlns="http://www.w3.org/2000/svg" viewBox="0 0 492.87 185.62"><defs><style>.cls-1{fill:#1877f2;}.cls-2{fill:#fff;stroke:#fff;stroke-miterlimit:10;}.cls-3{isolation:isolate;}.cls-4{font-size:52px;font-family:Georgia;}</style></defs><g id="Layer_2" data-name="Layer 2"><g id="Layer_1-2" data-name="Layer 1"><g id="Layer_2-2" data-name="Layer 2"><g id="Layer_1-2-2" data-name="Layer 1-2"><path class="cls-1" d="M183,77.2c0,28.11-15.59,52.72-38.9,66.22a22.3,22.3,0,0,0-11.34,19.27h0a1.08,1.08,0,0,1-1.1,1.06H74.37a1.09,1.09,0,0,1-1.11-1.06h0a22.14,22.14,0,0,0-11.34-19.11c-22.38-12.84-37.72-35.9-39.09-62.5C20.48,35.3,58.08-1.53,105.63.05,148.58,1.44,183,35.45,183,77.2Z"/><path d="M74,170.34a35.1,35.1,0,0,0,57.94,0Z"/><path d="M82,145.84,75.8,117,35,107.83,17.58,131.44,0,127.51,72,32.57,93.77,145.74ZM44.1,95.42l28.68,6.41L67.11,76.19q-.45-2.43-.81-5.55c-.24-2.07-.45-4.37-.62-6.88q-1.55,3.15-3.1,5.83t-3,4.9Z"/><path d="M108.83,87.39l12-2c0,4.78,1.22,4.22,3.79,7.5S131,98.51,136,100q7.1,2.13,12.4-.6c3.53-1.82,5.93-5,7.17-9.42q2.44-8.7-10-19.82c-1.16-1.08-2-1.88-2.67-2.41q-14-12.83-17.56-20.89a25,25,0,0,1-1-17.38Q127.73,17.4,138,12.35t23.43-1.1q10.86,3.24,17,9.66a23.64,23.64,0,0,1,6.71,15.15l-14.27,2.75a22.46,22.46,0,0,0-4.55-8.76,16.14,16.14,0,0,0-7.47-4.58q-6.44-1.92-11.16.31a11.76,11.76,0,0,0-6.32,7.92q-2.5,8.91,12,21.59L155,56.84Q167.66,67.94,171.28,76t.91,17.73q-3.93,14-15,19.68c-7.4,3.76-24.82,11.81-26,1.17-.63-5.49-6.84-9.32-12-14.18S108.47,95.09,108.83,87.39Z"/><path class="cls-2" d="M135.15,98.91a20.59,20.59,0,0,0-13.89-8.3,19.44,19.44,0,0,0,10.82-7.82q3.72-5.6,3.73-13.93a31,31,0,0,0-2.59-12.77A23.63,23.63,0,0,0,126,46.77a23.23,23.23,0,0,0-8.86-4q-5.2-1.22-16.1-1.21H75.55v104.4h25.58q14.48,0,20.62-1.78A22.56,22.56,0,0,0,132,138a27.31,27.31,0,0,0,6.08-9.7,34,34,0,0,0,2.12-12.07Q140.22,105.79,135.15,98.91ZM91.61,55.66h6.27q12.48,0,17,3.46t4.49,12q0,7.86-4.86,11.17T97.88,85.61H91.61Zm30,67.32a13.54,13.54,0,0,1-4.69,5.56,16,16,0,0,1-6.76,2.5,84.77,84.77,0,0,1-12.89.71H91.57V98.43h10.62a46.07,46.07,0,0,1,8,.57,19.72,19.72,0,0,1,5.35,1.79,14.13,14.13,0,0,1,5.72,5.77A19.48,19.48,0,0,1,121.6,123Z"/><g class="cls-3"><text class="cls-3"/><text class="cls-3"/></g></g></g><text class="cls-4" transform="translate(195.1 93.85)">ACADEMIC</text><text class="cls-4" transform="translate(194.1 145.95)">SOLUTIONS</text></g></g></svg>