<svg width="531" height="432" viewBox="0 0 531 432" fill="none" xmlns="http://www.w3.org/2000/svg">
<g id="Annoucement 1" clip-path="url(#clip0)">
<path id="Vector" d="M571.015 379.589H0V379.879H571.015V379.589Z" fill="#EBEBEB"/>
<path id="Vector_2" d="M513.799 398.244H490.879V398.534H513.799V398.244Z" fill="#EBEBEB"/>
<path id="Vector_3" d="M444.821 394.186H408.253V394.476H444.821V394.186Z" fill="#EBEBEB"/>
<path id="Vector_4" d="M355.365 387.485H313.133V387.774H355.365V387.485Z" fill="#EBEBEB"/>
<path id="Vector_5" d="M135.502 396.018H86.1774V396.308H135.502V396.018Z" fill="#EBEBEB"/>
<path id="Vector_6" d="M76.0022 396.018H68.7733V396.308H76.0022V396.018Z" fill="#EBEBEB"/>
<path id="Vector_7" d="M193.266 387.334H150.462V387.624H193.266V387.334Z" fill="#EBEBEB"/>
<path id="Vector_8" d="M270.661 327.88H50.1466C48.419 327.877 46.7633 327.178 45.5429 325.937C44.3224 324.695 43.637 323.013 43.637 321.26V6.56225C43.652 4.81852 44.3441 3.15124 45.563 1.92254C46.7817 0.693854 48.4289 0.00298708 50.1466 0H270.661C272.39 0 274.049 0.697482 275.272 1.93901C276.495 3.18054 277.182 4.86441 277.182 6.62023V321.26C277.182 323.015 276.495 324.699 275.272 325.941C274.049 327.182 272.39 327.88 270.661 327.88ZM50.1466 0.231882C48.4948 0.234953 46.9117 0.903251 45.7448 2.09009C44.5778 3.27693 43.9225 4.88532 43.9225 6.56225V321.26C43.9225 322.937 44.5778 324.545 45.7448 325.732C46.9117 326.918 48.4948 327.587 50.1466 327.59H270.661C272.314 327.587 273.898 326.919 275.067 325.732C276.236 324.546 276.894 322.937 276.896 321.26V6.56225C276.894 4.88426 276.236 3.27589 275.067 2.08938C273.898 0.902874 272.314 0.234946 270.661 0.231882H50.1466Z" fill="#EBEBEB"/>
<path id="Vector_9" d="M517.694 327.88H297.168C295.439 327.877 293.782 327.178 292.56 325.937C291.338 324.697 290.65 323.015 290.646 321.26V6.56225C290.665 4.81746 291.359 3.15019 292.58 1.92182C293.8 0.693451 295.449 0.0029545 297.168 0H517.694C519.409 0.00603412 521.053 0.698249 522.269 1.92661C523.486 3.15498 524.176 4.82052 524.191 6.56225V321.26C524.191 323.011 523.507 324.692 522.289 325.932C521.071 327.174 519.419 327.874 517.694 327.88ZM297.168 0.231882C295.515 0.234946 293.931 0.902874 292.762 2.08938C291.593 3.27589 290.935 4.88426 290.932 6.56225V321.26C290.935 322.937 291.593 324.546 292.762 325.732C293.931 326.919 295.515 327.587 297.168 327.59H517.694C519.346 327.587 520.931 326.919 522.099 325.732C523.268 324.546 523.926 322.937 523.929 321.26V6.56225C523.926 4.88426 523.268 3.27589 522.099 2.08938C520.931 0.902874 519.346 0.234946 517.694 0.231882H297.168Z" fill="#EBEBEB"/>
<path id="Vector_10" d="M163.71 247.324C161.643 215.847 159.952 127.778 198.154 60.8108C198.284 60.6171 198.333 60.3788 198.29 60.1483C198.247 59.9178 198.116 59.714 197.925 59.5819C197.735 59.4496 197.5 59.3997 197.273 59.4433C197.046 59.4867 196.845 59.62 196.715 59.8137C194.472 62.7052 192.434 65.7545 190.616 68.9383C190.511 69.1087 190.353 69.2388 190.167 69.3068C189.98 69.374 189.776 69.3759 189.588 69.3118C189.401 69.247 189.24 69.1206 189.132 68.9515C189.024 68.7829 188.976 68.5817 188.995 68.3818C190.076 59.8041 191.739 51.3125 193.974 42.9675C194.02 42.759 193.991 42.5406 193.891 42.3522C193.792 42.1636 193.629 42.0175 193.433 41.9403C193.237 41.8631 193.02 41.86 192.822 41.9315C192.623 42.003 192.457 42.1443 192.352 42.3299C188.782 49.3876 186.129 56.8858 184.461 64.6371C184.432 64.8692 184.314 65.0798 184.131 65.2238C183.949 65.3672 183.718 65.4313 183.49 65.4018C183.261 65.3729 183.053 65.2527 182.912 65.0679C182.771 64.883 182.707 64.6485 182.736 64.4164C182.908 61.0659 183.182 57.4601 183.593 53.7384C183.625 53.5153 183.572 53.2882 183.445 53.1029C183.319 52.9174 183.128 52.7875 182.911 52.739C182.694 52.6906 182.468 52.7273 182.276 52.8416C182.085 52.9561 181.943 53.1398 181.879 53.3558C177.46 67.1386 176.233 81.7712 178.294 96.1146C178.289 96.153 178.289 96.192 178.294 96.2304C175.577 81.909 174.264 67.3492 174.376 52.7646C174.373 52.5506 174.294 52.345 174.154 52.1852C174.014 52.0254 173.822 51.9221 173.612 51.894C173.404 51.8659 173.192 51.915 173.015 52.0322C172.839 52.1494 172.71 52.327 172.652 52.5326C170.861 59.363 169.713 66.3507 169.226 73.4016C169.202 73.6198 169.099 73.8204 168.938 73.9663C168.777 74.1122 168.568 74.1933 168.352 74.1933C168.136 74.1933 167.928 74.1122 167.767 73.9663C167.606 73.8204 167.503 73.6198 167.479 73.4016C167.387 72.034 167.307 70.6424 167.251 69.2395C167.233 69.0307 167.144 68.8345 166.999 68.6849C166.854 68.5358 166.661 68.444 166.455 68.4245C166.25 68.405 166.043 68.4597 165.873 68.5792C165.703 68.6987 165.58 68.8748 165.526 69.0772C163.449 78.0027 162.383 87.1407 162.351 96.3115C162.344 96.5341 162.257 96.746 162.105 96.9057C161.953 97.0661 161.748 97.1629 161.529 97.1774C161.311 97.1918 161.095 97.1233 160.924 96.9843C160.752 96.846 160.638 96.6473 160.604 96.4278C159.302 87.3728 158.217 77.3324 157.669 66.8166C157.652 66.6072 157.562 66.411 157.417 66.262C157.272 66.113 157.079 66.0205 156.873 66.001C156.668 65.9816 156.462 66.0369 156.292 66.1564C156.122 66.2752 155.999 66.4519 155.944 66.6544C148.464 100.869 159.279 137.621 163.31 149.563C155.323 127.352 149.31 104.458 145.346 81.1581C145.313 80.9494 145.207 80.7588 145.048 80.6218C144.889 80.4847 144.687 80.4092 144.478 80.4092C144.27 80.4092 144.068 80.4847 143.909 80.6218C143.749 80.7588 143.644 80.9494 143.61 81.1581C142.474 92.7052 142.766 104.351 144.478 115.824C144.525 116.054 144.48 116.292 144.354 116.488C144.228 116.683 144.03 116.82 143.804 116.868C143.579 116.915 143.344 116.87 143.151 116.742C142.958 116.614 142.823 116.413 142.777 116.184C141.554 111.547 140.412 106.769 139.35 101.9C139.306 101.691 139.189 101.505 139.02 101.376C138.852 101.247 138.644 101.184 138.433 101.198C138.223 101.213 138.025 101.302 137.874 101.453C137.724 101.603 137.632 101.803 137.615 102.016C136.267 118.561 138.619 136.357 142.057 152.056C142.088 152.273 142.04 152.495 141.921 152.678C141.802 152.861 141.62 152.994 141.411 153.05C141.202 153.106 140.98 153.081 140.787 152.981C140.594 152.881 140.445 152.713 140.367 152.508C138.345 145.774 136.66 138.94 135.319 132.033C135.279 131.83 135.172 131.649 135.014 131.518C134.857 131.387 134.66 131.315 134.457 131.315C134.254 131.315 134.057 131.387 133.899 131.518C133.742 131.649 133.635 131.83 133.595 132.033C132.057 143.243 132.591 154.645 135.17 165.656C135.216 165.875 135.178 166.103 135.065 166.295C134.953 166.487 134.773 166.629 134.562 166.694C134.351 166.758 134.124 166.739 133.926 166.641C133.728 166.544 133.573 166.374 133.492 166.166C131.596 160.983 129.78 155.557 128.136 149.934C128.073 149.738 127.945 149.569 127.773 149.458C127.601 149.347 127.397 149.3 127.195 149.324C126.993 149.349 126.805 149.444 126.664 149.593C126.523 149.742 126.438 149.937 126.423 150.143C125.658 164.554 128.786 178.699 133.275 191.151C133.341 191.361 133.328 191.588 133.24 191.789C133.151 191.99 132.992 192.15 132.793 192.239C132.595 192.329 132.371 192.34 132.165 192.272C131.959 192.204 131.785 192.061 131.676 191.87C127.934 184.578 124.576 177.089 121.615 169.435C121.536 169.245 121.395 169.089 121.215 168.992C121.035 168.895 120.828 168.865 120.63 168.906C120.43 168.947 120.251 169.057 120.122 169.217C119.994 169.377 119.924 169.577 119.925 169.784C120.758 208.345 153.238 246.895 153.854 247.626L156.503 250.432C157.079 251.086 157.842 251.54 158.685 251.731C159.528 251.923 160.409 251.842 161.203 251.499C161.998 251.156 162.668 250.569 163.117 249.82C163.567 249.072 163.774 248.199 163.71 247.324Z" fill="#E6E6E6"/>
<g id="tree">
<path id="Vector_11" d="M146.18 269.052C134.977 232.322 108.493 128.369 135.194 38.0285C135.295 37.761 135.287 37.4635 135.173 37.2015C135.058 36.9395 134.846 36.7344 134.583 36.6314C134.319 36.5284 134.026 36.5359 133.768 36.6522C133.51 36.7685 133.308 36.9842 133.206 37.2517C131.339 41.3353 129.755 45.5465 128.467 49.8544C128.394 50.0893 128.243 50.2916 128.041 50.4277C127.839 50.5638 127.597 50.6255 127.355 50.6024C127.113 50.5794 126.887 50.4731 126.713 50.3011C126.539 50.1291 126.429 49.9019 126.4 49.6573C125.3 39.1772 124.918 28.6321 125.258 18.0983C125.262 17.8316 125.169 17.5726 124.998 17.3704C124.827 17.1682 124.589 17.0368 124.328 17.0011C124.068 16.9653 123.804 17.0278 123.586 17.1766C123.368 17.3254 123.211 17.5502 123.145 17.8085C120.875 27.2026 119.816 36.856 119.993 46.5269C120.017 46.8087 119.931 47.0886 119.753 47.3065C119.575 47.5243 119.32 47.6626 119.043 47.6914C118.766 47.7203 118.489 47.6375 118.271 47.4609C118.054 47.2843 117.913 47.028 117.88 46.7472C117.15 42.7241 116.487 38.4111 115.927 33.843C115.89 33.5843 115.762 33.3478 115.567 33.1768C115.372 33.0058 115.123 32.9117 114.865 32.9117C114.608 32.9117 114.359 33.0058 114.164 33.1768C113.969 33.3478 113.841 33.5843 113.803 33.843C112.388 51.4488 114.995 69.1483 121.42 85.5643C121.42 85.5643 121.42 85.6687 121.42 85.7265C114.212 69.5206 108.601 52.631 104.667 35.3039C104.613 35.0432 104.465 34.812 104.253 34.6551C104.041 34.4981 103.78 34.4264 103.519 34.4537C103.257 34.4811 103.016 34.6056 102.84 34.8033C102.664 35.0009 102.566 35.2577 102.565 35.5242C102.35 44.15 102.95 52.7769 104.359 61.2862C104.408 61.5591 104.352 61.8408 104.202 62.073C104.053 62.3051 103.821 62.4697 103.554 62.5324C103.288 62.5951 103.008 62.5512 102.773 62.4098C102.538 62.2684 102.365 62.0403 102.292 61.7731C101.8 60.1731 101.321 58.5615 100.864 56.9036C100.79 56.6543 100.631 56.44 100.414 56.2997C100.199 56.1594 99.94 56.1023 99.6858 56.1388C99.4323 56.1752 99.1995 56.3027 99.0296 56.4984C98.8604 56.6939 98.766 56.9447 98.7629 57.205C98.7836 68.3918 100.06 79.5402 102.565 90.4339C102.631 90.6999 102.594 90.9816 102.462 91.2212C102.33 91.4608 102.114 91.64 101.856 91.723C101.598 91.806 101.318 91.7859 101.075 91.667C100.832 91.5475 100.642 91.3388 100.545 91.0828C96.4784 80.6828 92.3902 69.1005 88.8274 56.8108C88.7525 56.5606 88.5921 56.3458 88.375 56.2056C88.158 56.0654 87.8981 56.0092 87.6433 56.0471C87.3885 56.0851 87.1557 56.2146 86.9871 56.4123C86.8191 56.61 86.726 56.8625 86.726 57.1239C87.3652 99.709 110.4 140.288 118.485 153.169C102.833 129.098 89.3376 103.652 78.1608 77.135C78.0545 76.9017 77.8708 76.713 77.6411 76.6036C77.4121 76.4948 77.1517 76.4709 76.9069 76.5376C76.6622 76.6042 76.4489 76.757 76.3042 76.9683C76.1595 77.179 76.0928 77.4355 76.1161 77.6915C77.9803 91.7217 81.567 105.459 86.794 118.584C86.894 118.839 86.894 119.123 86.7946 119.379C86.6952 119.634 86.5039 119.841 86.2592 119.958C86.0145 120.075 85.7351 120.092 85.4778 120.007C85.2211 119.922 85.0053 119.741 84.8757 119.5C82.1345 114.352 79.4512 109.065 76.8818 103.535C76.7666 103.307 76.5766 103.128 76.3445 103.028C76.113 102.929 75.8537 102.915 75.6128 102.99C75.3718 103.064 75.1642 103.222 75.027 103.437C74.8893 103.65 74.8301 103.907 74.8603 104.161C77.8639 124.172 85.5954 144.601 94.0461 162.236C94.1462 162.485 94.1518 162.764 94.0613 163.017C93.9713 163.271 93.7913 163.482 93.5573 163.609C93.3226 163.735 93.0502 163.77 92.7929 163.704C92.5349 163.639 92.3103 163.48 92.1619 163.256C87.8862 155.85 83.9867 148.226 80.4786 140.416C80.3792 140.177 80.198 139.982 79.9684 139.869C79.7394 139.754 79.477 139.728 79.2297 139.794C78.9831 139.86 78.768 140.015 78.6239 140.229C78.4798 140.443 78.4169 140.703 78.4458 140.96C79.7456 154.692 83.5488 168.059 89.661 180.38C89.7925 180.627 89.8239 180.917 89.7491 181.187C89.6736 181.457 89.4974 181.687 89.2583 181.827C89.0186 181.968 88.7343 182.008 88.4663 181.939C88.1982 181.87 87.9667 181.698 87.822 181.458C84.122 175.859 80.4673 169.946 76.9617 163.766C76.8314 163.551 76.632 163.388 76.3973 163.305C76.162 163.222 75.9066 163.225 75.6732 163.312C75.4398 163.4 75.2435 163.567 75.1183 163.785C74.9931 164.003 74.9459 164.259 74.9855 164.508C78.0803 181.806 85.732 197.69 94.5256 211.162C94.674 211.391 94.7313 211.669 94.6854 211.938C94.6401 212.208 94.4947 212.45 94.2796 212.615C94.0644 212.78 93.7958 212.857 93.5277 212.828C93.2597 212.799 93.0118 212.668 92.8357 212.461C86.3737 204.887 80.3087 196.973 74.6659 188.751C74.5262 188.536 74.3148 188.378 74.0707 188.307C73.826 188.237 73.5649 188.257 73.334 188.365C73.1037 188.473 72.9188 188.661 72.8131 188.896C72.7074 189.131 72.6879 189.396 72.759 189.644C84.4762 235.127 133.698 271.532 134.634 272.229L138.551 274.802C139.415 275.395 140.439 275.7 141.482 275.676C142.524 275.652 143.534 275.301 144.372 274.67C145.208 274.038 145.832 273.159 146.157 272.152C146.48 271.146 146.489 270.063 146.18 269.052Z" fill="#F5F5F5"/>
<g id="Group 13">
<path id="Vector_12" d="M121.752 279.139C123.876 252.472 126.32 177.69 94.686 120.381C94.5891 120.215 94.5596 120.018 94.6017 119.83C94.6439 119.643 94.7558 119.479 94.9138 119.372C95.071 119.265 95.2636 119.223 95.4504 119.256C95.6379 119.288 95.8053 119.392 95.9191 119.546C97.789 122.03 99.4833 124.646 100.989 127.372C101.074 127.522 101.207 127.637 101.366 127.699C101.524 127.761 101.699 127.766 101.861 127.714C102.022 127.661 102.162 127.553 102.255 127.409C102.347 127.264 102.389 127.092 102.372 126.92C101.554 119.624 100.237 112.395 98.4313 105.285C98.398 105.193 98.3822 105.094 98.386 104.995C98.3898 104.896 98.4131 104.799 98.454 104.709C98.4949 104.619 98.5527 104.538 98.6245 104.471C98.6956 104.404 98.7799 104.352 98.8711 104.318C98.9629 104.283 99.0598 104.267 99.1574 104.272C99.2549 104.276 99.3505 104.299 99.4392 104.34C99.5279 104.382 99.6072 104.44 99.6732 104.513C99.7399 104.586 99.7909 104.671 99.8249 104.764C102.772 110.801 104.937 117.2 106.266 123.801C106.296 123.993 106.399 124.165 106.551 124.282C106.703 124.399 106.895 124.452 107.085 124.429C107.274 124.407 107.448 124.311 107.57 124.162C107.692 124.012 107.753 123.821 107.739 123.627C107.625 120.787 107.431 117.737 107.134 114.549C107.11 114.361 107.158 114.17 107.266 114.015C107.375 113.861 107.538 113.754 107.721 113.715C107.905 113.678 108.096 113.711 108.255 113.81C108.416 113.908 108.533 114.065 108.584 114.248C112.173 126 113.048 138.433 111.143 150.584V150.688C113.608 138.563 114.889 126.222 114.968 113.842C114.94 113.637 114.992 113.43 115.114 113.265C115.236 113.099 115.418 112.99 115.619 112.961C115.82 112.932 116.025 112.985 116.188 113.109C116.351 113.232 116.458 113.417 116.487 113.622C117.924 119.455 118.804 125.415 119.114 131.419C119.114 131.619 119.192 131.81 119.331 131.951C119.471 132.093 119.659 132.172 119.856 132.172C120.053 132.172 120.242 132.093 120.381 131.951C120.52 131.81 120.598 131.619 120.598 131.419C120.701 130.259 120.781 129.099 120.838 127.941C120.839 127.753 120.909 127.571 121.035 127.433C121.161 127.295 121.333 127.209 121.517 127.194C121.702 127.178 121.886 127.233 122.032 127.347C122.18 127.461 122.279 127.627 122.311 127.813C123.972 135.425 124.772 143.205 124.698 151.001C124.699 151.189 124.769 151.37 124.895 151.508C125.021 151.646 125.193 151.732 125.378 151.748C125.562 151.763 125.746 151.709 125.893 151.594C126.04 151.48 126.139 151.314 126.172 151.128C127.382 143.453 128.455 134.897 129.003 126.016C129.007 125.828 129.08 125.65 129.206 125.513C129.332 125.377 129.505 125.294 129.689 125.279C129.872 125.265 130.055 125.32 130.201 125.435C130.347 125.55 130.445 125.715 130.477 125.9C136.427 155.001 126.822 186.084 123.248 196.125C130.271 177.345 135.622 157.963 139.237 138.213C139.265 138.03 139.36 137.865 139.501 137.749C139.643 137.632 139.822 137.573 140.003 137.581C140.185 137.59 140.358 137.666 140.488 137.795C140.618 137.924 140.697 138.098 140.709 138.282C141.539 148.097 141.155 157.979 139.567 167.697C139.549 167.879 139.598 168.064 139.705 168.213C139.811 168.362 139.968 168.467 140.145 168.506C140.322 168.547 140.508 168.52 140.667 168.43C140.825 168.34 140.946 168.195 141.006 168.021C142.148 164.102 143.13 160.068 144.044 155.94C144.076 155.756 144.175 155.59 144.321 155.475C144.466 155.36 144.649 155.305 144.833 155.319C145.016 155.334 145.188 155.418 145.315 155.553C145.442 155.69 145.514 155.869 145.517 156.056C146.465 170.119 144.261 185.204 141.155 198.49C141.102 198.684 141.127 198.891 141.224 199.066C141.322 199.241 141.484 199.37 141.674 199.424C141.865 199.477 142.07 199.452 142.242 199.353C142.414 199.254 142.541 199.09 142.594 198.896C144.402 193.203 145.926 187.423 147.162 181.575C147.193 181.4 147.282 181.243 147.416 181.129C147.549 181.015 147.719 180.953 147.893 180.953C148.067 180.953 148.236 181.015 148.37 181.129C148.503 181.243 148.593 181.4 148.624 181.575C149.803 191.115 149.218 200.796 146.9 210.119C146.844 210.309 146.863 210.514 146.954 210.688C147.045 210.863 147.202 210.995 147.388 211.054C147.574 211.114 147.775 211.096 147.949 211.006C148.123 210.915 148.254 210.759 148.315 210.571C149.983 206.2 151.593 201.609 153.055 196.867C153.107 196.696 153.218 196.551 153.367 196.456C153.516 196.36 153.693 196.322 153.867 196.347C154.042 196.371 154.201 196.459 154.318 196.592C154.435 196.726 154.502 196.897 154.505 197.076C154.985 209.307 152.221 221.284 148.19 231.8C148.121 231.979 148.123 232.178 148.194 232.356C148.265 232.534 148.401 232.678 148.573 232.757C148.745 232.837 148.94 232.847 149.12 232.786C149.299 232.724 149.449 232.596 149.538 232.426C152.8 226.282 155.74 219.965 158.342 213.504C158.409 213.341 158.53 213.207 158.683 213.126C158.838 213.044 159.015 213.019 159.185 213.057C159.355 213.094 159.506 213.19 159.613 213.329C159.72 213.468 159.776 213.641 159.77 213.817C158.628 246.548 130.591 278.883 130.077 279.498L127.793 281.817C127.295 282.34 126.65 282.697 125.946 282.838C125.243 282.98 124.514 282.899 123.856 282.607C123.199 282.316 122.645 281.828 122.269 281.208C121.893 280.587 121.712 279.866 121.752 279.139Z" fill="#E0E0E0"/>
</g>
</g>
<path id="Vector_13" d="M86.6574 225.481C84.948 225.479 83.2556 225.83 81.6834 226.511C80.1112 227.192 78.6912 228.189 77.5096 229.443C76.3281 230.697 75.4089 232.181 74.8081 233.806C74.2079 235.431 73.938 237.162 74.0147 238.895C75.6939 276.391 84.0534 379.589 125.223 379.589C166.394 379.589 174.753 276.402 176.432 238.895C176.508 237.162 176.237 235.431 175.635 233.808C175.034 232.183 174.115 230.7 172.934 229.447C171.752 228.193 170.333 227.196 168.762 226.514C167.19 225.832 165.499 225.481 163.79 225.481H86.6574Z" fill="#EBEBEB"/>
<path id="Vector_14" d="M439.042 251.799H221.862V258.281H439.042V251.799Z" fill="#F5F5F5"/>
<path id="Vector_15" d="M439.042 258.292H484.529V251.811H439.042V258.292Z" fill="#E0E0E0"/>
<path id="Vector_16" d="M461.78 258.281H459.884L437.877 379.589H439.784L461.78 258.281Z" fill="#E0E0E0"/>
<path id="Vector_17" d="M461.78 258.281H463.687L485.694 379.589H483.786L461.78 258.281Z" fill="#E0E0E0"/>
<path id="Vector_18" d="M244.611 258.281H242.704L220.697 379.589H222.604L244.611 258.281Z" fill="#E0E0E0"/>
<path id="Vector_19" d="M244.611 258.281H246.507L268.514 379.589H266.618L244.611 258.281Z" fill="#E0E0E0"/>
<path id="Vector_20" d="M332.97 335.404H310.518V379.589H332.97V335.404Z" fill="#E6E6E6"/>
<path id="Vector_21" d="M263.969 379.589H310.518V335.404H263.969V379.589Z" fill="#F5F5F5"/>
<path id="Vector_22" d="M277.444 354.129H263.969V363.16H277.444V354.129Z" fill="#F0F0F0"/>
<path id="Vector_23" d="M277.444 365.653H263.969V374.685H277.444V365.653Z" fill="#F0F0F0"/>
<path id="Vector_24" d="M333.952 332.031H310.86V335.404H333.952V332.031Z" fill="#E0E0E0"/>
<path id="Vector_25" d="M262.975 335.404H310.86V332.031H262.975V335.404Z" fill="#F0F0F0"/>
<path id="Vector_26" d="M428.056 314.094H394.776V379.589H428.056V314.094Z" fill="#E6E6E6"/>
<path id="Vector_27" d="M325.775 379.578H394.776V314.083H325.775V379.578Z" fill="#F5F5F5"/>
<path id="Vector_28" d="M389.17 321.584H365.324V342.917H389.17V321.584Z" fill="#F0F0F0"/>
<path id="Vector_29" d="M389.17 348.83H365.324V370.163H389.17V348.83Z" fill="#F0F0F0"/>
<path id="Vector_30" d="M429.529 309.098H395.29V314.094H429.529V309.098Z" fill="#E0E0E0"/>
<path id="Vector_31" d="M324.302 314.083H395.279V309.086H324.302V314.083Z" fill="#F0F0F0"/>
<path id="Vector_32" d="M285.508 431.948C407.799 431.948 506.936 426.072 506.936 418.824C506.936 411.575 407.799 405.699 285.508 405.699C163.216 405.699 64.0792 411.575 64.0792 418.824C64.0792 426.072 163.216 431.948 285.508 431.948Z" fill="#F5F5F5"/>
<path id="Vector_33" d="M492.275 129.049L491.909 137.423L493.096 137.476L493.461 129.102L492.275 129.049Z" fill="#1877F2"/>
<path id="Vector_34" d="M493.547 100.094L492.57 122.437L493.757 122.491L494.733 100.148L493.547 100.094Z" fill="#1877F2"/>
<path id="Vector_35" d="M474.799 234.71H246.61C245.334 234.718 244.069 234.461 242.895 233.955C241.72 233.45 240.659 232.705 239.778 231.768C238.897 230.831 238.214 229.721 237.77 228.507C237.327 227.292 237.132 225.998 237.2 224.704L244.897 50.2022C245.044 47.5233 246.187 45.0007 248.095 43.1437C250.002 41.2867 252.533 40.2335 255.175 40.1965H483.387C484.663 40.1867 485.929 40.4424 487.104 40.9476C488.28 41.4529 489.34 42.1971 490.222 43.1344C491.104 44.0717 491.787 45.1824 492.23 46.3979C492.673 47.6134 492.865 48.9081 492.797 50.2022L485.1 224.704C484.95 227.386 483.803 229.91 481.891 231.768C479.979 233.625 477.444 234.676 474.799 234.71Z" fill="#1877F2"/>
<path id="Vector_36" opacity="0.5" d="M473.12 234.71H246.61C245.334 234.718 244.069 234.461 242.895 233.955C241.72 233.45 240.659 232.705 239.778 231.768C238.897 230.831 238.214 229.721 237.77 228.507C237.327 227.292 237.132 225.998 237.2 224.704L244.897 50.2022C245.044 47.5233 246.187 45.0008 248.095 43.1437C250.002 41.2867 252.533 40.2335 255.175 40.1965H481.708C482.985 40.1885 484.249 40.4452 485.425 40.951C486.6 41.4567 487.661 42.2007 488.543 43.1375C489.425 44.0743 490.11 45.1841 490.555 46.3989C490.999 47.6137 491.195 48.9079 491.13 50.2022L483.421 224.704C483.271 227.386 482.124 229.91 480.212 231.768C478.301 233.625 475.766 234.676 473.12 234.71Z" fill="white"/>
<path id="Vector_37" opacity="0.4" d="M406.608 188.195L365.769 187.824L370.874 129.656H410.057L406.608 188.195Z" fill="#1877F2"/>
<path id="Vector_38" opacity="0.4" d="M307.949 122.653L267.098 122.468L271.94 64.3007L312.79 64.4862L307.949 122.653Z" fill="#1877F2"/>
<path id="Vector_39" opacity="0.4" d="M413.632 119.616L372.541 121.378L375.065 63.4191L414.511 61.7266L413.632 119.616Z" fill="#1877F2"/>
<path id="Vector_40" opacity="0.4" d="M458.959 167.58L418.817 164.38L424.39 106.271L463.71 110.445L458.959 167.58Z" fill="#1877F2"/>
<path id="Vector_41" opacity="0.4" d="M358.141 106.642L326.712 105.784L329.875 61.0659L360.938 61.5412L358.141 106.642Z" fill="#1877F2"/>
<path id="Vector_42" opacity="0.4" d="M303.334 226.084L272.465 225.423L275.617 180.693L305.265 180.125L303.334 226.084Z" fill="#1877F2"/>
<path id="Vector_43" opacity="0.4" d="M470.767 99.3493L439.304 99.4304L442.879 54.6659L473.737 54.5847L470.767 99.3493Z" fill="#1877F2"/>
<path id="Vector_44" opacity="0.4" d="M316.514 169.876L347.634 173.516L353.196 127.952L323.503 125.425L316.514 169.876Z" fill="#1877F2"/>
<path id="Vector_45" d="M405.01 186.49L364.17 186.119L369.275 127.952L410.114 128.334L405.01 186.49Z" fill="white"/>
<path id="Vector_46" d="M307.628 121.344L266.79 120.973L271.895 62.8049L312.733 63.1877L307.628 121.344Z" fill="white"/>
<path id="Vector_47" d="M412.033 117.911L370.943 119.674L373.455 61.7267L414.557 59.9644L412.033 117.911Z" fill="white"/>
<path id="Vector_48" d="M457.703 166.989L417.218 162.688L422.791 104.567L463.275 108.868L457.703 166.989Z" fill="white"/>
<path id="Vector_49" d="M357.535 104.95L326.106 104.091L329.258 59.3615L360.687 60.2194L357.535 104.95Z" fill="white"/>
<path id="Vector_50" d="M302.295 224.576L270.867 223.719L274.019 179.001L305.447 179.859L302.295 224.576Z" fill="white"/>
<path id="Vector_51" d="M469.705 98.723L438.242 98.8047L441.817 54.0283L473.28 53.9471L469.705 98.723Z" fill="white"/>
<path id="Vector_52" d="M314.914 168.172L346.035 171.812L353.012 127.361L321.904 123.72L314.914 168.172Z" fill="white"/>
<path id="Vector_53" opacity="0.4" d="M331.371 189.47C331.371 189.47 331.189 201.609 329.475 205.214C335.06 206.838 345.829 206.815 345.829 206.815C345.829 206.815 348.182 195.139 347.794 190.583C344.584 189.806 331.371 189.47 331.371 189.47Z" fill="#1877F2"/>
<path id="Vector_54" d="M331.371 189.47C331.371 189.47 330.047 201.586 328.345 205.214C333.362 206.429 338.457 207.285 343.591 207.777C343.591 207.777 348.342 195.174 347.794 190.548C344.584 189.806 331.371 189.47 331.371 189.47Z" fill="white"/>
<path id="Vector_55" opacity="0.4" d="M415.459 191.453C415.459 191.453 421.934 208.078 421.569 213.945C430.34 212.948 445.608 207.835 445.608 207.835C445.608 207.835 442.343 189.528 439.202 183.487C434.291 184.345 415.459 191.453 415.459 191.453Z" fill="#1877F2"/>
<path id="Vector_56" d="M413.346 190.201C413.346 190.201 418.782 211.557 418.417 217.423C427.188 216.414 444.112 209.528 444.112 209.528C444.112 209.528 441.829 187.707 438.402 181.702C433.537 182.595 413.346 190.201 413.346 190.201Z" fill="white"/>
<path id="Vector_57" opacity="0.4" d="M434.737 186.803C434.71 187.315 434.492 187.797 434.127 188.151C433.762 188.504 433.277 188.702 432.772 188.705C432.529 188.709 432.288 188.661 432.063 188.566C431.838 188.47 431.636 188.329 431.468 188.151C431.299 187.972 431.169 187.76 431.085 187.529C431.001 187.297 430.965 187.05 430.979 186.803C431.005 186.291 431.223 185.807 431.588 185.452C431.953 185.096 432.438 184.895 432.944 184.89C433.187 184.888 433.429 184.937 433.653 185.034C433.878 185.131 434.081 185.273 434.249 185.452C434.417 185.632 434.547 185.844 434.63 186.076C434.715 186.309 434.751 186.556 434.737 186.803Z" fill="#1877F2"/>
<path id="Vector_58" d="M309.193 63.211C309.136 64.0787 308.761 64.8931 308.142 65.4942C307.522 66.0954 306.703 66.4387 305.847 66.4569C305.432 66.4626 305.02 66.3815 304.637 66.218C304.254 66.0551 303.909 65.8137 303.621 65.5093C303.334 65.205 303.112 64.8434 302.968 64.4485C302.825 64.053 302.763 63.6317 302.786 63.211C302.843 62.3429 303.219 61.5281 303.838 60.9272C304.457 60.3263 305.276 59.9828 306.132 59.9644C306.547 59.9607 306.958 60.0432 307.34 60.2068C307.722 60.3704 308.067 60.6117 308.354 60.9158C308.641 61.2199 308.863 61.5805 309.007 61.9752C309.152 62.3699 309.215 62.7904 309.193 63.211Z" fill="#1877F2"/>
<path id="Vector_59" d="M330.424 124.764C330.394 125.385 330.132 125.972 329.69 126.402C329.248 126.834 328.661 127.077 328.048 127.082C327.752 127.086 327.459 127.028 327.187 126.911C326.914 126.794 326.668 126.622 326.464 126.404C326.261 126.186 326.103 125.928 326.003 125.646C325.901 125.364 325.859 125.063 325.878 124.764C325.908 124.142 326.17 123.556 326.612 123.124C327.053 122.693 327.641 122.45 328.254 122.445C328.549 122.441 328.843 122.499 329.116 122.616C329.388 122.733 329.634 122.905 329.837 123.123C330.041 123.341 330.198 123.599 330.299 123.881C330.4 124.163 330.442 124.464 330.424 124.764Z" fill="#1877F2"/>
<path id="Vector_60" d="M427.119 78.6774C427.084 79.2968 426.821 79.8804 426.38 80.3105C425.939 80.7406 425.355 80.9852 424.744 80.9959C424.448 80.9978 424.155 80.9387 423.883 80.8217C423.61 80.7041 423.364 80.5318 423.16 80.3149C422.956 80.0973 422.797 79.8401 422.695 79.5584C422.592 79.2773 422.547 78.9774 422.562 78.6774C422.594 78.0568 422.857 77.472 423.299 77.0413C423.74 76.6105 424.326 76.3665 424.938 76.3584C425.233 76.3565 425.527 76.4156 425.799 76.5332C426.071 76.6501 426.317 76.8224 426.521 77.04C426.726 77.2569 426.884 77.5141 426.987 77.7958C427.089 78.0776 427.135 78.3775 427.119 78.6774Z" fill="#1877F2"/>
<g id="women-head">
<path id="Vector_61" d="M168.267 92.3115C163.093 91.7783 147.71 113.842 177.494 123.685C172.652 119.129 170.242 114.711 171.51 109.494C172.267 105.453 172.475 101.326 172.126 97.2277C172.126 97.2277 173.897 92.8913 168.267 92.3115Z" fill="#263238"/>
<path id="Vector_62" d="M203.533 84.4972C203.338 85.3436 203.613 86.1321 204.161 86.2598C204.709 86.3874 205.303 85.819 205.508 84.9726C205.714 84.1262 205.428 83.3383 204.88 83.2106C204.332 83.083 203.738 83.6508 203.533 84.4972Z" fill="#263238"/>
<path id="Vector_63" d="M204.629 83.1993L206.765 83.0949C206.765 83.0949 205.371 84.428 204.629 83.1993Z" fill="#263238"/>
<path id="Vector_64" d="M205.976 79.7439C206.074 79.749 206.17 79.7244 206.254 79.6748C206.338 79.6244 206.406 79.5509 206.45 79.4628C206.494 79.3742 206.511 79.2748 206.5 79.1767C206.489 79.078 206.45 78.9856 206.388 78.9095C205.888 78.2781 205.247 77.7782 204.517 77.4519C203.788 77.1249 202.992 76.9803 202.196 77.0312C202.13 77.0381 202.066 77.0589 202.008 77.0909C201.949 77.1236 201.898 77.1676 201.857 77.2205C201.815 77.2733 201.784 77.3343 201.766 77.399C201.749 77.4638 201.743 77.5317 201.751 77.599C201.768 77.7336 201.836 77.8556 201.94 77.9405C202.045 78.0247 202.178 78.0643 202.31 78.0511C202.942 78.0178 203.572 78.1385 204.148 78.4026C204.724 78.6668 205.23 79.0673 205.622 79.5697C205.714 79.6722 205.841 79.7345 205.976 79.7439Z" fill="#263238"/>
<path id="Vector_65" d="M202.493 87.0829C202.776 89.1932 203.345 91.2532 204.183 93.2045C203.687 93.4069 203.153 93.4975 202.619 93.4692C202.084 93.4415 201.562 93.2956 201.089 93.0422L202.493 87.0829Z" fill="#A02724"/>
<g id="Group 1">
<path id="Vector_66" d="M176.615 90.132C177.849 96.5209 179.07 108.219 174.673 112.485C178.243 118.342 183.554 122.893 189.839 125.482C198.256 120.138 194.225 112.485 194.225 112.485C187.213 110.781 187.373 105.529 188.618 100.532L176.615 90.132Z" fill="#B55B52"/>
<path id="Vector_67" d="M176.295 74.2021C174.468 84.7292 173.474 89.1354 177.368 95.7204C183.227 105.622 196.349 105.599 201.248 95.8481C205.645 87.0716 207.907 71.3385 198.885 64.7761C196.903 63.3179 194.588 62.3982 192.158 62.1041C189.728 61.8101 187.265 62.1515 185.001 63.0959C182.738 64.0404 180.75 65.5565 179.226 67.5002C177.703 69.4439 176.693 71.751 176.295 74.2021Z" fill="#B55B52"/>
<path id="Vector_68" d="M194.716 82.5497C197.857 81.2512 205.326 78.3756 207.153 73.8424C208.98 69.3093 201.443 57.2051 195.002 59.5935C178.225 55.9645 166.531 64.1152 166.599 76.9847C166.668 90.4339 171.933 98.086 180.566 100.08C189.2 102.074 196.703 92.8913 194.716 82.5497Z" fill="#263238"/>
</g>
<path id="Vector_69" d="M170.608 86.2484C167.182 85.7731 165.354 89.2976 166.599 92.2191C167.844 95.1406 172.001 99.7668 173.6 99.7668C175.199 99.7668 178.362 98.6073 179.162 96.7869C179.961 94.967 172.915 86.5842 170.608 86.2484Z" fill="#1877F2"/>
</g>
<path id="Vector_70" d="M200.758 157.876L212.075 156.068L206.502 165.436C206.502 165.436 199.65 165.146 197.777 161.123L200.758 157.876Z" fill="#B55B52"/>
<path id="Vector_71" d="M241.528 188.89H206.125C205.89 188.919 205.652 188.885 205.435 188.792C205.218 188.698 205.028 188.548 204.886 188.356C204.744 188.165 204.654 187.939 204.624 187.701C204.595 187.463 204.628 187.221 204.72 187.001L221.063 138.665C221.28 138.122 221.648 137.655 222.123 137.322C222.598 136.988 223.158 136.802 223.735 136.787H259.138C259.372 136.755 259.61 136.787 259.828 136.879C260.046 136.971 260.236 137.12 260.378 137.311C260.521 137.502 260.612 137.727 260.64 137.965C260.669 138.204 260.635 138.444 260.543 138.665L244.2 187.001C243.981 187.543 243.612 188.01 243.138 188.345C242.664 188.68 242.105 188.87 241.528 188.89Z" fill="#1877F2"/>
<path id="Vector_72" d="M240.9 187.36H206.707C206.576 187.378 206.443 187.36 206.321 187.308C206.198 187.256 206.093 187.172 206.014 187.064C205.934 186.957 205.885 186.83 205.87 186.696C205.856 186.562 205.876 186.427 205.93 186.305L222.079 138.503C222.203 138.2 222.41 137.94 222.675 137.753C222.94 137.566 223.253 137.46 223.575 137.448H257.836C257.967 137.431 258.1 137.45 258.222 137.502C258.343 137.554 258.45 137.638 258.53 137.744C258.609 137.851 258.66 137.978 258.676 138.11C258.693 138.244 258.675 138.379 258.624 138.503L242.464 186.305C242.335 186.618 242.118 186.886 241.84 187.074C241.561 187.261 241.234 187.361 240.9 187.36Z" fill="white"/>
<path id="Vector_73" opacity="0.2" d="M204.983 125.482L212.646 138.154C212.246 142.665 211.664 148.068 210.83 154.526L204.549 150.757C201.979 131.581 204.983 125.482 204.983 125.482Z" fill="black"/>
<g id="women-head_2">
<g id="Group 2">
<path id="Vector_74" d="M214.108 125.691C215.699 130.77 217.222 135.871 218.676 140.995L220.868 148.682L222.982 156.392L224.02 160.253L224.534 162.189C224.653 162.684 224.797 163.171 224.968 163.65C225.184 164.284 225.472 164.891 225.825 165.459C225.905 165.575 225.893 165.598 225.825 165.633C225.756 165.667 225.745 165.737 225.882 165.76C226.556 165.765 227.217 165.575 227.79 165.215C228.733 164.697 229.627 164.091 230.462 163.407C231.375 162.665 232.277 161.853 233.168 160.995C234.059 160.137 234.939 159.175 235.738 158.317L240.306 161.238C239.681 162.551 238.98 163.825 238.204 165.053C237.444 166.313 236.593 167.514 235.658 168.647C234.66 169.883 233.535 171.007 232.301 171.998C230.751 173.27 228.914 174.131 226.955 174.502C225.672 174.721 224.358 174.646 223.107 174.282C221.872 173.911 220.726 173.287 219.738 172.45C218.232 171.128 217.014 169.501 216.164 167.673C215.797 166.924 215.484 166.149 215.227 165.354L214.588 163.441L213.309 159.627L210.807 151.975L208.397 144.288C206.765 139.164 205.223 134.016 203.738 128.856L214.108 125.691Z" fill="#B55B52"/>
<path id="Vector_75" d="M234.333 160.358L238.399 150.294L243.378 159.998C243.378 159.998 239.609 165.795 235.224 165.331L234.333 160.358Z" fill="#B55B52"/>
<path id="Vector_76" d="M247.272 148.334L249.888 154.178L243.378 159.998L238.399 150.294L247.272 148.334Z" fill="#B55B52"/>
</g>
<path id="Vector_77" d="M245.902 152.323C245.801 152.326 245.701 152.302 245.611 152.256C245.522 152.209 245.445 152.141 245.388 152.056L233.522 135.569C233.424 135.427 233.383 135.252 233.412 135.08C233.439 134.909 233.532 134.756 233.671 134.653C233.809 134.554 233.98 134.514 234.147 134.542C234.314 134.57 234.463 134.665 234.562 134.804L246.415 151.291C246.49 151.386 246.536 151.501 246.548 151.622C246.559 151.743 246.537 151.865 246.483 151.973C246.429 152.082 246.346 152.172 246.242 152.234C246.14 152.296 246.022 152.327 245.902 152.323Z" fill="#263238"/>
</g>
<path id="Vector_78" d="M202.414 122.897C204.229 118.491 209.917 115.651 209.917 115.651C216.038 119.697 218.105 121.61 222.171 142.19C216.243 147.453 206.422 147.453 206.422 147.453L201.123 133.54C201.123 133.54 200.598 127.337 202.414 122.897Z" fill="#263238"/>
<path id="Vector_79" opacity="0.2" d="M164.178 284.495L183.673 286.674C184.461 281.944 185.271 276.484 186.06 270.594L164.578 268.356C164.452 274.095 164.361 279.556 164.178 284.495Z" fill="black"/>
<path id="Vector_80" opacity="0.2" d="M218.973 274.026L194.716 271.498C196.315 277.538 197.914 283.254 199.455 288.425L220.971 290.814C220.412 285.909 219.726 280.205 218.973 274.026Z" fill="black"/>
<g id="Group 12">
<path id="Vector_81" d="M167.799 123.222C167.799 123.651 167.799 124.381 167.799 124.949V126.828C167.799 128.087 167.856 129.351 167.97 130.619C168.144 133.121 168.464 135.61 168.929 138.073C169.772 142.786 171.518 147.285 174.068 151.314C175.005 152.543 174.639 152.346 175.439 152.902C176.291 153.442 177.203 153.878 178.157 154.201C180.506 155.009 182.911 155.641 185.352 156.091C190.433 157.064 195.813 157.737 201.089 158.282L201.237 163.743C195.642 164.486 189.992 164.707 184.358 164.404C181.387 164.264 178.436 163.846 175.541 163.151C173.87 162.744 172.249 162.145 170.711 161.366C169.749 160.856 168.855 160.225 168.05 159.488C167.821 159.279 167.593 159.036 167.364 158.792L166.942 158.294L166.165 157.354C164.201 154.852 162.565 152.1 161.3 149.169C160.068 146.345 159.111 143.406 158.445 140.392C157.766 137.452 157.304 134.464 157.063 131.453C156.961 129.958 156.892 128.462 156.869 126.955C156.869 126.201 156.869 125.448 156.869 124.694C156.869 123.941 156.926 123.233 157.006 122.271L167.799 123.222Z" fill="#B55B52"/>
<g id="Group 11">
<path id="Vector_82" d="M217.671 159.221L217.705 166.189L206.502 165.435L212.075 156.068L217.671 159.221Z" fill="#B55B52"/>
<g id="Group 10">
<path id="Vector_83" d="M171.419 119.152C170.357 117.922 169.522 116.508 168.952 114.978C168.599 113.961 168.509 112.869 168.693 111.806C168.876 110.744 169.325 109.747 169.997 108.912C170.669 108.077 171.542 107.432 172.531 107.039C173.52 106.645 174.592 106.517 175.644 106.665C178.852 107.113 182.103 107.136 185.317 106.735C192.603 105.819 196.418 109.541 200.357 117.517C200.357 117.517 198.519 120.996 193.003 122.352C187.487 123.709 171.419 119.152 171.419 119.152Z" fill="#1877F2"/>
<g id="Group 9">
<path id="Vector_84" d="M157.223 114.781L168.643 119.477L174.73 126.329L175.519 135.778C175.519 135.778 162.214 146.027 155.145 145.053C152.701 127.685 154.231 118.132 157.223 114.781Z" fill="#263238"/>
<g id="Group 8">
<path id="Vector_85" d="M172.972 406.464H164.612C164.404 406.459 164.202 406.533 164.044 406.669C163.887 406.806 163.784 406.997 163.756 407.206L162.523 416.91C162.5 417.157 162.529 417.405 162.606 417.639C162.684 417.874 162.809 418.089 162.974 418.271C163.138 418.453 163.339 418.599 163.562 418.698C163.785 418.797 164.026 418.848 164.27 418.847C168.472 418.777 166.794 418.522 172.104 418.522C175.37 418.522 180.098 418.87 184.666 418.87C189.234 418.87 189.36 414.336 187.476 413.931C179.024 412.087 177.665 409.548 174.788 407.136C174.279 406.703 173.636 406.464 172.972 406.464Z" fill="#263238"/>
<g id="Group 7">
<path id="Vector_86" d="M212.891 122.269C213.063 130.072 211.978 146.315 206.576 180.043H163.51C164.229 162.246 165.086 151.057 156.658 114.582C162.448 113.374 168.319 112.606 174.222 112.287C180.731 111.811 187.265 111.811 193.774 112.287C197.988 112.681 202.487 113.365 205.914 113.968C207.846 114.313 209.599 115.33 210.872 116.845C212.146 118.36 212.86 120.278 212.891 122.269Z" fill="#263238"/>
<g id="Group 6">
<path id="Vector_87" d="M195.835 180.218C195.835 180.218 188.846 258.501 182.965 290.791C176.787 324.703 172.172 405.513 172.104 407.983H164.76C164.76 407.983 154.711 317.144 164.087 286.744C165.64 249.643 164.019 180.218 164.019 180.218H195.835Z" fill="#B55B52"/>
<g id="Group 5">
<g id="Group 4">
<path id="Vector_88" d="M207.084 180.218C207.084 180.218 217.842 262.872 221.52 295.497C226.944 343.683 239.061 407.96 239.061 407.96L231.832 409.27C231.832 409.27 206.57 346.372 202.756 298.744C190.776 263.66 173.589 180.218 173.589 180.218H207.084Z" fill="#B55B52"/>
<g id="Group 3">
<path id="Vector_89" d="M238.479 400.064L229.125 404.702C228.937 404.788 228.786 404.943 228.701 405.136C228.617 405.328 228.606 405.545 228.669 405.746L231.683 414.812C231.776 415.041 231.915 415.247 232.091 415.418C232.267 415.589 232.476 415.721 232.705 415.805C232.934 415.889 233.178 415.924 233.421 415.906C233.664 415.889 233.9 415.821 234.116 415.705C237.953 413.722 237.965 413.456 242.841 411.067C245.845 409.571 250.721 407.311 254.867 405.27C259.012 403.23 257.231 399.16 255.324 399.659C246.781 401.908 244.098 400.69 240.477 399.879C239.81 399.705 239.104 399.77 238.479 400.064Z" fill="#263238"/>
</g>
</g>
<path id="Vector_90" d="M207.084 180.218L222.616 288.205L162.226 280.437C168.118 234.211 150.223 197.145 164.019 180.218H207.084Z" fill="#1877F2"/>
</g>
</g>
</g>
</g>
</g>
</g>
</g>
</g>
<path id="Vector_91" opacity="0.2" d="M169.683 202.374C176.285 208.199 183.942 212.661 192.226 215.51C178.659 215.359 172.367 210.467 169.683 202.374Z" fill="black"/>
</g>
<defs>
<clipPath id="clip0">
<rect width="531" height="432" fill="white"/>
</clipPath>
</defs>
</svg>
