<svg width="844" height="687" viewBox="0 0 844 687" fill="none" xmlns="http://www.w3.org/2000/svg">
<g id="Annoucement 1" clip-path="url(#clip0)">
<path id="Vector" d="M907.602 603.652H0V604.113H907.602V603.652Z" fill="#EBEBEB"/>
<path id="Vector_2" d="M816.66 633.319H780.229V633.78H816.66V633.319Z" fill="#EBEBEB"/>
<path id="Vector_3" d="M707.022 626.865H648.899V627.326H707.022V626.865Z" fill="#EBEBEB"/>
<path id="Vector_4" d="M564.837 616.208H497.711V616.669H564.837V616.208Z" fill="#EBEBEB"/>
<path id="Vector_5" d="M215.374 629.779H136.975V630.24H215.374V629.779Z" fill="#EBEBEB"/>
<path id="Vector_6" d="M120.802 629.779H109.312V630.24H120.802V629.779Z" fill="#EBEBEB"/>
<path id="Vector_7" d="M307.187 615.969H239.153V616.43H307.187V615.969Z" fill="#EBEBEB"/>
<path id="Vector_8" d="M430.203 521.42H79.7056C76.9598 521.415 74.3281 520.304 72.3883 518.33C70.4484 516.356 69.3589 513.681 69.3589 510.892V10.4358C69.3828 7.66278 70.4829 5.01134 72.4202 3.05738C74.3574 1.10342 76.9755 0.00475028 79.7056 0H430.203C432.952 0 435.589 1.10919 437.532 3.08357C439.476 5.05794 440.568 7.73577 440.568 10.528V510.892C440.568 513.684 439.476 516.362 437.532 518.336C435.589 520.311 432.952 521.42 430.203 521.42ZM79.7056 0.368757C77.0802 0.373641 74.5639 1.43642 72.7092 3.32382C70.8544 5.21123 69.8127 7.76902 69.8127 10.4358V510.892C69.8127 513.559 70.8544 516.116 72.7092 518.004C74.5639 519.891 77.0802 520.954 79.7056 520.959H430.203C432.83 520.954 435.348 519.892 437.206 518.005C439.064 516.118 440.11 513.56 440.114 510.892V10.4358C440.11 7.76733 439.064 5.20957 437.206 3.3227C435.348 1.43582 432.83 0.37363 430.203 0.368757H79.7056Z" fill="#EBEBEB"/>
<path id="Vector_9" d="M822.85 521.42H472.334C469.587 521.415 466.953 520.304 465.01 518.331C463.068 516.358 461.974 513.683 461.969 510.892V10.4358C461.998 7.6611 463.102 5.00968 465.042 3.05623C466.982 1.10278 469.602 0.00469848 472.334 0H822.85C825.577 0.00959592 828.19 1.11041 830.123 3.06385C832.057 5.0173 833.154 7.66596 833.178 10.4358V510.892C833.178 513.678 832.091 516.35 830.155 518.323C828.219 520.297 825.592 521.41 822.85 521.42ZM472.334 0.368757C469.707 0.37363 467.189 1.43582 465.331 3.3227C463.474 5.20957 462.428 7.76733 462.423 10.4358V510.892C462.428 513.56 463.474 516.118 465.331 518.005C467.189 519.892 469.707 520.954 472.334 520.959H822.85C825.477 520.954 827.995 519.892 829.853 518.005C831.71 516.118 832.756 513.56 832.761 510.892V10.4358C832.756 7.76733 831.71 5.20957 829.853 3.3227C827.995 1.43582 825.477 0.37363 822.85 0.368757H472.334Z" fill="#EBEBEB"/>
<path id="Vector_10" d="M260.209 393.314C256.924 343.256 254.237 203.203 314.956 96.7061C315.163 96.398 315.241 96.019 315.173 95.6525C315.105 95.286 314.896 94.9619 314.593 94.7517C314.29 94.5414 313.917 94.4621 313.556 94.5313C313.195 94.6004 312.876 94.8123 312.669 95.1204C309.104 99.7187 305.865 104.568 302.976 109.631C302.809 109.902 302.557 110.109 302.261 110.217C301.964 110.324 301.64 110.327 301.342 110.225C301.044 110.122 300.788 109.921 300.617 109.652C300.445 109.384 300.368 109.064 300.398 108.746C302.117 95.1051 304.761 81.6011 308.312 68.3303C308.385 67.9987 308.339 67.6514 308.181 67.3517C308.023 67.0519 307.765 66.8195 307.453 66.6968C307.141 66.574 306.796 66.569 306.481 66.6827C306.165 66.7964 305.901 67.0212 305.735 67.3163C300.06 78.54 295.844 90.4643 293.192 102.791C293.146 103.16 292.958 103.495 292.668 103.724C292.379 103.952 292.012 104.054 291.649 104.007C291.285 103.961 290.955 103.77 290.73 103.476C290.506 103.182 290.405 102.809 290.451 102.44C290.723 97.1117 291.159 91.3775 291.812 85.459C291.863 85.1042 291.779 84.7431 291.578 84.4483C291.377 84.1534 291.074 83.9468 290.729 83.8697C290.384 83.7927 290.024 83.851 289.719 84.0329C289.415 84.2149 289.19 84.507 289.089 84.8506C282.064 106.769 280.114 130.039 283.39 152.849C283.382 152.91 283.382 152.972 283.39 153.033C279.071 130.258 276.985 107.104 277.163 83.9103C277.158 83.57 277.032 83.2431 276.81 82.989C276.587 82.7349 276.282 82.5705 275.949 82.5259C275.617 82.4812 275.28 82.5592 275 82.7456C274.72 82.932 274.515 83.2144 274.422 83.5415C271.575 94.4036 269.751 105.516 268.977 116.729C268.938 117.076 268.775 117.395 268.519 117.627C268.263 117.859 267.931 117.988 267.588 117.988C267.245 117.988 266.914 117.859 266.658 117.627C266.402 117.395 266.239 117.076 266.2 116.729C266.054 114.554 265.927 112.341 265.837 110.11C265.809 109.778 265.668 109.466 265.437 109.228C265.206 108.991 264.9 108.845 264.573 108.814C264.246 108.783 263.918 108.87 263.648 109.06C263.378 109.25 263.182 109.53 263.096 109.852C259.794 124.046 258.101 138.578 258.049 153.162C258.039 153.516 257.9 153.853 257.659 154.107C257.417 154.362 257.091 154.516 256.743 154.539C256.396 154.562 256.053 154.453 255.781 154.232C255.508 154.012 255.327 153.696 255.272 153.347C253.203 138.947 251.478 122.98 250.607 106.257C250.58 105.924 250.438 105.612 250.207 105.375C249.976 105.138 249.67 104.991 249.343 104.96C249.016 104.929 248.689 105.017 248.419 105.207C248.148 105.396 247.953 105.677 247.866 105.999C235.976 160.409 253.166 218.856 259.574 237.847C246.878 202.525 237.322 166.118 231.021 129.064C230.968 128.732 230.8 128.429 230.547 128.211C230.294 127.993 229.973 127.873 229.641 127.873C229.31 127.873 228.989 127.993 228.736 128.211C228.483 128.429 228.315 128.732 228.262 129.064C226.456 147.427 226.92 165.947 229.641 184.193C229.716 184.558 229.645 184.937 229.444 185.248C229.243 185.559 228.929 185.777 228.57 185.853C228.212 185.928 227.838 185.856 227.532 185.652C227.225 185.448 227.011 185.129 226.937 184.765C224.994 177.39 223.179 169.793 221.491 162.049C221.42 161.717 221.234 161.421 220.966 161.216C220.699 161.011 220.368 160.911 220.033 160.933C219.699 160.956 219.384 161.099 219.145 161.338C218.906 161.577 218.759 161.895 218.732 162.234C216.59 188.545 220.329 216.846 225.793 241.811C225.843 242.157 225.766 242.509 225.577 242.801C225.388 243.092 225.099 243.303 224.767 243.392C224.434 243.481 224.081 243.442 223.775 243.283C223.468 243.124 223.231 242.856 223.107 242.53C219.893 231.821 217.215 220.953 215.083 209.969C215.02 209.647 214.849 209.358 214.599 209.15C214.349 208.942 214.036 208.828 213.713 208.828C213.39 208.828 213.077 208.942 212.827 209.15C212.577 209.358 212.406 209.647 212.343 209.969C209.898 227.796 210.748 245.929 214.847 263.439C214.919 263.787 214.859 264.15 214.68 264.455C214.501 264.761 214.216 264.987 213.88 265.089C213.545 265.191 213.184 265.161 212.869 265.006C212.554 264.851 212.308 264.581 212.179 264.25C209.166 256.008 206.28 247.379 203.666 238.437C203.566 238.125 203.362 237.857 203.089 237.68C202.816 237.503 202.492 237.428 202.17 237.467C201.849 237.506 201.551 237.657 201.327 237.895C201.103 238.132 200.967 238.441 200.943 238.769C199.727 261.687 204.7 284.181 211.834 303.983C211.939 304.317 211.919 304.678 211.778 304.998C211.637 305.317 211.384 305.572 211.069 305.714C210.754 305.856 210.398 305.874 210.07 305.766C209.742 305.657 209.466 305.43 209.293 305.126C203.345 293.53 198.007 281.621 193.301 269.449C193.176 269.147 192.952 268.898 192.666 268.744C192.38 268.59 192.051 268.542 191.735 268.607C191.418 268.673 191.133 268.847 190.929 269.102C190.725 269.356 190.614 269.674 190.615 270.003C191.94 331.327 243.564 392.632 244.544 393.794L248.755 398.256C249.67 399.296 250.882 400.019 252.222 400.323C253.562 400.628 254.962 400.498 256.225 399.953C257.489 399.408 258.553 398.474 259.267 397.284C259.982 396.093 260.311 394.705 260.209 393.314Z" fill="#E6E6E6"/>
<g id="tree">
<path id="Vector_11" d="M232.346 427.867C214.539 369.456 172.444 204.143 214.884 60.4758C215.045 60.0504 215.033 59.5773 214.851 59.1607C214.669 58.744 214.332 58.4179 213.913 58.2541C213.494 58.0903 213.028 58.1022 212.618 58.2872C212.208 58.4721 211.887 58.8151 211.725 59.2405C208.758 65.7346 206.24 72.4316 204.192 79.2823C204.076 79.6559 203.837 79.9776 203.515 80.1941C203.194 80.4105 202.809 80.5086 202.425 80.4719C202.041 80.4353 201.681 80.2662 201.405 79.9927C201.128 79.7192 200.953 79.3579 200.907 78.9689C199.159 62.3026 198.552 45.533 199.092 28.7813C199.098 28.3572 198.951 27.9453 198.679 27.6237C198.407 27.3022 198.028 27.0932 197.614 27.0364C197.2 26.9796 196.78 27.0789 196.434 27.3155C196.087 27.5522 195.838 27.9097 195.733 28.3204C192.126 43.2597 190.442 58.6112 190.723 73.9907C190.761 74.4388 190.624 74.884 190.342 75.2304C190.059 75.5768 189.654 75.7967 189.214 75.8426C188.773 75.8886 188.333 75.7569 187.987 75.476C187.641 75.1952 187.418 74.7876 187.365 74.341C186.204 67.9431 185.151 61.0843 184.261 53.8198C184.202 53.4083 183.998 53.0322 183.688 52.7603C183.379 52.4884 182.983 52.3388 182.573 52.3388C182.164 52.3388 181.768 52.4884 181.458 52.7603C181.148 53.0322 180.945 53.4083 180.885 53.8198C178.636 81.8178 182.779 109.965 192.992 136.071C192.992 136.071 192.992 136.237 192.992 136.329C181.535 110.557 172.616 83.6979 166.363 56.143C166.277 55.7284 166.043 55.3608 165.706 55.1112C165.369 54.8615 164.953 54.7475 164.538 54.791C164.123 54.8345 163.739 55.0325 163.459 55.3469C163.179 55.6612 163.024 56.0696 163.023 56.4933C162.68 70.2107 163.634 83.9299 165.873 97.462C165.952 97.896 165.863 98.3441 165.625 98.7133C165.387 99.0824 165.018 99.3441 164.595 99.4438C164.172 99.5436 163.727 99.4738 163.353 99.2489C162.979 99.024 162.705 98.6613 162.588 98.2364C161.807 95.692 161.045 93.1291 160.319 90.4925C160.201 90.096 159.948 89.7553 159.604 89.5322C159.261 89.3091 158.85 89.2183 158.446 89.2762C158.043 89.3342 157.673 89.537 157.403 89.8481C157.134 90.1591 156.984 90.5578 156.979 90.9719C157.012 108.762 159.04 126.491 163.023 143.815C163.128 144.238 163.069 144.686 162.859 145.067C162.649 145.448 162.305 145.733 161.895 145.865C161.485 145.997 161.041 145.965 160.654 145.776C160.267 145.586 159.965 145.254 159.811 144.847C153.348 128.308 146.85 109.889 141.187 90.345C141.068 89.947 140.813 89.6054 140.468 89.3825C140.123 89.1595 139.71 89.0701 139.305 89.1304C138.9 89.1908 138.53 89.3969 138.262 89.7112C137.995 90.0256 137.847 90.4272 137.847 90.8428C138.863 158.565 175.476 223.097 188.327 243.581C163.449 205.302 141.998 164.835 124.233 122.666C124.064 122.295 123.772 121.995 123.407 121.821C123.043 121.648 122.629 121.61 122.24 121.716C121.851 121.822 121.512 122.065 121.282 122.401C121.052 122.736 120.946 123.144 120.983 123.551C123.946 145.863 129.647 167.709 137.955 188.581C138.114 188.987 138.114 189.439 137.956 189.845C137.798 190.251 137.494 190.58 137.105 190.766C136.716 190.952 136.272 190.98 135.863 190.844C135.455 190.709 135.112 190.421 134.906 190.038C130.549 181.852 126.284 173.444 122.2 164.649C122.017 164.287 121.715 164.002 121.346 163.843C120.978 163.685 120.566 163.663 120.183 163.782C119.8 163.9 119.47 164.152 119.252 164.493C119.033 164.833 118.939 165.241 118.987 165.645C123.761 197.468 136.05 229.956 149.482 258C149.641 258.397 149.65 258.84 149.506 259.243C149.363 259.646 149.077 259.981 148.705 260.183C148.332 260.384 147.899 260.439 147.49 260.335C147.08 260.232 146.723 259.978 146.487 259.622C139.691 247.844 133.493 235.721 127.917 223.3C127.759 222.92 127.471 222.611 127.106 222.43C126.742 222.248 126.325 222.206 125.932 222.311C125.54 222.417 125.198 222.662 124.969 223.003C124.74 223.344 124.64 223.757 124.686 224.166C126.752 246.004 132.797 267.261 142.512 286.855C142.721 287.247 142.771 287.708 142.652 288.137C142.532 288.567 142.252 288.933 141.872 289.156C141.491 289.38 141.039 289.443 140.613 289.334C140.187 289.224 139.819 288.95 139.589 288.569C133.708 279.664 127.899 270.261 122.327 260.433C122.12 260.091 121.803 259.832 121.43 259.7C121.056 259.568 120.65 259.573 120.279 259.712C119.908 259.851 119.596 260.117 119.397 260.464C119.198 260.811 119.123 261.217 119.186 261.613C124.105 289.122 136.267 314.382 150.244 335.807C150.48 336.171 150.571 336.612 150.498 337.041C150.426 337.47 150.195 337.855 149.853 338.117C149.511 338.38 149.084 338.501 148.658 338.455C148.232 338.41 147.838 338.201 147.558 337.872C137.287 325.827 127.647 313.241 118.678 300.167C118.456 299.824 118.12 299.574 117.732 299.461C117.343 299.349 116.928 299.381 116.561 299.553C116.195 299.725 115.901 300.024 115.733 300.397C115.565 300.771 115.534 301.192 115.647 301.586C134.271 373.918 212.506 431.812 213.994 432.919L220.221 437.012C221.594 437.954 223.222 438.439 224.879 438.402C226.536 438.364 228.141 437.805 229.472 436.801C230.802 435.797 231.794 434.399 232.309 432.798C232.823 431.198 232.837 429.475 232.346 427.867Z" fill="#F5F5F5"/>
<path id="Vector_12" d="M193.519 443.908C196.895 401.501 200.78 282.577 150.499 191.439C150.345 191.175 150.298 190.862 150.365 190.563C150.432 190.265 150.61 190.004 150.861 189.834C151.111 189.664 151.417 189.598 151.714 189.65C152.012 189.701 152.278 189.867 152.459 190.112C155.431 194.062 158.124 198.221 160.518 202.557C160.653 202.795 160.864 202.979 161.116 203.077C161.368 203.176 161.646 203.184 161.903 203.1C162.16 203.016 162.381 202.845 162.529 202.615C162.676 202.385 162.742 202.111 162.715 201.838C161.415 190.236 159.322 178.74 156.452 167.433C156.399 167.286 156.374 167.129 156.38 166.971C156.386 166.814 156.423 166.659 156.488 166.517C156.553 166.374 156.645 166.245 156.759 166.138C156.872 166.031 157.006 165.948 157.151 165.894C157.297 165.839 157.451 165.814 157.606 165.821C157.761 165.827 157.913 165.864 158.054 165.93C158.195 165.996 158.321 166.089 158.426 166.205C158.532 166.32 158.613 166.456 158.667 166.604C163.351 176.204 166.792 186.38 168.905 196.878C168.953 197.183 169.116 197.457 169.358 197.643C169.6 197.829 169.904 197.913 170.206 197.877C170.507 197.842 170.784 197.689 170.978 197.452C171.172 197.214 171.268 196.91 171.246 196.602C171.065 192.085 170.756 187.235 170.284 182.165C170.247 181.865 170.322 181.562 170.495 181.316C170.668 181.07 170.926 180.9 171.218 180.839C171.51 180.779 171.813 180.832 172.067 180.989C172.322 181.146 172.508 181.395 172.59 181.686C178.293 200.375 179.685 220.147 176.656 239.47V239.636C180.574 220.354 182.611 200.728 182.737 181.04C182.691 180.715 182.774 180.385 182.968 180.122C183.162 179.859 183.451 179.686 183.771 179.639C184.091 179.593 184.417 179.677 184.675 179.874C184.934 180.071 185.105 180.365 185.151 180.69C187.435 189.966 188.833 199.444 189.326 208.992C189.326 209.31 189.45 209.615 189.671 209.839C189.893 210.064 190.193 210.19 190.506 210.19C190.819 210.19 191.119 210.064 191.34 209.839C191.561 209.615 191.685 209.31 191.685 208.992C191.849 207.148 191.976 205.304 192.067 203.461C192.068 203.162 192.18 202.874 192.38 202.654C192.579 202.434 192.853 202.298 193.146 202.273C193.44 202.248 193.732 202.335 193.965 202.517C194.199 202.699 194.357 202.963 194.408 203.258C197.047 215.364 198.319 227.735 198.202 240.133C198.204 240.433 198.315 240.72 198.515 240.94C198.715 241.16 198.988 241.296 199.282 241.321C199.575 241.346 199.867 241.259 200.101 241.077C200.334 240.895 200.492 240.631 200.544 240.336C202.468 228.13 204.174 214.523 205.045 200.4C205.051 200.102 205.166 199.818 205.367 199.601C205.568 199.385 205.842 199.252 206.134 199.229C206.426 199.206 206.716 199.294 206.948 199.477C207.18 199.659 207.336 199.922 207.387 200.216C216.844 246.494 201.578 295.926 195.897 311.893C207.06 282.027 215.565 251.205 221.31 219.797C221.356 219.506 221.506 219.244 221.731 219.059C221.956 218.873 222.24 218.779 222.529 218.792C222.818 218.806 223.092 218.927 223.299 219.133C223.506 219.338 223.631 219.614 223.651 219.907C224.97 235.515 224.36 251.23 221.836 266.684C221.807 266.975 221.885 267.268 222.054 267.505C222.223 267.743 222.472 267.909 222.754 267.972C223.036 268.036 223.331 267.993 223.583 267.85C223.835 267.708 224.027 267.477 224.123 267.2C225.938 260.968 227.499 254.552 228.952 247.988C229.002 247.695 229.159 247.431 229.391 247.249C229.622 247.066 229.913 246.978 230.205 247.001C230.497 247.024 230.77 247.157 230.972 247.373C231.173 247.59 231.287 247.875 231.293 248.172C232.8 270.537 229.296 294.525 224.359 315.654C224.275 315.963 224.315 316.292 224.469 316.57C224.624 316.849 224.882 317.053 225.185 317.139C225.488 317.224 225.813 317.184 226.087 317.027C226.361 316.869 226.562 316.608 226.646 316.3C229.52 307.247 231.943 298.054 233.907 288.754C233.956 288.477 234.098 288.226 234.311 288.045C234.523 287.864 234.792 287.765 235.069 287.765C235.346 287.765 235.614 287.864 235.827 288.045C236.039 288.226 236.182 288.477 236.231 288.754C238.105 303.926 237.175 319.321 233.49 334.148C233.401 334.449 233.432 334.775 233.577 335.053C233.722 335.331 233.97 335.541 234.266 335.635C234.562 335.73 234.882 335.702 235.158 335.558C235.434 335.414 235.643 335.166 235.74 334.867C238.391 327.916 240.95 320.614 243.274 313.073C243.357 312.802 243.533 312.57 243.77 312.419C244.006 312.267 244.288 312.206 244.565 312.246C244.842 312.285 245.096 312.424 245.281 312.636C245.467 312.849 245.573 313.121 245.579 313.405C246.341 332.857 241.948 351.903 235.541 368.626C235.432 368.911 235.435 369.227 235.548 369.51C235.661 369.793 235.877 370.022 236.15 370.149C236.424 370.276 236.734 370.292 237.019 370.194C237.304 370.096 237.542 369.892 237.683 369.622C242.869 359.851 247.541 349.806 251.678 339.531C251.784 339.272 251.976 339.059 252.22 338.929C252.465 338.799 252.747 338.76 253.017 338.819C253.287 338.879 253.528 339.032 253.698 339.253C253.868 339.474 253.956 339.749 253.947 340.029C252.132 392.079 207.569 443.502 206.752 444.479L203.121 448.167C202.329 448.999 201.305 449.566 200.186 449.791C199.068 450.016 197.909 449.888 196.864 449.424C195.819 448.961 194.939 448.184 194.341 447.198C193.743 446.212 193.456 445.064 193.519 443.908Z" fill="#E0E0E0"/>
</g>
<path id="Vector_13" d="M137.738 358.578C135.021 358.575 132.331 359.132 129.832 360.215C127.333 361.298 125.076 362.884 123.198 364.878C121.32 366.872 119.859 369.232 118.904 371.816C117.95 374.4 117.521 377.153 117.643 379.91C120.312 439.538 133.599 603.652 199.037 603.652C264.475 603.652 277.762 439.556 280.431 379.91C280.551 377.154 280.12 374.401 279.164 371.819C278.209 369.236 276.748 366.877 274.87 364.884C272.992 362.89 270.737 361.304 268.239 360.22C265.741 359.136 263.053 358.577 260.336 358.578H137.738Z" fill="#EBEBEB"/>
<path id="Vector_14" d="M697.837 400.431H352.64V410.738H697.837V400.431Z" fill="#F5F5F5"/>
<path id="Vector_15" d="M697.837 410.756H770.136V400.45H697.837V410.756Z" fill="#E0E0E0"/>
<path id="Vector_16" d="M733.978 410.738H730.964L695.985 603.652H699.017L733.978 410.738Z" fill="#E0E0E0"/>
<path id="Vector_17" d="M733.978 410.738H737.009L771.988 603.652H768.956L733.978 410.738Z" fill="#E0E0E0"/>
<path id="Vector_18" d="M388.798 410.738H385.767L350.788 603.652H353.819L388.798 410.738Z" fill="#E0E0E0"/>
<path id="Vector_19" d="M388.798 410.738H391.812L426.791 603.652H423.777L388.798 410.738Z" fill="#E0E0E0"/>
<path id="Vector_20" d="M529.241 533.386H493.554V603.652H529.241V533.386Z" fill="#E6E6E6"/>
<path id="Vector_21" d="M419.566 603.652H493.554V533.386H419.566V603.652Z" fill="#F5F5F5"/>
<path id="Vector_22" d="M440.985 563.163H419.566V577.526H440.985V563.163Z" fill="#F0F0F0"/>
<path id="Vector_23" d="M440.985 581.49H419.566V595.853H440.985V581.49Z" fill="#F0F0F0"/>
<path id="Vector_24" d="M530.802 528.021H494.098V533.386H530.802V528.021Z" fill="#E0E0E0"/>
<path id="Vector_25" d="M417.987 533.386H494.098V528.021H417.987V533.386Z" fill="#F0F0F0"/>
<path id="Vector_26" d="M680.375 499.497H627.479V603.652H680.375V499.497Z" fill="#E6E6E6"/>
<path id="Vector_27" d="M517.805 603.634H627.479V499.479H517.805V603.634Z" fill="#F5F5F5"/>
<path id="Vector_28" d="M618.567 511.408H580.665V545.334H618.567V511.408Z" fill="#F0F0F0"/>
<path id="Vector_29" d="M618.567 554.737H580.665V588.662H618.567V554.737Z" fill="#F0F0F0"/>
<path id="Vector_30" d="M682.716 491.551H628.296V499.497H682.716V491.551Z" fill="#E0E0E0"/>
<path id="Vector_31" d="M515.463 499.479H628.278V491.532H515.463V499.479Z" fill="#F0F0F0"/>
<path id="Vector_32" d="M453.801 686.917C648.177 686.917 805.751 677.573 805.751 666.046C805.751 654.519 648.177 645.174 453.801 645.174C259.424 645.174 101.851 654.519 101.851 666.046C101.851 677.573 259.424 686.917 453.801 686.917Z" fill="#F5F5F5"/>
<path id="Vector_33" d="M782.448 205.223L781.867 218.54L783.753 218.625L784.334 205.308L782.448 205.223Z" fill="#1877F2"/>
<path id="Vector_34" d="M784.47 159.178L782.918 194.709L784.804 194.794L786.355 159.263L784.47 159.178Z" fill="#1877F2"/>
<path id="Vector_35" d="M754.671 373.254H391.975C389.947 373.267 387.937 372.858 386.07 372.054C384.203 371.25 382.517 370.066 381.116 368.576C379.716 367.086 378.63 365.321 377.925 363.389C377.22 361.457 376.911 359.399 377.018 357.342L389.252 79.8354C389.486 75.5752 391.303 71.5637 394.335 68.6105C397.367 65.6573 401.389 63.9824 405.589 63.9236H768.321C770.35 63.9081 772.361 64.3146 774.229 65.1181C776.098 65.9216 777.784 67.1051 779.186 68.5957C780.587 70.0863 781.673 71.8525 782.377 73.7855C783.081 75.7185 783.387 77.7774 783.278 79.8354L771.044 357.342C770.805 361.607 768.982 365.621 765.944 368.575C762.905 371.528 758.876 373.2 754.671 373.254Z" fill="#1877F2"/>
<path id="Vector_36" opacity="0.5" d="M752.003 373.254H391.975C389.947 373.267 387.937 372.858 386.07 372.054C384.203 371.25 382.517 370.066 381.116 368.576C379.716 367.086 378.63 365.321 377.925 363.389C377.22 361.457 376.911 359.4 377.018 357.342L389.252 79.8354C389.486 75.5752 391.303 71.5637 394.335 68.6105C397.367 65.6573 401.389 63.9824 405.589 63.9236H765.653C767.682 63.9109 769.692 64.3191 771.56 65.1234C773.428 65.9276 775.115 67.1108 776.517 68.6006C777.919 70.0904 779.007 71.8553 779.714 73.7871C780.421 75.719 780.732 77.7771 780.628 79.8354L768.376 357.342C768.137 361.607 766.314 365.621 763.275 368.575C760.237 371.528 756.208 373.2 752.003 373.254Z" fill="white"/>
<path id="Vector_37" opacity="0.4" d="M646.285 299.282L581.373 298.692L589.487 206.189H651.767L646.285 299.282Z" fill="#1877F2"/>
<path id="Vector_38" opacity="0.4" d="M489.47 195.053L424.54 194.758L432.236 102.256L497.166 102.551L489.47 195.053Z" fill="#1877F2"/>
<path id="Vector_39" opacity="0.4" d="M657.449 190.222L592.137 193.025L596.149 100.854L658.846 98.1625L657.449 190.222Z" fill="#1877F2"/>
<path id="Vector_40" opacity="0.4" d="M729.494 266.499L665.69 261.41L674.548 169L737.045 175.638L729.494 266.499Z" fill="#1877F2"/>
<path id="Vector_41" opacity="0.4" d="M569.248 169.591L519.293 168.226L524.321 97.1117L573.695 97.8676L569.248 169.591Z" fill="#1877F2"/>
<path id="Vector_42" opacity="0.4" d="M482.136 359.536L433.071 358.485L438.081 287.352L485.204 286.449L482.136 359.536Z" fill="#1877F2"/>
<path id="Vector_43" opacity="0.4" d="M748.263 157.993L698.254 158.122L703.936 86.934L752.983 86.8049L748.263 157.993Z" fill="#1877F2"/>
<path id="Vector_44" opacity="0.4" d="M503.084 270.15L552.548 275.939L561.388 203.479L514.193 199.46L503.084 270.15Z" fill="#1877F2"/>
<path id="Vector_45" d="M643.744 296.571L578.832 295.981L586.946 203.479L651.858 204.087L643.744 296.571Z" fill="white"/>
<path id="Vector_46" d="M488.961 192.97L424.05 192.38L432.164 99.8773L497.075 100.486L488.961 192.97Z" fill="white"/>
<path id="Vector_47" d="M654.907 187.512L589.596 190.315L593.59 98.1626L658.919 95.3601L654.907 187.512Z" fill="white"/>
<path id="Vector_48" d="M727.497 265.559L663.148 258.719L672.007 166.29L736.355 173.131L727.497 265.559Z" fill="white"/>
<path id="Vector_49" d="M568.286 166.899L518.331 165.534L523.341 94.4012L573.296 95.7656L568.286 166.899Z" fill="white"/>
<path id="Vector_50" d="M480.484 357.139L430.53 355.775L435.54 284.661L485.494 286.025L480.484 357.139Z" fill="white"/>
<path id="Vector_51" d="M746.575 156.997L696.566 157.127L702.248 85.92L752.257 85.7909L746.575 156.997Z" fill="white"/>
<path id="Vector_52" d="M500.542 267.44L550.007 273.229L561.097 202.539L511.651 196.749L500.542 267.44Z" fill="white"/>
<path id="Vector_53" opacity="0.4" d="M526.699 301.31C526.699 301.31 526.409 320.614 523.686 326.348C532.563 328.93 549.68 328.893 549.68 328.893C549.68 328.893 553.419 310.326 552.802 303.08C547.701 301.845 526.699 301.31 526.699 301.31Z" fill="#1877F2"/>
<path id="Vector_54" d="M526.699 301.31C526.699 301.31 524.594 320.577 521.889 326.348C529.863 328.28 537.961 329.641 546.122 330.423C546.122 330.423 553.673 310.381 552.802 303.025C547.701 301.845 526.699 301.31 526.699 301.31Z" fill="white"/>
<path id="Vector_55" opacity="0.4" d="M660.353 304.463C660.353 304.463 670.645 330.902 670.064 340.232C684.005 338.646 708.274 330.515 708.274 330.515C708.274 330.515 703.083 301.402 698.091 291.796C690.286 293.16 660.353 304.463 660.353 304.463Z" fill="#1877F2"/>
<path id="Vector_56" d="M656.995 302.472C656.995 302.472 665.635 336.434 665.054 345.763C678.995 344.159 705.896 333.207 705.896 333.207C705.896 333.207 702.266 298.507 696.82 288.957C689.087 290.376 656.995 302.472 656.995 302.472Z" fill="white"/>
<path id="Vector_57" opacity="0.4" d="M690.994 297.069C690.952 297.883 690.605 298.649 690.025 299.212C689.444 299.774 688.674 300.089 687.871 300.093C687.485 300.099 687.101 300.023 686.744 299.872C686.387 299.72 686.065 299.495 685.798 299.212C685.53 298.928 685.323 298.591 685.19 298.223C685.056 297.854 684.999 297.461 685.021 297.069C685.063 296.254 685.409 295.485 685.989 294.92C686.569 294.354 687.34 294.035 688.144 294.027C688.531 294.024 688.915 294.101 689.272 294.255C689.629 294.409 689.951 294.635 690.218 294.92C690.485 295.206 690.692 295.543 690.825 295.913C690.959 296.283 691.016 296.676 690.994 297.069Z" fill="#1877F2"/>
<path id="Vector_58" d="M491.448 100.523C491.358 101.903 490.761 103.198 489.777 104.154C488.792 105.11 487.491 105.656 486.13 105.685C485.47 105.694 484.815 105.565 484.207 105.305C483.598 105.046 483.049 104.662 482.592 104.178C482.136 103.694 481.783 103.119 481.554 102.491C481.326 101.862 481.228 101.192 481.265 100.523C481.355 99.1425 481.952 97.8468 482.936 96.8912C483.921 95.9356 485.222 95.3893 486.583 95.3601C487.243 95.3541 487.896 95.4853 488.503 95.7455C489.11 96.0057 489.659 96.3894 490.115 96.8731C490.57 97.3567 490.924 97.9301 491.153 98.5577C491.383 99.1854 491.483 99.8541 491.448 100.523Z" fill="#1877F2"/>
<path id="Vector_59" d="M525.193 198.409C525.146 199.397 524.729 200.33 524.027 201.015C523.325 201.701 522.391 202.088 521.417 202.096C520.947 202.102 520.481 202.01 520.048 201.824C519.614 201.638 519.224 201.364 518.9 201.018C518.576 200.671 518.326 200.261 518.166 199.812C518.005 199.363 517.938 198.885 517.968 198.409C518.015 197.42 518.432 196.488 519.134 195.802C519.836 195.116 520.77 194.729 521.744 194.721C522.214 194.715 522.68 194.808 523.114 194.993C523.547 195.179 523.938 195.453 524.261 195.8C524.585 196.146 524.835 196.556 524.995 197.005C525.156 197.454 525.223 197.932 525.193 198.409Z" fill="#1877F2"/>
<path id="Vector_60" d="M678.886 125.119C678.831 126.104 678.412 127.032 677.711 127.716C677.011 128.4 676.082 128.789 675.111 128.806C674.64 128.809 674.175 128.715 673.742 128.529C673.309 128.342 672.918 128.068 672.593 127.723C672.269 127.377 672.017 126.968 671.854 126.52C671.69 126.073 671.619 125.596 671.643 125.119C671.694 124.132 672.112 123.202 672.814 122.517C673.515 121.832 674.446 121.444 675.419 121.431C675.889 121.428 676.355 121.522 676.788 121.709C677.221 121.895 677.612 122.169 677.936 122.515C678.261 122.86 678.513 123.269 678.676 123.717C678.839 124.165 678.911 124.642 678.886 125.119Z" fill="#1877F2"/>
<g id="women-head">
<path id="Vector_61" d="M267.452 146.801C259.229 145.953 234.778 181.04 282.119 196.694C274.422 189.448 270.592 182.423 272.607 174.126C273.811 167.7 274.141 161.136 273.587 154.619C273.587 154.619 276.401 147.723 267.452 146.801Z" fill="#263238"/>
<path id="Vector_62" d="M323.506 134.374C323.197 135.72 323.633 136.974 324.504 137.177C325.375 137.38 326.319 136.476 326.646 135.13C326.973 133.784 326.519 132.531 325.647 132.328C324.776 132.125 323.832 133.028 323.506 134.374Z" fill="#263238"/>
<path id="Vector_63" d="M325.248 132.31L328.643 132.144C328.643 132.144 326.428 134.264 325.248 132.31Z" fill="#263238"/>
<path id="Vector_64" d="M327.39 126.815C327.545 126.823 327.698 126.784 327.832 126.705C327.965 126.625 328.073 126.508 328.143 126.368C328.212 126.227 328.239 126.069 328.222 125.913C328.204 125.756 328.142 125.609 328.044 125.488C327.25 124.484 326.23 123.689 325.071 123.17C323.912 122.65 322.647 122.42 321.382 122.501C321.277 122.512 321.175 122.545 321.082 122.596C320.989 122.648 320.908 122.718 320.842 122.802C320.776 122.886 320.727 122.983 320.698 123.086C320.67 123.189 320.661 123.297 320.674 123.404C320.701 123.618 320.809 123.812 320.975 123.947C321.141 124.081 321.352 124.144 321.563 124.123C322.567 124.07 323.568 124.262 324.484 124.682C325.4 125.102 326.203 125.739 326.827 126.538C326.973 126.701 327.174 126.8 327.39 126.815Z" fill="#263238"/>
<path id="Vector_65" d="M321.854 138.486C322.303 141.842 323.207 145.118 324.54 148.221C323.751 148.543 322.902 148.687 322.053 148.642C321.203 148.598 320.373 148.366 319.621 147.963L321.854 138.486Z" fill="#A02724"/>
<g id="Group 1">
<path id="Vector_66" d="M280.721 143.335C282.682 153.495 284.624 172.098 277.635 178.883C283.309 188.196 291.751 195.434 301.741 199.552C315.119 191.052 308.712 178.883 308.712 178.883C297.566 176.173 297.82 167.821 299.799 159.874L280.721 143.335Z" fill="#B55B52"/>
<path id="Vector_67" d="M280.213 118.002C277.309 134.743 275.729 141.75 281.919 152.222C291.231 167.968 312.088 167.931 319.875 152.425C326.864 138.468 330.458 113.448 316.118 103.012C312.969 100.693 309.288 99.2304 305.426 98.7628C301.564 98.2952 297.649 98.8381 294.051 100.34C290.454 101.842 287.294 104.253 284.872 107.344C282.45 110.435 280.846 114.104 280.213 118.002Z" fill="#B55B52"/>
<path id="Vector_68" d="M309.492 131.277C314.484 129.212 326.356 124.639 329.26 117.43C332.164 110.221 320.184 90.972 309.946 94.7702C283.281 88.9991 264.693 101.961 264.802 122.427C264.911 143.815 273.279 155.984 287.002 159.155C300.725 162.326 312.651 147.723 309.492 131.277Z" fill="#263238"/>
</g>
<path id="Vector_69" d="M271.173 137.159C265.728 136.403 262.823 142.008 264.802 146.654C266.78 151.3 273.388 158.657 275.929 158.657C278.47 158.657 283.498 156.813 284.769 153.918C286.04 151.024 274.84 137.693 271.173 137.159Z" fill="#1877F2"/>
</g>
<path id="Vector_70" d="M319.095 251.067L337.083 248.191L328.225 263.089C328.225 263.089 317.334 262.628 314.357 256.23L319.095 251.067Z" fill="#B55B52"/>
<path id="Vector_71" d="M383.897 300.388H327.626C327.253 300.434 326.875 300.38 326.53 300.231C326.184 300.082 325.883 299.843 325.657 299.539C325.431 299.235 325.288 298.875 325.241 298.497C325.195 298.118 325.247 297.734 325.393 297.383L351.369 220.516C351.715 219.652 352.3 218.91 353.055 218.38C353.809 217.849 354.699 217.553 355.617 217.529H411.888C412.26 217.479 412.638 217.529 412.984 217.676C413.331 217.822 413.633 218.059 413.859 218.363C414.086 218.666 414.23 219.025 414.276 219.403C414.322 219.782 414.268 220.165 414.121 220.516L388.145 297.383C387.796 298.246 387.21 298.988 386.457 299.521C385.704 300.054 384.815 300.355 383.897 300.388Z" fill="#1877F2"/>
<path id="Vector_72" d="M382.899 297.954H328.552C328.343 297.983 328.131 297.954 327.937 297.872C327.743 297.789 327.575 297.655 327.449 297.484C327.323 297.313 327.245 297.111 327.221 296.898C327.198 296.686 327.231 296.471 327.317 296.277L352.984 220.258C353.182 219.777 353.51 219.363 353.932 219.065C354.353 218.768 354.85 218.6 355.362 218.58H409.818C410.027 218.554 410.238 218.583 410.432 218.666C410.625 218.749 410.794 218.882 410.921 219.052C411.047 219.222 411.128 219.423 411.154 219.634C411.181 219.846 411.152 220.061 411.071 220.258L385.386 296.277C385.181 296.775 384.836 297.2 384.393 297.499C383.95 297.797 383.43 297.956 382.899 297.954Z" fill="white"/>
<path id="Vector_73" opacity="0.2" d="M325.811 199.552L337.991 219.704C337.355 226.877 336.43 235.469 335.105 245.739L325.121 239.746C321.037 209.25 325.811 199.552 325.811 199.552Z" fill="black"/>
<g id="women-head_2">
<g id="Group 2">
<path id="Vector_74" d="M340.314 199.884C342.844 207.96 345.264 216.072 347.575 224.222L351.06 236.446L354.419 248.707L356.07 254.847L356.887 257.926C357.075 258.713 357.305 259.488 357.577 260.249C357.92 261.258 358.377 262.223 358.938 263.125C359.065 263.31 359.047 263.347 358.938 263.402C358.829 263.457 358.811 263.568 359.029 263.605C360.1 263.612 361.151 263.311 362.061 262.738C363.56 261.914 364.982 260.951 366.308 259.862C367.76 258.682 369.194 257.391 370.61 256.027C372.026 254.662 373.424 253.132 374.694 251.768L381.955 256.414C380.962 258.502 379.847 260.528 378.615 262.48C377.406 264.484 376.053 266.394 374.567 268.196C372.982 270.161 371.193 271.948 369.231 273.524C366.768 275.547 363.849 276.916 360.735 277.507C358.696 277.855 356.606 277.735 354.618 277.157C352.656 276.567 350.834 275.575 349.263 274.243C346.869 272.141 344.934 269.554 343.582 266.647C343 265.455 342.502 264.223 342.093 262.959L341.077 259.917L339.044 253.851L335.068 241.682L331.238 229.458C328.643 221.309 326.192 213.122 323.832 204.917L340.314 199.884Z" fill="#B55B52"/>
<path id="Vector_75" d="M372.462 255.013L378.924 239.009L386.838 254.441C386.838 254.441 380.848 263.66 373.877 262.923L372.462 255.013Z" fill="#B55B52"/>
<path id="Vector_76" d="M393.028 235.893L397.185 245.186L386.838 254.441L378.924 239.009L393.028 235.893Z" fill="#B55B52"/>
</g>
<path id="Vector_77" d="M390.85 242.236C390.689 242.24 390.531 242.203 390.388 242.129C390.246 242.055 390.123 241.946 390.033 241.811L371.173 215.593C371.016 215.367 370.952 215.088 370.997 214.815C371.041 214.543 371.189 214.299 371.409 214.136C371.628 213.978 371.9 213.914 372.165 213.959C372.431 214.004 372.668 214.154 372.825 214.376L391.666 240.595C391.784 240.746 391.857 240.929 391.876 241.121C391.894 241.313 391.859 241.507 391.773 241.68C391.687 241.852 391.555 241.996 391.391 242.094C391.228 242.193 391.04 242.242 390.85 242.236Z" fill="#263238"/>
</g>
<path id="Vector_78" d="M321.727 195.44C324.613 188.434 333.653 183.917 333.653 183.917C343.382 190.352 346.668 193.394 353.13 226.121C343.709 234.492 328.098 234.491 328.098 234.491L319.676 212.366C319.676 212.366 318.841 202.502 321.727 195.44Z" fill="#263238"/>
<path id="Vector_79" opacity="0.2" d="M260.954 452.426L291.939 455.892C293.192 448.37 294.48 439.686 295.733 430.319L261.589 426.761C261.389 435.887 261.244 444.572 260.954 452.426Z" fill="black"/>
<path id="Vector_80" opacity="0.2" d="M348.047 435.777L309.492 431.757C312.033 441.363 314.575 450.453 317.025 458.676L351.224 462.475C350.334 454.675 349.245 445.604 348.047 435.777Z" fill="black"/>
<g id="Group 12">
<path id="Vector_81" d="M266.708 195.957C266.708 196.639 266.708 197.8 266.708 198.704V201.691C266.708 203.694 266.799 205.704 266.98 207.72C267.257 211.699 267.766 215.658 268.505 219.575C269.844 227.069 272.62 234.224 276.673 240.631C278.162 242.586 277.581 242.272 278.852 243.157C280.206 244.016 281.656 244.709 283.172 245.222C286.906 246.508 290.728 247.513 294.608 248.228C302.685 249.776 311.235 250.846 319.621 251.712L319.857 260.397C310.964 261.578 301.984 261.93 293.028 261.448C288.306 261.226 283.615 260.56 279.015 259.456C276.358 258.808 273.782 257.855 271.337 256.617C269.809 255.805 268.388 254.802 267.107 253.63C266.744 253.298 266.381 252.911 266.018 252.524L265.346 251.731L264.112 250.237C260.99 246.257 258.39 241.882 256.379 237.22C254.42 232.73 252.9 228.055 251.841 223.263C250.762 218.587 250.028 213.835 249.645 209.047C249.482 206.669 249.373 204.29 249.336 201.894C249.336 200.695 249.336 199.497 249.336 198.298C249.336 197.1 249.427 195.975 249.554 194.445L266.708 195.957Z" fill="#B55B52"/>
<g id="Group 11">
<path id="Vector_82" d="M345.978 253.206L346.032 264.287L328.225 263.088L337.083 248.191L345.978 253.206Z" fill="#B55B52"/>
<g id="Group 10">
<path id="Vector_83" d="M272.462 189.485C270.775 187.528 269.447 185.28 268.541 182.847C267.98 181.23 267.838 179.493 268.129 177.803C268.42 176.114 269.134 174.529 270.202 173.201C271.271 171.873 272.658 170.847 274.23 170.221C275.802 169.595 277.506 169.391 279.178 169.627C284.277 170.339 289.445 170.376 294.553 169.738C306.134 168.281 312.197 174.2 318.459 186.885C318.459 186.885 315.537 192.417 306.769 194.574C298.002 196.731 272.462 189.485 272.462 189.485Z" fill="#1877F2"/>
<g id="Group 9">
<path id="Vector_84" d="M249.899 182.534L268.051 190.001L277.726 200.898L278.979 215.925C278.979 215.925 257.831 232.224 246.595 230.675C242.711 203.055 245.143 187.862 249.899 182.534Z" fill="#263238"/>
<g id="Group 8">
<path id="Vector_85" d="M274.931 646.391H261.643C261.313 646.383 260.992 646.5 260.741 646.717C260.49 646.935 260.327 647.239 260.282 647.571L258.322 663.003C258.286 663.395 258.332 663.79 258.455 664.162C258.579 664.535 258.778 664.877 259.039 665.167C259.301 665.457 259.619 665.688 259.974 665.846C260.329 666.004 260.712 666.084 261.099 666.083C267.779 665.972 265.111 665.566 273.551 665.566C278.743 665.566 286.258 666.119 293.518 666.119C300.779 666.119 300.979 658.91 297.984 658.265C284.551 655.333 282.391 651.295 277.817 647.46C277.009 646.77 275.987 646.391 274.931 646.391Z" fill="#263238"/>
<g id="Group 7">
<path id="Vector_86" d="M338.381 194.442C338.653 206.851 336.929 232.682 328.343 286.318H259.891C261.035 258.016 262.396 240.223 249 182.218C258.204 180.296 267.536 179.075 276.918 178.567C287.263 177.811 297.649 177.811 307.994 178.567C314.692 179.194 321.844 180.282 327.29 181.241C330.361 181.789 333.148 183.407 335.172 185.816C337.196 188.225 338.331 191.276 338.381 194.442Z" fill="#263238"/>
<g id="Group 6">
<path id="Vector_87" d="M311.271 286.597C311.271 286.597 300.162 411.088 290.814 462.438C280.994 516.368 273.66 644.879 273.551 648.806H261.879C261.879 648.806 245.906 504.347 260.808 456.003C263.277 397.002 260.7 286.597 260.7 286.597H311.271Z" fill="#B55B52"/>
<g id="Group 5">
<g id="Group 4">
<path id="Vector_88" d="M329.151 286.597C329.151 286.597 346.25 418.039 352.095 469.923C360.717 546.551 379.976 648.77 379.976 648.77L368.486 650.853C368.486 650.853 328.334 550.828 322.271 475.086C303.23 419.293 275.911 286.597 275.911 286.597H329.151Z" fill="#B55B52"/>
<g id="Group 3">
<path id="Vector_89" d="M379.051 636.213L364.184 643.588C363.884 643.726 363.644 643.972 363.51 644.278C363.376 644.584 363.358 644.929 363.458 645.248L368.25 659.666C368.398 660.03 368.618 660.358 368.898 660.63C369.178 660.902 369.51 661.111 369.874 661.245C370.238 661.379 370.626 661.434 371.012 661.406C371.398 661.379 371.774 661.27 372.117 661.086C378.216 657.933 378.234 657.509 385.985 653.711C390.759 651.332 398.51 647.737 405.099 644.492C411.688 641.247 408.856 634.775 405.825 635.568C392.247 639.145 387.982 637.209 382.227 635.918C381.167 635.642 380.045 635.746 379.051 636.213Z" fill="#263238"/>
</g>
</g>
<path id="Vector_90" d="M329.151 286.597L353.838 458.326L257.85 445.973C267.216 372.461 238.772 313.516 260.7 286.597H329.151Z" fill="#1877F2"/>
</g>
</g>
</g>
</g>
</g>
</g>
</g>
</g>
<path id="Vector_91" opacity="0.2" d="M269.703 321.831C280.197 331.094 292.368 338.19 305.535 342.721C283.97 342.481 273.969 334.701 269.703 321.831Z" fill="black"/>
</g>
<defs>
<clipPath id="clip0">
<rect width="844" height="687" fill="white"/>
</clipPath>
</defs>
</svg>
