<svg width="494" height="402" viewBox="0 0 494 402" fill="none" xmlns="http://www.w3.org/2000/svg">
<g id="Annoucement 1" clip-path="url(#clip0)">
<path id="Vector" d="M531.227 353.229H0V353.498H531.227V353.229Z" fill="#EBEBEB"/>
<path id="Vector_2" d="M477.998 370.588H456.674V370.858H477.998V370.588Z" fill="#EBEBEB"/>
<path id="Vector_3" d="M413.826 366.812H379.806V367.082H413.826V366.812Z" fill="#EBEBEB"/>
<path id="Vector_4" d="M330.604 360.576H291.314V360.846H330.604V360.576Z" fill="#EBEBEB"/>
<path id="Vector_5" d="M126.06 368.517H80.1726V368.787H126.06V368.517Z" fill="#EBEBEB"/>
<path id="Vector_6" d="M70.7064 368.517H63.9812V368.787H70.7064V368.517Z" fill="#EBEBEB"/>
<path id="Vector_7" d="M179.799 360.436H139.978V360.706H179.799V360.436Z" fill="#EBEBEB"/>
<path id="Vector_8" d="M251.801 305.11H46.6523C45.0452 305.107 43.5049 304.457 42.3695 303.302C41.234 302.147 40.5963 300.582 40.5963 298.95V6.10654C40.6103 4.4839 41.2542 2.9324 42.3881 1.78903C43.522 0.645669 45.0544 0.00277964 46.6523 0H251.801C253.41 0 254.954 0.649046 256.091 1.80436C257.229 2.95967 257.868 4.52661 257.868 6.16049V298.95C257.868 300.584 257.229 302.151 256.091 303.306C254.954 304.461 253.41 305.11 251.801 305.11ZM46.6523 0.215779C45.1157 0.218637 43.6429 0.840525 42.5573 1.94494C41.4717 3.04937 40.862 4.54606 40.862 6.10654V298.95C40.862 300.511 41.4717 302.007 42.5573 303.112C43.6429 304.216 45.1157 304.838 46.6523 304.841H251.801C253.339 304.838 254.813 304.216 255.9 303.112C256.988 302.008 257.6 300.511 257.602 298.95V6.10654C257.6 4.54508 256.988 3.04839 255.9 1.94429C254.813 0.840174 253.339 0.218631 251.801 0.215779H46.6523Z" fill="#EBEBEB"/>
<path id="Vector_9" d="M481.621 305.11H276.461C274.853 305.107 273.311 304.457 272.174 303.303C271.037 302.148 270.397 300.583 270.394 298.95V6.10654C270.411 4.48291 271.057 2.93143 272.193 1.78836C273.328 0.645295 274.862 0.00274933 276.461 0H481.621C483.217 0.00561508 484.746 0.64976 485.878 1.79282C487.01 2.93589 487.652 4.48576 487.666 6.10654V298.95C487.666 300.58 487.03 302.144 485.896 303.298C484.763 304.453 483.226 305.105 481.621 305.11ZM276.461 0.215779C274.923 0.218631 273.45 0.840174 272.362 1.94429C271.275 3.04839 270.663 4.54508 270.66 6.10654V298.95C270.663 300.511 271.275 302.008 272.362 303.112C273.45 304.216 274.923 304.838 276.461 304.841H481.621C483.158 304.838 484.632 304.216 485.72 303.112C486.807 302.008 487.419 300.511 487.422 298.95V6.10654C487.419 4.54508 486.807 3.04839 485.72 1.94429C484.632 0.840174 483.158 0.218631 481.621 0.215779H276.461Z" fill="#EBEBEB"/>
<path id="Vector_10" d="M152.302 230.149C150.38 200.857 148.807 118.905 184.346 56.5878C184.467 56.4076 184.513 56.1858 184.473 55.9713C184.434 55.7569 184.311 55.5672 184.134 55.4442C183.956 55.3212 183.738 55.2748 183.527 55.3153C183.316 55.3557 183.129 55.4797 183.008 55.66C180.921 58.3507 179.025 61.1883 177.334 64.1509C177.237 64.3095 177.089 64.4306 176.916 64.4938C176.742 64.5564 176.552 64.5581 176.378 64.4985C176.203 64.4382 176.054 64.3206 175.954 64.1632C175.853 64.0064 175.808 63.8191 175.825 63.633C176.832 55.651 178.379 47.7491 180.458 39.9837C180.5 39.7896 180.473 39.5864 180.381 39.411C180.288 39.2356 180.137 39.0996 179.955 39.0278C179.772 38.956 179.57 38.953 179.386 39.0196C179.201 39.0861 179.046 39.2176 178.949 39.3903C175.628 45.9579 173.16 52.9354 171.608 60.1484C171.581 60.3644 171.471 60.5604 171.301 60.6944C171.132 60.8278 170.917 60.8875 170.705 60.86C170.491 60.8331 170.298 60.7213 170.167 60.5493C170.036 60.3772 169.976 60.159 170.003 59.9431C170.163 56.8252 170.418 53.4698 170.8 50.0066C170.83 49.799 170.781 49.5877 170.663 49.4152C170.545 49.2426 170.368 49.1217 170.166 49.0766C169.964 49.0315 169.753 49.0656 169.575 49.1721C169.397 49.2786 169.265 49.4495 169.206 49.6506C165.094 62.4762 163.953 76.0927 165.87 89.44C165.866 89.4757 165.866 89.512 165.87 89.5477C163.343 76.2208 162.122 62.6722 162.226 49.1003C162.223 48.9012 162.149 48.7099 162.019 48.5612C161.889 48.4126 161.71 48.3164 161.515 48.2903C161.321 48.2641 161.124 48.3097 160.96 48.4188C160.796 48.5279 160.676 48.6931 160.621 48.8845C158.955 55.2405 157.887 61.743 157.434 68.3043C157.412 68.5073 157.316 68.694 157.166 68.8298C157.017 68.9655 156.822 69.041 156.621 69.041C156.421 69.041 156.227 68.9655 156.077 68.8298C155.927 68.694 155.832 68.5073 155.809 68.3043C155.724 67.0316 155.649 65.7366 155.597 64.4312C155.58 64.2369 155.498 64.0543 155.362 63.9151C155.227 63.7764 155.048 63.691 154.857 63.6728C154.665 63.6547 154.473 63.7056 154.315 63.8168C154.157 63.9279 154.043 64.0918 153.992 64.2802C152.06 72.5859 151.069 81.0893 151.038 89.6232C151.032 89.8303 150.951 90.0275 150.81 90.1761C150.668 90.3253 150.477 90.4155 150.274 90.4289C150.071 90.4424 149.87 90.3786 149.711 90.2493C149.551 90.1205 149.445 89.9356 149.413 89.7314C148.202 81.3052 147.192 71.9621 146.682 62.1766C146.667 61.9817 146.583 61.7992 146.448 61.6605C146.313 61.5218 146.134 61.4358 145.942 61.4176C145.751 61.3995 145.56 61.451 145.402 61.5622C145.243 61.6728 145.129 61.8372 145.078 62.0256C138.119 93.8638 148.18 128.064 151.931 139.177C144.5 118.508 138.906 97.2044 135.218 75.5222C135.187 75.3279 135.089 75.1506 134.941 75.023C134.793 74.8955 134.605 74.8252 134.411 74.8252C134.217 74.8252 134.029 74.8955 133.881 75.023C133.733 75.1506 133.635 75.3279 133.604 75.5222C132.547 86.2673 132.818 97.1043 134.411 107.781C134.455 107.995 134.413 108.216 134.295 108.398C134.178 108.58 133.994 108.708 133.784 108.752C133.574 108.796 133.355 108.754 133.176 108.635C132.997 108.515 132.871 108.329 132.828 108.116C131.691 103.8 130.628 99.3548 129.64 94.8234C129.599 94.6291 129.49 94.4559 129.333 94.336C129.177 94.216 128.983 94.1575 128.787 94.1704C128.592 94.1838 128.407 94.2675 128.267 94.4074C128.127 94.5472 128.041 94.7333 128.026 94.9317C126.772 110.328 128.96 126.888 132.158 141.496C132.188 141.699 132.143 141.905 132.032 142.076C131.921 142.246 131.752 142.369 131.558 142.422C131.363 142.474 131.156 142.451 130.977 142.358C130.798 142.265 130.659 142.108 130.586 141.917C128.705 135.651 127.138 129.291 125.89 122.864C125.853 122.676 125.753 122.506 125.607 122.385C125.46 122.263 125.277 122.196 125.088 122.196C124.899 122.196 124.716 122.263 124.569 122.385C124.423 122.506 124.323 122.676 124.286 122.864C122.855 133.295 123.353 143.906 125.752 154.152C125.794 154.356 125.759 154.568 125.654 154.747C125.549 154.926 125.382 155.058 125.186 155.118C124.99 155.177 124.778 155.16 124.594 155.069C124.41 154.978 124.266 154.82 124.19 154.627C122.427 149.804 120.737 144.755 119.207 139.522C119.149 139.34 119.029 139.183 118.87 139.079C118.71 138.976 118.52 138.932 118.332 138.954C118.144 138.977 117.969 139.066 117.838 139.205C117.707 139.344 117.628 139.524 117.614 139.716C116.902 153.127 119.813 166.289 123.988 177.877C124.05 178.072 124.038 178.283 123.955 178.47C123.873 178.657 123.725 178.806 123.54 178.889C123.356 178.972 123.148 178.983 122.956 178.92C122.764 178.856 122.602 178.723 122.501 178.545C119.019 171.76 115.895 164.791 113.141 157.669C113.067 157.492 112.936 157.346 112.769 157.256C112.602 157.166 112.409 157.138 112.224 157.176C112.039 157.215 111.872 157.317 111.752 157.466C111.633 157.614 111.568 157.8 111.569 157.993C112.344 193.877 142.56 229.75 143.134 230.43L145.598 233.041C146.134 233.649 146.843 234.072 147.628 234.25C148.412 234.429 149.231 234.353 149.971 234.034C150.71 233.715 151.333 233.168 151.751 232.472C152.17 231.775 152.362 230.963 152.302 230.149Z" fill="#E6E6E6"/>
<g id="tree">
<path id="Vector_11" d="M135.994 250.368C125.571 216.188 100.933 119.455 125.773 35.3876C125.868 35.1387 125.861 34.8618 125.754 34.618C125.648 34.3742 125.45 34.1834 125.205 34.0875C124.96 33.9917 124.687 33.9987 124.447 34.1069C124.207 34.2151 124.019 34.4158 123.924 34.6647C122.188 38.4648 120.714 42.3836 119.515 46.3923C119.447 46.6109 119.307 46.7991 119.119 46.9258C118.931 47.0524 118.706 47.1098 118.481 47.0884C118.256 47.0669 118.046 46.968 117.884 46.8079C117.722 46.6479 117.619 46.4365 117.592 46.2089C116.569 36.4565 116.214 26.6438 116.53 16.8415C116.534 16.5933 116.448 16.3523 116.288 16.1641C116.129 15.976 115.907 15.8537 115.665 15.8204C115.423 15.7872 115.177 15.8453 114.974 15.9837C114.771 16.1222 114.626 16.3314 114.564 16.5718C112.453 25.3135 111.467 34.2965 111.632 43.2959C111.654 43.5581 111.574 43.8186 111.409 44.0213C111.243 44.224 111.006 44.3526 110.748 44.3795C110.49 44.4064 110.233 44.3294 110.03 44.165C109.828 44.0007 109.697 43.7622 109.666 43.5008C108.987 39.7571 108.37 35.7436 107.849 31.4928C107.815 31.252 107.696 31.0319 107.514 30.8728C107.333 30.7137 107.101 30.6262 106.861 30.6262C106.622 30.6262 106.39 30.7137 106.209 30.8728C106.027 31.0319 105.909 31.252 105.873 31.4928C104.557 47.8759 106.982 64.3463 112.96 79.6223C112.96 79.6223 112.96 79.7195 112.96 79.7733C106.254 64.6927 101.034 48.9761 97.3736 32.8522C97.3233 32.6096 97.1863 32.3945 96.9891 32.2485C96.7918 32.1024 96.5483 32.0356 96.3054 32.0611C96.0625 32.0866 95.8378 32.2024 95.6739 32.3864C95.51 32.5703 95.4193 32.8093 95.4187 33.0572C95.2179 41.084 95.7763 49.1118 97.0868 57.0302C97.1331 57.2841 97.081 57.5463 96.9417 57.7624C96.8024 57.9783 96.5864 58.1315 96.3388 58.1898C96.0912 58.2482 95.8307 58.2074 95.6118 58.0758C95.3929 57.9442 95.2326 57.7319 95.1641 57.4833C94.707 55.9944 94.261 54.4948 93.836 52.9519C93.767 52.7199 93.6189 52.5206 93.4175 52.39C93.2168 52.2595 92.9762 52.2063 92.7397 52.2402C92.5039 52.2742 92.2873 52.3928 92.1293 52.5749C91.9718 52.7568 91.884 52.9901 91.8811 53.2325C91.9004 63.6424 93.0874 74.0166 95.4187 84.1538C95.4801 84.4013 95.4456 84.6634 95.3227 84.8864C95.1998 85.1093 94.9984 85.2761 94.7585 85.3533C94.5185 85.4306 94.2586 85.4118 94.0321 85.3012C93.8056 85.1901 93.6288 84.9958 93.5387 84.7576C89.7558 75.0798 85.9525 64.3019 82.6379 52.8656C82.5683 52.6327 82.419 52.4328 82.2171 52.3024C82.0151 52.1719 81.7734 52.1196 81.5364 52.1549C81.2993 52.1902 81.0827 52.3108 80.9259 52.4948C80.7696 52.6787 80.683 52.9137 80.683 53.1569C81.2776 92.7848 102.708 130.546 110.229 142.532C95.668 120.133 83.1126 96.4537 72.7146 71.7784C72.6157 71.5613 72.4448 71.3857 72.2311 71.2839C72.0181 71.1827 71.7758 71.1604 71.5481 71.2225C71.3204 71.2845 71.122 71.4267 70.9873 71.6233C70.8527 71.8193 70.7907 72.0581 70.8123 72.2962C72.5466 85.3521 75.8835 98.1354 80.7462 110.349C80.8393 110.586 80.8393 110.851 80.7468 111.088C80.6543 111.326 80.4764 111.518 80.2487 111.627C80.021 111.736 79.7611 111.752 79.5217 111.673C79.2829 111.594 79.0822 111.425 78.9616 111.201C76.4114 106.411 73.9151 101.491 71.5247 96.3448C71.4175 96.133 71.2408 95.9662 71.0248 95.8732C70.8094 95.7807 70.5683 95.7679 70.3441 95.8375C70.1199 95.9065 69.9268 96.054 69.7992 96.2535C69.671 96.4525 69.616 96.6912 69.6441 96.9276C72.4383 115.549 79.6312 134.559 87.493 150.969C87.5861 151.202 87.5914 151.461 87.5071 151.697C87.4234 151.933 87.256 152.129 87.0383 152.247C86.8199 152.364 86.5665 152.397 86.3271 152.336C86.0871 152.275 85.8782 152.127 85.74 151.919C81.7623 145.027 78.1345 137.933 74.8709 130.665C74.7784 130.442 74.6098 130.261 74.3962 130.156C74.1831 130.049 73.9391 130.024 73.709 130.086C73.4796 130.148 73.2794 130.291 73.1454 130.491C73.0113 130.69 72.9528 130.932 72.9797 131.171C74.189 143.95 77.7272 156.389 83.4134 167.854C83.5358 168.083 83.565 168.353 83.4954 168.604C83.4251 168.856 83.2613 169.07 83.0388 169.2C82.8158 169.332 82.5513 169.368 82.3019 169.305C82.0526 169.24 81.8372 169.08 81.7026 168.857C78.2604 163.646 74.8603 158.144 71.599 152.393C71.4778 152.193 71.2923 152.041 71.074 151.964C70.8551 151.887 70.6174 151.89 70.4003 151.971C70.1831 152.053 70.0005 152.208 69.884 152.411C69.7676 152.614 69.7237 152.852 69.7605 153.084C72.6397 169.181 79.7582 183.962 87.939 196.498C88.0772 196.711 88.1304 196.969 88.0877 197.22C88.0456 197.472 87.9104 197.697 87.7102 197.85C87.51 198.004 87.2601 198.075 87.0107 198.048C86.7614 198.022 86.5308 197.899 86.3669 197.707C80.3552 190.659 74.7128 183.294 69.4632 175.644C69.3333 175.443 69.1366 175.297 68.9095 175.23C68.6818 175.165 68.4389 175.184 68.2241 175.284C68.0099 175.385 67.8378 175.56 67.7395 175.778C67.6411 175.997 67.623 176.243 67.6891 176.474C78.5899 218.799 124.381 252.676 125.252 253.324L128.897 255.719C129.701 256.27 130.654 256.554 131.624 256.532C132.593 256.51 133.533 256.183 134.312 255.595C135.09 255.008 135.671 254.19 135.972 253.253C136.273 252.317 136.281 251.309 135.994 250.368Z" fill="#F5F5F5"/>
<path id="Vector_12" d="M113.268 259.754C115.244 234.939 117.518 165.351 88.0883 112.021C87.9982 111.867 87.9707 111.683 88.0099 111.508C88.0491 111.334 88.1533 111.181 88.3002 111.082C88.4465 110.982 88.6256 110.944 88.7995 110.974C88.9739 111.004 89.1296 111.101 89.2355 111.245C90.9751 113.556 92.5513 115.99 93.9525 118.527C94.0315 118.666 94.155 118.774 94.3025 118.831C94.45 118.889 94.6127 118.894 94.7632 118.845C94.9136 118.795 95.0429 118.695 95.1296 118.561C95.2156 118.426 95.2542 118.266 95.2384 118.106C94.4775 111.317 93.2525 104.59 91.5727 97.9739C91.5416 97.8879 91.527 97.796 91.5305 97.7035C91.534 97.6117 91.5557 97.521 91.5937 97.4379C91.6318 97.3542 91.6856 97.2787 91.7523 97.2161C91.8185 97.1535 91.8969 97.1049 91.9818 97.0733C92.0672 97.0412 92.1574 97.0265 92.2481 97.0306C92.3388 97.0341 92.4278 97.0558 92.5103 97.0944C92.5928 97.133 92.6666 97.1874 92.728 97.2553C92.7901 97.3226 92.8375 97.4022 92.8691 97.4888C95.6107 103.106 97.6247 109.061 98.8615 115.204C98.8896 115.382 98.985 115.543 99.1266 115.651C99.2683 115.76 99.4462 115.809 99.623 115.788C99.7992 115.768 99.9613 115.678 100.075 115.54C100.188 115.4 100.245 115.222 100.232 115.042C100.126 112.399 99.9449 109.561 99.6686 106.594C99.647 106.419 99.6909 106.242 99.7921 106.098C99.8934 105.954 100.044 105.854 100.215 105.818C100.386 105.783 100.564 105.814 100.712 105.906C100.861 105.998 100.97 106.144 101.018 106.314C104.356 117.25 105.171 128.82 103.398 140.127V140.224C105.691 128.941 106.884 117.457 106.957 105.936C106.931 105.746 106.979 105.553 107.093 105.399C107.206 105.245 107.375 105.144 107.563 105.116C107.75 105.089 107.941 105.139 108.092 105.254C108.243 105.369 108.343 105.541 108.37 105.731C109.707 111.159 110.526 116.705 110.814 122.292C110.814 122.478 110.887 122.657 111.016 122.788C111.146 122.92 111.322 122.993 111.505 122.993C111.688 122.993 111.864 122.92 111.993 122.788C112.122 122.657 112.195 122.478 112.195 122.292C112.291 121.213 112.365 120.134 112.418 119.056C112.419 118.881 112.485 118.712 112.602 118.584C112.718 118.455 112.878 118.375 113.05 118.361C113.222 118.346 113.393 118.397 113.529 118.503C113.666 118.61 113.759 118.764 113.789 118.937C115.333 126.021 116.078 133.26 116.009 140.515C116.01 140.69 116.075 140.858 116.192 140.987C116.31 141.115 116.469 141.195 116.641 141.21C116.813 141.224 116.984 141.173 117.121 141.067C117.257 140.96 117.35 140.806 117.38 140.633C118.506 133.491 119.505 125.529 120.015 117.265C120.018 117.09 120.085 116.924 120.203 116.797C120.321 116.671 120.481 116.593 120.652 116.579C120.823 116.566 120.993 116.617 121.128 116.725C121.264 116.831 121.355 116.985 121.385 117.157C126.921 144.237 117.985 173.162 114.66 182.505C121.194 165.029 126.172 146.993 129.535 128.615C129.561 128.445 129.649 128.291 129.781 128.183C129.913 128.074 130.079 128.019 130.248 128.027C130.417 128.035 130.578 128.106 130.699 128.226C130.82 128.346 130.893 128.508 130.905 128.679C131.677 137.812 131.32 147.008 129.842 156.051C129.825 156.221 129.871 156.393 129.97 156.531C130.069 156.671 130.215 156.768 130.38 156.805C130.545 156.842 130.717 156.817 130.865 156.733C131.012 156.65 131.125 156.515 131.181 156.353C132.243 152.706 133.157 148.952 134.007 145.111C134.037 144.939 134.129 144.785 134.264 144.678C134.4 144.571 134.57 144.52 134.741 144.533C134.912 144.547 135.072 144.625 135.19 144.751C135.307 144.878 135.374 145.045 135.378 145.219C136.26 158.305 134.209 172.342 131.319 184.706C131.27 184.887 131.293 185.079 131.384 185.242C131.474 185.405 131.625 185.524 131.803 185.575C131.98 185.625 132.17 185.601 132.331 185.509C132.491 185.417 132.609 185.264 132.658 185.084C134.34 179.786 135.758 174.407 136.908 168.965C136.936 168.803 137.019 168.656 137.144 168.55C137.268 168.444 137.426 168.387 137.588 168.387C137.75 168.387 137.907 168.444 138.031 168.55C138.156 168.656 138.239 168.803 138.268 168.965C139.365 177.843 138.82 186.852 136.664 195.528C136.612 195.704 136.63 195.895 136.715 196.057C136.799 196.22 136.945 196.343 137.118 196.398C137.291 196.453 137.478 196.437 137.64 196.353C137.801 196.268 137.924 196.123 137.981 195.948C139.532 191.881 141.03 187.608 142.39 183.196C142.439 183.037 142.542 182.901 142.681 182.813C142.819 182.724 142.984 182.688 143.146 182.712C143.308 182.734 143.457 182.816 143.565 182.94C143.674 183.064 143.736 183.224 143.739 183.39C144.185 194.772 141.614 205.917 137.864 215.703C137.8 215.869 137.802 216.054 137.868 216.22C137.934 216.385 138.061 216.519 138.221 216.594C138.381 216.668 138.562 216.677 138.729 216.62C138.896 216.563 139.035 216.443 139.118 216.285C142.153 210.568 144.888 204.69 147.309 198.678C147.371 198.526 147.484 198.401 147.626 198.325C147.77 198.249 147.935 198.226 148.093 198.261C148.251 198.296 148.392 198.386 148.492 198.515C148.591 198.644 148.643 198.805 148.637 198.969C147.575 229.426 121.492 259.516 121.014 260.088L118.888 262.246C118.425 262.733 117.825 263.065 117.171 263.196C116.516 263.328 115.838 263.253 115.226 262.982C114.614 262.711 114.099 262.256 113.749 261.679C113.399 261.102 113.231 260.43 113.268 259.754Z" fill="#E0E0E0"/>
</g>
<path id="Vector_13" d="M80.6192 209.823C79.0289 209.821 77.4544 210.147 75.9917 210.781C74.529 211.415 73.208 212.343 72.1088 213.509C71.0096 214.676 70.1544 216.057 69.5955 217.569C69.0371 219.081 68.786 220.692 68.8574 222.305C70.4196 257.197 78.1966 353.229 116.498 353.229C154.799 353.229 162.576 257.207 164.139 222.305C164.209 220.693 163.956 219.082 163.397 217.571C162.838 216.06 161.983 214.679 160.884 213.513C159.784 212.346 158.465 211.418 157.002 210.784C155.54 210.149 153.967 209.822 152.377 209.823H80.6192Z" fill="#EBEBEB"/>
<path id="Vector_14" d="M408.45 234.313H206.403V240.344H408.45V234.313Z" fill="#F5F5F5"/>
<path id="Vector_15" d="M408.45 240.355H450.767V234.324H408.45V240.355Z" fill="#E0E0E0"/>
<path id="Vector_16" d="M429.603 240.344H427.839L407.366 353.229H409.14L429.603 240.344Z" fill="#E0E0E0"/>
<path id="Vector_17" d="M429.603 240.344H431.377L451.851 353.229H450.076L429.603 240.344Z" fill="#E0E0E0"/>
<path id="Vector_18" d="M227.567 240.344H225.793L205.319 353.229H207.093L227.567 240.344Z" fill="#E0E0E0"/>
<path id="Vector_19" d="M227.567 240.344H229.331L249.804 353.229H248.04L227.567 240.344Z" fill="#E0E0E0"/>
<path id="Vector_20" d="M309.769 312.112H288.881V353.229H309.769V312.112Z" fill="#E6E6E6"/>
<path id="Vector_21" d="M245.575 353.229H288.881V312.112H245.575V353.229Z" fill="#F5F5F5"/>
<path id="Vector_22" d="M258.112 329.536H245.575V337.941H258.112V329.536Z" fill="#F0F0F0"/>
<path id="Vector_23" d="M258.112 340.261H245.575V348.665H258.112V340.261Z" fill="#F0F0F0"/>
<path id="Vector_24" d="M310.683 308.973H289.2V312.112H310.683V308.973Z" fill="#E0E0E0"/>
<path id="Vector_25" d="M244.651 312.112H289.2V308.973H244.651V312.112Z" fill="#F0F0F0"/>
<path id="Vector_26" d="M398.229 292.282H367.268V353.229H398.229V292.282Z" fill="#E6E6E6"/>
<path id="Vector_27" d="M303.075 353.218H367.268V292.272H303.075V353.218Z" fill="#F5F5F5"/>
<path id="Vector_28" d="M362.052 299.252H339.868V319.104H362.052V299.252Z" fill="#F0F0F0"/>
<path id="Vector_29" d="M362.052 324.606H339.868V344.457H362.052V324.606Z" fill="#F0F0F0"/>
<path id="Vector_30" d="M399.599 287.632H367.747V292.282H399.599V287.632Z" fill="#E0E0E0"/>
<path id="Vector_31" d="M301.705 292.272H367.736V287.621H301.705V292.272Z" fill="#F0F0F0"/>
<path id="Vector_32" d="M265.613 401.951C379.383 401.951 471.613 396.484 471.613 389.739C471.613 382.994 379.383 377.525 265.613 377.525C151.843 377.525 59.6142 382.994 59.6142 389.739C59.6142 396.484 151.843 401.951 265.613 401.951Z" fill="#F5F5F5"/>
<path id="Vector_33" d="M457.973 120.087L457.633 127.879L458.737 127.929L459.077 120.137L457.973 120.087Z" fill="#1877F2"/>
<path id="Vector_34" d="M459.157 93.1435L458.248 113.935L459.352 113.984L460.26 93.1932L459.157 93.1435Z" fill="#1877F2"/>
<path id="Vector_35" d="M441.715 218.411H229.426C228.239 218.418 227.063 218.179 225.97 217.708C224.877 217.238 223.89 216.545 223.07 215.673C222.251 214.801 221.615 213.769 221.203 212.638C220.79 211.508 220.609 210.303 220.672 209.1L227.832 46.7159C227.969 44.223 229.033 41.8757 230.807 40.1476C232.582 38.4196 234.936 37.4395 237.395 37.4051H449.704C450.892 37.396 452.069 37.6339 453.162 38.104C454.256 38.5742 455.243 39.2667 456.064 40.139C456.884 41.0112 457.519 42.0447 457.932 43.1758C458.344 44.3069 458.523 45.5117 458.459 46.7159L451.298 209.1C451.158 211.595 450.091 213.944 448.313 215.673C446.534 217.401 444.176 218.379 441.715 218.411Z" fill="#1877F2"/>
<path id="Vector_36" opacity="0.5" d="M440.153 218.411H229.426C228.239 218.418 227.063 218.179 225.97 217.708C224.877 217.238 223.89 216.545 223.07 215.673C222.251 214.801 221.615 213.769 221.203 212.638C220.79 211.508 220.609 210.304 220.672 209.1L227.832 46.7159C227.969 44.223 229.033 41.8757 230.807 40.1476C232.582 38.4196 234.936 37.4395 237.395 37.4051H448.143C449.33 37.3976 450.507 37.6365 451.6 38.1071C452.694 38.5777 453.681 39.2701 454.502 40.1418C455.322 41.0136 455.959 42.0463 456.373 43.1767C456.787 44.3072 456.969 45.5115 456.908 46.7159L449.737 209.1C449.597 211.595 448.53 213.944 446.751 215.673C444.973 217.401 442.615 218.379 440.153 218.411Z" fill="white"/>
<path id="Vector_37" opacity="0.4" d="M378.276 175.126L340.282 174.78L345.031 120.652H381.484L378.276 175.126Z" fill="#1877F2"/>
<path id="Vector_38" opacity="0.4" d="M286.491 114.136L248.487 113.963L252.991 59.8354L290.995 60.008L286.491 114.136Z" fill="#1877F2"/>
<path id="Vector_39" opacity="0.4" d="M384.81 111.309L346.583 112.949L348.931 59.015L385.628 57.4401L384.81 111.309Z" fill="#1877F2"/>
<path id="Vector_40" opacity="0.4" d="M426.979 155.943L389.634 152.965L394.818 98.8908L431.398 102.775L426.979 155.943Z" fill="#1877F2"/>
<path id="Vector_41" opacity="0.4" d="M333.185 99.2367L303.946 98.4379L306.889 56.8252L335.788 57.2675L333.185 99.2367Z" fill="#1877F2"/>
<path id="Vector_42" opacity="0.4" d="M282.198 210.384L253.48 209.769L256.412 168.145L283.994 167.616L282.198 210.384Z" fill="#1877F2"/>
<path id="Vector_43" opacity="0.4" d="M437.964 92.4501L408.694 92.5255L412.019 50.8697L440.727 50.7941L437.964 92.4501Z" fill="#1877F2"/>
<path id="Vector_44" opacity="0.4" d="M294.459 158.079L323.411 161.466L328.585 119.066L300.961 116.715L294.459 158.079Z" fill="#1877F2"/>
<path id="Vector_45" d="M376.789 173.539L338.795 173.194L343.544 119.066L381.538 119.422L376.789 173.539Z" fill="white"/>
<path id="Vector_46" d="M286.193 112.917L248.2 112.572L252.949 58.4435L290.942 58.7997L286.193 112.917Z" fill="white"/>
<path id="Vector_47" d="M383.322 109.723L345.095 111.363L347.433 57.4401L385.671 55.8002L383.322 109.723Z" fill="white"/>
<path id="Vector_48" d="M425.81 155.393L388.146 151.39L393.331 97.3051L430.995 101.308L425.81 155.393Z" fill="white"/>
<path id="Vector_49" d="M332.622 97.6614L303.383 96.8627L306.316 55.2391L335.555 56.0375L332.622 97.6614Z" fill="white"/>
<path id="Vector_50" d="M281.231 208.981L251.993 208.183L254.925 166.57L284.164 167.368L281.231 208.981Z" fill="white"/>
<path id="Vector_51" d="M436.976 91.8672L407.706 91.9433L411.031 50.2763L440.302 50.2008L436.976 91.8672Z" fill="white"/>
<path id="Vector_52" d="M292.971 156.493L321.924 159.881L328.415 118.516L299.473 115.128L292.971 156.493Z" fill="white"/>
<path id="Vector_53" opacity="0.4" d="M308.281 176.312C308.281 176.312 308.111 187.608 306.518 190.963C311.713 192.474 321.732 192.453 321.732 192.453C321.732 192.453 323.921 181.588 323.559 177.348C320.574 176.625 308.281 176.312 308.281 176.312Z" fill="#1877F2"/>
<path id="Vector_54" d="M308.281 176.312C308.281 176.312 307.049 187.587 305.466 190.963C310.133 192.094 314.873 192.89 319.65 193.348C319.65 193.348 324.069 181.62 323.559 177.316C320.574 176.625 308.281 176.312 308.281 176.312Z" fill="white"/>
<path id="Vector_55" opacity="0.4" d="M386.51 178.157C386.51 178.157 392.534 193.628 392.194 199.088C400.354 198.16 414.558 193.402 414.558 193.402C414.558 193.402 411.52 176.366 408.598 170.745C404.03 171.543 386.51 178.157 386.51 178.157Z" fill="#1877F2"/>
<path id="Vector_56" d="M384.544 176.992C384.544 176.992 389.602 196.865 389.261 202.324C397.421 201.386 413.167 194.977 413.167 194.977C413.167 194.977 411.042 174.672 407.854 169.084C403.328 169.914 384.544 176.992 384.544 176.992Z" fill="white"/>
<path id="Vector_57" opacity="0.4" d="M404.444 173.831C404.42 174.307 404.217 174.755 403.877 175.085C403.537 175.414 403.086 175.598 402.616 175.6C402.391 175.604 402.166 175.559 401.957 175.471C401.748 175.382 401.559 175.25 401.403 175.085C401.246 174.919 401.125 174.721 401.047 174.506C400.969 174.29 400.935 174.06 400.948 173.831C400.973 173.354 401.175 172.904 401.515 172.573C401.854 172.242 402.306 172.055 402.776 172.051C403.003 172.049 403.227 172.094 403.436 172.184C403.645 172.274 403.834 172.406 403.99 172.573C404.146 172.741 404.268 172.938 404.345 173.154C404.424 173.371 404.457 173.601 404.444 173.831Z" fill="#1877F2"/>
<path id="Vector_58" d="M287.648 58.8213C287.596 59.6288 287.246 60.3866 286.67 60.946C286.094 61.5054 285.332 61.8249 284.536 61.8419C284.149 61.8471 283.766 61.7717 283.41 61.6195C283.054 61.468 282.732 61.2433 282.465 60.9601C282.198 60.6768 281.991 60.3404 281.857 59.9729C281.724 59.6048 281.667 59.2128 281.688 58.8213C281.741 58.0135 282.09 57.2553 282.666 56.6962C283.243 56.137 284.004 55.8173 284.801 55.8002C285.187 55.7967 285.569 55.8735 285.925 56.0258C286.28 56.178 286.601 56.4025 286.868 56.6856C287.135 56.9686 287.342 57.3041 287.476 57.6713C287.61 58.0386 287.669 58.4299 287.648 58.8213Z" fill="#1877F2"/>
<path id="Vector_59" d="M307.4 116.1C307.372 116.678 307.128 117.224 306.717 117.625C306.306 118.026 305.76 118.252 305.19 118.257C304.914 118.261 304.642 118.207 304.388 118.098C304.134 117.989 303.906 117.829 303.716 117.626C303.527 117.423 303.38 117.183 303.287 116.921C303.193 116.658 303.153 116.378 303.171 116.1C303.198 115.521 303.442 114.976 303.853 114.574C304.264 114.173 304.811 113.946 305.381 113.942C305.656 113.938 305.929 113.992 306.183 114.101C306.436 114.21 306.665 114.37 306.854 114.573C307.044 114.775 307.19 115.015 307.284 115.278C307.378 115.541 307.417 115.82 307.4 116.1Z" fill="#1877F2"/>
<path id="Vector_60" d="M397.357 73.2137C397.325 73.7901 397.08 74.3331 396.67 74.7334C396.26 75.1336 395.716 75.3613 395.148 75.3712C394.872 75.373 394.6 75.318 394.347 75.2091C394.093 75.0997 393.864 74.9394 393.674 74.7375C393.484 74.535 393.337 74.2957 393.242 74.0335C393.146 73.772 393.104 73.4929 393.118 73.2137C393.148 72.6362 393.393 72.092 393.803 71.6912C394.214 71.2903 394.759 71.0633 395.328 71.0557C395.603 71.0539 395.876 71.1089 396.129 71.2184C396.383 71.3272 396.612 71.4875 396.801 71.69C396.992 71.8919 397.139 72.1312 397.235 72.3934C397.33 72.6555 397.372 72.9346 397.357 73.2137Z" fill="#1877F2"/>
<g id="women-head">
<path id="Vector_61" d="M156.542 85.901C151.729 85.4048 137.417 105.936 165.127 115.096C160.621 110.856 158.38 106.745 159.559 101.89C160.264 98.1301 160.457 94.2892 160.133 90.4757C160.133 90.4757 161.78 86.4405 156.542 85.901Z" fill="#263238"/>
<path id="Vector_62" d="M189.351 78.6293C189.17 79.4169 189.425 80.1507 189.935 80.2695C190.445 80.3883 190.997 79.8593 191.189 79.0717C191.38 78.2841 191.114 77.5509 190.604 77.4321C190.094 77.3133 189.541 77.8417 189.351 78.6293Z" fill="#263238"/>
<path id="Vector_63" d="M190.37 77.4216L192.357 77.3244C192.357 77.3244 191.061 78.565 190.37 77.4216Z" fill="#263238"/>
<path id="Vector_64" d="M191.624 74.2061C191.715 74.2108 191.804 74.188 191.883 74.1418C191.961 74.095 192.024 74.0265 192.065 73.9446C192.105 73.8621 192.121 73.7696 192.111 73.6783C192.1 73.5865 192.064 73.5005 192.007 73.4297C191.542 72.8422 190.945 72.377 190.267 72.0733C189.588 71.769 188.848 71.6344 188.107 71.6818C188.046 71.6882 187.986 71.7075 187.932 71.7374C187.877 71.7678 187.83 71.8088 187.791 71.8579C187.753 71.9071 187.724 71.9638 187.707 72.0241C187.691 72.0844 187.685 72.1476 187.693 72.2102C187.709 72.3354 187.772 72.4489 187.869 72.5279C187.966 72.6063 188.09 72.6432 188.213 72.6309C188.801 72.5999 189.387 72.7123 189.923 72.958C190.459 73.2038 190.929 73.5765 191.294 74.0441C191.38 74.1394 191.498 74.1974 191.624 74.2061Z" fill="#263238"/>
<path id="Vector_65" d="M188.384 81.0355C188.647 82.9992 189.176 84.9162 189.956 86.7319C189.494 86.9203 188.997 87.0046 188.5 86.9783C188.003 86.9525 187.517 86.8168 187.077 86.581L188.384 81.0355Z" fill="#A02724"/>
<g id="Group 1">
<path id="Vector_66" d="M164.308 83.8729C165.456 89.818 166.593 100.704 162.502 104.674C165.823 110.123 170.764 114.359 176.611 116.768C184.442 111.795 180.692 104.674 180.692 104.674C174.168 103.088 174.316 98.2009 175.475 93.5507L164.308 83.8729Z" fill="#B55B52"/>
<path id="Vector_67" d="M164.011 69.0492C162.311 78.8452 161.386 82.9454 165.009 89.0731C170.46 98.287 182.668 98.2653 187.225 89.1919C191.316 81.0249 193.42 66.3844 185.026 60.2778C183.183 58.9208 181.029 58.065 178.768 57.7913C176.508 57.5177 174.216 57.8354 172.11 58.7142C170.005 59.5931 168.155 61.0039 166.738 62.8126C165.32 64.6214 164.381 66.7683 164.011 69.0492Z" fill="#B55B52"/>
<path id="Vector_68" d="M181.148 76.8171C184.07 75.6088 191.019 72.9329 192.719 68.7145C194.418 64.4961 187.406 53.2325 181.414 55.4551C165.807 52.0781 154.927 59.6628 154.991 71.6385C155.055 84.1538 159.952 91.2745 167.985 93.13C176.017 94.9855 182.997 86.4405 181.148 76.8171Z" fill="#263238"/>
</g>
<path id="Vector_69" d="M158.72 80.259C155.533 79.8166 153.832 83.0964 154.991 85.815C156.148 88.5336 160.016 92.8386 161.503 92.8386C162.991 92.8386 165.934 91.7596 166.678 90.0656C167.422 88.3721 160.866 80.5714 158.72 80.259Z" fill="#1877F2"/>
</g>
<path id="Vector_70" d="M186.769 146.913L197.297 145.23L192.113 153.947C192.113 153.947 185.738 153.678 183.996 149.934L186.769 146.913Z" fill="#B55B52"/>
<path id="Vector_71" d="M224.698 175.773H191.762C191.544 175.8 191.323 175.768 191.121 175.681C190.918 175.594 190.742 175.454 190.61 175.276C190.477 175.098 190.394 174.888 190.366 174.666C190.339 174.445 190.37 174.22 190.455 174.015L205.659 129.036C205.862 128.53 206.204 128.096 206.646 127.786C207.087 127.475 207.608 127.302 208.146 127.288H241.081C241.299 127.258 241.52 127.288 241.723 127.374C241.926 127.459 242.103 127.598 242.235 127.776C242.368 127.953 242.452 128.163 242.479 128.384C242.506 128.606 242.474 128.83 242.388 129.036L227.184 174.015C226.98 174.519 226.637 174.954 226.196 175.266C225.756 175.577 225.235 175.754 224.698 175.773Z" fill="#1877F2"/>
<path id="Vector_72" d="M224.114 174.349H192.304C192.182 174.366 192.058 174.349 191.944 174.301C191.831 174.252 191.732 174.174 191.659 174.074C191.585 173.974 191.539 173.855 191.525 173.731C191.512 173.607 191.531 173.481 191.581 173.367L206.604 128.885C206.72 128.603 206.912 128.361 207.159 128.186C207.406 128.013 207.697 127.914 207.996 127.903H239.87C239.992 127.887 240.116 127.904 240.229 127.953C240.342 128.002 240.441 128.079 240.515 128.179C240.589 128.278 240.637 128.396 240.652 128.519C240.668 128.643 240.651 128.769 240.603 128.885L225.57 173.367C225.45 173.659 225.248 173.907 224.988 174.082C224.729 174.257 224.425 174.35 224.114 174.349Z" fill="white"/>
<path id="Vector_73" opacity="0.2" d="M190.7 116.768L197.829 128.56C197.457 132.758 196.915 137.785 196.14 143.795L190.296 140.288C187.906 122.443 190.7 116.768 190.7 116.768Z" fill="black"/>
<g id="women-head_2">
<g id="Group 2">
<path id="Vector_74" d="M199.189 116.963C200.669 121.688 202.086 126.435 203.438 131.204L205.478 138.357L207.444 145.532L208.411 149.124L208.889 150.926C208.999 151.387 209.133 151.84 209.293 152.285C209.493 152.876 209.761 153.441 210.089 153.968C210.164 154.077 210.153 154.098 210.089 154.13C210.025 154.163 210.015 154.228 210.143 154.249C210.769 154.253 211.385 154.077 211.917 153.742C212.795 153.26 213.627 152.696 214.403 152.059C215.253 151.368 216.092 150.613 216.921 149.815C217.75 149.016 218.568 148.121 219.311 147.323L223.561 150.041C222.98 151.263 222.327 152.449 221.606 153.591C220.899 154.764 220.107 155.881 219.237 156.936C218.309 158.085 217.262 159.131 216.114 160.053C214.672 161.237 212.964 162.038 211.141 162.384C209.948 162.588 208.724 162.517 207.561 162.179C206.412 161.834 205.346 161.253 204.426 160.474C203.025 159.244 201.893 157.73 201.101 156.029C200.761 155.332 200.469 154.611 200.23 153.871L199.635 152.091L198.445 148.542L196.118 141.421L193.876 134.268C192.357 129.5 190.923 124.709 189.541 119.908L199.189 116.963Z" fill="#B55B52"/>
<path id="Vector_75" d="M218.005 149.222L221.787 139.857L226.419 148.887C226.419 148.887 222.913 154.281 218.833 153.85L218.005 149.222Z" fill="#B55B52"/>
<path id="Vector_76" d="M230.042 138.033L232.476 143.471L226.419 148.887L221.787 139.857L230.042 138.033Z" fill="#B55B52"/>
</g>
<path id="Vector_77" d="M228.768 141.745C228.673 141.747 228.581 141.726 228.497 141.682C228.414 141.639 228.342 141.575 228.289 141.496L217.251 126.155C217.159 126.023 217.121 125.859 217.148 125.7C217.173 125.54 217.26 125.398 217.389 125.302C217.517 125.21 217.676 125.172 217.831 125.199C217.987 125.225 218.126 125.313 218.217 125.443L229.245 140.785C229.314 140.873 229.357 140.98 229.368 141.093C229.379 141.205 229.358 141.318 229.308 141.42C229.258 141.52 229.18 141.605 229.084 141.662C228.989 141.72 228.879 141.749 228.768 141.745Z" fill="#263238"/>
</g>
<path id="Vector_78" d="M188.309 114.362C189.999 110.263 195.29 107.62 195.29 107.62C200.984 111.385 202.908 113.165 206.69 132.315C201.176 137.214 192.038 137.213 192.038 137.213L187.109 124.267C187.109 124.267 186.62 118.495 188.309 114.362Z" fill="#263238"/>
<path id="Vector_79" opacity="0.2" d="M152.738 264.738L170.874 266.766C171.608 262.365 172.362 257.284 173.095 251.802L153.11 249.72C152.993 255.06 152.908 260.143 152.738 264.738Z" fill="black"/>
<path id="Vector_80" opacity="0.2" d="M203.715 254.996L181.148 252.644C182.635 258.265 184.123 263.584 185.557 268.396L205.574 270.619C205.053 266.054 204.416 260.746 203.715 254.996Z" fill="black"/>
<g id="Group 12">
<path id="Vector_81" d="M156.106 114.665C156.106 115.064 156.106 115.743 156.106 116.272V118.02C156.106 119.192 156.16 120.368 156.266 121.548C156.428 123.876 156.726 126.193 157.158 128.485C157.942 132.87 159.567 137.057 161.939 140.806C162.81 141.95 162.47 141.766 163.214 142.284C164.007 142.787 164.856 143.192 165.743 143.492C167.928 144.245 170.165 144.833 172.436 145.251C177.164 146.157 182.168 146.783 187.077 147.29L187.215 152.372C182.01 153.063 176.754 153.269 171.512 152.987C168.748 152.857 166.002 152.467 163.31 151.821C161.755 151.442 160.247 150.885 158.816 150.16C157.921 149.685 157.09 149.098 156.34 148.412C156.127 148.218 155.915 147.992 155.702 147.765L155.309 147.301L154.587 146.427C152.76 144.098 151.238 141.538 150.061 138.81C148.914 136.183 148.024 133.447 147.405 130.643C146.773 127.907 146.343 125.126 146.119 122.324C146.024 120.933 145.96 119.541 145.938 118.139C145.938 117.437 145.938 116.736 145.938 116.035C145.938 115.334 145.992 114.675 146.066 113.78L156.106 114.665Z" fill="#B55B52"/>
<g id="Group 11">
<path id="Vector_82" d="M202.504 148.164L202.535 154.648L192.113 153.947L197.297 145.23L202.504 148.164Z" fill="#B55B52"/>
<g id="Group 10">
<path id="Vector_83" d="M159.474 110.878C158.487 109.733 157.71 108.417 157.179 106.993C156.851 106.047 156.768 105.031 156.938 104.042C157.108 103.054 157.526 102.126 158.151 101.349C158.777 100.572 159.589 99.9716 160.509 99.6053C161.429 99.239 162.427 99.1196 163.405 99.2577C166.39 99.6743 169.415 99.696 172.404 99.3227C179.183 98.4701 182.731 101.934 186.397 109.356C186.397 109.356 184.686 112.593 179.554 113.856C174.423 115.118 159.474 110.878 159.474 110.878Z" fill="#1877F2"/>
<g id="Group 9">
<path id="Vector_84" d="M146.268 106.81L156.892 111.18L162.555 117.556L163.289 126.349C163.289 126.349 150.911 135.887 144.334 134.98C142.061 118.818 143.484 109.928 146.268 106.81Z" fill="#263238"/>
<g id="Group 8">
<path id="Vector_85" d="M160.919 378.238H153.142C152.949 378.233 152.761 378.301 152.614 378.428C152.467 378.556 152.372 378.734 152.345 378.928L151.198 387.958C151.177 388.187 151.204 388.419 151.276 388.636C151.348 388.855 151.465 389.055 151.618 389.224C151.771 389.394 151.957 389.529 152.165 389.622C152.373 389.714 152.597 389.761 152.823 389.76C156.733 389.695 155.172 389.458 160.112 389.458C163.151 389.458 167.549 389.781 171.798 389.781C176.048 389.781 176.165 385.563 174.412 385.186C166.55 383.47 165.286 381.107 162.609 378.863C162.136 378.459 161.537 378.238 160.919 378.238Z" fill="#263238"/>
<g id="Group 7">
<path id="Vector_86" d="M198.057 113.778C198.216 121.039 197.207 136.155 192.182 167.54H152.116C152.786 150.979 153.582 140.567 145.742 106.625C151.129 105.501 156.591 104.786 162.082 104.489C168.137 104.047 174.216 104.047 180.271 104.489C184.192 104.856 188.378 105.493 191.565 106.054C193.363 106.374 194.994 107.321 196.179 108.731C197.364 110.14 198.028 111.926 198.057 113.778Z" fill="#263238"/>
<g id="Group 6">
<path id="Vector_87" d="M182.189 167.703C182.189 167.703 175.687 240.549 170.216 270.597C164.468 302.154 160.175 377.353 160.112 379.651H153.28C153.28 379.651 143.931 295.12 152.653 266.831C154.098 232.307 152.59 167.703 152.59 167.703H182.189Z" fill="#B55B52"/>
<g id="Group 5">
<g id="Group 4">
<path id="Vector_88" d="M192.655 167.703C192.655 167.703 202.663 244.617 206.084 274.977C211.131 319.816 222.403 379.63 222.403 379.63L215.678 380.848C215.678 380.848 192.177 322.319 188.628 277.998C177.483 245.35 161.493 167.703 161.493 167.703H192.655Z" fill="#B55B52"/>
<g id="Group 3">
<path id="Vector_89" d="M221.862 372.282L213.16 376.597C212.984 376.678 212.844 376.822 212.765 377.001C212.687 377.18 212.676 377.382 212.735 377.569L215.54 386.006C215.626 386.219 215.755 386.41 215.919 386.57C216.083 386.729 216.277 386.851 216.49 386.929C216.703 387.008 216.93 387.04 217.156 387.024C217.382 387.008 217.602 386.944 217.803 386.836C221.373 384.991 221.383 384.743 225.92 382.521C228.714 381.129 233.251 379.025 237.108 377.126C240.964 375.228 239.307 371.44 237.533 371.904C229.585 373.998 227.089 372.865 223.72 372.109C223.1 371.948 222.443 372.009 221.862 372.282Z" fill="#263238"/>
</g>
</g>
<path id="Vector_90" d="M192.655 167.703L207.104 268.191L150.922 260.962C156.404 217.947 139.755 183.455 152.59 167.703H192.655Z" fill="#1877F2"/>
</g>
</g>
</g>
</g>
</g>
</g>
</g>
</g>
<path id="Vector_91" opacity="0.2" d="M157.859 188.32C164.002 193.741 171.125 197.893 178.832 200.544C166.21 200.404 160.356 195.851 157.859 188.32Z" fill="black"/>
</g>
<defs>
<clipPath id="clip0">
<rect width="494" height="402" fill="white"/>
</clipPath>
</defs>
</svg>
