<svg width="579" height="432" viewBox="0 0 579 432" fill="none" xmlns="http://www.w3.org/2000/svg">
<path d="M579 379.129H0V379.419H579V379.129Z" fill="#EBEBEB"/>
<path d="M190.595 396.986H152.242V397.275H190.595V396.986Z" fill="#EBEBEB"/>
<path d="M299.737 393.847H289.674V394.137H299.737V393.847Z" fill="#EBEBEB"/>
<path d="M82.9707 388.961H60.7487V389.25H82.9707V388.961Z" fill="#EBEBEB"/>
<path d="M481.473 387.015H451.273V387.305H481.473V387.015Z" fill="#EBEBEB"/>
<path d="M440.955 387.015H413.811V387.305H440.955V387.015Z" fill="#EBEBEB"/>
<path d="M520.996 400.911H412.514V401.201H520.996V400.911Z" fill="#EBEBEB"/>
<path d="M274.446 327.482H50.8478C49.0961 327.479 47.4173 326.781 46.1797 325.542C44.9422 324.302 44.2472 322.622 44.2472 320.87V6.55428C44.2624 4.81268 44.9642 3.14742 46.2001 1.92022C47.4359 0.693015 49.1061 0.00298346 50.8478 0H274.446C276.2 0 277.881 0.696639 279.122 1.93666C280.362 3.17669 281.058 4.85852 281.058 6.61218V320.87C281.058 322.624 280.362 324.306 279.122 325.546C277.881 326.786 276.2 327.482 274.446 327.482V327.482ZM50.8478 0.231601C49.1729 0.234668 47.5677 0.902157 46.3844 2.08756C45.2012 3.27296 44.5367 4.87941 44.5367 6.55428V320.87C44.5367 322.545 45.2012 324.152 46.3844 325.337C47.5677 326.522 49.1729 327.19 50.8478 327.193H274.446C276.122 327.19 277.728 326.523 278.913 325.338C280.098 324.153 280.766 322.546 280.769 320.87V6.55428C280.766 4.87834 280.098 3.27192 278.913 2.08685C277.728 0.901781 276.122 0.234662 274.446 0.231601H50.8478Z" fill="#EBEBEB"/>
<path d="M524.933 327.482H301.323C299.57 327.479 297.89 326.782 296.651 325.542C295.412 324.303 294.714 322.623 294.711 320.87V6.55428C294.729 4.81162 295.434 3.14638 296.671 1.91949C297.909 0.69261 299.58 0.00295092 301.323 0H524.933C526.673 0.00602681 528.34 0.697405 529.573 1.92428C530.807 3.15116 531.507 4.81468 531.522 6.55428V320.87C531.522 322.62 530.829 324.298 529.594 325.538C528.359 326.777 526.683 327.476 524.933 327.482V327.482ZM301.323 0.231601C299.647 0.234662 298.041 0.901781 296.856 2.08685C295.671 3.27192 295.004 4.87834 295 6.55428V320.87C295.004 322.546 295.671 324.153 296.856 325.338C298.041 326.523 299.647 327.19 301.323 327.193H524.933C526.609 327.19 528.215 326.523 529.4 325.338C530.585 324.153 531.253 322.546 531.256 320.87V6.55428C531.253 4.87834 530.585 3.27192 529.4 2.08685C528.215 0.901781 526.609 0.234662 524.933 0.231601H301.323Z" fill="#EBEBEB"/>
<path d="M368.939 375.678H396.21V256.358H368.939V375.678Z" fill="#F0F0F0"/>
<path d="M270.914 379.129H390.987V375.678H270.914V379.129Z" fill="#F0F0F0"/>
<path d="M368.939 256.358H265.668V375.678H368.939V256.358Z" fill="#F5F5F5"/>
<path d="M358.216 263.051H276.391V313.355H358.216V263.051Z" fill="#F0F0F0"/>
<path d="M358.216 318.682H276.391V368.985H358.216V318.682Z" fill="#F0F0F0"/>
<path d="M338.518 271.817H296.101C294.774 271.819 293.461 271.558 292.235 271.05C291.01 270.542 289.897 269.797 288.961 268.858C288.025 267.918 287.283 266.803 286.78 265.576C286.276 264.349 286.02 263.034 286.026 261.708H348.558C348.564 263.031 348.309 264.343 347.808 265.568C347.306 266.793 346.568 267.906 345.635 268.845C344.703 269.784 343.594 270.53 342.373 271.04C341.151 271.55 339.842 271.814 338.518 271.817V271.817Z" fill="#F5F5F5"/>
<path d="M338.518 327.448H296.101C293.432 327.448 290.872 326.387 288.985 324.5C287.098 322.613 286.038 320.053 286.038 317.385H348.57C348.57 320.051 347.511 322.609 345.626 324.496C343.742 326.383 341.185 327.445 338.518 327.448V327.448Z" fill="#F5F5F5"/>
<path d="M480.315 375.678H507.586V256.358H480.315V375.678Z" fill="#F0F0F0"/>
<path d="M382.279 379.129H502.352V375.678H382.279V379.129Z" fill="#F0F0F0"/>
<path d="M480.315 256.358H377.045V375.678H480.315V256.358Z" fill="#F5F5F5"/>
<path d="M469.592 263.051H387.768V313.355H469.592V263.051Z" fill="#F0F0F0"/>
<path d="M469.592 318.682H387.768V368.985H469.592V318.682Z" fill="#F0F0F0"/>
<path d="M449.883 271.817H407.465C404.797 271.817 402.237 270.757 400.35 268.87C398.463 266.983 397.402 264.423 397.402 261.754H459.934C459.934 264.421 458.876 266.979 456.991 268.866C455.106 270.753 452.55 271.814 449.883 271.817V271.817Z" fill="#F5F5F5"/>
<path d="M449.883 327.448H407.465C404.797 327.448 402.237 326.387 400.35 324.5C398.463 322.613 397.402 320.053 397.402 317.385H459.934C459.934 320.051 458.876 322.609 456.991 324.496C455.106 326.383 452.55 327.445 449.883 327.448V327.448Z" fill="#F5F5F5"/>
<path d="M129.024 96.0445H175.738V42.047L129.024 42.047V96.0445Z" fill="#E6E6E6"/>
<path d="M123.698 96.0445H174.487V42.047L123.698 42.047V96.0445Z" fill="#F5F5F5"/>
<path d="M170.226 91.7946V46.3084H127.947V91.7946H170.226Z" fill="white"/>
<path d="M159.989 80.7705V79.1146C159.986 73.3386 157.69 67.8 153.606 63.7158C149.522 59.6315 143.983 57.3357 138.207 57.3326V57.3326V58.9885C138.207 64.7655 140.502 70.3058 144.587 74.3907C148.672 78.4756 154.212 80.7705 159.989 80.7705V80.7705Z" fill="#F5F5F5"/>
<path d="M331.929 197.96L507.598 197.96V33.6399L331.929 33.6399V197.96Z" fill="#E6E6E6"/>
<path d="M326.487 197.96L505.05 197.96V33.6399L326.487 33.6399V197.96Z" fill="#F0F0F0"/>
<path d="M331.929 203.82L507.598 203.82V197.96L331.929 197.96V203.82Z" fill="#E6E6E6"/>
<path d="M317.408 203.82L495.971 203.82V197.96L317.408 197.96V203.82Z" fill="#F0F0F0"/>
<path d="M497.419 189.136V42.4639L334.095 42.4639V189.136H497.419Z" fill="#FAFAFA"/>
<path d="M451.11 189.148L423.909 42.4639H379.094L406.296 189.148H451.11Z" fill="white"/>
<path d="M493.899 139.377C494.053 139.365 494.197 139.293 494.299 139.176C494.401 139.059 494.452 138.906 494.443 138.752V48.2075C494.443 48.0632 494.386 47.9248 494.283 47.8227C494.181 47.7206 494.043 47.6633 493.899 47.6633C493.754 47.6633 493.616 47.7206 493.514 47.8227C493.412 47.9248 493.354 48.0632 493.354 48.2075V138.752C493.345 138.906 493.396 139.059 493.498 139.176C493.6 139.293 493.744 139.365 493.899 139.377V139.377Z" fill="#F0F0F0"/>
<path d="M396.661 189.148L369.471 42.4639H351.997L379.187 189.148H396.661Z" fill="white"/>
<path d="M335.067 189.136V42.4639H334.095V189.136H335.067Z" fill="#E6E6E6"/>
<path opacity="0.4" d="M324.68 53.7544H500.337L501.043 45.9031H325.375L324.68 53.7544Z" fill="#E6E6E6"/>
<path opacity="0.4" d="M324.68 62.7983H500.337L501.043 54.9355H325.375L324.68 62.7983Z" fill="#E6E6E6"/>
<path opacity="0.4" d="M324.68 71.8307H500.337L501.043 63.9795H325.375L324.68 71.8307Z" fill="#E6E6E6"/>
<path opacity="0.4" d="M324.68 80.8747H500.337L501.043 73.0119H325.375L324.68 80.8747Z" fill="#E6E6E6"/>
<path opacity="0.4" d="M324.68 89.9071H500.337L501.043 82.0559H325.375L324.68 89.9071Z" fill="#E6E6E6"/>
<path opacity="0.4" d="M324.68 98.9511H500.337L501.043 91.0883H325.375L324.68 98.9511Z" fill="#E6E6E6"/>
<path opacity="0.4" d="M324.68 107.984H500.337L501.043 100.132H325.375L324.68 107.984Z" fill="#E6E6E6"/>
<path opacity="0.4" d="M324.68 117.027H500.337L501.043 109.165H325.375L324.68 117.027Z" fill="#E6E6E6"/>
<path opacity="0.4" d="M324.68 126.06H500.337L501.043 118.209H325.375L324.68 126.06Z" fill="#E6E6E6"/>
<path d="M95.9056 184.134H132.348V142.318H95.9056V184.134Z" fill="#E6E6E6"/>
<path d="M91.7831 184.134H131.12V142.318H91.7831V184.134Z" fill="#F5F5F5"/>
<path d="M127.832 180.833V145.607H95.0834V180.833H127.832Z" fill="white"/>
<path d="M119.888 163.869V162.583C119.888 161.475 119.669 160.378 119.245 159.354C118.821 158.331 118.199 157.401 117.414 156.618C116.63 155.835 115.7 155.214 114.676 154.791C113.651 154.368 112.554 154.151 111.446 154.153C109.218 154.165 107.086 155.059 105.515 156.638C103.944 158.218 103.062 160.355 103.062 162.583V163.869C103.062 166.104 103.95 168.249 105.531 169.83C107.112 171.411 109.256 172.299 111.492 172.299C113.722 172.29 115.857 171.397 117.431 169.817C119.004 168.237 119.888 166.098 119.888 163.869Z" fill="#F5F5F5"/>
<path d="M186.797 169.149H236.834V111.504H186.797V169.149Z" fill="#E6E6E6"/>
<path d="M181.123 169.149H235.34V111.504H181.123V169.149Z" fill="#F5F5F5"/>
<path d="M230.801 164.621V116.066H185.662V164.621H230.801Z" fill="white"/>
<path d="M210.119 131.329L218.688 146.174C218.879 146.505 218.98 146.881 218.98 147.263C218.98 147.646 218.879 148.021 218.688 148.352C218.496 148.683 218.221 148.958 217.89 149.149C217.559 149.34 217.183 149.44 216.801 149.44H199.662C199.28 149.44 198.904 149.34 198.573 149.149C198.242 148.958 197.967 148.683 197.775 148.352C197.584 148.021 197.483 147.646 197.483 147.263C197.483 146.881 197.584 146.505 197.775 146.174L206.344 131.329C206.537 131 206.813 130.727 207.144 130.537C207.475 130.348 207.85 130.248 208.232 130.248C208.613 130.248 208.988 130.348 209.319 130.537C209.65 130.727 209.926 131 210.119 131.329V131.329Z" fill="#F5F5F5"/>
<path d="M104.243 379.118H131.746V292.407H104.243L104.243 379.118Z" fill="#E6E6E6"/>
<path d="M109.466 379.129H104.243V364.272H114.943L109.466 379.129Z" fill="#F0F0F0"/>
<path d="M207.016 379.118H234.518V292.407H207.016V379.118Z" fill="#E6E6E6"/>
<path d="M104.255 370.004H211.578V292.407H104.255L104.255 370.004Z" fill="#F0F0F0"/>
<path d="M108.296 297.282V351.441H156.156V297.282H108.296Z" fill="#E6E6E6"/>
<path d="M159.665 297.282V351.441H207.525V297.282H159.665Z" fill="#E6E6E6"/>
<path d="M178.865 301.439H188.326C190.357 301.445 192.369 301.038 194.239 300.241C196.108 299.445 197.796 298.276 199.199 296.807H167.933C169.342 298.285 171.039 299.458 172.919 300.255C174.799 301.051 176.823 301.454 178.865 301.439V301.439Z" fill="#F0F0F0"/>
<path d="M127.009 301.439H136.482C138.514 301.444 140.525 301.037 142.395 300.24C144.264 299.444 145.952 298.276 147.356 296.807H116.09C117.498 298.282 119.193 299.454 121.071 300.25C122.949 301.047 124.97 301.451 127.009 301.439Z" fill="#F0F0F0"/>
<path d="M206.356 379.129H211.578V364.272H200.878L206.356 379.129Z" fill="#F0F0F0"/>
<path d="M178.042 280.792C178.04 281.972 178.388 283.126 179.042 284.108C179.696 285.09 180.626 285.857 181.716 286.31C182.805 286.763 184.005 286.883 185.163 286.654C186.32 286.425 187.384 285.858 188.219 285.024C189.054 284.191 189.623 283.128 189.854 281.971C190.085 280.814 189.968 279.614 189.517 278.524C189.066 277.433 188.302 276.501 187.321 275.846C186.34 275.19 185.186 274.84 184.006 274.84C182.427 274.843 180.914 275.47 179.797 276.586C178.679 277.701 178.049 279.213 178.042 280.792Z" fill="#E0E0E0"/>
<path d="M186.704 282.876C189.992 282.876 192.656 280.211 192.656 276.924C192.656 273.637 189.992 270.972 186.704 270.972C183.417 270.972 180.752 273.637 180.752 276.924C180.752 280.211 183.417 282.876 186.704 282.876Z" fill="#E0E0E0"/>
<path d="M148.224 281.753C148.224 282.93 148.573 284.081 149.227 285.06C149.881 286.039 150.811 286.802 151.898 287.252C152.986 287.703 154.183 287.82 155.337 287.591C156.492 287.361 157.552 286.794 158.385 285.962C159.217 285.129 159.784 284.069 160.014 282.914C160.244 281.76 160.126 280.563 159.675 279.475C159.225 278.388 158.462 277.458 157.483 276.804C156.504 276.15 155.353 275.801 154.176 275.801C152.598 275.801 151.084 276.428 149.967 277.544C148.851 278.66 148.224 280.174 148.224 281.753V281.753Z" fill="#E0E0E0"/>
<path d="M194.671 285.204C198.707 285.204 201.978 281.932 201.978 277.897C201.978 273.861 198.707 270.59 194.671 270.59C190.636 270.59 187.364 273.861 187.364 277.897C187.364 281.932 190.636 285.204 194.671 285.204Z" fill="#E0E0E0"/>
<path d="M172.889 271.169C172.887 272.615 173.314 274.028 174.115 275.232C174.917 276.435 176.057 277.373 177.392 277.928C178.727 278.483 180.197 278.629 181.615 278.348C183.033 278.068 184.336 277.373 185.359 276.351C186.382 275.33 187.079 274.028 187.362 272.61C187.645 271.192 187.501 269.723 186.948 268.387C186.396 267.051 185.459 265.909 184.257 265.106C183.055 264.302 181.642 263.873 180.196 263.873C178.261 263.876 176.406 264.646 175.037 266.013C173.668 267.38 172.896 269.234 172.889 271.169V271.169Z" fill="#E0E0E0"/>
<path d="M161.309 273.033C161.307 274.479 161.734 275.893 162.535 277.096C163.337 278.299 164.477 279.237 165.812 279.792C167.147 280.347 168.617 280.493 170.035 280.213C171.453 279.932 172.756 279.237 173.779 278.216C174.802 277.194 175.499 275.892 175.782 274.475C176.065 273.057 175.921 271.587 175.368 270.251C174.816 268.915 173.879 267.774 172.677 266.97C171.475 266.167 170.062 265.738 168.616 265.738C166.68 265.738 164.824 266.506 163.454 267.874C162.084 269.242 161.312 271.097 161.309 273.033V273.033Z" fill="#E0E0E0"/>
<path d="M166.208 278.927C166.208 280.302 166.615 281.645 167.379 282.788C168.142 283.93 169.227 284.821 170.497 285.347C171.766 285.872 173.163 286.01 174.511 285.742C175.859 285.474 177.097 284.812 178.069 283.84C179.04 282.869 179.702 281.631 179.97 280.283C180.238 278.935 180.101 277.538 179.575 276.269C179.049 274.999 178.158 273.914 177.016 273.15C175.873 272.387 174.53 271.979 173.156 271.979C171.313 271.979 169.546 272.711 168.243 274.014C166.94 275.317 166.208 277.085 166.208 278.927Z" fill="#E0E0E0"/>
<path d="M154.118 278.476C154.118 279.96 154.558 281.411 155.383 282.645C156.207 283.879 157.379 284.841 158.75 285.408C160.122 285.976 161.63 286.125 163.086 285.835C164.542 285.546 165.879 284.831 166.928 283.782C167.978 282.732 168.692 281.395 168.982 279.94C169.271 278.484 169.123 276.975 168.555 275.604C167.987 274.233 167.025 273.061 165.791 272.237C164.557 271.412 163.106 270.972 161.622 270.972C159.632 270.972 157.723 271.763 156.316 273.17C154.909 274.577 154.118 276.486 154.118 278.476V278.476Z" fill="#E0E0E0"/>
<path d="M206.321 280.792C206.321 280.792 205.51 292.372 174.163 292.372C142.816 292.372 141.994 280.792 141.994 280.792H206.321Z" fill="#F0F0F0"/>
<path d="M289.5 431.424C413.502 431.424 514.025 425.556 514.025 418.316C514.025 411.076 413.502 405.207 289.5 405.207C165.498 405.207 64.9754 411.076 64.9754 418.316C64.9754 425.556 165.498 431.424 289.5 431.424Z" fill="#F5F5F5"/>
<path d="M356.398 75.1542C355.456 72.0425 354.207 69.0323 352.669 66.1681L354.985 58.5832L340.012 43.5987L332.427 45.9147C329.563 44.3766 326.553 43.1276 323.441 42.1859L319.712 35.2379H298.521L294.804 42.1859C291.691 43.1254 288.681 44.3746 285.818 45.9147L278.233 43.5987L263.248 58.5832L265.564 66.1681C264.035 69.035 262.79 72.0447 261.847 75.1542L254.841 78.883V100.074L261.847 103.792C262.788 106.902 264.033 109.912 265.564 112.778L263.248 120.363L278.233 135.347L285.818 133.031C288.683 134.563 291.693 135.808 294.804 136.748L298.521 143.696H319.712L323.441 136.748C326.55 135.805 329.56 134.56 332.427 133.031L340.012 135.347L354.996 120.363L352.68 112.778C354.221 109.914 355.47 106.904 356.409 103.792L363.415 100.074V78.883L356.398 75.1542ZM309.117 119.575C303.162 119.575 297.341 117.809 292.389 114.501C287.438 111.193 283.579 106.49 281.3 100.989C279.022 95.4874 278.425 89.4337 279.587 83.5933C280.749 77.7529 283.616 72.3882 287.827 68.1775C292.038 63.9668 297.402 61.0993 303.243 59.9376C309.083 58.7759 315.137 59.3721 320.638 61.6509C326.14 63.9297 330.842 67.7887 334.15 72.74C337.459 77.6912 339.225 83.5123 339.225 89.4671C339.225 97.4522 336.052 105.11 330.406 110.757C324.76 116.403 317.102 119.575 309.117 119.575V119.575Z" fill="#407BFF"/>
<path opacity="0.2" d="M356.398 75.1542C355.456 72.0425 354.207 69.0323 352.669 66.1681L354.985 58.5832L340.012 43.5987L332.427 45.9147C329.563 44.3766 326.553 43.1276 323.441 42.1859L319.712 35.2379H298.521L294.804 42.1859C291.691 43.1254 288.681 44.3746 285.818 45.9147L278.233 43.5987L263.248 58.5832L265.564 66.1681C264.035 69.035 262.79 72.0447 261.847 75.1542L254.841 78.883V100.074L261.847 103.792C262.788 106.902 264.033 109.912 265.564 112.778L263.248 120.363L278.233 135.347L285.818 133.031C288.683 134.563 291.693 135.808 294.804 136.748L298.521 143.696H319.712L323.441 136.748C326.55 135.805 329.56 134.56 332.427 133.031L340.012 135.347L354.996 120.363L352.68 112.778C354.221 109.914 355.47 106.904 356.409 103.792L363.415 100.074V78.883L356.398 75.1542ZM309.117 119.575C303.162 119.575 297.341 117.809 292.389 114.501C287.438 111.193 283.579 106.49 281.3 100.989C279.022 95.4874 278.425 89.4337 279.587 83.5933C280.749 77.7529 283.616 72.3882 287.827 68.1775C292.038 63.9668 297.402 61.0993 303.243 59.9376C309.083 58.7759 315.137 59.3721 320.638 61.6509C326.14 63.9297 330.842 67.7887 334.15 72.74C337.459 77.6912 339.225 83.5123 339.225 89.4671C339.225 97.4522 336.052 105.11 330.406 110.757C324.76 116.403 317.102 119.575 309.117 119.575V119.575Z" fill="white"/>
<path d="M309.117 79.4967C307.142 79.4967 305.212 80.0821 303.571 81.1789C301.929 82.2758 300.65 83.8348 299.894 85.6587C299.139 87.4827 298.941 89.4897 299.326 91.426C299.712 93.3623 300.662 95.141 302.058 96.537C303.454 97.933 305.233 98.8836 307.169 99.2688C309.105 99.654 311.113 99.4563 312.936 98.7008C314.76 97.9453 316.319 96.6659 317.416 95.0243C318.513 93.3828 319.098 91.4529 319.098 89.4787C319.098 86.8313 318.047 84.2923 316.175 82.4203C314.303 80.5484 311.764 79.4967 309.117 79.4967V79.4967Z" fill="#407BFF"/>
<path d="M507.204 108.771C505.858 104.322 504.078 100.017 501.889 95.9171V95.9171L505.201 85.0783L483.812 63.69L472.962 67.0135C468.877 64.7992 464.573 63.0141 460.12 61.6866V61.6866L454.805 51.6815H424.523L419.196 61.6866C414.744 63.0183 410.441 64.8032 406.354 67.0135V67.0135L395.515 63.69L374.103 85.1014L377.415 95.9403C375.216 100.036 373.436 104.342 372.1 108.794L362.083 114.109V144.391L372.089 149.718C373.422 154.167 375.203 158.47 377.404 162.56L374.092 173.387L395.503 194.799L406.342 191.487C410.434 193.69 414.741 195.467 419.196 196.791L424.523 206.807H454.805L460.12 196.802C464.569 195.465 468.872 193.68 472.962 191.475L483.812 194.787L505.224 173.376L501.912 162.537C504.095 158.441 505.868 154.139 507.204 149.695V149.695L517.209 144.368V114.086L507.204 108.771ZM439.658 184.122C428.8 184.122 418.185 180.902 409.157 174.87C400.128 168.837 393.091 160.263 388.936 150.231C384.781 140.199 383.694 129.16 385.812 118.511C387.93 107.861 393.159 98.0785 400.837 90.4005C408.515 82.7225 418.298 77.4937 428.947 75.3753C439.597 73.257 450.636 74.3442 460.667 78.4995C470.699 82.6548 479.274 89.6916 485.306 98.72C491.339 107.748 494.559 118.363 494.559 129.221C494.559 136.431 493.139 143.57 490.38 150.231C487.621 156.892 483.577 162.944 478.479 168.042C473.381 173.14 467.328 177.184 460.667 179.943C454.007 182.702 446.868 184.122 439.658 184.122V184.122Z" fill="#407BFF"/>
<path d="M439.658 82.0211C430.321 82.0234 421.194 84.7943 413.432 89.9834C405.669 95.1724 399.62 102.547 396.048 111.174C392.477 119.801 391.543 129.293 393.366 138.45C395.189 147.608 399.687 156.019 406.29 162.621C412.893 169.222 421.305 173.717 430.463 175.538C439.621 177.359 449.113 176.423 457.739 172.85C466.365 169.276 473.738 163.225 478.925 155.461C484.112 147.697 486.881 138.57 486.881 129.233C486.866 116.714 481.885 104.713 473.032 95.862C464.179 87.011 452.176 82.0334 439.658 82.0211V82.0211ZM439.658 170.157C431.563 170.159 423.65 167.761 416.919 163.265C410.187 158.77 404.94 152.379 401.841 144.902C398.742 137.424 397.93 129.195 399.507 121.256C401.085 113.317 404.982 106.024 410.705 100.299C416.428 94.575 423.719 90.6763 431.658 89.0963C439.597 87.5163 447.826 88.326 455.304 91.4231C462.783 94.5202 469.175 99.7655 473.672 106.496C478.17 113.226 480.57 121.138 480.57 129.233C480.558 140.081 476.244 150.481 468.574 158.153C460.905 165.824 450.506 170.141 439.658 170.157V170.157Z" fill="#407BFF"/>
<path opacity="0.2" d="M439.658 82.0211C430.321 82.0234 421.194 84.7943 413.432 89.9834C405.669 95.1724 399.62 102.547 396.048 111.174C392.477 119.801 391.543 129.293 393.366 138.45C395.189 147.608 399.687 156.019 406.29 162.621C412.893 169.222 421.305 173.717 430.463 175.538C439.621 177.359 449.113 176.423 457.739 172.85C466.365 169.276 473.738 163.225 478.925 155.461C484.112 147.697 486.881 138.57 486.881 129.233C486.866 116.714 481.885 104.713 473.032 95.862C464.179 87.011 452.176 82.0334 439.658 82.0211V82.0211ZM439.658 170.157C431.563 170.159 423.65 167.761 416.919 163.265C410.187 158.77 404.94 152.379 401.841 144.902C398.742 137.424 397.93 129.195 399.507 121.256C401.085 113.317 404.982 106.024 410.705 100.299C416.428 94.575 423.719 90.6763 431.658 89.0963C439.597 87.5163 447.826 88.326 455.304 91.4231C462.783 94.5202 469.175 99.7655 473.672 106.496C478.17 113.226 480.57 121.138 480.57 129.233C480.558 140.081 476.244 150.481 468.574 158.153C460.905 165.824 450.506 170.141 439.658 170.157V170.157Z" fill="black"/>
<path d="M331.188 209.783C330.881 209.783 330.586 209.661 330.369 209.444C330.152 209.227 330.03 208.932 330.03 208.625V206.309C330.03 206.002 330.152 205.708 330.369 205.49C330.586 205.273 330.881 205.151 331.188 205.151C331.495 205.151 331.79 205.273 332.007 205.49C332.224 205.708 332.346 206.002 332.346 206.309V208.625C332.346 208.932 332.224 209.227 332.007 209.444C331.79 209.661 331.495 209.783 331.188 209.783Z" fill="#407BFF"/>
<path d="M313.158 179.861C312.095 179.177 311.263 178.188 310.772 177.023C310.651 176.741 310.423 176.518 310.137 176.404C309.851 176.29 309.532 176.294 309.25 176.416C308.967 176.537 308.744 176.765 308.63 177.051C308.516 177.337 308.52 177.656 308.642 177.938C309.322 179.52 310.454 180.865 311.896 181.806C312.082 181.926 312.299 181.991 312.521 181.991C312.772 181.993 313.016 181.914 313.218 181.765C313.42 181.616 313.567 181.405 313.639 181.165C313.711 180.925 313.703 180.668 313.616 180.433C313.529 180.197 313.369 179.997 313.158 179.861V179.861Z" fill="#407BFF"/>
<path d="M309.117 165.397C309.424 165.397 309.718 165.275 309.935 165.058C310.153 164.841 310.275 164.546 310.275 164.239V159.804C310.275 159.497 310.153 159.202 309.935 158.985C309.718 158.768 309.424 158.646 309.117 158.646C308.809 158.646 308.515 158.768 308.298 158.985C308.081 159.202 307.959 159.497 307.959 159.804V164.239C307.959 164.546 308.081 164.841 308.298 165.058C308.515 165.275 308.809 165.397 309.117 165.397Z" fill="#407BFF"/>
<path d="M321.171 180.88H316.725C316.417 180.88 316.123 181.002 315.906 181.219C315.689 181.436 315.567 181.73 315.567 182.038C315.567 182.345 315.689 182.639 315.906 182.856C316.123 183.074 316.417 183.196 316.725 183.196H321.171C321.478 183.196 321.773 183.074 321.99 182.856C322.207 182.639 322.329 182.345 322.329 182.038C322.329 181.73 322.207 181.436 321.99 181.219C321.773 181.002 321.478 180.88 321.171 180.88Z" fill="#407BFF"/>
<path d="M310.275 173.121V168.686C310.275 168.379 310.153 168.084 309.935 167.867C309.718 167.65 309.424 167.528 309.117 167.528C308.809 167.528 308.515 167.65 308.298 167.867C308.081 168.084 307.959 168.379 307.959 168.686V173.121C307.959 173.428 308.081 173.723 308.298 173.94C308.515 174.157 308.809 174.279 309.117 174.279C309.424 174.279 309.718 174.157 309.935 173.94C310.153 173.723 310.275 173.428 310.275 173.121Z" fill="#407BFF"/>
<path d="M332.277 188.407C332.236 188.103 332.077 187.827 331.834 187.641C331.591 187.454 331.284 187.371 330.98 187.411C330.829 187.436 330.684 187.491 330.555 187.572C330.425 187.653 330.313 187.76 330.225 187.884C330.136 188.009 330.074 188.15 330.04 188.3C330.007 188.449 330.003 188.603 330.03 188.754C330.067 189.023 330.086 189.293 330.088 189.565V193.039C330.088 193.346 330.21 193.64 330.427 193.857C330.644 194.075 330.939 194.197 331.246 194.197C331.553 194.197 331.848 194.075 332.065 193.857C332.282 193.64 332.404 193.346 332.404 193.039V189.565C332.387 189.176 332.344 188.789 332.277 188.407V188.407Z" fill="#407BFF"/>
<path d="M331.188 196.269C330.881 196.269 330.586 196.391 330.369 196.609C330.152 196.826 330.03 197.12 330.03 197.427V201.874C330.03 202.181 330.152 202.476 330.369 202.693C330.586 202.91 330.881 203.032 331.188 203.032C331.495 203.032 331.79 202.91 332.007 202.693C332.224 202.476 332.346 202.181 332.346 201.874V197.427C332.346 197.12 332.224 196.826 332.007 196.609C331.79 196.391 331.495 196.269 331.188 196.269Z" fill="#407BFF"/>
<path d="M330.181 183.809C329.047 182.515 327.55 181.591 325.884 181.158C325.737 181.12 325.583 181.111 325.432 181.132C325.282 181.154 325.137 181.204 325.005 181.282C324.874 181.359 324.759 181.462 324.668 181.583C324.576 181.705 324.51 181.844 324.472 181.991C324.434 182.139 324.425 182.292 324.446 182.443C324.468 182.594 324.518 182.739 324.596 182.87C324.673 183.002 324.776 183.116 324.898 183.208C325.019 183.299 325.158 183.366 325.305 183.404C326.522 183.718 327.616 184.392 328.444 185.338C328.552 185.461 328.686 185.56 328.835 185.628C328.985 185.696 329.148 185.731 329.312 185.732C329.535 185.731 329.752 185.667 329.939 185.546C330.126 185.425 330.274 185.253 330.366 185.05C330.457 184.848 330.489 184.623 330.456 184.403C330.423 184.182 330.327 183.977 330.181 183.809Z" fill="#407BFF"/>
<path d="M309.117 156.469C308.809 156.469 308.515 156.347 308.298 156.13C308.081 155.913 307.959 155.618 307.959 155.311V152.995C307.959 152.688 308.081 152.393 308.298 152.176C308.515 151.959 308.809 151.837 309.117 151.837C309.424 151.837 309.718 151.959 309.935 152.176C310.153 152.393 310.275 152.688 310.275 152.995V155.311C310.275 155.618 310.153 155.913 309.935 156.13C309.718 156.347 309.424 156.469 309.117 156.469Z" fill="#407BFF"/>
<path d="M386.042 268.089H117.919V272.385H386.042V268.089Z" fill="#407BFF"/>
<path d="M386.043 272.385H444.22V268.089H386.043V272.385Z" fill="#407BFF"/>
<path opacity="0.2" d="M386.043 272.385H444.22V268.089H386.043V272.385Z" fill="black"/>
<path d="M424.789 276.982H137.35L127.739 272.385H434.401L424.789 276.982Z" fill="#407BFF"/>
<path opacity="0.6" d="M424.789 276.982H137.35L127.739 272.385H434.401L424.789 276.982Z" fill="white"/>
<path d="M146.035 276.982V414.02H149.718L154.35 276.982H146.035Z" fill="#407BFF"/>
<path d="M189.507 276.982V414.02H193.189L197.821 276.982H189.507Z" fill="#407BFF"/>
<path d="M424.789 276.982V414.02H421.118L416.475 276.982H424.789Z" fill="#407BFF"/>
<path d="M381.329 276.982V414.02H377.647L373.015 276.982H381.329Z" fill="#407BFF"/>
<path d="M293.831 216.071L281.73 265.367L281.394 268.089H364.863L365.21 265.367L377.3 216.071H293.831Z" fill="#407BFF"/>
<path opacity="0.3" d="M293.831 216.071L281.73 265.367L281.394 268.089H364.863L365.21 265.367L377.3 216.071H293.831Z" fill="black"/>
<path d="M374.74 216.071H291.26L279.171 265.367H362.639L374.74 216.071Z" fill="#407BFF"/>
<path d="M360.868 263.109L371.869 218.329H293.032L282.042 263.109H360.868Z" fill="white"/>
<path d="M340.892 265.367L340.545 268.089H248.634L248.97 265.367H340.892Z" fill="#407BFF"/>
<path opacity="0.6" d="M340.892 265.367L340.545 268.089H248.634L248.97 265.367H340.892Z" fill="white"/>
<path d="M167.262 259.126C167.203 257.362 166.513 255.678 165.316 254.381C164.119 253.084 162.495 252.261 160.742 252.062V250.73C160.74 250.653 160.724 250.577 160.692 250.507C160.661 250.436 160.616 250.373 160.56 250.32C160.504 250.267 160.438 250.226 160.366 250.199C160.294 250.172 160.217 250.16 160.14 250.163H147.633C147.556 250.16 147.478 250.172 147.406 250.199C147.333 250.226 147.266 250.266 147.209 250.319C147.152 250.372 147.106 250.435 147.073 250.506C147.041 250.576 147.023 250.653 147.02 250.73V268.1H160.742V266.201C162.498 266.004 164.125 265.18 165.322 263.88C166.52 262.58 167.208 260.892 167.262 259.126ZM160.742 263.955V254.308C161.899 254.479 162.957 255.06 163.721 255.945C164.486 256.831 164.906 257.962 164.906 259.131C164.906 260.301 164.486 261.432 163.721 262.318C162.957 263.203 161.899 263.784 160.742 263.955V263.955Z" fill="#407BFF"/>
<path d="M401.316 268.089H412.943L409.504 242.624H401.316V268.089Z" fill="#263238"/>
<path d="M384.271 268.089H406.296L410.384 238.282H388.37L384.271 268.089Z" fill="#407BFF"/>
<path opacity="0.3" d="M384.271 268.089H406.296L410.384 238.282H388.37L384.271 268.089Z" fill="black"/>
<path d="M381.329 268.089H404.246L408.346 238.282H385.429L381.329 268.089Z" fill="#407BFF"/>
<path opacity="0.4" d="M402.22 265.738L405.671 240.632H387.455L384.004 265.738H402.22Z" fill="white"/>
<path d="M228.751 224.085L227.802 225.104L226.783 226.262C226.099 227.049 225.416 227.848 224.768 228.67C223.471 230.315 222.22 231.994 221.051 233.719C218.724 237.056 216.781 240.646 215.261 244.419C214.552 246.213 214.002 248.065 213.616 249.954C213.431 251.02 213.315 251.483 213.257 251.934C213.193 252.294 213.193 252.663 213.257 253.023C213.451 253.589 213.756 254.111 214.154 254.558C214.551 255.005 215.034 255.369 215.573 255.628C216.355 256.11 217.176 256.525 218.028 256.868C218.476 257.053 218.939 257.227 219.418 257.389C219.858 257.551 220.414 257.713 220.761 257.852V264.232C219.951 264.348 219.36 264.441 218.677 264.487C217.993 264.534 217.333 264.545 216.65 264.487C215.246 264.459 213.848 264.28 212.481 263.955C210.942 263.593 209.466 262.999 208.104 262.194C206.503 261.258 205.128 259.981 204.074 258.454C202.99 256.829 202.271 254.988 201.967 253.058C201.889 252.606 201.839 252.149 201.816 251.691C201.793 251.252 201.793 250.811 201.816 250.371V249.723C201.803 249.549 201.803 249.375 201.816 249.202L201.909 248.183C202.205 245.536 202.764 242.925 203.576 240.389C205.145 235.518 207.353 230.876 210.142 226.586C211.483 224.479 212.94 222.45 214.508 220.506C215.284 219.534 216.083 218.584 216.917 217.646C217.322 217.171 217.75 216.708 218.19 216.245C218.63 215.782 219.036 215.376 219.638 214.797L228.751 224.085Z" fill="#B55B52"/>
<path d="M218.457 257.713L223.853 253.753L226.922 264.846C226.922 264.846 222.139 266.618 218.491 264.232L218.457 257.713Z" fill="#B55B52"/>
<path d="M231.345 251.089L233.453 260.376L226.922 264.846L223.853 253.753L231.345 251.089Z" fill="#B55B52"/>
<path d="M265.471 181.516C265.228 182.2 265.402 182.883 265.854 183.033C266.305 183.184 266.861 182.767 267.093 182.084C267.324 181.401 267.162 180.706 266.722 180.555C266.282 180.405 265.715 180.822 265.471 181.516Z" fill="#263238"/>
<path d="M265.344 182.86C265.434 185.245 265.851 187.606 266.583 189.877C266 190.044 265.388 190.083 264.788 189.991C264.188 189.899 263.616 189.679 263.109 189.345L265.344 182.86Z" fill="#A02724"/>
<path d="M264.36 176.861C264.446 176.89 264.54 176.89 264.626 176.861C265.134 176.692 265.675 176.645 266.205 176.726C266.734 176.806 267.237 177.012 267.672 177.325C267.759 177.388 267.867 177.416 267.973 177.403C268.08 177.391 268.179 177.338 268.249 177.257C268.319 177.175 268.355 177.07 268.351 176.962C268.348 176.855 268.303 176.753 268.228 176.676C267.684 176.271 267.051 176.002 266.383 175.891C265.714 175.78 265.028 175.831 264.383 176.039C264.299 176.068 264.225 176.123 264.173 176.195C264.121 176.268 264.093 176.355 264.093 176.444C264.093 176.534 264.121 176.621 264.173 176.693C264.225 176.766 264.299 176.821 264.383 176.85L264.36 176.861Z" fill="#263238"/>
<path d="M240.077 184.041C241.374 190.63 242.659 202.708 238.05 207.108C238.05 207.108 239.857 213.79 252.108 213.79C265.576 213.79 258.547 207.108 258.547 207.108C251.193 205.348 251.379 199.894 252.664 194.776L240.077 184.041Z" fill="#B55B52"/>
<path d="M236.29 209.401C235.317 207.282 234.263 204.862 236.452 204.109C238.872 203.275 252.12 202.418 256.682 203.982C257.286 204.146 257.85 204.429 258.343 204.814C258.835 205.198 259.246 205.678 259.551 206.223C259.856 206.769 260.05 207.37 260.12 207.991C260.19 208.612 260.135 209.241 259.959 209.841L236.29 209.401Z" fill="#263238"/>
<path d="M282.552 220.703C285.389 225.81 288.435 231.067 291.515 236.116C294.595 241.165 297.826 246.191 301.277 250.776C302.134 251.934 303.025 253.035 303.906 254.135C304.346 254.702 304.809 255.165 305.26 255.686L305.932 256.451L306.106 256.648L306.187 256.74L306.268 256.844C306.807 257.366 307.456 257.762 308.167 258.002C309.261 258.383 310.39 258.659 311.537 258.825C317.166 259.393 322.841 259.327 328.455 258.628L330.215 264.765C328.652 265.46 327.193 265.923 325.641 266.502C324.089 267.081 322.561 267.463 321.009 267.857C317.72 268.682 314.348 269.133 310.958 269.2C309.055 269.231 307.154 269.041 305.295 268.633C303.013 268.18 300.861 267.222 298.996 265.83L298.22 265.194L298.034 265.031L297.919 264.916L297.699 264.696L296.795 263.804C296.205 263.213 295.556 262.646 295.024 262.021C293.866 260.805 292.777 259.589 291.77 258.338C287.724 253.449 283.992 248.309 280.595 242.948C278.904 240.308 277.275 237.641 275.708 234.947C274.133 232.225 272.616 229.562 271.146 226.69L282.552 220.703Z" fill="#B55B52"/>
<path d="M221.919 209.146C213.466 211.08 203.785 234.113 203.785 234.113L220.75 245.693C224.969 239.642 228.713 233.273 231.947 226.644C236.962 216.152 230.558 207.166 221.919 209.146Z" fill="#407BFF"/>
<path opacity="0.2" d="M227.964 223.83L219.951 245.183L220.738 245.739C220.738 245.739 224.212 240.864 227.964 234.287V223.83Z" fill="black"/>
<path d="M272.408 209.598C272.408 209.598 281.996 220.437 272.941 287.485H224.733C224.409 280.085 229.052 244.002 221.919 209.135C227.247 208.109 232.635 207.428 238.05 207.097C244.876 206.697 251.72 206.697 258.547 207.097C263.225 207.568 267.86 208.404 272.408 209.598V209.598Z" fill="#407BFF"/>
<path opacity="0.2" d="M267.046 228.994C268.304 236.604 271.593 243.734 276.565 249.63C276.762 245.311 276.843 241.431 276.831 237.969L267.046 228.994Z" fill="black"/>
<path d="M262.866 216.917C261.708 225.451 278.499 247.245 278.499 247.245L295.394 235.665C295.394 235.665 290.704 223.656 282.818 215.782C273.832 206.749 264.186 207.629 262.866 216.917Z" fill="#407BFF"/>
<path d="M326.556 258.686L333.435 255.86L340.51 261.21C340.51 261.21 333.759 267.185 327.621 264.858L326.556 258.686Z" fill="#B55B52"/>
<path d="M337.974 255.582L343.162 259.288L340.475 261.21L333.4 255.86L337.974 255.582Z" fill="#B55B52"/>
<path d="M243.076 172.09C240.667 180.706 238.814 185.627 241.57 191.429C245.704 200.172 257.458 199.929 262.414 192.216C266.861 185.268 270.057 172.345 262.97 166.127C261.414 164.745 259.531 163.783 257.499 163.334C255.467 162.885 253.353 162.963 251.36 163.56C249.366 164.158 247.559 165.255 246.109 166.748C244.659 168.241 243.615 170.08 243.076 172.09V172.09Z" fill="#B55B52"/>
<path d="M261.419 172.183C257.945 182.072 253.857 192.934 243.875 190.873C237.436 189.541 236.927 179.177 234.611 174.464C232.561 170.33 232.689 162.016 236.927 161.912C235.028 159.156 244.628 149.069 251.182 154.396C252.861 152.08 264.962 145.26 273.925 156.087C282.367 166.324 278.233 174.858 261.419 172.183Z" fill="#263238"/>
<path d="M253.602 178.506C253.37 180.715 253.866 182.939 255.015 184.84C256.555 187.318 258.813 186.369 259.647 183.832C260.388 181.516 260.469 177.521 258.327 175.912C256.184 174.302 253.926 175.842 253.602 178.506Z" fill="#B55B52"/>
<path d="M327.575 407.477C328.733 407.477 329.891 407.315 330.227 406.794C330.323 406.656 330.374 406.492 330.374 406.325C330.374 406.157 330.323 405.994 330.227 405.856C330.073 405.612 329.833 405.434 329.555 405.358C328.05 404.953 324.923 406.747 324.773 406.829C324.733 406.848 324.701 406.881 324.683 406.921C324.664 406.96 324.659 407.006 324.668 407.049C324.676 407.09 324.695 407.128 324.724 407.159C324.753 407.19 324.79 407.212 324.831 407.222C325.736 407.387 326.655 407.472 327.575 407.477V407.477ZM329.011 405.728C329.145 405.709 329.282 405.709 329.416 405.728C329.504 405.745 329.586 405.78 329.658 405.832C329.731 405.884 329.79 405.952 329.833 406.03C329.984 406.296 329.937 406.423 329.833 406.493C329.416 407.083 327.135 407.095 325.456 406.852C326.557 406.25 327.764 405.869 329.011 405.728Z" fill="#407BFF"/>
<path d="M324.854 407.222H324.946C326.035 406.736 328.189 404.79 328.015 403.748C328.015 403.505 327.807 403.216 327.228 403.146C327.02 403.128 326.81 403.152 326.611 403.215C326.413 403.279 326.228 403.381 326.07 403.517C324.912 404.455 324.68 406.886 324.668 406.991C324.664 407.028 324.669 407.065 324.684 407.1C324.698 407.134 324.72 407.164 324.75 407.188C324.781 407.206 324.817 407.218 324.854 407.222V407.222ZM327.054 403.575H327.181C327.563 403.575 327.587 403.771 327.598 403.818C327.702 404.431 326.232 405.96 325.12 406.62C325.212 405.6 325.617 404.634 326.278 403.852C326.494 403.668 326.77 403.569 327.054 403.575V403.575Z" fill="#407BFF"/>
<path d="M314.374 407.014H323.383L325.433 386.135H316.424L314.374 407.014Z" fill="#B55B52"/>
<path d="M323.893 405.972H314.061C313.88 405.973 313.705 406.035 313.564 406.149C313.423 406.262 313.325 406.42 313.285 406.597L311.502 414.564C311.456 414.758 311.455 414.96 311.499 415.155C311.543 415.349 311.631 415.531 311.756 415.686C311.882 415.842 312.041 415.966 312.221 416.051C312.402 416.135 312.6 416.177 312.799 416.174C316.342 416.116 321.472 415.907 325.931 415.907C331.153 415.907 335.658 416.185 341.772 416.185C345.478 416.185 346.508 412.445 344.957 412.109C337.904 410.569 332.149 410.407 326.058 406.643C325.412 406.224 324.663 405.992 323.893 405.972Z" fill="#263238"/>
<path opacity="0.2" d="M325.421 386.147L324.379 396.904H315.358L316.412 386.147H325.421Z" fill="black"/>
<path d="M291.457 407.465C291.839 407.515 292.227 407.489 292.599 407.388C292.971 407.286 293.319 407.112 293.622 406.875C293.729 406.728 293.786 406.552 293.786 406.371C293.786 406.19 293.729 406.014 293.622 405.867C293.554 405.74 293.458 405.63 293.342 405.544C293.226 405.458 293.092 405.398 292.951 405.369C291.631 405.057 289.141 406.759 289.037 406.829C289.004 406.854 288.978 406.888 288.962 406.926C288.945 406.965 288.939 407.007 288.944 407.049C288.952 407.089 288.972 407.125 289.001 407.154C289.03 407.183 289.066 407.202 289.106 407.211C289.879 407.379 290.667 407.465 291.457 407.465V407.465ZM292.615 405.752C292.7 405.74 292.785 405.74 292.87 405.752C292.953 405.764 293.031 405.795 293.1 405.844C293.168 405.892 293.224 405.956 293.264 406.03C293.46 406.389 293.345 406.527 293.264 406.585C292.881 407.083 291.04 407.095 289.685 406.875C290.557 406.285 291.55 405.901 292.592 405.752H292.615Z" fill="#407BFF"/>
<path d="M289.164 407.222H289.257C290.195 406.713 292.001 404.744 291.804 403.748C291.775 403.589 291.69 403.445 291.565 403.341C291.441 403.238 291.283 403.181 291.121 403.181C290.96 403.161 290.796 403.176 290.64 403.223C290.484 403.271 290.341 403.352 290.218 403.459C289.176 404.316 288.956 406.933 288.944 407.025C288.944 407.064 288.953 407.103 288.971 407.137C288.989 407.172 289.016 407.201 289.048 407.222C289.086 407.234 289.126 407.234 289.164 407.222V407.222ZM290.982 403.575H291.075C291.353 403.575 291.376 403.737 291.388 403.795C291.503 404.385 290.345 405.879 289.419 406.585C289.481 405.558 289.852 404.573 290.484 403.76C290.623 403.641 290.799 403.575 290.982 403.575V403.575Z" fill="#407BFF"/>
<path d="M278.835 407.014H287.844L292.372 386.135H283.363L278.835 407.014Z" fill="#B55B52"/>
<path d="M288.481 405.972H278.36C278.18 405.973 278.007 406.036 277.868 406.15C277.729 406.263 277.633 406.421 277.596 406.597L275.812 414.564C275.771 414.76 275.774 414.962 275.821 415.156C275.868 415.351 275.958 415.532 276.085 415.687C276.212 415.841 276.372 415.965 276.553 416.05C276.735 416.134 276.933 416.176 277.133 416.174C280.664 416.116 282.39 415.907 286.837 415.907C289.581 415.907 293.09 416.185 296.876 416.185C300.663 416.185 301.149 412.445 299.598 412.109C292.65 410.592 292.175 408.496 289.952 406.493C289.542 406.145 289.018 405.96 288.481 405.972V405.972Z" fill="#263238"/>
<g opacity="0.2">
<path opacity="0.2" d="M283.363 386.147H292.372L290.033 396.904H281.023L283.363 386.147Z" fill="black"/>
</g>
<path d="M272.941 287.497C272.941 287.497 340.452 294.642 339.711 329.08C339.232 350.709 335.074 372.098 327.413 392.33H314.026C314.026 392.33 314.71 370.479 314.258 335.218C314.119 324.645 292.777 321.16 271.922 319.932C263.09 319.377 254.589 316.365 247.379 311.235C240.168 306.105 234.534 299.062 231.114 290.901L229.689 287.497H272.941Z" fill="#263238"/>
<path d="M330.69 388.741C330.76 388.741 329.822 395.075 329.822 395.075H311.294L310.784 389.424L330.69 388.741Z" fill="#407BFF"/>
<path d="M258.489 287.497C258.489 287.497 307.426 303.709 308.665 323.812C310.981 360.798 292.789 392.33 292.789 392.33H279.275C279.275 392.33 284.405 376.697 286.223 343.185C288.539 301.092 209.992 343.115 224.71 287.497H258.489Z" fill="#263238"/>
<path d="M296.876 388.741C296.946 388.741 295.174 395.075 295.174 395.075H276.646L276.982 389.424L296.876 388.741Z" fill="#407BFF"/>
<path d="M293.785 322.955H218.515C218.515 320.676 219.42 318.49 221.031 316.879C222.643 315.268 224.828 314.362 227.107 314.362H285.192C287.471 314.362 289.657 315.268 291.268 316.879C292.879 318.49 293.785 320.676 293.785 322.955V322.955Z" fill="#407BFF"/>
<path d="M222 322.943L210.652 418.084H213.084L227.478 322.943H222Z" fill="#407BFF"/>
<path opacity="0.4" d="M222 322.943L210.652 418.084H213.084L227.478 322.943H222Z" fill="black"/>
<path d="M237.182 322.943L236.962 418.084H239.382L242.659 322.943H237.182Z" fill="#407BFF"/>
<path opacity="0.4" d="M237.182 322.943L236.962 418.084H239.382L242.659 322.943H237.182Z" fill="black"/>
<path d="M290.299 322.943L301.647 418.084H299.216L284.833 322.943H290.299Z" fill="#407BFF"/>
<path opacity="0.4" d="M290.299 322.943L301.647 418.084H299.216L284.833 322.943H290.299Z" fill="black"/>
<path d="M275.118 322.943L275.338 418.084H272.917L269.64 322.943H275.118Z" fill="#407BFF"/>
<path opacity="0.4" d="M275.118 322.943L275.338 418.084H272.917L269.64 322.943H275.118Z" fill="black"/>
</svg>
