<svg width="223" height="140" viewBox="0 0 223 140" fill="none" xmlns="http://www.w3.org/2000/svg">
<g clip-path="url(#clip0)">
<path d="M68.5741 94.9836C67.7861 94.9836 66.9982 95.078 66.2465 95.2777C61.9738 96.4137 57.4802 97.1423 52.7493 97.1423C48.0183 97.1423 43.5247 96.4137 39.2487 95.2777C38.4971 95.078 37.7124 94.9836 36.9245 94.9836C16.4643 94.9836 -0.108873 108.605 -7.7755e-05 125.373C0.0460779 132.459 7.16394 138.158 15.8247 138.158H89.6738C98.3346 138.158 105.452 132.459 105.499 125.373C105.607 108.605 89.0342 94.9836 68.5741 94.9836ZM52.7493 86.3487C70.2291 86.3487 84.3989 74.751 84.3989 60.4441C84.3989 46.1372 70.2291 34.5395 52.7493 34.5395C35.2695 34.5395 21.0997 46.1372 21.0997 60.4441C21.0997 74.751 35.2695 86.3487 52.7493 86.3487ZM195.172 0H68.5741C59.8474 0 52.7493 6.00393 52.7493 13.3813V25.9046C60.4705 25.9046 67.618 27.7341 73.849 30.7078V17.2697H189.898V94.9836H168.798V77.7138H126.598V94.9836H101.463C107.76 99.4872 112.382 105.434 114.548 112.253H195.172C203.899 112.253 210.997 106.249 210.997 98.8719V13.3813C210.997 6.00393 203.899 0 195.172 0Z" fill="#1877F2"/>
</g>
<defs>
<clipPath id="clip0">
<rect width="222.72" height="140" fill="white"/>
</clipPath>
</defs>
</svg>
