<svg width="819" height="611" viewBox="0 0 819 611" fill="none" xmlns="http://www.w3.org/2000/svg">
<path d="M818.757 536.122H0V536.531H818.757V536.122Z" fill="#E6E6E6"/>
<path d="M125.695 553.349H95.8762V553.758H125.695V553.349Z" fill="#E6E6E6"/>
<path d="M195.928 553.152H137.715V553.561H195.928V553.152Z" fill="#E6E6E6"/>
<path d="M277.182 562.715H230.005V563.125H277.182V562.715Z" fill="#E6E6E6"/>
<path d="M429.88 545.243H335.264V545.652H429.88V545.243Z" fill="#E6E6E6"/>
<path d="M701.118 552.366H616.426V552.775H701.118V552.366Z" fill="#E6E6E6"/>
<path d="M607.338 552.366H591.224V552.775H607.338V552.366Z" fill="#E6E6E6"/>
<path d="M741.794 562.502H725.681V562.912H741.794V562.502Z" fill="#E6E6E6"/>
<path d="M388.09 463.089H71.9029C69.4259 463.084 67.0519 462.097 65.3019 460.344C63.5519 458.591 62.5691 456.216 62.5691 453.739V9.26832C62.5907 6.80555 63.583 4.45073 65.3307 2.71535C67.0783 0.979983 69.44 0.00421887 71.9029 0H388.09C390.57 0 392.948 0.985108 394.702 2.73861C396.456 4.49211 397.441 6.87037 397.441 9.3502V453.739C397.441 456.218 396.456 458.597 394.702 460.35C392.948 462.104 390.57 463.089 388.09 463.089ZM71.9029 0.327504C69.5345 0.331842 67.2646 1.27573 65.5914 2.95199C63.9182 4.62825 62.9785 6.89991 62.9785 9.26832V453.739C62.9785 456.107 63.9182 458.379 65.5914 460.055C67.2646 461.731 69.5345 462.675 71.9029 462.679H388.09C390.46 462.675 392.732 461.732 394.408 460.056C396.084 458.38 397.027 456.108 397.031 453.739V9.26832C397.027 6.8984 396.084 4.62678 394.408 2.95099C392.732 1.2752 390.46 0.331833 388.09 0.327504H71.9029Z" fill="#E6E6E6"/>
<path d="M742.301 463.089H426.097C423.619 463.084 421.243 462.098 419.49 460.345C417.738 458.593 416.751 456.217 416.747 453.739V9.26832C416.773 6.80405 417.769 4.44925 419.519 2.71433C421.269 0.979411 423.633 0.00417286 426.097 0H742.301C744.761 0.00852243 747.119 0.986191 748.863 2.7211C750.607 4.45601 751.597 6.80837 751.619 9.26832V453.739C751.619 456.213 750.638 458.586 748.892 460.339C747.145 462.091 744.775 463.08 742.301 463.089ZM426.097 0.327504C423.727 0.331833 421.456 1.2752 419.78 2.95099C418.104 4.62678 417.161 6.8984 417.156 9.26832V453.739C417.161 456.108 418.104 458.38 419.78 460.056C421.456 461.732 423.727 462.675 426.097 462.679H742.301C744.671 462.675 746.943 461.732 748.618 460.056C750.294 458.38 751.238 456.108 751.242 453.739V9.26832C751.238 6.8984 750.294 4.62678 748.618 2.95099C746.943 1.2752 744.671 0.331833 742.301 0.327504H426.097Z" fill="#E6E6E6"/>
<path d="M519.075 30.7689H94.3208V221.998H519.075V30.7689Z" fill="#E0E0E0"/>
<path d="M527.984 30.7689H98.4802V221.998H527.984V30.7689Z" fill="#F0F0F0"/>
<path d="M519.075 221.998H94.3208V238.553H519.075V221.998Z" fill="#E0E0E0"/>
<path d="M542.836 221.998H113.332V238.553H542.836V221.998Z" fill="#EBEBEB"/>
<path d="M515.506 209.52V43.2467L110.958 43.2467V209.52L515.506 209.52Z" fill="#FAFAFA"/>
<path d="M188.429 209.52L261.642 43.2467H296.193L222.997 209.52H188.429Z" fill="white"/>
<path d="M116.738 180.274C116.504 180.274 116.279 180.181 116.113 180.015C115.947 179.849 115.854 179.624 115.854 179.39V51.3525C115.854 51.1179 115.947 50.893 116.113 50.7272C116.279 50.5614 116.504 50.4682 116.738 50.4682C116.973 50.4682 117.198 50.5614 117.364 50.7272C117.529 50.893 117.623 51.1179 117.623 51.3525V179.39C117.623 179.624 117.529 179.849 117.364 180.015C117.198 180.181 116.973 180.274 116.738 180.274Z" fill="#EBEBEB"/>
<path d="M230.415 209.52L303.628 43.2467H317.104L243.891 209.52H230.415Z" fill="white"/>
<path d="M515.522 209.52V43.2467H513.934V209.52H515.522Z" fill="#E0E0E0"/>
<path d="M530.931 59.1961H106.177L105.03 48.0938H529.785L530.931 59.1961Z" fill="#E0E0E0"/>
<path d="M530.931 67.3345H106.177L105.03 56.2158H529.785L530.931 67.3345Z" fill="#E0E0E0"/>
<path d="M530.931 77.0942H106.177L105.03 65.9754H529.785L530.931 77.0942Z" fill="#E0E0E0"/>
<path d="M530.931 87.9509H106.177L105.03 76.8322H529.785L530.931 87.9509Z" fill="#E0E0E0"/>
<path d="M530.931 100.953H106.177L105.03 89.8504H529.785L530.931 100.953Z" fill="#E0E0E0"/>
<path d="M530.931 115.592H106.177L105.03 104.49H529.785L530.931 115.592Z" fill="#E0E0E0"/>
<path d="M699.513 44.8843H592.272V185.841H699.513V44.8843Z" fill="#E0E0E0"/>
<path d="M706.816 44.8843H596.055V185.841H706.816V44.8843Z" fill="#F5F5F5"/>
<path d="M697.548 176.573V54.169L605.339 54.169V176.573H697.548Z" fill="white"/>
<path d="M673.886 138.714H649.945C644.156 138.705 638.606 136.4 634.514 132.305C630.422 128.21 628.122 122.659 628.117 116.869V92.9289C628.117 92.8128 628.14 92.6978 628.185 92.5905C628.229 92.4832 628.294 92.3858 628.376 92.3036C628.458 92.2215 628.556 92.1564 628.663 92.112C628.77 92.0675 628.885 92.0446 629.001 92.0446H652.942C658.728 92.0533 664.275 94.3558 668.367 98.4475C672.459 102.539 674.761 108.086 674.77 113.873V137.813C674.77 138.049 674.677 138.276 674.512 138.444C674.347 138.613 674.122 138.71 673.886 138.714ZM629.902 93.8295V116.869C629.906 122.185 632.019 127.283 635.776 131.043C639.534 134.804 644.629 136.92 649.945 136.929H673.018V113.873C673.009 108.557 670.892 103.461 667.132 99.7038C663.371 95.9464 658.274 93.8339 652.958 93.8295H629.902Z" fill="#EBEBEB"/>
<path d="M402.304 314.403C402.304 319.315 405.759 322.819 400.798 322.819C395.836 322.819 384.423 319.364 384.423 314.403C384.423 312.014 385.371 309.723 387.061 308.034C388.75 306.345 391.04 305.396 393.429 305.396C395.818 305.396 398.108 306.345 399.797 308.034C401.486 309.723 402.435 312.014 402.435 314.403H402.304Z" fill="#E6E6E6"/>
<path d="M417.664 318.709C417.664 323.622 421.12 327.11 416.158 327.11C411.196 327.11 399.783 323.655 399.783 318.709C399.783 316.321 400.732 314.03 402.421 312.341C404.11 310.652 406.4 309.703 408.789 309.703C411.178 309.703 413.468 310.652 415.157 312.341C416.846 314.03 417.795 316.321 417.795 318.709H417.664Z" fill="#E6E6E6"/>
<path d="M432.385 316.04C432.385 320.953 435.84 324.44 430.879 324.44C425.917 324.44 414.504 320.985 414.504 316.04C414.504 313.651 415.453 311.361 417.142 309.672C418.831 307.983 421.121 307.034 423.51 307.034C425.899 307.034 428.189 307.983 429.878 309.672C431.567 311.361 432.516 313.651 432.516 316.04H432.385Z" fill="#E6E6E6"/>
<path d="M378.855 317.235C378.855 317.235 379.592 334.74 407.725 334.74C435.857 334.74 436.594 317.235 436.594 317.235H378.855Z" fill="#F5F5F5"/>
<path d="M437.625 211.452H601.999L611.546 310.669H447.172L437.625 211.452Z" fill="#E6E6E6"/>
<path d="M520.058 232.822H545.521L534.157 332.039H508.693L520.058 232.822Z" fill="#E6E6E6"/>
<path d="M547.093 232.822L537.547 316.171L535.729 332.039H510.266L512.083 316.171L521.63 232.822H547.093Z" fill="#F0F0F0"/>
<path d="M547.094 232.822L537.547 316.171H512.083L521.63 232.822H547.094Z" fill="#E6E6E6"/>
<path d="M439.148 211.452H607.174L616.72 310.669H448.695L439.148 211.452Z" fill="#F0F0F0"/>
<path d="M452.936 306.149L444.241 215.988H602.932L611.628 306.149H452.936Z" fill="white"/>
<path d="M518.682 332.039H496.167V334.757H518.682V332.039Z" fill="#E6E6E6"/>
<path d="M518.683 334.757H556.214V332.039H518.683V334.757Z" fill="#F0F0F0"/>
<path d="M700.823 334.757H688.067V536.122H700.823V334.757Z" fill="#E6E6E6"/>
<path d="M704.852 334.757H695.993V536.122H704.852V334.757Z" fill="#F0F0F0"/>
<path d="M195.077 350.428L707.586 350.428V334.757L195.077 334.757V350.428Z" fill="#F0F0F0"/>
<path d="M189.379 350.428H176.622V536.122H189.379V350.428Z" fill="#E0E0E0"/>
<path d="M193.39 350.428H184.531V536.122H193.39V350.428Z" fill="#F0F0F0"/>
<path d="M108.632 350.428H95.8762V536.122H108.632V350.428Z" fill="#E0E0E0"/>
<path d="M112.661 350.428H103.802V536.122H112.661V350.428Z" fill="#F0F0F0"/>
<path d="M620.094 350.428H607.338V536.122H620.094V350.428Z" fill="#E6E6E6"/>
<path d="M624.122 350.428H615.263V536.122H624.122V350.428Z" fill="#F0F0F0"/>
<path d="M195.077 334.757H95.8762V350.428H195.077V334.757Z" fill="#E0E0E0"/>
<path d="M193.406 268.405H299.861L315.303 331.269H208.832L193.406 268.405Z" fill="#E6E6E6"/>
<path d="M208.832 331.269L209.258 334.757H315.729L315.303 331.269H208.832Z" fill="#E6E6E6"/>
<path d="M196.682 268.405H303.153L318.578 331.269H212.107L196.682 268.405Z" fill="#F0F0F0"/>
<path d="M214.367 328.403L200.334 271.271H300.893L314.911 328.403H214.367Z" fill="white"/>
<path d="M239.847 331.269L240.272 334.757H357.518L357.093 331.269H239.847Z" fill="#FAFAFA"/>
<path d="M325.865 536.122H322.312L312.192 486.211L310.424 477.466L299.37 423.084H256.992L234.066 536.073H230.513L253.815 421.005C253.894 420.624 254.099 420.28 254.395 420.028C254.692 419.776 255.064 419.63 255.452 419.613H300.648C301.043 419.608 301.426 419.747 301.727 420.003C302.028 420.258 302.226 420.614 302.285 421.005L311.979 468.771L313.764 477.499L325.865 536.122Z" fill="#F0F0F0"/>
<path d="M393.838 536.122H390.301L367.376 423.133H324.997L313.944 477.548L312.176 486.26L302.039 536.171H298.502L310.407 477.515L312.159 468.82L321.87 421.054C321.947 420.672 322.15 420.326 322.447 420.074C322.744 419.821 323.118 419.676 323.507 419.662H368.686C369.077 419.673 369.452 419.817 369.749 420.07C370.047 420.323 370.25 420.67 370.324 421.054L393.838 536.122Z" fill="#F0F0F0"/>
<path d="M289.447 421.349H367.261C374.414 421.372 381.29 418.586 386.411 413.592C391.531 408.597 394.486 401.792 394.641 394.641L397.539 276.363C397.591 273.72 397.116 271.092 396.14 268.635C395.165 266.177 393.709 263.939 391.857 262.052C390.006 260.164 387.797 258.664 385.359 257.641C382.921 256.617 380.304 256.09 377.66 256.091H328.796C323.916 256.091 319.206 257.887 315.564 261.137C311.922 264.386 309.603 268.861 309.048 273.71L289.447 421.349Z" fill="#E0E0E0"/>
<path d="M331.891 421.349H248.968C247.938 421.349 246.951 420.94 246.223 420.212C245.496 419.484 245.087 418.497 245.087 417.468V417.107C245.087 414.28 246.21 411.569 248.209 409.57C250.208 407.57 252.92 406.447 255.747 406.447H331.891V421.349Z" fill="#E0E0E0"/>
<path d="M596.055 536.122H592.502L582.382 486.211L580.597 477.466L569.56 423.084H527.28L504.354 536.073H500.801L524.185 420.956C524.264 420.575 524.469 420.231 524.765 419.979C525.062 419.727 525.433 419.581 525.822 419.564H571.018C571.413 419.559 571.796 419.698 572.097 419.953C572.398 420.209 572.596 420.565 572.655 420.956L582.349 468.722L584.134 477.45L596.055 536.122Z" fill="#F0F0F0"/>
<path d="M664.061 536.122H660.524L637.599 423.133H595.22L584.167 477.548L582.398 486.26L572.262 536.171H568.725L580.613 477.515L582.382 468.82L592.092 421.054C592.169 420.672 592.373 420.326 592.67 420.074C592.967 419.821 593.34 419.676 593.73 419.662H638.909C639.299 419.673 639.674 419.817 639.972 420.07C640.27 420.323 640.472 420.67 640.546 421.054L664.061 536.122Z" fill="#F0F0F0"/>
<path d="M559.669 421.349H637.484C644.631 421.363 651.499 418.574 656.612 413.58C661.726 408.586 664.676 401.786 664.831 394.641L667.729 276.363C667.781 273.72 667.306 271.092 666.33 268.635C665.354 266.177 663.898 263.939 662.047 262.052C660.196 260.164 657.987 258.664 655.549 257.641C653.111 256.617 650.494 256.09 647.85 256.091H599.019C594.138 256.091 589.428 257.887 585.786 261.137C582.145 264.386 579.825 268.861 579.27 273.71L559.669 421.349Z" fill="#F0F0F0"/>
<path d="M602.114 421.349H519.19C518.161 421.349 517.174 420.94 516.446 420.212C515.718 419.484 515.309 418.497 515.309 417.468V417.107C515.309 414.28 516.432 411.569 518.431 409.57C520.431 407.57 523.142 406.447 525.969 406.447H602.114V421.349Z" fill="#F0F0F0"/>
<path d="M163.571 309.13C163.264 309.146 162.958 309.179 162.654 309.228V307.165C162.654 306.479 162.382 305.821 161.896 305.335C161.411 304.85 160.753 304.578 160.067 304.578H139.876C139.189 304.578 138.529 304.85 138.041 305.334C137.553 305.819 137.277 306.477 137.273 307.165V334.741H162.654V330.106C162.958 330.15 163.264 330.177 163.571 330.188C165.596 330.188 167.539 329.385 168.973 327.954C170.406 326.524 171.214 324.583 171.218 322.557V316.777C171.214 314.75 170.407 312.808 168.974 311.374C167.541 309.941 165.598 309.134 163.571 309.13ZM167.943 322.557C167.939 323.714 167.476 324.822 166.657 325.638C165.837 326.455 164.728 326.913 163.571 326.913C163.263 326.914 162.955 326.881 162.654 326.815V312.503C162.957 312.445 163.263 312.412 163.571 312.405C164.729 312.409 165.839 312.871 166.658 313.69C167.477 314.509 167.939 315.619 167.943 316.777V322.557Z" fill="#E0E0E0"/>
<path d="M409.378 610.072C584.727 610.072 726.876 601.773 726.876 591.535C726.876 581.298 584.727 572.999 409.378 572.999C234.029 572.999 91.8809 581.298 91.8809 591.535C91.8809 601.773 234.029 610.072 409.378 610.072Z" fill="#F5F5F5"/>
<path d="M227.287 209.11L228.204 223.619L237.243 223.93L239.601 209.782L227.287 209.11Z" fill="#E4897B"/>
<path d="M311.128 182.468C308.639 190.23 305.904 197.697 302.858 205.213C299.794 212.858 296.295 220.32 292.378 227.565L290.741 230.382L288.907 233.247C288.727 233.509 288.661 233.657 288.399 234.017C288.137 234.377 287.924 234.688 287.662 235.016C287.151 235.684 286.605 236.323 286.025 236.932C284.74 238.243 283.259 239.348 281.636 240.207C278.537 241.784 275.068 242.491 271.598 242.254C268.838 242.039 266.13 241.387 263.574 240.321C261.366 239.439 259.249 238.342 257.254 237.046C255.37 235.872 253.565 234.575 251.85 233.165C250.189 231.812 248.599 230.374 247.085 228.859C245.539 227.354 244.075 225.769 242.696 224.11L249.246 217.036C250.72 217.904 252.406 218.952 253.995 219.852C255.583 220.753 257.27 221.588 258.907 222.407C261.888 223.923 265.038 225.083 268.29 225.862C269.455 226.097 270.65 226.135 271.827 225.977C272.728 225.846 273.072 225.551 273.187 225.338L273.432 224.929L273.612 224.569L273.727 224.339L273.973 223.848L275.152 221.621L276.314 219.197C279.344 212.566 282.127 205.344 284.78 198.106C287.433 190.869 290.102 183.483 292.673 176.278L311.128 182.468Z" fill="#E4897B"/>
<path d="M249.541 217.249L239.618 209.782L237.243 223.93C237.243 223.93 245.431 230.185 251.293 224.732L249.541 217.249Z" fill="#E4897B"/>
<path d="M319.757 169.352C323.917 180.356 301.892 219.558 301.892 219.558L274.234 210.142C274.234 210.142 284.059 183.254 292.509 170.612C301.302 157.627 315.205 157.201 319.757 169.352Z" fill="#407BFF"/>
<path opacity="0.3" d="M319.757 169.352C323.917 180.356 301.892 219.558 301.892 219.558L274.234 210.142C274.234 210.142 284.059 183.254 292.509 170.612C301.302 157.627 315.205 157.201 319.757 169.352Z" fill="black"/>
<path d="M305.151 160.918C305.151 160.918 290.609 188.412 304.414 257.63H370.258C370.717 247.526 364.363 207.915 374.106 160.296C366.828 158.887 359.465 157.957 352.065 157.512C342.745 156.972 333.401 156.972 324.08 157.512C317.691 158.154 311.362 159.293 305.151 160.918Z" fill="#407BFF"/>
<path opacity="0.3" d="M305.151 160.918C305.151 160.918 290.609 188.412 304.414 257.63H370.258C370.717 247.526 364.363 207.915 374.106 160.296C366.828 158.887 359.465 157.957 352.065 157.512C342.745 156.972 333.401 156.972 324.08 157.512C317.691 158.154 311.362 159.293 305.151 160.918Z" fill="black"/>
<path d="M387.239 580.728H375.203L372.927 552.874H384.947L387.239 580.728Z" fill="#E4897B"/>
<path d="M372.927 552.89L374.106 567.235H386.142L384.963 552.89H372.927Z" fill="#CE6F64"/>
<path d="M316.499 580.728H304.479L304.07 552.874H316.106L316.499 580.728Z" fill="#E4897B"/>
<path d="M304.07 552.89L304.283 567.235H316.318L316.106 552.89H304.07Z" fill="#CE6F64"/>
<path d="M304.414 257.63C304.414 257.63 295.571 370.487 293.917 408.019C292.198 447.041 300.386 563.796 300.386 563.796H319.954C319.954 563.796 327.093 455.507 330.45 417.288C334.118 375.629 347.693 257.63 347.693 257.63H304.414Z" fill="#407BFF"/>
<path opacity="0.7" d="M304.414 257.63C304.414 257.63 295.571 370.487 293.917 408.019C292.198 447.041 300.386 563.796 300.386 563.796H319.954C319.954 563.796 327.093 455.507 330.45 417.288C334.118 375.629 347.693 257.63 347.693 257.63H304.414Z" fill="black"/>
<path d="M374.745 579.336H387.845C388.086 579.338 388.32 579.421 388.507 579.573C388.695 579.725 388.825 579.935 388.877 580.171L391.251 590.864C391.308 591.122 391.306 591.389 391.245 591.646C391.183 591.903 391.065 592.143 390.898 592.348C390.731 592.553 390.52 592.717 390.281 592.829C390.041 592.94 389.78 592.996 389.515 592.993C384.783 592.911 377.938 592.632 371.978 592.632C365.018 592.632 364.052 593.025 355.881 593.025C350.968 593.025 349.56 588.113 351.64 587.572C361.039 585.509 363.675 585.296 371.814 580.285C372.681 579.696 373.698 579.367 374.745 579.336Z" fill="#263238"/>
<path d="M304.004 579.336H317.104C317.344 579.335 317.577 579.418 317.762 579.571C317.948 579.723 318.074 579.935 318.12 580.171L320.51 590.864C320.567 591.122 320.565 591.389 320.504 591.646C320.443 591.903 320.324 592.143 320.157 592.348C319.99 592.553 319.779 592.717 319.54 592.829C319.3 592.94 319.039 592.996 318.775 592.993C314.026 592.911 307.181 592.632 301.237 592.632C294.261 592.632 288.251 593.025 280.08 593.025C275.168 593.025 273.776 588.113 275.839 587.572C285.255 585.509 292.935 585.296 301.073 580.285C301.939 579.694 302.956 579.364 304.004 579.336Z" fill="#263238"/>
<path d="M299.043 581.186C298.225 581.383 297.365 581.296 296.603 580.94C296.347 580.797 296.135 580.588 295.988 580.334C295.841 580.081 295.765 579.792 295.768 579.499C295.741 579.333 295.76 579.163 295.824 579.007C295.887 578.851 295.992 578.715 296.128 578.615C297.34 577.715 301.663 579.499 302.154 579.712C302.205 579.736 302.248 579.773 302.28 579.819C302.312 579.865 302.33 579.919 302.334 579.974C302.332 580.033 302.314 580.089 302.282 580.138C302.25 580.187 302.206 580.227 302.154 580.253C301.152 580.671 300.109 580.984 299.043 581.186ZM296.832 578.959C296.702 578.969 296.578 579.015 296.472 579.09C296.39 579.09 296.324 579.221 296.341 579.45C296.347 579.647 296.401 579.839 296.498 580.01C296.595 580.182 296.732 580.327 296.898 580.433C298.355 580.842 299.913 580.678 301.253 579.974C299.858 579.355 298.357 579.011 296.832 578.959Z" fill="#407BFF"/>
<path d="M302.089 580.269H301.941C300.566 579.778 297.716 577.502 297.766 576.11C297.77 575.891 297.852 575.682 297.995 575.517C298.139 575.353 298.336 575.244 298.552 575.209C298.768 575.149 298.995 575.134 299.217 575.165C299.44 575.196 299.653 575.272 299.845 575.389C301.483 576.323 302.285 579.778 302.318 579.925C302.333 579.975 302.333 580.027 302.319 580.077C302.304 580.126 302.276 580.17 302.236 580.204C302.193 580.237 302.142 580.26 302.089 580.269ZM298.814 575.717H298.683C298.322 575.831 298.322 575.995 298.306 576.077C298.306 576.896 300.156 578.664 301.581 579.352C301.276 577.981 300.569 576.733 299.55 575.766C299.328 575.671 299.08 575.654 298.846 575.717H298.814Z" fill="#407BFF"/>
<path d="M323.72 564.287H299.436L297.323 555.117L324.146 555.592L323.72 564.287Z" fill="#407BFF"/>
<path d="M369.783 581.186C368.966 581.383 368.106 581.296 367.344 580.94C367.098 580.786 366.893 580.574 366.748 580.323C366.602 580.072 366.52 579.789 366.508 579.499C366.481 579.333 366.501 579.163 366.564 579.007C366.628 578.851 366.733 578.715 366.869 578.615C368.097 577.715 372.403 579.499 372.895 579.712C372.948 579.732 372.994 579.768 373.026 579.815C373.058 579.862 373.075 579.917 373.075 579.974C373.076 580.033 373.06 580.092 373.028 580.141C372.995 580.191 372.949 580.23 372.895 580.253C371.893 580.671 370.85 580.984 369.783 581.186ZM367.573 578.959C367.444 578.972 367.32 579.017 367.213 579.09C367.159 579.132 367.118 579.188 367.095 579.251C367.072 579.315 367.067 579.384 367.082 579.45C367.088 579.647 367.141 579.839 367.238 580.01C367.335 580.182 367.473 580.327 367.638 580.433C369.095 580.842 370.654 580.678 371.994 579.974C370.599 579.355 369.098 579.011 367.573 578.959Z" fill="#407BFF"/>
<path d="M372.829 580.269H372.682C371.323 579.778 368.457 577.502 368.506 576.11C368.515 575.89 368.6 575.68 368.746 575.516C368.892 575.352 369.091 575.243 369.308 575.209C369.522 575.145 369.746 575.128 369.967 575.159C370.187 575.19 370.398 575.269 370.586 575.389C372.223 576.323 373.026 579.778 373.058 579.925C373.084 579.967 373.098 580.015 373.098 580.064C373.098 580.114 373.084 580.162 373.058 580.204C372.993 580.253 372.911 580.277 372.829 580.269ZM369.554 575.717H369.439C369.063 575.831 369.063 575.995 369.063 576.077C369.063 576.896 370.897 578.664 372.338 579.352C372.027 577.98 371.315 576.731 370.291 575.766C370.068 575.671 369.82 575.654 369.587 575.717H369.554Z" fill="#407BFF"/>
<path d="M327.781 257.63C327.781 257.63 333.365 367.949 341.028 403.189C349.429 441.785 367.769 563.796 367.769 563.796H390.301C390.301 563.796 382.752 444.896 377.954 406.693C372.763 365.215 370.258 257.679 370.258 257.679L327.781 257.63Z" fill="#407BFF"/>
<path opacity="0.7" d="M327.781 257.63C327.781 257.63 333.365 367.949 341.028 403.189C349.429 441.785 367.769 563.796 367.769 563.796H390.301C390.301 563.796 382.752 444.896 377.954 406.693C372.763 365.215 370.258 257.679 370.258 257.679L327.781 257.63Z" fill="black"/>
<path d="M381.214 550.483C381.24 550.479 381.264 550.47 381.287 550.456C381.309 550.442 381.329 550.424 381.344 550.403C381.359 550.382 381.37 550.357 381.376 550.332C381.381 550.306 381.382 550.279 381.377 550.254C381.197 549.107 375.679 442.407 371.372 408.085C366.705 370.831 365.248 271.991 365.15 271.156C365.138 271.101 365.106 271.052 365.061 271.019C365.016 270.986 364.96 270.97 364.904 270.976C364.876 270.978 364.85 270.985 364.826 270.998C364.801 271.011 364.78 271.029 364.763 271.05C364.746 271.072 364.734 271.097 364.727 271.124C364.72 271.15 364.719 271.178 364.724 271.205C364.822 272.04 366.361 370.88 370.963 408.134C375.269 442.522 380.788 549.173 380.968 550.319C380.98 550.373 381.012 550.42 381.058 550.451C381.104 550.481 381.159 550.493 381.214 550.483Z" fill="#407BFF"/>
<path opacity="0.4" d="M381.214 550.483C381.24 550.479 381.264 550.47 381.287 550.456C381.309 550.442 381.329 550.424 381.344 550.403C381.359 550.382 381.37 550.357 381.376 550.332C381.381 550.306 381.382 550.279 381.377 550.254C381.197 549.107 375.679 442.407 371.372 408.085C366.705 370.831 365.248 271.991 365.15 271.156C365.138 271.101 365.106 271.052 365.061 271.019C365.016 270.986 364.96 270.97 364.904 270.976C364.876 270.978 364.85 270.985 364.826 270.998C364.801 271.011 364.78 271.029 364.763 271.05C364.746 271.072 364.734 271.097 364.727 271.124C364.72 271.15 364.719 271.178 364.724 271.205C364.822 272.04 366.361 370.88 370.963 408.134C375.269 442.522 380.788 549.173 380.968 550.319C380.98 550.373 381.012 550.42 381.058 550.451C381.104 550.481 381.159 550.493 381.214 550.483Z" fill="black"/>
<path d="M391.186 564.287H366.885L364.772 555.117L391.66 554.364L391.186 564.287Z" fill="#407BFF"/>
<path d="M349.298 125.99C347.53 134.997 345.761 151.503 352.065 157.512C352.065 157.512 349.233 163.555 332.497 163.555C317.203 163.555 324.08 157.512 324.08 157.512C334.118 155.105 333.905 147.687 332.121 140.662L349.298 125.99Z" fill="#E4897B"/>
<path d="M342.24 131.984L332.071 140.662C332.507 142.271 332.798 143.915 332.939 145.575C336.214 148.686 342.044 140.81 342.453 136.798C342.67 135.193 342.597 133.563 342.24 131.984Z" fill="#CE6F64"/>
<path d="M318.513 98.5455C313.043 102.197 312.961 119.489 321.313 121.88C329.664 124.271 328.878 91.7007 318.513 98.5455Z" fill="#263238"/>
<path d="M350.428 112.448C349.691 124.631 349.871 131.803 343.714 138.075C334.446 147.491 319.397 141.891 316.482 129.724C313.862 118.769 315.532 100.674 327.47 95.8109C330.097 94.7271 332.958 94.3337 335.78 94.668C338.602 95.0024 341.292 96.0534 343.593 97.721C345.894 99.3886 347.73 101.617 348.927 104.195C350.123 106.773 350.64 109.614 350.428 112.448Z" fill="#E4897B"/>
<path d="M354.653 97.0718L342.879 102.345C347.497 110.958 337.115 125.499 347.579 123.911C352.377 123.174 367.507 108.207 354.653 97.0718Z" fill="#263238"/>
<path d="M351.607 119.162C348.692 118.49 339.62 116.624 339.522 116.607C339.454 116.592 339.394 116.551 339.355 116.493C339.315 116.436 339.299 116.365 339.309 116.296C339.315 116.261 339.328 116.228 339.347 116.199C339.366 116.169 339.39 116.144 339.419 116.124C339.448 116.104 339.481 116.09 339.516 116.083C339.55 116.076 339.586 116.076 339.62 116.083C339.718 116.083 348.807 117.966 351.738 118.638C351.807 118.638 351.874 118.665 351.923 118.715C351.972 118.764 352 118.83 352 118.9C352 118.969 351.972 119.036 351.923 119.085C351.874 119.134 351.807 119.162 351.738 119.162H351.607Z" fill="#263238"/>
<path d="M355.881 125.876C355.071 127.164 354.015 128.28 352.773 129.16C351.531 130.04 350.127 130.665 348.643 131.001C344.664 131.885 342.895 128.266 344.189 124.631C345.368 121.356 348.84 116.968 352.737 117.721C353.585 117.903 354.374 118.294 355.033 118.857C355.692 119.421 356.201 120.139 356.513 120.949C356.825 121.758 356.93 122.632 356.82 123.492C356.71 124.352 356.387 125.171 355.881 125.876Z" fill="#E4897B"/>
<path d="M332.628 115.854C332.628 116.837 332.088 117.639 331.449 117.639C330.811 117.639 330.27 116.837 330.27 115.854C330.27 114.872 330.794 114.053 331.449 114.053C332.104 114.053 332.628 114.855 332.628 115.854Z" fill="#263238"/>
<path d="M321.395 115.854C321.395 116.837 320.871 117.639 320.216 117.639C319.561 117.639 319.053 116.837 319.053 115.854C319.053 114.872 319.577 114.053 320.216 114.053C320.855 114.053 321.395 114.855 321.395 115.854Z" fill="#263238"/>
<path d="M324.228 116.345C323.045 119.376 321.453 122.23 319.495 124.828C320.169 125.316 320.943 125.65 321.761 125.806C322.579 125.962 323.421 125.935 324.228 125.728V116.345Z" fill="#DE5753"/>
<path d="M325.701 129.969C325.663 129.967 325.625 129.958 325.59 129.941C325.555 129.924 325.524 129.901 325.498 129.872C325.472 129.843 325.452 129.809 325.439 129.772C325.426 129.736 325.421 129.697 325.423 129.658C325.423 129.62 325.431 129.583 325.446 129.548C325.461 129.513 325.483 129.481 325.51 129.455C325.538 129.429 325.571 129.409 325.606 129.396C325.642 129.383 325.68 129.378 325.718 129.38C326.953 129.459 328.189 129.247 329.327 128.761C330.465 128.274 331.472 127.527 332.268 126.58C332.314 126.518 332.381 126.475 332.457 126.46C332.532 126.445 332.611 126.458 332.677 126.498C332.73 126.553 332.76 126.626 332.76 126.703C332.76 126.779 332.73 126.852 332.677 126.907C331.841 127.934 330.772 128.748 329.559 129.28C328.346 129.813 327.024 130.049 325.701 129.969Z" fill="#263238"/>
<path d="M337.688 107.486C337.6 107.496 337.512 107.485 337.429 107.454C337.346 107.422 337.272 107.372 337.213 107.306C336.743 106.741 336.143 106.297 335.465 106.012C334.786 105.727 334.049 105.609 333.316 105.669C333.163 105.688 333.008 105.648 332.883 105.557C332.758 105.465 332.673 105.33 332.645 105.177C332.621 105.026 332.657 104.871 332.746 104.745C332.834 104.62 332.968 104.534 333.12 104.506C334.037 104.422 334.961 104.558 335.815 104.903C336.67 105.247 337.43 105.791 338.032 106.487C338.138 106.597 338.197 106.744 338.197 106.897C338.197 107.05 338.138 107.196 338.032 107.306C337.938 107.4 337.818 107.462 337.688 107.486Z" fill="#263238"/>
<path d="M359.496 190.244L340.266 189.6L340.213 191.171L359.443 191.815L359.496 190.244Z" fill="#E0E0E0"/>
<path d="M316.4 107.372C316.316 107.344 316.237 107.3 316.171 107.241C316.064 107.128 316.004 106.979 316.004 106.823C316.004 106.668 316.064 106.518 316.171 106.406C316.808 105.733 317.597 105.223 318.472 104.918C319.346 104.613 320.281 104.523 321.198 104.653C321.282 104.659 321.363 104.682 321.437 104.722C321.511 104.762 321.576 104.817 321.627 104.883C321.678 104.95 321.714 105.027 321.733 105.108C321.752 105.19 321.753 105.275 321.737 105.357C321.72 105.44 321.687 105.517 321.638 105.585C321.589 105.654 321.526 105.711 321.453 105.752C321.38 105.794 321.3 105.82 321.216 105.828C321.133 105.836 321.048 105.827 320.969 105.8C320.243 105.709 319.506 105.79 318.817 106.038C318.129 106.285 317.508 106.692 317.006 107.224C316.928 107.302 316.83 107.356 316.724 107.382C316.617 107.408 316.505 107.404 316.4 107.372Z" fill="#263238"/>
<path d="M328.633 97.0718C328.633 97.0718 328.272 87.5742 337.868 88.0654C345.319 88.4421 359.287 99.2497 363.659 97.0718C363.659 97.0718 355.471 106.733 344.697 103.622C339.075 102.16 333.673 99.9577 328.633 97.0718Z" fill="#263238"/>
<path d="M328.633 97.0718C328.633 97.0718 336.689 92.1592 331.351 89.3591C323.589 85.3308 314.255 99.9702 309.9 97.7923C309.9 97.7923 310.849 104.752 321.248 100.674C323.798 99.6637 326.267 98.4594 328.633 97.0718Z" fill="#263238"/>
<path d="M332.628 124.238C328.666 124.238 325.44 120.21 325.44 115.265C325.44 110.876 327.994 108.452 332.628 108.452C337.263 108.452 339.833 110.876 339.833 115.265C339.833 120.21 336.608 124.238 332.628 124.238ZM332.628 108.977C329.599 108.977 325.964 110.074 325.964 115.265C325.964 119.915 328.96 123.698 332.628 123.698C336.296 123.698 339.293 119.915 339.293 115.265C339.293 110.074 335.691 108.977 332.628 108.977Z" fill="#263238"/>
<path d="M316.384 124.238C313.109 124.238 310.342 120.21 310.342 115.265C310.342 109.337 314.124 108.452 316.384 108.452C318.644 108.452 322.427 109.337 322.427 115.265C322.427 120.21 319.725 124.238 316.384 124.238ZM316.384 108.977C313.862 108.977 310.866 110.074 310.866 115.265C310.866 119.915 313.338 123.698 316.384 123.698C319.43 123.698 321.903 119.915 321.903 115.265C321.903 110.074 318.906 108.977 316.384 108.977Z" fill="#263238"/>
<path d="M321.673 112.366C321.627 112.367 321.581 112.355 321.541 112.332C321.501 112.309 321.467 112.275 321.444 112.235C321.424 112.206 321.411 112.172 321.405 112.137C321.399 112.102 321.401 112.067 321.41 112.032C321.42 111.998 321.436 111.966 321.459 111.939C321.482 111.912 321.51 111.89 321.542 111.875C322.285 111.43 323.134 111.196 323.999 111.196C324.864 111.196 325.713 111.43 326.455 111.875C326.516 111.909 326.562 111.966 326.583 112.033C326.604 112.099 326.599 112.172 326.57 112.235C326.554 112.267 326.532 112.295 326.505 112.318C326.479 112.341 326.448 112.359 326.414 112.369C326.38 112.38 326.345 112.384 326.31 112.38C326.274 112.377 326.24 112.367 326.209 112.35C325.551 111.947 324.795 111.735 324.023 111.735C323.252 111.735 322.495 111.947 321.837 112.35L321.673 112.366Z" fill="#263238"/>
<path d="M335.919 161.803C335.919 161.803 340.144 167.714 340.963 171.988C346.007 169.892 355.553 164.652 356.83 157.25C354.988 156.667 353.231 155.841 351.607 154.794C351.607 154.794 346.514 159.117 335.919 161.803Z" fill="#F0F0F0"/>
<path d="M332.513 161.524C329.881 164.041 328.154 167.357 327.601 170.956C322.557 168.86 320.576 162.016 321.902 157.48C323.817 156.608 325.821 155.949 327.879 155.515C327.804 156.905 328.23 158.277 329.08 159.38C329.931 160.483 331.149 161.244 332.513 161.524Z" fill="#F0F0F0"/>
<path d="M364.347 158.069L361.235 157.791C361.087 157.78 360.94 157.824 360.823 157.915C360.705 158.005 360.624 158.136 360.597 158.282C351.934 204.738 356.798 254.06 356.798 254.06H360.253C358.368 222.216 359.938 190.262 364.936 158.757C364.948 158.672 364.941 158.586 364.917 158.504C364.893 158.422 364.852 158.346 364.796 158.281C364.74 158.216 364.671 158.163 364.594 158.127C364.516 158.09 364.432 158.071 364.347 158.069Z" fill="#407BFF"/>
<path opacity="0.7" d="M364.347 158.069L361.235 157.791C361.087 157.78 360.94 157.824 360.823 157.915C360.705 158.005 360.624 158.136 360.597 158.282C351.934 204.738 356.798 254.06 356.798 254.06H360.253C358.368 222.216 359.938 190.262 364.936 158.757C364.948 158.672 364.941 158.586 364.917 158.504C364.893 158.422 364.852 158.346 364.796 158.281C364.74 158.216 364.671 158.163 364.594 158.127C364.516 158.09 364.432 158.071 364.347 158.069Z" fill="black"/>
<path d="M359.615 255.157H357.24C356.949 255.157 356.67 255.042 356.464 254.836C356.259 254.63 356.143 254.351 356.143 254.06C356.143 253.768 356.258 253.487 356.463 253.279C356.669 253.07 356.948 252.951 357.24 252.947H359.615C359.909 252.951 360.189 253.07 360.397 253.277C360.605 253.485 360.724 253.766 360.728 254.06C360.724 254.353 360.605 254.632 360.396 254.837C360.188 255.042 359.907 255.157 359.615 255.157Z" fill="#E0E0E0"/>
<path d="M356.978 258.056V254.944C356.978 254.754 357.016 254.565 357.089 254.389C357.163 254.213 357.27 254.054 357.406 253.92C357.541 253.786 357.702 253.68 357.879 253.608C358.056 253.537 358.245 253.501 358.435 253.503C358.818 253.503 359.184 253.655 359.454 253.925C359.725 254.196 359.876 254.562 359.876 254.944V258.056C359.872 258.437 359.719 258.801 359.45 259.07C359.18 259.339 358.816 259.492 358.435 259.497C358.052 259.497 357.683 259.345 357.411 259.076C357.138 258.806 356.982 258.439 356.978 258.056Z" fill="#E0E0E0"/>
<path d="M312.225 158.691L309.146 159.265C309.019 159.288 308.903 159.352 308.815 159.446C308.726 159.54 308.67 159.66 308.655 159.789C302.105 206.261 309.294 254.06 309.294 254.06H312.765C307.64 203.477 312.192 165.356 312.978 159.363C312.997 159.263 312.989 159.16 312.956 159.064C312.923 158.968 312.866 158.882 312.791 158.815C312.715 158.747 312.623 158.7 312.524 158.679C312.425 158.657 312.322 158.662 312.225 158.691Z" fill="#407BFF"/>
<path opacity="0.7" d="M312.225 158.691L309.146 159.265C309.019 159.288 308.903 159.352 308.815 159.446C308.726 159.54 308.67 159.66 308.655 159.789C302.105 206.261 309.294 254.06 309.294 254.06H312.765C307.64 203.477 312.192 165.356 312.978 159.363C312.997 159.263 312.989 159.16 312.956 159.064C312.923 158.968 312.866 158.882 312.791 158.815C312.715 158.747 312.623 158.7 312.524 158.679C312.425 158.657 312.322 158.662 312.225 158.691Z" fill="black"/>
<path d="M312.159 255.157H309.785C309.489 255.154 309.205 255.039 308.989 254.836C308.774 254.633 308.643 254.356 308.622 254.06C308.618 253.917 308.642 253.774 308.693 253.64C308.745 253.506 308.822 253.384 308.921 253.28C309.02 253.177 309.139 253.094 309.27 253.037C309.402 252.979 309.543 252.949 309.687 252.947H312.061C312.358 252.951 312.643 253.068 312.856 253.275C313.069 253.482 313.195 253.763 313.207 254.06C313.216 254.202 313.196 254.345 313.147 254.479C313.098 254.613 313.022 254.735 312.924 254.838C312.825 254.941 312.707 255.023 312.575 255.078C312.443 255.133 312.302 255.16 312.159 255.157Z" fill="#E0E0E0"/>
<path d="M309.654 258.056L309.506 254.944C309.497 254.757 309.527 254.57 309.593 254.394C309.659 254.218 309.761 254.058 309.891 253.923C310.021 253.788 310.178 253.681 310.351 253.609C310.525 253.537 310.711 253.501 310.898 253.503C311.286 253.507 311.657 253.658 311.937 253.926C312.217 254.193 312.384 254.558 312.405 254.944L312.552 258.056C312.561 258.242 312.532 258.428 312.467 258.602C312.402 258.777 312.302 258.936 312.173 259.071C312.045 259.206 311.89 259.313 311.719 259.386C311.547 259.459 311.363 259.497 311.177 259.497C310.788 259.493 310.415 259.343 310.132 259.076C309.849 258.808 309.679 258.444 309.654 258.056Z" fill="#E0E0E0"/>
<path d="M344.451 196.502C344.214 196.485 343.992 196.376 343.833 196.199C343.674 196.022 343.591 195.79 343.6 195.552L344.058 187.364C344.062 187.245 344.09 187.128 344.141 187.02C344.191 186.912 344.263 186.816 344.352 186.736C344.44 186.657 344.544 186.596 344.657 186.557C344.77 186.519 344.889 186.504 345.008 186.513C345.126 186.519 345.242 186.549 345.349 186.6C345.456 186.651 345.552 186.723 345.631 186.811C345.71 186.899 345.771 187.002 345.81 187.114C345.849 187.226 345.866 187.344 345.86 187.462L345.401 195.65C345.397 195.769 345.369 195.886 345.318 195.994C345.268 196.102 345.196 196.199 345.108 196.278C345.019 196.358 344.915 196.418 344.802 196.457C344.689 196.495 344.57 196.51 344.451 196.502Z" fill="#407BFF"/>
<path d="M347.251 199.449C347.178 199.449 347.106 199.434 347.039 199.405C346.972 199.376 346.912 199.333 346.862 199.279C346.813 199.225 346.775 199.161 346.752 199.092C346.729 199.022 346.721 198.949 346.727 198.876L347.284 187.217C347.293 187.068 347.359 186.928 347.469 186.827C347.579 186.726 347.724 186.672 347.874 186.677C347.947 186.681 348.018 186.699 348.084 186.731C348.15 186.763 348.209 186.808 348.258 186.863C348.307 186.917 348.344 186.981 348.368 187.05C348.392 187.12 348.402 187.193 348.398 187.266L347.841 198.925C347.837 198.998 347.818 199.07 347.786 199.136C347.754 199.202 347.71 199.261 347.655 199.31C347.6 199.358 347.536 199.396 347.467 199.42C347.398 199.444 347.325 199.454 347.251 199.449Z" fill="#407BFF"/>
<path opacity="0.7" d="M344.451 196.502C344.214 196.485 343.992 196.376 343.833 196.199C343.674 196.022 343.591 195.79 343.6 195.552L344.058 187.364C344.062 187.245 344.09 187.128 344.141 187.02C344.191 186.912 344.263 186.816 344.352 186.736C344.44 186.657 344.544 186.596 344.657 186.557C344.77 186.519 344.889 186.504 345.008 186.513C345.126 186.519 345.242 186.549 345.349 186.6C345.456 186.651 345.552 186.723 345.631 186.811C345.71 186.899 345.771 187.002 345.81 187.114C345.849 187.226 345.866 187.344 345.86 187.462L345.401 195.65C345.397 195.769 345.369 195.886 345.318 195.994C345.268 196.102 345.196 196.199 345.108 196.278C345.019 196.358 344.915 196.418 344.802 196.457C344.689 196.495 344.57 196.51 344.451 196.502Z" fill="black"/>
<path opacity="0.7" d="M347.251 199.449C347.178 199.449 347.106 199.434 347.039 199.405C346.972 199.376 346.912 199.333 346.862 199.279C346.813 199.225 346.775 199.161 346.752 199.092C346.729 199.022 346.721 198.949 346.727 198.876L347.284 187.217C347.293 187.068 347.359 186.928 347.469 186.827C347.579 186.726 347.724 186.672 347.874 186.677C347.947 186.681 348.018 186.699 348.084 186.731C348.15 186.763 348.209 186.808 348.258 186.863C348.307 186.917 348.344 186.981 348.368 187.05C348.392 187.12 348.402 187.193 348.398 187.266L347.841 198.925C347.837 198.998 347.818 199.07 347.786 199.136C347.754 199.202 347.71 199.261 347.655 199.31C347.6 199.358 347.536 199.396 347.467 199.42C347.398 199.444 347.325 199.454 347.251 199.449Z" fill="black"/>
<path d="M333.512 163.538L335.92 161.803L341.029 166.715L333.512 163.538Z" fill="#407BFF"/>
<path opacity="0.5" d="M333.512 163.538L335.92 161.803L341.029 166.715L333.512 163.538Z" fill="black"/>
<path d="M333.513 163.538L332.514 161.524L325.915 166.715L333.513 163.538Z" fill="#407BFF"/>
<path opacity="0.5" d="M333.513 163.538L332.514 161.524L325.915 166.715L333.513 163.538Z" fill="black"/>
<path d="M335.805 166.06C338.654 164.996 350.052 155.793 353.294 160.574C356.536 165.356 352.164 167.125 353.589 170.4C355.013 173.675 357.158 179.209 350.002 177.768C342.011 176.131 338.409 170.547 336.1 170.416C335.969 168.484 335.805 166.06 335.805 166.06Z" fill="#407BFF"/>
<path opacity="0.7" d="M335.805 166.06C338.654 164.996 350.052 155.793 353.294 160.574C356.536 165.356 352.164 167.125 353.589 170.4C355.013 173.675 357.158 179.209 350.002 177.768C342.011 176.131 338.409 170.547 336.1 170.416C335.969 168.484 335.805 166.06 335.805 166.06Z" fill="black"/>
<path d="M331.269 165.389C328.878 164.374 319.02 155.76 316.63 160.182C314.239 164.603 317.923 166.224 316.924 169.237C315.925 172.25 314.484 177.425 320.281 176.115C326.733 174.674 329.386 169.483 331.269 169.368V165.389Z" fill="#407BFF"/>
<path opacity="0.7" d="M331.269 165.389C328.878 164.374 319.02 155.76 316.63 160.182C314.239 164.603 317.923 166.224 316.924 169.237C315.925 172.25 314.484 177.425 320.281 176.115C326.733 174.674 329.386 169.483 331.269 169.368V165.389Z" fill="black"/>
<path d="M336.312 170.662C337.491 168.68 338.277 163.227 335.755 164.193C333.234 165.16 332.955 165.291 332.235 164.816C331.514 164.341 329.631 163.473 329.304 165.471C328.976 167.468 329.467 171.448 331.334 171.366C333.201 171.284 335.117 172.692 336.312 170.662Z" fill="#407BFF"/>
<path opacity="0.7" d="M336.312 170.662C337.491 168.68 338.277 163.227 335.755 164.193C333.234 165.16 332.955 165.291 332.235 164.816C331.514 164.341 329.631 163.473 329.304 165.471C328.976 167.468 329.467 171.448 331.334 171.366C333.201 171.284 335.117 172.692 336.312 170.662Z" fill="black"/>
<path d="M248.182 205.868L244.579 232.527C244.547 232.735 244.439 232.924 244.275 233.057C244.112 233.19 243.905 233.258 243.695 233.247L232.232 232.56C232.022 232.54 231.826 232.444 231.682 232.29C231.537 232.137 231.453 231.935 231.446 231.724L231.364 225.715L231.151 211.698L231.053 204.886L248.182 205.868Z" fill="#407BFF"/>
<path opacity="0.3" d="M248.182 205.868L244.579 232.527C244.547 232.735 244.439 232.924 244.275 233.057C244.112 233.19 243.905 233.258 243.695 233.247L232.232 232.56C232.022 232.54 231.826 232.444 231.682 232.29C231.537 232.137 231.453 231.935 231.446 231.724L231.364 225.715L231.151 211.698L231.053 204.886L248.182 205.868Z" fill="black"/>
<path d="M250.128 204.657L229.222 203.4L229.06 206.097L249.966 207.354L250.128 204.657Z" fill="#407BFF"/>
<path d="M248.804 203.22L230.709 202.133L230.547 204.83L248.642 205.917L248.804 203.22Z" fill="#407BFF"/>
<path d="M248.804 203.22L230.709 202.133L230.547 204.83L248.642 205.917L248.804 203.22Z" fill="#F5F5F5"/>
<path d="M250.128 204.657L229.222 203.4L229.06 206.097L249.966 207.354L250.128 204.657Z" fill="#EBEBEB"/>
<path opacity="0.43" d="M237.898 212.058L237.063 226.01L231.25 225.666L231.037 211.649L237.898 212.058Z" fill="#EBEBEB"/>
<path d="M396.77 294.752L334.888 293.36C334.085 293.315 333.3 293.102 332.583 292.736C331.866 292.37 331.234 291.859 330.725 291.235C330.217 290.611 329.844 289.888 329.63 289.112C329.417 288.337 329.367 287.525 329.484 286.729L334.61 232.478C334.632 231.684 334.83 230.905 335.188 230.196C335.546 229.487 336.056 228.866 336.681 228.377C337.306 227.888 338.032 227.542 338.806 227.365C339.58 227.188 340.384 227.184 341.16 227.352L401.748 241.238C403.811 241.713 405.285 244.382 405.023 247.166L401.093 289.742C400.798 292.493 398.882 294.752 396.77 294.752Z" fill="#407BFF"/>
<path opacity="0.3" d="M396.77 294.752L334.888 293.36C334.085 293.315 333.3 293.102 332.583 292.736C331.866 292.37 331.234 291.859 330.725 291.235C330.217 290.611 329.844 289.888 329.63 289.112C329.417 288.337 329.367 287.525 329.484 286.729L334.61 232.478C334.632 231.684 334.83 230.905 335.188 230.196C335.546 229.487 336.056 228.866 336.681 228.377C337.306 227.888 338.032 227.542 338.806 227.365C339.58 227.188 340.384 227.184 341.16 227.352L401.748 241.238C403.811 241.713 405.285 244.382 405.023 247.166L401.093 289.742C400.798 292.493 398.882 294.752 396.77 294.752Z" fill="white"/>
<path d="M397.916 294.752L336.591 293.36C335.799 293.312 335.025 293.1 334.319 292.737C333.612 292.375 332.989 291.87 332.487 291.255C331.986 290.639 331.617 289.927 331.404 289.162C331.192 288.397 331.14 287.596 331.253 286.81L336.345 232.773C336.359 231.99 336.545 231.22 336.888 230.517C337.232 229.814 337.726 229.195 338.335 228.703C338.943 228.211 339.653 227.859 340.412 227.671C341.172 227.483 341.964 227.463 342.732 227.614L402.763 241.369C404.826 241.828 406.284 244.497 406.038 247.281L402.124 289.676C401.862 292.525 399.946 294.752 397.916 294.752Z" fill="#407BFF"/>
<path opacity="0.7" d="M397.916 294.752L336.591 293.36C335.799 293.312 335.025 293.1 334.319 292.737C333.612 292.375 332.989 291.87 332.487 291.255C331.986 290.639 331.617 289.927 331.404 289.162C331.192 288.397 331.14 287.596 331.253 286.81L336.345 232.773C336.359 231.99 336.545 231.22 336.888 230.517C337.232 229.814 337.726 229.195 338.335 228.703C338.943 228.211 339.653 227.859 340.412 227.671C341.172 227.483 341.964 227.463 342.732 227.614L402.763 241.369C404.826 241.828 406.284 244.497 406.038 247.281L402.124 289.676C401.862 292.525 399.946 294.752 397.916 294.752Z" fill="white"/>
<path d="M398.145 292.231L336.886 290.233C336.511 290.223 336.143 290.135 335.804 289.974C335.466 289.813 335.165 289.584 334.921 289.3C334.638 288.964 334.426 288.575 334.296 288.156C334.167 287.737 334.123 287.296 334.167 286.86L339.211 233.395C339.248 232.97 339.372 232.558 339.574 232.183C339.777 231.809 340.055 231.48 340.39 231.217C340.692 231.001 341.036 230.85 341.4 230.774C341.763 230.698 342.139 230.698 342.502 230.775L402.615 243.875C403.192 244.118 403.669 244.551 403.967 245.102C404.264 245.652 404.365 246.288 404.253 246.904L400.323 289.627C400.335 290.251 400.121 290.858 399.721 291.336C399.32 291.814 398.761 292.132 398.145 292.231ZM341.864 231.037C341.385 231.036 340.919 231.191 340.537 231.479C340.236 231.712 339.987 232.006 339.806 232.342C339.625 232.677 339.518 233.047 339.489 233.428L334.429 286.892C334.355 287.684 334.596 288.472 335.101 289.087C335.318 289.336 335.584 289.537 335.883 289.678C336.182 289.819 336.506 289.896 336.836 289.905L398.096 291.92C399.013 291.92 399.848 290.904 399.963 289.643L403.893 246.921C404.001 246.373 403.915 245.805 403.649 245.315C403.383 244.824 402.953 244.442 402.435 244.235L342.339 231.135C342.185 231.082 342.025 231.049 341.864 231.037Z" fill="white"/>
<path d="M372.845 274.382H372.223C371.263 274.27 370.335 273.97 369.492 273.497C368.649 273.025 367.907 272.391 367.311 271.631C365.54 269.384 364.722 266.532 365.034 263.689C365.127 262.301 365.502 260.946 366.136 259.707C366.769 258.469 367.648 257.372 368.719 256.484C369.468 255.883 370.333 255.444 371.26 255.193C372.187 254.942 373.156 254.885 374.106 255.026C375.147 255.209 376.138 255.609 377.015 256.198C377.892 256.787 378.636 257.554 379.199 258.449C379.213 258.462 379.225 258.479 379.233 258.497C379.24 258.516 379.244 258.535 379.244 258.555C379.244 258.575 379.24 258.595 379.233 258.613C379.225 258.631 379.213 258.648 379.199 258.662C379.185 258.676 379.169 258.687 379.15 258.695C379.132 258.703 379.112 258.707 379.092 258.707C379.073 258.707 379.053 258.703 379.035 258.695C379.016 258.687 379 258.676 378.986 258.662C378.437 257.807 377.718 257.074 376.872 256.511C376.027 255.947 375.074 255.564 374.073 255.387C373.166 255.254 372.24 255.31 371.355 255.553C370.47 255.795 369.645 256.218 368.932 256.795C367.897 257.653 367.047 258.712 366.434 259.909C365.82 261.105 365.455 262.413 365.362 263.754C365.06 266.521 365.854 269.295 367.573 271.483C368.754 272.953 370.465 273.9 372.338 274.12C373.325 274.193 374.317 274.05 375.244 273.702C376.172 273.355 377.013 272.81 377.709 272.106C377.739 272.076 377.781 272.059 377.823 272.059C377.866 272.059 377.907 272.076 377.938 272.106C377.965 272.138 377.979 272.178 377.979 272.22C377.979 272.262 377.965 272.303 377.938 272.335C377.266 272.995 376.47 273.516 375.596 273.867C374.722 274.218 373.787 274.393 372.845 274.382Z" fill="white"/>
<path d="M377.725 272.302C377.683 272.317 377.637 272.317 377.594 272.302C376.171 270.172 375.54 267.611 375.809 265.064C376.009 262.58 377.103 260.253 378.888 258.514C378.92 258.484 378.964 258.468 379.008 258.469C379.053 258.471 379.095 258.49 379.125 258.522C379.156 258.555 379.172 258.598 379.17 258.643C379.169 258.687 379.15 258.729 379.117 258.76C377.358 260.448 376.29 262.73 376.12 265.162C375.868 267.629 376.481 270.107 377.856 272.171C377.873 272.185 377.887 272.202 377.897 272.222C377.906 272.242 377.911 272.264 377.911 272.286C377.911 272.308 377.906 272.329 377.897 272.349C377.887 272.369 377.873 272.386 377.856 272.4L377.725 272.302Z" fill="white"/>
<path d="M386.158 174.886C388.402 183.516 390.35 192.129 392.086 200.874C392.954 205.246 393.724 209.618 394.493 214.056C394.87 216.266 395.246 218.493 395.558 220.753L396.016 224.159L396.278 225.977L396.393 226.845L396.491 227.893C396.842 232.937 396.59 238.006 395.738 242.991C395.004 247.593 394.02 252.152 392.79 256.647C390.412 265.426 387.352 274.006 383.637 282.307L374.466 279.343C376.104 270.894 377.43 262.231 378.495 253.815C379.019 249.606 379.395 245.414 379.592 241.337C379.828 237.57 379.669 233.788 379.117 230.054L379.019 229.465L378.855 228.711L378.544 227.172L377.856 224.077L376.399 217.789L373.353 205.017C371.29 196.551 369.243 187.987 367.327 179.488L386.158 174.886Z" fill="#E4897B"/>
<path d="M384.03 275.282L376.17 276.38L369.849 286.745L367.065 294.654L379.625 294.032L382.638 289.234C382.638 289.234 388.222 282.127 384.03 275.282Z" fill="#E4897B"/>
<path d="M374.106 160.296C387.206 162.621 401.535 211.468 401.535 211.468L371.29 221.801C371.29 221.801 361.203 197.55 363.102 182.501C364.903 167.632 361.678 158.086 374.106 160.296Z" fill="#407BFF"/>
<path opacity="0.3" d="M374.106 160.296C387.206 162.621 401.535 211.468 401.535 211.468L371.29 221.801C371.29 221.801 361.203 197.55 363.102 182.501C364.903 167.632 361.678 158.086 374.106 160.296Z" fill="black"/>
<path d="M519.19 141.94C513.574 139.778 498.934 134.554 507.924 116.918C516.914 99.2824 538.824 123.354 546.275 115.281C545.292 125.515 536.532 148.604 519.19 141.94Z" fill="#263238"/>
<path d="M509.135 142.562C502.487 139.205 500.948 136.012 500.506 134.571C500.451 134.369 500.447 134.157 500.496 133.954C500.545 133.751 500.644 133.563 500.784 133.408C502.029 132 505.942 128.152 509.299 131.46C512.656 134.767 515.849 135.111 510.74 142.153C510.565 142.4 510.307 142.578 510.013 142.653C509.719 142.728 509.408 142.695 509.135 142.562Z" fill="#407BFF"/>
<path opacity="0.3" d="M509.135 142.562C502.487 139.205 500.948 136.012 500.506 134.571C500.451 134.369 500.447 134.157 500.496 133.954C500.545 133.751 500.644 133.563 500.784 133.408C502.029 132 505.942 128.152 509.299 131.46C512.656 134.767 515.849 135.111 510.74 142.153C510.565 142.4 510.307 142.578 510.013 142.653C509.719 142.728 509.408 142.695 509.135 142.562Z" fill="black"/>
<path d="M498.77 200.415C490.675 199.833 482.549 199.833 474.453 200.415C479.939 195.192 478.4 180.143 476.861 172.316L487.193 181.142L491.795 185.072C491.422 186.461 491.17 187.88 491.041 189.313C490.632 194.144 492.04 198.794 498.77 200.415Z" fill="#E4897B"/>
<path d="M525.347 218.313C525.625 221.294 525.969 224.569 526.379 227.696C526.788 230.824 527.279 234.033 527.803 237.177C528.838 243.435 530.205 249.634 531.897 255.747C532.765 258.76 533.698 261.74 534.779 264.639L536.204 268.339C536.431 268.917 536.777 269.442 537.219 269.879C537.829 270.34 538.554 270.623 539.315 270.697C540.509 270.825 541.715 270.792 542.901 270.599C545.766 270.099 548.562 269.27 551.236 268.126L555.051 273.612C553.677 274.865 552.198 275.999 550.63 277.002C549.043 278.054 547.353 278.942 545.587 279.654C543.621 280.461 541.546 280.969 539.43 281.161C536.8 281.42 534.15 280.945 531.773 279.789C529.397 278.632 527.388 276.84 525.969 274.611C525.337 273.702 524.789 272.737 524.332 271.729L523.251 269.322C521.826 266.047 520.615 262.772 519.534 259.497C517.401 252.964 515.71 246.295 514.474 239.535C513.802 236.26 513.278 232.822 512.836 229.448C512.394 226.075 512.018 222.751 511.805 219.132L525.347 218.313Z" fill="#E4897B"/>
<path d="M521.073 203.052C526.509 204.427 530.308 226.796 530.308 226.796L515.325 236.981C515.325 236.981 500.964 214.416 505.14 208.455C509.496 202.249 513.131 201.07 521.073 203.052Z" fill="#407BFF"/>
<path opacity="0.7" d="M521.073 203.052C526.509 204.427 530.308 226.796 530.308 226.796L515.325 236.981C515.325 236.981 500.964 214.416 505.14 208.455C509.496 202.249 513.131 201.07 521.073 203.052Z" fill="black"/>
<path d="M576.339 242.467L554.118 238.913L552.988 243.498L541.919 267.488L564.14 271.041L575.209 247.052L576.339 242.467Z" fill="#263238"/>
<path d="M577.6 242.679L555.379 239.126L554.249 243.695L543.18 267.701L565.401 271.254L576.47 247.248L577.6 242.679Z" fill="#407BFF"/>
<path d="M554.495 273.94L564.991 265.752L551.891 263.001C551.891 263.001 546.373 269.42 548.354 274.464L554.495 273.94Z" fill="#E4897B"/>
<path d="M567.66 254.977L556.542 253.258L551.858 262.985L564.991 265.736L567.66 254.977Z" fill="#E4897B"/>
<path d="M521.073 203.052C521.073 203.052 527.345 205.262 514.769 282.651H461.206C462.106 260.84 462.123 247.412 451.708 202.675C459.21 201.16 466.811 200.191 474.453 199.777C482.549 199.195 490.675 199.195 498.77 199.777C509.267 200.661 521.073 203.052 521.073 203.052Z" fill="#407BFF"/>
<path opacity="0.7" d="M521.073 203.052C521.073 203.052 527.345 205.262 514.769 282.651H461.206C462.106 260.84 462.123 247.412 451.708 202.675C459.21 201.16 466.811 200.191 474.453 199.777C482.549 199.195 490.675 199.195 498.77 199.777C509.267 200.661 521.073 203.052 521.073 203.052Z" fill="black"/>
<path d="M491.221 579.549H504.403L506.172 549.009H492.99L491.221 579.549Z" fill="#E4897B"/>
<path d="M431.223 579.549H444.405L450.07 549.009H436.888L431.223 579.549Z" fill="#E4897B"/>
<path d="M445.747 578.042H431.01C430.756 578.04 430.509 578.13 430.316 578.295C430.123 578.461 429.997 578.691 429.962 578.943L428.324 590.667C428.292 590.963 428.323 591.263 428.414 591.546C428.506 591.83 428.656 592.091 428.856 592.312C429.055 592.533 429.299 592.709 429.572 592.829C429.844 592.95 430.139 593.011 430.437 593.009C435.595 592.927 438.084 592.616 444.601 592.616C448.613 592.616 454.426 593.042 460.01 593.042C465.594 593.042 465.84 587.556 463.531 587.065C453.198 584.838 451.561 581.776 448.089 578.877C447.437 578.322 446.604 578.025 445.747 578.042Z" fill="#263238"/>
<path d="M505.304 578.042H490.484C490.229 578.036 489.981 578.125 489.787 578.291C489.594 578.457 489.469 578.69 489.436 578.943L487.799 590.667C487.767 590.963 487.797 591.263 487.889 591.546C487.98 591.83 488.131 592.09 488.33 592.312C488.53 592.533 488.774 592.709 489.046 592.829C489.319 592.949 489.613 593.011 489.911 593.009C495.069 592.927 497.558 592.616 504.076 592.616C508.088 592.616 516.373 593.042 521.908 593.042C527.443 593.042 527.738 587.556 525.445 587.065C515.096 584.838 511.035 581.776 507.547 578.877C506.924 578.338 506.128 578.041 505.304 578.042Z" fill="#263238"/>
<path d="M506.172 549.025L505.255 564.762H492.073L492.99 549.025H506.172Z" fill="#CE6F64"/>
<path d="M436.888 549.025H450.07L447.156 564.762H433.957L436.888 549.025Z" fill="#CE6F64"/>
<path d="M476.762 195.748C474.984 196.564 473.453 197.835 472.324 199.433C473.618 201.545 483.59 205.492 486.292 205.246C486.195 203.099 486.849 200.985 488.143 199.269C488.143 199.269 481.2 199.04 476.762 195.748Z" fill="#407BFF"/>
<path d="M492.892 196.092C494.694 196.872 496.354 197.945 497.804 199.269C497.247 201.07 492.892 204.345 490.992 205.066C490.61 202.893 489.603 200.878 488.094 199.269C489.914 198.589 491.555 197.503 492.892 196.092Z" fill="#407BFF"/>
<path d="M514.769 282.684C514.769 282.684 525.167 384.21 524.299 424.476C523.398 466.315 508.071 561.716 508.071 561.716H490.239C490.239 561.716 493.072 468.755 491.483 427.669C489.764 382.883 475.55 282.684 475.55 282.684H514.769Z" fill="#407BFF"/>
<path d="M500.62 282.684C500.62 282.684 492.973 373.189 485.031 424.198C478.612 465.398 450.169 561.749 450.169 561.749H432.156C432.156 561.749 446.992 468.738 450.169 427.98C458.356 324.817 443.962 306.608 461.124 282.717L500.62 282.684Z" fill="#407BFF"/>
<path opacity="0.57" d="M488.361 240.707L495.513 240.959C498.848 241.076 501.647 238.468 501.764 235.133L502.006 228.276C502.124 224.941 499.516 222.142 496.181 222.025L489.029 221.772C485.694 221.655 482.895 224.263 482.778 227.598L482.536 234.455C482.418 237.79 485.026 240.589 488.361 240.707Z" fill="#407BFF"/>
<path d="M491.794 185.039C491.422 186.428 491.17 187.847 491.041 189.28C487.455 188.658 482.755 185.104 482.395 181.715C482.178 180.308 482.244 178.871 482.591 177.49L487.193 181.109L491.794 185.039Z" fill="#CE6F64"/>
<path d="M472.619 154.516C473.422 167.616 473.487 173.118 480.086 179.832C490.01 189.919 505.877 186.071 508.988 173.036C511.805 161.295 510.02 141.923 497.231 136.7C494.416 135.537 491.351 135.115 488.327 135.472C485.303 135.829 482.42 136.954 479.953 138.739C477.487 140.525 475.518 142.912 474.234 145.673C472.95 148.435 472.394 151.479 472.619 154.516Z" fill="#E4897B"/>
<path d="M470.572 160.116C470.513 160.133 470.451 160.133 470.392 160.116C470.342 160.095 470.298 160.064 470.26 160.025C470.223 159.986 470.195 159.939 470.176 159.889C470.158 159.838 470.15 159.784 470.153 159.73C470.157 159.676 470.171 159.624 470.196 159.576C471.833 156.202 485.048 153.893 486.571 153.631C490.856 153.021 495.197 152.912 499.507 153.304C500.019 153.061 500.578 152.935 501.145 152.935C501.711 152.935 502.27 153.061 502.782 153.304C505.579 152.993 508.402 152.993 511.199 153.304C511.254 153.308 511.307 153.323 511.356 153.349C511.404 153.374 511.447 153.41 511.481 153.453C511.515 153.496 511.539 153.546 511.553 153.6C511.566 153.653 511.568 153.708 511.559 153.762C511.543 153.868 511.486 153.964 511.4 154.028C511.314 154.092 511.207 154.12 511.101 154.106C508.331 153.802 505.536 153.802 502.766 154.106C502.696 154.122 502.623 154.122 502.553 154.106C502.138 153.89 501.678 153.777 501.21 153.777C500.742 153.777 500.282 153.89 499.867 154.106C499.823 154.125 499.776 154.134 499.728 154.134C499.68 154.134 499.633 154.125 499.589 154.106C495.307 153.696 490.99 153.806 486.734 154.434C482.788 155.105 472.226 157.381 470.998 159.92C470.957 159.994 470.894 160.053 470.818 160.088C470.741 160.124 470.655 160.133 470.572 160.116Z" fill="#263238"/>
<path d="M492.973 164.324H492.58C491.746 164.32 490.923 164.131 490.17 163.772C489.417 163.412 488.753 162.891 488.225 162.245C485.867 159.248 486.8 154.188 486.833 154.057C486.836 154.03 486.846 154.003 486.861 153.979C486.876 153.956 486.895 153.935 486.918 153.92C486.942 153.904 486.968 153.894 486.996 153.889C487.023 153.885 487.051 153.886 487.078 153.894C487.104 153.897 487.129 153.907 487.152 153.92C487.174 153.934 487.193 153.952 487.209 153.974C487.224 153.995 487.235 154.019 487.24 154.045C487.246 154.07 487.247 154.097 487.242 154.123C487.242 154.123 486.309 159.232 488.552 162.081C489.044 162.682 489.664 163.166 490.366 163.498C491.069 163.829 491.836 164 492.613 163.997C493.356 164.072 494.106 163.98 494.808 163.728C495.511 163.476 496.149 163.07 496.674 162.54C499.442 159.739 499.081 153.844 499.081 153.779C499.079 153.753 499.082 153.727 499.09 153.702C499.098 153.678 499.11 153.655 499.127 153.635C499.144 153.615 499.164 153.599 499.187 153.587C499.21 153.575 499.236 153.568 499.261 153.566C499.315 153.566 499.367 153.586 499.406 153.622C499.446 153.659 499.47 153.709 499.474 153.763C499.474 154.008 499.835 159.903 496.953 162.834C496.423 163.337 495.798 163.728 495.115 163.984C494.431 164.24 493.703 164.356 492.973 164.324Z" fill="#263238"/>
<path d="M507.498 164.03C506.869 164.053 506.242 163.941 505.66 163.701C505.078 163.461 504.554 163.098 504.125 162.638C501.636 159.903 502.487 154.205 502.487 153.959C502.489 153.932 502.496 153.906 502.509 153.882C502.522 153.858 502.54 153.838 502.562 153.822C502.584 153.806 502.61 153.796 502.636 153.791C502.663 153.786 502.69 153.788 502.716 153.795C502.742 153.799 502.767 153.808 502.79 153.822C502.812 153.836 502.832 153.854 502.847 153.875C502.862 153.897 502.873 153.921 502.879 153.946C502.884 153.972 502.885 153.999 502.88 154.024C502.88 154.024 502.029 159.772 504.37 162.359C504.806 162.822 505.344 163.177 505.941 163.396C506.538 163.615 507.177 163.692 507.809 163.62C508.235 163.605 508.652 163.494 509.029 163.296C509.406 163.098 509.734 162.817 509.987 162.474C511.936 159.887 510.56 153.779 510.544 153.713C510.538 153.66 510.551 153.606 510.581 153.561C510.611 153.516 510.656 153.483 510.708 153.468C510.735 153.461 510.763 153.459 510.79 153.464C510.818 153.468 510.844 153.479 510.867 153.494C510.891 153.51 510.91 153.53 510.925 153.554C510.94 153.577 510.949 153.604 510.953 153.631C510.953 153.893 512.378 159.985 510.315 162.72C510.023 163.109 509.648 163.429 509.218 163.655C508.787 163.882 508.312 164.01 507.826 164.03H507.498Z" fill="#263238"/>
<path d="M470.572 161.426C490.762 157.332 499.294 138.91 499.294 138.91C499.294 138.91 496.723 130.723 484.933 131.82C475.55 132.72 456.604 149.145 470.572 161.426Z" fill="#263238"/>
<path d="M462.532 142.136C468.918 140.089 485.457 135.193 474.322 115.854C463.187 96.515 439.017 121.291 430.109 112.284C431.763 123.288 442.882 148.441 462.532 142.136Z" fill="#263238"/>
<path d="M509.119 153.124C501.521 137.24 488.487 136.045 488.487 136.045C488.487 136.045 495.807 129.642 505.844 135.864C513.033 140.335 511.92 148.031 509.119 153.124Z" fill="#263238"/>
<path d="M469.458 161.77C469.73 164.289 470.99 166.598 472.963 168.189C475.583 170.269 478.186 168.189 478.547 165.078C478.874 162.228 477.892 157.725 474.731 156.89C474.039 156.717 473.315 156.719 472.624 156.895C471.934 157.072 471.298 157.419 470.774 157.903C470.251 158.387 469.856 158.995 469.627 159.67C469.397 160.345 469.339 161.067 469.458 161.77Z" fill="#E4897B"/>
<path d="M492.351 160.1C493.047 160.1 493.612 159.235 493.612 158.167C493.612 157.1 493.047 156.235 492.351 156.235C491.655 156.235 491.09 157.1 491.09 158.167C491.09 159.235 491.655 160.1 492.351 160.1Z" fill="#263238"/>
<path d="M504.583 160.1C505.28 160.1 505.844 159.235 505.844 158.167C505.844 157.1 505.28 156.235 504.583 156.235C503.887 156.235 503.322 157.1 503.322 158.167C503.322 159.235 503.887 160.1 504.583 160.1Z" fill="#263238"/>
<path d="M504.354 156.301L506.909 155.564C506.909 155.564 505.517 157.562 504.354 156.301Z" fill="#263238"/>
<path d="M501.275 159.985C502.228 162.412 503.506 164.698 505.074 166.781C504.531 167.168 503.909 167.431 503.253 167.552C502.597 167.674 501.922 167.651 501.275 167.485V159.985Z" fill="#DE5753"/>
<path d="M497.542 171.677C496.113 171.717 494.695 171.414 493.407 170.793C492.119 170.172 490.999 169.251 490.14 168.107C490.097 168.035 490.083 167.949 490.101 167.866C490.119 167.784 490.169 167.712 490.239 167.665C490.308 167.622 490.392 167.608 490.472 167.627C490.551 167.645 490.621 167.694 490.664 167.763C491.477 168.807 492.522 169.646 493.716 170.214C494.91 170.783 496.22 171.065 497.542 171.038C497.623 171.042 497.7 171.076 497.758 171.134C497.815 171.191 497.849 171.268 497.853 171.349C497.855 171.392 497.849 171.434 497.834 171.473C497.82 171.513 497.797 171.549 497.768 171.58C497.739 171.611 497.704 171.635 497.665 171.652C497.626 171.668 497.584 171.677 497.542 171.677Z" fill="#263238"/>
<path d="M489.403 149.292C489.269 149.29 489.14 149.246 489.033 149.164C488.927 149.083 488.85 148.97 488.813 148.841C488.776 148.712 488.782 148.575 488.829 148.45C488.877 148.325 488.963 148.218 489.076 148.146C490.177 147.505 491.407 147.12 492.677 147.018C493.947 146.916 495.223 147.1 496.412 147.556C496.489 147.587 496.559 147.632 496.618 147.69C496.677 147.748 496.724 147.817 496.756 147.894C496.788 147.97 496.804 148.052 496.804 148.134C496.804 148.217 496.788 148.299 496.756 148.375C496.688 148.524 496.564 148.642 496.412 148.703C496.259 148.764 496.089 148.764 495.937 148.703C494.928 148.331 493.85 148.184 492.778 148.272C491.706 148.36 490.666 148.68 489.731 149.21C489.632 149.268 489.518 149.296 489.403 149.292Z" fill="#263238"/>
<path d="M507.122 148.653C507 148.654 506.881 148.62 506.778 148.555C506.131 148.113 505.388 147.831 504.61 147.734C503.832 147.637 503.043 147.728 502.307 147.998C502.232 148.033 502.151 148.052 502.068 148.055C501.985 148.058 501.903 148.045 501.825 148.016C501.748 147.987 501.677 147.943 501.616 147.887C501.555 147.83 501.506 147.763 501.472 147.687C501.438 147.612 501.418 147.531 501.415 147.448C501.412 147.365 501.426 147.283 501.455 147.205C501.484 147.128 501.527 147.057 501.584 146.996C501.64 146.935 501.708 146.887 501.783 146.852C502.711 146.499 503.71 146.374 504.696 146.488C505.682 146.602 506.626 146.952 507.449 147.507C507.587 147.595 507.685 147.733 507.722 147.893C507.759 148.052 507.731 148.219 507.646 148.359C507.591 148.449 507.515 148.524 507.423 148.576C507.331 148.627 507.227 148.654 507.122 148.653Z" fill="#263238"/>
<path d="M450.316 580.335C449.14 580.306 447.971 580.153 446.828 579.876C446.766 579.861 446.71 579.828 446.666 579.782C446.623 579.735 446.594 579.677 446.583 579.614C446.569 579.553 446.574 579.488 446.597 579.43C446.621 579.372 446.661 579.322 446.714 579.287C447.172 578.975 451.2 576.388 452.723 577.092C452.897 577.173 453.046 577.296 453.158 577.451C453.27 577.606 453.34 577.787 453.362 577.977C453.418 578.272 453.399 578.576 453.308 578.862C453.216 579.148 453.055 579.406 452.838 579.614C452.111 580.15 451.216 580.406 450.316 580.335ZM447.745 579.401C450.021 579.86 451.724 579.778 452.396 579.172C452.536 579.03 452.638 578.855 452.693 578.664C452.747 578.472 452.752 578.269 452.707 578.075C452.706 577.993 452.683 577.913 452.64 577.844C452.596 577.774 452.535 577.718 452.461 577.682C451.61 577.322 449.317 578.419 447.696 579.401H447.745Z" fill="#407BFF"/>
<path d="M446.844 579.876C446.791 579.891 446.734 579.891 446.681 579.876C446.634 579.847 446.595 579.806 446.569 579.757C446.543 579.708 446.531 579.653 446.533 579.598C446.533 579.434 446.533 575.635 447.974 574.358C448.154 574.194 448.367 574.073 448.6 574.002C448.832 573.931 449.077 573.913 449.317 573.948C449.568 573.954 449.81 574.045 450.003 574.205C450.196 574.366 450.33 574.587 450.381 574.833C450.676 576.323 448.269 579.172 447.008 579.876C446.955 579.893 446.898 579.893 446.844 579.876ZM449.088 574.538C448.839 574.535 448.598 574.629 448.416 574.8C447.593 576.011 447.165 577.446 447.188 578.91C448.449 577.911 449.923 575.799 449.743 574.898C449.743 574.767 449.628 574.587 449.235 574.538H449.088Z" fill="#407BFF"/>
<path d="M510.249 580.335C508.857 580.307 507.471 580.153 506.106 579.876C506.041 579.863 505.981 579.831 505.934 579.782C505.888 579.734 505.857 579.673 505.847 579.607C505.836 579.542 505.846 579.474 505.875 579.414C505.903 579.353 505.95 579.303 506.008 579.27C506.614 578.959 511.87 576.274 513.491 577.158C513.646 577.239 513.776 577.359 513.871 577.505C513.966 577.651 514.021 577.819 514.032 577.993C514.064 578.277 514.029 578.564 513.929 578.831C513.83 579.099 513.668 579.339 513.459 579.532C512.51 580.154 511.379 580.437 510.249 580.335ZM507.187 579.401C510.085 579.893 512.231 579.762 513.017 579.041C513.153 578.919 513.257 578.766 513.319 578.595C513.382 578.424 513.402 578.239 513.377 578.059C513.378 577.991 513.36 577.925 513.326 577.867C513.291 577.809 513.241 577.762 513.18 577.731C512.312 577.24 509.267 578.386 507.187 579.401Z" fill="#407BFF"/>
<path d="M506.155 579.876C506.098 579.899 506.033 579.899 505.975 579.876C505.928 579.848 505.891 579.806 505.868 579.757C505.844 579.707 505.836 579.652 505.844 579.598C505.844 579.434 506.155 575.881 507.826 574.505C508.062 574.3 508.338 574.146 508.637 574.053C508.936 573.96 509.25 573.93 509.561 573.965C510.478 573.965 510.691 574.554 510.74 574.849C510.986 576.372 507.908 579.188 506.303 579.909L506.155 579.876ZM509.299 574.538C508.909 574.538 508.532 574.677 508.235 574.931C507.279 576.074 506.706 577.489 506.597 578.976C508.235 577.993 510.282 575.782 510.135 574.898C510.135 574.816 510.135 574.603 509.529 574.538H509.299Z" fill="#407BFF"/>
<path d="M492.04 156.301L494.529 155.564C494.529 155.564 493.284 157.562 492.04 156.301Z" fill="#263238"/>
<path d="M450.922 562.142H430.797L430.977 550.417L454.819 550.679L450.922 562.142Z" fill="#407BFF"/>
<path opacity="0.7" d="M450.922 562.142H430.797L430.977 550.417L454.819 550.679L450.922 562.142Z" fill="white"/>
<path d="M510.429 562.142H488.617L488.781 550.417L511.854 550.679L510.429 562.142Z" fill="#407BFF"/>
<path opacity="0.7" d="M510.429 562.142H488.617L488.781 550.417L511.854 550.679L510.429 562.142Z" fill="white"/>
<path d="M460.616 280.015L458.209 284.813C458.012 285.173 458.454 285.55 459.077 285.55H515.243C515.718 285.55 516.128 285.32 516.16 285.009L516.635 280.228C516.635 279.884 516.259 279.605 515.718 279.605H461.484C461.316 279.59 461.147 279.621 460.994 279.692C460.842 279.764 460.711 279.876 460.616 280.015Z" fill="#407BFF"/>
<path opacity="0.6" d="M460.616 280.015L458.209 284.813C458.012 285.173 458.454 285.55 459.077 285.55H515.243C515.718 285.55 516.128 285.32 516.16 285.009L516.635 280.228C516.635 279.884 516.259 279.605 515.718 279.605H461.484C461.316 279.59 461.147 279.621 460.994 279.692C460.842 279.764 460.711 279.876 460.616 280.015Z" fill="white"/>
<path d="M465.61 285.599H464.153C463.858 285.599 463.645 285.451 463.662 285.271L464.349 279.032C464.349 278.852 464.611 278.705 464.906 278.705H466.363C466.642 278.705 466.871 278.852 466.855 279.032L466.167 285.271C466.151 285.451 465.889 285.599 465.61 285.599Z" fill="#407BFF"/>
<path d="M512.542 285.599H511.084C510.806 285.599 510.577 285.451 510.593 285.271L511.281 279.032C511.281 278.852 511.559 278.705 511.838 278.705H513.295C513.59 278.705 513.803 278.852 513.786 279.032L513.099 285.271C513.082 285.451 512.837 285.599 512.542 285.599Z" fill="#407BFF"/>
<path d="M493.563 285.599H492.122C491.827 285.599 491.614 285.451 491.63 285.271L492.302 279.032C492.302 278.852 492.58 278.705 492.875 278.705H494.332C494.611 278.705 494.84 278.852 494.807 279.032L494.136 285.271C494.119 285.451 493.857 285.599 493.563 285.599Z" fill="#407BFF"/>
<path d="M471.276 276.74H473.65C473.954 276.735 474.247 276.622 474.475 276.421C474.703 276.22 474.852 275.944 474.895 275.643C474.916 275.504 474.907 275.362 474.868 275.228C474.829 275.093 474.762 274.968 474.67 274.862C474.578 274.756 474.464 274.671 474.336 274.614C474.208 274.556 474.069 274.527 473.929 274.529H471.603C471.297 274.534 471.003 274.65 470.774 274.854C470.546 275.059 470.398 275.339 470.359 275.643C470.338 275.776 470.346 275.913 470.382 276.044C470.418 276.174 470.482 276.295 470.568 276.399C470.655 276.503 470.763 276.587 470.885 276.646C471.007 276.705 471.141 276.737 471.276 276.74Z" fill="#E0E0E0"/>
<path d="M473.569 279.622L473.946 276.511C473.975 276.329 473.963 276.143 473.912 275.966C473.86 275.789 473.77 275.625 473.648 275.488C473.526 275.35 473.375 275.241 473.205 275.168C473.036 275.096 472.852 275.062 472.668 275.069C472.266 275.067 471.877 275.212 471.575 275.478C471.273 275.743 471.079 276.111 471.031 276.511L470.654 279.622C470.625 279.804 470.636 279.99 470.688 280.167C470.739 280.344 470.829 280.507 470.952 280.645C471.074 280.783 471.225 280.892 471.395 280.964C471.564 281.036 471.747 281.07 471.931 281.063C472.334 281.066 472.723 280.92 473.025 280.655C473.327 280.389 473.521 280.021 473.569 279.622Z" fill="#E0E0E0"/>
<path d="M505.238 276.74H507.629C507.931 276.734 508.222 276.621 508.447 276.419C508.672 276.218 508.818 275.942 508.857 275.643C508.879 275.504 508.87 275.362 508.831 275.228C508.792 275.093 508.724 274.968 508.632 274.862C508.54 274.756 508.426 274.671 508.298 274.614C508.17 274.556 508.031 274.527 507.891 274.529H505.5C505.196 274.541 504.905 274.659 504.678 274.862C504.45 275.065 504.301 275.341 504.256 275.643C504.237 275.781 504.248 275.923 504.289 276.057C504.33 276.191 504.4 276.314 504.493 276.418C504.587 276.523 504.702 276.606 504.83 276.661C504.959 276.717 505.098 276.743 505.238 276.74Z" fill="#E0E0E0"/>
<path d="M507.514 279.622L507.891 276.511C507.92 276.329 507.909 276.143 507.857 275.966C507.806 275.789 507.716 275.625 507.594 275.488C507.471 275.35 507.32 275.241 507.151 275.168C506.981 275.096 506.798 275.062 506.614 275.069C506.212 275.067 505.822 275.212 505.52 275.478C505.218 275.743 505.025 276.111 504.976 276.511L504.6 279.622C504.573 279.803 504.587 279.988 504.64 280.164C504.692 280.339 504.782 280.501 504.904 280.639C505.026 280.776 505.176 280.885 505.344 280.958C505.512 281.031 505.694 281.067 505.877 281.063C506.279 281.066 506.668 280.92 506.971 280.655C507.273 280.389 507.466 280.021 507.514 279.622Z" fill="#E0E0E0"/>
<path d="M463.825 199.777L466.495 199.515C466.698 199.499 466.9 199.554 467.067 199.671C467.234 199.787 467.356 199.957 467.412 200.153C478.53 237.096 474.289 275.708 474.289 275.708H470.867C473.454 229.759 464.497 205.77 463.088 200.841C463.057 200.722 463.052 200.598 463.073 200.477C463.094 200.355 463.142 200.24 463.212 200.139C463.282 200.038 463.373 199.953 463.479 199.891C463.585 199.828 463.703 199.789 463.825 199.777Z" fill="#407BFF"/>
<path opacity="0.6" d="M463.825 199.777L466.495 199.515C466.698 199.499 466.9 199.554 467.067 199.671C467.234 199.787 467.356 199.957 467.412 200.153C478.53 237.096 474.289 275.708 474.289 275.708H470.867C473.454 229.759 464.497 205.77 463.088 200.841C463.057 200.722 463.052 200.598 463.073 200.477C463.094 200.355 463.142 200.24 463.212 200.139C463.282 200.038 463.373 199.953 463.479 199.891C463.585 199.828 463.703 199.789 463.825 199.777Z" fill="white"/>
<path d="M504.911 199.629L507.252 199.957C507.433 199.991 507.599 200.08 507.728 200.212C507.857 200.344 507.942 200.512 507.973 200.694C514.621 229.383 508.251 275.626 508.251 275.626H504.812C509.168 225.436 504.714 205.213 503.961 200.595C503.942 200.466 503.954 200.333 503.995 200.209C504.035 200.084 504.104 199.971 504.196 199.877C504.288 199.784 504.401 199.713 504.524 199.67C504.648 199.627 504.78 199.613 504.911 199.629Z" fill="#407BFF"/>
<path opacity="0.6" d="M504.911 199.629L507.252 199.957C507.433 199.991 507.599 200.08 507.728 200.212C507.857 200.344 507.942 200.512 507.973 200.694C514.621 229.383 508.251 275.626 508.251 275.626H504.812C509.168 225.436 504.714 205.213 503.961 200.595C503.942 200.466 503.954 200.333 503.995 200.209C504.035 200.084 504.104 199.971 504.196 199.877C504.288 199.784 504.401 199.713 504.524 199.67C504.648 199.627 504.78 199.613 504.911 199.629Z" fill="white"/>
<path d="M458.913 218.805C458.913 222.489 459.028 226.419 459.241 230.267C459.454 234.115 459.617 237.914 460.01 241.73C460.403 245.545 460.895 249.197 461.648 252.767C462.008 254.535 462.417 256.271 462.892 257.908C463.143 258.727 463.405 259.513 463.678 260.266L464.055 261.216C464.048 261.232 464.044 261.248 464.044 261.265C464.044 261.282 464.048 261.299 464.055 261.314C464.055 261.462 464.677 261.986 465.905 262.346C467.364 262.733 468.867 262.932 470.376 262.936C473.992 262.962 477.603 262.666 481.167 262.051C484.884 261.478 488.65 260.676 492.384 259.759C496.118 258.842 499.933 257.827 503.601 256.779L506.123 262.952C498.818 266.639 491.173 269.611 483.296 271.827C479.15 273.024 474.892 273.787 470.589 274.103C468.141 274.276 465.682 274.138 463.269 273.694C461.825 273.413 460.422 272.951 459.093 272.319C457.485 271.562 456.048 270.487 454.869 269.158C454.233 268.444 453.684 267.658 453.231 266.816C452.969 266.342 452.904 266.178 452.756 265.883L452.363 265.081C451.888 264 451.446 262.936 451.053 261.806C450.292 259.747 449.647 257.648 449.121 255.518C448.103 251.452 447.332 247.329 446.812 243.171C445.742 235.029 445.277 226.819 445.42 218.608L458.913 218.805Z" fill="#E4897B"/>
<path d="M500.702 258.449L504.845 245.791L511.903 257.253C511.903 257.253 507.76 264.638 502.274 264.524L500.702 258.449Z" fill="#E4897B"/>
<path d="M514.048 239.617L519.452 249.475L511.903 257.188L504.845 245.791L514.048 239.617Z" fill="#E4897B"/>
<path d="M451.708 202.708C446.337 204.345 439.901 222.816 439.901 222.816L460.714 237.701C460.714 237.701 468.312 222.276 466.052 215.333C463.711 208.112 457.832 200.841 451.708 202.708Z" fill="#407BFF"/>
<path opacity="0.7" d="M451.708 202.708C446.337 204.345 439.901 222.816 439.901 222.816L460.714 237.701C460.714 237.701 468.312 222.276 466.052 215.333C463.711 208.112 457.832 200.841 451.708 202.708Z" fill="black"/>
<path d="M472.913 142.054C480.2 139.32 482.247 136.11 482.739 134.718C482.818 134.514 482.844 134.292 482.815 134.075C482.787 133.858 482.704 133.651 482.575 133.474C481.445 131.836 477.81 127.415 473.945 130.477C470.081 133.539 466.773 133.539 471.21 141.448C471.368 141.743 471.63 141.969 471.945 142.081C472.26 142.193 472.605 142.183 472.913 142.054Z" fill="#407BFF"/>
<path opacity="0.3" d="M472.913 142.054C480.2 139.32 482.247 136.11 482.739 134.718C482.818 134.514 482.844 134.292 482.815 134.075C482.787 133.858 482.704 133.651 482.575 133.474C481.445 131.836 477.81 127.415 473.945 130.477C470.081 133.539 466.773 133.539 471.21 141.448C471.368 141.743 471.63 141.969 471.945 142.081C472.26 142.193 472.605 142.183 472.913 142.054Z" fill="black"/>
</svg>
