<svg width="51" height="51" viewBox="0 0 51 51" fill="none" xmlns="http://www.w3.org/2000/svg">
<path d="M18.2118 5.29076C19.3081 4.96882 20.4816 5.03208 21.537 5.47C22.5923 5.90792 23.4658 6.69409 24.0121 7.69763L24.1969 8.07147L25.8229 11.7608C26.3171 12.8806 26.4712 14.121 26.266 15.3277C26.0609 16.5344 25.5055 17.6541 24.6689 18.5476L24.3366 18.8753L21.7091 21.2889C21.2359 21.7305 21.576 23.4555 23.2572 26.4127C24.7656 29.0736 26.0041 30.3201 26.6136 30.392L26.7211 30.3927L26.8538 30.3687L31.99 28.8382C32.6802 28.6319 33.4153 28.6289 34.1073 28.8294C34.7993 29.0299 35.4189 29.4255 35.8919 29.9688L36.1198 30.258L39.4759 34.9823C40.1344 35.908 40.4581 37.0304 40.3936 38.1646C40.329 39.2989 39.8802 40.3773 39.1209 41.2224L38.8136 41.5352L37.4469 42.8104C36.2219 43.9539 34.6942 44.7216 33.0456 45.0221C31.397 45.3227 29.6967 45.1435 28.1469 44.5059C23.3236 42.5211 18.9608 38.0345 15.0183 31.0909C11.0684 24.1298 9.44945 18.0754 10.2292 12.9059C10.4654 11.343 11.1206 9.87318 12.1251 8.65271C13.1296 7.43224 14.446 6.50668 15.9343 5.97436L16.418 5.81785L18.2118 5.29076Z" fill="#333333"/>
</svg>
