<svg width="629" height="468" viewBox="0 0 629 468" fill="none" xmlns="http://www.w3.org/2000/svg">
<g id="contact-us 1">
<path id="Vector" d="M628.566 411.271H0V411.585H628.566V411.271Z" fill="#E0E0E0"/>
<path id="Vector_2" d="M474.77 424.574H431.524V424.888H474.77V424.574Z" fill="#E0E0E0"/>
<path id="Vector_3" d="M139.592 424.725H115.254V425.039H139.592V424.725Z" fill="#E0E0E0"/>
<path id="Vector_4" d="M315.541 423.996H266.211V424.311H315.541V423.996Z" fill="#E0E0E0"/>
<path id="Vector_5" d="M264.954 419.524H242.904V419.838H264.954V419.524Z" fill="#E0E0E0"/>
<path id="Vector_6" d="M533.729 419.688H467.114V420.002H533.729V419.688Z" fill="#E0E0E0"/>
<path id="tree" d="M552.272 254.036C536.809 230.508 550.926 205.221 548.576 179.042C546.226 152.864 521.334 147.161 526.048 125.027C531.504 99.3006 516.959 74.6165 500.478 74.6165C483.997 74.6165 469.465 99.2377 474.92 124.989C479.634 147.161 454.806 152.876 452.393 179.005C449.979 205.133 464.159 230.508 448.684 253.998C433.209 277.489 437.282 308.679 445.994 324.143C448.311 328.246 451.105 332.062 454.316 335.512C460.22 341.845 467.367 346.896 475.31 350.349C483.252 353.803 491.822 355.585 500.484 355.585C509.146 355.585 517.716 353.803 525.659 350.349C533.602 346.896 540.748 341.845 546.655 335.512C549.857 332.058 552.646 328.243 554.964 324.143C563.685 308.717 567.75 277.615 552.272 254.036Z" fill="#E0E0E0"/>
<path id="Vector_7" d="M500.478 271.886C501.505 271.886 502.522 272.088 503.47 272.481C504.419 272.874 505.281 273.449 506.007 274.175C506.733 274.9 507.309 275.762 507.702 276.709C508.095 277.657 508.297 278.674 508.297 279.7V411.271H492.658V279.7C492.658 278.674 492.861 277.657 493.254 276.709C493.647 275.762 494.222 274.9 494.949 274.175C495.675 273.449 496.537 272.874 497.486 272.481C498.434 272.088 499.451 271.886 500.478 271.886Z" fill="#F0F0F0"/>
<path id="Vector_8" d="M402.17 411.271H380.912V279.712C380.918 276.892 382.042 274.19 384.038 272.196C386.033 270.202 388.738 269.079 391.56 269.072C394.382 269.079 397.086 270.202 399.082 272.196C401.077 274.19 402.201 276.892 402.208 279.712L402.17 411.271Z" fill="#E0E0E0"/>
<path id="Vector_9" d="M391.522 375.784C427.743 375.784 457.107 346.444 457.107 310.25C457.107 274.056 427.743 244.715 391.522 244.715C355.301 244.715 325.938 274.056 325.938 310.25C325.938 346.444 355.301 375.784 391.522 375.784Z" fill="#F0F0F0"/>
<path id="Vector_10" d="M468.589 290.584C472.03 276.741 463.589 262.731 449.736 259.293C435.882 255.854 421.861 264.289 418.42 278.132C414.979 291.975 423.42 305.985 437.274 309.423C451.128 312.862 465.148 304.427 468.589 290.584Z" fill="#F0F0F0"/>
<path id="Vector_11" d="M353.571 271.521C354.929 263.187 349.269 255.332 340.929 253.974C332.59 252.618 324.728 258.273 323.37 266.606C322.012 274.939 327.671 282.795 336.011 284.152C344.351 285.509 352.212 279.854 353.571 271.521Z" fill="#F0F0F0"/>
<path id="Vector_12" d="M355.115 271.886C361.045 271.886 365.851 267.083 365.851 261.159C365.851 255.234 361.045 250.431 355.115 250.431C349.186 250.431 344.379 255.234 344.379 261.159C344.379 267.083 349.186 271.886 355.115 271.886Z" fill="#F0F0F0"/>
<path id="plant" d="M256.456 332.748C246.257 334.265 236.511 337.982 227.893 343.639C227.818 333.69 225.995 324.256 221.318 316.631C214.203 323.552 208.433 332.522 203.719 342.169C201.996 324.092 197.232 306.506 186.684 295.364C170.882 305.3 162.736 321.857 158.864 339.393C152.468 327.569 143.183 317.552 131.873 310.275C122.206 320.45 119.113 334.519 119.378 348.94C108.39 336.152 96.1957 326.178 84.3033 325.009C81.3743 345.221 87.6095 364.29 95.5423 379.364C100.692 389.036 108.386 397.119 117.794 402.744C127.203 408.369 137.969 411.322 148.933 411.284H200.589C222.601 411.284 243.243 399.551 253.564 380.118C260.088 367.807 263.206 351.967 256.456 332.748Z" fill="#E0E0E0"/>
<path id="cloud1" d="M241.697 71.7775C248.07 53.0982 242.954 39.7953 227.403 39.7953C217.623 39.7953 205.491 45.0336 193.674 53.5504C192.342 48.6891 188.583 45.7873 182.536 45.7873C171.888 45.7873 157.217 54.7815 145.715 67.469C142.476 64.3942 138.188 62.6654 133.721 62.6328C123.526 62.0547 111.194 67.2304 100.47 75.6338C99.9328 74.8827 99.2235 74.2705 98.4013 73.8486C97.5791 73.4266 96.6679 73.2076 95.7431 73.2097C89.8726 72.8827 81.9149 78.1088 77.9803 84.8669C77.7415 85.2812 77.5276 85.6961 77.3013 86.1228H244.79C245.292 80.2189 244.248 75.2949 241.697 71.7775Z" fill="#F0F0F0"/>
<path id="Vector_13" d="M242.212 185.198C245.33 176.078 242.853 169.584 235.235 169.584C230.445 169.584 224.524 172.096 218.754 176.304C218.443 175.132 217.725 174.108 216.727 173.418C215.73 172.727 214.518 172.414 213.311 172.535C208.119 172.535 200.953 176.932 195.321 183.138C193.742 181.631 191.646 180.786 189.463 180.776C184.434 180.487 178.463 183.012 173.221 187.12C172.966 186.756 172.63 186.458 172.24 186.249C171.848 186.039 171.414 185.925 170.97 185.914C168.104 185.75 164.219 188.3 162.296 191.604L161.957 192.207H243.771C244.113 189.759 243.56 187.27 242.212 185.198Z" fill="#F0F0F0"/>
<path id="cloud2" d="M430.908 116.184C430.263 116.093 429.611 116.047 428.96 116.046C429.563 106.938 426.08 101.11 418.626 101.11C413.258 101.11 406.658 104.15 399.945 109.287C401.869 91.6006 395.708 80.1066 381.754 80.1066C370.515 80.1066 356.272 87.6434 342.205 99.7783C340.947 92.844 336.824 88.6738 329.86 88.6738C317.628 88.6738 300.241 101.537 286.3 119.676C284.711 117.585 282.674 115.875 280.338 114.672C278.001 113.471 275.425 112.806 272.798 112.729C261.157 111.913 246.687 119.299 233.827 131.333C233.359 130.319 232.614 129.456 231.678 128.845C230.742 128.234 229.652 127.899 228.534 127.879C222.161 127.427 213.449 134.072 208.282 142.953H441.154C446.623 129.487 442.273 117.704 430.908 116.184Z" fill="#F0F0F0"/>
<path id="Vector_14" d="M314.284 468C448.901 468 558.03 461.633 558.03 453.78C558.03 445.926 448.901 439.56 314.284 439.56C179.667 439.56 70.5381 445.926 70.5381 453.78C70.5381 461.633 179.667 468 314.284 468Z" fill="#F5F5F5"/>
<path id="Vector_15" d="M377.593 251.562C377.275 251.562 376.959 251.503 376.663 251.386L338.169 236.161C337.553 235.913 337.061 235.432 336.799 234.822C336.537 234.213 336.526 233.524 336.771 232.907C337.014 232.29 337.493 231.794 338.101 231.529C338.709 231.263 339.398 231.248 340.017 231.488L378.523 246.713C379.068 246.928 379.52 247.326 379.803 247.839C380.085 248.352 380.179 248.947 380.068 249.522C379.958 250.097 379.651 250.615 379.198 250.988C378.746 251.36 378.179 251.563 377.593 251.562Z" fill="#248BCC"/>
<g id="aeroplane">
<path id="aaaaaaaaaaaaa" d="M61.4238 120.04L348.013 161.268L386.468 200.046L61.4238 120.04Z" fill="#248BCC"/>
<path id="aaaaaaaaaaaa" opacity="0.6" d="M61.4238 120.04L348.013 161.268L386.468 200.046L61.4238 120.04Z" fill="white"/>
<path id="aaaaa" d="M61.4238 120.04L348.013 161.268L334.712 217.343L61.4238 120.04Z" fill="#248BCC"/>
<path id="aaaa" opacity="0.2" d="M61.4238 120.04L348.013 161.268L334.712 217.343L61.4238 120.04Z" fill="black"/>
<path id="aaa" d="M61.4238 120.04L297.802 176.178L334.712 217.343L61.4238 120.04Z" fill="#248BCC"/>
<path id="aa" opacity="0.6" d="M61.4238 120.04L297.802 176.178L334.712 217.343L61.4238 120.04Z" fill="white"/>
<path id="Vector_16" d="M147.649 174.15L147.014 175.234L173.319 190.631L173.954 189.547L147.649 174.15Z" fill="#248BCC"/>
<path id="Vector_17" d="M185.568 196.334L184.932 197.418L194.391 202.955L195.027 201.871L185.568 196.334Z" fill="#248BCC"/>
<path id="a" d="M61.4238 120.04L297.802 176.178L251.855 231.513L61.4238 120.04Z" fill="#248BCC"/>
</g>
<g id="email">
<path id="Vector_18" d="M328.829 55.121L345.46 133.004C345.894 135.037 345.501 137.159 344.37 138.904C343.239 140.649 341.461 141.875 339.427 142.312L190.984 173.967C188.949 174.396 186.827 174.003 185.081 172.873C183.336 171.743 182.109 169.969 181.669 167.938L165.024 90.055C164.595 88.0198 164.991 85.8978 166.124 84.1532C167.257 82.4087 169.036 81.1842 171.071 80.7466L319.514 49.0913C321.55 48.6627 323.674 49.0579 325.42 50.1903C327.166 51.3227 328.391 53.1001 328.829 55.1335V55.121Z" fill="#248BCC"/>
<g id="vec">
<path id="email_2" opacity="0.4" d="M328.829 55.121L345.46 133.004C345.894 135.037 345.501 137.159 344.37 138.904C343.239 140.649 341.461 141.875 339.427 142.312L190.984 173.967C188.949 174.396 186.827 174.003 185.081 172.873C183.336 171.743 182.109 169.969 181.669 167.938L165.024 90.055C164.595 88.0198 164.991 85.8978 166.124 84.1532C167.257 82.4087 169.036 81.1842 171.071 80.7466L319.514 49.0913C321.55 48.6627 323.674 49.0579 325.42 50.1903C327.166 51.3227 328.391 53.1001 328.829 55.1335V55.121Z" fill="black"/>
<path id="Vector_19" d="M325.171 50.021L275.576 110.857C270.977 116.498 264.589 120.4 257.468 121.919C250.347 123.439 242.92 122.483 236.417 119.211L166.281 83.9125C167.416 82.2839 169.128 81.1473 171.071 80.7346L319.514 49.0788C321.45 48.6669 323.472 49.0035 325.171 50.021Z" fill="#248BCC"/>
</g>
</g>
<path id="Vector_20" opacity="0.3" d="M377.593 251.562C377.275 251.562 376.959 251.503 376.663 251.386L338.169 236.161C337.553 235.913 337.061 235.432 336.799 234.822C336.537 234.213 336.526 233.524 336.771 232.907C337.014 232.29 337.493 231.794 338.101 231.529C338.709 231.263 339.398 231.248 340.017 231.488L378.523 246.713C379.068 246.928 379.52 247.326 379.803 247.839C380.085 248.352 380.179 248.947 380.068 249.522C379.958 250.097 379.651 250.615 379.198 250.988C378.746 251.36 378.179 251.563 377.593 251.562Z" fill="black"/>
<path id="Vector_21" d="M375.318 229.503C375.002 229.501 374.69 229.437 374.4 229.315L353.72 221.086C353.411 220.967 353.128 220.787 352.889 220.558C352.65 220.329 352.458 220.054 352.325 219.751C352.192 219.448 352.121 219.121 352.115 218.789C352.109 218.458 352.168 218.129 352.29 217.821C352.412 217.513 352.594 217.232 352.825 216.994C353.056 216.756 353.331 216.566 353.636 216.436C353.941 216.305 354.268 216.236 354.6 216.232C354.931 216.228 355.26 216.29 355.568 216.413L376.248 224.604C376.868 224.848 377.365 225.327 377.632 225.937C377.898 226.547 377.911 227.238 377.669 227.857C377.491 228.338 377.172 228.754 376.751 229.048C376.331 229.342 375.831 229.501 375.318 229.503Z" fill="#248BCC"/>
<path id="Vector_22" opacity="0.5" d="M375.318 229.503C375.002 229.501 374.69 229.437 374.4 229.315L353.72 221.086C353.411 220.967 353.128 220.787 352.889 220.558C352.65 220.329 352.458 220.054 352.325 219.751C352.192 219.448 352.121 219.121 352.115 218.789C352.109 218.458 352.168 218.129 352.29 217.821C352.412 217.513 352.594 217.232 352.825 216.994C353.056 216.756 353.331 216.566 353.636 216.436C353.941 216.305 354.268 216.236 354.6 216.232C354.931 216.228 355.26 216.29 355.568 216.413L376.248 224.604C376.868 224.848 377.365 225.327 377.632 225.937C377.898 226.547 377.911 227.238 377.669 227.857C377.491 228.338 377.172 228.754 376.751 229.048C376.331 229.342 375.831 229.501 375.318 229.503Z" fill="white"/>
<path id="Vector_23" d="M332.085 251.235C331.771 251.231 331.46 251.172 331.167 251.059L293.617 236.161C293.307 236.041 293.025 235.862 292.786 235.632C292.546 235.403 292.354 235.129 292.221 234.825C292.089 234.522 292.017 234.195 292.011 233.864C292.005 233.533 292.065 233.203 292.187 232.895C292.309 232.587 292.49 232.306 292.721 232.068C292.952 231.83 293.228 231.641 293.532 231.51C293.837 231.379 294.165 231.31 294.496 231.306C294.828 231.303 295.157 231.364 295.464 231.488L333.015 246.336C333.56 246.551 334.012 246.949 334.294 247.462C334.576 247.975 334.67 248.57 334.56 249.145C334.45 249.72 334.142 250.238 333.69 250.611C333.238 250.983 332.67 251.186 332.085 251.185V251.235Z" fill="#248BCC"/>
<path id="Vector_24" opacity="0.3" d="M332.085 251.235C331.771 251.231 331.46 251.172 331.167 251.059L293.617 236.161C293.307 236.041 293.025 235.862 292.786 235.632C292.546 235.403 292.354 235.129 292.221 234.825C292.089 234.522 292.017 234.195 292.011 233.864C292.005 233.533 292.065 233.203 292.187 232.895C292.309 232.587 292.49 232.306 292.721 232.068C292.952 231.83 293.228 231.641 293.532 231.51C293.837 231.379 294.165 231.31 294.496 231.306C294.828 231.303 295.157 231.364 295.464 231.488L333.015 246.336C333.56 246.551 334.012 246.949 334.294 247.462C334.576 247.975 334.67 248.57 334.56 249.145C334.45 249.72 334.142 250.238 333.69 250.611C333.238 250.983 332.67 251.186 332.085 251.185V251.235Z" fill="black"/>
<path id="Vector_25" d="M468.031 137.953C471.363 144.447 474.417 150.954 477.321 157.612C480.225 164.27 482.928 171.015 485.292 178.087L486.146 180.763C486.297 181.241 486.511 182.019 486.637 182.572C486.762 183.125 486.876 183.753 486.939 184.28C487.226 186.307 487.374 188.351 487.378 190.398C487.397 194.173 487.221 197.947 486.851 201.704C486.149 208.976 485.007 216.2 483.431 223.335L476.53 222.568C476.442 215.496 476.379 208.349 476.127 201.377C476.014 197.91 475.813 194.43 475.461 191.164C475.302 189.631 475.05 188.108 474.707 186.605C474.644 186.253 474.543 185.989 474.468 185.7C474.392 185.411 474.317 185.311 474.191 184.934L473.236 182.56C470.609 176.203 467.654 169.797 464.637 163.416L455.511 144.271L468.031 137.953Z" fill="#E4897B"/>
<path id="Vector_26" d="M476.63 220.358L473.412 226.375L483.695 229.239C483.695 229.239 485.656 224.403 483.318 220.584L476.63 220.358Z" fill="#E4897B"/>
<path id="Vector_27" d="M469.477 235.043L478.931 235.797L483.695 229.239L473.412 226.375L469.477 235.043Z" fill="#E4897B"/>
<path id="Vector_28" d="M424.748 94.5393C424.61 95.2806 424.095 95.7958 423.617 95.6949C423.139 95.5946 422.875 94.9286 423.026 94.2003C423.177 93.4715 423.68 92.9444 424.157 93.0447C424.635 93.145 424.911 93.811 424.748 94.5393Z" fill="#263238"/>
<path id="Vector_29" d="M424.17 95.7957C422.842 97.851 421.239 99.7149 419.405 101.335C419.833 101.79 420.355 102.148 420.935 102.382C421.514 102.616 422.138 102.722 422.762 102.692L424.17 95.7957Z" fill="#DE5753"/>
<path id="Vector_30" d="M428.243 91.0344C428.124 91.0317 428.011 90.9818 427.929 90.8961C427.568 90.4834 427.114 90.1613 426.605 89.9563C426.096 89.7513 425.546 89.6689 424.999 89.7155C424.895 89.7166 424.794 89.6808 424.714 89.6141C424.634 89.5474 424.58 89.4547 424.562 89.3522C424.544 89.2497 424.563 89.144 424.615 89.0545C424.668 88.9645 424.75 88.8961 424.849 88.8614C425.548 88.773 426.258 88.8582 426.916 89.1103C427.574 89.3625 428.16 89.773 428.62 90.3061C428.701 90.388 428.746 90.4986 428.746 90.6136C428.746 90.7285 428.701 90.8392 428.62 90.9216C428.57 90.9677 428.51 91.0013 428.445 91.0208C428.379 91.0409 428.31 91.0452 428.243 91.0344Z" fill="#263238"/>
<path id="Vector_31" d="M445.541 104.802C444.221 111.561 442.901 123.921 447.628 128.431C447.628 128.431 445.78 135.277 433.221 135.277C419.393 135.277 426.634 128.431 426.634 128.431C434.177 126.634 433.963 121.044 432.655 115.806L445.541 104.802Z" fill="#E4897B"/>
<path id="Vector_32" d="M449.526 132.69C450.519 129.387 451.613 125.605 449.35 124.412C446.836 123.156 433.171 121.774 428.457 124.223C423.742 126.673 425.088 133.394 425.088 133.394L449.526 132.69Z" fill="#263238"/>
<path id="Vector_33" d="M478.516 445.941C478.125 445.993 477.728 445.967 477.349 445.863C476.969 445.759 476.613 445.581 476.303 445.339C476.194 445.187 476.135 445.004 476.135 444.817C476.135 444.63 476.194 444.448 476.303 444.296C476.375 444.166 476.474 444.052 476.593 443.963C476.713 443.875 476.849 443.813 476.995 443.781C478.353 443.479 480.892 445.213 481.005 445.288C481.037 445.315 481.063 445.351 481.078 445.39C481.093 445.43 481.099 445.472 481.093 445.514C481.086 445.555 481.066 445.592 481.037 445.622C481.008 445.651 480.97 445.67 480.929 445.678C480.136 445.848 479.327 445.937 478.516 445.941ZM477.359 444.183H477.095C477.01 444.2 476.93 444.237 476.861 444.289C476.791 444.341 476.734 444.407 476.693 444.484C476.492 444.836 476.618 444.987 476.693 445.037C477.083 445.565 478.969 445.565 480.351 445.339C479.45 444.744 478.428 444.358 477.359 444.208V444.183Z" fill="#248BCC"/>
<path id="Vector_34" d="M480.879 445.715H480.778C479.823 445.188 477.975 443.203 478.164 442.148C478.196 441.985 478.284 441.838 478.412 441.733C478.54 441.628 478.702 441.57 478.868 441.57C479.034 441.552 479.201 441.567 479.361 441.615C479.52 441.662 479.669 441.741 479.798 441.846C480.866 442.726 481.055 445.389 481.055 445.502C481.06 445.541 481.054 445.582 481.036 445.618C481.018 445.654 480.99 445.683 480.955 445.703C480.931 445.713 480.905 445.717 480.879 445.715ZM479.018 441.947H478.969C478.679 441.947 478.654 442.123 478.641 442.173C478.528 442.789 479.71 444.309 480.653 445.025C480.59 443.975 480.213 442.969 479.572 442.135C479.487 442.069 479.39 442.021 479.287 441.993C479.183 441.965 479.075 441.958 478.969 441.972L479.018 441.947Z" fill="#248BCC"/>
<path id="Vector_35" d="M425.855 445.716H425.766C424.648 445.226 422.448 443.203 422.611 442.186C422.611 441.935 422.825 441.633 423.428 441.57C423.652 441.536 423.882 441.552 424.099 441.617C424.317 441.682 424.517 441.795 424.685 441.947C425.867 442.902 426.106 445.389 426.118 445.502C426.123 445.54 426.118 445.579 426.102 445.615C426.087 445.65 426.062 445.681 426.031 445.703C426.004 445.718 425.974 445.726 425.944 445.729C425.913 445.731 425.883 445.726 425.855 445.716ZM423.604 441.947H423.466C423.076 441.947 423.051 442.148 423.039 442.198C422.938 442.826 424.446 444.397 425.553 445.075C425.444 444.02 425.004 443.026 424.295 442.236C424.116 442.081 423.891 441.988 423.655 441.972L423.604 441.947Z" fill="#248BCC"/>
<path id="Vector_36" d="M436.012 445.489H426.772L425.855 424.122H435.094L436.012 445.489Z" fill="#E4897B"/>
<path id="Vector_37" d="M491.464 445.489H482.224L477.586 424.122H486.813L491.464 445.489Z" fill="#E4897B"/>
<path id="Vector_38" d="M481.571 444.422H491.942C492.127 444.423 492.306 444.487 492.45 444.604C492.594 444.72 492.694 444.882 492.734 445.063L494.557 453.265C494.599 453.465 494.594 453.671 494.545 453.869C494.496 454.067 494.403 454.252 494.272 454.409C494.142 454.566 493.977 454.692 493.792 454.776C493.606 454.861 493.404 454.903 493.199 454.898C489.579 454.836 487.819 454.622 483.255 454.622C480.452 454.622 474.669 454.924 470.785 454.924C466.9 454.924 466.41 451.155 467.993 450.74C475.109 449.183 477.787 447.035 480.062 445C480.475 444.626 481.014 444.42 481.571 444.422Z" fill="#263238"/>
<path id="Vector_39" d="M426.835 444.422H436.892C437.077 444.423 437.256 444.487 437.4 444.604C437.544 444.72 437.644 444.882 437.684 445.063L439.507 453.265C439.55 453.463 439.549 453.668 439.502 453.866C439.455 454.062 439.364 454.247 439.236 454.404C439.108 454.561 438.945 454.687 438.762 454.772C438.578 454.858 438.377 454.901 438.174 454.898C434.541 454.835 429.286 454.622 424.711 454.622C419.368 454.622 414.742 454.924 408.468 454.924C404.697 454.924 403.628 451.155 405.212 450.74C412.441 449.157 418.337 448.994 424.585 445.15C425.25 444.698 426.031 444.445 426.835 444.422Z" fill="#263238"/>
<path id="Vector_40" d="M422.397 144.636C414.675 144.038 406.991 143.019 399.379 141.583C395.608 140.854 391.761 140.038 387.939 139.008C384.022 138.006 380.175 136.747 376.424 135.24C375.456 134.838 374.475 134.398 373.507 133.984C372.418 133.447 371.367 132.834 370.364 132.15C368.554 130.956 366.995 129.712 365.449 128.481C362.369 125.969 359.516 123.457 356.649 120.881C351.03 115.681 345.699 110.304 340.558 104.651L345.184 99.4888L363.425 112.591C366.43 114.751 369.472 116.874 372.464 118.871C373.947 119.864 375.468 120.793 376.864 121.585C377.447 121.918 378.052 122.211 378.674 122.464C379.416 122.753 380.17 123.042 380.962 123.318C387.757 125.409 394.705 126.963 401.743 127.966C408.921 129.097 416.338 130.026 423.504 130.78L422.397 144.636Z" fill="#E4897B"/>
<path id="Vector_41" d="M459.168 144.334L455.636 152.236C459.294 160.124 462.638 167.938 463.531 170.023C463.405 160.689 461.632 149.108 459.168 144.334Z" fill="#248BCC"/>
<path id="Vector_42" opacity="0.6" d="M459.168 144.334L455.636 152.236C459.294 160.124 462.638 167.938 463.531 170.023C463.405 160.689 461.632 149.108 459.168 144.334Z" fill="black"/>
<path id="Vector_43" d="M408.77 144.334C408.443 146.935 408.192 150.012 408.028 153.642C412.906 152.18 417.541 150.004 421.781 147.186L408.77 144.334Z" fill="#248BCC"/>
<path id="Vector_44" opacity="0.6" d="M408.77 144.334C408.443 146.935 408.192 150.012 408.028 153.642C412.906 152.18 417.541 150.004 421.781 147.186L408.77 144.334Z" fill="black"/>
<path id="Vector_45" d="M345.423 99.5392L339.137 92.1407L332.361 99.6775C332.361 99.6775 336.535 106.687 343.16 105.581L345.423 99.5392Z" fill="#E4897B"/>
<path id="Vector_46" d="M330.136 83.5106L327.698 93.1705L332.311 99.6271L339.087 92.1402L330.136 83.5106Z" fill="#E4897B"/>
<path id="Vector_47" d="M425.855 424.134L426.332 435.139H435.572L435.094 424.134H425.855Z" fill="#CE6F64"/>
<path id="Vector_48" d="M486.825 424.134H477.586L479.974 435.139H489.214L486.825 424.134Z" fill="#CE6F64"/>
<path id="Vector_49" d="M431.411 85.4195C423.127 81.6511 420.512 64.9067 444.347 69.0894C444.347 69.0894 440.752 73.059 448.043 75.5714C455.334 78.0839 449.237 93.5973 431.411 85.4195Z" fill="#263238"/>
<path id="Vector_50" d="M449.413 97.9817C447.037 106.774 446.107 112.126 440.613 115.806C432.392 121.334 422.171 114.99 421.844 105.606C421.555 97.1775 425.49 84.1261 434.981 82.342C437.076 81.9314 439.242 82.0643 441.27 82.7275C443.3 83.3908 445.125 84.5627 446.572 86.131C448.019 87.6993 449.04 89.612 449.537 91.6862C450.035 93.761 449.992 95.9281 449.413 97.9817Z" fill="#E4897B"/>
<path id="Vector_51" d="M444.02 73.4863C449.664 76.6267 457.308 78.5112 456.592 82.9829C455.648 88.4476 461.205 85.0307 459.91 93.158C459.068 98.472 449.262 114.576 442.31 113.797C431.927 112.541 433.246 96.7632 433.209 88.4476C433.183 83.5355 432.957 67.2933 444.02 73.4863Z" fill="#263238"/>
<path id="Vector_52" d="M431.964 80.5334C429.45 81.124 426.118 95.6076 435.861 96.9389C447.062 98.459 431.964 80.5334 431.964 80.5334Z" fill="#263238"/>
<path id="Vector_53" d="M432.216 85.6711C429.135 85.9471 422.158 82.2416 423.013 76.6641C423.013 76.6262 427.426 83.1836 432.216 85.6711Z" fill="#263238"/>
<path id="Vector_54" d="M436.791 98.0945C435.847 100.166 434.242 101.866 432.228 102.931C429.575 104.312 428.08 102.303 428.683 99.6395C429.224 97.2529 431.26 93.6477 433.988 93.3587C436.716 93.0696 437.886 95.5821 436.791 98.0945Z" fill="#E4897B"/>
<path id="Vector_55" d="M450.62 87.9319C452.499 87.1174 454.146 85.8501 455.414 84.2427C456.682 82.6359 457.532 80.74 457.887 78.7243C457.887 78.7243 462.035 90.2432 450.62 87.9319Z" fill="#263238"/>
<path id="Vector_56" d="M461.105 87.7438C460.23 87.157 459.223 86.7953 458.174 86.6922C457.126 86.5892 456.068 86.7476 455.095 87.1532C455.095 87.1532 458.968 82.1413 461.105 87.7438Z" fill="#263238"/>
<path id="Vector_57" d="M429.4 210.761C429.4 210.761 439.884 281.282 445.629 307.699C451.915 336.592 475.675 433.016 475.675 433.016H492.583C492.583 433.016 476.932 338.966 473.336 310.275C469.439 279.185 461.268 210.711 461.268 210.711L429.4 210.761Z" fill="#248BCC"/>
<path id="pent-right" opacity="0.5" d="M429.4 210.761C429.4 210.761 439.884 281.282 445.629 307.699C451.915 336.592 475.675 433.016 475.675 433.016H492.583C492.583 433.016 476.932 338.966 473.336 310.275C469.439 279.185 461.268 210.711 461.268 210.711L429.4 210.761Z" fill="white"/>
<path id="Vector_58" d="M472.972 426.785C472.896 426.785 474.719 433.28 474.719 433.28H493.753L493.4 427.488L472.972 426.785Z" fill="#248BCC"/>
<path id="Vector_59" opacity="0.1" d="M472.972 426.785C472.896 426.785 474.719 433.28 474.719 433.28H493.753L493.4 427.488L472.972 426.785Z" fill="black"/>
<path id="Vector_60" d="M436.025 235.884C448.143 238.259 446.861 283.418 445.403 306.645C441.908 290.226 436.791 258.634 433.297 236.211C434.142 235.794 435.105 235.679 436.025 235.884Z" fill="#248BCC"/>
<path id="Vector_61" opacity="0.4" d="M436.025 235.884C448.143 238.259 446.861 283.418 445.403 306.645C441.908 290.226 436.791 258.634 433.297 236.211C434.142 235.794 435.105 235.679 436.025 235.884Z" fill="white"/>
<path id="Vector_62" d="M411.875 210.76C411.875 210.76 410.618 279.75 411.611 307.901C412.654 337.169 422.925 433.015 422.925 433.015H438.564C438.564 433.015 439.142 338.878 439.821 310.136C440.588 278.795 444.372 210.76 444.372 210.76H411.875Z" fill="#248BCC"/>
<g id="Group 1">
<path id="Vector_63" opacity="0.4" d="M412.428 130.994C412.428 130.994 402.597 142.086 411.875 210.761H461.268C461.62 203.224 456.855 166.217 464.159 130.516C458.699 129.466 453.178 128.769 447.628 128.431C440.636 128.029 433.626 128.029 426.634 128.431C421.839 128.914 417.089 129.77 412.428 130.994Z" fill="black"/>
<path id="Vector_64" opacity="0.4" d="M429.94 145.716C423.328 151.57 398.084 150.98 398.084 150.98L397.254 126.56C405.779 127.773 414.377 128.394 422.988 128.419C437.056 128.129 437.156 139.26 429.94 145.716Z" fill="black"/>
<path id="Vector_65" opacity="0.4" d="M464.159 130.516C472.821 132.501 481.571 157.788 481.571 157.788L463.757 170.563C463.757 170.563 458.729 158.78 453.876 148.48C448.797 137.689 455.309 128.494 464.159 130.516Z" fill="black"/>
<g id="Group 2">
<path id="Vector_66" d="M464.159 130.516C472.821 132.501 481.571 157.788 481.571 157.788L463.757 170.563C463.757 170.563 458.729 158.78 453.876 148.48C448.797 137.689 455.309 128.494 464.159 130.516Z" fill="#248BCC"/>
<path id="Vector_67" d="M412.428 130.994C412.428 130.994 402.597 142.086 411.875 210.761H461.268C461.62 203.224 456.855 166.217 464.159 130.516C458.699 129.466 453.178 128.769 447.628 128.431C440.636 128.029 433.626 128.029 426.634 128.431C421.839 128.914 417.089 129.77 412.428 130.994Z" fill="#248BCC"/>
<path id="Vector_68" d="M429.94 145.716C423.328 151.57 398.084 150.98 398.084 150.98L397.254 126.56C405.779 127.773 414.377 128.394 422.988 128.419C437.056 128.129 437.156 139.26 429.94 145.716Z" fill="#248BCC"/>
</g>
</g>
<path id="pen-left" opacity="0.5" d="M411.875 210.76C411.875 210.76 410.618 279.75 411.611 307.901C412.654 337.169 422.925 433.015 422.925 433.015H438.564C438.564 433.015 439.142 338.878 439.821 310.136C440.588 278.795 444.372 210.76 444.372 210.76H411.875Z" fill="white"/>
<path id="Vector_69" d="M426.169 421.785C426.131 421.786 426.094 421.772 426.066 421.746C426.038 421.72 426.021 421.685 426.018 421.647C423.252 395.117 416.753 330.926 415.961 307.901C415.118 284.398 415.885 231.663 416.137 216.062C416.137 216.022 416.153 215.983 416.181 215.955C416.209 215.927 416.248 215.911 416.288 215.911C416.329 215.911 416.369 215.926 416.399 215.954C416.43 215.982 416.448 216.021 416.451 216.062C416.2 231.663 415.433 284.398 416.275 307.888C417.092 330.914 423.592 395.079 426.332 421.609C426.333 421.652 426.318 421.694 426.29 421.726C426.262 421.758 426.224 421.779 426.181 421.785H426.169Z" fill="#248BCC"/>
<path id="Vector_70" opacity="0.4" d="M426.169 421.785C426.131 421.786 426.094 421.772 426.066 421.746C426.038 421.72 426.021 421.685 426.018 421.647C423.252 395.117 416.753 330.926 415.961 307.901C415.118 284.398 415.885 231.663 416.137 216.062C416.137 216.022 416.153 215.983 416.181 215.955C416.209 215.927 416.248 215.911 416.288 215.911C416.329 215.911 416.369 215.926 416.399 215.954C416.43 215.982 416.448 216.021 416.451 216.062C416.2 231.663 415.433 284.398 416.275 307.888C417.092 330.914 423.592 395.079 426.332 421.609C426.333 421.652 426.318 421.694 426.29 421.726C426.262 421.758 426.224 421.779 426.181 421.785H426.169Z" fill="white"/>
<path id="Vector_71" d="M419.883 426.785C419.82 426.785 420.775 433.28 420.775 433.28H439.796L440.311 427.488L419.883 426.785Z" fill="#248BCC"/>
<path id="Vector_72" opacity="0.1" d="M419.883 426.785C419.82 426.785 420.775 433.28 420.775 433.28H439.796L440.311 427.488L419.883 426.785Z" fill="black"/>
</g>
</svg>
