<svg width="180" height="140" viewBox="0 0 180 140" fill="none" xmlns="http://www.w3.org/2000/svg">
<path d="M179.76 65.5964C179.441 62.7721 178.852 59.9702 177.997 57.2139C177.615 55.7964 177 54.4373 176.535 53.0198L175.695 51.0714L175.23 50.1264L174.697 49.0648C173.376 46.4701 171.786 43.9633 169.942 41.5689C166.69 37.225 162.716 33.2337 158.122 29.6981L157.432 29.1731L157.132 28.8698L156.592 28.5198C156.127 28.1639 155.67 27.8664 155.212 27.5164C154.76 27.2164 154.324 26.9011 153.907 26.5714C153.414 26.2382 152.901 25.9229 152.37 25.6264L151.147 24.8564L150.532 24.5064L150.382 24.3898L149.992 24.1506L149.917 24.0923L149.61 23.9173C148.845 23.4973 148.155 23.1473 147.465 22.7914C146.235 22.1381 145.312 21.6073 144.622 21.2573C145.392 19.0012 146.007 16.7153 146.467 14.4089C147.232 10.9206 150.375 3.72225 143.932 1.65142C137.872 -0.296916 129.967 8.55808 129.967 8.55808C114.149 22.7474 104.486 40.4551 102.352 59.1623C106.372 59.8143 110.149 61.1665 113.4 63.1173H113.475C121.353 57.1188 128.096 50.2798 133.5 42.8056C138.652 45.276 143.156 48.4824 146.775 52.2556L147.307 52.7806L147.847 53.4339L148.92 54.7348C149.535 55.5573 150.225 56.3273 150.757 57.2139C154.23 62.2275 156.272 67.7649 156.742 73.4481C156.896 75.0792 156.896 76.7169 156.742 78.3481C156.667 79.7073 156.442 81.1248 156.135 82.4839C155.935 83.5578 155.652 84.6214 155.287 85.6689C154.672 87.3839 154.29 88.3873 154.29 88.3873L155.745 85.7914C156.135 84.9631 156.667 83.9014 157.132 82.6589C157.665 81.3056 158.13 79.8881 158.43 78.5289C158.82 76.8723 159.12 75.1631 159.277 73.4539C159.431 71.5444 159.431 69.6293 159.277 67.7198C159.114 65.6565 158.755 63.6054 158.205 61.5831C157.6 59.4817 156.831 57.4109 155.902 55.3823C155.405 54.3385 154.842 53.3145 154.215 52.3139L153.367 50.9548L152.91 50.2489L152.685 49.4789C151.364 47.5958 149.849 45.7991 148.155 44.1064C145.211 41.1004 141.783 38.4009 137.955 36.0739C139.102 34.0673 140.25 32.0023 141.172 29.8789L141.63 30.0539L143.932 30.9989L144.24 31.1156L144.315 31.1739C144.622 31.3489 143.857 30.9406 143.94 30.9989L144.09 31.0573L144.697 31.3489L146.002 32.0023L146.692 32.3523L147.082 32.5331L147.232 32.6498H147.307C147.382 32.7081 146.932 32.4164 147.082 32.5331L147.157 32.5914C147.615 32.8831 148.08 33.1223 148.612 33.4198L150.15 34.3064L150.375 34.4231C150.075 34.2481 150.3 34.3648 150.225 34.3064H150.3L150.375 34.3647L150.765 34.5981L151.53 35.0706C158.463 39.466 164.178 44.9093 168.33 51.0714L168.87 51.8998L169.402 52.8448L170.557 54.6764C171.165 55.8548 171.862 57.0389 172.32 58.2756C174.54 63.1756 175.845 68.3673 176.077 73.5706C176.152 74.8073 176.152 76.0498 176.152 77.2864C176.152 78.5289 176.002 79.7073 175.927 80.8331C175.695 83.0148 175.237 85.1439 174.622 87.3256C174.1 89.1406 173.459 90.9337 172.702 92.6981C172.087 94.2906 171.322 95.6497 170.782 96.7698C170.167 97.8956 169.635 98.7181 169.327 99.3131C168.945 99.8964 168.787 100.2 168.787 100.2C168.787 100.2 169.02 99.9022 169.477 99.3714C169.867 98.8406 170.557 98.0123 171.322 96.9506C172.012 95.8889 172.935 94.5881 173.775 93.0539C174.772 91.3389 175.695 89.5714 176.385 87.7398C177.307 85.6106 177.997 83.4231 178.612 81.1831C178.912 80.0048 179.22 78.7623 179.377 77.5256C179.609 76.2526 179.762 74.9717 179.835 73.6873C180.06 71.0273 180.06 68.3148 179.76 65.5964ZM83.7974 69.6797C72.9848 67.2004 61.7624 65.97 50.4899 66.0281C50.7899 61.3439 52.3124 56.7706 54.8924 52.5414L55.2674 51.9639L55.7249 51.2697L56.6324 49.9398C57.2399 49.1289 57.7724 48.3181 58.5299 47.5656C61.2707 44.3895 64.5962 41.5436 68.3999 39.1189C70.1399 37.9581 72.0374 36.9198 74.0099 35.9923C75.7574 35.1231 77.6549 34.3706 79.5524 33.6764C81.1626 33.0957 82.8069 32.5741 84.4799 32.1131C86.0024 31.6464 87.3674 31.4189 88.4249 31.1856C90.6299 30.7831 91.9949 30.5498 91.9949 30.5498C91.9949 30.5498 90.7049 30.6081 88.3499 30.8414C87.2174 30.9581 85.7699 31.0748 84.1799 31.3664C82.391 31.651 80.6192 31.9974 78.8699 32.4048C76.8224 32.9298 74.7674 33.5014 72.7199 34.1956C70.4864 34.9562 68.3302 35.8473 66.2699 36.8614C64.0139 37.9376 61.8586 39.1364 59.8199 40.4489C57.7025 41.8134 55.7241 43.3035 53.9024 44.9056C52.9949 45.6581 52.0799 46.5856 51.1724 47.4489L50.0324 48.6681L49.5074 49.3039L48.8924 49.9981C47.4122 51.7447 46.1179 53.5825 45.0224 55.4931C42.9723 58.9121 41.5436 62.5363 40.7774 66.2614V66.4364C38.0474 66.6114 35.3174 66.8973 32.5799 67.2473V63.8289C32.6549 63.5373 32.5049 64.2373 32.5049 64.1789V64.0039C32.5049 63.8289 32.5799 63.6539 32.5799 63.4206C32.6549 63.0181 32.6549 62.6739 32.7299 62.2656C32.7299 62.0323 32.8049 61.8573 32.8049 61.6297V61.1048C32.8049 61.0523 32.7299 61.5131 32.7299 61.2798V61.2214L32.9549 59.8973C33.0299 59.4306 33.1124 58.9639 33.2624 58.5089V58.3339C33.1874 58.6256 33.2624 58.3923 33.1874 58.4506V58.2756L33.2624 57.9256L33.4124 57.1731C35.2721 50.5121 38.7493 44.1884 43.6574 38.5414L44.3399 37.7831L45.1049 36.9781L46.6949 35.3564C47.7599 34.4289 48.7424 33.3906 49.9574 32.4631C54.4727 28.662 59.6898 25.4044 65.4374 22.7973C66.787 22.161 68.179 21.5807 69.6074 21.0589C70.9724 20.4756 72.4199 20.0206 73.7099 19.5539C76.2863 18.7094 78.9203 17.9752 81.5999 17.3548C83.8724 16.8298 86.2274 16.4273 88.5749 16.0831C90.7049 15.7331 92.5274 15.6164 94.0499 15.4414C95.5574 15.3248 96.7724 15.2723 97.6124 15.2139H98.8274L97.5374 15.1556C96.6974 15.1556 95.4824 15.0973 93.9674 15.0973C92.4524 15.1556 90.5549 15.0973 88.3499 15.2723C85.9274 15.4473 83.4974 15.6806 81.1499 16.0248C78.2624 16.4331 75.4499 16.9523 72.7199 17.6464C71.2089 18.0083 69.7154 18.413 68.2424 18.8598C66.7274 19.2681 65.2124 19.7873 63.6899 20.3648C60.5024 21.5256 57.4649 22.7973 54.5099 24.2439C51.4724 25.7489 48.5849 27.4873 45.8624 29.3364C44.4974 30.2056 43.1324 31.3023 41.8424 32.2881L40.0949 33.7931L39.1799 34.5456L38.2724 35.4148C35.981 37.5039 33.8999 39.7271 32.0474 42.0648C28.6981 46.2369 26.0705 50.7343 24.2324 55.4406L23.9324 56.1348L23.7824 56.4847L23.6324 57.0039L23.1749 58.3923C23.0249 58.8531 22.8749 59.2556 22.7174 59.7223C22.5674 60.2473 22.4924 60.7023 22.3424 61.1689C22.2674 61.5773 22.1174 61.9798 22.0349 62.3239C21.9599 62.4989 21.9599 62.6739 21.8849 62.9073V63.0823L21.8099 63.4264V63.7764C21.7349 64.4648 21.6599 65.1006 21.5099 65.7423C21.2774 67.5331 21.1274 68.6939 21.0449 69.2131C18.3899 69.7381 15.7349 70.3681 13.1549 71.0623C13.1549 71.0623 -0.727579 73.5531 0.0299208 78.7623C0.787421 83.6798 14.4449 84.6656 14.4449 84.6656C38.0474 88.3698 62.5574 86.3456 84.5624 78.8789C83.4008 75.8972 83.139 72.7472 83.7974 69.6739V69.6797ZM116.88 80.9789C114.15 83.3706 110.805 85.2139 107.01 86.4039V86.4622C109.894 95.0857 114.37 103.338 120.3 110.962C115.095 113.112 109.439 114.524 103.597 115.133L102.757 115.191L101.767 115.25L99.7949 115.372C98.5799 115.372 97.3649 115.431 96.1499 115.372C91.1625 115.32 86.2168 114.656 81.4949 113.406C79.2839 112.853 77.1281 112.175 75.0449 111.376C73.1547 110.677 71.3258 109.882 69.5699 108.996C68.0682 108.248 66.6257 107.429 65.2499 106.546C63.9599 105.776 62.9699 105.001 62.0624 104.406C60.3899 103.151 59.4749 102.381 59.4749 102.381C59.4749 102.381 60.2399 103.216 61.6799 104.645C62.4374 105.356 63.3524 106.196 64.4924 107.089C65.7824 108.162 67.0724 109.113 68.5124 110.064C70.1849 111.201 71.9324 112.216 73.7549 113.167C75.8024 114.241 77.9324 115.191 80.1299 116.026C82.4849 116.924 84.9899 117.694 87.4949 118.353C90.1499 119.006 92.8124 119.485 95.5424 119.841C96.9149 120.021 98.3549 120.138 99.7949 120.261L101.775 120.377L102.757 120.436H103.897C106.627 120.436 109.365 120.319 112.095 120.021C116.759 119.532 121.327 118.591 125.692 117.221C127.357 119.006 129.105 120.739 130.927 122.407C130.852 122.466 130.777 122.466 130.702 122.524L128.497 123.597L128.197 123.714L128.122 123.772C127.747 123.895 128.572 123.597 128.497 123.656H128.422L128.272 123.714C128.047 123.772 127.822 123.895 127.59 123.953L126.225 124.49L125.46 124.787L125.085 124.968L124.935 125.026H124.86C124.785 125.026 125.31 124.851 125.085 124.968L125.01 125.026L123.412 125.563C122.887 125.738 122.272 125.925 121.74 126.158L121.515 126.216C121.89 126.1 121.59 126.216 121.665 126.158H121.59L121.515 126.216L121.065 126.339L120.15 126.636C111.834 129.154 102.946 130.331 94.0274 130.096L92.8874 130.037L91.5974 129.979L88.9349 129.798C87.3449 129.617 85.6724 129.501 83.9999 129.197C77.3848 128.257 70.9886 126.551 65.0249 124.134C63.6211 123.549 62.226 122.952 60.8399 122.343C59.4749 121.748 58.2599 121.036 56.9699 120.377C54.6722 119.125 52.4686 117.771 50.3699 116.323C48.5791 115.088 46.8789 113.775 45.2774 112.391C43.7624 111.201 42.6974 110.006 41.7074 109.055C40.7249 108.098 40.1174 107.328 39.5849 106.791L38.8199 105.957C38.8199 105.957 39.0449 106.249 39.4274 106.791C39.8849 107.328 40.4174 108.221 41.2499 109.236C42.0899 110.245 43.0724 111.499 44.4449 112.87C45.8849 114.421 47.4824 115.903 49.0724 117.28C51.0449 118.948 53.0999 120.558 55.2974 121.987C56.5124 122.763 57.7274 123.597 59.0174 124.315C60.3149 125.091 61.6799 125.861 63.1199 126.578C66.0706 128.06 69.1392 129.395 72.3074 130.574C75.6524 131.764 79.0649 132.779 82.5599 133.549C84.3074 133.969 86.2049 134.266 88.0349 134.622L90.6074 134.984L91.8974 135.159L93.3449 135.34C96.9149 135.696 100.477 135.876 104.047 135.876C110.497 135.818 116.88 135.101 123.105 133.788L124.02 133.613L124.47 133.496L125.16 133.31C125.76 133.135 126.375 133.018 126.907 132.837L128.572 132.417L130.395 131.881C130.927 131.706 131.385 131.589 131.842 131.466C132.067 131.408 132.292 131.35 132.517 131.227L132.675 131.169H132.75L133.207 130.994L133.282 130.93L133.582 130.813L135.862 129.915C137.077 129.436 137.992 129.081 138.75 128.841C140.722 130.335 142.702 131.758 144.825 133.076C144.825 133.076 154.77 141.126 160.237 137.842C165.405 134.745 159.48 124.968 159.48 124.968C151.502 107.22 136.612 91.8459 116.88 80.9848V80.9789ZM116.467 72.7481C116.467 75.6597 114.98 78.4521 112.333 80.5109C109.686 82.5698 106.096 83.7264 102.352 83.7264C98.6089 83.7264 95.0187 82.5698 92.3716 80.5109C89.7245 78.4521 88.2374 75.6597 88.2374 72.7481C88.2364 71.3059 88.6008 69.8777 89.3097 68.5451C90.0186 67.2124 91.0581 66.0015 92.3689 64.9815C93.6797 63.9614 95.2361 63.1522 96.9491 62.6002C98.6621 62.0481 100.498 61.7639 102.352 61.7639C104.207 61.7639 106.043 62.0481 107.756 62.6002C109.469 63.1522 111.025 63.9614 112.336 64.9815C113.647 66.0015 114.686 67.2124 115.395 68.5451C116.104 69.8777 116.468 71.3059 116.467 72.7481Z" fill="#1877F2"/>
</svg>
