<svg width="180" height="140" viewBox="0 0 180 140" fill="none" xmlns="http://www.w3.org/2000/svg">
<path d="M180 41.5625C180 45.3906 178.916 48.9453 176.748 52.2266C174.58 55.5078 171.621 58.2878 167.871 60.5664C168.457 62.3893 168.75 64.0755 168.75 65.625C168.75 71.6406 165.996 76.7904 160.488 81.0742C154.98 85.3581 148.359 87.5 140.625 87.5C136.523 87.5 132.48 86.7708 128.496 85.3125C125.449 88.6849 121.523 91.3509 116.719 93.3105C111.914 95.2702 106.758 96.25 101.25 96.25C95.0391 96.25 89.3262 95.0195 84.1113 92.5586C78.8965 90.0977 74.8242 86.7708 71.8945 82.5781C67.4414 85.8594 62.2266 87.5 56.25 87.5C50.0391 87.5 44.7363 85.791 40.3418 82.373C35.9473 78.9551 33.75 74.8307 33.75 70C24.375 70 16.4062 67.4479 9.84375 62.3438C3.28125 57.2396 0 51.0417 0 43.75C0 36.4583 3.28125 30.2604 9.84375 25.1562C16.4062 20.0521 24.375 17.5 33.75 17.5C38.5547 17.5 43.1836 18.2747 47.6367 19.8242C50.4492 13.9909 55.1953 9.22852 61.875 5.53711C68.5547 1.8457 76.0547 0 84.375 0C90.2344 0 95.7422 0.979818 100.898 2.93945C106.055 4.89909 110.508 7.5651 114.258 10.9375C115.898 7.65625 118.594 5.01302 122.344 3.00781C126.094 1.0026 130.312 0 135 0C141.211 0 146.514 1.70898 150.908 5.12695C155.303 8.54492 157.5 12.6693 157.5 17.5C157.5 17.5911 157.471 17.7507 157.412 17.9785C157.354 18.2064 157.324 18.3659 157.324 18.457C164.004 19.9154 169.453 22.7637 173.672 27.002C177.891 31.2402 180 36.0938 180 41.5625ZM33.75 122.5C36.9141 122.5 39.5801 123.343 41.748 125.029C43.916 126.715 45 128.766 45 131.182C45 133.597 43.8867 135.671 41.6602 137.402C39.4336 139.134 36.7676 140 33.6621 140C30.5566 140 27.9199 139.134 25.752 137.402C23.584 135.671 22.5 133.62 22.5 131.25C22.5 128.88 23.584 126.829 25.752 125.098C27.9199 123.366 30.5859 122.5 33.75 122.5ZM61.875 96.25C66.5625 96.25 70.5469 97.526 73.8281 100.078C77.1094 102.63 78.75 105.729 78.75 109.375C78.75 113.021 77.1094 116.12 73.8281 118.672C70.5469 121.224 66.5625 122.5 61.875 122.5C57.1875 122.5 53.2031 121.224 49.9219 118.672C46.6406 116.12 45 113.021 45 109.375C45 105.729 46.6406 102.63 49.9219 100.078C53.2031 97.526 57.1875 96.25 61.875 96.25Z" fill="#1877F2"/>
</svg>
