<svg width="59" height="59" viewBox="0 0 59 59" fill="none" xmlns="http://www.w3.org/2000/svg">
<g clip-path="url(#clip0)">
<path fill-rule="evenodd" clip-rule="evenodd" d="M0.235222 28.991C0.131986 43.3142 10.4488 55.2996 24.0368 57.8129L24.1868 37.0051L16.9843 36.9532L17.042 28.9513L24.2444 29.0032L24.2906 22.6003C24.3425 15.3978 29.0121 11.4316 35.5759 11.4789C37.655 11.4938 39.895 11.8293 41.9718 12.1636L41.9187 19.5269L38.2383 19.5004C34.7163 19.475 33.9042 21.229 33.888 23.4713L33.8476 29.0724L41.5302 29.1278L40.1929 37.1205L33.79 37.0743L33.64 57.8821C47.2628 55.5649 57.7513 43.7319 57.8545 29.4063C57.9694 13.4722 45.099 0.342364 29.2537 0.228157C13.4084 0.11395 0.350069 13.0569 0.235222 28.991Z" fill="black"/>
</g>
<defs>
<clipPath id="clip0">
<rect width="57.6208" height="57.6208" fill="white" transform="translate(0.444031 0.0205078) rotate(0.41296)"/>
</clipPath>
</defs>
</svg>
