<svg width="180" height="140" viewBox="0 0 180 140" fill="none" xmlns="http://www.w3.org/2000/svg">
<path d="M127.5 70C127.5 53.9 110.7 40.8333 90 40.8333C69.3 40.8333 52.5 53.9 52.5 70C52.5 86.1 69.3 99.1667 90 99.1667C110.7 99.1667 127.5 86.1 127.5 70ZM30 87.5C25.875 87.5 22.5 90.125 22.5 93.3333V110.833C22.5 117.25 29.25 122.5 37.5 122.5H60C64.125 122.5 67.5 119.875 67.5 116.667C67.5 113.458 64.125 110.833 60 110.833H37.5V93.3333C37.5 90.125 34.125 87.5 30 87.5ZM37.5 29.1667H60C64.125 29.1667 67.5 26.5417 67.5 23.3333C67.5 20.125 64.125 17.5 60 17.5H37.5C29.25 17.5 22.5 22.75 22.5 29.1667V46.6667C22.5 49.875 25.875 52.5 30 52.5C34.125 52.5 37.5 49.875 37.5 46.6667V29.1667ZM142.5 17.5H120C115.875 17.5 112.5 20.125 112.5 23.3333C112.5 26.5417 115.875 29.1667 120 29.1667H142.5V46.6667C142.5 49.875 145.875 52.5 150 52.5C154.125 52.5 157.5 49.875 157.5 46.6667V29.1667C157.5 22.75 150.75 17.5 142.5 17.5ZM142.5 110.833H120C115.875 110.833 112.5 113.458 112.5 116.667C112.5 119.875 115.875 122.5 120 122.5H142.5C150.75 122.5 157.5 117.25 157.5 110.833V93.3333C157.5 90.125 154.125 87.5 150 87.5C145.875 87.5 142.5 90.125 142.5 93.3333V110.833Z" fill="#1877F2"/>
</svg>
