<svg width="635" height="446" viewBox="0 0 635 446" fill="none" xmlns="http://www.w3.org/2000/svg">
<g id="HERO" clip-path="url(#clip0)">
<g id="Group 29">
<g id="Group 12">
<path id="Vector" d="M635 392.181H0V392.479H635V392.181Z" fill="#EBEBEB"/>
<path id="Vector_2" d="M565.48 405.827H500.837V406.124H565.48V405.827Z" fill="#EBEBEB"/>
<path id="Vector_3" d="M126.581 402.299H66.6242V402.597H126.581V402.299Z" fill="#EBEBEB"/>
<path id="Vector_4" d="M505.46 400.297H481.088V400.595H505.46V400.297Z" fill="#EBEBEB"/>
<path id="Vector_5" d="M420.65 408.198H402.768V408.496H420.65V408.198Z" fill="#EBEBEB"/>
<path id="Vector_6" d="M391.452 408.198H346.444V408.496H391.452V408.198Z" fill="#EBEBEB"/>
</g>
<path id="Vector_7" d="M320.306 403.169H247.93V403.467H320.306V403.169Z" fill="#EBEBEB"/>
</g>
<path id="Vector_8" d="M388.661 339.799H61.0269C58.4603 339.796 56.0002 339.077 54.187 337.802C52.3736 336.525 51.3552 334.796 51.3552 332.994V9.51981C51.3775 7.72742 52.4058 6.01366 54.2167 4.7507C56.0277 3.48775 58.4749 2.77761 61.0269 2.77454H388.661C391.231 2.77454 393.695 3.49147 395.512 4.76763C397.329 6.04379 398.35 7.77459 398.35 9.57939V332.994C398.35 334.798 397.329 336.53 395.512 337.806C393.695 339.082 391.231 339.799 388.661 339.799ZM61.0269 3.01289C58.5728 3.01604 56.2206 3.70298 54.4869 4.92292C52.7532 6.14286 51.7794 7.79609 51.7794 9.51981V332.994C51.7794 334.718 52.7532 336.371 54.4869 337.591C56.2206 338.811 58.5728 339.498 61.0269 339.501H388.661C391.118 339.498 393.471 338.811 395.207 337.591C396.944 336.372 397.921 334.718 397.926 332.994V9.51981C397.921 7.79505 396.944 6.14179 395.207 4.9222C393.471 3.7026 391.118 3.01604 388.661 3.01289H61.0269Z" fill="#EBEBEB"/>
<path id="Vector_9" d="M660.738 339.182H333.087C330.519 339.179 328.057 338.461 326.242 337.185C324.425 335.909 323.404 334.18 323.399 332.376V8.82775C323.426 7.03391 324.458 5.31972 326.271 4.0568C328.085 2.79389 330.534 2.08397 333.087 2.08093H660.738C663.287 2.08714 665.731 2.79882 667.538 4.06174C669.345 5.32465 670.371 7.03703 670.393 8.82775V332.376C670.393 334.177 669.377 335.905 667.567 337.18C665.758 338.456 663.302 339.176 660.738 339.182ZM333.087 2.31934C330.632 2.32249 328.278 3.00921 326.541 4.22908C324.805 5.44896 323.827 7.10259 323.823 8.82775V332.376C323.827 334.101 324.805 335.755 326.541 336.974C328.278 338.194 330.632 338.881 333.087 338.884H660.738C663.195 338.881 665.548 338.194 667.285 336.974C669.021 335.755 669.998 334.101 670.003 332.376V8.82775C669.998 7.10259 669.021 5.44896 667.285 4.22908C665.548 3.00921 663.195 2.32249 660.738 2.31934H333.087Z" fill="#EBEBEB"/>
<g id="Group 28">
<path id="Vector_10" d="M285.102 41.3566H74.3075V293.076H285.102V41.3566Z" fill="#E6E6E6"/>
<path id="Vector_11" d="M282.474 41.3566H71.6787V293.076H282.474V41.3566Z" fill="#FAFAFA"/>
<path id="Vector_12" d="M177.076 265.308C191.932 265.308 203.974 254.008 203.974 240.067C203.974 226.127 191.932 214.826 177.076 214.826C162.221 214.826 150.177 226.127 150.177 240.067C150.177 254.008 162.221 265.308 177.076 265.308Z" fill="#FAFAFA"/>
</g>
<g id="Group 13">
<path id="Vector_13" d="M276.58 287.547V46.8982H77.5845V287.547H276.58Z" fill="white"/>
<g id="star">
<path id="Vector_14" d="M205.587 167.216C205.587 171.816 201.269 175.367 198.983 179.134C196.697 182.9 195.427 188.227 191.363 190.443C187.299 192.66 182.004 190.991 177.101 190.991C172.2 190.991 166.802 192.588 162.84 190.443C158.877 188.298 157.569 182.959 155.22 179.134C152.87 175.309 148.603 171.864 148.603 167.216C148.603 162.569 152.921 159.065 155.22 155.359C157.518 151.652 158.776 146.266 162.84 144.049C166.904 141.832 172.186 143.489 177.089 143.489C181.991 143.489 187.401 141.904 191.351 144.049C195.3 146.194 196.634 151.521 198.971 155.359C201.308 159.196 205.587 162.628 205.587 167.216Z" fill="#EBEBEB"/>
<path id="Vector_15" d="M208.052 94.3654L198.793 100.992L202.133 111.455L190.5 111.705L186.652 122.026L177.076 115.793L167.513 122.026L163.665 111.705L152.019 111.455L155.359 100.992L146.114 94.3654L155.359 87.751L152.019 77.2877L163.665 77.0373L167.513 66.7288L177.076 72.9498L186.652 66.7288L190.5 77.0373L202.133 77.2877L198.793 87.751L208.052 94.3654Z" fill="#E0E0E0"/>
</g>
</g>
<g id="Group 33">
<path id="Vector_16" d="M341.058 392.181H547.942V387.772H341.058V392.181Z" fill="#F0F0F0"/>
<path id="Vector_17" d="M515.912 356.405H347.992V379.215H515.912V356.405Z" fill="#F0F0F0"/>
<path id="Vector_18" d="M382.588 328.113H481.342C482.227 328.113 482.943 327.441 482.943 326.611V326.492C482.943 325.663 482.227 324.99 481.342 324.99H382.588C381.704 324.99 380.987 325.663 380.987 326.492V326.611C380.987 327.441 381.704 328.113 382.588 328.113Z" fill="#F5F5F5"/>
<path id="Vector_19" d="M382.588 357.966H481.342C482.227 357.966 482.943 357.294 482.943 356.464V356.346C482.943 355.516 482.227 354.844 481.342 354.844H382.588C381.704 354.844 380.987 355.516 380.987 356.346V356.464C380.987 357.294 381.704 357.966 382.588 357.966Z" fill="#F5F5F5"/>
</g>
<g id="Group 37">
<g id="Group 14">
<path id="Vector_20" d="M529.475 387.772H554.558V291.908H529.475V387.772Z" fill="#F0F0F0"/>
<path id="Vector_21" d="M529.476 291.908H334.442V387.772H529.476V291.908Z" fill="#F5F5F5"/>
<path id="Vector_22" d="M515.912 326.552H347.992V349.362H515.912V326.552Z" fill="#F0F0F0"/>
<path id="Vector_23" d="M515.912 296.699H347.992V319.509H515.912V296.699Z" fill="#F0F0F0"/>
</g>
<path id="Vector_24" d="M382.588 298.272H481.343C482.227 298.272 482.943 297.6 482.943 296.771V296.651C482.943 295.822 482.227 295.15 481.343 295.15H382.588C381.704 295.15 380.987 295.822 380.987 296.651V296.771C380.987 297.6 381.704 298.272 382.588 298.272Z" fill="#F5F5F5"/>
</g>
<g id="bell">
<path id="Vector_25" d="M528.362 44.8647C537.145 36.6224 537.145 23.259 528.362 15.0167C519.579 6.77439 505.337 6.77438 496.554 15.0166C487.77 23.259 487.77 36.6224 496.554 44.8647C505.337 53.107 519.579 53.107 528.362 44.8647Z" fill="#F5F5F5"/>
<path id="Vector_26" d="M520.475 40.9433C526.948 34.8698 526.948 25.0227 520.475 18.9492C514.003 12.8757 503.509 12.8757 497.037 18.9492C490.565 25.0227 490.565 34.8698 497.037 40.9433C503.509 47.0168 514.003 47.0169 520.475 40.9433Z" fill="#EBEBEB"/>
<path id="Vector_27" d="M508.368 29.9397C508.368 30.4982 508.191 31.0443 507.861 31.5088C507.53 31.9732 507.06 32.3353 506.51 32.5491C505.96 32.7628 505.355 32.8188 504.771 32.7098C504.187 32.6008 503.651 32.3318 503.23 31.9368C502.809 31.5418 502.522 31.0385 502.406 30.4907C502.291 29.9428 502.35 29.3748 502.578 28.8588C502.805 28.3427 503.191 27.9015 503.686 27.5912C504.181 27.2809 504.763 27.1152 505.359 27.1152C506.157 27.1152 506.922 27.4128 507.486 27.9424C508.051 28.4722 508.368 29.1906 508.368 29.9397Z" fill="white"/>
<path id="Vector_28" d="M519.062 56.0388C516.705 56.0453 514.355 55.8135 512.052 55.3475C511.63 55.2323 511.272 54.9687 511.053 54.6119C510.834 54.2551 510.77 53.8326 510.875 53.4327C510.98 53.0327 511.245 52.6863 511.616 52.4658C511.987 52.2452 512.434 52.1675 512.864 52.249C512.979 52.249 524.625 54.835 532.549 48.9836C537.629 45.2535 540.169 38.8419 540.169 29.9158C540.169 29.4923 540.348 29.0861 540.668 28.7866C540.987 28.4871 541.42 28.3188 541.871 28.3188C542.322 28.3188 542.755 28.4871 543.074 28.7866C543.394 29.0861 543.573 29.4923 543.573 29.9158C543.573 39.8549 540.563 47.1126 534.619 51.4744C530.121 54.5812 524.645 56.1877 519.062 56.0388Z" fill="#EBEBEB"/>
<path id="Vector_29" d="M540.423 32.4901C539.588 32.4901 538.787 32.1786 538.196 31.6244C537.606 31.0702 537.273 30.3184 537.273 29.5346V23.9453C537.273 23.1551 537.608 22.3973 538.203 21.8386C538.799 21.2798 539.606 20.9659 540.448 20.9659C541.291 20.9659 542.098 21.2798 542.693 21.8386C543.289 22.3973 543.623 23.1551 543.623 23.9453V29.5346C543.622 29.9262 543.538 30.3138 543.375 30.6748C543.214 31.0358 542.977 31.3631 542.679 31.6378C542.382 31.9126 542.029 32.1294 541.642 32.2756C541.255 32.4219 540.84 32.4948 540.423 32.4901Z" fill="#EBEBEB"/>
</g>
<path id="Vector_30" d="M317.5 446C453.495 446 563.74 439.96 563.74 432.51C563.74 425.059 453.495 419.019 317.5 419.019C181.505 419.019 71.2595 425.059 71.2595 432.51C71.2595 439.96 181.505 446 317.5 446Z" fill="#F5F5F5"/>
<g id="Group 22">
<g id="blackboard">
<path id="Vector_31" d="M566.915 70.4353H322.084V237.791H566.915V70.4353Z" fill="#263238"/>
<path id="Vector_32" d="M457.48 88.8357C457.437 88.8364 457.394 88.8267 457.357 88.8079C457.319 88.7892 457.287 88.7615 457.263 88.7282C457.215 88.6796 457.188 88.6158 457.188 88.5492C457.188 88.4833 457.215 88.4195 457.263 88.371C458.355 87.6392 459.501 86.9823 460.692 86.4045C461.236 86.1 461.851 85.9239 462.483 85.892C463.095 85.9232 463.69 86.0862 464.223 86.3685C464.43 86.4621 464.642 86.5454 464.858 86.6189C466.661 87.2626 468.668 86.7736 470.763 86.2492C472.593 85.6527 474.541 85.4494 476.466 85.6534C476.895 85.7532 477.319 85.8725 477.736 86.0113L478.524 86.2374C481.2 86.7229 483.956 86.6785 486.613 86.1063L488.315 85.8802C491.219 85.3433 494.224 85.5493 497.015 86.476C497.37 86.6189 497.726 86.786 498.068 86.9525C498.876 87.3992 499.769 87.6912 500.697 87.8105C501.762 87.823 502.817 87.6281 503.797 87.2383L504.813 86.9289C507.886 86.0827 511.276 86.3928 514.553 86.6785H515.15C524.078 87.4526 533.059 87.513 541.998 86.8575C542.033 86.854 542.069 86.8575 542.102 86.8665C542.136 86.8762 542.167 86.8922 542.194 86.913C542.221 86.9345 542.244 86.9601 542.26 86.9893C542.277 87.0184 542.287 87.051 542.29 87.0836C542.297 87.1516 542.276 87.2189 542.231 87.2723C542.186 87.3257 542.121 87.3604 542.049 87.3694C533.077 88.0255 524.061 87.9652 515.1 87.1911H514.503C511.276 86.9046 507.936 86.6071 504.965 87.429C504.634 87.5129 504.305 87.6198 503.974 87.7273C502.919 88.1358 501.787 88.3384 500.647 88.3231C499.651 88.1948 498.694 87.8827 497.828 87.4054C497.485 87.2383 497.154 87.0836 496.798 86.9407C494.095 86.055 491.188 85.8621 488.378 86.3803L486.702 86.6189C483.964 87.198 481.127 87.239 478.371 86.7382L477.571 86.4996C477.156 86.3609 476.732 86.2492 476.301 86.1659C474.457 85.9724 472.59 86.1722 470.84 86.75C468.745 87.2626 466.572 87.7987 464.592 87.1072L463.931 86.8332C463.457 86.5995 462.94 86.4538 462.407 86.4045C461.864 86.4385 461.337 86.5932 460.871 86.8575C459.703 87.4221 458.582 88.0672 457.517 88.7878C457.506 88.8045 457.494 88.8204 457.48 88.8357Z" fill="white"/>
<path id="Vector_33" d="M505.6 95.6644C504.473 95.5964 503.366 95.3551 502.323 94.9493C501.254 94.5255 500.116 94.2793 498.957 94.2224C498.156 94.2654 497.363 94.3972 496.596 94.6157C496.086 94.7572 495.569 94.8723 495.046 94.9611C493.659 95.122 492.255 95.122 490.868 94.9611H490.69C484.493 94.4006 478.143 94.1863 471.996 93.972C469.874 93.9005 467.5 94.2224 467.207 95.3301C467.197 95.3814 467.168 95.4272 467.128 95.4619C467.086 95.4959 467.034 95.5167 466.979 95.5208C466.924 95.5278 466.868 95.5188 466.818 95.4959C466.768 95.4723 466.727 95.4355 466.699 95.3897C466.064 94.3056 464.096 93.8409 462.483 93.9477C460.782 94.1315 459.126 94.5789 457.581 95.2711C457.548 95.2843 457.512 95.2913 457.476 95.2913C457.439 95.2913 457.404 95.2843 457.371 95.2711C457.337 95.258 457.307 95.2378 457.283 95.2136C457.258 95.1886 457.238 95.1595 457.226 95.1276C457.2 95.0644 457.202 94.9944 457.23 94.932C457.258 94.8702 457.312 94.8203 457.378 94.7939C458.98 94.0823 460.696 93.6231 462.458 93.4358C463.255 93.3498 464.063 93.4219 464.829 93.6481C465.595 93.8735 466.301 94.248 466.903 94.7468C467.792 93.4712 470.713 93.4115 471.983 93.4594C478.143 93.6737 484.505 93.8887 490.728 94.4485H490.893C492.234 94.6094 493.591 94.6094 494.932 94.4485C495.437 94.3667 495.937 94.2591 496.431 94.1267C497.255 93.8874 498.109 93.7465 498.971 93.7098C500.187 93.7764 501.384 94.0302 502.513 94.4603C503.776 95.0311 505.191 95.2344 506.577 95.0443C507.019 94.9264 507.445 94.7627 507.847 94.556L508.508 94.2577C510.684 93.6009 512.99 93.4212 515.251 93.7334C516.582 93.8464 517.918 93.87 519.252 93.8048C519.287 93.802 519.322 93.8048 519.356 93.8145C519.39 93.8242 519.422 93.8402 519.449 93.861C519.476 93.8818 519.498 93.9082 519.515 93.9373C519.531 93.9664 519.541 93.9983 519.545 94.0316C519.551 94.0989 519.531 94.1669 519.486 94.2203C519.44 94.2737 519.375 94.3084 519.303 94.3174C517.94 94.3833 516.574 94.359 515.213 94.246C513.039 93.9394 510.818 94.1065 508.724 94.7343C508.508 94.8182 508.305 94.925 508.101 95.0207C507.672 95.2344 507.221 95.4057 506.756 95.5333C506.379 95.6277 505.99 95.672 505.6 95.6644Z" fill="white"/>
<path id="Vector_34" d="M457.48 103.529C457.417 103.527 457.358 103.504 457.31 103.466C457.262 103.427 457.231 103.375 457.219 103.316C457.207 103.259 457.217 103.199 457.245 103.147C457.274 103.095 457.321 103.054 457.378 103.029C459.492 102.219 461.665 101.55 463.88 101.027C465.059 100.706 466.286 100.566 467.513 100.61C468.253 100.69 468.985 100.833 469.697 101.039C470.385 101.232 471.091 101.367 471.805 101.444C472.654 101.473 473.505 101.425 474.345 101.301C475.607 101.057 476.911 101.094 478.155 101.408C478.512 101.534 478.856 101.69 479.183 101.873C479.497 102.055 479.829 102.207 480.175 102.326C481.826 102.862 483.476 102.159 485.254 101.408C486.764 100.606 488.473 100.195 490.208 100.217C491.358 100.403 492.456 100.808 493.433 101.408C494.465 102.058 495.671 102.422 496.913 102.457C497.492 102.403 498.063 102.287 498.614 102.112H498.78C503.397 100.825 508.231 100.369 513.029 100.765H513.283C513.95 100.83 514.623 100.83 515.29 100.765C515.697 100.708 516.1 100.629 516.496 100.526L517.385 100.323C519.235 100.113 521.111 100.239 522.91 100.693L523.951 100.884C528.689 101.679 533.552 101.532 538.226 100.455C538.291 100.452 538.354 100.471 538.406 100.508C538.458 100.545 538.494 100.597 538.509 100.656C538.524 100.715 538.517 100.777 538.488 100.832C538.46 100.887 538.412 100.93 538.353 100.955C533.607 102.045 528.672 102.191 523.863 101.384L522.796 101.194C521.066 100.756 519.265 100.635 517.487 100.836C517.195 100.836 516.916 100.955 516.636 101.015C516.219 101.127 515.795 101.215 515.366 101.277C514.661 101.342 513.95 101.342 513.245 101.277H512.991C508.262 100.891 503.498 101.34 498.945 102.6H498.78C498.193 102.792 497.583 102.916 496.963 102.97C495.608 102.944 494.287 102.56 493.153 101.861C492.233 101.316 491.205 100.948 490.131 100.776C488.493 100.781 486.885 101.192 485.47 101.968C483.705 102.731 481.889 103.506 480.022 102.91C479.647 102.778 479.286 102.614 478.943 102.421C478.638 102.25 478.319 102.103 477.99 101.981C476.834 101.704 475.627 101.679 474.459 101.908C473.586 102.034 472.701 102.082 471.817 102.052C471.069 101.974 470.329 101.829 469.608 101.623C468.928 101.43 468.231 101.295 467.525 101.218C466.354 101.178 465.183 101.315 464.058 101.623C461.869 102.14 459.722 102.801 457.632 103.601L457.48 103.529Z" fill="white"/>
<path id="Vector_35" d="M457.48 109.988C457.417 109.988 457.357 109.967 457.309 109.93C457.26 109.893 457.227 109.843 457.212 109.786C457.203 109.753 457.201 109.719 457.206 109.685C457.212 109.651 457.224 109.619 457.243 109.59C457.262 109.561 457.287 109.536 457.317 109.517C457.346 109.497 457.38 109.483 457.416 109.477C459.914 108.888 462.465 108.521 465.036 108.38C465.788 108.296 466.551 108.345 467.284 108.523C467.449 108.572 467.61 108.632 467.767 108.702C467.971 108.788 468.183 108.856 468.402 108.904C468.889 108.981 469.387 108.981 469.874 108.904C472.142 108.566 474.437 108.41 476.732 108.44C476.803 108.445 476.87 108.475 476.919 108.524C476.968 108.571 476.997 108.635 477 108.702C477 108.736 476.992 108.769 476.978 108.8C476.963 108.831 476.943 108.86 476.917 108.883C476.891 108.906 476.86 108.924 476.826 108.936C476.792 108.948 476.756 108.954 476.72 108.952C474.475 108.917 472.231 109.069 470.015 109.405C469.447 109.519 468.863 109.539 468.287 109.465C468.035 109.406 467.788 109.327 467.55 109.226L467.118 109.071C466.447 108.911 465.749 108.871 465.062 108.952C462.491 109.09 459.94 109.454 457.441 110.036L457.48 109.988Z" fill="white"/>
<path id="Vector_36" d="M487.4 109.107C487.36 109.115 487.318 109.115 487.277 109.106C487.236 109.097 487.198 109.079 487.166 109.055C487.134 109.03 487.107 108.999 487.089 108.964C487.071 108.929 487.062 108.89 487.062 108.851C487.062 108.812 487.071 108.773 487.089 108.737C487.107 108.703 487.134 108.671 487.166 108.646C487.198 108.622 487.236 108.605 487.277 108.596C487.318 108.587 487.36 108.586 487.4 108.594C488.924 108.594 490.474 108.594 491.96 108.594H492.074C502.983 108.594 514.032 108.594 524.929 108.452C525.001 108.454 525.069 108.483 525.119 108.533C525.168 108.581 525.196 108.646 525.196 108.714C525.196 108.78 525.168 108.843 525.118 108.891C525.068 108.938 525 108.964 524.929 108.964C514.032 109.083 502.971 109.131 492.062 109.107H491.947C490.461 109.107 488.912 109.107 487.4 109.107Z" fill="white"/>
<path id="Vector_37" d="M362.966 224.979H339.318C337.965 224.979 336.868 226.01 336.868 227.28V231.343C336.868 232.614 337.965 233.644 339.318 233.644H362.966C364.32 233.644 365.417 232.614 365.417 231.343V227.28C365.417 226.01 364.32 224.979 362.966 224.979Z" fill="#673DE6"/>
<path id="Vector_38" d="M363.982 221.381H338.302C337.51 221.381 336.868 221.984 336.868 222.727V223.633C336.868 224.377 337.51 224.98 338.302 224.98H363.982C364.775 224.98 365.417 224.377 365.417 223.633V222.727C365.417 221.984 364.775 221.381 363.982 221.381Z" fill="white"/>
</g>
<path id="Vector_39" d="M387.147 134.575C396.987 134.575 404.965 127.088 404.965 117.854C404.965 108.62 396.987 101.134 387.147 101.134C377.306 101.134 369.329 108.62 369.329 117.854C369.329 127.088 377.306 134.575 387.147 134.575Z" fill="white"/>
</g>
<path id="white-circle" d="M387.147 147.589C385.893 147.513 384.67 147.197 383.552 146.659C382.799 146.331 382.012 146.075 381.203 145.896C380.364 145.771 379.513 145.723 378.663 145.753C377.435 145.845 376.2 145.703 375.031 145.336C373.915 144.81 372.923 144.081 372.11 143.191C371.538 142.616 370.914 142.09 370.243 141.618C369.514 141.211 368.75 140.864 367.957 140.581C366.777 140.224 365.689 139.644 364.756 138.877C363.944 138.004 363.326 136.987 362.94 135.886C362.655 135.135 362.284 134.417 361.835 133.74C361.344 133.099 360.782 132.508 360.159 131.977C359.208 131.22 358.434 130.287 357.886 129.235C357.497 128.143 357.341 126.989 357.429 125.839C357.464 125.042 357.418 124.244 357.289 123.456C357.096 122.7 356.819 121.965 356.463 121.263C355.815 120.241 355.472 119.074 355.472 117.884C355.472 116.695 355.815 115.528 356.463 114.506C356.817 113.799 357.093 113.06 357.289 112.301C357.419 111.513 357.465 110.714 357.429 109.917C357.343 108.764 357.497 107.606 357.886 106.509C358.438 105.463 359.211 104.535 360.159 103.78C360.782 103.249 361.344 102.658 361.835 102.016C362.282 101.339 362.652 100.62 362.94 99.8715C363.329 98.7679 363.947 97.7469 364.756 96.8681C365.697 96.1121 366.784 95.5336 367.957 95.1639C368.755 94.8934 369.521 94.5459 370.243 94.1269C370.918 93.6698 371.544 93.151 372.11 92.578C372.929 91.6978 373.921 90.9737 375.031 90.4445C376.2 90.0782 377.435 89.936 378.663 90.0276C379.513 90.0574 380.364 90.0096 381.203 89.8847C382.012 89.7051 382.799 89.4498 383.552 89.1217C384.67 88.5842 385.893 88.2672 387.147 88.1923C388.404 88.2686 389.631 88.5848 390.753 89.1217C391.502 89.4512 392.286 89.7071 393.091 89.8847C393.93 90.0096 394.781 90.0574 395.631 90.0276C396.858 89.936 398.094 90.0782 399.262 90.4445C400.375 90.9702 401.367 91.6951 402.183 92.578C403.277 93.7988 404.717 94.7033 406.337 95.1874C407.567 95.4698 408.692 96.0635 409.588 96.9042C410.483 97.7448 411.116 98.7998 411.417 99.9547C411.705 100.704 412.075 101.422 412.522 102.1C413.013 102.741 413.575 103.332 414.198 103.863C415.146 104.619 415.919 105.547 416.471 106.593C416.86 107.69 417.015 108.848 416.929 110.001C416.892 110.798 416.938 111.596 417.068 112.384C417.264 113.143 417.54 113.882 417.893 114.589C418.542 115.611 418.885 116.779 418.885 117.967C418.885 119.157 418.542 120.324 417.893 121.346C417.539 122.049 417.262 122.783 417.068 123.539C416.94 124.327 416.892 125.126 416.929 125.923C417.016 127.072 416.861 128.226 416.471 129.319C415.923 130.37 415.149 131.303 414.198 132.06C413.575 132.591 413.013 133.183 412.522 133.824C412.073 134.5 411.702 135.219 411.417 135.969C411.109 137.113 410.472 138.155 409.576 138.984C408.68 139.812 407.56 140.393 406.337 140.664C405.544 140.947 404.779 141.294 404.05 141.701C403.38 142.173 402.755 142.699 402.183 143.274C401.371 144.164 400.378 144.893 399.262 145.42C398.094 145.786 396.858 145.928 395.631 145.837C394.781 145.807 393.93 145.855 393.091 145.979C392.286 146.157 391.502 146.413 390.753 146.742C389.624 147.25 388.398 147.538 387.147 147.589ZM379.158 145.205C379.885 145.187 380.613 145.234 381.33 145.348C382.179 145.538 383.005 145.809 383.794 146.158C384.804 146.735 385.964 147.04 387.147 147.04C388.329 147.04 389.49 146.735 390.499 146.158C391.289 145.809 392.114 145.538 392.964 145.348C393.853 145.217 394.756 145.169 395.656 145.205C396.798 145.291 397.947 145.162 399.034 144.824C400.069 144.333 400.99 143.652 401.739 142.821C402.334 142.212 402.993 141.66 403.707 141.177C404.466 140.736 405.27 140.369 406.108 140.081C407.202 139.742 408.215 139.208 409.093 138.508C409.847 137.69 410.418 136.737 410.769 135.707C411.081 134.923 411.472 134.168 411.937 133.455C412.456 132.78 413.048 132.157 413.703 131.595C414.584 130.888 415.308 130.025 415.836 129.057C416.192 128.035 416.325 126.957 416.23 125.887C416.196 125.046 416.251 124.203 416.395 123.372C416.594 122.554 416.879 121.755 417.246 120.989C417.861 120.043 418.186 118.957 418.186 117.849C418.186 116.74 417.861 115.654 417.246 114.708C416.881 113.941 416.597 113.143 416.395 112.325C416.251 111.494 416.196 110.652 416.23 109.81C416.325 108.739 416.192 107.662 415.836 106.641C415.308 105.672 414.584 104.809 413.703 104.102C413.048 103.54 412.456 102.917 411.937 102.243C411.472 101.529 411.081 100.775 410.769 99.9901C410.499 98.9282 409.921 97.9564 409.098 97.1844C408.275 96.4124 407.24 95.8693 406.108 95.6168C405.27 95.3289 404.466 94.9613 403.707 94.5202C402.996 94.034 402.337 93.4825 401.739 92.8756C400.993 92.0412 400.072 91.36 399.034 90.8738C397.947 90.5353 396.798 90.4056 395.656 90.4923C393.876 90.6366 392.089 90.3057 390.499 89.5386C389.49 88.9622 388.329 88.657 387.147 88.657C385.964 88.657 384.804 88.9622 383.794 89.5386C382.205 90.3057 380.418 90.6366 378.638 90.4923C377.497 90.4105 376.35 90.5353 375.259 90.8613C374.224 91.3566 373.304 92.0412 372.555 92.8756C371.96 93.4853 371.3 94.0367 370.586 94.5202C369.827 94.9613 369.024 95.3289 368.185 95.6168C367.089 95.9484 366.074 96.4838 365.201 97.1899C364.446 98.0077 363.876 98.9601 363.525 99.9901C363.215 100.775 362.824 101.53 362.357 102.243C361.837 102.917 361.246 103.54 360.591 104.102C359.706 104.806 358.981 105.669 358.457 106.641C358.102 107.662 357.968 108.739 358.064 109.81C358.098 110.652 358.043 111.494 357.898 112.325C357.697 113.143 357.412 113.941 357.048 114.708C356.433 115.654 356.108 116.74 356.108 117.849C356.108 118.957 356.433 120.043 357.048 120.989C357.414 121.755 357.699 122.554 357.898 123.372C358.043 124.203 358.098 125.046 358.064 125.887C357.968 126.957 358.102 128.035 358.457 129.057C358.985 130.025 359.71 130.888 360.591 131.595C361.246 132.157 361.837 132.78 362.357 133.455C362.822 134.168 363.213 134.923 363.525 135.707C363.879 136.735 364.449 137.688 365.201 138.508C366.078 139.208 367.092 139.742 368.185 140.081C369.024 140.369 369.827 140.736 370.586 141.177C371.3 141.66 371.96 142.212 372.555 142.821C373.304 143.652 374.224 144.333 375.259 144.824C376.348 145.155 377.496 145.285 378.638 145.205H379.158Z" fill="white"/>
<g id="Group 50">
<g id="Group 23">
<path id="Vector_40" d="M399.872 101.432C399.83 101.434 399.788 101.427 399.749 101.413C399.709 101.399 399.673 101.377 399.643 101.349C399.613 101.321 399.589 101.288 399.572 101.251C399.555 101.214 399.546 101.174 399.546 101.135C399.546 101.094 399.555 101.055 399.572 101.018C399.589 100.981 399.613 100.948 399.643 100.92L413.613 87.8108C413.643 87.783 413.679 87.7608 413.719 87.7463C413.758 87.7324 413.8 87.7255 413.842 87.7275H441.401C441.485 87.7275 441.566 87.7587 441.625 87.8149C441.685 87.8704 441.719 87.946 441.719 88.0251C441.719 88.1042 441.685 88.1798 441.625 88.236C441.566 88.2921 441.485 88.3234 441.401 88.3234H413.969L400.05 101.349C400.004 101.396 399.94 101.426 399.872 101.432Z" fill="white"/>
<path id="Vector_41" d="M365.201 164.976H337.642C337.558 164.976 337.477 164.945 337.418 164.888C337.359 164.833 337.325 164.757 337.325 164.678C337.325 164.599 337.359 164.523 337.418 164.467C337.477 164.411 337.558 164.38 337.642 164.38H365.074L378.905 151.402C378.966 151.359 379.042 151.338 379.117 151.343C379.194 151.348 379.266 151.379 379.32 151.429C379.373 151.481 379.407 151.548 379.411 151.619C379.417 151.691 379.395 151.762 379.349 151.819L365.379 164.928C365.325 164.958 365.264 164.974 365.201 164.976Z" fill="white"/>
</g>
<g id="Group 49">
<g id="Group" opacity="0.1">
<path id="Vector_42" opacity="0.1" d="M523.303 173.175C523.303 176.035 521.195 178.669 520.624 181.374C520.052 184.079 520.903 187.333 519.773 189.895C518.642 192.458 515.594 194.174 513.943 196.497C512.292 198.821 511.784 202.087 509.663 204.065C507.543 206.043 504.089 206.449 501.599 208.069C499.11 209.69 497.358 212.455 494.576 213.539C491.795 214.624 488.454 213.789 485.483 214.338C482.511 214.886 479.806 216.852 476.758 216.852C473.71 216.852 470.916 214.874 468.033 214.338C465.15 213.801 461.683 214.6 458.94 213.539C456.197 212.478 454.38 209.619 451.917 208.069C449.453 206.52 445.96 206.043 443.853 204.065C441.744 202.087 441.236 198.833 439.573 196.497C437.909 194.162 434.899 192.505 433.756 189.895C432.613 187.285 433.477 184.151 432.892 181.374C432.308 178.598 430.225 176.035 430.225 173.175C430.225 170.315 432.321 167.693 432.892 164.988C433.464 162.282 432.626 159.029 433.756 156.467C434.886 153.905 437.922 152.189 439.573 149.864C441.224 147.541 441.744 144.275 443.853 142.297C445.96 140.319 449.427 139.854 451.917 138.281C454.406 136.708 456.172 133.908 458.94 132.823C461.708 131.739 465.061 132.572 468.033 132.024C471.005 131.476 473.71 129.522 476.758 129.522C479.806 129.522 482.613 131.5 485.483 132.036C488.353 132.572 491.833 131.774 494.576 132.834C497.319 133.895 499.136 136.744 501.612 138.304C504.089 139.866 507.556 140.33 509.677 142.309C511.798 144.288 512.28 147.541 513.943 149.877C515.608 152.212 518.617 153.869 519.773 156.479C520.928 159.089 520.039 162.223 520.624 165C521.208 167.776 523.303 170.327 523.303 173.175Z" fill="white"/>
</g>
<g id="Group 31">
<path id="Vector_43" d="M446.418 236.79H442.583V425.99H446.418V236.79Z" fill="#263238"/>
<path id="Vector_44" d="M406.553 426.003H402.717L442.583 370.432H446.418L406.553 426.003Z" fill="#263238"/>
<path id="Vector_45" d="M482.447 426.003H486.283L446.417 370.432H442.583L482.447 426.003Z" fill="#263238"/>
<path id="Vector_46" d="M449.796 367.107H439.204C438.012 367.107 437.045 368.014 437.045 369.133V371.731C437.045 372.85 438.012 373.757 439.204 373.757H449.796C450.988 373.757 451.955 372.85 451.955 371.731V369.133C451.955 368.014 450.988 367.107 449.796 367.107Z" fill="#263238"/>
</g>
<g id="Group 11">
<path id="Vector_47" d="M567.69 72.139H321.31C320.828 72.139 320.366 71.9601 320.026 71.6403C319.685 71.3206 319.494 70.887 319.494 70.4355C319.497 69.9853 319.69 69.5546 320.03 69.2379C320.37 68.9208 320.83 68.7429 321.31 68.7429H567.69C568.168 68.7429 568.627 68.9213 568.966 69.2386C569.304 69.556 569.494 69.986 569.494 70.4355C569.495 70.6581 569.45 70.8801 569.36 71.0861C569.27 71.2928 569.138 71.4808 568.97 71.6396C568.802 71.7978 568.603 71.9233 568.383 72.0093C568.163 72.0953 567.928 72.1397 567.69 72.139Z" fill="#E0E0E0"/>
<path id="Vector_48" d="M577.469 233.644H311.531L317.728 239.948H571.272L577.469 233.644Z" fill="#E0E0E0"/>
<path id="Vector_49" d="M253.784 288.285H131.877V291.086H253.784V288.285Z" fill="#673DE6"/>
</g>
<g id="Group 15">
<path id="Vector_50" d="M253.784 288.285H221.462V291.086H253.784V288.285Z" fill="#263238"/>
<path id="Vector_51" d="M113.83 203.731L121.983 210.977L132.791 216.674C132.41 217.007 132.55 219.272 132.702 220.404C132.746 221.641 133.198 222.834 133.997 223.819C134.796 224.803 135.901 225.53 137.16 225.897C138.43 226.41 139.7 227.09 139.941 228.21C140.195 229.592 139.116 231.308 133.07 232.13C127.273 232.86 121.372 232.081 116.014 229.878C113.474 228.901 113.907 227.828 114.542 225.564C116.167 219.784 115.798 209.583 113.83 203.731Z" fill="#FFB573"/>
<path id="Vector_52" d="M110.579 228.21C111.851 225.183 112.883 222.072 113.665 218.902C113.665 218.902 130.175 217.77 135.674 219.796C141.173 221.822 144.564 230.605 144.564 230.605L110.579 228.21Z" fill="#263238"/>
</g>
</g>
</g>
<g id="men-face">
<g id="Group 10">
<path id="Vector_53" d="M138.43 192.123C138.71 192.863 139.357 193.316 139.891 193.196C140.424 193.077 140.615 192.314 140.335 191.564C140.055 190.813 139.408 190.372 138.887 190.491C138.367 190.61 138.113 191.373 138.43 192.123Z" fill="#263238"/>
<path id="Vector_54" d="M139.154 192.684C140.792 194.307 142.655 195.718 144.691 196.879C144.359 197.345 143.922 197.738 143.411 198.028C142.899 198.318 142.326 198.5 141.732 198.559L139.154 192.684Z" fill="#ED893E"/>
<path id="Vector_55" d="M135.039 189.717C134.956 189.735 134.868 189.735 134.785 189.717C134.721 189.706 134.66 189.685 134.605 189.652C134.551 189.62 134.504 189.577 134.467 189.527C134.431 189.477 134.405 189.42 134.392 189.361C134.378 189.301 134.378 189.239 134.392 189.18C134.509 188.46 134.814 187.777 135.279 187.193C135.744 186.609 136.356 186.142 137.059 185.832C137.177 185.799 137.303 185.809 137.413 185.859C137.524 185.91 137.611 185.997 137.657 186.104C137.703 186.211 137.705 186.33 137.662 186.439C137.619 186.547 137.535 186.636 137.426 186.69C136.88 186.944 136.406 187.319 136.046 187.781C135.686 188.244 135.449 188.781 135.356 189.347C135.342 189.429 135.306 189.506 135.25 189.572C135.195 189.636 135.122 189.686 135.039 189.717Z" fill="#263238"/>
<path id="Vector_56" d="M112.026 199.644C115.925 208.379 117.729 213.67 124.206 216.602C133.947 221.011 144.107 212.896 143.053 203.207C142.1 194.483 135.89 181.684 125.273 181.327C122.921 181.259 120.589 181.75 118.493 182.753C116.397 183.757 114.605 185.241 113.285 187.068C111.963 188.896 111.155 191.006 110.936 193.205C110.716 195.403 111.091 197.618 112.026 199.644Z" fill="#FFB573"/>
<path id="Vector_57" d="M131.635 199.191C135.306 195.258 132.753 188.465 129.502 185.807C132.651 185.7 140.805 185.033 138.392 178.442C135.979 171.852 127.584 171.077 125.146 174.331C118.211 170.756 109.906 173.854 111.899 178.824C103.747 177.632 101.409 185.224 104.775 188.286C100.495 191.635 98.9587 198.225 104.559 200.716C110.16 203.207 110.274 209.416 115.989 212.634C121.704 215.852 134.798 210.369 131.635 199.191Z" fill="#263238"/>
</g>
<path id="Vector_58" d="M126.924 200.514C128.134 202.298 130.001 203.604 132.169 204.184C134.975 204.888 136.335 201.967 135.293 199.417C134.353 197.177 131.483 194.65 128.816 195.019C126.149 195.389 125.425 198.285 126.924 200.514Z" fill="#FFB573"/>
</g>
<g id="Group 17">
<g id="Group_2" opacity="0.3">
<path id="Vector_59" opacity="0.3" d="M111.913 224.348C122.555 224.706 127.393 232.178 118.567 245.478C110.947 256.906 109.944 257.145 109.944 257.145L90.678 248.183C97.155 236.612 101.029 223.967 111.913 224.348Z" fill="black"/>
</g>
<path id="Vector_60" d="M117.449 295.65L116.37 294.518C113.043 291.622 111.621 291.979 107.811 291.979L103.15 295.257C105.969 302.527 111.671 302.205 111.671 302.205L113.322 303.647C113.685 303.961 114.125 304.186 114.603 304.302C115.082 304.418 115.583 304.42 116.063 304.309C116.542 304.198 116.985 303.977 117.351 303.666C117.718 303.355 117.996 302.964 118.161 302.527L118.644 301.239C118.993 300.292 119.067 299.275 118.857 298.292C118.647 297.31 118.161 296.398 117.449 295.65Z" fill="#FFB573"/>
<path id="Vector_61" d="M229.172 403.884L238.278 399.081L228.588 378.261L219.482 383.052L229.172 403.884Z" fill="#FFB573"/>
<path id="Vector_62" opacity="0.2" d="M224.181 393.147L233.426 388.666L228.588 378.261L219.482 383.052L224.181 393.147Z" fill="black"/>
<path id="Vector_63" d="M237.097 394.707L225.413 395.482C225.215 395.492 225.029 395.572 224.893 395.708C224.759 395.844 224.685 396.024 224.689 396.209L224.778 404.909C224.813 405.365 225.038 405.79 225.404 406.093C225.769 406.396 226.246 406.553 226.733 406.529C230.785 406.196 232.436 405.243 237.528 404.564C240.665 404.134 248.196 403.729 252.425 402.633C256.655 401.536 255.956 397.866 252.502 398.032C248.019 398.223 242.024 397.163 238.925 395.196C238.39 394.848 237.747 394.676 237.097 394.707Z" fill="#263238"/>
</g>
<g id="Group 32">
<g id="Group 18">
<path id="Vector_64" d="M157.48 304.1C157.48 304.1 210.667 301.12 215.164 320.474C224.308 359.801 233.134 381.646 233.134 381.646L219.063 388.462C219.063 388.462 198.336 361.22 192.227 333.309C170.561 330.258 132.689 341.019 123.647 325.753C115.646 312.287 122.669 302.61 122.669 302.61L157.48 304.1Z" fill="#263238"/>
<path id="Vector_65" d="M219.329 392.014L235.712 384.566L233.871 378.261L215.862 386.198L219.329 392.014Z" fill="#673DE6"/>
<path id="Vector_66" d="M240.907 396.174C239.972 396.208 239.036 396.151 238.113 396.006C238.065 396.001 238.02 395.982 237.983 395.952C237.947 395.922 237.922 395.884 237.909 395.84C237.897 395.796 237.899 395.75 237.915 395.708C237.931 395.665 237.96 395.628 237.998 395.601C238.316 395.363 241.11 393.278 242.417 393.659C242.565 393.704 242.698 393.783 242.805 393.889C242.911 393.996 242.988 394.125 243.027 394.267C243.113 394.476 243.14 394.702 243.104 394.924C243.069 395.145 242.972 395.354 242.824 395.53C242.288 395.954 241.607 396.182 240.907 396.174ZM238.748 395.626C240.639 395.852 241.999 395.709 242.455 395.22C242.551 395.105 242.612 394.968 242.632 394.824C242.651 394.679 242.63 394.532 242.57 394.398C242.549 394.331 242.512 394.268 242.462 394.216C242.41 394.165 242.348 394.125 242.278 394.1C241.567 393.897 239.903 394.827 238.76 395.626H238.748Z" fill="#673DE6"/>
<path id="Vector_67" d="M238.163 396.006C238.126 396.018 238.086 396.018 238.049 396.006C238.012 395.993 237.98 395.97 237.956 395.941C237.931 395.911 237.915 395.877 237.909 395.84C237.909 395.721 237.439 392.932 238.417 391.907C238.544 391.778 238.7 391.677 238.873 391.611C239.047 391.545 239.233 391.516 239.421 391.526C239.629 391.519 239.834 391.578 240.004 391.692C240.174 391.807 240.299 391.97 240.36 392.158C240.677 393.206 239.28 395.339 238.29 395.995C238.25 396.011 238.206 396.015 238.163 396.006ZM239.294 391.955C239.196 391.961 239.101 391.984 239.013 392.025C238.926 392.066 238.849 392.124 238.786 392.193C238.201 392.801 238.24 394.41 238.328 395.339C239.248 394.534 239.806 393.43 239.891 392.253C239.891 392.121 239.763 391.979 239.407 391.955H239.294Z" fill="#673DE6"/>
<path id="Vector_68" d="M169.152 421.736L179.489 421.271L181.178 398.366L170.841 398.831L169.152 421.736Z" fill="#FFB573"/>
<path id="Vector_69" d="M180.53 418.197L168.834 417.851C168.638 417.841 168.445 417.902 168.296 418.022C168.147 418.142 168.053 418.311 168.033 418.494L167.183 427.158C167.172 427.385 167.21 427.612 167.293 427.826C167.376 428.039 167.504 428.235 167.668 428.402C167.832 428.569 168.029 428.704 168.249 428.8C168.469 428.895 168.706 428.949 168.948 428.958C173.025 428.958 174.739 428.529 179.883 428.684C183.045 428.779 188.773 429.256 194.107 429.256C199.441 429.256 197.294 425.204 194.449 424.823C190.004 424.227 185.178 421.104 182.308 418.864C181.813 418.459 181.187 418.223 180.53 418.197Z" fill="#263238"/>
</g>
<path id="Vector_70" d="M184.15 420.008C183.215 419.952 182.287 419.808 181.382 419.579C181.335 419.567 181.293 419.543 181.262 419.509C181.23 419.475 181.21 419.434 181.203 419.388C181.197 419.344 181.204 419.3 181.224 419.259C181.245 419.219 181.277 419.185 181.318 419.162C181.648 418.959 184.671 417.148 185.916 417.661C186.058 417.718 186.183 417.807 186.278 417.922C186.374 418.037 186.437 418.172 186.462 418.316C186.526 418.525 186.528 418.747 186.467 418.956C186.407 419.167 186.286 419.357 186.118 419.508C185.554 419.903 184.85 420.083 184.15 420.008ZM182.054 419.269C183.908 419.662 185.281 419.651 185.789 419.21C185.893 419.104 185.966 418.976 186.002 418.836C186.038 418.696 186.033 418.549 185.991 418.411C185.982 418.338 185.952 418.27 185.906 418.211C185.859 418.152 185.797 418.107 185.725 418.078C185.077 417.804 183.324 418.578 182.08 419.269H182.054Z" fill="#673DE6"/>
</g>
<g id="Group 30">
<g id="Group 16">
<path id="Vector_71" d="M118.326 239.877L110.071 255.369C108.686 257.955 107.341 260.529 106.032 263.116C104.724 265.702 103.416 268.24 102.286 270.766C101.676 272.042 101.168 273.257 100.622 274.509L99.9233 276.284L99.8345 276.511V276.618V276.677V276.558C99.9629 276.059 100.019 275.546 99.9996 275.033C100.014 274.656 99.9351 274.281 99.7713 273.936C99.6693 273.77 99.7713 274.092 99.8477 274.473C100.018 274.952 100.225 275.418 100.469 275.867C101.016 276.904 101.739 278.024 102.426 279.18C105.41 283.804 109.055 288.714 112.357 293.576L112.446 293.696C113.051 294.589 113.312 295.649 113.185 296.7C113.06 297.751 112.554 298.731 111.753 299.475C110.952 300.22 109.904 300.685 108.783 300.793C107.661 300.902 106.534 300.647 105.588 300.071C102.801 298.398 100.125 296.567 97.5742 294.59C94.9537 292.608 92.4685 290.474 90.1318 288.202C88.857 286.978 87.6647 285.681 86.5633 284.316C85.929 283.551 85.335 282.755 84.7853 281.933C84.049 280.812 83.4605 279.611 83.0323 278.358C82.6714 277.297 82.4702 276.194 82.4355 275.081C82.4133 274.194 82.516 273.309 82.7408 272.447L82.9435 271.684L83.6167 269.218C84.1247 267.68 84.5945 266.083 85.1538 264.617C86.233 261.602 87.4142 258.742 88.6078 255.882C89.8015 253.021 91.1478 250.245 92.4178 247.54C95.1105 242.01 97.8913 236.659 101.066 231.296C102.274 229.142 104.344 227.527 106.821 226.805C109.298 226.083 111.979 226.313 114.274 227.447C116.57 228.58 118.292 230.522 119.061 232.847C119.83 235.171 119.584 237.687 118.376 239.841L118.326 239.877Z" fill="#FFB573"/>
<path id="Vector_72" d="M111.913 224.349C122.555 224.706 127.393 232.178 118.567 245.478C110.947 256.906 109.944 257.145 109.944 257.145L90.678 248.183C97.155 236.612 101.029 223.967 111.913 224.349Z" fill="#673DE6"/>
</g>
<g id="Group 19">
<path id="Vector_73" d="M181.457 419.579H181.356C181.318 419.562 181.286 419.535 181.264 419.501C181.242 419.467 181.229 419.428 181.229 419.388C181.229 419.269 181.076 416.457 182.169 415.527C182.309 415.41 182.475 415.324 182.655 415.275C182.836 415.225 183.025 415.214 183.21 415.241C183.416 415.257 183.611 415.334 183.765 415.464C183.918 415.593 184.022 415.766 184.061 415.956C184.265 417.029 182.639 419.031 181.521 419.531C181.504 419.551 181.482 419.567 181.457 419.579ZM183.02 415.658C182.822 415.655 182.631 415.723 182.487 415.849C181.877 416.772 181.601 417.854 181.699 418.935C182.626 418.245 183.718 416.719 183.578 416.016C183.578 415.885 183.489 415.718 183.134 415.671L183.02 415.658Z" fill="#673DE6"/>
<path id="Vector_74" opacity="0.2" d="M170.841 398.843L181.178 398.378L180.201 411.476L169.9 411.463L170.841 398.843Z" fill="black"/>
<path id="Vector_75" d="M133.147 303.063C133.147 303.063 197.714 314.349 196.456 331.367C194.209 362.006 183.261 405.791 183.261 405.791L167.754 405.993C167.754 405.993 165.634 360.457 167.551 338.291C148.183 338.291 110.071 337.659 102.616 328.304C94.3735 317.983 102.844 301.764 102.844 301.764L133.147 303.063Z" fill="#263238"/>
<path id="Vector_76" d="M166.446 408.627L186.017 408.365L186.944 402.394L165.634 402.978L166.446 408.627Z" fill="#673DE6"/>
<path id="Vector_77" d="M147.015 225.028C140.665 223.836 112.065 224.206 112.065 224.206C109.204 224.138 106.42 225.08 104.264 226.846C102.108 228.611 100.736 231.07 100.419 233.739C99.4153 242.01 102.374 260.327 102.578 269.766C102.819 281.349 103.086 286.236 102.844 301.823L169.43 305.101C171.97 276.689 162.103 262.985 156.222 234.717C155.347 230.391 153.353 226.184 147.015 225.028Z" fill="#673DE6"/>
<path id="Vector_78" opacity="0.3" d="M147.015 225.028C140.665 223.836 112.065 224.206 112.065 224.206C109.204 224.138 106.42 225.08 104.264 226.846C102.108 228.611 100.736 231.07 100.419 233.739C99.4153 242.01 102.374 260.327 102.578 269.766C102.819 281.349 103.086 286.236 102.844 301.823L169.43 305.101C171.97 276.689 162.103 262.985 156.222 234.717C155.347 230.391 153.353 226.184 147.015 225.028Z" fill="black"/>
<path id="Vector_79" d="M155.118 234.168C158.115 239.174 161.201 244.43 164.312 249.447C165.85 251.985 167.437 254.475 169.037 256.906C170.637 259.338 172.288 261.674 173.939 263.938L175.209 265.547C175.629 266.095 176.034 266.524 176.479 267.013L176.784 267.382L176.937 267.561L176.835 267.465L176.606 267.311C176.606 267.311 176.542 267.311 176.606 267.382C176.985 267.676 177.384 267.948 177.8 268.192C179.972 269.515 182.791 270.862 185.521 272.22C191.059 274.926 196.85 277.607 202.464 280.562H202.539C203.585 281.074 204.401 281.919 204.839 282.946C205.277 283.972 205.308 285.113 204.927 286.159C204.546 287.205 203.778 288.089 202.762 288.65C201.746 289.211 200.55 289.411 199.39 289.215C192.789 288.48 186.256 287.284 179.844 285.64C176.438 284.796 173.095 283.741 169.837 282.482C168.802 282.062 167.796 281.581 166.827 281.04C166.573 280.909 166.205 280.67 165.874 280.456L165.354 280.098L164.681 279.562L164.35 279.288L164.122 279.073L163.868 278.835L163.36 278.358C162.713 277.726 161.976 277.071 161.391 276.44L159.575 274.533C155.22 269.596 151.219 264.392 147.6 258.957C144.044 253.629 140.767 248.362 137.744 242.666C136.615 240.526 136.418 238.057 137.197 235.784C137.975 233.511 139.667 231.612 141.914 230.49C144.16 229.369 146.784 229.114 149.228 229.778C151.672 230.443 153.744 231.975 155.003 234.049L155.118 234.168Z" fill="#FFB573"/>
</g>
</g>
<g id="Group 20">
<path id="Vector_80" d="M137.261 230.915C142.989 222.501 152.311 222.382 160.046 236.266C166.688 248.183 166.396 249.148 166.396 249.148L148.4 260.196C141.034 249.089 131.394 239.531 137.261 230.915Z" fill="#673DE6"/>
<g id="Group_3" opacity="0.3">
<path id="Vector_81" opacity="0.3" d="M137.261 230.915C142.989 222.501 152.311 222.382 160.046 236.266C166.688 248.183 166.396 249.148 166.396 249.148L148.4 260.196C141.034 249.089 131.394 239.531 137.261 230.915Z" fill="black"/>
</g>
<path id="Vector_82" d="M207.213 279.847L205.639 279.573C201.104 279.18 200.228 280.288 197.205 282.469L195.643 287.737C202.616 291.872 206.921 288.345 206.921 288.345L209.169 288.547C209.66 288.589 210.155 288.515 210.608 288.332C211.061 288.149 211.459 287.863 211.766 287.501C212.072 287.137 212.277 286.709 212.363 286.253C212.448 285.796 212.411 285.328 212.255 284.888L211.798 283.589C211.462 282.637 210.859 281.787 210.052 281.128C209.245 280.47 208.265 280.028 207.213 279.847Z" fill="#FFB573"/>
</g>
<g id="chairs">
<g id="Group 1">
<path id="Vector_83" d="M204.013 430.233H202.172L194.475 356.286C193.84 350.148 189.573 345.56 184.582 345.56H169.418C164.338 345.56 160.159 350.184 159.524 356.286L151.828 430.233H149.987L157.708 355.952C158.458 348.694 163.487 343.213 169.418 343.213H184.582C190.5 343.213 195.542 348.694 196.291 355.952L204.013 430.233Z" fill="#263238"/>
<path id="Vector_84" d="M146.647 430.233H144.78L137.16 356.286C136.525 350.148 132.271 345.56 127.266 345.56H112.052C107.049 345.56 102.794 350.184 102.159 356.286L94.4623 430.233H92.6212L100.33 355.952C101.08 348.694 106.121 343.213 112.04 343.213H127.203C133.134 343.213 138.164 348.694 138.912 355.952L146.647 430.233Z" fill="#263238"/>
<path id="Vector_85" d="M198.882 338.076L170.485 337.016L163.042 295.96C159.232 274.807 139.7 257.669 119.469 257.669H101.6C81.3688 257.669 68.0847 274.807 71.9202 295.96L77.0002 324.3C78.8927 334.787 88.5697 343.296 98.5902 343.296H211.036C211.272 343.267 211.494 343.17 211.669 343.018C211.844 342.866 211.964 342.665 212.012 342.446C212.059 342.226 212.032 341.998 211.935 341.794C211.837 341.59 211.674 341.419 211.468 341.306C207.569 339.392 203.276 338.29 198.882 338.076Z" fill="#673DE6"/>
</g>
<path id="Vector_86" d="M205.575 342.355H196.558V340.173H205.575C228.245 340.173 246.697 320.832 246.697 297.056V289.691H249.021V297.056C249.021 322.035 229.527 342.355 205.575 342.355Z" fill="#263238"/>
<path id="Vector_87" d="M390.703 288.285H268.795V291.086H390.703V288.285Z" fill="#673DE6"/>
<path id="Vector_88" d="M350.151 286.891H309.334V288.297H350.151V286.891Z" fill="#E0E0E0"/>
<path id="Vector_89" d="M390.703 288.285H358.381V291.086H390.703V288.285Z" fill="#263238"/>
<path id="Vector_90" d="M257.645 259.052L255.194 275.962C254.419 281.599 253.619 287.237 253.035 292.778L252.845 294.84L252.756 295.876C252.772 295.706 252.772 295.534 252.756 295.364C252.727 295.202 252.684 295.043 252.629 294.887C252.556 294.681 252.453 294.484 252.323 294.304C252.133 294.077 252.107 294.113 252.159 294.16C252.267 294.271 252.391 294.367 252.527 294.447C252.977 294.742 253.453 295.001 253.949 295.222C256.501 296.322 259.138 297.243 261.836 297.974C267.475 299.618 273.393 300.954 279.235 302.324L278.575 307.091C272.326 306.901 266.1 306.296 259.943 305.28C256.68 304.764 253.475 303.967 250.368 302.896C249.452 302.561 248.565 302.163 247.714 301.704C247.187 301.425 246.686 301.106 246.215 300.751C245.551 300.263 244.968 299.685 244.487 299.035C244.149 298.552 243.876 298.031 243.675 297.486C243.568 297.157 243.483 296.823 243.421 296.485C243.398 296.139 243.398 295.793 243.421 295.448V294.327V292.099C243.675 286.211 244.247 280.456 244.907 274.711C245.567 268.967 246.342 263.259 247.307 257.538L257.645 259.052Z" fill="#FFC3BD"/>
</g>
<g id="Group 48">
<path id="Vector_91" d="M292.735 307.401L288.786 310.785C288.337 311.171 287.775 311.422 287.173 311.506C286.57 311.588 285.955 311.499 285.407 311.25L281.051 309.283C281.051 309.283 274.6 309.034 273.673 305.327L275.349 302.455L285.343 301.407C286.376 301.304 287.415 301.522 288.303 302.026L292.418 304.409C292.681 304.563 292.903 304.771 293.067 305.017C293.231 305.264 293.331 305.543 293.362 305.832C293.393 306.12 293.352 306.412 293.244 306.685C293.135 306.957 292.961 307.202 292.735 307.401Z" fill="#FFC3BD"/>
<path id="Vector_92" d="M269.139 224.301C270.155 230.104 271.018 240.711 266.599 244.429C273.566 248.074 279.654 253.032 284.48 258.992C292.1 253.367 285.75 244.966 285.75 244.966C278.943 243.237 279.273 238.471 280.606 234.025L269.139 224.301Z" fill="#FFC3BD"/>
<path id="Vector_93" d="M254.393 245.943C246.608 248.326 244.932 258.11 245.63 265.726L261.34 274.795C261.34 274.795 265.15 263.675 265.15 257.729C265.087 251.401 259.677 244.334 254.393 245.943Z" fill="#263238"/>
</g>
<g id="girld-face">
<path id="Vector_94" d="M288.57 212.586C288.824 213.337 289.459 213.778 289.979 213.658C290.5 213.539 290.715 212.765 290.461 212.026C290.207 211.287 289.572 210.834 289.052 210.953C288.532 211.073 288.29 211.847 288.57 212.586Z" fill="#263238"/>
<path id="Vector_95" d="M289.103 213.718C290.393 215.209 291.897 216.524 293.573 217.627C293.261 218.023 292.861 218.349 292.4 218.583C291.939 218.818 291.43 218.955 290.906 218.985L289.103 213.718Z" fill="#ED847E"/>
<path id="Vector_96" d="M287.274 205.865C287.316 205.795 287.339 205.718 287.339 205.638C287.339 205.559 287.316 205.48 287.274 205.412C287.196 205.315 287.08 205.25 286.952 205.233C286.824 205.215 286.693 205.245 286.588 205.316C285.949 205.736 285.427 206.294 285.066 206.943C284.706 207.593 284.518 208.314 284.518 209.046C284.52 209.107 284.534 209.166 284.561 209.22C284.588 209.275 284.626 209.324 284.674 209.363C284.721 209.404 284.777 209.435 284.837 209.454C284.898 209.473 284.962 209.481 285.026 209.476C285.091 209.474 285.154 209.46 285.213 209.435C285.272 209.411 285.325 209.374 285.368 209.33C285.412 209.286 285.446 209.234 285.468 209.177C285.49 209.12 285.499 209.059 285.496 208.999C285.502 208.419 285.656 207.849 285.949 207.339C286.241 206.828 286.661 206.392 287.173 206.067C287.226 206.01 287.262 205.94 287.274 205.865Z" fill="#263238"/>
<path id="Vector_97" d="M260.439 217.556C264.249 226.541 265.519 230.414 272.123 233.632C281.978 238.471 292.913 232.178 292.1 222.322C291.376 213.456 285.369 200.251 274.548 199.489C272.16 199.295 269.758 199.683 267.574 200.613C265.391 201.543 263.499 202.985 262.082 204.801C260.665 206.615 259.769 208.743 259.481 210.976C259.193 213.21 259.523 215.476 260.439 217.556Z" fill="#FFC3BD"/>
<path id="Vector_98" d="M283.438 215.482C285.293 214.981 288.518 211.514 282.893 204.53C285.903 204.018 288.354 198.833 280.099 195.865C271.844 192.898 262.839 194.34 257.378 201.443C257.378 201.443 239.967 206.27 254.153 223.085C268.339 239.901 286.347 233.048 283.438 215.482Z" fill="#263238"/>
<path id="Vector_99" d="M250.926 201.431C250.924 201.905 251.05 202.373 251.292 202.79C251.534 203.207 251.885 203.559 252.311 203.814C253.128 204.46 254.145 204.841 255.211 204.901C256.277 204.962 257.335 204.697 258.229 204.149C260.158 202.957 261.92 201.543 263.474 199.942C263.934 199.474 264.29 198.925 264.52 198.327C264.751 197.729 264.851 197.093 264.815 196.458C264.78 195.822 264.609 195.2 264.313 194.628C264.018 194.056 263.603 193.545 263.093 193.125C262.861 192.941 262.614 192.774 262.356 192.624C262.356 192.624 252.387 192.898 250.926 201.431Z" fill="#673DE6"/>
<path id="Vector_100" d="M252.337 200.311C258.038 199.453 261.074 195.175 261.404 193.9C260.134 190.753 243.624 170.755 229.552 185.378C214.693 200.871 243.776 216.447 233.362 235.098C251.46 229.39 266.218 217.639 252.337 200.311Z" fill="#263238"/>
<path id="Vector_101" d="M288.836 211.061L290.564 209.964C290.564 209.964 290.068 211.668 288.836 211.061Z" fill="#263238"/>
<path id="Vector_102" d="M279.324 217.341C280.292 219.13 281.977 220.484 284.01 221.107C286.703 221.905 288.151 219.665 287.477 217.234C286.881 215.041 284.76 211.978 282.016 212.241C281.418 212.306 280.847 212.512 280.354 212.838C279.862 213.163 279.464 213.599 279.197 214.106C278.929 214.612 278.801 215.174 278.823 215.738C278.846 216.303 279.018 216.854 279.324 217.341Z" fill="#FFC3BD"/>
</g>
<g id="Group 47">
<g id="Group 21">
<path id="Vector_103" d="M303.86 260.172C303.212 268.514 301.218 282.684 296.317 306.46L254.254 305.267C255.359 290.693 253.695 279.836 249.885 254.332C249.729 253.23 249.81 252.108 250.123 251.035C250.436 249.962 250.974 248.958 251.707 248.083C252.44 247.207 253.351 246.479 254.389 245.94C255.425 245.4 256.568 245.061 257.746 244.941C260.439 244.679 263.513 244.465 266.636 244.405C272.992 244.162 279.358 244.341 285.686 244.941C287.744 245.18 289.852 245.478 291.872 245.799C295.419 246.363 298.614 248.149 300.831 250.807C303.049 253.466 304.129 256.806 303.86 260.172Z" fill="#263238"/>
<path id="Vector_104" d="M347.383 415.087L357.314 414.204L350.621 391.252L340.69 392.133L347.383 415.087Z" fill="#FFC3BD"/>
<path id="Vector_105" d="M370.7 420.485C364.629 418.804 364.82 416.302 358.762 411.678C358.158 411.166 357.4 410.841 356.59 410.749L346.71 410.105C346.518 410.106 346.333 410.172 346.189 410.289C346.044 410.407 345.95 410.57 345.922 410.749L344.525 417.172C344.043 419.4 345.503 421.534 347.561 421.605C350.85 421.725 354.889 421.843 358.483 422.07C363.728 422.415 363.791 424.906 369.913 424.632C373.685 424.465 372.771 421.057 370.7 420.485Z" fill="#263238"/>
<path id="Vector_106" d="M384.34 385.555L391.071 380.073L379.806 364.021L371.386 371.504L384.34 385.555Z" fill="#FFC3BD"/>
<path id="Vector_107" d="M389.267 376.677L381.241 383.648C381.088 383.784 380.991 383.965 380.965 384.161C380.94 384.357 380.988 384.555 381.101 384.721L384.911 390.251C385.237 390.681 385.657 391.041 386.142 391.308C386.628 391.575 387.168 391.742 387.727 391.799C388.287 391.855 388.853 391.799 389.388 391.635C389.923 391.471 390.414 391.202 390.83 390.847C393.458 388.94 394.944 385.591 398.056 382.85C402.59 378.87 403.403 378.977 406.209 373.411C408.114 369.67 403.961 369.657 402.501 370.813C398.831 373.745 400.278 373.864 391.732 375.581C390.819 375.728 389.967 376.107 389.267 376.677Z" fill="#263238"/>
<path id="Vector_108" d="M281.648 305.78C281.648 305.78 349.745 296.318 356.794 312.704C369.062 341.198 386.816 373.304 386.816 373.304L378.815 380.193C378.815 380.193 348.335 354.558 337.769 325.921C325.158 329.758 285.014 342.081 270.307 342.081C254.609 342.081 248.196 329.519 253.873 308.712C254.12 307.806 254.683 307.004 255.473 306.433C256.262 305.863 257.233 305.558 258.229 305.566C268.109 305.566 281.648 305.78 281.648 305.78Z" fill="#673DE6"/>
<path id="Vector_109" opacity="0.5" d="M281.648 305.78C281.648 305.78 349.745 296.318 356.794 312.704C369.062 341.198 386.816 373.304 386.816 373.304L378.815 380.193C378.815 380.193 348.335 354.558 337.769 325.921C325.158 329.758 285.014 342.081 270.307 342.081C254.609 342.081 248.196 329.519 253.873 308.712C254.12 307.806 254.683 307.004 255.473 306.433C256.262 305.863 257.233 305.558 258.229 305.566C268.109 305.566 281.648 305.78 281.648 305.78Z" fill="white"/>
<path id="Vector_110" d="M288.175 314.098C288.175 314.098 344.055 312.514 344.538 331.092C345.313 361.827 355.358 405.779 355.358 405.779L344.348 406.744C344.348 406.744 327.66 371.719 323.278 341.651C303.365 342.843 285.014 342.033 270.307 342.033C253.797 342.033 252.527 325.05 268.516 305.244C278.32 305.292 288.175 314.098 288.175 314.098Z" fill="#673DE6"/>
<path id="Vector_111" opacity="0.5" d="M288.175 314.098C288.175 314.098 344.055 312.514 344.538 331.092C345.313 361.827 355.358 405.779 355.358 405.779L344.348 406.744C344.348 406.744 327.66 371.719 323.278 341.651C303.365 342.843 285.014 342.033 270.307 342.033C253.797 342.033 252.527 325.05 268.516 305.244C278.32 305.292 288.175 314.098 288.175 314.098Z" fill="white"/>
<path id="Vector_112" d="M253.708 302.955L252.514 306.46C252.362 306.734 252.692 307.019 253.187 307.031L296.469 308.223C296.85 308.223 297.168 308.068 297.206 307.854L297.688 304.278C297.688 304.04 297.408 303.813 296.989 303.802L254.394 302.61C254.256 302.6 254.119 302.628 253.997 302.689C253.876 302.75 253.775 302.842 253.708 302.955Z" fill="white"/>
<path id="Vector_113" d="M259.283 307.58H258.14C257.911 307.58 257.747 307.46 257.759 307.318L258.445 302.741C258.445 302.61 258.661 302.502 258.89 302.515H260.033C260.261 302.515 260.426 302.634 260.414 302.765L259.727 307.341C259.715 307.484 259.512 307.592 259.283 307.58Z" fill="#263238"/>
</g>
<g id="Group 46">
<path id="Vector_114" d="M293.255 308.533H292.113C291.884 308.533 291.719 308.414 291.731 308.282L292.418 303.707C292.418 303.576 292.634 303.468 292.862 303.468H294.005C294.233 303.468 294.398 303.587 294.386 303.73L293.7 308.294C293.688 308.438 293.485 308.533 293.255 308.533Z" fill="#263238"/>
<path id="Vector_115" d="M276.263 308.056H275.133C274.904 308.056 274.727 307.937 274.752 307.806L275.425 303.229C275.425 303.098 275.653 302.992 275.882 303.003H277.025C277.253 303.003 277.419 303.134 277.394 303.266L276.721 307.842C276.695 307.961 276.491 308.068 276.263 308.056Z" fill="#263238"/>
</g>
</g>
<g id="girl-hand">
<path id="Vector_116" d="M305.461 264.701C305.626 265.547 305.867 266.643 306.082 267.62C306.298 268.597 306.566 269.646 306.844 270.648C307.391 272.65 308.001 274.64 308.686 276.606C309.377 278.513 310.169 280.387 311.061 282.219C311.922 283.96 312.937 285.631 314.097 287.213L314.299 287.51L314.224 287.415C314.17 287.358 314.111 287.306 314.045 287.26C313.941 287.163 313.825 287.076 313.703 286.998C313.391 286.786 313.029 286.647 312.648 286.593C312.305 286.593 312.496 286.593 312.775 286.593C313.643 286.507 314.496 286.323 315.315 286.045C317.376 285.378 319.394 284.601 321.361 283.72C325.463 281.921 329.641 279.895 333.744 277.882L336.728 281.838C333.115 284.884 329.265 287.672 325.209 290.18C323.089 291.502 320.869 292.677 318.567 293.695C317.208 294.301 315.781 294.761 314.313 295.066C313.198 295.295 312.048 295.327 310.922 295.162C309.959 295.007 309.045 294.657 308.241 294.137C307.999 293.978 307.77 293.804 307.556 293.612L307.239 293.302L306.997 293.064L306.679 292.683C303.367 288.85 300.761 284.524 298.97 279.883C298.077 277.671 297.309 275.416 296.672 273.126C296.355 271.934 296.075 270.838 295.809 269.682C295.541 268.526 295.339 267.417 295.148 266.107L305.461 264.701Z" fill="#FFC3BD"/>
<path id="Vector_117" d="M344.602 277.607C344.49 277.604 344.381 277.574 344.285 277.52C344.189 277.465 344.11 277.389 344.056 277.298L334.01 259.243C333.973 259.175 333.95 259.102 333.943 259.026C333.936 258.951 333.946 258.875 333.971 258.803C333.995 258.731 334.036 258.664 334.088 258.606C334.14 258.549 334.204 258.502 334.276 258.468C334.42 258.4 334.587 258.387 334.741 258.431C334.895 258.475 335.024 258.574 335.102 258.706L345.16 276.761C345.198 276.828 345.221 276.902 345.227 276.977C345.234 277.053 345.225 277.128 345.2 277.2C345.175 277.273 345.135 277.339 345.083 277.397C345.03 277.454 344.966 277.501 344.894 277.535C344.805 277.583 344.704 277.608 344.602 277.607Z" fill="#263238"/>
<path id="Vector_118" d="M340.36 267.334L336.55 269.527C335.589 270.081 334.852 270.92 334.455 271.911L330.898 280.61L329.26 286.14C333.07 287.427 339.979 278.989 339.979 278.989L344.323 275.927C344.668 275.682 344.927 275.346 345.067 274.962C345.208 274.577 345.223 274.163 345.11 273.77L343.624 268.574C343.542 268.26 343.382 267.971 343.157 267.726C342.932 267.482 342.648 267.292 342.33 267.171C342.011 267.05 341.666 267.002 341.324 267.031C340.981 267.058 340.651 267.163 340.36 267.334Z" fill="#FFC3BD"/>
</g>
<g id="Group 45">
<g id="Group 2">
<path id="Vector_119" d="M340.932 430.233H339.09L331.407 356.286C330.759 350.148 326.504 345.561 321.513 345.561H306.273C301.27 345.561 297.027 350.184 296.38 356.286L288.76 430.233H286.893L294.64 355.953C295.39 348.695 300.418 343.213 306.336 343.213H321.576C327.495 343.213 332.524 348.695 333.286 355.953L340.932 430.233Z" fill="#263238"/>
<path id="Vector_120" d="M283.565 430.233H281.724L274.028 356.286C273.393 350.148 269.139 345.561 264.134 345.561H248.92C243.916 345.561 239.661 350.184 239.026 356.286L231.33 430.233H229.489L237.262 355.953C238.01 348.695 243.04 343.213 248.971 343.213H264.16C270.078 343.213 275.12 348.695 275.87 355.953L283.565 430.233Z" fill="#263238"/>
<path id="Vector_121" d="M335.8 338.076L307.34 336.98L299.898 295.924C296.088 274.771 276.568 257.634 256.337 257.634H238.518C218.287 257.634 205.004 274.771 208.839 295.924L213.919 324.264C215.824 334.751 225.501 343.261 235.509 343.261H347.98C348.216 343.23 348.436 343.132 348.609 342.978C348.782 342.825 348.9 342.625 348.947 342.405C348.992 342.186 348.965 341.959 348.866 341.755C348.768 341.552 348.605 341.382 348.399 341.27C344.495 339.364 340.197 338.275 335.8 338.076Z" fill="#673DE6"/>
</g>
<path id="Vector_122" d="M300.406 250.352C307.772 255.679 307.772 271.339 307.772 271.339L295.072 274.64C295.072 274.64 285.941 264.26 288.252 259.338C290.677 254.213 296.431 247.504 300.406 250.352Z" fill="#263238"/>
</g>
<g id="Group 38">
<path id="Vector_123" d="M342.493 342.355H333.476V340.174H342.493C365.163 340.174 383.616 320.831 383.616 297.056V289.691H385.927V297.056C385.927 322.036 366.446 342.355 342.493 342.355Z" fill="#263238"/>
<path id="Vector_124" d="M483.007 405.958L499.275 402.716L502.336 420.95L488.747 423.678L483.007 405.958Z" fill="#B55B52"/>
<path id="Vector_125" opacity="0.2" d="M493.242 334.215C496.57 320.534 501.523 306.531 502.819 292.849C485.216 274.83 487.438 311.572 493.242 334.215Z" fill="black"/>
<path id="Vector_126" opacity="0.2" d="M520.7 408.222L537.363 408.365L537.769 418.686L522.643 418.566L520.7 408.222Z" fill="black"/>
<path id="Vector_127" d="M480.746 168.849C496.148 167.48 511.664 167.711 527.012 169.54C529.113 169.832 531.129 170.523 532.934 171.571C534.741 172.619 536.3 174.002 537.517 175.635C538.733 177.269 539.581 179.119 540.009 181.07C540.436 183.022 540.435 185.036 540.004 186.987C532.816 220.976 538.188 258.921 533.54 266.524C533.54 266.524 482.219 267.359 452.259 265.428C444.068 228.484 460.185 205.948 468.275 177.131C469.71 172.257 475.348 169.433 480.746 168.849Z" fill="#673DE6"/>
</g>
<g id="Group 44">
<path id="Vector_128" d="M488.035 171.399C489.052 169.57 490.693 168.113 492.697 167.264C493.452 165.432 493.51 163.411 492.861 161.543L515.62 154.739C513.779 161.806 512.33 167.395 515.138 170.827C510.654 173.402 502.438 177.977 493.548 177.763C484.658 177.549 486.575 174.366 488.035 171.399Z" fill="#B55B52"/>
<g id="Group 27">
<path id="Vector_129" opacity="0.2" d="M493.04 162.211L510.147 161.27C504.799 166.633 496.697 168.646 492.988 166.466C493.397 165.076 493.414 163.609 493.04 162.211Z" fill="black"/>
<path id="Vector_130" d="M492.988 177.74L496.697 174.808L501.663 177.191C501.663 177.191 498.488 179.992 492.988 177.74Z" fill="#673DE6"/>
<path id="Vector_131" opacity="0.3" d="M492.988 177.74L496.697 174.808L501.663 177.191C501.663 177.191 498.488 179.992 492.988 177.74Z" fill="black"/>
<path id="Vector_132" d="M505.6 132.632C505.321 126.065 498.564 123.098 492.709 126.518C486.855 129.939 486.359 140.509 490.665 146.027C494.97 151.545 505.6 132.632 505.6 132.632Z" fill="#F5F5F5"/>
</g>
</g>
<g id="Group 43">
<path id="Vector_133" d="M520.103 143.918C517.386 153.118 515.302 159.315 508.228 162.282C494.144 168.158 487.908 161.925 487.362 152.2C486.918 143.453 491.439 129.879 502.742 127.901C514.045 125.923 522.821 134.706 520.103 143.918Z" fill="#B55B52"/>
<g id="Group 26">
<path id="Vector_134" d="M512.306 139.127C509.27 141.832 508.063 153.797 512.648 153.595C515.771 153.427 518.878 153.053 521.944 152.474C521.944 152.474 527.774 150.401 524.586 142.202C521.398 134.003 512.306 139.127 512.306 139.127Z" fill="#E0E0E0"/>
<path id="Vector_135" opacity="0.2" d="M504.19 142.798C505.479 142.485 506.847 142.661 508 143.286C506.708 143.355 505.415 143.189 504.19 142.798Z" fill="black"/>
<path id="Vector_136" opacity="0.2" d="M504.063 143.656C504.66 143.625 505.257 143.716 505.815 143.921C506.371 144.127 506.874 144.443 507.289 144.847C506.134 144.673 505.035 144.266 504.063 143.656Z" fill="black"/>
<path id="Vector_137" opacity="0.2" d="M495.554 133.097C498.771 133.083 501.98 133.386 505.13 134.003C499.783 133.645 495.554 133.097 495.554 133.097Z" fill="black"/>
<path id="Vector_138" opacity="0.2" d="M494.03 133.883C494.03 133.883 501.345 134.634 504.736 136.112C501.12 135.585 497.544 134.841 494.03 133.883Z" fill="black"/>
<path id="Vector_139" d="M522.123 154.691C521.197 155.624 520.085 156.377 518.849 156.907C517.614 157.437 516.279 157.732 514.922 157.778C511.276 157.861 510.312 154.596 512.038 151.819C513.6 149.305 517.372 146.23 520.674 147.481C521.388 147.763 522.017 148.206 522.504 148.771C522.991 149.336 523.321 150.007 523.464 150.721C523.608 151.435 523.56 152.171 523.326 152.864C523.092 153.557 522.679 154.185 522.123 154.691Z" fill="#B55B52"/>
<path id="Vector_140" d="M500.966 142.667C501.123 141.845 500.786 141.1 500.213 141.003C499.64 140.906 499.048 141.495 498.891 142.318C498.733 143.14 499.07 143.885 499.643 143.982C500.216 144.079 500.808 143.49 500.966 142.667Z" fill="#263238"/>
<path id="Vector_141" d="M491.897 141.332C491.744 142.142 491.147 142.726 490.627 142.619C490.105 142.511 489.724 141.773 489.89 140.951C490.055 140.128 490.639 139.544 491.16 139.651C491.68 139.759 492.062 140.509 491.897 141.332Z" fill="#263238"/>
</g>
</g>
<g id="Group 24">
<path id="Vector_142" d="M494.78 142.499L493.51 149.411C492.627 149.424 491.75 149.307 490.906 149.066C490.739 149.008 490.592 148.909 490.48 148.779C490.369 148.648 490.298 148.492 490.275 148.327C490.251 148.161 490.276 147.992 490.347 147.839C490.418 147.686 490.532 147.554 490.677 147.457C492.373 146.068 493.766 144.385 494.78 142.499Z" fill="#A02724"/>
</g>
<g id="Group 25">
<path id="Vector_143" d="M506.095 141.165C506.177 141.192 506.267 141.192 506.349 141.165C506.411 141.137 506.466 141.098 506.511 141.049C506.557 141.001 506.591 140.944 506.613 140.883C506.634 140.822 506.642 140.757 506.636 140.693C506.63 140.629 506.61 140.566 506.577 140.509C506.223 139.798 505.692 139.177 505.03 138.698C504.367 138.219 503.591 137.896 502.767 137.756C502.699 137.748 502.63 137.753 502.563 137.77C502.497 137.787 502.434 137.817 502.38 137.856C502.325 137.897 502.28 137.946 502.246 138.003C502.213 138.059 502.191 138.121 502.184 138.186C502.172 138.314 502.213 138.442 502.298 138.544C502.382 138.646 502.505 138.713 502.64 138.734C503.286 138.857 503.891 139.12 504.407 139.503C504.924 139.886 505.336 140.378 505.613 140.939C505.661 141.016 505.732 141.079 505.818 141.119C505.903 141.159 506 141.175 506.095 141.165Z" fill="#263238"/>
<path id="Vector_144" d="M488.861 138.483C488.946 138.496 489.033 138.49 489.114 138.465C489.196 138.44 489.27 138.397 489.331 138.341C489.764 137.88 490.308 137.523 490.917 137.299C491.527 137.075 492.185 136.991 492.836 137.054C492.971 137.075 493.108 137.045 493.22 136.971C493.332 136.898 493.408 136.786 493.433 136.661C493.455 136.532 493.425 136.402 493.346 136.295C493.268 136.188 493.149 136.114 493.014 136.088C492.193 135.997 491.361 136.093 490.588 136.367C489.814 136.641 489.122 137.084 488.569 137.661C488.519 137.706 488.479 137.759 488.452 137.819C488.425 137.879 488.411 137.942 488.411 138.007C488.411 138.071 488.425 138.135 488.452 138.195C488.479 138.255 488.519 138.308 488.569 138.352C488.646 138.428 488.75 138.475 488.861 138.483Z" fill="#263238"/>
<path id="Vector_145" d="M513.614 166.06C513.614 166.06 506.26 174.403 496.697 174.855C502.259 177.334 503.2 183.198 503.2 183.198C503.2 183.198 515.15 179.789 517.398 167.86C516.964 167.301 516.394 166.846 515.737 166.533C515.079 166.22 514.351 166.058 513.614 166.06Z" fill="white"/>
<path id="Vector_146" d="M492.988 177.74L488.797 174.164L483.463 175.654C483.463 175.654 487.49 179.992 492.988 177.74Z" fill="#673DE6"/>
<path id="Vector_147" opacity="0.3" d="M492.988 177.74L488.797 174.164L483.463 175.654C483.463 175.654 487.49 179.992 492.988 177.74Z" fill="black"/>
</g>
<g id="Group 42">
<g id="Group 3">
<path id="Vector_148" opacity="0.2" d="M483.007 405.958L499.288 402.716L501.003 412.929L486.22 415.885L483.007 405.958Z" fill="black"/>
<path id="Vector_149" d="M492.76 336.467C498.17 312.823 509.359 288.143 498.78 265.618L452.348 265.476C452.348 265.476 455.892 317.257 457.518 339.077C459.22 361.721 483.705 413.167 483.705 413.167L502.311 409.33C502.311 409.33 497.015 361.792 492.76 336.467Z" fill="#263238"/>
<path id="Vector_150" d="M506.044 426.015L501.765 426.909L500.495 425.717L498.932 427.469L491.046 430.675C488.156 431.853 485.039 432.462 481.889 432.462H475.412C475.315 430.838 475.674 429.219 476.453 427.767C476.453 427.767 482.701 426.742 485.928 421.868C486.144 421.609 486.426 421.404 486.747 421.271C487.068 421.138 487.419 421.081 487.769 421.105C490.754 421.033 498.602 420.616 502.513 418.209C502.606 418.158 502.71 418.128 502.817 418.121C502.924 418.115 503.032 418.131 503.131 418.171C503.23 418.21 503.317 418.271 503.386 418.348C503.456 418.425 503.505 418.516 503.529 418.614C504.156 421.14 504.997 423.615 506.044 426.015Z" fill="#263238"/>
<path id="Vector_151" d="M520.7 408.21L537.349 408.365L538.073 426.79L524.167 426.682L520.7 408.21Z" fill="#B55B52"/>
<path id="Vector_152" d="M538.81 336.467C540.157 312.823 541.985 277.441 533.539 266.572L481.685 265.476C481.685 265.476 496.1 317.257 501.485 339.077C507.073 361.721 520.789 415.349 520.789 415.349H538.785C538.785 415.349 545.579 363.46 538.81 336.467Z" fill="#263238"/>
<path id="Vector_153" d="M540.436 432.498H536.817L535.839 431.116L533.934 432.51H512.09C511.959 430.894 512.283 429.275 513.029 427.814C513.029 427.814 519.557 427.254 522.071 424.239C522.16 424.121 522.282 424.029 522.423 423.974C522.565 423.919 522.721 423.903 522.872 423.929C525.056 424.358 533.692 425.895 538.442 424.287C538.56 424.243 538.688 424.226 538.814 424.238C538.94 424.25 539.062 424.29 539.168 424.356C539.273 424.422 539.361 424.51 539.422 424.614C539.484 424.718 539.518 424.835 539.522 424.954C539.617 427.487 539.924 430.009 540.436 432.498Z" fill="#263238"/>
</g>
<g id="Group 41">
<path id="Vector_154" d="M493.192 180.85C494.221 179.348 494.754 177.751 493.598 177.036C492.772 176.536 490.296 175.845 489.788 177.405C489.28 178.967 489.343 180.302 490.042 180.981C490.252 181.178 490.502 181.332 490.779 181.433C491.056 181.534 491.351 181.58 491.648 181.568C491.945 181.555 492.235 181.485 492.5 181.362C492.766 181.238 493.001 181.064 493.192 180.85Z" fill="#263238"/>
<path id="Vector_155" d="M493.713 177.37C495.872 174.557 502.222 173.557 502.222 175.868C502.222 180.314 502.069 184.806 500.037 185.855C498.005 186.904 494.804 180.027 493.242 179.896L493.713 177.37Z" fill="#263238"/>
<path id="Vector_156" d="M490.22 177.191C488.95 174.224 484.924 173.175 484.263 175.38C482.993 179.61 482.816 183.114 484.263 184.33C485.712 185.545 488.887 179.73 490.169 179.778L490.22 177.191Z" fill="#263238"/>
</g>
</g>
<g id="sir-left-hand">
<path id="Vector_157" d="M473.088 195.294L472.313 195.937L471.729 196.402L470.598 197.248C469.862 197.773 469.126 198.261 468.376 198.738C466.914 199.677 465.396 200.536 463.83 201.312C460.719 202.876 457.452 204.15 454.076 205.113C452.386 205.602 450.647 205.996 448.907 206.305C447.167 206.615 445.389 206.854 443.611 207.02C440.047 207.334 436.459 207.291 432.905 206.889L431.558 206.734C430.316 206.594 429.125 206.186 428.079 205.543C425.161 203.73 422.553 201.511 420.344 198.964C418.427 196.762 416.727 194.4 415.264 191.909C413.893 189.567 412.696 187.137 411.683 184.64C411.188 183.448 410.756 182.161 410.337 180.909C409.918 179.658 409.626 178.43 409.283 176.977C408.991 175.765 409.126 174.498 409.667 173.363C410.208 172.23 411.126 171.291 412.283 170.688C413.44 170.085 414.775 169.851 416.087 170.02C417.398 170.189 418.616 170.753 419.557 171.626L420.192 172.222C420.929 172.913 421.793 173.83 422.593 174.605C423.392 175.38 424.231 176.25 425.031 177.06C426.669 178.669 428.27 180.23 429.907 181.636C431.413 183.04 433.021 184.342 434.721 185.533C436.002 186.445 437.407 187.189 438.899 187.75L434.086 186.427C436.181 186.293 438.262 186.006 440.309 185.569C442.358 185.113 444.37 184.52 446.329 183.794C448.306 183.035 450.231 182.163 452.094 181.183C453.035 180.695 453.936 180.158 454.813 179.646C455.257 179.384 455.676 179.11 456.083 178.86L456.654 178.49L456.883 178.335H456.972H456.895C459.299 176.322 462.456 175.287 465.672 175.458C468.889 175.629 471.901 176.992 474.047 179.247C476.192 181.502 477.295 184.465 477.113 187.483C476.931 190.502 475.478 193.328 473.075 195.342L473.088 195.294Z" fill="#B65B52"/>
<path id="Vector_158" d="M412.623 179.456L417.461 174.688C420.319 168.324 410.959 166.287 410.959 166.287L405.13 162.295C404.377 161.868 403.487 161.704 402.618 161.833C401.75 161.962 400.957 162.374 400.38 162.997L396.976 166.311C396.602 166.622 396.296 167.001 396.077 167.424C395.858 167.846 395.731 168.306 395.701 168.775C395.672 169.245 395.741 169.715 395.906 170.159C396.07 170.603 396.326 171.012 396.659 171.364L401.523 175.523C402.425 176.357 403.533 176.967 404.749 177.298L412.623 179.456Z" fill="#B55B52"/>
<path id="Vector_159" d="M419.265 173.223C420.866 167.776 416.814 164.404 414.566 160.876C414.173 160.28 412.23 160.602 412.128 161.865C411.999 162.635 412.037 163.422 412.241 164.177C412.443 164.933 412.807 165.642 413.309 166.263C412.127 167.645 410.375 172.484 414.49 175.63C416.342 175.404 418.042 174.548 419.265 173.223Z" fill="#B55B52"/>
</g>
<g id="Group 40">
<path id="Vector_160" d="M478.51 169.242C467.259 168.623 450.774 180.767 450.774 180.767C449.211 184.806 453.06 199.834 459.943 206.389C459.943 206.389 467.842 208.152 474.752 200.335C482.27 191.814 490.436 169.886 478.51 169.242Z" fill="#673DE6"/>
<path id="Vector_161" d="M529.235 169.755C528.672 169.427 528.045 169.207 527.39 169.112C526.736 169.015 526.067 169.044 525.425 169.195C521.462 173.473 504.253 204.613 511.328 262.329H515.354C508.241 204.601 525.272 174.033 529.235 169.755Z" fill="white"/>
</g>
<g id="Group 39">
<path id="Vector_162" d="M492.76 167.264C492.76 167.264 489.039 171.304 488.861 174.224C484.39 175.415 482.231 181.565 482.231 181.565C482.231 181.565 481.419 172.758 488.442 168.015C489.769 167.365 491.273 167.104 492.76 167.264Z" fill="white"/>
<path id="Vector_163" d="M515.734 267.049L515.378 262.794C515.35 262.569 515.229 262.364 515.042 262.222C514.854 262.08 514.616 262.011 514.376 262.031L512.433 262.127C512.195 262.136 511.972 262.232 511.81 262.395C511.648 262.558 511.562 262.774 511.569 262.997L511.925 267.263C511.956 267.486 512.078 267.69 512.265 267.832C512.451 267.973 512.688 268.043 512.927 268.026L514.87 267.918C514.988 267.916 515.104 267.89 515.212 267.845C515.319 267.799 515.416 267.734 515.496 267.653C515.577 267.572 515.639 267.477 515.68 267.373C515.721 267.269 515.739 267.159 515.734 267.049Z" fill="white"/>
<path id="Vector_164" d="M515.823 264.319H511.48C511.248 264.313 511.024 264.233 510.847 264.092C510.669 263.952 510.548 263.759 510.502 263.544L510.223 261.9C510.201 261.804 510.203 261.705 510.229 261.611C510.255 261.516 510.303 261.428 510.37 261.353C510.438 261.278 510.522 261.219 510.618 261.179C510.713 261.14 510.817 261.122 510.921 261.126H515.265C515.495 261.133 515.716 261.213 515.892 261.354C516.068 261.495 516.186 261.688 516.229 261.9L516.521 263.544C516.543 263.64 516.541 263.739 516.515 263.834C516.49 263.929 516.441 264.018 516.374 264.092C516.306 264.167 516.222 264.226 516.127 264.265C516.031 264.305 515.927 264.323 515.823 264.319Z" fill="#263238"/>
<path id="Vector_165" d="M481.8 168.849C481.05 168.289 478.689 168.611 477.507 169.242C473.355 173.52 454.647 204.661 459.016 262.377H463.042C458.686 204.601 477.647 173.08 481.8 168.849Z" fill="white"/>
</g>
<path id="Vector_166" d="M463.233 267.049L463.08 262.794C463.073 262.684 463.041 262.576 462.987 262.478C462.934 262.379 462.86 262.291 462.77 262.22C462.68 262.149 462.576 262.095 462.463 262.063C462.351 262.031 462.232 262.02 462.115 262.032L460.159 262.127C459.92 262.138 459.694 262.235 459.527 262.396C459.36 262.557 459.263 262.772 459.258 262.996L459.41 267.263C459.433 267.483 459.546 267.687 459.727 267.829C459.907 267.972 460.14 268.043 460.375 268.026L462.331 267.918C462.571 267.909 462.798 267.814 462.966 267.652C463.134 267.49 463.229 267.274 463.233 267.049Z" fill="white"/>
<g id="Group 36">
<g id="Group 35">
<path id="Vector_167" d="M463.449 264.319H459.105C458.877 264.314 458.657 264.233 458.486 264.092C458.314 263.95 458.201 263.757 458.165 263.545L457.962 261.9C457.947 261.802 457.955 261.703 457.986 261.608C458.016 261.513 458.068 261.426 458.138 261.353C458.208 261.278 458.295 261.22 458.392 261.181C458.489 261.142 458.594 261.123 458.698 261.126H463.042C463.27 261.131 463.49 261.212 463.661 261.353C463.833 261.495 463.946 261.688 463.982 261.9L464.185 263.545C464.2 263.643 464.192 263.742 464.161 263.837C464.131 263.931 464.079 264.019 464.009 264.092C463.938 264.167 463.852 264.225 463.755 264.264C463.658 264.303 463.554 264.322 463.449 264.319Z" fill="#263238"/>
<path id="Vector_168" d="M503.962 120.357C499.034 116.674 490.867 126.518 501.65 131.988C515.163 138.853 513.537 149.936 531.013 146.694C523.532 141.773 528.282 138.019 525.119 130.916C521.589 122.943 511.95 126.316 503.962 120.357Z" fill="#F5F5F5"/>
</g>
<g id="Group 34">
<path id="Vector_169" d="M496.443 126.256C498.043 131.762 499.987 133.049 501.79 134.491C500.528 132.597 499.621 130.512 499.11 128.33L496.443 126.256Z" fill="#F5F5F5"/>
<path id="Vector_170" d="M489.23 151.95C489.23 151.95 493.04 151.676 503.339 153.142C501.676 155.883 499.047 157.909 493.764 157.158C493.09 157.123 492.432 156.957 491.831 156.671C491.23 156.384 490.699 155.983 490.272 155.492C489.845 155.003 489.532 154.435 489.353 153.824C489.173 153.214 489.131 152.576 489.23 151.95Z" fill="#263238"/>
<path id="Vector_171" d="M496.57 155.179C494.557 154.788 492.464 155 490.588 155.788C491.472 156.526 492.576 156.991 493.75 157.122C495.759 157.519 497.849 157.307 499.719 156.515C498.848 155.767 497.744 155.299 496.57 155.179Z" fill="#A02724"/>
<path id="Vector_172" d="M489.712 151.938C489.758 152.309 489.911 152.66 490.155 152.954C490.4 153.248 490.725 153.474 491.096 153.606C494.157 154.027 497.249 154.211 500.342 154.155C500.83 154.179 501.316 154.091 501.759 153.898C502.202 153.704 502.588 153.412 502.882 153.047C498.529 152.36 494.126 151.989 489.712 151.938Z" fill="white"/>
<path id="Vector_173" d="M489.013 159.041C489.115 161.627 491.883 163.808 491.16 165.428C494.583 165.672 498.006 164.95 500.989 163.355C501.211 163.201 501.381 162.988 501.476 162.745C501.572 162.501 501.59 162.237 501.528 161.984C501.466 161.731 501.326 161.5 501.127 161.321C500.928 161.141 500.677 161.02 500.406 160.971C498.229 160.769 496.14 160.056 494.335 158.898C494.106 158.716 493.816 158.617 493.516 158.617C493.216 158.617 492.926 158.716 492.697 158.898C490.512 160.506 489.013 159.041 489.013 159.041Z" fill="#F5F5F5"/>
</g>
</g>
<g id="sir-right-hand">
<path id="Vector_174" d="M543.713 182.888L544.856 184.235L545.872 185.426C546.519 186.237 547.142 187.071 547.751 187.893C549.021 189.537 550.138 191.242 551.256 192.958C553.519 196.459 555.514 200.107 557.225 203.874C559.076 207.854 560.48 212.004 561.416 216.257C562.527 221.037 562.711 225.966 561.963 230.807L561.81 231.785C561.675 232.586 561.387 233.356 560.959 234.061C559.442 236.551 557.744 238.94 555.879 241.212C554.095 243.384 552.183 245.461 550.151 247.432C548.132 249.363 546.062 251.199 543.878 252.926C541.673 254.679 539.353 256.299 536.93 257.777C535.798 258.477 534.45 258.806 533.097 258.714C531.744 258.622 530.462 258.113 529.448 257.267C528.435 256.421 527.747 255.284 527.493 254.034C527.239 252.783 527.431 251.489 528.04 250.352L528.32 249.888C529.412 247.837 530.733 245.657 531.914 243.559C533.095 241.461 534.315 239.365 535.432 237.279C536.549 235.193 537.603 233.132 538.633 231.129C539.661 229.127 540.449 227.101 541.236 225.17L540.232 228.412C540.171 226.019 539.742 223.648 538.962 221.369C538.516 220.01 537.995 218.673 537.401 217.365C536.816 216.006 536.131 214.624 535.406 213.241C533.92 210.488 532.257 207.7 530.428 204.971C529.539 203.588 528.561 202.242 527.622 200.895L526.173 198.905L524.84 197.129L524.395 196.533C522.519 194.117 521.731 191.104 522.202 188.147C522.673 185.191 524.366 182.526 526.913 180.73C529.461 178.935 532.659 178.152 535.817 178.551C538.975 178.95 541.838 180.5 543.788 182.864L543.713 182.888Z" fill="#B65B52"/>
<path id="Vector_175" d="M536.27 266.524L471.805 224.372L472.516 223.407L537.604 264.701L536.27 266.524Z" fill="#263238"/>
<path id="Vector_176" d="M530.707 249.196L536.956 252.163C541.935 257.264 533.832 262.126 533.832 262.126L530.949 265.94C530.395 266.583 529.616 267.02 528.75 267.173C527.885 267.326 526.99 267.184 526.225 266.774L521.831 264.724C521.365 264.548 520.942 264.286 520.584 263.956C520.227 263.625 519.943 263.231 519.748 262.797C519.553 262.363 519.452 261.897 519.449 261.426C519.447 260.955 519.545 260.488 519.735 260.053L521.64 256.394C522.189 255.323 523.014 254.397 524.04 253.701L530.707 249.196Z" fill="#B55B52"/>
</g>
<path id="Vector_177" d="M531 170.637C541.617 174.212 551.625 191.063 551.625 191.063C551.18 197.201 540.766 211.096 533.4 214.136C528.259 210.002 524.45 204.603 522.402 198.547C519.023 187.917 525.539 172.162 531 170.637Z" fill="#673DE6"/>
</g>
<defs>
<clipPath id="clip0">
<rect width="635" height="446" fill="white"/>
</clipPath>
</defs>
</svg>
<svg width="348" height="338" viewBox="0 0 348 338" fill="none" xmlns="http://www.w3.org/2000/svg">
<path d="M337.661 337.799H10.0269C7.46032 337.796 5.00024 337.077 3.18699 335.802C1.37364 334.525 0.355194 332.796 0.355194 330.994V7.51981C0.37754 5.72742 1.40581 4.01366 3.21675 2.7507C5.02769 1.48775 7.47488 0.777609 10.0269 0.774536H337.661C340.231 0.774536 342.695 1.49147 344.512 2.76763C346.329 4.04379 347.35 5.77459 347.35 7.57939V330.994C347.35 332.798 346.329 334.53 344.512 335.806C342.695 337.082 340.231 337.799 337.661 337.799ZM10.0269 1.01289C7.57279 1.01604 5.22064 1.70298 3.48694 2.92292C1.75315 4.14286 0.77939 5.79609 0.77939 7.51981V330.994C0.77939 332.718 1.75315 334.371 3.48694 335.591C5.22064 336.811 7.57279 337.498 10.0269 337.501H337.661C340.118 337.498 342.471 336.811 344.207 335.591C345.944 334.372 346.921 332.718 346.926 330.994V7.51981C346.921 5.79505 345.944 4.14179 344.207 2.9222C342.471 1.7026 340.118 1.01604 337.661 1.01289H10.0269Z" fill="#EBEBEB"/>
</svg>
