<svg width="410" height="288" viewBox="0 0 410 288" fill="none" xmlns="http://www.w3.org/2000/svg">
<g id="home-hero 1" clip-path="url(#clip0)">
<g id="Group 29">
<g id="Group 12">
<path id="Vector" d="M410 253.247H0V253.439H410V253.247Z" fill="#EBEBEB"/>
<path id="Vector_2" d="M365.113 262.058H323.375V262.251H365.113V262.058Z" fill="#EBEBEB"/>
<path id="Vector_3" d="M81.7294 259.781H43.0172V259.973H81.7294V259.781Z" fill="#EBEBEB"/>
<path id="Vector_4" d="M326.36 258.487H310.624V258.68H326.36V258.487Z" fill="#EBEBEB"/>
<path id="Vector_5" d="M271.601 263.59H260.055V263.782H271.601V263.59Z" fill="#EBEBEB"/>
<path id="Vector_6" d="M252.749 263.59H223.688V263.782H252.749V263.59Z" fill="#EBEBEB"/>
</g>
<path id="Vector_7" d="M206.812 260.342H160.081V260.535H206.812V260.342Z" fill="#EBEBEB"/>
</g>
<path id="Vector_8" d="M250.947 219.421H39.4032C37.746 219.42 36.1576 218.956 34.9869 218.132C33.8161 217.308 33.1585 216.191 33.1585 215.028V6.14732C33.1729 4.9899 33.8368 3.88326 35.0061 3.06772C36.1754 2.25218 37.7554 1.79361 39.4032 1.79163H250.947C252.606 1.79163 254.197 2.25458 255.37 3.07865C256.543 3.90271 257.202 5.02036 257.202 6.18579V215.028C257.202 216.193 256.543 217.311 255.37 218.135C254.197 218.959 252.606 219.421 250.947 219.421ZM39.4032 1.94554C37.8187 1.94758 36.2999 2.39116 35.1805 3.17892C34.0611 3.96668 33.4324 5.03424 33.4324 6.14732V215.028C33.4324 216.141 34.0611 217.208 35.1805 217.996C36.2999 218.784 37.8187 219.227 39.4032 219.229H250.947C252.533 219.227 254.052 218.784 255.173 217.996C256.295 217.209 256.926 216.141 256.929 215.028V6.14732C256.926 5.03357 256.295 3.966 255.173 3.17846C254.052 2.39091 252.533 1.94757 250.947 1.94554H39.4032Z" fill="#EBEBEB"/>
<path id="Vector_9" d="M426.619 219.023H215.064C213.406 219.022 211.816 218.557 210.644 217.734C209.471 216.91 208.812 215.793 208.809 214.628V5.70044C208.826 4.54208 209.492 3.43517 210.663 2.61965C211.834 1.80414 213.416 1.34571 215.064 1.34375H426.619C428.264 1.34776 429.842 1.80732 431.009 2.62283C432.175 3.43835 432.838 4.5441 432.852 5.70044V214.628C432.852 215.791 432.196 216.907 431.028 217.731C429.86 218.554 428.274 219.019 426.619 219.023ZM215.064 1.4977C213.479 1.49973 211.959 1.94317 210.838 2.7309C209.717 3.51862 209.085 4.58644 209.082 5.70044V214.628C209.085 215.742 209.717 216.81 210.838 217.598C211.959 218.385 213.479 218.829 215.064 218.831H426.619C428.204 218.829 429.724 218.385 430.845 217.598C431.966 216.81 432.597 215.742 432.6 214.628V5.70044C432.597 4.58644 431.966 3.51862 430.845 2.7309C429.724 1.94317 428.204 1.49973 426.619 1.4977H215.064Z" fill="#EBEBEB"/>
<g id="Group 28">
<path id="Vector_10" d="M184.082 26.7056H47.9781V189.251H184.082V26.7056Z" fill="#E6E6E6"/>
<path id="Vector_11" d="M182.385 26.7056H46.2807V189.251H182.385V26.7056Z" fill="#FAFAFA"/>
<path id="Vector_12" d="M114.333 171.32C123.924 171.32 131.7 164.023 131.7 155.021C131.7 146.019 123.924 138.722 114.333 138.722C104.741 138.722 96.9648 146.019 96.9648 155.021C96.9648 164.023 104.741 171.32 114.333 171.32Z" fill="#FAFAFA"/>
</g>
<g id="Group 13">
<path id="Vector_13" d="M178.579 185.68V30.2841H50.0939V185.68H178.579Z" fill="white"/>
<g id="star">
<path id="Vector_14" d="M132.741 107.978C132.741 110.949 129.953 113.242 128.477 115.674C127.001 118.106 126.181 121.545 123.557 122.977C120.933 124.408 117.514 123.331 114.349 123.331C111.184 123.331 107.699 124.362 105.141 122.977C102.582 121.592 101.737 118.144 100.221 115.674C98.7034 113.204 95.9481 110.98 95.9481 107.978C95.9481 104.977 98.7361 102.714 100.221 100.321C101.705 97.9277 102.517 94.4497 105.141 93.0183C107.765 91.5868 111.175 92.6564 114.341 92.6564C117.506 92.6564 120.999 91.6329 123.549 93.0183C126.099 94.4032 126.961 97.843 128.469 100.321C129.978 102.799 132.741 105.016 132.741 107.978Z" fill="#EBEBEB"/>
<path id="Vector_15" d="M134.333 60.9356L128.355 65.2144L130.511 71.971L123 72.1326L120.515 78.797L114.333 74.7721L108.158 78.797L105.673 72.1326L98.154 71.971L100.311 65.2144L94.3412 60.9356L100.311 56.6644L98.154 49.9078L105.673 49.7461L108.158 43.0895L114.333 47.1067L120.515 43.0895L123 49.7461L130.511 49.9078L128.355 56.6644L134.333 60.9356Z" fill="#E0E0E0"/>
</g>
</g>
<g id="Group 33">
<path id="Vector_16" d="M220.211 253.247H353.789V250.4H220.211V253.247Z" fill="#F0F0F0"/>
<path id="Vector_17" d="M333.109 230.145H224.688V244.874H333.109V230.145Z" fill="#F0F0F0"/>
<path id="Vector_18" d="M247.025 211.876H310.788C311.359 211.876 311.821 211.442 311.821 210.906V210.829C311.821 210.294 311.359 209.859 310.788 209.859H247.025C246.454 209.859 245.992 210.294 245.992 210.829V210.906C245.992 211.442 246.454 211.876 247.025 211.876Z" fill="#F5F5F5"/>
<path id="Vector_19" d="M247.025 231.153H310.788C311.359 231.153 311.821 230.719 311.821 230.183V230.107C311.821 229.571 311.359 229.137 310.788 229.137H247.025C246.454 229.137 245.992 229.571 245.992 230.107V230.183C245.992 230.719 246.454 231.153 247.025 231.153Z" fill="#F5F5F5"/>
</g>
<g id="Group 37">
<g id="Group 14">
<path id="Vector_20" d="M341.866 250.4H358.061V188.497H341.866V250.4Z" fill="#F0F0F0"/>
<path id="Vector_21" d="M341.866 188.497H215.939V250.4H341.866V188.497Z" fill="#F5F5F5"/>
<path id="Vector_22" d="M333.109 210.868H224.688V225.597H333.109V210.868Z" fill="#F0F0F0"/>
<path id="Vector_23" d="M333.109 191.59H224.688V206.32H333.109V191.59Z" fill="#F0F0F0"/>
</g>
<path id="Vector_24" d="M247.025 192.606H310.788C311.359 192.606 311.821 192.172 311.821 191.637V191.56C311.821 191.024 311.359 190.59 310.788 190.59H247.025C246.454 190.59 245.992 191.024 245.992 191.56V191.637C245.992 192.172 246.454 192.606 247.025 192.606Z" fill="#F5F5F5"/>
</g>
<g id="bell">
<path id="Vector_25" d="M341.147 28.9709C346.818 23.6485 346.818 15.0192 341.147 9.69689C335.476 4.37449 326.281 4.37448 320.61 9.69684C314.938 15.0192 314.938 23.6485 320.61 28.9709C326.281 34.2933 335.476 34.2933 341.147 28.9709Z" fill="#F5F5F5"/>
<path id="Vector_26" d="M336.055 26.4387C340.234 22.5168 340.234 16.1581 336.055 12.2362C331.876 8.31432 325.1 8.31432 320.922 12.2362C316.743 16.1581 316.743 22.5168 320.922 26.4387C325.1 30.3606 331.876 30.3607 336.055 26.4387Z" fill="#EBEBEB"/>
<path id="Vector_27" d="M328.238 19.3332C328.238 19.6939 328.124 20.0466 327.91 20.3465C327.697 20.6464 327.393 20.8802 327.038 21.0182C326.683 21.1563 326.292 21.1924 325.915 21.122C325.538 21.0517 325.192 20.878 324.92 20.6229C324.648 20.3678 324.463 20.0428 324.388 19.6891C324.314 19.3353 324.352 18.9685 324.499 18.6353C324.646 18.302 324.895 18.0171 325.215 17.8167C325.534 17.6164 325.91 17.5094 326.295 17.5094C326.81 17.5094 327.304 17.7015 327.668 18.0436C328.033 18.3856 328.238 18.8495 328.238 19.3332Z" fill="white"/>
<path id="Vector_28" d="M335.142 36.1865C333.621 36.1907 332.103 36.041 330.616 35.7401C330.344 35.6657 330.113 35.4955 329.971 35.2651C329.83 35.0347 329.789 34.7619 329.856 34.5036C329.924 34.2454 330.095 34.0217 330.335 33.8792C330.574 33.7368 330.863 33.6866 331.141 33.7393C331.215 33.7393 338.734 35.4092 343.851 31.6307C347.131 29.222 348.771 25.0818 348.771 19.3178C348.771 19.0443 348.886 18.782 349.092 18.5886C349.299 18.3953 349.578 18.2866 349.869 18.2866C350.161 18.2866 350.44 18.3953 350.646 18.5886C350.852 18.782 350.968 19.0443 350.968 19.3178C350.968 25.7359 349.025 30.4225 345.187 33.2391C342.283 35.2453 338.747 36.2827 335.142 36.1865Z" fill="#EBEBEB"/>
<path id="Vector_29" d="M348.935 20.9802C348.395 20.9802 347.878 20.7791 347.497 20.4211C347.115 20.0633 346.901 19.5778 346.901 19.0717V15.4624C346.901 14.9522 347.117 14.4629 347.501 14.1021C347.886 13.7412 348.407 13.5386 348.951 13.5386C349.495 13.5386 350.016 13.7412 350.4 14.1021C350.785 14.4629 351.001 14.9522 351.001 15.4624V19.0717C351 19.3246 350.946 19.5748 350.841 19.808C350.736 20.0411 350.584 20.2524 350.391 20.4298C350.199 20.6073 349.972 20.7473 349.721 20.8417C349.471 20.9361 349.204 20.9832 348.935 20.9802Z" fill="#EBEBEB"/>
</g>
<path id="Vector_30" d="M205 288C292.808 288 363.99 284.1 363.99 279.289C363.99 274.477 292.808 270.578 205 270.578C117.192 270.578 46.0101 274.477 46.0101 279.289C46.0101 284.1 117.192 288 205 288Z" fill="#F5F5F5"/>
<g id="Group 22">
<g id="blackboard">
<path id="Vector_31" d="M366.04 45.4829H207.96V153.551H366.04V45.4829Z" fill="#263238"/>
<path id="Vector_32" d="M295.381 57.3648C295.353 57.3653 295.325 57.359 295.301 57.3469C295.277 57.3348 295.256 57.3169 295.241 57.2954C295.21 57.264 295.192 57.2228 295.192 57.1798C295.192 57.1373 295.21 57.0961 295.241 57.0647C295.946 56.5922 296.685 56.168 297.455 55.7949C297.806 55.5983 298.203 55.4845 298.611 55.4639C299.006 55.4841 299.39 55.5893 299.735 55.7716C299.868 55.8321 300.005 55.8859 300.145 55.9333C301.309 56.349 302.605 56.0332 303.957 55.6946C305.139 55.3094 306.397 55.1782 307.639 55.3099C307.917 55.3744 308.19 55.4514 308.459 55.541L308.968 55.687C310.696 56.0005 312.476 55.9719 314.191 55.6023L315.29 55.4563C317.165 55.1097 319.105 55.2427 320.907 55.8411C321.137 55.9333 321.366 56.0413 321.587 56.1488C322.109 56.4372 322.686 56.6258 323.285 56.7028C323.972 56.7109 324.653 56.585 325.286 56.3333L325.942 56.1335C327.926 55.5871 330.115 55.7873 332.231 55.9719H332.617C338.381 56.4717 344.18 56.5107 349.951 56.0874C349.974 56.0852 349.997 56.0874 350.019 56.0932C350.041 56.0995 350.061 56.1098 350.078 56.1232C350.096 56.1371 350.11 56.1537 350.121 56.1725C350.131 56.1913 350.138 56.2124 350.14 56.2334C350.144 56.2773 350.131 56.3208 350.102 56.3553C350.073 56.3897 350.031 56.4121 349.984 56.418C344.191 56.8417 338.37 56.8027 332.584 56.3029H332.199C330.115 56.1179 327.959 55.9257 326.04 56.4565C325.827 56.5107 325.614 56.5797 325.401 56.6491C324.72 56.9129 323.989 57.0437 323.252 57.0338C322.61 56.951 321.991 56.7494 321.432 56.4413C321.211 56.3333 320.997 56.2334 320.767 56.1412C319.022 55.5692 317.145 55.4447 315.331 55.7793L314.249 55.9333C312.48 56.3073 310.649 56.3338 308.869 56.0104L308.353 55.8563C308.085 55.7667 307.811 55.6946 307.533 55.6409C306.342 55.5159 305.137 55.6449 304.007 56.018C302.654 56.349 301.251 56.6952 299.973 56.2487L299.546 56.0717C299.24 55.9208 298.906 55.8267 298.562 55.7949C298.211 55.8169 297.871 55.9168 297.57 56.0874C296.816 56.452 296.093 56.8685 295.405 57.3339C295.398 57.3447 295.39 57.355 295.381 57.3648Z" fill="white"/>
<path id="Vector_33" d="M326.45 61.7743C325.723 61.7304 325.008 61.5746 324.335 61.3125C323.645 61.0389 322.909 60.8799 322.161 60.8431C321.644 60.8709 321.132 60.956 320.637 61.0971C320.308 61.1885 319.973 61.2628 319.636 61.3201C318.74 61.4241 317.834 61.4241 316.938 61.3201H316.823C312.822 60.9582 308.722 60.8198 304.753 60.6814C303.383 60.6353 301.85 60.8431 301.661 61.5584C301.655 61.5916 301.636 61.6211 301.61 61.6435C301.583 61.6655 301.549 61.6789 301.514 61.6816C301.479 61.6861 301.442 61.6803 301.41 61.6655C301.378 61.6502 301.351 61.6265 301.333 61.5969C300.923 60.8969 299.653 60.5968 298.611 60.6658C297.513 60.7845 296.443 61.0733 295.446 61.5204C295.425 61.5289 295.402 61.5333 295.378 61.5333C295.355 61.5333 295.332 61.5289 295.31 61.5204C295.289 61.5118 295.269 61.4989 295.253 61.4832C295.237 61.4671 295.225 61.4482 295.217 61.4276C295.2 61.3869 295.201 61.3416 295.219 61.3013C295.238 61.2615 295.272 61.2292 295.315 61.2122C296.349 60.7526 297.457 60.4561 298.595 60.3352C299.11 60.2797 299.631 60.3263 300.126 60.4723C300.62 60.6178 301.076 60.8597 301.465 61.1817C302.039 60.3581 303.925 60.3195 304.745 60.3504C308.722 60.4888 312.83 60.6277 316.848 60.9891H316.955C317.82 61.0931 318.696 61.0931 319.562 60.9891C319.888 60.9363 320.211 60.8669 320.53 60.7813C321.062 60.6268 321.613 60.5359 322.17 60.5121C322.955 60.5551 323.728 60.7191 324.457 60.9968C325.272 61.3654 326.187 61.4966 327.081 61.3739C327.366 61.2977 327.642 61.192 327.901 61.0586L328.328 60.866C329.733 60.4418 331.222 60.3258 332.682 60.5274C333.541 60.6004 334.404 60.6156 335.265 60.5735C335.288 60.5717 335.311 60.5735 335.332 60.5798C335.354 60.586 335.375 60.5963 335.392 60.6098C335.41 60.6232 335.424 60.6402 335.435 60.659C335.445 60.6778 335.452 60.6985 335.454 60.72C335.458 60.7634 335.445 60.8073 335.416 60.8418C335.387 60.8763 335.345 60.8987 335.298 60.9045C334.418 60.947 333.536 60.9314 332.657 60.8584C331.254 60.6604 329.82 60.7683 328.467 61.1737C328.328 61.2279 328.197 61.2969 328.065 61.3587C327.788 61.4966 327.497 61.6072 327.197 61.6897C326.953 61.7506 326.702 61.7792 326.45 61.7743Z" fill="white"/>
<path id="Vector_34" d="M295.381 66.8531C295.34 66.8513 295.302 66.8365 295.271 66.8119C295.24 66.7868 295.22 66.7532 295.212 66.7156C295.204 66.6784 295.211 66.6399 295.229 66.6063C295.248 66.5727 295.278 66.5458 295.315 66.5301C296.68 66.007 298.083 65.5752 299.513 65.237C300.275 65.0301 301.066 64.9392 301.859 64.9679C302.337 65.0194 302.809 65.1121 303.269 65.2447C303.713 65.3696 304.169 65.457 304.63 65.5062C305.178 65.525 305.728 65.4941 306.27 65.414C307.085 65.2568 307.927 65.2805 308.73 65.4834C308.96 65.5645 309.183 65.6652 309.394 65.7835C309.597 65.9008 309.811 65.9989 310.034 66.076C311.1 66.4222 312.166 65.968 313.314 65.4834C314.289 64.9656 315.392 64.7 316.512 64.7139C317.255 64.8339 317.964 65.096 318.595 65.4834C319.261 65.9031 320.039 66.1378 320.841 66.1606C321.216 66.1257 321.584 66.0509 321.94 65.9376H322.047C325.028 65.1067 328.149 64.812 331.247 65.0677H331.411C331.842 65.1098 332.276 65.1098 332.707 65.0677C332.97 65.0315 333.23 64.9799 333.486 64.9137L334.06 64.7829C335.254 64.6472 336.465 64.7282 337.627 65.0216L338.299 65.1448C341.358 65.6581 344.498 65.5636 347.516 64.8675C347.558 64.8662 347.599 64.8783 347.632 64.902C347.666 64.9258 347.689 64.9593 347.699 64.9974C347.708 65.0359 347.704 65.0758 347.685 65.1112C347.667 65.1466 347.636 65.1748 347.598 65.1909C344.534 65.8946 341.347 65.9891 338.242 65.4677L337.553 65.345C336.437 65.0624 335.273 64.984 334.125 65.1139C333.937 65.1139 333.757 65.1909 333.576 65.2294C333.307 65.3015 333.033 65.3584 332.756 65.3987C332.301 65.4408 331.842 65.4408 331.387 65.3987H331.223C328.169 65.1493 325.093 65.439 322.153 66.2529H322.047C321.668 66.377 321.274 66.4571 320.874 66.4916C319.999 66.475 319.146 66.2269 318.414 65.7759C317.819 65.4238 317.156 65.186 316.463 65.0753C315.405 65.078 314.366 65.3436 313.453 65.8448C312.313 66.3375 311.141 66.8378 309.935 66.4531C309.693 66.368 309.46 66.2623 309.239 66.1373C309.042 66.0271 308.836 65.9322 308.623 65.8529C307.877 65.6746 307.098 65.6585 306.344 65.8063C305.78 65.8874 305.208 65.9183 304.638 65.899C304.155 65.8484 303.677 65.7553 303.211 65.6218C302.772 65.4977 302.322 65.4104 301.867 65.3602C301.11 65.3347 300.354 65.4229 299.628 65.6218C298.215 65.9559 296.828 66.3828 295.479 66.8992L295.381 66.8531Z" fill="white"/>
<path id="Vector_35" d="M295.381 71.024C295.34 71.0235 295.302 71.0101 295.27 70.9863C295.239 70.9626 295.217 70.9299 295.208 70.8932C295.202 70.8721 295.201 70.8497 295.204 70.8282C295.208 70.8063 295.216 70.7857 295.228 70.7669C295.24 70.748 295.256 70.7319 295.276 70.7194C295.295 70.7064 295.317 70.6979 295.339 70.6934C296.952 70.3136 298.6 70.0767 300.259 69.9853C300.745 69.9311 301.238 69.9624 301.711 70.0775C301.817 70.1093 301.921 70.1479 302.023 70.1931C302.154 70.2491 302.291 70.293 302.433 70.3239C302.747 70.3732 303.069 70.3732 303.383 70.3239C304.848 70.1053 306.329 70.005 307.811 70.0238C307.857 70.0274 307.9 70.0466 307.932 70.078C307.963 70.1089 307.982 70.1501 307.984 70.1931C307.984 70.2151 307.979 70.2366 307.97 70.2567C307.961 70.2769 307.947 70.2952 307.931 70.31C307.914 70.3252 307.894 70.3369 307.872 70.3445C307.85 70.3521 307.827 70.3557 307.803 70.3548C306.354 70.3324 304.905 70.43 303.474 70.6473C303.107 70.7207 302.73 70.7337 302.359 70.6858C302.196 70.6482 302.036 70.5967 301.883 70.5317L301.604 70.4318C301.17 70.3284 300.72 70.3024 300.276 70.3548C298.616 70.4439 296.969 70.6786 295.356 71.0549L295.381 71.024Z" fill="white"/>
<path id="Vector_36" d="M314.699 70.4548C314.673 70.4601 314.646 70.4597 314.62 70.4539C314.594 70.4481 314.569 70.4369 314.548 70.4212C314.527 70.4051 314.51 70.3853 314.499 70.3625C314.487 70.3397 314.481 70.3146 314.481 70.2895C314.481 70.264 314.487 70.2389 314.499 70.216C314.51 70.1936 314.527 70.1735 314.548 70.1574C314.569 70.1417 314.594 70.1305 314.62 70.1247C314.646 70.1188 314.673 70.1184 314.699 70.1238C315.683 70.1238 316.684 70.1238 317.643 70.1238H317.717C324.761 70.1238 331.895 70.1238 338.931 70.0315C338.977 70.0333 339.021 70.0521 339.053 70.0839C339.085 70.1153 339.103 70.1574 339.103 70.2008C339.103 70.2438 339.085 70.2846 339.053 70.315C339.02 70.3455 338.976 70.3625 338.931 70.3625C331.895 70.4395 324.753 70.47 317.709 70.4548H317.635C316.676 70.4548 315.675 70.4548 314.699 70.4548Z" fill="white"/>
<path id="Vector_37" d="M234.356 145.278H219.087C218.214 145.278 217.505 145.943 217.505 146.764V149.388C217.505 150.208 218.214 150.873 219.087 150.873H234.356C235.23 150.873 235.939 150.208 235.939 149.388V146.764C235.939 145.943 235.23 145.278 234.356 145.278Z" fill="#673DE6"/>
<path id="Vector_38" d="M235.012 142.955H218.431C217.92 142.955 217.505 143.344 217.505 143.824V144.409C217.505 144.889 217.92 145.279 218.431 145.279H235.012C235.524 145.279 235.939 144.889 235.939 144.409V143.824C235.939 143.344 235.524 142.955 235.012 142.955Z" fill="white"/>
</g>
<path id="Vector_39" d="M249.969 86.9003C256.323 86.9003 261.473 82.0661 261.473 76.1032C261.473 70.1403 256.323 65.3065 249.969 65.3065C243.615 65.3065 238.464 70.1403 238.464 76.1032C238.464 82.0661 243.615 86.9003 249.969 86.9003Z" fill="white"/>
</g>
<path id="white-circle" d="M249.969 95.3038C249.159 95.255 248.369 95.0508 247.648 94.7036C247.161 94.4918 246.653 94.3265 246.131 94.211C245.589 94.1303 245.04 94.0994 244.491 94.1187C243.698 94.1778 242.901 94.086 242.146 93.8495C241.425 93.5095 240.785 93.0388 240.26 92.4641C239.891 92.0928 239.487 91.7529 239.055 91.4483C238.584 91.1854 238.09 90.9614 237.579 90.7787C236.817 90.548 236.114 90.1736 235.512 89.6782C234.987 89.1147 234.589 88.4577 234.339 87.7469C234.155 87.2622 233.916 86.7982 233.626 86.3615C233.309 85.9472 232.946 85.5656 232.544 85.2225C231.93 84.7338 231.43 84.1314 231.076 83.4524C230.825 82.7469 230.724 82.0016 230.781 81.2595C230.804 80.7448 230.774 80.2293 230.691 79.7205C230.566 79.2323 230.387 78.7579 230.157 78.3042C229.739 77.6445 229.518 76.8906 229.518 76.1225C229.518 75.3543 229.739 74.601 230.157 73.9408C230.386 73.4844 230.564 73.0073 230.691 72.5173C230.774 72.0081 230.804 71.4925 230.781 70.9779C230.725 70.2335 230.825 69.4855 231.076 68.7774C231.432 68.1019 231.932 67.5026 232.544 67.0149C232.946 66.6718 233.309 66.2902 233.626 65.8759C233.915 65.4387 234.153 64.9743 234.339 64.491C234.59 63.7784 234.989 63.119 235.512 62.5516C236.119 62.0633 236.821 61.6898 237.579 61.4511C238.094 61.2764 238.589 61.052 239.055 60.7815C239.491 60.4863 239.894 60.1513 240.26 59.7813C240.789 59.2129 241.429 58.7453 242.146 58.4035C242.901 58.1671 243.698 58.0752 244.491 58.1344C245.04 58.1536 245.589 58.1227 246.131 58.0421C246.653 57.9261 247.161 57.7613 247.648 57.5494C248.369 57.2023 249.159 56.9976 249.969 56.9492C250.781 56.9985 251.573 57.2027 252.297 57.5494C252.781 57.7622 253.287 57.9274 253.807 58.0421C254.349 58.1227 254.898 58.1536 255.447 58.1344C256.239 58.0752 257.037 58.1671 257.791 58.4035C258.51 58.7431 259.15 59.2111 259.677 59.7813C260.384 60.5696 261.313 61.1537 262.359 61.4663C263.154 61.6486 263.88 62.032 264.458 62.5748C265.036 63.1177 265.445 63.799 265.639 64.5447C265.825 65.0284 266.064 65.4925 266.353 65.9301C266.67 66.3439 267.033 66.7255 267.435 67.0686C268.047 67.5564 268.546 68.1561 268.903 68.8311C269.154 69.5397 269.254 70.2872 269.198 71.0321C269.174 71.5467 269.204 72.0623 269.288 72.5711C269.414 73.0611 269.593 73.5381 269.821 73.995C270.24 74.6547 270.461 75.4085 270.461 76.1762C270.461 76.9444 270.24 77.6982 269.821 78.358C269.592 78.8117 269.413 79.286 269.288 79.7742C269.205 80.283 269.175 80.7986 269.198 81.3132C269.254 82.0554 269.154 82.8007 268.903 83.5066C268.549 84.1852 268.049 84.7876 267.435 85.2762C267.033 85.6193 266.67 86.0014 266.353 86.4152C266.063 86.852 265.823 87.3164 265.639 87.8006C265.44 88.5392 265.029 89.2124 264.451 89.7472C263.872 90.282 263.149 90.6573 262.359 90.8324C261.847 91.0152 261.353 91.2391 260.883 91.5021C260.45 91.8066 260.047 92.1466 259.677 92.5179C259.153 93.0925 258.512 93.5633 257.791 93.9032C257.037 94.1397 256.239 94.2316 255.447 94.1724C254.898 94.1532 254.349 94.1841 253.807 94.2647C253.287 94.3794 252.781 94.5446 252.297 94.7574C251.568 95.0853 250.777 95.2711 249.969 95.3038ZM244.811 93.7648C245.28 93.7528 245.75 93.7837 246.213 93.8571C246.761 93.9794 247.295 94.1545 247.804 94.3803C248.456 94.7525 249.205 94.9495 249.969 94.9495C250.732 94.9495 251.481 94.7525 252.133 94.3803C252.643 94.1545 253.176 93.9794 253.725 93.8571C254.299 93.7725 254.882 93.7416 255.463 93.7648C256.2 93.8204 256.942 93.7366 257.644 93.5185C258.313 93.2014 258.907 92.762 259.391 92.2254C259.775 91.8317 260.2 91.4756 260.661 91.1634C261.151 90.8786 261.671 90.6416 262.211 90.4558C262.918 90.2372 263.572 89.8923 264.139 89.4399C264.626 88.9118 264.994 88.2964 265.221 87.6313C265.422 87.1252 265.675 86.6378 265.975 86.177C266.31 85.7412 266.692 85.3389 267.115 84.9761C267.684 84.5193 268.152 83.9625 268.493 83.3373C268.722 82.6775 268.809 81.9815 268.747 81.2904C268.725 80.7471 268.76 80.2029 268.853 79.6663C268.982 79.1378 269.166 78.6222 269.403 78.1273C269.8 77.5164 270.01 76.8149 270.01 76.0996C270.01 75.3839 269.8 74.6825 269.403 74.0716C269.167 73.5762 268.984 73.0611 268.853 72.5326C268.761 71.996 268.725 71.4522 268.747 70.9089C268.809 70.2174 268.722 69.5213 268.493 68.862C268.152 68.2363 267.684 67.6796 267.115 67.2227C266.692 66.8599 266.31 66.4577 265.975 66.0223C265.675 65.561 265.422 65.0741 265.221 64.5676C265.047 63.8818 264.674 63.2543 264.142 62.7558C263.611 62.2573 262.943 61.9066 262.211 61.7435C261.671 61.5577 261.151 61.3203 260.661 61.0354C260.202 60.7214 259.776 60.3654 259.391 59.9734C258.909 59.4346 258.314 58.9948 257.644 58.6808C256.942 58.4622 256.2 58.3785 255.463 58.4345C254.313 58.5276 253.16 58.314 252.133 57.8186C251.481 57.4464 250.732 57.2493 249.969 57.2493C249.205 57.2493 248.456 57.4464 247.804 57.8186C246.778 58.314 245.624 58.5276 244.475 58.4345C243.738 58.3816 242.997 58.4622 242.293 58.6727C241.625 58.9925 241.031 59.4346 240.547 59.9734C240.163 60.3671 239.737 60.7232 239.276 61.0354C238.786 61.3203 238.267 61.5577 237.726 61.7435C237.018 61.9576 236.363 62.3034 235.799 62.7594C235.312 63.2875 234.944 63.9024 234.717 64.5676C234.517 65.0746 234.264 65.5619 233.963 66.0223C233.627 66.4577 233.245 66.8599 232.823 67.2227C232.251 67.6773 231.783 68.235 231.445 68.862C231.215 69.5213 231.129 70.2174 231.191 70.9089C231.213 71.4522 231.177 71.996 231.084 72.5326C230.954 73.0611 230.77 73.5762 230.535 74.0716C230.138 74.6825 229.928 75.3839 229.928 76.0996C229.928 76.8149 230.138 77.5164 230.535 78.1273C230.771 78.6222 230.955 79.1378 231.084 79.6663C231.177 80.2029 231.213 80.7471 231.191 81.2904C231.129 81.9815 231.215 82.6775 231.445 83.3373C231.786 83.9625 232.254 84.5193 232.823 84.9761C233.245 85.3389 233.627 85.7412 233.963 86.177C234.263 86.6378 234.516 87.1252 234.717 87.6313C234.946 88.2955 235.314 88.9105 235.799 89.4399C236.365 89.8923 237.02 90.2372 237.726 90.4558C238.267 90.6416 238.786 90.8786 239.276 91.1634C239.737 91.4756 240.163 91.8317 240.547 92.2254C241.031 92.762 241.625 93.2014 242.293 93.5185C242.996 93.7326 243.738 93.8164 244.475 93.7648H244.811Z" fill="white"/>
<g id="Group 50">
<g id="Group 23">
<path id="Vector_40" d="M258.185 65.4988C258.158 65.5001 258.131 65.4956 258.106 65.4867C258.08 65.4773 258.057 65.463 258.037 65.445C258.018 65.4271 258.002 65.4056 257.991 65.3819C257.98 65.3581 257.975 65.3322 257.975 65.3066C257.975 65.2807 257.98 65.2551 257.991 65.2314C258.002 65.2076 258.018 65.1861 258.037 65.1678L267.057 56.7029C267.077 56.685 267.1 56.6707 267.126 56.6613C267.151 56.6523 267.178 56.6478 267.205 56.6492H284.999C285.053 56.6492 285.106 56.6693 285.144 56.7056C285.183 56.7414 285.204 56.7902 285.204 56.8413C285.204 56.8924 285.183 56.9412 285.144 56.9775C285.106 57.0138 285.053 57.0339 284.999 57.0339H267.287L258.3 65.445C258.27 65.4755 258.229 65.4948 258.185 65.4988Z" fill="white"/>
<path id="Vector_41" d="M235.799 106.531H218.005C217.951 106.531 217.899 106.511 217.86 106.475C217.822 106.439 217.8 106.39 217.8 106.339C217.8 106.288 217.822 106.239 217.86 106.203C217.899 106.167 217.951 106.147 218.005 106.147H235.717L244.647 97.7664C244.687 97.7386 244.735 97.7248 244.784 97.7283C244.834 97.7315 244.88 97.7512 244.915 97.7839C244.95 97.817 244.971 97.8605 244.974 97.9066C244.978 97.9527 244.964 97.9984 244.934 98.0356L235.914 106.5C235.879 106.52 235.84 106.53 235.799 106.531Z" fill="white"/>
</g>
<g id="Group 49">
<g id="Group" opacity="0.1">
<path id="Vector_42" opacity="0.1" d="M337.881 111.826C337.881 113.673 336.52 115.374 336.151 117.121C335.782 118.867 336.331 120.968 335.601 122.623C334.871 124.278 332.903 125.386 331.837 126.886C330.771 128.387 330.443 130.495 329.074 131.773C327.705 133.05 325.475 133.312 323.867 134.358C322.26 135.405 321.129 137.191 319.333 137.891C317.537 138.591 315.38 138.052 313.461 138.407C311.543 138.76 309.796 140.03 307.828 140.03C305.86 140.03 304.056 138.753 302.195 138.407C300.333 138.06 298.095 138.576 296.323 137.891C294.552 137.206 293.379 135.359 291.789 134.358C290.198 133.358 287.943 133.05 286.582 131.773C285.221 130.495 284.893 128.395 283.819 126.886C282.744 125.378 280.801 124.308 280.063 122.623C279.325 120.938 279.883 118.914 279.505 117.121C279.128 115.328 277.783 113.673 277.783 111.826C277.783 109.979 279.136 108.286 279.505 106.539C279.874 104.792 279.333 102.691 280.063 101.037C280.793 99.3824 282.753 98.2743 283.819 96.7734C284.885 95.2729 285.221 93.1642 286.582 91.8868C287.943 90.6093 290.181 90.3093 291.789 89.2934C293.396 88.2776 294.536 86.4694 296.323 85.7689C298.111 85.0688 300.276 85.6072 302.195 85.2534C304.113 84.8995 305.86 83.6373 307.828 83.6373C309.796 83.6373 311.608 84.9147 313.461 85.261C315.315 85.6072 317.561 85.0917 319.333 85.7765C321.104 86.4613 322.277 88.3009 323.875 89.3086C325.475 90.3169 327.713 90.617 329.083 91.8944C330.452 93.1722 330.763 95.2729 331.837 96.7814C332.912 98.2895 334.855 99.3591 335.601 101.045C336.347 102.73 335.773 104.754 336.151 106.547C336.528 108.34 337.881 109.987 337.881 111.826Z" fill="white"/>
</g>
<g id="Group 31">
<path id="Vector_43" d="M288.238 152.905H285.762V275.079H288.238V152.905Z" fill="#263238"/>
<path id="Vector_44" d="M262.499 275.087H260.022L285.762 239.203H288.238L262.499 275.087Z" fill="#263238"/>
<path id="Vector_45" d="M311.501 275.087H313.978L288.238 239.203H285.762L311.501 275.087Z" fill="#263238"/>
<path id="Vector_46" d="M290.419 237.055H283.581C282.811 237.055 282.187 237.641 282.187 238.364V240.042C282.187 240.764 282.811 241.35 283.581 241.35H290.419C291.189 241.35 291.813 240.764 291.813 240.042V238.364C291.813 237.641 291.189 237.055 290.419 237.055Z" fill="#263238"/>
</g>
<g id="Group 11">
<path id="Vector_47" d="M366.54 46.583H207.46C207.149 46.583 206.851 46.4675 206.631 46.261C206.411 46.0545 206.287 45.7746 206.287 45.483C206.29 45.1923 206.414 44.9141 206.634 44.7096C206.853 44.5049 207.15 44.39 207.46 44.39H366.54C366.849 44.39 367.145 44.5052 367.364 44.7101C367.582 44.915 367.705 45.1927 367.705 45.483C367.706 45.6268 367.676 45.7701 367.618 45.9031C367.56 46.0366 367.475 46.158 367.366 46.2605C367.258 46.3627 367.129 46.4437 366.988 46.4993C366.846 46.5548 366.694 46.5835 366.54 46.583Z" fill="#E0E0E0"/>
<path id="Vector_48" d="M372.854 150.873H201.146L205.147 154.944H368.853L372.854 150.873Z" fill="#E0E0E0"/>
<path id="Vector_49" d="M163.861 186.157H85.1487V187.966H163.861V186.157Z" fill="#673DE6"/>
</g>
<g id="Group 15">
<path id="Vector_50" d="M163.861 186.157H142.991V187.966H163.861V186.157Z" fill="#263238"/>
<path id="Vector_51" d="M73.4967 131.557L78.7608 136.236L85.7393 139.915C85.4933 140.13 85.5834 141.593 85.6819 142.324C85.7097 143.122 86.0019 143.893 86.5176 144.529C87.0334 145.164 87.7472 145.634 88.56 145.871C89.38 146.202 90.2 146.641 90.3559 147.364C90.5199 148.257 89.8227 149.365 85.9194 149.896C82.1761 150.367 78.3665 149.864 74.9068 148.441C73.2668 147.81 73.5459 147.118 73.9559 145.655C75.0054 141.923 74.7674 135.336 73.4967 131.557Z" fill="#FFB573"/>
<path id="Vector_52" d="M71.3974 147.364C72.2187 145.41 72.885 143.401 73.39 141.354C73.39 141.354 84.05 140.623 87.6006 141.931C91.1513 143.239 93.3407 148.911 93.3407 148.911L71.3974 147.364Z" fill="#263238"/>
</g>
</g>
</g>
<g id="men-face">
<g id="Group 10">
<path id="Vector_53" d="M89.38 124.062C89.5606 124.539 89.9786 124.832 90.3232 124.755C90.6674 124.678 90.7906 124.185 90.61 123.7C90.4294 123.216 90.0114 122.931 89.6753 123.008C89.3392 123.084 89.1752 123.577 89.38 124.062Z" fill="#263238"/>
<path id="Vector_54" d="M89.8474 124.424C90.9053 125.472 92.108 126.383 93.4226 127.133C93.2085 127.434 92.9262 127.687 92.5959 127.875C92.2657 128.062 91.8956 128.179 91.512 128.217L89.8474 124.424Z" fill="#ED893E"/>
<path id="Vector_55" d="M87.1906 122.508C87.1369 122.519 87.0804 122.519 87.0266 122.508C86.9854 122.501 86.946 122.487 86.9106 122.466C86.8752 122.445 86.8452 122.417 86.8214 122.385C86.7977 122.353 86.7811 122.316 86.7726 122.278C86.7641 122.239 86.7641 122.199 86.7726 122.161C86.8483 121.696 87.0455 121.255 87.3457 120.878C87.6459 120.501 88.0407 120.199 88.4946 119.999C88.5708 119.978 88.6523 119.984 88.7236 120.017C88.7952 120.05 88.8513 120.106 88.8808 120.174C88.9104 120.244 88.9117 120.321 88.884 120.391C88.8566 120.461 88.8024 120.518 88.7321 120.553C88.3794 120.717 88.0734 120.959 87.8408 121.258C87.6083 121.557 87.4555 121.903 87.3954 122.269C87.3865 122.322 87.3632 122.372 87.3269 122.414C87.291 122.456 87.244 122.488 87.1906 122.508Z" fill="#263238"/>
<path id="Vector_56" d="M72.3321 128.918C74.8494 134.559 76.014 137.975 80.196 139.869C86.4854 142.716 93.0454 137.475 92.3647 131.219C91.7499 125.585 87.74 117.321 80.8847 117.09C79.3662 117.046 77.8606 117.363 76.5074 118.011C75.1541 118.659 73.9972 119.618 73.1445 120.797C72.2913 121.978 71.7693 123.34 71.6277 124.76C71.4856 126.179 71.7281 127.61 72.3321 128.918Z" fill="#FFB573"/>
<path id="Vector_57" d="M84.9928 128.625C87.3627 126.086 85.7146 121.7 83.6154 119.983C85.6488 119.914 90.9134 119.483 89.3554 115.227C87.7974 110.972 82.3773 110.472 80.8027 112.573C76.3254 110.264 70.9627 112.264 72.2501 115.474C66.9859 114.704 65.4768 119.606 67.65 121.584C64.8866 123.746 63.8946 128.002 67.5106 129.61C71.1267 131.219 71.2006 135.228 74.8906 137.306C78.5806 139.384 87.0347 135.844 84.9928 128.625Z" fill="#263238"/>
</g>
<path id="Vector_58" d="M81.9507 129.48C82.7322 130.632 83.9375 131.475 85.3374 131.85C87.1494 132.304 88.0272 130.418 87.3547 128.771C86.7479 127.325 84.8947 125.694 83.1727 125.932C81.4507 126.171 80.9833 128.04 81.9507 129.48Z" fill="#FFB573"/>
</g>
<g id="Group 17">
<g id="Group_2" opacity="0.3">
<path id="Vector_59" opacity="0.3" d="M72.2586 144.871C79.13 145.101 82.2541 149.927 76.5553 158.515C71.6353 165.895 70.9873 166.049 70.9873 166.049L58.548 160.262C62.73 152.79 65.2312 144.624 72.2586 144.871Z" fill="black"/>
</g>
<path id="Vector_60" d="M75.8334 190.913L75.1366 190.182C72.9881 188.312 72.0699 188.543 69.6099 188.543L66.6006 190.659C68.4207 195.354 72.1026 195.146 72.1026 195.146L73.1686 196.077C73.403 196.28 73.6871 196.425 73.9958 196.5C74.305 196.575 74.6285 196.576 74.9381 196.505C75.2478 196.433 75.5337 196.29 75.7702 196.089C76.0068 195.888 76.1861 195.636 76.2927 195.354L76.6046 194.522C76.83 193.911 76.8779 193.254 76.7421 192.619C76.6068 191.985 76.2932 191.396 75.8334 190.913Z" fill="#FFB573"/>
<path id="Vector_61" d="M147.969 260.804L153.849 257.703L147.592 244.258L141.713 247.352L147.969 260.804Z" fill="#FFB573"/>
<path id="Vector_62" opacity="0.2" d="M144.747 253.87L150.716 250.977L147.592 244.258L141.713 247.352L144.747 253.87Z" fill="black"/>
<path id="Vector_63" d="M153.086 254.878L145.542 255.378C145.414 255.385 145.294 255.437 145.207 255.525C145.12 255.612 145.072 255.728 145.075 255.848L145.132 261.466C145.155 261.761 145.3 262.035 145.536 262.23C145.772 262.426 146.08 262.527 146.395 262.512C149.011 262.297 150.077 261.681 153.365 261.243C155.39 260.966 160.253 260.704 162.983 259.996C165.714 259.288 165.263 256.918 163.033 257.025C160.138 257.149 156.267 256.464 154.267 255.194C153.921 254.969 153.506 254.858 153.086 254.878Z" fill="#263238"/>
</g>
<g id="Group 32">
<g id="Group 18">
<path id="Vector_64" d="M101.68 196.369C101.68 196.369 136.021 194.445 138.925 206.943C144.829 232.338 150.527 246.444 150.527 246.444L141.442 250.846C141.442 250.846 128.059 233.254 124.115 215.231C110.126 213.261 85.6734 220.21 79.8353 210.352C74.6693 201.656 79.2039 195.407 79.2039 195.407L101.68 196.369Z" fill="#263238"/>
<path id="Vector_65" d="M141.614 253.139L152.192 248.329L151.003 244.258L139.375 249.384L141.614 253.139Z" fill="#673DE6"/>
<path id="Vector_66" d="M155.546 255.825C154.942 255.847 154.338 255.811 153.742 255.717C153.711 255.714 153.682 255.701 153.659 255.682C153.635 255.663 153.619 255.638 153.611 255.61C153.603 255.581 153.604 255.552 153.614 255.524C153.625 255.497 153.643 255.473 153.668 255.456C153.873 255.302 155.677 253.955 156.521 254.201C156.617 254.231 156.703 254.282 156.772 254.35C156.84 254.419 156.89 254.502 156.915 254.594C156.971 254.729 156.988 254.875 156.965 255.018C156.942 255.161 156.879 255.296 156.784 255.409C156.438 255.683 155.998 255.83 155.546 255.825ZM154.152 255.471C155.373 255.617 156.251 255.525 156.546 255.209C156.607 255.135 156.647 255.047 156.66 254.953C156.672 254.86 156.659 254.765 156.62 254.678C156.607 254.635 156.583 254.595 156.55 254.561C156.517 254.528 156.477 254.502 156.431 254.486C155.972 254.355 154.898 254.955 154.16 255.471H154.152Z" fill="#673DE6"/>
<path id="Vector_67" d="M153.775 255.717C153.75 255.724 153.725 255.724 153.701 255.717C153.677 255.708 153.656 255.693 153.641 255.675C153.625 255.656 153.614 255.633 153.611 255.61C153.611 255.533 153.307 253.732 153.939 253.07C154.021 252.987 154.121 252.921 154.233 252.879C154.345 252.836 154.466 252.817 154.587 252.824C154.721 252.82 154.854 252.858 154.963 252.931C155.073 253.005 155.154 253.11 155.193 253.232C155.398 253.909 154.496 255.286 153.857 255.71C153.831 255.72 153.802 255.723 153.775 255.717ZM154.505 253.101C154.441 253.105 154.38 253.12 154.324 253.146C154.267 253.173 154.217 253.21 154.177 253.255C153.799 253.647 153.824 254.686 153.881 255.286C154.475 254.766 154.835 254.054 154.89 253.293C154.89 253.208 154.808 253.116 154.578 253.101H154.505Z" fill="#673DE6"/>
<path id="Vector_68" d="M109.216 272.332L115.891 272.032L116.981 257.241L110.307 257.541L109.216 272.332Z" fill="#FFB573"/>
<path id="Vector_69" d="M116.563 270.046L109.011 269.823C108.884 269.817 108.76 269.856 108.663 269.933C108.568 270.011 108.507 270.12 108.494 270.238L107.945 275.833C107.938 275.98 107.963 276.126 108.016 276.264C108.07 276.402 108.152 276.528 108.258 276.636C108.364 276.744 108.491 276.831 108.633 276.893C108.775 276.955 108.928 276.989 109.085 276.995C111.717 276.995 112.824 276.718 116.145 276.818C118.187 276.88 121.885 277.188 125.329 277.188C128.773 277.188 127.387 274.571 125.55 274.325C122.68 273.94 119.564 271.924 117.711 270.477C117.391 270.216 116.987 270.063 116.563 270.046Z" fill="#263238"/>
</g>
<path id="Vector_70" d="M118.9 271.216C118.296 271.18 117.697 271.087 117.113 270.939C117.083 270.931 117.055 270.916 117.035 270.894C117.014 270.872 117.001 270.845 116.997 270.816C116.993 270.787 116.998 270.759 117.011 270.732C117.024 270.706 117.045 270.685 117.071 270.67C117.285 270.539 119.236 269.369 120.04 269.7C120.132 269.737 120.213 269.795 120.274 269.869C120.336 269.943 120.377 270.03 120.393 270.123C120.434 270.258 120.435 270.402 120.396 270.537C120.357 270.673 120.279 270.796 120.171 270.893C119.806 271.148 119.352 271.264 118.9 271.216ZM117.547 270.739C118.744 270.993 119.63 270.985 119.958 270.7C120.025 270.632 120.073 270.549 120.096 270.459C120.119 270.368 120.116 270.274 120.089 270.185C120.083 270.138 120.064 270.093 120.034 270.055C120.003 270.018 119.963 269.988 119.917 269.969C119.499 269.792 118.367 270.293 117.563 270.739H117.547Z" fill="#673DE6"/>
</g>
<g id="Group 30">
<g id="Group 16">
<path id="Vector_71" d="M76.3993 154.898L71.0693 164.902C70.1754 166.572 69.3066 168.234 68.4619 169.904C67.6173 171.574 66.7726 173.213 66.0427 174.845C65.6493 175.668 65.3213 176.453 64.9686 177.261L64.5174 178.408L64.4601 178.554V178.623V178.662V178.585C64.543 178.263 64.5792 177.931 64.5667 177.6C64.5757 177.356 64.525 177.114 64.4193 176.892C64.3534 176.784 64.4193 176.992 64.4686 177.238C64.5784 177.547 64.7123 177.848 64.8701 178.138C65.2227 178.808 65.6901 179.531 66.1332 180.278C68.06 183.264 70.4133 186.434 72.5453 189.574L72.6027 189.651C72.9934 190.228 73.1619 190.912 73.0804 191.591C72.9993 192.27 72.6726 192.902 72.1555 193.383C71.6384 193.864 70.9618 194.164 70.2377 194.234C69.5136 194.305 68.7854 194.14 68.1747 193.768C66.3756 192.687 64.6474 191.505 63.0006 190.228C61.3087 188.949 59.7041 187.571 58.1954 186.103C57.3722 185.313 56.6024 184.475 55.8913 183.594C55.4817 183.1 55.0982 182.586 54.7433 182.055C54.2679 181.332 53.8879 180.556 53.6114 179.747C53.3784 179.062 53.2485 178.349 53.2261 177.631C53.2117 177.058 53.278 176.486 53.4232 175.93L53.5541 175.437L53.9887 173.844C54.3167 172.851 54.6201 171.82 54.9812 170.874C55.678 168.927 56.4406 167.08 57.2114 165.233C57.9821 163.386 58.8514 161.593 59.6714 159.846C61.4099 156.276 63.2054 152.82 65.2554 149.357C66.0351 147.966 67.3717 146.923 68.971 146.457C70.5702 145.99 72.3016 146.14 73.7834 146.871C75.2657 147.603 76.3774 148.857 76.8743 150.358C77.3708 151.859 77.2117 153.484 76.4321 154.875L76.3993 154.898Z" fill="#FFB573"/>
<path id="Vector_72" d="M72.2586 144.871C79.13 145.101 82.2541 149.927 76.5553 158.515C71.6353 165.895 70.9873 166.049 70.9873 166.049L58.548 160.262C62.73 152.79 65.2312 144.624 72.2586 144.871Z" fill="#673DE6"/>
</g>
<g id="Group 19">
<path id="Vector_73" d="M117.161 270.939H117.096C117.071 270.928 117.051 270.91 117.036 270.888C117.022 270.866 117.014 270.841 117.014 270.816C117.014 270.739 116.915 268.923 117.621 268.322C117.711 268.247 117.819 268.192 117.935 268.159C118.051 268.127 118.174 268.12 118.293 268.138C118.426 268.148 118.552 268.198 118.651 268.282C118.75 268.365 118.818 268.477 118.843 268.6C118.974 269.292 117.924 270.585 117.203 270.908C117.191 270.921 117.178 270.931 117.161 270.939ZM118.17 268.407C118.043 268.405 117.919 268.449 117.826 268.53C117.433 269.126 117.254 269.825 117.317 270.523C117.916 270.077 118.621 269.092 118.531 268.638C118.531 268.553 118.473 268.445 118.244 268.415L118.17 268.407Z" fill="#673DE6"/>
<path id="Vector_74" opacity="0.2" d="M110.307 257.548L116.981 257.248L116.35 265.706L109.699 265.698L110.307 257.548Z" fill="black"/>
<path id="Vector_75" d="M85.9687 195.7C85.9687 195.7 127.658 202.988 126.846 213.977C125.395 233.762 118.326 262.035 118.326 262.035L108.314 262.166C108.314 262.166 106.945 232.761 108.183 218.448C95.6774 218.448 71.0694 218.04 66.256 211.999C60.9341 205.335 66.4034 194.861 66.4034 194.861L85.9687 195.7Z" fill="#263238"/>
<path id="Vector_76" d="M107.469 263.867L120.105 263.697L120.704 259.842L106.945 260.219L107.469 263.867Z" fill="#673DE6"/>
<path id="Vector_77" d="M94.9233 145.309C90.8233 144.54 72.3567 144.778 72.3567 144.778C70.5097 144.735 68.7124 145.343 67.3202 146.483C65.928 147.623 65.0421 149.211 64.8374 150.935C64.1894 156.276 66.1001 168.103 66.2314 174.198C66.3873 181.678 66.5594 184.834 66.4034 194.899L109.396 197.016C111.036 178.669 104.665 169.82 100.868 151.566C100.303 148.772 99.0152 146.056 94.9233 145.309Z" fill="#673DE6"/>
<path id="Vector_78" opacity="0.3" d="M94.9233 145.309C90.8233 144.54 72.3567 144.778 72.3567 144.778C70.5097 144.735 68.7124 145.343 67.3202 146.483C65.928 147.623 65.0421 149.211 64.8374 150.935C64.1894 156.276 66.1001 168.103 66.2314 174.198C66.3873 181.678 66.5594 184.834 66.4034 194.899L109.396 197.016C111.036 178.669 104.665 169.82 100.868 151.566C100.303 148.772 99.0152 146.056 94.9233 145.309Z" fill="black"/>
<path id="Vector_79" d="M100.155 151.212C102.09 154.444 104.083 157.838 106.091 161.078C107.084 162.717 108.109 164.325 109.142 165.895C110.175 167.465 111.241 168.973 112.307 170.435L113.127 171.474C113.398 171.828 113.66 172.105 113.947 172.421L114.144 172.659L114.243 172.775L114.177 172.713L114.029 172.613C114.029 172.613 113.988 172.613 114.029 172.659C114.273 172.849 114.531 173.024 114.8 173.182C116.202 174.037 118.023 174.906 119.785 175.783C123.361 177.531 127.1 179.262 130.725 181.17H130.773C131.449 181.5 131.975 182.046 132.258 182.709C132.541 183.372 132.561 184.109 132.315 184.784C132.069 185.46 131.573 186.03 130.917 186.393C130.261 186.755 129.489 186.884 128.74 186.757C124.478 186.283 120.26 185.511 116.12 184.449C113.92 183.904 111.762 183.223 109.659 182.41C108.99 182.139 108.341 181.828 107.715 181.478C107.551 181.394 107.313 181.24 107.1 181.101L106.764 180.87L106.329 180.524L106.116 180.347L105.969 180.209L105.805 180.055L105.477 179.747C105.059 179.339 104.583 178.916 104.205 178.508L103.033 177.277C100.221 174.089 97.6374 170.728 95.3006 167.219C93.0046 163.778 90.8887 160.377 88.9373 156.699C88.2078 155.317 88.081 153.723 88.5837 152.255C89.0865 150.787 90.1789 149.561 91.6294 148.837C93.0799 148.113 94.7741 147.948 96.3518 148.377C97.93 148.806 99.2675 149.795 100.081 151.135L100.155 151.212Z" fill="#FFB573"/>
</g>
</g>
<g id="Group 20">
<path id="Vector_80" d="M88.6254 149.111C92.3239 143.678 98.3426 143.601 103.337 152.566C107.625 160.262 107.437 160.885 107.437 160.885L95.8172 168.019C91.0612 160.846 84.8373 154.675 88.6254 149.111Z" fill="#673DE6"/>
<g id="Group_3" opacity="0.3">
<path id="Vector_81" opacity="0.3" d="M88.6254 149.111C92.3239 143.678 98.3426 143.601 103.337 152.566C107.625 160.262 107.437 160.885 107.437 160.885L95.8172 168.019C91.0612 160.846 84.8373 154.675 88.6254 149.111Z" fill="black"/>
</g>
<path id="Vector_82" d="M133.791 180.709L132.775 180.532C129.847 180.278 129.281 180.993 127.329 182.402L126.321 185.803C130.823 188.473 133.603 186.196 133.603 186.196L135.054 186.327C135.371 186.353 135.691 186.305 135.983 186.188C136.276 186.069 136.533 185.885 136.731 185.651C136.928 185.416 137.061 185.139 137.116 184.845C137.171 184.55 137.147 184.247 137.047 183.964L136.751 183.125C136.534 182.51 136.145 181.961 135.624 181.536C135.103 181.111 134.47 180.825 133.791 180.709Z" fill="#FFB573"/>
</g>
<g id="chairs">
<g id="Group 1">
<path id="Vector_83" d="M131.725 277.819H130.536L125.567 230.068C125.157 226.105 122.401 223.142 119.179 223.142H109.388C106.108 223.142 103.41 226.128 103 230.068L98.0308 277.819H96.842L101.827 229.853C102.311 225.166 105.559 221.626 109.388 221.626H119.179C123 221.626 126.255 225.166 126.739 229.853L131.725 277.819Z" fill="#263238"/>
<path id="Vector_84" d="M94.6854 277.819H93.48L88.56 230.068C88.15 226.105 85.4032 223.142 82.1721 223.142H72.3486C69.1179 223.142 66.3707 226.128 65.9607 230.068L60.9914 277.819H59.8027L64.78 229.853C65.2639 225.166 68.5193 221.626 72.3406 221.626H82.1313C85.9606 221.626 89.2079 225.166 89.6914 229.853L94.6854 277.819Z" fill="#263238"/>
<path id="Vector_85" d="M128.412 218.309L110.077 217.625L105.271 191.113C102.811 177.454 90.2 166.387 77.1374 166.387H65.6C52.5374 166.387 43.9602 177.454 46.4366 191.113L49.7166 209.413C50.9386 216.185 57.1867 221.68 63.6566 221.68H136.259C136.412 221.662 136.555 221.599 136.668 221.5C136.781 221.402 136.858 221.273 136.889 221.131C136.92 220.989 136.903 220.842 136.84 220.71C136.777 220.578 136.671 220.468 136.538 220.395C134.021 219.159 131.249 218.447 128.412 218.309Z" fill="#673DE6"/>
</g>
<path id="Vector_86" d="M132.733 221.072H126.911V219.663H132.733C147.371 219.663 159.285 207.174 159.285 191.821V187.065H160.785V191.821C160.785 207.951 148.199 221.072 132.733 221.072Z" fill="#263238"/>
<path id="Vector_87" d="M252.265 186.157H173.553V187.966H252.265V186.157Z" fill="#673DE6"/>
<path id="Vector_88" d="M226.082 185.257H199.727V186.165H226.082V185.257Z" fill="#E0E0E0"/>
<path id="Vector_89" d="M252.265 186.157H231.396V187.966H252.265V186.157Z" fill="#263238"/>
<path id="Vector_90" d="M166.353 167.28L164.771 178.2C164.271 181.84 163.754 185.48 163.377 189.058L163.254 190.39L163.197 191.059C163.207 190.949 163.207 190.838 163.197 190.729C163.178 190.624 163.15 190.521 163.115 190.42C163.068 190.287 163.001 190.16 162.917 190.044C162.795 189.897 162.778 189.921 162.811 189.951C162.881 190.022 162.961 190.084 163.049 190.136C163.34 190.326 163.647 190.494 163.967 190.636C165.615 191.347 167.317 191.941 169.059 192.414C172.7 193.476 176.521 194.338 180.293 195.223L179.867 198.301C175.833 198.178 171.813 197.787 167.837 197.131C165.731 196.798 163.661 196.283 161.655 195.592C161.064 195.376 160.491 195.119 159.941 194.822C159.601 194.642 159.278 194.436 158.973 194.207C158.545 193.892 158.169 193.519 157.858 193.099C157.639 192.787 157.463 192.451 157.333 192.098C157.264 191.886 157.21 191.67 157.169 191.452C157.155 191.229 157.155 191.005 157.169 190.782V190.059V188.62C157.333 184.818 157.703 181.101 158.129 177.392C158.555 173.683 159.055 169.997 159.679 166.303L166.353 167.28Z" fill="#FFC3BD"/>
</g>
<g id="Group 48">
<path id="Vector_91" d="M189.01 198.501L186.46 200.686C186.17 200.936 185.808 201.098 185.419 201.152C185.03 201.205 184.632 201.148 184.279 200.986L181.466 199.717C181.466 199.717 177.301 199.555 176.702 197.162L177.784 195.307L184.237 194.63C184.904 194.564 185.575 194.705 186.148 195.03L188.805 196.569C188.975 196.668 189.118 196.803 189.224 196.962C189.33 197.121 189.395 197.301 189.415 197.488C189.435 197.674 189.408 197.863 189.338 198.039C189.268 198.214 189.156 198.372 189.01 198.501Z" fill="#FFC3BD"/>
<path id="Vector_92" d="M173.775 144.84C174.431 148.587 174.988 155.437 172.135 157.837C176.633 160.191 180.564 163.393 183.68 167.242C188.6 163.609 184.5 158.184 184.5 158.184C180.105 157.068 180.318 153.99 181.179 151.119L173.775 144.84Z" fill="#FFC3BD"/>
<path id="Vector_93" d="M164.254 158.815C159.227 160.354 158.145 166.672 158.596 171.59L168.739 177.446C168.739 177.446 171.199 170.266 171.199 166.426C171.159 162.34 167.665 157.776 164.254 158.815Z" fill="#263238"/>
</g>
<g id="girld-face">
<path id="Vector_94" d="M186.321 137.275C186.485 137.76 186.895 138.045 187.231 137.968C187.567 137.891 187.706 137.391 187.542 136.913C187.378 136.436 186.968 136.144 186.632 136.221C186.296 136.298 186.14 136.798 186.321 137.275Z" fill="#263238"/>
<path id="Vector_95" d="M186.665 138.006C187.498 138.969 188.469 139.818 189.551 140.531C189.35 140.786 189.091 140.996 188.794 141.148C188.496 141.3 188.167 141.388 187.829 141.408L186.665 138.006Z" fill="#ED847E"/>
<path id="Vector_96" d="M185.484 132.935C185.511 132.89 185.526 132.84 185.526 132.789C185.526 132.738 185.511 132.687 185.484 132.643C185.433 132.58 185.359 132.538 185.276 132.527C185.193 132.515 185.109 132.535 185.041 132.581C184.629 132.852 184.292 133.212 184.059 133.632C183.826 134.051 183.705 134.517 183.705 134.99C183.706 135.029 183.715 135.067 183.732 135.102C183.749 135.137 183.774 135.169 183.805 135.194C183.835 135.22 183.872 135.24 183.911 135.252C183.95 135.265 183.991 135.27 184.033 135.267C184.074 135.265 184.115 135.257 184.153 135.241C184.191 135.225 184.225 135.201 184.254 135.173C184.282 135.144 184.304 135.11 184.318 135.074C184.332 135.037 184.338 134.998 184.336 134.959C184.34 134.585 184.44 134.216 184.628 133.887C184.817 133.557 185.088 133.275 185.419 133.066C185.453 133.029 185.476 132.983 185.484 132.935Z" fill="#263238"/>
<path id="Vector_97" d="M168.157 140.484C170.617 146.287 171.437 148.788 175.701 150.865C182.065 153.99 189.125 149.927 188.6 143.562C188.133 137.837 184.254 129.31 177.267 128.818C175.725 128.693 174.174 128.943 172.765 129.544C171.355 130.145 170.133 131.076 169.218 132.248C168.303 133.42 167.725 134.793 167.539 136.236C167.353 137.678 167.566 139.141 168.157 140.484Z" fill="#FFC3BD"/>
<path id="Vector_98" d="M183.007 139.145C184.205 138.822 186.287 136.583 182.655 132.073C184.599 131.742 186.181 128.395 180.851 126.478C175.521 124.562 169.707 125.493 166.181 130.08C166.181 130.08 154.939 133.197 164.099 144.055C173.258 154.914 184.885 150.488 183.007 139.145Z" fill="#263238"/>
<path id="Vector_99" d="M162.015 130.072C162.014 130.378 162.095 130.68 162.252 130.95C162.408 131.219 162.634 131.446 162.909 131.611C163.437 132.028 164.094 132.274 164.782 132.313C165.47 132.352 166.154 132.181 166.731 131.827C167.976 131.057 169.114 130.145 170.117 129.11C170.414 128.809 170.644 128.454 170.793 128.068C170.941 127.681 171.006 127.271 170.983 126.861C170.96 126.45 170.85 126.049 170.659 125.679C170.468 125.31 170.2 124.979 169.871 124.709C169.721 124.59 169.562 124.482 169.395 124.385C169.395 124.385 162.959 124.562 162.015 130.072Z" fill="#673DE6"/>
<path id="Vector_100" d="M162.926 129.349C166.607 128.795 168.567 126.032 168.781 125.209C167.961 123.177 157.301 110.264 148.215 119.706C138.621 129.711 157.399 139.769 150.675 151.812C162.36 148.126 171.889 140.538 162.926 129.349Z" fill="#263238"/>
<path id="Vector_101" d="M186.493 136.29L187.608 135.582C187.608 135.582 187.288 136.683 186.493 136.29Z" fill="#263238"/>
<path id="Vector_102" d="M180.351 140.346C180.976 141.501 182.064 142.375 183.377 142.778C185.115 143.293 186.05 141.846 185.615 140.277C185.23 138.86 183.861 136.883 182.089 137.052C181.703 137.095 181.334 137.227 181.016 137.438C180.698 137.648 180.441 137.93 180.269 138.257C180.096 138.584 180.013 138.946 180.028 139.311C180.042 139.676 180.153 140.031 180.351 140.346Z" fill="#FFC3BD"/>
</g>
<g id="Group 47">
<g id="Group 21">
<path id="Vector_103" d="M196.193 168.003C195.775 173.39 194.487 182.541 191.323 197.893L164.164 197.123C164.877 187.712 163.803 180.701 161.343 164.233C161.242 163.52 161.295 162.796 161.497 162.103C161.699 161.41 162.046 160.762 162.52 160.197C162.993 159.632 163.581 159.161 164.251 158.813C164.92 158.465 165.658 158.245 166.419 158.168C168.157 157.999 170.142 157.861 172.159 157.822C176.262 157.665 180.373 157.781 184.459 158.168C185.787 158.323 187.149 158.515 188.453 158.722C190.743 159.087 192.806 160.24 194.237 161.956C195.669 163.673 196.367 165.83 196.193 168.003Z" fill="#263238"/>
<path id="Vector_104" d="M224.295 268.038L230.707 267.468L226.385 252.647L219.973 253.216L224.295 268.038Z" fill="#FFC3BD"/>
<path id="Vector_105" d="M239.35 271.524C235.43 270.439 235.553 268.823 231.642 265.837C231.252 265.506 230.762 265.296 230.239 265.237L223.86 264.821C223.736 264.822 223.617 264.864 223.523 264.94C223.43 265.016 223.369 265.122 223.351 265.237L222.449 269.384C222.138 270.823 223.081 272.201 224.409 272.247C226.533 272.324 229.141 272.401 231.461 272.547C234.848 272.771 234.889 274.379 238.841 274.202C241.277 274.094 240.687 271.893 239.35 271.524Z" fill="#263238"/>
<path id="Vector_106" d="M248.157 248.968L252.503 245.429L245.229 235.063L239.793 239.895L248.157 248.968Z" fill="#FFC3BD"/>
<path id="Vector_107" d="M251.338 243.235L246.156 247.737C246.057 247.825 245.994 247.942 245.978 248.068C245.961 248.195 245.992 248.322 246.065 248.43L248.525 252C248.736 252.278 249.007 252.511 249.32 252.683C249.634 252.855 249.983 252.963 250.344 253C250.705 253.036 251.071 253 251.416 252.894C251.761 252.788 252.078 252.615 252.347 252.385C254.044 251.154 255.003 248.991 257.013 247.221C259.94 244.651 260.465 244.72 262.277 241.126C263.507 238.71 260.825 238.702 259.883 239.449C257.513 241.342 258.447 241.419 252.929 242.527C252.34 242.623 251.79 242.867 251.338 243.235Z" fill="#263238"/>
<path id="Vector_108" d="M181.851 197.454C181.851 197.454 225.82 191.344 230.371 201.925C238.292 220.325 249.755 241.057 249.755 241.057L244.589 245.506C244.589 245.506 224.909 228.952 218.087 210.46C209.945 212.938 184.025 220.895 174.529 220.895C164.393 220.895 160.253 212.784 163.918 199.348C164.078 198.763 164.441 198.244 164.951 197.876C165.461 197.508 166.087 197.311 166.731 197.316C173.11 197.316 181.851 197.454 181.851 197.454Z" fill="#673DE6"/>
<path id="Vector_109" opacity="0.5" d="M181.851 197.454C181.851 197.454 225.82 191.344 230.371 201.925C238.292 220.325 249.755 241.057 249.755 241.057L244.589 245.506C244.589 245.506 224.909 228.952 218.087 210.46C209.945 212.938 184.025 220.895 174.529 220.895C164.393 220.895 160.253 212.784 163.918 199.348C164.078 198.763 164.441 198.244 164.951 197.876C165.461 197.508 166.087 197.311 166.731 197.316C173.11 197.316 181.851 197.454 181.851 197.454Z" fill="white"/>
<path id="Vector_110" d="M186.066 202.826C186.066 202.826 222.146 201.802 222.458 213.799C222.958 233.646 229.444 262.028 229.444 262.028L222.335 262.651C222.335 262.651 211.56 240.034 208.731 220.618C195.873 221.387 184.025 220.864 174.529 220.864C163.869 220.864 163.049 209.898 173.373 197.108C179.703 197.139 186.066 202.826 186.066 202.826Z" fill="#673DE6"/>
<path id="Vector_111" opacity="0.5" d="M186.066 202.826C186.066 202.826 222.146 201.802 222.458 213.799C222.958 233.646 229.444 262.028 229.444 262.028L222.335 262.651C222.335 262.651 211.56 240.034 208.731 220.618C195.873 221.387 184.025 220.864 174.529 220.864C163.869 220.864 163.049 209.898 173.373 197.108C179.703 197.139 186.066 202.826 186.066 202.826Z" fill="white"/>
<path id="Vector_112" d="M163.811 195.63L163.041 197.893C162.942 198.07 163.155 198.255 163.475 198.262L191.421 199.032C191.667 199.032 191.872 198.932 191.897 198.793L192.208 196.485C192.208 196.331 192.027 196.184 191.757 196.177L164.254 195.407C164.165 195.401 164.077 195.419 163.998 195.458C163.92 195.498 163.855 195.557 163.811 195.63Z" fill="white"/>
<path id="Vector_113" d="M167.411 198.617H166.673C166.525 198.617 166.419 198.54 166.427 198.447L166.87 195.492C166.87 195.407 167.009 195.338 167.157 195.346H167.895C168.043 195.346 168.149 195.423 168.141 195.507L167.698 198.462C167.69 198.555 167.559 198.624 167.411 198.617Z" fill="#263238"/>
</g>
<g id="Group 46">
<path id="Vector_114" d="M189.346 199.232H188.608C188.461 199.232 188.354 199.155 188.362 199.07L188.805 196.116C188.805 196.031 188.945 195.961 189.092 195.961H189.83C189.977 195.961 190.084 196.038 190.076 196.131L189.633 199.078C189.625 199.171 189.494 199.232 189.346 199.232Z" fill="#263238"/>
<path id="Vector_115" d="M178.375 198.924H177.645C177.497 198.924 177.383 198.847 177.399 198.763L177.833 195.807C177.833 195.723 177.981 195.654 178.129 195.661H178.867C179.014 195.661 179.121 195.746 179.105 195.831L178.67 198.786C178.653 198.862 178.522 198.932 178.375 198.924Z" fill="#263238"/>
</g>
</g>
<g id="girl-hand">
<path id="Vector_116" d="M197.227 170.928C197.333 171.474 197.489 172.182 197.628 172.813C197.767 173.444 197.94 174.121 198.12 174.768C198.473 176.061 198.867 177.346 199.309 178.616C199.755 179.847 200.267 181.057 200.843 182.24C201.398 183.365 202.054 184.443 202.803 185.465L202.933 185.657L202.885 185.596C202.85 185.558 202.812 185.525 202.769 185.495C202.702 185.433 202.627 185.376 202.548 185.326C202.347 185.189 202.113 185.099 201.867 185.064C201.646 185.064 201.769 185.064 201.949 185.064C202.51 185.009 203.06 184.89 203.589 184.711C204.92 184.28 206.223 183.778 207.493 183.21C210.141 182.048 212.839 180.739 215.488 179.439L217.415 181.994C215.082 183.961 212.596 185.761 209.977 187.381C208.608 188.234 207.175 188.993 205.689 189.651C204.811 190.042 203.89 190.339 202.942 190.536C202.222 190.684 201.48 190.704 200.753 190.598C200.131 190.498 199.541 190.272 199.022 189.936C198.866 189.834 198.717 189.721 198.579 189.597L198.375 189.397L198.219 189.243L198.013 188.997C195.875 186.522 194.192 183.728 193.036 180.732C192.459 179.303 191.963 177.847 191.552 176.368C191.347 175.599 191.167 174.891 190.995 174.145C190.822 173.398 190.691 172.682 190.568 171.836L197.227 170.928Z" fill="#FFC3BD"/>
<path id="Vector_117" d="M222.499 179.262C222.427 179.26 222.356 179.241 222.294 179.205C222.233 179.171 222.182 179.121 222.146 179.062L215.66 167.403C215.636 167.36 215.621 167.312 215.617 167.264C215.613 167.215 215.619 167.166 215.635 167.119C215.651 167.073 215.677 167.03 215.71 166.993C215.744 166.955 215.785 166.925 215.832 166.903C215.925 166.859 216.032 166.851 216.132 166.879C216.231 166.908 216.315 166.971 216.365 167.057L222.859 178.716C222.884 178.759 222.898 178.806 222.902 178.855C222.907 178.904 222.901 178.953 222.885 178.999C222.869 179.046 222.843 179.089 222.809 179.126C222.775 179.163 222.734 179.194 222.687 179.216C222.63 179.247 222.565 179.262 222.499 179.262Z" fill="#263238"/>
<path id="Vector_118" d="M219.76 172.629L217.3 174.044C216.679 174.402 216.204 174.944 215.947 175.584L213.651 181.201L212.593 184.772C215.053 185.603 219.514 180.155 219.514 180.155L222.319 178.177C222.541 178.019 222.709 177.802 222.799 177.554C222.89 177.306 222.9 177.038 222.827 176.784L221.867 173.429C221.814 173.227 221.711 173.039 221.566 172.882C221.421 172.724 221.237 172.601 221.032 172.523C220.826 172.445 220.603 172.414 220.382 172.432C220.161 172.45 219.948 172.518 219.76 172.629Z" fill="#FFC3BD"/>
</g>
<g id="Group 45">
<g id="Group 2">
<path id="Vector_119" d="M220.129 277.819H218.94L213.979 230.068C213.561 226.105 210.814 223.142 207.591 223.142H197.751C194.521 223.142 191.781 226.128 191.363 230.068L186.443 277.819H185.238L190.24 229.853C190.724 225.166 193.971 221.626 197.792 221.626H207.632C211.453 221.626 214.701 225.166 215.193 229.853L220.129 277.819Z" fill="#263238"/>
<path id="Vector_120" d="M183.089 277.819H181.901L176.931 230.068C176.521 226.105 173.775 223.142 170.543 223.142H160.72C157.489 223.142 154.742 226.128 154.332 230.068L149.363 277.819H148.174L153.193 229.853C153.676 225.166 156.923 221.626 160.753 221.626H170.56C174.381 221.626 177.637 225.166 178.121 229.853L183.089 277.819Z" fill="#263238"/>
<path id="Vector_121" d="M216.816 218.309L198.44 217.601L193.635 191.09C191.175 177.43 178.571 166.365 165.509 166.365H154.004C140.941 166.365 132.365 177.43 134.841 191.09L138.121 209.39C139.351 216.162 145.599 221.657 152.061 221.657H224.68C224.832 221.637 224.974 221.574 225.086 221.475C225.198 221.376 225.274 221.246 225.304 221.105C225.334 220.963 225.316 220.817 225.252 220.685C225.189 220.554 225.084 220.444 224.951 220.372C222.43 219.141 219.655 218.438 216.816 218.309Z" fill="#673DE6"/>
</g>
<path id="Vector_122" d="M193.963 161.663C198.719 165.102 198.719 175.214 198.719 175.214L190.519 177.346C190.519 177.346 184.623 170.643 186.115 167.465C187.681 164.156 191.396 159.823 193.963 161.663Z" fill="#263238"/>
</g>
<g id="Group 38">
<path id="Vector_123" d="M221.137 221.072H215.315V219.664H221.137C235.775 219.664 247.689 207.174 247.689 191.821V187.065H249.181V191.821C249.181 207.951 236.603 221.072 221.137 221.072Z" fill="#263238"/>
<path id="Vector_124" d="M311.863 262.143L322.367 260.05L324.343 271.824L315.569 273.586L311.863 262.143Z" fill="#B55B52"/>
<path id="Vector_125" opacity="0.2" d="M318.471 215.816C320.62 206.982 323.818 197.939 324.655 189.104C313.289 177.469 314.724 201.194 318.471 215.816Z" fill="black"/>
<path id="Vector_126" opacity="0.2" d="M336.2 263.605L346.959 263.697L347.221 270.362L337.455 270.285L336.2 263.605Z" fill="black"/>
<path id="Vector_127" d="M310.403 109.032C320.348 108.148 330.366 108.298 340.275 109.479C341.632 109.667 342.933 110.113 344.099 110.79C345.266 111.467 346.273 112.36 347.058 113.415C347.844 114.469 348.391 115.664 348.667 116.924C348.943 118.185 348.942 119.485 348.664 120.745C344.023 142.693 347.491 167.195 344.49 172.105C344.49 172.105 311.354 172.644 292.01 171.397C286.721 147.541 297.127 132.989 302.351 114.381C303.277 111.233 306.918 109.41 310.403 109.032Z" fill="#673DE6"/>
</g>
<g id="Group 44">
<path id="Vector_128" d="M315.109 110.679C315.766 109.498 316.826 108.558 318.119 108.009C318.607 106.826 318.644 105.521 318.225 104.315L332.92 99.9211C331.731 104.484 330.796 108.094 332.609 110.31C329.714 111.972 324.409 114.927 318.669 114.789C312.929 114.65 314.167 112.595 315.109 110.679Z" fill="#B55B52"/>
<g id="Group 27">
<path id="Vector_129" opacity="0.2" d="M318.341 104.746L329.386 104.138C325.933 107.601 320.702 108.902 318.307 107.493C318.571 106.596 318.583 105.649 318.341 104.746Z" fill="black"/>
<path id="Vector_130" d="M318.307 114.774L320.702 112.88L323.908 114.419C323.908 114.419 321.858 116.228 318.307 114.774Z" fill="#673DE6"/>
<path id="Vector_131" opacity="0.3" d="M318.307 114.774L320.702 112.88L323.908 114.419C323.908 114.419 321.858 116.228 318.307 114.774Z" fill="black"/>
<path id="Vector_132" d="M326.45 85.6457C326.27 81.4054 321.907 79.4893 318.127 81.6979C314.347 83.9065 314.027 90.7325 316.807 94.2955C319.587 97.8586 326.45 85.6457 326.45 85.6457Z" fill="#F5F5F5"/>
</g>
</g>
<g id="Group 43">
<path id="Vector_133" d="M335.815 92.9335C334.06 98.8745 332.715 102.876 328.147 104.792C319.054 108.586 315.027 104.561 314.675 98.2819C314.388 92.6334 317.307 83.868 324.605 82.5906C331.903 81.3132 337.569 86.985 335.815 92.9335Z" fill="#B55B52"/>
<g id="Group 26">
<path id="Vector_134" d="M330.78 89.8399C328.82 91.5867 328.041 99.313 331.001 99.1822C333.018 99.0743 335.023 98.8324 337.003 98.4589C337.003 98.4589 340.767 97.1201 338.709 91.8255C336.651 86.5308 330.78 89.8399 330.78 89.8399Z" fill="#E0E0E0"/>
<path id="Vector_135" opacity="0.2" d="M325.54 92.2101C326.373 92.0086 327.256 92.1219 328 92.5255C327.166 92.5698 326.331 92.4627 325.54 92.2101Z" fill="black"/>
<path id="Vector_136" opacity="0.2" d="M325.458 92.7642C325.844 92.7445 326.229 92.8032 326.589 92.9358C326.948 93.0688 327.273 93.2726 327.541 93.5337C326.796 93.4208 326.085 93.1584 325.458 92.7642Z" fill="black"/>
<path id="Vector_137" opacity="0.2" d="M319.964 85.9459C322.041 85.9369 324.113 86.1326 326.147 86.5308C322.695 86.3001 319.964 85.9459 319.964 85.9459Z" fill="black"/>
<path id="Vector_138" opacity="0.2" d="M318.98 86.4537C318.98 86.4537 323.703 86.9388 325.893 87.8928C323.558 87.5529 321.249 87.0723 318.98 86.4537Z" fill="black"/>
<path id="Vector_139" d="M337.119 99.8904C336.521 100.493 335.803 100.979 335.005 101.321C334.207 101.663 333.346 101.854 332.469 101.884C330.115 101.937 329.493 99.8286 330.607 98.0356C331.616 96.412 334.051 94.4264 336.183 95.2345C336.645 95.4163 337.05 95.7025 337.365 96.0675C337.679 96.4326 337.892 96.8653 337.985 97.3266C338.078 97.7879 338.047 98.2632 337.896 98.7106C337.745 99.1581 337.477 99.5634 337.119 99.8904Z" fill="#B55B52"/>
<path id="Vector_140" d="M323.458 92.1259C323.56 91.5947 323.342 91.1137 322.972 91.051C322.602 90.9887 322.22 91.369 322.118 91.9002C322.017 92.4314 322.234 92.9125 322.604 92.9752C322.974 93.0374 323.356 92.6572 323.458 92.1259Z" fill="#263238"/>
<path id="Vector_141" d="M317.603 91.2638C317.504 91.7869 317.119 92.1641 316.783 92.0946C316.446 92.0252 316.2 91.5482 316.307 91.0174C316.413 90.4862 316.791 90.1091 317.127 90.1785C317.463 90.2479 317.709 90.7326 317.603 91.2638Z" fill="#263238"/>
</g>
</g>
<g id="Group 24">
<path id="Vector_142" d="M319.464 92.0176L318.644 96.4809C318.074 96.489 317.508 96.4137 316.963 96.2579C316.855 96.2207 316.76 96.1566 316.688 96.0724C316.616 95.9882 316.571 95.887 316.555 95.7804C316.54 95.6733 316.556 95.5645 316.602 95.4655C316.648 95.367 316.722 95.2814 316.815 95.2192C317.91 94.322 318.809 93.235 319.464 92.0176Z" fill="#A02724"/>
</g>
<g id="Group 25">
<path id="Vector_143" d="M326.77 91.1558C326.823 91.1733 326.881 91.1733 326.934 91.1558C326.974 91.1379 327.01 91.1124 327.039 91.081C327.068 91.0501 327.09 91.0134 327.104 90.974C327.118 90.9341 327.123 90.8925 327.119 90.8513C327.115 90.8096 327.102 90.7693 327.081 90.7326C326.853 90.2735 326.51 89.8721 326.082 89.5626C325.654 89.2536 325.153 89.0449 324.621 88.9548C324.578 88.9495 324.533 88.9526 324.49 88.9634C324.447 88.9746 324.406 88.9938 324.371 89.0193C324.336 89.0453 324.307 89.0771 324.285 89.1138C324.263 89.1501 324.25 89.1904 324.245 89.2321C324.237 89.315 324.263 89.3978 324.318 89.4632C324.373 89.5291 324.452 89.5725 324.539 89.5859C324.956 89.6652 325.347 89.8354 325.68 90.0827C326.014 90.3299 326.28 90.6475 326.459 91.0098C326.49 91.0595 326.536 91.1003 326.591 91.1263C326.646 91.1522 326.709 91.1625 326.77 91.1558Z" fill="#263238"/>
<path id="Vector_144" d="M315.643 89.4243C315.697 89.4323 315.753 89.4283 315.806 89.4122C315.859 89.3961 315.907 89.3687 315.946 89.332C316.226 89.0346 316.577 88.804 316.97 88.6593C317.364 88.5151 317.789 88.4604 318.209 88.5012C318.296 88.5146 318.385 88.4954 318.457 88.4479C318.529 88.4004 318.578 88.3283 318.595 88.2472C318.609 88.1644 318.589 88.0802 318.539 88.0112C318.488 87.9422 318.411 87.8943 318.324 87.8777C317.794 87.819 317.257 87.8808 316.757 88.0578C316.258 88.2347 315.811 88.5209 315.454 88.8935C315.422 88.9222 315.396 88.9567 315.379 88.9952C315.361 89.0337 315.352 89.0749 315.352 89.1166C315.352 89.1582 315.361 89.1994 315.379 89.238C315.396 89.2765 315.422 89.311 315.454 89.3396C315.504 89.3885 315.571 89.4189 315.643 89.4243Z" fill="#263238"/>
<path id="Vector_145" d="M331.625 107.232C331.625 107.232 326.877 112.619 320.702 112.911C324.293 114.512 324.901 118.298 324.901 118.298C324.901 118.298 332.617 116.097 334.068 108.394C333.788 108.033 333.42 107.739 332.995 107.537C332.57 107.335 332.1 107.23 331.625 107.232Z" fill="white"/>
<path id="Vector_146" d="M318.307 114.774L315.601 112.465L312.157 113.427C312.157 113.427 314.757 116.228 318.307 114.774Z" fill="#673DE6"/>
<path id="Vector_147" opacity="0.3" d="M318.307 114.774L315.601 112.465L312.157 113.427C312.157 113.427 314.757 116.228 318.307 114.774Z" fill="black"/>
</g>
<g id="Group 42">
<g id="Group 3">
<path id="Vector_148" opacity="0.2" d="M311.863 262.143L322.375 260.05L323.482 266.645L313.937 268.553L311.863 262.143Z" fill="black"/>
<path id="Vector_149" d="M318.16 217.27C321.653 202.002 328.877 186.065 322.047 171.52L292.067 171.428C292.067 171.428 294.355 204.865 295.405 218.956C296.504 233.577 312.313 266.799 312.313 266.799L324.327 264.321C324.327 264.321 320.907 233.624 318.16 217.27Z" fill="#263238"/>
<path id="Vector_150" d="M326.737 275.095L323.974 275.672L323.154 274.903L322.145 276.034L317.053 278.104C315.187 278.865 313.175 279.258 311.141 279.258H306.959C306.896 278.209 307.128 277.164 307.631 276.226C307.631 276.226 311.665 275.564 313.749 272.417C313.888 272.25 314.07 272.118 314.278 272.032C314.485 271.946 314.712 271.909 314.937 271.924C316.865 271.878 321.932 271.609 324.457 270.054C324.517 270.021 324.585 270.002 324.654 269.997C324.723 269.993 324.792 270.004 324.856 270.029C324.92 270.055 324.976 270.094 325.021 270.144C325.066 270.194 325.098 270.252 325.113 270.316C325.518 271.947 326.061 273.545 326.737 275.095Z" fill="#263238"/>
<path id="Vector_151" d="M336.2 263.598L346.95 263.697L347.417 275.595L338.439 275.526L336.2 263.598Z" fill="#B55B52"/>
<path id="Vector_152" d="M347.893 217.27C348.763 202.002 349.943 179.154 344.49 172.136L311.009 171.428C311.009 171.428 320.317 204.865 323.793 218.956C327.401 233.577 336.257 268.207 336.257 268.207H347.877C347.877 268.207 352.264 234.701 347.893 217.27Z" fill="#263238"/>
<path id="Vector_153" d="M348.943 279.281H346.606L345.975 278.388L344.745 279.289H330.641C330.556 278.246 330.765 277.2 331.247 276.256C331.247 276.256 335.462 275.895 337.085 273.948C337.142 273.871 337.221 273.812 337.313 273.777C337.404 273.741 337.505 273.731 337.602 273.748C339.013 274.025 344.589 275.018 347.655 273.979C347.732 273.95 347.814 273.94 347.896 273.947C347.977 273.955 348.056 273.981 348.124 274.023C348.192 274.066 348.249 274.123 348.289 274.19C348.328 274.258 348.35 274.333 348.353 274.41C348.414 276.046 348.612 277.674 348.943 279.281Z" fill="#263238"/>
</g>
<g id="Group 41">
<path id="Vector_154" d="M318.439 116.782C319.103 115.812 319.447 114.781 318.701 114.319C318.168 113.996 316.569 113.55 316.241 114.558C315.913 115.566 315.954 116.428 316.405 116.867C316.541 116.994 316.702 117.093 316.881 117.159C317.059 117.224 317.25 117.253 317.442 117.246C317.634 117.237 317.821 117.192 317.992 117.113C318.164 117.032 318.316 116.92 318.439 116.782Z" fill="#263238"/>
<path id="Vector_155" d="M318.775 114.535C320.169 112.719 324.269 112.072 324.269 113.565C324.269 116.436 324.171 119.337 322.859 120.014C321.547 120.691 319.48 116.251 318.471 116.166L318.775 114.535Z" fill="#263238"/>
<path id="Vector_156" d="M316.52 114.419C315.7 112.503 313.101 111.826 312.674 113.25C311.854 115.982 311.739 118.244 312.674 119.029C313.609 119.814 315.659 116.059 316.487 116.09L316.52 114.419Z" fill="#263238"/>
</g>
</g>
<g id="sir-left-hand">
<path id="Vector_157" d="M305.458 126.109L304.958 126.525L304.581 126.825L303.851 127.371C303.375 127.71 302.9 128.025 302.416 128.333C301.472 128.939 300.492 129.494 299.481 129.995C297.472 131.005 295.363 131.828 293.183 132.45C292.092 132.766 290.969 133.02 289.845 133.219C288.722 133.42 287.574 133.574 286.426 133.681C284.125 133.884 281.808 133.856 279.513 133.597L278.644 133.497C277.842 133.406 277.073 133.143 276.397 132.727C274.513 131.556 272.83 130.124 271.403 128.479C270.166 127.057 269.068 125.532 268.123 123.923C267.238 122.411 266.465 120.842 265.811 119.229C265.491 118.46 265.213 117.628 264.942 116.82C264.671 116.012 264.483 115.22 264.261 114.281C264.073 113.498 264.16 112.68 264.509 111.948C264.859 111.216 265.451 110.609 266.198 110.22C266.946 109.831 267.808 109.68 268.654 109.789C269.501 109.898 270.287 110.262 270.895 110.826L271.305 111.21C271.781 111.657 272.339 112.249 272.855 112.749C273.371 113.25 273.913 113.811 274.429 114.335C275.487 115.374 276.521 116.382 277.578 117.29C278.55 118.196 279.588 119.037 280.686 119.806C281.513 120.395 282.421 120.876 283.384 121.238L280.276 120.383C281.629 120.297 282.972 120.112 284.294 119.829C285.617 119.535 286.916 119.152 288.181 118.683C289.457 118.193 290.7 117.63 291.903 116.997C292.511 116.682 293.093 116.335 293.659 116.005C293.945 115.836 294.216 115.659 294.479 115.497L294.847 115.258L294.995 115.158H295.053H295.003C296.555 113.858 298.593 113.19 300.67 113.3C302.747 113.411 304.692 114.291 306.077 115.747C307.463 117.203 308.175 119.116 308.057 121.065C307.94 123.014 307.002 124.84 305.45 126.14L305.458 126.109Z" fill="#B65B52"/>
<path id="Vector_158" d="M266.418 115.882L269.542 112.803C271.387 108.694 265.344 107.378 265.344 107.378L261.58 104.8C261.094 104.525 260.519 104.419 259.958 104.502C259.397 104.585 258.886 104.851 258.513 105.254L256.315 107.394C256.073 107.595 255.876 107.839 255.735 108.112C255.594 108.385 255.511 108.682 255.492 108.985C255.473 109.288 255.518 109.592 255.624 109.878C255.73 110.165 255.896 110.429 256.111 110.656L259.251 113.342C259.833 113.881 260.549 114.275 261.334 114.489L266.418 115.882Z" fill="#B55B52"/>
<path id="Vector_159" d="M270.707 111.857C271.74 108.34 269.124 106.162 267.673 103.884C267.419 103.499 266.164 103.707 266.098 104.523C266.015 105.02 266.04 105.528 266.171 106.016C266.302 106.504 266.537 106.962 266.861 107.363C266.098 108.255 264.967 111.38 267.623 113.412C268.819 113.266 269.917 112.712 270.707 111.857Z" fill="#B55B52"/>
</g>
<g id="Group 40">
<path id="Vector_160" d="M308.959 109.286C301.695 108.886 291.051 116.728 291.051 116.728C290.042 119.337 292.527 129.041 296.971 133.274C296.971 133.274 302.071 134.412 306.533 129.364C311.387 123.862 316.659 109.702 308.959 109.286Z" fill="#673DE6"/>
<path id="Vector_161" d="M341.711 109.617C341.347 109.405 340.942 109.264 340.52 109.202C340.097 109.14 339.666 109.158 339.251 109.256C336.692 112.019 325.581 132.127 330.149 169.396H332.748C328.156 132.119 339.152 112.38 341.711 109.617Z" fill="white"/>
</g>
<g id="Group 39">
<path id="Vector_162" d="M318.16 108.009C318.16 108.009 315.757 110.618 315.643 112.503C312.756 113.273 311.362 117.244 311.362 117.244C311.362 117.244 310.837 111.557 315.372 108.494C316.229 108.074 317.2 107.906 318.16 108.009Z" fill="white"/>
<path id="Vector_163" d="M332.994 172.444L332.764 169.697C332.746 169.551 332.668 169.419 332.547 169.327C332.426 169.235 332.272 169.191 332.117 169.204L330.862 169.266C330.709 169.272 330.564 169.334 330.46 169.439C330.356 169.544 330.3 169.684 330.304 169.827L330.534 172.582C330.554 172.727 330.633 172.858 330.754 172.95C330.874 173.041 331.027 173.086 331.181 173.075L332.436 173.006C332.512 173.004 332.587 172.987 332.657 172.958C332.726 172.929 332.788 172.887 332.84 172.834C332.892 172.782 332.933 172.721 332.959 172.654C332.985 172.586 332.997 172.515 332.994 172.444Z" fill="white"/>
<path id="Vector_164" d="M333.051 170.682H330.247C330.097 170.678 329.953 170.626 329.838 170.535C329.723 170.444 329.645 170.32 329.615 170.181L329.435 169.119C329.421 169.057 329.423 168.993 329.439 168.932C329.456 168.871 329.487 168.814 329.53 168.766C329.574 168.718 329.628 168.679 329.69 168.654C329.752 168.629 329.819 168.617 329.886 168.619H332.691C332.839 168.624 332.982 168.676 333.096 168.767C333.209 168.858 333.286 168.982 333.313 169.119L333.502 170.181C333.516 170.243 333.515 170.307 333.498 170.368C333.481 170.43 333.45 170.487 333.407 170.535C333.363 170.583 333.309 170.622 333.247 170.647C333.185 170.672 333.119 170.684 333.051 170.682Z" fill="#263238"/>
<path id="Vector_165" d="M311.083 109.032C310.599 108.671 309.075 108.879 308.312 109.286C305.631 112.049 293.552 132.158 296.373 169.427H298.972C296.159 132.119 308.402 111.765 311.083 109.032Z" fill="white"/>
</g>
<path id="Vector_166" d="M299.095 172.444L298.997 169.697C298.992 169.625 298.971 169.556 298.937 169.492C298.903 169.429 298.855 169.372 298.796 169.326C298.739 169.28 298.671 169.245 298.598 169.224C298.526 169.204 298.449 169.197 298.373 169.204L297.111 169.266C296.956 169.273 296.81 169.335 296.702 169.439C296.594 169.544 296.532 169.682 296.529 169.827L296.627 172.582C296.641 172.725 296.715 172.856 296.831 172.948C296.948 173.04 297.098 173.086 297.25 173.075L298.513 173.006C298.668 173 298.815 172.938 298.923 172.834C299.032 172.729 299.093 172.59 299.095 172.444Z" fill="white"/>
<g id="Group 36">
<g id="Group 35">
<path id="Vector_167" d="M299.235 170.681H296.43C296.283 170.678 296.141 170.626 296.03 170.535C295.919 170.443 295.846 170.318 295.823 170.182L295.692 169.119C295.683 169.056 295.688 168.992 295.707 168.931C295.727 168.87 295.761 168.813 295.806 168.766C295.851 168.718 295.907 168.68 295.969 168.655C296.032 168.63 296.1 168.618 296.167 168.619H298.972C299.119 168.623 299.261 168.675 299.372 168.766C299.483 168.858 299.556 168.983 299.579 169.119L299.71 170.182C299.719 170.245 299.714 170.309 299.695 170.37C299.675 170.431 299.641 170.488 299.596 170.535C299.551 170.583 299.495 170.621 299.433 170.646C299.37 170.671 299.302 170.683 299.235 170.681Z" fill="#263238"/>
<path id="Vector_168" d="M325.393 77.7192C322.211 75.3413 316.938 81.6979 323.9 85.2301C332.625 89.6629 331.575 96.8195 342.859 94.7265C338.029 91.5482 341.095 89.1241 339.053 84.5376C336.774 79.3895 330.55 81.5671 325.393 77.7192Z" fill="#F5F5F5"/>
</g>
<g id="Group 34">
<path id="Vector_169" d="M320.538 81.5286C321.571 85.084 322.826 85.9153 323.99 86.846C323.175 85.6228 322.59 84.2769 322.26 82.8678L320.538 81.5286Z" fill="#F5F5F5"/>
<path id="Vector_170" d="M315.881 98.1202C315.881 98.1202 318.341 97.9432 324.991 98.8897C323.917 100.66 322.219 101.968 318.808 101.483C318.373 101.461 317.948 101.354 317.56 101.169C317.172 100.983 316.829 100.724 316.554 100.408C316.278 100.091 316.076 99.7245 315.96 99.3304C315.844 98.9367 315.817 98.5246 315.881 98.1202Z" fill="#263238"/>
<path id="Vector_171" d="M320.62 100.206C319.321 99.9525 317.969 100.09 316.758 100.598C317.328 101.075 318.041 101.375 318.799 101.46C320.096 101.716 321.446 101.579 322.653 101.068C322.091 100.585 321.378 100.283 320.62 100.206Z" fill="#A02724"/>
<path id="Vector_172" d="M316.192 98.1125C316.222 98.3517 316.321 98.5784 316.478 98.7687C316.636 98.9586 316.846 99.1042 317.086 99.1897C319.062 99.4612 321.059 99.5799 323.055 99.544C323.37 99.5597 323.684 99.5028 323.97 99.3779C324.256 99.2529 324.505 99.0643 324.695 98.8283C321.885 98.3849 319.042 98.1452 316.192 98.1125Z" fill="white"/>
<path id="Vector_173" d="M315.741 102.699C315.807 104.369 317.594 105.777 317.127 106.824C319.337 106.981 321.548 106.515 323.473 105.485C323.617 105.385 323.726 105.248 323.788 105.091C323.85 104.934 323.861 104.763 323.821 104.599C323.781 104.436 323.691 104.287 323.563 104.171C323.434 104.055 323.272 103.977 323.097 103.945C321.691 103.815 320.343 103.355 319.177 102.607C319.029 102.489 318.842 102.425 318.648 102.425C318.454 102.425 318.267 102.489 318.119 102.607C316.709 103.645 315.741 102.699 315.741 102.699Z" fill="#F5F5F5"/>
</g>
</g>
<g id="sir-right-hand">
<path id="Vector_174" d="M351.059 118.098L351.797 118.968L352.453 119.737C352.871 120.26 353.273 120.799 353.666 121.33C354.486 122.392 355.207 123.492 355.929 124.6C357.391 126.861 358.678 129.217 359.783 131.65C360.978 134.22 361.885 136.899 362.489 139.645C363.206 142.732 363.325 145.915 362.842 149.042L362.743 149.673C362.656 150.19 362.47 150.688 362.194 151.143C361.214 152.75 360.118 154.293 358.914 155.76C357.762 157.162 356.527 158.504 355.216 159.777C353.912 161.024 352.575 162.209 351.165 163.325C349.742 164.456 348.244 165.502 346.679 166.457C345.948 166.909 345.078 167.121 344.205 167.062C343.331 167.002 342.503 166.674 341.849 166.128C341.194 165.581 340.75 164.847 340.586 164.04C340.422 163.232 340.546 162.397 340.939 161.662L341.12 161.362C341.825 160.038 342.678 158.63 343.441 157.276C344.203 155.921 344.991 154.567 345.712 153.22C346.433 151.874 347.114 150.542 347.779 149.249C348.443 147.957 348.951 146.648 349.459 145.401L348.811 147.495C348.772 145.95 348.495 144.418 347.991 142.947C347.703 142.069 347.367 141.206 346.983 140.361C346.606 139.484 346.163 138.591 345.695 137.698C344.736 135.921 343.662 134.12 342.481 132.358C341.907 131.465 341.276 130.596 340.669 129.726L339.734 128.441L338.873 127.294L338.586 126.909C337.374 125.349 336.866 123.404 337.17 121.494C337.474 119.585 338.567 117.864 340.212 116.704C341.857 115.545 343.922 115.04 345.961 115.298C347.999 115.555 349.848 116.556 351.107 118.083L351.059 118.098Z" fill="#B65B52"/>
<path id="Vector_175" d="M346.253 172.105L304.63 144.886L305.089 144.263L347.114 170.928L346.253 172.105Z" fill="#263238"/>
<path id="Vector_176" d="M342.661 160.916L346.696 162.832C349.911 166.126 344.679 169.266 344.679 169.266L342.817 171.728C342.46 172.143 341.957 172.425 341.398 172.524C340.839 172.623 340.261 172.532 339.767 172.267L336.93 170.943C336.629 170.829 336.356 170.66 336.125 170.447C335.894 170.233 335.711 169.979 335.585 169.699C335.459 169.418 335.394 169.117 335.393 168.813C335.391 168.509 335.454 168.208 335.577 167.926L336.807 165.564C337.161 164.873 337.694 164.275 338.357 163.825L342.661 160.916Z" fill="#B55B52"/>
</g>
<path id="Vector_177" d="M342.85 110.187C349.705 112.496 356.167 123.377 356.167 123.377C355.88 127.34 349.156 136.313 344.4 138.276C341.081 135.606 338.621 132.12 337.299 128.21C335.117 121.346 339.324 111.172 342.85 110.187Z" fill="#673DE6"/>
</g>
<defs>
<clipPath id="clip0">
<rect width="410" height="288" fill="white"/>
</clipPath>
</defs>
</svg>
