<svg width="915" height="643" viewBox="0 0 915 643" fill="none" xmlns="http://www.w3.org/2000/svg">
<path d="M915 565.409H0V565.838H915V565.409Z" fill="#EBEBEB"/>
<path d="M814.826 585.082H721.679V585.511H814.826V585.082Z" fill="#EBEBEB"/>
<path d="M182.396 579.996H96.0018V580.426H182.396V579.996Z" fill="#EBEBEB"/>
<path d="M728.34 577.109H693.222V577.539H728.34V577.109Z" fill="#EBEBEB"/>
<path d="M606.133 588.501H580.366V588.93H606.133V588.501Z" fill="#EBEBEB"/>
<path d="M564.061 588.501H499.206V588.93H564.061V588.501Z" fill="#EBEBEB"/>
<path d="M461.544 581.25H357.253V581.68H461.544V581.25Z" fill="#EBEBEB"/>
<path d="M433.71 488.78H80.3553C77.5872 488.776 74.934 487.74 72.9784 485.901C71.0227 484.061 69.9243 481.568 69.9243 478.97V12.6158C69.9484 10.0317 71.0574 7.56097 73.0105 5.74016C74.9636 3.91935 77.6029 2.89554 80.3553 2.89111H433.71C436.481 2.89111 439.139 3.92472 441.099 5.76456C443.058 7.6044 444.159 10.0997 444.159 12.7017V478.97C444.159 481.571 443.058 484.067 441.099 485.907C439.139 487.747 436.481 488.78 433.71 488.78ZM80.3553 3.23474C77.7085 3.23929 75.1717 4.22965 73.3019 5.98844C71.432 7.74723 70.3818 10.1307 70.3818 12.6158V478.97C70.3818 481.455 71.432 483.838 73.3019 485.597C75.1717 487.356 77.7085 488.346 80.3553 488.351H433.71C436.359 488.346 438.897 487.356 440.77 485.598C442.643 483.84 443.697 481.456 443.702 478.97V12.6158C443.697 10.1292 442.643 7.7457 440.77 5.9874C438.897 4.2291 436.359 3.23928 433.71 3.23474H80.3553Z" fill="#EBEBEB"/>
<path d="M829.557 488.78H476.184C473.414 488.776 470.759 487.74 468.801 485.902C466.842 484.063 465.74 481.57 465.735 478.97V12.6158C465.764 10.0302 466.877 7.55942 468.833 5.73908C470.789 3.91875 473.43 2.89549 476.184 2.89111H829.557C832.306 2.90006 834.941 3.92586 836.89 5.74619C838.839 7.56652 839.946 10.0347 839.97 12.6158V478.97C839.97 481.566 838.874 484.056 836.922 485.895C834.971 487.733 832.322 488.771 829.557 488.78ZM476.184 3.23474C473.536 3.23928 470.997 4.2291 469.124 5.9874C467.252 7.7457 466.197 10.1292 466.192 12.6158V478.97C466.197 481.456 467.252 483.84 469.124 485.598C470.997 487.356 473.536 488.346 476.184 488.351H829.557C832.206 488.346 834.744 487.356 836.617 485.598C838.49 483.84 839.544 481.456 839.549 478.97V12.6158C839.544 10.1292 838.49 7.7457 836.617 5.9874C834.744 4.2291 832.206 3.23928 829.557 3.23474H476.184Z" fill="#EBEBEB"/>
<path d="M410.817 59.624H107.073V422.529H410.817V59.624Z" fill="#E6E6E6"/>
<path d="M407.029 59.624H103.285V422.529H407.029V59.624Z" fill="#FAFAFA"/>
<path d="M398.537 414.557V67.6133L111.795 67.6133V414.557H398.537Z" fill="white"/>
<path d="M255.157 382.496C276.563 382.496 293.916 366.204 293.916 346.106C293.916 326.008 276.563 309.716 255.157 309.716C233.751 309.716 216.397 326.008 216.397 346.106C216.397 366.204 233.751 382.496 255.157 382.496Z" fill="#FAFAFA"/>
<path d="M296.24 241.076C296.24 247.708 290.018 252.828 286.724 258.258C283.43 263.687 281.6 271.367 275.744 274.563C269.888 277.759 262.257 275.353 255.193 275.353C248.13 275.353 240.352 277.655 234.643 274.563C228.933 271.47 227.048 263.773 223.663 258.258C220.277 252.743 214.128 247.777 214.128 241.076C214.128 234.376 220.35 229.324 223.663 223.981C226.975 218.637 228.787 210.872 234.643 207.676C240.499 204.48 248.111 206.868 255.175 206.868C262.239 206.868 270.035 204.583 275.726 207.676C281.417 210.768 283.339 218.448 286.706 223.981C290.073 229.513 296.24 234.462 296.24 241.076Z" fill="#EBEBEB"/>
<path d="M299.791 136.047L286.45 145.6L291.263 160.685L274.5 161.046L268.955 175.925L255.157 166.939L241.377 175.925L235.832 161.046L219.051 160.685L223.864 145.6L210.542 136.047L223.864 126.511L219.051 111.426L235.832 111.065L241.377 96.2031L255.157 105.172L268.955 96.2031L274.5 111.065L291.263 111.426L286.45 126.511L299.791 136.047Z" fill="#E0E0E0"/>
<path d="M762.945 559.052H799.088V420.845H762.945V559.052Z" fill="#F0F0F0"/>
<path d="M491.446 565.409H789.554V559.052H491.446V565.409Z" fill="#F0F0F0"/>
<path d="M762.945 420.845H481.912V559.052H762.945V420.845Z" fill="#F5F5F5"/>
<path d="M743.401 470.791H501.438V503.676H743.401V470.791Z" fill="#F0F0F0"/>
<path d="M743.401 513.831H501.438V546.716H743.401V513.831Z" fill="#F0F0F0"/>
<path d="M551.288 473.042H693.588C694.862 473.042 695.894 472.073 695.894 470.877V470.705C695.894 469.51 694.862 468.54 693.588 468.54H551.288C550.014 468.54 548.982 469.51 548.982 470.705V470.877C548.982 472.073 550.014 473.042 551.288 473.042Z" fill="#F5F5F5"/>
<path d="M551.288 516.081H693.588C694.862 516.081 695.894 515.112 695.894 513.916V513.745C695.894 512.549 694.862 511.58 693.588 511.58H551.288C550.014 511.58 548.982 512.549 548.982 513.745V513.916C548.982 515.112 550.014 516.081 551.288 516.081Z" fill="#F5F5F5"/>
<path d="M743.401 427.752H501.438V460.637H743.401V427.752Z" fill="#F0F0F0"/>
<path d="M551.288 430.02H693.588C694.862 430.02 695.894 429.051 695.894 427.855V427.683C695.894 426.488 694.862 425.518 693.588 425.518H551.288C550.014 425.518 548.982 426.488 548.982 427.683V427.855C548.982 429.051 550.014 430.02 551.288 430.02Z" fill="#F5F5F5"/>
<path d="M761.34 64.6816C773.997 52.7987 773.997 33.5326 761.34 21.6497C748.684 9.7667 728.163 9.76669 715.507 21.6496C702.85 33.5326 702.85 52.7987 715.507 64.6816C728.163 76.5646 748.684 76.5646 761.34 64.6816Z" fill="#F5F5F5"/>
<path d="M749.976 59.0282C759.303 50.272 759.303 36.0754 749.976 27.3192C740.65 18.563 725.529 18.563 716.203 27.3192C706.877 36.0754 706.877 50.272 716.203 59.0282C725.529 67.7844 740.65 67.7845 749.976 59.0282Z" fill="#EBEBEB"/>
<path d="M732.531 43.1642C732.531 43.9695 732.276 44.7568 731.8 45.4264C731.323 46.096 730.646 46.618 729.853 46.9262C729.061 47.2344 728.189 47.315 727.347 47.1579C726.506 47.0008 725.733 46.613 725.127 46.0435C724.52 45.474 724.107 44.7484 723.94 43.9586C723.773 43.1687 723.858 42.3499 724.187 41.6059C724.515 40.8618 725.071 40.2258 725.784 39.7784C726.497 39.331 727.336 39.0922 728.194 39.0922C729.344 39.0922 730.447 39.5212 731.26 40.2848C732.074 41.0485 732.531 42.0842 732.531 43.1642Z" fill="white"/>
<path d="M747.939 80.7914C744.544 80.8008 741.157 80.4667 737.838 79.7948C737.231 79.6287 736.715 79.2487 736.399 78.7343C736.083 78.2199 735.992 77.6108 736.143 77.0342C736.294 76.4576 736.676 75.9582 737.211 75.6402C737.745 75.3222 738.389 75.2102 739.009 75.3277C739.174 75.3277 755.955 79.056 767.374 70.62C774.694 65.2422 778.354 55.9987 778.354 43.1298C778.354 42.5192 778.612 41.9336 779.072 41.5018C779.532 41.0701 780.156 40.8275 780.806 40.8275C781.456 40.8275 782.08 41.0701 782.54 41.5018C783 41.9336 783.258 42.5192 783.258 43.1298C783.258 57.4591 778.921 67.9225 770.357 74.2109C763.875 78.69 755.984 81.0062 747.939 80.7914Z" fill="#EBEBEB"/>
<path d="M778.72 46.8411C777.516 46.8411 776.362 46.3921 775.511 45.593C774.66 44.794 774.181 43.7102 774.181 42.5801V34.522C774.181 33.3828 774.663 32.2903 775.521 31.4848C776.379 30.6792 777.543 30.2267 778.756 30.2267C779.97 30.2267 781.133 30.6792 781.991 31.4848C782.849 32.2903 783.331 33.3828 783.331 34.522V42.5801C783.329 43.1448 783.208 43.7035 782.974 44.224C782.741 44.7444 782.4 45.2163 781.971 45.6124C781.542 46.0086 781.034 46.3211 780.476 46.5319C779.918 46.7428 779.321 46.8479 778.72 46.8411Z" fill="#EBEBEB"/>
<path d="M457.5 643C653.461 643 812.319 634.292 812.319 623.551C812.319 612.809 653.461 604.102 457.5 604.102C261.539 604.102 102.681 612.809 102.681 623.551C102.681 634.292 261.539 643 457.5 643Z" fill="#F5F5F5"/>
<path d="M816.894 101.547H464.106V342.824H816.894V101.547Z" fill="#263238"/>
<path d="M557.857 212.779C556.051 212.67 554.288 212.214 552.678 211.439C551.592 210.966 550.458 210.597 549.293 210.339C548.083 210.159 546.857 210.09 545.633 210.133C543.863 210.265 542.083 210.06 540.399 209.532C538.791 208.773 537.361 207.722 536.19 206.439C535.366 205.61 534.466 204.851 533.5 204.171C532.45 203.584 531.348 203.084 530.206 202.676C528.506 202.161 526.937 201.325 525.594 200.219C524.423 198.961 523.533 197.494 522.977 195.907C522.566 194.825 522.032 193.789 521.385 192.814C520.677 191.889 519.867 191.037 518.97 190.271C517.599 189.18 516.484 187.835 515.694 186.319C515.133 184.744 514.909 183.08 515.035 181.423C515.086 180.274 515.019 179.123 514.834 177.987C514.555 176.897 514.156 175.838 513.644 174.825C512.71 173.352 512.216 171.669 512.216 169.954C512.216 168.239 512.71 166.557 513.644 165.083C514.154 164.064 514.552 162.999 514.834 161.905C515.021 160.768 515.088 159.617 515.035 158.468C514.911 156.806 515.134 155.136 515.694 153.555C516.489 152.047 517.604 150.709 518.97 149.62C519.867 148.854 520.677 148.002 521.385 147.077C522.029 146.101 522.562 145.064 522.977 143.985C523.537 142.394 524.427 140.922 525.594 139.655C526.949 138.565 528.515 137.731 530.206 137.198C531.356 136.808 532.46 136.307 533.5 135.703C534.473 135.044 535.374 134.296 536.19 133.47C537.37 132.201 538.799 131.157 540.399 130.394C542.083 129.866 543.863 129.661 545.633 129.793C546.857 129.836 548.083 129.767 549.293 129.587C550.458 129.328 551.592 128.96 552.678 128.487C554.288 127.712 556.051 127.255 557.857 127.147C559.669 127.257 561.437 127.713 563.054 128.487C564.133 128.962 565.262 129.331 566.422 129.587C567.632 129.767 568.857 129.836 570.082 129.793C571.851 129.661 573.632 129.866 575.315 130.394C576.918 131.152 578.348 132.197 579.524 133.47C581.1 135.23 583.175 136.534 585.509 137.232C587.282 137.639 588.902 138.495 590.193 139.707C591.483 140.919 592.395 142.44 592.829 144.105C593.244 145.185 593.777 146.221 594.421 147.198C595.129 148.122 595.939 148.974 596.836 149.74C598.202 150.829 599.317 152.168 600.112 153.675C600.672 155.257 600.895 156.926 600.771 158.589C600.718 159.738 600.785 160.889 600.972 162.025C601.254 163.119 601.652 164.184 602.161 165.204C603.096 166.677 603.59 168.36 603.59 170.074C603.59 171.789 603.096 173.472 602.161 174.945C601.65 175.958 601.251 177.017 600.972 178.107C600.787 179.243 600.719 180.394 600.771 181.543C600.897 183.2 600.673 184.864 600.112 186.44C599.322 187.955 598.207 189.3 596.836 190.391C595.939 191.157 595.129 192.01 594.421 192.934C593.774 193.909 593.24 194.946 592.829 196.027C592.385 197.676 591.468 199.179 590.177 200.373C588.886 201.567 587.272 202.405 585.509 202.796C584.366 203.204 583.264 203.704 582.214 204.291C581.248 204.971 580.348 205.73 579.524 206.559C578.354 207.842 576.923 208.893 575.315 209.652C573.632 210.18 571.851 210.385 570.082 210.253C568.857 210.21 567.632 210.279 566.422 210.459C565.262 210.715 564.133 211.084 563.054 211.559C561.427 212.291 559.66 212.706 557.857 212.779ZM546.346 209.343C547.394 209.316 548.442 209.385 549.476 209.549C550.699 209.822 551.889 210.213 553.026 210.717C554.482 211.548 556.153 211.988 557.857 211.988C559.561 211.988 561.233 211.548 562.688 210.717C563.826 210.213 565.015 209.822 566.239 209.549C567.521 209.36 568.821 209.291 570.118 209.343C571.764 209.467 573.419 209.28 574.986 208.793C576.478 208.085 577.804 207.104 578.884 205.906C579.741 205.027 580.691 204.232 581.72 203.535C582.813 202.899 583.972 202.37 585.179 201.955C586.756 201.467 588.216 200.697 589.48 199.687C590.567 198.508 591.389 197.134 591.895 195.649C592.345 194.519 592.908 193.431 593.579 192.402C594.327 191.429 595.179 190.531 596.123 189.721C597.392 188.701 598.436 187.458 599.197 186.062C599.709 184.589 599.902 183.035 599.764 181.492C599.715 180.279 599.794 179.064 600.002 177.866C600.289 176.686 600.7 175.535 601.228 174.43C602.114 173.066 602.583 171.5 602.583 169.903C602.583 168.305 602.114 166.739 601.228 165.375C600.703 164.269 600.293 163.119 600.002 161.939C599.795 160.741 599.715 159.527 599.764 158.314C599.902 156.77 599.709 155.216 599.197 153.744C598.436 152.347 597.392 151.104 596.123 150.084C595.179 149.274 594.327 148.376 593.579 147.404C592.908 146.374 592.345 145.287 591.895 144.156C591.507 142.625 590.674 141.224 589.488 140.111C588.302 138.998 586.811 138.215 585.179 137.851C583.972 137.436 582.813 136.906 581.72 136.27C580.695 135.569 579.745 134.774 578.884 133.899C577.809 132.696 576.482 131.714 574.986 131.013C573.419 130.525 571.764 130.338 570.118 130.463C567.553 130.671 564.978 130.194 562.688 129.088C561.233 128.257 559.561 127.817 557.857 127.817C556.153 127.817 554.482 128.257 553.026 129.088C550.737 130.194 548.161 130.671 545.596 130.463C543.952 130.345 542.299 130.525 540.728 130.995C539.236 131.709 537.91 132.696 536.831 133.899C535.974 134.778 535.023 135.573 533.994 136.27C532.901 136.906 531.743 137.436 530.535 137.851C528.955 138.329 527.492 139.101 526.235 140.119C525.147 141.298 524.326 142.671 523.819 144.156C523.373 145.288 522.809 146.376 522.136 147.404C521.387 148.376 520.535 149.274 519.592 150.084C518.317 151.099 517.272 152.344 516.517 153.744C516.005 155.216 515.812 156.77 515.95 158.314C515.999 159.527 515.92 160.741 515.712 161.939C515.422 163.119 515.011 164.269 514.486 165.375C513.6 166.739 513.132 168.305 513.132 169.903C513.132 171.5 513.6 173.066 514.486 174.43C515.014 175.535 515.425 176.686 515.712 177.866C515.92 179.064 516 180.279 515.95 181.492C515.812 183.035 516.005 184.589 516.517 186.062C517.278 187.458 518.323 188.701 519.592 189.721C520.535 190.531 521.387 191.429 522.136 192.402C522.806 193.431 523.37 194.519 523.819 195.649C524.33 197.132 525.151 198.505 526.235 199.687C527.498 200.697 528.959 201.467 530.535 201.955C531.743 202.37 532.901 202.899 533.994 203.535C535.023 204.232 535.974 205.027 536.831 205.906C537.911 207.104 539.236 208.085 540.728 208.793C542.297 209.271 543.951 209.458 545.596 209.343H546.346Z" fill="white"/>
<path d="M557.857 194.017C572.037 194.017 583.532 183.224 583.532 169.911C583.532 156.598 572.037 145.806 557.857 145.806C543.677 145.806 532.182 156.598 532.182 169.911C532.182 183.224 543.677 194.017 557.857 194.017Z" fill="white"/>
<path d="M576.194 146.235C576.133 146.238 576.072 146.228 576.016 146.208C575.959 146.187 575.907 146.155 575.864 146.115C575.82 146.075 575.785 146.027 575.761 145.974C575.737 145.921 575.724 145.863 575.724 145.806C575.724 145.748 575.737 145.691 575.761 145.638C575.785 145.585 575.82 145.537 575.864 145.496L595.994 126.597C596.037 126.557 596.089 126.525 596.146 126.504C596.202 126.484 596.263 126.474 596.324 126.477H636.035C636.156 126.477 636.273 126.522 636.358 126.603C636.444 126.683 636.492 126.792 636.492 126.906C636.492 127.02 636.444 127.129 636.358 127.21C636.273 127.291 636.156 127.336 636.035 127.336H596.507L576.45 146.115C576.383 146.183 576.292 146.226 576.194 146.235Z" fill="white"/>
<path d="M526.235 237.846H486.524C486.402 237.846 486.286 237.801 486.2 237.72C486.115 237.64 486.066 237.531 486.066 237.417C486.066 237.303 486.115 237.193 486.2 237.113C486.286 237.032 486.402 236.987 486.524 236.987H526.052L545.981 218.277C546.069 218.215 546.178 218.184 546.287 218.192C546.397 218.199 546.501 218.243 546.579 218.316C546.656 218.39 546.704 218.487 546.711 218.59C546.719 218.693 546.687 218.795 546.621 218.878L526.491 237.777C526.413 237.82 526.325 237.844 526.235 237.846Z" fill="white"/>
<path d="M659.203 128.075C659.141 128.076 659.08 128.062 659.026 128.035C658.972 128.008 658.925 127.968 658.891 127.92C658.822 127.85 658.783 127.758 658.783 127.662C658.783 127.567 658.822 127.475 658.891 127.405C660.464 126.35 662.115 125.403 663.832 124.57C664.616 124.131 665.502 123.877 666.413 123.831C667.294 123.876 668.152 124.111 668.92 124.518C669.218 124.653 669.524 124.773 669.835 124.879C672.433 125.807 675.325 125.102 678.344 124.346C680.98 123.486 683.788 123.193 686.561 123.487C687.18 123.631 687.79 123.803 688.391 124.003L689.526 124.329C693.383 125.029 697.354 124.965 701.183 124.14L703.635 123.814C707.82 123.04 712.15 123.337 716.171 124.673C716.683 124.879 717.195 125.12 717.689 125.36C718.852 126.004 720.14 126.425 721.477 126.597C723.011 126.615 724.531 126.334 725.943 125.772L727.407 125.326C731.835 124.106 736.721 124.553 741.443 124.965H742.303C755.167 126.081 768.109 126.168 780.989 125.223C781.04 125.218 781.091 125.223 781.139 125.236C781.188 125.25 781.233 125.273 781.272 125.303C781.311 125.334 781.343 125.371 781.367 125.413C781.391 125.455 781.405 125.502 781.41 125.549C781.42 125.647 781.39 125.744 781.325 125.821C781.26 125.898 781.166 125.948 781.062 125.961C768.134 126.907 755.143 126.82 742.23 125.704H741.37C736.721 125.291 731.908 124.862 727.626 126.047C727.15 126.168 726.675 126.322 726.199 126.477C724.679 127.066 723.048 127.358 721.404 127.336C719.97 127.151 718.59 126.701 717.342 126.013C716.848 125.772 716.372 125.549 715.859 125.343C711.963 124.066 707.775 123.788 703.726 124.535L701.311 124.879C697.365 125.714 693.277 125.773 689.306 125.051L688.153 124.707C687.556 124.507 686.944 124.346 686.323 124.226C683.666 123.947 680.976 124.235 678.454 125.068C675.435 125.807 672.305 126.58 669.451 125.583L668.499 125.188C667.816 124.851 667.071 124.641 666.303 124.57C665.52 124.619 664.761 124.842 664.089 125.223C662.407 126.037 660.792 126.967 659.257 128.006C659.241 128.03 659.223 128.053 659.203 128.075Z" fill="white"/>
<path d="M728.541 137.92C726.918 137.822 725.323 137.474 723.82 136.889C722.28 136.278 720.639 135.923 718.97 135.841C717.816 135.903 716.673 136.093 715.567 136.408C714.833 136.612 714.087 136.778 713.334 136.906C711.335 137.138 709.313 137.138 707.313 136.906H707.057C698.127 136.098 688.977 135.789 680.12 135.48C677.063 135.377 673.641 135.841 673.22 137.438C673.205 137.512 673.164 137.578 673.105 137.628C673.045 137.677 672.97 137.707 672.891 137.713C672.812 137.723 672.731 137.71 672.659 137.677C672.587 137.643 672.528 137.59 672.488 137.524C671.573 135.961 668.737 135.291 666.413 135.445C663.962 135.71 661.575 136.355 659.349 137.353C659.301 137.372 659.25 137.382 659.197 137.382C659.145 137.382 659.094 137.372 659.046 137.353C658.998 137.334 658.954 137.305 658.919 137.27C658.883 137.234 658.855 137.192 658.837 137.146C658.8 137.055 658.803 136.954 658.843 136.864C658.884 136.775 658.961 136.703 659.056 136.665C661.365 135.639 663.838 134.977 666.376 134.707C667.525 134.583 668.689 134.687 669.793 135.013C670.896 135.338 671.914 135.878 672.781 136.597C674.062 134.758 678.271 134.672 680.101 134.741C688.977 135.05 698.145 135.36 707.112 136.167H707.35C709.282 136.399 711.237 136.399 713.169 136.167C713.897 136.049 714.618 135.894 715.329 135.703C716.517 135.358 717.747 135.155 718.989 135.102C720.742 135.198 722.467 135.564 724.094 136.184C725.913 137.007 727.953 137.3 729.95 137.026C730.586 136.856 731.2 136.62 731.78 136.322L732.732 135.892C735.867 134.945 739.191 134.686 742.449 135.136C744.366 135.299 746.292 135.333 748.214 135.239C748.264 135.235 748.315 135.239 748.364 135.253C748.412 135.267 748.458 135.29 748.497 135.32C748.536 135.35 748.568 135.388 748.592 135.43C748.616 135.472 748.63 135.518 748.635 135.566C748.645 135.663 748.615 135.761 748.55 135.838C748.485 135.915 748.391 135.965 748.287 135.978C746.323 136.073 744.354 136.038 742.394 135.875C739.261 135.433 736.061 135.674 733.043 136.579C732.732 136.7 732.439 136.854 732.146 136.992C731.528 137.3 730.878 137.547 730.207 137.731C729.664 137.867 729.103 137.931 728.541 137.92Z" fill="white"/>
<path d="M659.203 149.259C659.112 149.255 659.027 149.222 658.958 149.167C658.89 149.111 658.844 149.036 658.827 148.952C658.81 148.869 658.824 148.783 658.865 148.708C658.907 148.633 658.974 148.573 659.056 148.538C662.103 147.37 665.234 146.406 668.426 145.651C670.125 145.189 671.892 144.986 673.66 145.05C674.727 145.165 675.781 145.372 676.807 145.668C677.799 145.947 678.816 146.142 679.845 146.252C681.069 146.294 682.295 146.225 683.505 146.046C685.323 145.695 687.203 145.748 688.995 146.201C689.509 146.382 690.005 146.607 690.477 146.871C690.929 147.133 691.407 147.352 691.905 147.524C694.284 148.297 696.663 147.283 699.225 146.201C701.4 145.045 703.863 144.452 706.362 144.483C708.02 144.751 709.602 145.336 711.01 146.201C712.497 147.138 714.234 147.662 716.024 147.713C716.859 147.635 717.682 147.468 718.476 147.215H718.714C725.367 145.36 732.333 144.702 739.247 145.273H739.613C740.574 145.367 741.543 145.367 742.504 145.273C743.091 145.192 743.671 145.077 744.243 144.929L745.524 144.637C748.189 144.334 750.892 144.515 753.484 145.17L754.985 145.445C761.812 146.591 768.819 146.38 775.554 144.826C775.647 144.823 775.739 144.85 775.813 144.903C775.888 144.956 775.94 145.031 775.962 145.116C775.983 145.202 775.973 145.291 775.932 145.37C775.891 145.449 775.822 145.512 775.737 145.548C768.899 147.119 761.787 147.33 754.857 146.166L753.32 145.892C750.828 145.261 748.232 145.086 745.67 145.376C745.249 145.376 744.847 145.548 744.444 145.634C743.843 145.795 743.232 145.922 742.614 146.012C741.598 146.106 740.574 146.106 739.558 146.012H739.192C732.378 145.455 725.513 146.102 718.952 147.919H718.714C717.868 148.196 716.989 148.375 716.097 148.452C714.144 148.415 712.241 147.861 710.607 146.854C709.28 146.068 707.799 145.537 706.252 145.29C703.891 145.296 701.574 145.889 699.536 147.008C696.992 148.108 694.375 149.225 691.685 148.366C691.145 148.176 690.624 147.94 690.13 147.661C689.691 147.415 689.232 147.203 688.757 147.026C687.092 146.628 685.352 146.592 683.67 146.922C682.411 147.103 681.136 147.172 679.863 147.129C678.784 147.016 677.718 146.808 676.679 146.51C675.699 146.233 674.695 146.038 673.678 145.926C671.99 145.869 670.303 146.066 668.682 146.51C665.528 147.256 662.434 148.209 659.422 149.362L659.203 149.259Z" fill="white"/>
<path d="M659.203 158.571C659.113 158.57 659.027 158.54 658.957 158.487C658.887 158.434 658.839 158.361 658.818 158.279C658.805 158.232 658.802 158.182 658.809 158.134C658.817 158.085 658.835 158.039 658.862 157.997C658.89 157.955 658.926 157.919 658.969 157.891C659.011 157.862 659.06 157.843 659.111 157.833C662.711 156.985 666.387 156.456 670.091 156.252C671.175 156.131 672.274 156.201 673.33 156.458C673.568 156.529 673.8 156.615 674.026 156.716C674.32 156.841 674.626 156.939 674.941 157.008C675.643 157.118 676.361 157.118 677.063 157.008C680.331 156.52 683.637 156.296 686.945 156.338C687.047 156.346 687.143 156.389 687.214 156.459C687.284 156.528 687.326 156.62 687.33 156.716C687.33 156.765 687.319 156.813 687.299 156.858C687.278 156.903 687.248 156.944 687.211 156.977C687.173 157.011 687.129 157.037 687.08 157.054C687.031 157.071 686.979 157.079 686.927 157.077C683.692 157.027 680.459 157.245 677.265 157.73C676.447 157.894 675.605 157.923 674.776 157.816C674.412 157.732 674.056 157.617 673.714 157.472L673.092 157.249C672.124 157.018 671.119 156.96 670.128 157.077C666.424 157.276 662.748 157.8 659.148 158.64L659.203 158.571Z" fill="white"/>
<path d="M702.317 157.3C702.259 157.312 702.198 157.311 702.139 157.298C702.081 157.285 702.026 157.26 701.979 157.225C701.933 157.189 701.895 157.145 701.869 157.094C701.843 157.043 701.829 156.987 701.829 156.931C701.829 156.874 701.843 156.818 701.869 156.767C701.895 156.717 701.933 156.672 701.979 156.636C702.026 156.601 702.081 156.576 702.139 156.563C702.198 156.55 702.259 156.549 702.317 156.561C704.513 156.561 706.746 156.561 708.887 156.561H709.052C724.771 156.561 740.692 156.561 756.394 156.355C756.497 156.359 756.595 156.401 756.667 156.472C756.738 156.542 756.778 156.636 756.778 156.733C756.778 156.829 756.738 156.92 756.666 156.988C756.594 157.056 756.496 157.094 756.394 157.094C740.692 157.266 724.753 157.334 709.034 157.3H708.869C706.728 157.3 704.495 157.3 702.317 157.3Z" fill="white"/>
<g opacity="0.1">
<path opacity="0.1" d="M754.051 249.667C754.051 253.791 751.014 257.588 750.19 261.488C749.367 265.388 750.593 270.079 748.964 273.773C747.335 277.467 742.943 279.941 740.564 283.291C738.185 286.641 737.453 291.349 734.397 294.201C731.341 297.053 726.364 297.638 722.777 299.974C719.19 302.311 716.665 306.297 712.657 307.86C708.649 309.424 703.836 308.221 699.554 309.012C695.272 309.802 691.374 312.637 686.982 312.637C682.59 312.637 678.564 309.785 674.41 309.012C670.256 308.238 665.26 309.39 661.307 307.86C657.354 306.331 654.737 302.208 651.187 299.974C647.637 297.741 642.604 297.053 639.567 294.201C636.529 291.349 635.797 286.659 633.4 283.291C631.002 279.924 626.665 277.535 625.018 273.773C623.371 270.01 624.616 265.491 623.774 261.488C622.932 257.485 619.931 253.791 619.931 249.667C619.931 245.544 622.95 241.764 623.774 237.864C624.597 233.963 623.39 229.273 625.018 225.579C626.647 221.885 631.021 219.411 633.4 216.06C635.779 212.71 636.529 208.002 639.567 205.15C642.604 202.298 647.6 201.628 651.187 199.36C654.774 197.092 657.318 193.055 661.307 191.491C665.296 189.928 670.128 191.13 674.41 190.34C678.692 189.55 682.59 186.732 686.982 186.732C691.374 186.732 695.418 189.584 699.554 190.357C703.69 191.13 708.704 189.979 712.657 191.508C716.61 193.037 719.227 197.144 722.795 199.394C726.364 201.645 731.36 202.315 734.416 205.167C737.472 208.02 738.167 212.71 740.564 216.078C742.962 219.445 747.299 221.833 748.964 225.596C750.629 229.359 749.348 233.877 750.19 237.881C751.032 241.884 754.051 245.561 754.051 249.667Z" fill="white"/>
</g>
<path d="M523.014 324.354H488.939C486.989 324.354 485.408 325.839 485.408 327.67V333.529C485.408 335.361 486.989 336.845 488.939 336.845H523.014C524.965 336.845 526.546 335.361 526.546 333.529V327.67C526.546 325.839 524.965 324.354 523.014 324.354Z" fill="#673DE6"/>
<path d="M524.478 319.166H487.475C486.333 319.166 485.408 320.035 485.408 321.107V322.413C485.408 323.485 486.333 324.355 487.475 324.355H524.478C525.62 324.355 526.546 323.485 526.546 322.413V321.107C526.546 320.035 525.62 319.166 524.478 319.166Z" fill="white"/>
<path d="M643.263 341.381H637.737V614.152H643.263V341.381Z" fill="#263238"/>
<path d="M648.131 529.259H632.869C631.151 529.259 629.758 530.567 629.758 532.18V535.926C629.758 537.539 631.151 538.847 632.869 538.847H648.131C649.849 538.847 651.242 537.539 651.242 535.926V532.18C651.242 530.567 649.849 529.259 648.131 529.259Z" fill="#263238"/>
<path d="M585.82 614.17H580.293L637.737 534.053H643.263L585.82 614.17Z" fill="#263238"/>
<path d="M695.18 614.17H700.707L643.263 534.053H637.737L695.18 614.17Z" fill="#263238"/>
<path d="M818.01 104.003H462.99C462.296 104.003 461.63 103.745 461.14 103.284C460.649 102.823 460.373 102.198 460.373 101.547C460.378 100.898 460.656 100.277 461.146 99.8204C461.636 99.3633 462.299 99.1068 462.99 99.1068H818.01C818.699 99.1068 819.36 99.3639 819.848 99.8214C820.335 100.279 820.609 100.899 820.609 101.547C820.611 101.868 820.546 102.188 820.416 102.485C820.287 102.783 820.096 103.054 819.854 103.283C819.612 103.511 819.325 103.692 819.009 103.816C818.692 103.94 818.353 104.004 818.01 104.003Z" fill="#E0E0E0"/>
<path d="M832.101 336.845H448.899L457.829 345.934H823.171L832.101 336.845Z" fill="#E0E0E0"/>
<path d="M365.689 415.622H190.027V419.66H365.689V415.622Z" fill="#673DE6"/>
<path d="M365.689 415.622H319.115V419.66H365.689V415.622Z" fill="#263238"/>
<path d="M293.971 620.269H291.318L280.228 513.659C279.313 504.81 273.164 498.195 265.972 498.195H244.122C236.802 498.195 230.781 504.862 229.866 513.659L218.776 620.269H216.123L227.249 513.178C228.329 502.714 235.576 494.811 244.122 494.811H265.972C274.5 494.811 281.765 502.714 282.845 513.178L293.971 620.269Z" fill="#263238"/>
<path d="M211.31 620.269H208.62L197.64 513.659C196.725 504.81 190.595 498.195 183.384 498.195H161.461C154.251 498.195 148.12 504.862 147.205 513.659L136.115 620.269H133.462L144.57 513.178C145.65 502.714 152.915 494.811 161.443 494.811H183.293C191.839 494.811 199.086 502.714 200.165 513.178L211.31 620.269Z" fill="#263238"/>
<path d="M199.47 276.985C199.873 278.051 200.806 278.704 201.575 278.532C202.343 278.36 202.618 277.26 202.215 276.178C201.812 275.096 200.879 274.46 200.129 274.632C199.379 274.803 199.013 275.903 199.47 276.985Z" fill="#263238"/>
<path d="M200.513 277.793C202.874 280.133 205.558 282.167 208.492 283.841C208.014 284.513 207.384 285.079 206.647 285.498C205.91 285.916 205.084 286.178 204.228 286.263L200.513 277.793Z" fill="#ED893E"/>
<path d="M194.584 273.515C194.464 273.541 194.338 273.541 194.218 273.515C194.126 273.5 194.038 273.469 193.959 273.422C193.88 273.375 193.813 273.313 193.76 273.241C193.707 273.169 193.67 273.088 193.651 273.002C193.632 272.916 193.632 272.827 193.651 272.742C193.82 271.703 194.26 270.719 194.93 269.877C195.6 269.035 196.481 268.361 197.494 267.914C197.664 267.867 197.846 267.881 198.005 267.954C198.165 268.027 198.29 268.152 198.356 268.306C198.422 268.461 198.425 268.633 198.363 268.789C198.302 268.945 198.181 269.074 198.024 269.151C197.237 269.518 196.554 270.058 196.035 270.725C195.516 271.392 195.175 272.166 195.041 272.982C195.021 273.101 194.969 273.212 194.888 273.306C194.808 273.399 194.703 273.471 194.584 273.515Z" fill="#263238"/>
<path d="M164.023 293.72L175.771 304.166L191.345 312.379C190.796 312.86 190.997 316.125 191.217 317.757C191.279 319.54 191.931 321.26 193.082 322.68C194.233 324.099 195.826 325.147 197.64 325.677C199.47 326.416 201.3 327.396 201.648 329.011C202.014 331.004 200.458 333.478 191.747 334.663C183.393 335.715 174.891 334.592 167.17 331.416C163.51 330.007 164.133 328.461 165.048 325.196C167.39 316.863 166.859 302.156 164.023 293.72Z" fill="#FFB573"/>
<path d="M159.338 329.011C161.171 324.647 162.658 320.162 163.785 315.592C163.785 315.592 187.575 313.96 195.499 316.881C203.423 319.801 208.309 332.464 208.309 332.464L159.338 329.011Z" fill="#263238"/>
<path d="M161.424 287.827C167.042 300.421 169.641 308.049 178.974 312.276C193.01 318.633 207.65 306.933 206.131 292.964C204.759 280.387 195.81 261.935 180.511 261.419C177.122 261.321 173.762 262.029 170.742 263.476C167.722 264.923 165.14 267.063 163.237 269.697C161.333 272.332 160.168 275.374 159.852 278.544C159.535 281.713 160.076 284.906 161.424 287.827Z" fill="#FFB573"/>
<path d="M189.679 287.174C194.968 281.504 191.29 271.711 186.605 267.879C191.143 267.725 202.892 266.763 199.415 257.261C195.938 247.76 183.842 246.643 180.328 251.334C170.336 246.179 158.368 250.646 161.241 257.811C149.493 256.093 146.125 267.038 150.975 271.453C144.808 276.281 142.594 285.782 150.664 289.373C158.734 292.964 158.899 301.916 167.134 306.555C175.369 311.194 194.236 303.29 189.679 287.174Z" fill="#263238"/>
<path d="M182.89 289.081C184.634 291.654 187.324 293.537 190.448 294.373C194.492 295.387 196.451 291.177 194.95 287.5C193.596 284.27 189.46 280.628 185.617 281.16C181.774 281.693 180.731 285.868 182.89 289.081Z" fill="#FFB573"/>
<path d="M170.501 345.831L158.606 368.167C156.611 371.895 154.672 375.606 152.787 379.335C150.902 383.063 149.017 386.723 147.388 390.365C146.51 392.204 145.778 393.956 144.991 395.76L143.984 398.32L143.856 398.647V398.801V398.887V398.715C144.041 397.996 144.122 397.256 144.094 396.516C144.114 395.973 144.001 395.432 143.765 394.935C143.618 394.695 143.765 395.159 143.875 395.709C144.12 396.399 144.419 397.071 144.771 397.719C145.558 399.214 146.601 400.829 147.59 402.495C151.89 409.162 157.142 416.24 161.9 423.25L162.028 423.422C162.9 424.71 163.276 426.238 163.094 427.754C162.913 429.269 162.184 430.681 161.03 431.755C159.876 432.828 158.366 433.499 156.75 433.655C155.134 433.812 153.509 433.444 152.146 432.614C148.131 430.201 144.274 427.562 140.599 424.711C136.823 421.854 133.242 418.778 129.875 415.502C128.038 413.738 126.32 411.867 124.733 409.9C123.819 408.796 122.963 407.649 122.171 406.464C121.11 404.848 120.262 403.117 119.645 401.31C119.125 399.78 118.835 398.19 118.785 396.585C118.753 395.307 118.901 394.03 119.225 392.788L119.517 391.688L120.487 388.132C121.219 385.915 121.896 383.613 122.702 381.5C124.257 377.153 125.959 373.029 127.679 368.906C129.399 364.782 131.339 360.779 133.169 356.879C137.049 348.907 141.056 341.192 145.631 333.461C147.371 330.355 150.354 328.026 153.923 326.985C157.492 325.944 161.356 326.277 164.663 327.911C167.971 329.545 170.452 332.345 171.561 335.696C172.669 339.047 172.314 342.674 170.574 345.78L170.501 345.831Z" fill="#FFB573"/>
<path d="M161.26 323.444C176.595 323.959 183.567 334.732 170.849 353.906C159.869 370.383 158.423 370.727 158.423 370.727L130.662 357.807C139.995 341.124 145.577 322.894 161.26 323.444Z" fill="#673DE6"/>
<g opacity="0.3">
<path opacity="0.3" d="M161.26 323.444C176.595 323.959 183.567 334.732 170.849 353.906C159.869 370.383 158.423 370.727 158.423 370.727L130.662 357.807C139.995 341.124 145.577 322.894 161.26 323.444Z" fill="black"/>
</g>
<path d="M169.238 426.24L167.683 424.608C162.888 420.433 160.839 420.948 155.349 420.948L148.633 425.673C152.695 436.154 160.912 435.69 160.912 435.69L163.291 437.769C163.814 438.222 164.448 438.547 165.137 438.714C165.827 438.881 166.549 438.884 167.24 438.724C167.931 438.564 168.569 438.245 169.097 437.797C169.625 437.348 170.025 436.784 170.263 436.154L170.959 434.298C171.462 432.933 171.569 431.466 171.266 430.049C170.964 428.633 170.264 427.318 169.238 426.24Z" fill="#FFB573"/>
<path d="M330.224 582.281L343.345 575.357L329.382 545.341L316.261 552.248L330.224 582.281Z" fill="#FFB573"/>
<path opacity="0.2" d="M323.032 566.801L336.354 560.341L329.382 545.341L316.261 552.248L323.032 566.801Z" fill="black"/>
<path d="M341.643 569.051L324.807 570.168C324.522 570.182 324.254 570.298 324.059 570.494C323.865 570.69 323.758 570.949 323.764 571.216L323.892 583.759C323.943 584.417 324.267 585.029 324.794 585.466C325.32 585.903 326.008 586.129 326.71 586.095C332.548 585.614 334.927 584.24 342.265 583.261C346.785 582.642 357.637 582.058 363.731 580.477C369.825 578.896 368.818 573.605 363.841 573.845C357.381 574.12 348.743 572.591 344.278 569.756C343.507 569.254 342.58 569.006 341.643 569.051Z" fill="#263238"/>
<path d="M226.92 438.422C226.92 438.422 303.56 434.126 310.039 462.029C323.215 518.727 335.933 550.221 335.933 550.221L315.657 560.048C315.657 560.048 285.791 520.772 276.989 480.533C245.769 476.135 191.198 491.649 178.169 469.64C166.64 450.225 176.76 436.274 176.76 436.274L226.92 438.422Z" fill="#263238"/>
<path d="M316.041 565.168L339.648 554.43L336.995 545.341L311.045 556.784L316.041 565.168Z" fill="#673DE6"/>
<path d="M347.133 571.165C345.786 571.214 344.437 571.133 343.107 570.924C343.038 570.916 342.973 570.889 342.921 570.846C342.869 570.803 342.832 570.747 342.814 570.684C342.797 570.621 342.799 570.555 342.822 570.494C342.845 570.432 342.887 570.379 342.942 570.34C343.4 569.997 347.426 566.99 349.31 567.54C349.523 567.605 349.715 567.719 349.869 567.872C350.022 568.025 350.132 568.212 350.189 568.416C350.313 568.717 350.351 569.044 350.3 569.363C350.249 569.682 350.109 569.984 349.896 570.237C349.123 570.848 348.143 571.177 347.133 571.165ZM344.022 570.375C346.748 570.701 348.707 570.495 349.365 569.79C349.502 569.624 349.59 569.427 349.619 569.219C349.647 569.01 349.617 568.798 349.53 568.605C349.5 568.508 349.447 568.418 349.374 568.343C349.3 568.269 349.21 568.211 349.109 568.175C348.084 567.883 345.687 569.223 344.04 570.375H344.022Z" fill="#673DE6"/>
<path d="M343.18 570.924C343.126 570.94 343.069 570.94 343.015 570.924C342.962 570.904 342.916 570.871 342.881 570.829C342.845 570.787 342.822 570.737 342.814 570.684C342.814 570.512 342.137 566.491 343.546 565.014C343.729 564.828 343.953 564.682 344.203 564.587C344.453 564.492 344.722 564.45 344.992 564.464C345.292 564.455 345.588 564.54 345.833 564.704C346.077 564.869 346.258 565.104 346.346 565.375C346.803 566.887 344.79 569.962 343.363 570.907C343.305 570.93 343.241 570.936 343.18 570.924ZM344.809 565.083C344.668 565.091 344.531 565.125 344.405 565.184C344.279 565.243 344.168 565.326 344.077 565.426C343.235 566.302 343.29 568.622 343.418 569.962C344.743 568.801 345.547 567.21 345.669 565.512C345.669 565.323 345.486 565.117 344.973 565.083H344.809Z" fill="#673DE6"/>
<path d="M243.738 608.019L258.634 607.349L261.068 574.326L246.172 574.996L243.738 608.019Z" fill="#FFB573"/>
<path d="M260.134 602.916L243.28 602.418C242.998 602.403 242.72 602.491 242.505 602.664C242.291 602.837 242.155 603.081 242.127 603.345L240.901 615.836C240.886 616.163 240.941 616.49 241.06 616.798C241.18 617.105 241.364 617.388 241.6 617.629C241.836 617.87 242.121 618.064 242.437 618.202C242.754 618.34 243.096 618.417 243.445 618.431C249.319 618.431 251.79 617.812 259.201 618.035C263.758 618.173 272.011 618.86 279.697 618.86C287.383 618.86 284.29 613.018 280.191 612.469C273.786 611.61 266.832 607.108 262.696 603.878C261.983 603.294 261.08 602.954 260.134 602.916Z" fill="#263238"/>
<path d="M265.35 605.527C264.002 605.446 262.665 605.239 261.361 604.909C261.294 604.892 261.233 604.857 261.188 604.808C261.142 604.759 261.113 604.699 261.104 604.634C261.095 604.57 261.105 604.506 261.134 604.447C261.164 604.389 261.21 604.341 261.269 604.308C261.745 604.015 266.1 601.404 267.894 602.143C268.099 602.225 268.28 602.354 268.417 602.52C268.555 602.685 268.646 602.88 268.681 603.088C268.773 603.389 268.776 603.709 268.689 604.011C268.602 604.314 268.428 604.589 268.186 604.806C267.373 605.376 266.359 605.635 265.35 605.527ZM262.33 604.462C265.002 605.029 266.979 605.012 267.711 604.376C267.861 604.224 267.967 604.039 268.018 603.837C268.07 603.635 268.064 603.424 268.003 603.225C267.99 603.12 267.947 603.021 267.88 602.936C267.812 602.852 267.723 602.786 267.619 602.744C266.686 602.349 264.16 603.466 262.367 604.462H262.33Z" fill="#673DE6"/>
<path d="M261.47 604.909H261.324C261.269 604.884 261.223 604.845 261.191 604.796C261.159 604.747 261.141 604.691 261.141 604.634C261.141 604.462 260.921 600.408 262.495 599.067C262.697 598.899 262.937 598.775 263.196 598.703C263.456 598.632 263.729 598.615 263.996 598.655C264.292 598.677 264.573 598.789 264.795 598.976C265.016 599.162 265.166 599.412 265.222 599.686C265.515 601.232 263.172 604.119 261.562 604.84C261.537 604.869 261.506 604.892 261.47 604.909ZM263.721 599.256C263.437 599.251 263.161 599.35 262.953 599.531C262.075 600.862 261.677 602.422 261.818 603.981C263.154 602.985 264.728 600.786 264.526 599.772C264.526 599.583 264.398 599.342 263.886 599.274L263.721 599.256Z" fill="#673DE6"/>
<path opacity="0.2" d="M246.172 575.013L261.068 574.343L259.659 593.226L244.817 593.208L246.172 575.013Z" fill="black"/>
<path d="M191.857 436.927C191.857 436.927 284.895 453.198 283.083 477.733C279.844 521.906 264.069 585.03 264.069 585.03L241.725 585.322C241.725 585.322 238.669 519.672 241.432 487.715C213.524 487.715 158.606 486.804 147.864 473.317C135.987 458.438 148.193 435.054 148.193 435.054L191.857 436.927Z" fill="#263238"/>
<path d="M239.84 589.119L268.04 588.741L269.376 580.133L238.669 580.975L239.84 589.119Z" fill="#673DE6"/>
<path d="M211.841 324.423C202.691 322.705 161.479 323.238 161.479 323.238C157.357 323.141 153.346 324.499 150.239 327.044C147.132 329.589 145.155 333.135 144.698 336.983C143.252 348.907 147.516 375.314 147.809 388.922C148.157 405.622 148.541 412.667 148.193 435.14L244.14 439.865C247.8 398.904 233.581 379.146 225.108 338.392C223.846 332.155 220.973 326.09 211.841 324.423Z" fill="#673DE6"/>
<path opacity="0.3" d="M211.841 324.423C202.691 322.705 161.479 323.238 161.479 323.238C157.357 323.141 153.346 324.499 150.239 327.044C147.132 329.589 145.155 333.135 144.698 336.983C143.252 348.907 147.516 375.314 147.809 388.922C148.157 405.622 148.541 412.667 148.193 435.14L244.14 439.865C247.8 398.904 233.581 379.146 225.108 338.392C223.846 332.155 220.973 326.09 211.841 324.423Z" fill="black"/>
<path d="M223.516 337.601C227.835 344.818 232.282 352.395 236.765 359.628C238.98 363.288 241.267 366.878 243.573 370.383C245.879 373.888 248.258 377.256 250.637 380.52L252.467 382.84C253.071 383.63 253.656 384.249 254.297 384.953L254.736 385.486L254.956 385.744L254.809 385.606L254.48 385.383C254.48 385.383 254.388 385.383 254.48 385.486C255.025 385.91 255.6 386.301 256.2 386.654C259.329 388.561 263.392 390.503 267.326 392.461C275.305 396.362 283.65 400.227 291.739 404.488H291.848C293.355 405.225 294.53 406.443 295.161 407.924C295.793 409.404 295.838 411.048 295.289 412.556C294.74 414.065 293.633 415.339 292.169 416.148C290.705 416.956 288.981 417.245 287.31 416.962C277.799 415.902 268.385 414.179 259.146 411.808C254.237 410.592 249.42 409.071 244.726 407.255C243.234 406.65 241.785 405.956 240.389 405.176C240.023 404.987 239.492 404.643 239.016 404.334L238.266 403.818L237.296 403.045L236.82 402.65L236.491 402.341L236.125 401.997L235.393 401.31C234.46 400.399 233.398 399.454 232.556 398.544L229.939 395.795C223.663 388.677 217.898 381.175 212.683 373.339C207.559 365.658 202.837 358.064 198.482 349.852C196.854 346.767 196.571 343.208 197.693 339.931C198.815 336.654 201.253 333.916 204.49 332.299C207.727 330.682 211.508 330.314 215.029 331.272C218.551 332.23 221.536 334.439 223.351 337.43L223.516 337.601Z" fill="#FFB573"/>
<path d="M197.786 332.911C206.04 320.781 219.472 320.609 230.617 340.625C240.188 357.807 239.767 359.198 239.767 359.198L213.836 375.126C203.222 359.112 189.332 345.333 197.786 332.911Z" fill="#673DE6"/>
<g opacity="0.3">
<path opacity="0.3" d="M197.786 332.911C206.04 320.781 219.472 320.609 230.617 340.625C240.188 357.807 239.767 359.198 239.767 359.198L213.836 375.126C203.222 359.112 189.332 345.333 197.786 332.911Z" fill="black"/>
</g>
<path d="M298.583 403.457L296.314 403.062C289.78 402.495 288.518 404.093 284.162 407.237L281.911 414.832C291.958 420.793 298.162 415.708 298.162 415.708L301.401 416C302.109 416.06 302.822 415.953 303.475 415.69C304.128 415.426 304.701 415.014 305.143 414.491C305.584 413.967 305.879 413.349 306.003 412.692C306.126 412.034 306.073 411.358 305.848 410.725L305.189 408.852C304.705 407.479 303.836 406.254 302.674 405.304C301.511 404.355 300.098 403.717 298.583 403.457Z" fill="#FFB573"/>
<path d="M97.3195 427.632C95.5826 418.491 96.0264 409.102 98.6188 400.142L100.449 400.606C97.9347 409.315 97.5097 418.44 99.2044 427.323L97.3195 427.632Z" fill="#673DE6"/>
<path d="M100.432 434.354L98.6282 434.643L100.372 444.263L102.176 443.975L100.432 434.354Z" fill="#673DE6"/>
<path d="M286.578 487.406L245.659 485.877L234.935 426.687C229.445 396.19 201.3 371.483 172.148 371.483H146.4C117.248 371.483 98.1063 396.19 103.633 426.687L110.953 467.544C113.68 482.664 127.624 494.931 142.063 494.931H304.091C304.432 494.89 304.751 494.75 305.004 494.53C305.256 494.311 305.428 494.022 305.497 493.706C305.565 493.389 305.527 493.06 305.386 492.766C305.246 492.471 305.01 492.225 304.713 492.062C299.096 489.302 292.91 487.714 286.578 487.406Z" fill="#673DE6"/>
<path d="M296.222 493.574H283.229V490.429H296.222C328.888 490.429 355.477 462.544 355.477 428.267V417.649H358.826V428.267C358.826 464.279 330.736 493.574 296.222 493.574Z" fill="#263238"/>
<path d="M562.981 415.622H387.319V419.66H562.981V415.622Z" fill="#673DE6"/>
<path d="M504.549 413.612H445.733V415.639H504.549V413.612Z" fill="#E0E0E0"/>
<path d="M562.981 415.622H516.408V419.66H562.981V415.622Z" fill="#263238"/>
<path d="M491.264 620.269H488.61L477.539 513.659C476.605 504.81 470.475 498.196 463.283 498.196H441.323C434.113 498.196 428 504.862 427.067 513.659L416.087 620.269H413.397L424.56 513.178C425.64 502.714 432.886 494.811 441.414 494.811H463.374C471.902 494.811 479.149 502.714 480.247 513.178L491.264 620.269Z" fill="#263238"/>
<path d="M408.602 620.269H405.949L394.859 513.659C393.944 504.81 387.814 498.196 380.603 498.196H358.68C351.47 498.196 345.339 504.862 344.424 513.659L333.334 620.269H330.681L341.881 513.178C342.96 502.714 350.207 494.811 358.753 494.811H380.64C389.168 494.811 396.433 502.714 397.513 513.178L408.602 620.269Z" fill="#263238"/>
<path d="M371.252 373.476L367.72 397.856C366.604 405.983 365.451 414.11 364.609 422.099L364.335 425.072L364.207 426.566C364.23 426.321 364.23 426.073 364.207 425.828C364.165 425.594 364.104 425.365 364.024 425.14C363.919 424.842 363.771 424.559 363.584 424.299C363.31 423.972 363.273 424.024 363.347 424.092C363.503 424.251 363.682 424.39 363.877 424.505C364.526 424.93 365.212 425.304 365.927 425.622C369.604 427.209 373.403 428.536 377.291 429.59C385.416 431.961 393.944 433.886 402.362 435.862L401.411 442.734C392.407 442.461 383.436 441.588 374.564 440.123C369.862 439.38 365.243 438.23 360.766 436.686C359.447 436.204 358.169 435.63 356.942 434.968C356.183 434.566 355.461 434.106 354.782 433.594C353.825 432.891 352.986 432.057 352.293 431.12C351.805 430.424 351.412 429.673 351.122 428.886C350.968 428.413 350.846 427.931 350.756 427.443C350.723 426.945 350.723 426.446 350.756 425.948V424.333V421.12C351.122 412.632 351.946 404.334 352.897 396.052C353.849 387.771 354.965 379.541 356.356 371.294L371.252 373.476Z" fill="#FFC3BD"/>
<path d="M421.815 443.181L416.124 448.06C415.478 448.617 414.668 448.979 413.8 449.099C412.932 449.218 412.045 449.09 411.256 448.73L404.979 445.895C404.979 445.895 395.683 445.535 394.347 440.191L396.762 436.05L411.164 434.539C412.652 434.391 414.149 434.705 415.428 435.432L421.358 438.868C421.737 439.089 422.057 439.389 422.293 439.744C422.529 440.1 422.674 440.502 422.719 440.919C422.763 441.335 422.704 441.756 422.548 442.149C422.391 442.541 422.14 442.894 421.815 443.181Z" fill="#FFC3BD"/>
<path d="M387.814 323.375C389.278 331.742 390.522 347.034 384.154 352.394C394.194 357.649 402.966 364.797 409.92 373.39C420.9 365.28 411.75 353.168 411.75 353.168C401.941 350.676 402.417 343.804 404.338 337.395L387.814 323.375Z" fill="#FFC3BD"/>
<path d="M366.567 354.577C355.349 358.013 352.934 372.119 353.94 383.098L376.577 396.173C376.577 396.173 382.067 380.142 382.067 371.569C381.976 362.446 374.18 352.257 366.567 354.577Z" fill="#263238"/>
<path d="M437.846 375.091C436.912 387.118 434.039 407.547 426.976 441.824L366.366 440.105C367.958 419.093 365.561 403.44 360.071 366.672C359.846 365.082 359.963 363.465 360.414 361.918C360.864 360.371 361.64 358.923 362.696 357.662C363.752 356.4 365.065 355.35 366.56 354.572C368.054 353.794 369.7 353.305 371.398 353.133C375.278 352.755 379.707 352.446 384.208 352.36C393.366 352.01 402.539 352.268 411.658 353.133C414.623 353.477 417.661 353.907 420.571 354.37C425.682 355.183 430.286 357.758 433.481 361.59C436.677 365.423 438.233 370.238 437.846 375.091Z" fill="#263238"/>
<path d="M415.813 306.486C416.179 307.568 417.094 308.204 417.844 308.032C418.594 307.86 418.905 306.744 418.539 305.678C418.173 304.613 417.258 303.96 416.508 304.132C415.758 304.304 415.41 305.421 415.813 306.486Z" fill="#263238"/>
<path d="M416.197 304.287L418.686 302.706C418.686 302.706 417.972 305.163 416.197 304.287Z" fill="#263238"/>
<path d="M416.581 308.118C418.44 310.268 420.608 312.164 423.023 313.754C422.573 314.324 421.996 314.794 421.332 315.132C420.668 315.471 419.934 315.669 419.18 315.712L416.581 308.118Z" fill="#ED847E"/>
<path d="M413.946 296.796C414.007 296.696 414.039 296.584 414.039 296.469C414.039 296.355 414.007 296.242 413.946 296.143C413.833 296.003 413.666 295.91 413.482 295.885C413.297 295.859 413.109 295.902 412.958 296.005C412.037 296.61 411.285 297.415 410.765 298.351C410.246 299.287 409.975 300.327 409.975 301.383C409.977 301.47 409.998 301.555 410.037 301.633C410.075 301.712 410.13 301.783 410.199 301.84C410.267 301.898 410.348 301.943 410.435 301.97C410.522 301.998 410.615 302.009 410.707 302.002C410.8 301.999 410.891 301.98 410.976 301.944C411.061 301.908 411.137 301.856 411.2 301.792C411.263 301.728 411.312 301.653 411.344 301.571C411.375 301.489 411.389 301.401 411.384 301.314C411.392 300.479 411.615 299.657 412.036 298.921C412.457 298.185 413.062 297.556 413.8 297.088C413.877 297.006 413.928 296.904 413.946 296.796Z" fill="#263238"/>
<path d="M375.278 313.651C380.768 326.605 382.598 332.189 392.114 336.828C406.315 343.804 422.071 334.732 420.9 320.523C419.857 307.74 411.201 288.703 395.609 287.604C392.167 287.325 388.706 287.884 385.56 289.225C382.414 290.566 379.688 292.645 377.646 295.262C375.604 297.878 374.313 300.945 373.898 304.165C373.483 307.386 373.959 310.652 375.278 313.651Z" fill="#FFC3BD"/>
<path d="M408.419 310.661C411.091 309.939 415.739 304.94 407.633 294.871C411.97 294.133 415.502 286.659 403.607 282.38C391.712 278.102 378.737 280.181 370.868 290.421C370.868 290.421 345.779 297.38 366.22 321.623C386.661 345.866 412.61 335.986 408.419 310.661Z" fill="#263238"/>
<path d="M361.571 290.404C361.568 291.088 361.749 291.762 362.098 292.363C362.447 292.964 362.952 293.472 363.566 293.84C364.743 294.771 366.209 295.32 367.745 295.407C369.281 295.494 370.806 295.113 372.094 294.322C374.873 292.604 377.412 290.566 379.652 288.257C380.315 287.583 380.827 286.791 381.159 285.929C381.491 285.066 381.635 284.15 381.584 283.234C381.533 282.318 381.287 281.421 380.861 280.596C380.435 279.771 379.837 279.034 379.103 278.429C378.768 278.164 378.413 277.923 378.041 277.707C378.041 277.707 363.676 278.102 361.571 290.404Z" fill="#673DE6"/>
<path d="M363.603 288.789C371.819 287.552 376.193 281.384 376.669 279.546C374.839 275.01 351.049 246.179 330.772 267.261C309.361 289.597 351.268 312.053 336.262 338.942C362.34 330.712 383.605 313.771 363.603 288.789Z" fill="#263238"/>
<path d="M402.49 313.341C403.886 315.92 406.314 317.873 409.243 318.771C413.123 319.922 415.209 316.692 414.239 313.187C413.379 310.025 410.323 305.61 406.37 305.988C405.508 306.083 404.685 306.379 403.975 306.849C403.266 307.318 402.692 307.947 402.307 308.677C401.922 309.407 401.737 310.217 401.769 311.031C401.801 311.845 402.049 312.639 402.49 313.341Z" fill="#FFC3BD"/>
<path d="M500.56 598.432L514.87 597.16L505.226 564.069L490.916 565.34L500.56 598.432Z" fill="#FFC3BD"/>
<path d="M534.159 606.215C525.411 603.792 525.686 600.184 516.957 593.518C516.086 592.779 514.993 592.311 513.827 592.178L499.59 591.25C499.314 591.251 499.047 591.346 498.839 591.516C498.631 591.686 498.495 591.921 498.455 592.178L496.442 601.438C495.747 604.651 497.851 607.727 500.816 607.83C505.556 608.002 511.375 608.173 516.554 608.5C524.112 608.998 524.203 612.589 533.024 612.194C538.459 611.953 537.142 607.039 534.159 606.215Z" fill="#263238"/>
<path d="M553.813 555.856L563.512 547.953L547.28 524.81L535.147 535.599L553.813 555.856Z" fill="#FFC3BD"/>
<path d="M560.913 543.056L549.348 553.107C549.127 553.303 548.987 553.564 548.95 553.846C548.913 554.129 548.983 554.414 549.146 554.654L554.636 562.626C555.106 563.246 555.711 563.766 556.41 564.151C557.11 564.535 557.888 564.776 558.694 564.858C559.5 564.939 560.316 564.858 561.086 564.622C561.857 564.385 562.565 563.998 563.164 563.485C566.952 560.736 569.093 555.908 573.577 551.956C580.11 546.218 581.281 546.372 585.325 538.348C588.07 532.954 582.086 532.936 579.982 534.603C574.693 538.83 576.779 539.001 564.464 541.476C563.149 541.689 561.921 542.235 560.913 543.056Z" fill="#263238"/>
<path d="M405.839 440.844C405.839 440.844 503.964 427.202 514.12 450.826C531.798 491.907 557.381 538.194 557.381 538.194L545.852 548.125C545.852 548.125 501.932 511.167 486.707 469.881C468.535 475.413 410.689 493.179 389.497 493.179C366.878 493.179 357.637 475.069 365.817 445.071C366.173 443.765 366.984 442.608 368.122 441.786C369.26 440.964 370.658 440.524 372.094 440.535C386.331 440.535 405.839 440.844 405.839 440.844Z" fill="#673DE6"/>
<path opacity="0.5" d="M405.839 440.844C405.839 440.844 503.964 427.202 514.12 450.826C531.798 491.907 557.381 538.194 557.381 538.194L545.852 548.125C545.852 548.125 501.932 511.167 486.707 469.881C468.535 475.413 410.689 493.179 389.497 493.179C366.878 493.179 357.637 475.069 365.817 445.071C366.173 443.765 366.984 442.608 368.122 441.786C369.26 440.964 370.658 440.524 372.094 440.535C386.331 440.535 405.839 440.844 405.839 440.844Z" fill="white"/>
<path d="M415.245 452.837C415.245 452.837 495.765 450.552 496.461 477.337C497.577 521.648 512.052 585.013 512.052 585.013L496.186 586.405C496.186 586.405 472.14 535.909 465.826 492.56C437.132 494.278 410.689 493.11 389.497 493.11C365.707 493.11 363.877 468.626 386.917 440.071C401.044 440.14 415.245 452.837 415.245 452.837Z" fill="#673DE6"/>
<path opacity="0.5" d="M415.245 452.837C415.245 452.837 495.765 450.552 496.461 477.337C497.577 521.648 512.052 585.013 512.052 585.013L496.186 586.405C496.186 586.405 472.14 535.909 465.826 492.56C437.132 494.278 410.689 493.11 389.497 493.11C365.707 493.11 363.877 468.626 386.917 440.071C401.044 440.14 415.245 452.837 415.245 452.837Z" fill="white"/>
<path d="M365.579 436.772L363.859 441.824C363.639 442.219 364.115 442.631 364.829 442.648L427.195 444.366C427.744 444.366 428.202 444.143 428.257 443.834L428.952 438.679C428.952 438.336 428.549 438.009 427.945 437.992L366.567 436.274C366.369 436.26 366.171 436.3 365.996 436.388C365.821 436.476 365.676 436.609 365.579 436.772Z" fill="white"/>
<path d="M373.613 443.439H371.966C371.636 443.439 371.399 443.267 371.417 443.061L372.405 436.463C372.405 436.274 372.716 436.119 373.046 436.137H374.693C375.022 436.137 375.26 436.308 375.242 436.497L374.253 443.095C374.235 443.301 373.942 443.456 373.613 443.439Z" fill="#263238"/>
<path d="M422.565 444.813H420.918C420.589 444.813 420.351 444.641 420.369 444.452L421.358 437.855C421.358 437.666 421.669 437.511 421.998 437.511H423.645C423.974 437.511 424.212 437.683 424.194 437.889L423.206 444.469C423.188 444.676 422.895 444.813 422.565 444.813Z" fill="#263238"/>
<path d="M398.08 444.126H396.451C396.122 444.126 395.866 443.954 395.902 443.765L396.872 437.167C396.872 436.978 397.201 436.824 397.531 436.841H399.178C399.507 436.841 399.745 437.03 399.709 437.219L398.739 443.817C398.702 443.988 398.409 444.143 398.08 444.126Z" fill="#263238"/>
<path d="M440.152 381.62C440.39 382.84 440.737 384.421 441.048 385.829C441.359 387.238 441.744 388.75 442.146 390.194C442.933 393.08 443.812 395.949 444.8 398.784C445.795 401.534 446.937 404.235 448.222 406.877C449.462 409.387 450.925 411.795 452.596 414.076L452.888 414.505L452.779 414.368C452.702 414.285 452.616 414.21 452.522 414.144C452.371 414.004 452.205 413.878 452.028 413.766C451.579 413.46 451.058 413.26 450.509 413.182C450.015 413.182 450.29 413.182 450.692 413.182C451.942 413.059 453.171 412.793 454.352 412.392C457.321 411.43 460.229 410.311 463.063 409.041C468.974 406.447 474.995 403.526 480.906 400.623L485.206 406.327C480 410.718 474.452 414.738 468.608 418.354C465.553 420.259 462.354 421.953 459.037 423.422C457.079 424.295 455.023 424.958 452.907 425.398C451.301 425.728 449.644 425.774 448.021 425.536C446.634 425.313 445.317 424.808 444.159 424.058C443.81 423.83 443.479 423.578 443.171 423.302L442.714 422.855L442.366 422.512L441.908 421.962C437.135 416.436 433.38 410.199 430.8 403.509C429.512 400.32 428.406 397.068 427.488 393.767C427.031 392.049 426.628 390.468 426.244 388.802C425.859 387.135 425.567 385.537 425.292 383.647L440.152 381.62Z" fill="#FFC3BD"/>
<path d="M432.868 360.934C443.482 368.614 443.482 391.19 443.482 391.19L425.182 395.949C425.182 395.949 412.025 380.984 415.355 373.888C418.85 366.5 427.14 356.827 432.868 360.934Z" fill="#263238"/>
<path d="M496.552 400.227C496.391 400.223 496.234 400.18 496.096 400.101C495.958 400.023 495.844 399.913 495.765 399.781L481.29 373.751C481.236 373.654 481.204 373.548 481.194 373.439C481.184 373.331 481.198 373.221 481.234 373.117C481.269 373.013 481.327 372.917 481.402 372.834C481.478 372.751 481.57 372.683 481.674 372.634C481.881 372.536 482.121 372.517 482.343 372.581C482.565 372.645 482.751 372.787 482.864 372.978L497.357 399.008C497.411 399.104 497.444 399.21 497.453 399.319C497.463 399.428 497.45 399.537 497.414 399.641C497.378 399.745 497.321 399.841 497.245 399.924C497.169 400.007 497.077 400.075 496.973 400.124C496.845 400.193 496.7 400.228 496.552 400.227Z" fill="#263238"/>
<path d="M490.44 385.417L484.95 388.578C483.565 389.377 482.503 390.586 481.931 392.015L476.806 404.557L474.446 412.529C479.936 414.385 489.891 402.22 489.891 402.22L496.15 397.805C496.647 397.452 497.021 396.967 497.223 396.413C497.426 395.859 497.447 395.261 497.284 394.695L495.143 387.204C495.025 386.752 494.794 386.334 494.47 385.982C494.146 385.63 493.737 385.356 493.278 385.182C492.819 385.007 492.322 384.938 491.829 384.979C491.335 385.019 490.859 385.17 490.44 385.417Z" fill="#FFC3BD"/>
<path d="M483.87 487.406L442.86 485.825L432.136 426.635C426.646 396.138 398.519 371.432 369.367 371.432H343.692C314.54 371.432 295.399 396.138 300.925 426.635L308.245 467.493C310.99 482.612 324.935 494.88 339.355 494.88H501.42C501.76 494.836 502.077 494.694 502.327 494.473C502.576 494.252 502.746 493.963 502.813 493.647C502.879 493.331 502.839 493.004 502.697 492.71C502.556 492.417 502.321 492.172 502.024 492.01C496.398 489.263 490.205 487.692 483.87 487.406Z" fill="#673DE6"/>
<path d="M493.514 493.574H480.521V490.43H493.514C526.18 490.43 552.77 462.544 552.77 428.267V417.649H556.1V428.267C556.1 464.28 528.028 493.574 493.514 493.574Z" fill="#263238"/>
<path d="M695.986 585.271L719.428 580.597L723.838 606.885L704.257 610.819L695.986 585.271Z" fill="#B55B52"/>
<path opacity="0.2" d="M695.986 585.271L719.446 580.597L721.917 595.322L700.616 599.583L695.986 585.271Z" fill="black"/>
<path d="M710.04 485.086C717.836 450.998 733.958 415.416 718.714 382.943L651.809 382.737C651.809 382.737 656.915 457.39 659.258 488.849C661.71 521.494 696.992 595.665 696.992 595.665L723.802 590.133C723.802 590.133 716.171 521.597 710.04 485.086Z" fill="#263238"/>
<path opacity="0.2" d="M710.735 481.839C715.53 462.115 722.667 441.927 724.534 422.202C699.17 396.224 702.372 449.194 710.735 481.839Z" fill="black"/>
<path d="M729.182 614.187L723.015 615.476L721.185 613.758L718.934 616.283L707.57 620.905C703.406 622.604 698.915 623.482 694.375 623.482H685.042C684.902 621.141 685.42 618.807 686.543 616.713C686.543 616.713 695.546 615.235 700.195 608.208C700.507 607.835 700.913 607.54 701.376 607.348C701.838 607.156 702.344 607.074 702.848 607.108C707.149 607.005 718.458 606.404 724.094 602.933C724.228 602.859 724.378 602.816 724.532 602.806C724.686 602.797 724.841 602.821 724.984 602.878C725.126 602.935 725.252 603.023 725.352 603.134C725.452 603.245 725.523 603.376 725.558 603.517C726.461 607.159 727.673 610.727 729.182 614.187Z" fill="#263238"/>
<path d="M750.3 588.518L774.291 588.741L775.334 615.304L755.296 615.149L750.3 588.518Z" fill="#B55B52"/>
<path opacity="0.2" d="M750.3 588.535L774.31 588.741L774.895 603.621L753.1 603.449L750.3 588.535Z" fill="black"/>
<path d="M776.396 485.086C778.336 450.998 780.971 399.987 768.801 384.318L694.082 382.737C694.082 382.737 714.853 457.39 722.612 488.849C730.664 521.494 750.428 598.81 750.428 598.81H776.359C776.359 598.81 786.15 524.002 776.396 485.086Z" fill="#263238"/>
<path d="M681.693 281.556L680.577 282.484L679.735 283.154L678.106 284.374C677.045 285.13 675.984 285.834 674.904 286.521C672.797 287.875 670.61 289.114 668.353 290.232C663.871 292.488 659.163 294.324 654.298 295.713C651.864 296.418 649.357 296.985 646.85 297.431C644.343 297.878 641.781 298.222 639.219 298.462C634.084 298.915 628.913 298.852 623.792 298.273L621.852 298.05C620.062 297.848 618.346 297.26 616.838 296.332C612.633 293.718 608.876 290.52 605.693 286.848C602.931 283.672 600.481 280.268 598.373 276.676C596.397 273.299 594.672 269.797 593.213 266.196C592.499 264.478 591.877 262.622 591.273 260.818C590.669 259.014 590.248 257.244 589.754 255.148C589.334 253.401 589.528 251.574 590.307 249.939C591.087 248.305 592.41 246.951 594.077 246.082C595.745 245.213 597.668 244.875 599.558 245.119C601.448 245.363 603.202 246.175 604.559 247.434L605.474 248.293C606.535 249.289 607.78 250.612 608.933 251.729C610.085 252.846 611.293 254.1 612.446 255.268C614.807 257.588 617.113 259.839 619.473 261.866C621.642 263.889 623.959 265.767 626.409 267.484C628.255 268.798 630.28 269.872 632.43 270.68L625.494 268.773C628.513 268.58 631.511 268.166 634.461 267.536C637.414 266.878 640.313 266.023 643.135 264.976C645.984 263.882 648.758 262.625 651.443 261.213C652.798 260.509 654.097 259.735 655.36 258.997C656 258.619 656.604 258.224 657.19 257.863L658.013 257.33L658.343 257.107H658.471H658.361C661.824 254.204 666.373 252.712 671.008 252.958C675.643 253.205 679.983 255.17 683.075 258.421C686.167 261.672 687.756 265.944 687.493 270.295C687.231 274.647 685.138 278.722 681.675 281.625L681.693 281.556Z" fill="#B65B52"/>
<path d="M594.567 258.722L601.539 251.849C605.657 242.674 592.17 239.736 592.17 239.736L583.77 233.981C582.685 233.366 581.403 233.13 580.151 233.315C578.899 233.501 577.757 234.095 576.926 234.994L572.021 239.771C571.481 240.22 571.041 240.766 570.725 241.376C570.41 241.985 570.226 242.647 570.183 243.324C570.141 244.001 570.241 244.679 570.478 245.319C570.715 245.959 571.084 246.549 571.564 247.056L578.573 253.052C579.872 254.255 581.469 255.134 583.221 255.612L594.567 258.722Z" fill="#B55B52"/>
<path d="M689.507 243.997C673.294 243.104 649.54 260.612 649.54 260.612C647.289 266.436 652.834 288.102 662.753 297.552C662.753 297.552 674.135 300.094 684.091 288.823C694.924 276.539 706.691 244.925 689.507 243.997Z" fill="#673DE6"/>
<path d="M692.728 243.43C714.922 241.456 737.28 241.79 759.395 244.427C762.423 244.847 765.327 245.843 767.929 247.354C770.532 248.865 772.779 250.859 774.532 253.214C776.285 255.569 777.507 258.236 778.123 261.05C778.739 263.864 778.737 266.767 778.116 269.58C767.758 318.582 775.499 373.287 768.801 384.249C768.801 384.249 694.851 385.452 651.681 382.668C639.878 329.406 663.101 296.916 674.758 255.371C676.826 248.344 684.951 244.272 692.728 243.43Z" fill="#673DE6"/>
<path d="M783.46 263.67L785.107 265.612L786.571 267.33C787.504 268.498 788.401 269.701 789.279 270.886C791.109 273.257 792.719 275.714 794.33 278.188C797.591 283.236 800.465 288.495 802.931 293.926C805.597 299.664 807.621 305.647 808.97 311.778C810.57 318.67 810.836 325.776 809.757 332.756L809.537 334.165C809.343 335.32 808.927 336.431 808.311 337.447C806.125 341.036 803.679 344.481 800.991 347.756C798.42 350.887 795.665 353.882 792.738 356.724C789.828 359.508 786.845 362.154 783.698 364.645C780.521 367.172 777.178 369.507 773.687 371.638C772.055 372.647 770.113 373.122 768.164 372.989C766.214 372.856 764.366 372.123 762.906 370.903C761.446 369.683 760.455 368.044 760.089 366.242C759.722 364.439 759.999 362.573 760.877 360.934L761.28 360.264C762.854 357.308 764.757 354.164 766.459 351.14C768.161 348.116 769.918 345.093 771.528 342.086C773.138 339.079 774.657 336.107 776.14 333.22C777.622 330.334 778.757 327.413 779.891 324.629L778.445 329.303C778.356 325.853 777.739 322.434 776.615 319.149C775.972 317.189 775.221 315.262 774.365 313.376C773.523 311.417 772.535 309.424 771.491 307.431C769.35 303.462 766.953 299.442 764.318 295.507C763.037 293.514 761.628 291.573 760.274 289.631L758.187 286.762L756.266 284.202L755.625 283.343C752.921 279.859 751.786 275.516 752.465 271.253C753.143 266.99 755.582 263.148 759.253 260.559C762.924 257.971 767.533 256.842 772.083 257.418C776.633 257.993 780.759 260.227 783.569 263.636L783.46 263.67Z" fill="#B65B52"/>
<path d="M765.141 246.008C780.44 251.162 794.861 275.456 794.861 275.456C794.22 284.305 779.214 304.338 768.6 308.72C761.192 302.76 755.703 294.977 752.752 286.246C747.884 270.921 757.272 248.207 765.141 246.008Z" fill="#673DE6"/>
<path d="M703.232 247.107C704.697 244.47 707.062 242.37 709.949 241.145C711.037 238.504 711.121 235.591 710.186 232.898L742.98 223.088C740.327 233.276 738.24 241.334 742.285 246.282C735.825 249.994 723.985 256.591 711.175 256.282C698.365 255.973 701.128 251.385 703.232 247.107Z" fill="#B55B52"/>
<path opacity="0.2" d="M710.443 233.86L735.093 232.503C727.388 240.235 715.713 243.138 710.369 239.994C710.958 237.99 710.983 235.876 710.443 233.86Z" fill="black"/>
<path d="M710.369 256.248L715.713 252.021L722.868 255.457C722.868 255.457 718.293 259.495 710.369 256.248Z" fill="#673DE6"/>
<path opacity="0.3" d="M710.369 256.248L715.713 252.021L722.868 255.457C722.868 255.457 718.293 259.495 710.369 256.248Z" fill="black"/>
<path d="M728.541 191.216C728.139 181.749 718.403 177.471 709.967 182.402C701.531 187.333 700.817 202.573 707.021 210.528C713.224 218.483 728.541 191.216 728.541 191.216Z" fill="#F5F5F5"/>
<path d="M749.44 207.487C745.524 220.751 742.522 229.685 732.329 233.963C712.035 242.434 703.049 233.448 702.262 219.428C701.622 206.817 708.137 187.247 724.424 184.395C740.711 181.543 753.356 194.206 749.44 207.487Z" fill="#B55B52"/>
<path d="M738.204 200.58C733.83 204.48 732.091 221.73 738.698 221.438C743.198 221.197 747.674 220.657 752.093 219.823C752.093 219.823 760.493 216.834 755.9 205.013C751.306 193.192 738.204 200.58 738.204 200.58Z" fill="#E0E0E0"/>
<path opacity="0.2" d="M726.51 205.872C728.368 205.422 730.339 205.675 732 206.576C730.139 206.675 728.275 206.436 726.51 205.872Z" fill="black"/>
<path opacity="0.2" d="M726.327 207.109C727.188 207.065 728.048 207.196 728.851 207.492C729.653 207.789 730.377 208.244 730.975 208.827C729.312 208.575 727.727 207.989 726.327 207.109Z" fill="black"/>
<path opacity="0.2" d="M714.066 191.886C718.702 191.866 723.326 192.303 727.864 193.192C720.16 192.677 714.066 191.886 714.066 191.886Z" fill="black"/>
<path opacity="0.2" d="M711.87 193.02C711.87 193.02 722.411 194.103 727.297 196.233C722.086 195.474 716.933 194.401 711.87 193.02Z" fill="black"/>
<path d="M752.35 223.019C751.016 224.364 749.414 225.45 747.633 226.213C745.853 226.977 743.93 227.403 741.974 227.469C736.721 227.589 735.331 222.881 737.819 218.878C740.07 215.253 745.505 210.82 750.263 212.624C751.292 213.03 752.198 213.669 752.9 214.484C753.601 215.299 754.076 216.265 754.283 217.295C754.49 218.325 754.421 219.386 754.084 220.385C753.747 221.384 753.151 222.289 752.35 223.019Z" fill="#B55B52"/>
<path d="M721.864 205.684C722.091 204.498 721.605 203.424 720.78 203.284C719.954 203.145 719.101 203.994 718.874 205.18C718.647 206.366 719.132 207.44 719.958 207.58C720.784 207.719 721.637 206.87 721.864 205.684Z" fill="#263238"/>
<path d="M708.796 203.759C708.576 204.927 707.716 205.769 706.966 205.614C706.215 205.459 705.666 204.394 705.904 203.209C706.142 202.023 706.984 201.181 707.734 201.336C708.484 201.491 709.034 202.573 708.796 203.759Z" fill="#263238"/>
<path d="M712.95 205.442L711.12 215.407C709.849 215.425 708.584 215.257 707.368 214.909C707.128 214.826 706.916 214.683 706.755 214.495C706.595 214.307 706.493 214.081 706.459 213.843C706.425 213.604 706.461 213.361 706.563 213.14C706.665 212.92 706.83 212.729 707.039 212.59C709.482 210.587 711.489 208.16 712.95 205.442Z" fill="#A02724"/>
<path d="M729.255 203.518C729.373 203.557 729.503 203.557 729.621 203.518C729.71 203.478 729.79 203.421 729.855 203.351C729.921 203.282 729.97 203.2 730.001 203.112C730.032 203.023 730.043 202.93 730.035 202.838C730.026 202.745 729.997 202.655 729.95 202.573C729.44 201.548 728.675 200.652 727.72 199.961C726.765 199.271 725.647 198.805 724.46 198.604C724.362 198.592 724.262 198.599 724.166 198.623C724.07 198.648 723.98 198.691 723.902 198.748C723.823 198.806 723.758 198.877 723.709 198.959C723.661 199.04 723.63 199.13 723.619 199.223C723.602 199.408 723.661 199.593 723.783 199.739C723.905 199.886 724.082 199.983 724.277 200.013C725.207 200.19 726.079 200.57 726.823 201.122C727.567 201.674 728.162 202.383 728.56 203.192C728.63 203.303 728.732 203.394 728.856 203.452C728.979 203.51 729.118 203.533 729.255 203.518Z" fill="#263238"/>
<path d="M704.422 199.652C704.544 199.67 704.669 199.661 704.787 199.625C704.904 199.589 705.011 199.528 705.099 199.446C705.723 198.782 706.507 198.267 707.385 197.944C708.264 197.622 709.211 197.5 710.15 197.591C710.344 197.621 710.542 197.578 710.703 197.472C710.864 197.366 710.974 197.205 711.01 197.024C711.042 196.839 710.998 196.651 710.885 196.497C710.772 196.343 710.601 196.236 710.406 196.199C709.223 196.068 708.024 196.206 706.91 196.601C705.795 196.996 704.798 197.635 704.001 198.467C703.929 198.531 703.872 198.608 703.833 198.694C703.793 198.78 703.773 198.872 703.773 198.965C703.773 199.058 703.793 199.15 703.833 199.236C703.872 199.322 703.929 199.399 704.001 199.463C704.112 199.572 704.262 199.64 704.422 199.652Z" fill="#263238"/>
<path d="M740.089 239.41C740.089 239.41 729.493 251.437 715.713 252.09C723.728 255.664 725.083 264.117 725.083 264.117C725.083 264.117 742.303 259.203 745.542 242.004C744.917 241.198 744.096 240.542 743.148 240.091C742.2 239.64 741.151 239.406 740.089 239.41Z" fill="white"/>
<path d="M710.369 256.248L704.33 251.093L696.644 253.241C696.644 253.241 702.446 259.495 710.369 256.248Z" fill="#673DE6"/>
<path opacity="0.3" d="M710.369 256.248L704.33 251.093L696.644 253.241C696.644 253.241 702.446 259.495 710.369 256.248Z" fill="black"/>
<path d="M710.04 241.145C710.04 241.145 704.678 246.97 704.422 251.179C697.98 252.897 694.869 261.763 694.869 261.763C694.869 261.763 693.698 249.066 703.818 242.228C705.73 241.291 707.897 240.914 710.04 241.145Z" fill="white"/>
<path d="M778.738 623.534H773.523L772.114 621.541L769.369 623.551H737.893C737.704 621.222 738.171 618.887 739.247 616.781C739.247 616.781 748.653 615.974 752.276 611.627C752.403 611.456 752.579 611.324 752.783 611.245C752.987 611.165 753.212 611.143 753.429 611.18C756.577 611.799 769.021 614.015 775.865 611.696C776.035 611.632 776.219 611.608 776.401 611.625C776.583 611.642 776.758 611.701 776.911 611.795C777.063 611.89 777.19 612.018 777.278 612.168C777.367 612.318 777.416 612.486 777.421 612.658C777.559 616.31 778 619.946 778.738 623.534Z" fill="#263238"/>
<path d="M710.662 260.732C712.145 258.567 712.913 256.265 711.248 255.234C710.058 254.512 706.49 253.516 705.758 255.766C705.026 258.017 705.117 259.942 706.124 260.921C706.426 261.205 706.787 261.427 707.186 261.573C707.584 261.718 708.01 261.784 708.437 261.767C708.865 261.749 709.283 261.648 709.666 261.47C710.049 261.291 710.388 261.04 710.662 260.732Z" fill="#263238"/>
<path d="M711.413 255.715C714.524 251.66 723.674 250.217 723.674 253.55C723.674 259.959 723.454 266.436 720.526 267.948C717.598 269.46 712.986 259.546 710.735 259.357L711.413 255.715Z" fill="#263238"/>
<path d="M706.38 255.457C704.55 251.179 698.749 249.667 697.797 252.846C695.967 258.945 695.711 263.996 697.797 265.749C699.884 267.501 704.459 259.117 706.307 259.186L706.38 255.457Z" fill="#263238"/>
<path d="M604.138 249.736C606.444 241.884 600.606 237.022 597.367 231.936C596.8 231.077 594 231.541 593.853 233.362C593.668 234.472 593.723 235.606 594.016 236.695C594.308 237.784 594.832 238.807 595.555 239.702C593.853 241.695 591.328 248.671 597.257 253.207C599.926 252.881 602.375 251.646 604.138 249.736Z" fill="#B55B52"/>
<path d="M762.598 244.736C761.787 244.263 760.883 243.947 759.94 243.809C758.997 243.67 758.034 243.711 757.108 243.929C751.398 250.097 726.601 294.992 736.795 378.201H742.596C732.348 294.974 756.888 250.904 762.598 244.736Z" fill="white"/>
<path d="M743.145 385.005L742.632 378.871C742.591 378.547 742.417 378.251 742.147 378.046C741.877 377.841 741.533 377.742 741.187 377.771L738.387 377.909C738.045 377.922 737.723 378.061 737.49 378.296C737.257 378.531 737.132 378.842 737.142 379.163L737.655 385.314C737.7 385.636 737.876 385.929 738.145 386.134C738.413 386.338 738.755 386.438 739.1 386.414L741.9 386.259C742.07 386.255 742.237 386.218 742.392 386.153C742.547 386.087 742.686 385.993 742.802 385.876C742.918 385.76 743.008 385.623 743.067 385.473C743.126 385.323 743.152 385.164 743.145 385.005Z" fill="white"/>
<path d="M743.273 381.07H737.014C736.68 381.061 736.358 380.945 736.102 380.743C735.846 380.54 735.671 380.262 735.605 379.953L735.203 377.582C735.172 377.444 735.175 377.301 735.212 377.165C735.249 377.028 735.318 376.901 735.415 376.793C735.513 376.686 735.634 376.6 735.772 376.543C735.909 376.487 736.059 376.46 736.209 376.466H742.468C742.8 376.476 743.119 376.592 743.372 376.795C743.625 376.998 743.796 377.276 743.858 377.582L744.279 379.953C744.31 380.091 744.307 380.234 744.27 380.371C744.233 380.508 744.163 380.635 744.066 380.742C743.969 380.85 743.847 380.936 743.71 380.992C743.572 381.049 743.423 381.076 743.273 381.07Z" fill="#263238"/>
<path d="M694.247 243.43C693.167 242.623 689.764 243.087 688.062 243.997C682.078 250.165 655.122 295.06 661.417 378.27H667.218C660.941 294.974 688.263 249.53 694.247 243.43Z" fill="white"/>
<path d="M667.493 385.005L667.273 378.871C667.262 378.712 667.216 378.557 667.139 378.415C667.063 378.273 666.956 378.146 666.826 378.044C666.697 377.941 666.546 377.864 666.384 377.817C666.222 377.771 666.051 377.755 665.882 377.772L663.064 377.909C662.719 377.926 662.394 378.065 662.153 378.297C661.912 378.53 661.773 378.839 661.765 379.163L661.984 385.314C662.017 385.632 662.181 385.925 662.441 386.13C662.701 386.336 663.036 386.438 663.375 386.414L666.193 386.259C666.54 386.246 666.867 386.109 667.109 385.875C667.351 385.642 667.488 385.33 667.493 385.005Z" fill="white"/>
<path d="M667.804 381.07H661.545C661.216 381.062 660.9 380.946 660.653 380.742C660.405 380.538 660.242 380.259 660.191 379.954L659.898 377.582C659.877 377.441 659.888 377.298 659.932 377.161C659.976 377.025 660.051 376.899 660.152 376.793C660.253 376.686 660.378 376.602 660.517 376.546C660.657 376.489 660.808 376.462 660.959 376.466H667.218C667.547 376.474 667.863 376.59 668.11 376.794C668.358 376.998 668.521 377.277 668.572 377.582L668.865 379.954C668.886 380.095 668.875 380.238 668.831 380.375C668.787 380.511 668.712 380.637 668.611 380.743C668.509 380.85 668.385 380.934 668.246 380.991C668.106 381.047 667.955 381.074 667.804 381.07Z" fill="#263238"/>
<path d="M726.181 173.519C719.08 168.21 707.313 182.402 722.85 190.288C742.321 200.185 739.979 216.163 765.16 211.49C754.381 204.394 761.225 198.982 756.668 188.742C751.581 177.248 737.691 182.11 726.181 173.519Z" fill="#F5F5F5"/>
<path d="M715.347 182.024C717.653 189.962 720.453 191.818 723.051 193.896C721.233 191.165 719.927 188.16 719.19 185.014L715.347 182.024Z" fill="#F5F5F5"/>
<path d="M704.953 219.067C704.953 219.067 710.443 218.672 725.284 220.785C722.887 224.737 719.099 227.658 711.486 226.575C710.516 226.525 709.567 226.286 708.701 225.873C707.835 225.459 707.07 224.881 706.455 224.174C705.84 223.468 705.389 222.649 705.131 221.769C704.872 220.89 704.811 219.97 704.953 219.067Z" fill="#263238"/>
<path d="M715.53 223.723C712.63 223.158 709.614 223.464 706.911 224.6C708.184 225.664 709.775 226.335 711.467 226.524C714.361 227.096 717.373 226.79 720.068 225.648C718.812 224.57 717.222 223.896 715.53 223.723Z" fill="#A02724"/>
<path d="M705.648 219.05C705.714 219.584 705.935 220.09 706.287 220.515C706.639 220.939 707.108 221.264 707.643 221.455C712.053 222.061 716.509 222.326 720.965 222.246C721.668 222.281 722.369 222.154 723.007 221.875C723.645 221.596 724.201 221.175 724.625 220.648C718.353 219.658 712.008 219.123 705.648 219.05Z" fill="white"/>
<path d="M704.641 229.29C704.788 233.018 708.777 236.163 707.734 238.499C712.667 238.85 717.6 237.809 721.898 235.51C722.218 235.287 722.462 234.981 722.6 234.63C722.738 234.279 722.764 233.898 722.674 233.533C722.585 233.168 722.384 232.836 722.097 232.577C721.81 232.318 721.448 232.143 721.057 232.073C717.92 231.782 714.911 230.754 712.309 229.084C711.979 228.822 711.561 228.679 711.129 228.679C710.697 228.679 710.279 228.822 709.949 229.084C706.801 231.403 704.641 229.29 704.641 229.29Z" fill="#F5F5F5"/>
<path d="M772.736 384.249L679.845 323.478L680.87 322.087L774.657 381.62L772.736 384.249Z" fill="#263238"/>
<path d="M764.72 359.267L773.724 363.545C780.898 370.899 769.222 377.909 769.222 377.909L765.068 383.407C764.27 384.334 763.147 384.964 761.9 385.184C760.653 385.405 759.363 385.201 758.261 384.61L751.929 381.654C751.258 381.4 750.648 381.023 750.133 380.546C749.618 380.069 749.209 379.502 748.928 378.876C748.647 378.25 748.501 377.578 748.498 376.899C748.495 376.22 748.635 375.547 748.909 374.919L751.654 369.645C752.445 368.101 753.634 366.766 755.113 365.762L764.72 359.267Z" fill="#B55B52"/>
</svg>
