<svg width="67" height="66" viewBox="0 0 67 66" fill="none" xmlns="http://www.w3.org/2000/svg">
<path d="M58.0174 22.908C58.0049 20.856 57.6355 18.8218 56.9256 16.8965C56.3097 15.2723 55.3618 13.7945 54.1424 12.5574C52.9231 11.3203 51.4591 10.3512 49.844 9.712C47.9537 8.98681 45.954 8.58764 43.9301 8.53149C41.3248 8.39622 40.4987 8.35775 33.8831 8.31007C27.2675 8.26239 26.4196 8.25628 23.8313 8.38663C21.8078 8.41391 19.8035 8.78422 17.9038 9.48178C16.2794 10.0972 14.8013 11.045 13.5642 12.2644C12.3271 13.4838 11.3581 14.9481 10.7193 16.5634C9.9927 18.4523 9.59437 20.4515 9.54152 22.4746C9.40623 25.0826 9.36505 25.9086 9.31737 32.5243C9.26969 39.1399 9.2636 39.9851 9.39664 42.5761C9.42267 44.6028 9.79024 46.6049 10.489 48.5091C11.1056 50.133 12.054 51.6104 13.2739 52.847C14.4937 54.0837 15.9581 55.0522 17.5734 55.6908C19.4575 56.4446 21.4564 56.8713 23.484 56.9526C26.092 57.0879 26.918 57.1291 33.5336 57.1767C40.1492 57.2244 40.9972 57.2305 43.5855 57.0975C45.6099 57.0722 47.6152 56.7028 49.5157 56.005C51.1395 55.3884 52.6169 54.4403 53.8539 53.221C55.0909 52.0017 56.0602 50.5381 56.7002 48.9234C57.4263 47.0322 57.8227 45.0356 57.878 43.0068C58.0133 40.4015 58.0545 39.5755 58.1022 32.9572C58.1444 26.3415 58.1505 25.5017 58.0174 22.908ZM33.6009 45.2105C26.6819 45.1607 21.1172 39.5151 21.167 32.5961C21.2169 25.6771 26.8624 20.1124 33.7815 20.1622C37.1031 20.1862 40.2791 21.5287 42.6109 23.8943C44.9427 26.26 46.2393 29.455 46.2153 32.7767C46.1914 36.0983 44.8489 39.2743 42.4833 41.6061C40.1176 43.9379 36.9225 45.2345 33.6009 45.2105ZM46.7864 22.7133C45.169 22.7016 43.8754 21.3864 43.887 19.7718C43.8898 19.3885 43.968 19.0094 44.1173 18.6563C44.2665 18.3032 44.4838 17.983 44.7569 17.7139C45.0299 17.4448 45.3532 17.2321 45.7084 17.0879C46.0636 16.9438 46.4438 16.871 46.8271 16.8738C47.2104 16.8766 47.5895 16.9548 47.9426 17.104C48.2957 17.2533 48.6159 17.4706 48.885 17.7436C49.1541 18.0167 49.3668 18.34 49.511 18.6952C49.6551 19.0504 49.7279 19.4305 49.7251 19.8139C49.7135 21.4285 48.3983 22.7249 46.7864 22.7133Z" fill="black"/>
<path d="M33.6326 40.8221C38.1256 40.8545 41.7942 37.2384 41.8266 32.7454C41.859 28.2523 38.2429 24.5837 33.7499 24.5513C29.2568 24.5189 25.5882 28.135 25.5558 32.6281C25.5234 37.1211 29.1395 40.7897 33.6326 40.8221Z" fill="black"/>
</svg>
