<svg width="51" height="57" viewBox="0 0 51 57" fill="none" xmlns="http://www.w3.org/2000/svg">
<path d="M25.4074 0.180186C11.6004 0.0806708 0.316697 12.6703 0.204041 28.3004C0.0913849 43.9305 11.1925 56.6816 24.9994 56.7811C38.8063 56.8806 50.0901 44.2909 50.2027 28.6608C50.3154 13.0307 39.2143 0.279701 25.4074 0.180186ZM18.9992 40.1665L13.9368 40.13L14.0698 21.6875L19.1321 21.724L18.9992 40.1665ZM16.586 19.4415C14.9871 19.43 13.9625 18.1402 13.974 16.5542C13.9856 14.9357 15.0597 13.6994 16.6924 13.7111C18.3252 13.7229 19.3162 14.9741 19.3358 16.5928C19.3244 18.1788 18.2839 19.4537 16.586 19.4415ZM37.4883 40.2997L32.4259 40.2632L32.4996 30.0427C32.5168 27.6636 31.794 26.0429 29.9634 26.0297C28.565 26.0196 27.7264 27.1073 27.3516 28.1571C27.2135 28.5305 27.1758 29.0609 27.172 29.5886L27.0954 40.2219L22.0304 40.1854L22.1209 27.627C22.1375 25.3247 22.0863 23.3992 22.0305 21.742L26.4288 21.7737L26.6421 24.3371L26.7437 24.3378C27.419 23.1399 29.0646 21.377 31.7963 21.3967C35.1269 21.4207 37.606 23.9651 37.5669 29.3952L37.4883 40.2997Z" fill="black"/>
</svg>
