<svg width="52" height="51" viewBox="0 0 52 51" fill="none"
 xmlns="http://www.w3.org/2000/svg">
<path d="M45.8523 8.66761C45.6631 8.64674 45.4723 8.64536 45.2829 8.66351L6.39498 8.38322C6.14572 8.38526 5.89786 8.42085 5.65809 8.48902L25.583 28.6193L45.8523 8.66761Z" fill="#333333"/>
<path d="M47.8939 10.6136L27.527 30.6062C27.0029 31.1198 26.2968 31.4051 25.5629 31.3998C24.8291 31.3945 24.1272 31.099 23.6105 30.5779L3.71337 10.4479C3.65012 10.6739 3.61578 10.907 3.61114 11.1416L3.41094 38.9187C3.40563 39.6554 3.69318 40.364 4.21035 40.8887C4.72752 41.4134 5.43193 41.7111 6.16862 41.7164L45.0565 41.9967C45.7932 42.002 46.5018 41.7145 47.0265 41.1973C47.5512 40.6801 47.8489 39.9757 47.8542 39.239L48.0544 11.462C48.0455 11.1725 47.9913 10.8863 47.8939 10.6136ZM8.09137 38.9524L6.16086 38.9385L6.17518 36.9524L16.3443 27.0116L18.2885 28.984L8.09137 38.9524ZM45.0487 39.2188L43.1044 39.2048L33.052 29.0904L35.0244 27.1462L45.0492 37.2326L45.0487 39.2188Z" fill="#333333"/>
</svg>
