<svg width="578" height="453" viewBox="0 0 578 453" fill="none" xmlns="http://www.w3.org/2000/svg">
<path d="M578 400.047H0.335632V400.336H578V400.047Z" fill="#EBEBEB"/>
<path d="M520.118 418.636H481.854V418.925H520.118V418.636Z" fill="#EBEBEB"/>
<path d="M383.004 421.779H372.964V422.067H383.004V421.779Z" fill="#EBEBEB"/>
<path d="M480.698 407.915H458.527V408.204H480.698V407.915Z" fill="#EBEBEB"/>
<path d="M110.843 409.856H60.9442V410.145H110.843V409.856Z" fill="#EBEBEB"/>
<path d="M128.45 409.856H121.137V410.145H128.45V409.856Z" fill="#EBEBEB"/>
<path d="M260.458 414.731H152.227V415.02H260.458V414.731Z" fill="#EBEBEB"/>
<path d="M274.149 348.519H51.0661C49.3185 348.516 47.6435 347.82 46.4089 346.583C45.1742 345.346 44.4807 343.67 44.4807 341.922V28.3315C44.496 26.5939 45.1961 24.9325 46.4291 23.7081C47.6622 22.4837 49.3285 21.7953 51.0661 21.7923H274.149C275.898 21.7923 277.576 22.4874 278.813 23.7245C280.05 24.9617 280.745 26.6396 280.745 28.3893V341.922C280.745 343.672 280.05 345.35 278.813 346.587C277.576 347.824 275.898 348.519 274.149 348.519V348.519ZM51.0661 22.0234C49.3951 22.0265 47.7936 22.6924 46.6131 23.8751C45.4326 25.0577 44.7696 26.6605 44.7696 28.3315V341.922C44.7696 343.593 45.4326 345.196 46.6131 346.379C47.7936 347.561 49.3951 348.227 51.0661 348.23H274.149C275.821 348.227 277.423 347.562 278.606 346.379C279.788 345.197 280.454 343.594 280.457 341.922V28.3315C280.454 26.6594 279.788 25.0567 278.606 23.8744C277.423 22.692 275.821 22.0264 274.149 22.0234H51.0661Z" fill="#EBEBEB"/>
<path d="M524.058 348.519H300.964C299.215 348.516 297.539 347.82 296.302 346.584C295.066 345.347 294.37 343.671 294.367 341.922V28.3315C294.385 26.5928 295.088 24.9314 296.323 23.7074C297.558 22.4833 299.225 21.7953 300.964 21.7923H524.058C525.793 21.7983 527.457 22.4881 528.687 23.7122C529.918 24.9362 530.616 26.5959 530.632 28.3315V341.922C530.632 343.668 529.94 345.342 528.708 346.579C527.475 347.815 525.803 348.513 524.058 348.519V348.519ZM300.964 22.0234C299.292 22.0264 297.689 22.692 296.507 23.8744C295.324 25.0567 294.659 26.6594 294.656 28.3315V341.922C294.659 343.594 295.324 345.197 296.507 346.379C297.689 347.562 299.292 348.227 300.964 348.23H524.058C525.73 348.227 527.333 347.562 528.515 346.379C529.697 345.197 530.363 343.594 530.366 341.922V28.3315C530.363 26.6594 529.697 25.0567 528.515 23.8744C527.333 22.692 525.73 22.0264 524.058 22.0234H300.964Z" fill="#EBEBEB"/>
<path d="M504.024 400.047H540.648V335.21H504.024V400.047Z" fill="#F0F0F0"/>
<path d="M471.952 400.047H508.576V349.432H471.952V400.047Z" fill="#F0F0F0"/>
<path d="M448.534 400.047H485.158V307.725H448.534V400.047Z" fill="#F0F0F0"/>
<path d="M424.203 400.047H460.827V232.871H424.203V400.047Z" fill="#F0F0F0"/>
<path d="M333.625 400.047H431.897V245.88H333.625V400.047Z" fill="#F0F0F0"/>
<path d="M84.0392 342.026H32.1881V400.047H84.0392V342.026Z" fill="#F5F5F5"/>
<path d="M129.444 354.746H77.5925V400.035H129.444V354.746Z" fill="#F5F5F5"/>
<path d="M162.602 317.429H110.75V400.047H162.602V317.429Z" fill="#F5F5F5"/>
<path d="M197.065 250.443H145.214V400.047H197.065V250.443Z" fill="#F5F5F5"/>
<path d="M186.598 400.047H271.445V217.286H186.598L186.598 400.047Z" fill="#F0F0F0"/>
<path d="M194.662 247.197H198.706V224.957H194.662V247.197Z" fill="#F5F5F5"/>
<path d="M194.662 281.961H198.706V259.721H194.662V281.961Z" fill="#F5F5F5"/>
<path d="M194.662 316.748H198.706V294.508H194.662V316.748Z" fill="#F5F5F5"/>
<path d="M194.662 351.523H198.706V329.283H194.662V351.523Z" fill="#F5F5F5"/>
<path d="M194.662 386.299H198.706V364.058H194.662V386.299Z" fill="#F5F5F5"/>
<path d="M208.988 247.197H213.032V224.957H208.988V247.197Z" fill="#F5F5F5"/>
<path d="M208.988 281.961H213.032V259.721H208.988V281.961Z" fill="#F5F5F5"/>
<path d="M208.988 316.748H213.032V294.508H208.988V316.748Z" fill="#F5F5F5"/>
<path d="M208.988 351.523H213.032V329.283H208.988V351.523Z" fill="#F5F5F5"/>
<path d="M208.988 386.299H213.032V364.058H208.988V386.299Z" fill="#F5F5F5"/>
<path d="M223.303 247.197H227.346V224.957H223.303V247.197Z" fill="#F5F5F5"/>
<path d="M223.303 281.961H227.346V259.721H223.303V281.961Z" fill="#F5F5F5"/>
<path d="M223.303 316.748H227.346V294.508H223.303V316.748Z" fill="#F5F5F5"/>
<path d="M223.303 351.523H227.346V329.283H223.303V351.523Z" fill="#F5F5F5"/>
<path d="M223.303 386.299H227.346V364.058H223.303V386.299Z" fill="#F5F5F5"/>
<path d="M237.629 247.197H241.672V224.957H237.629V247.197Z" fill="#F5F5F5"/>
<path d="M237.629 281.961H241.672V259.721H237.629V281.961Z" fill="#F5F5F5"/>
<path d="M237.629 316.748H241.672V294.508H237.629V316.748Z" fill="#F5F5F5"/>
<path d="M237.629 351.523H241.672V329.283H237.629V351.523Z" fill="#F5F5F5"/>
<path d="M237.629 386.299H241.672V364.058H237.629V386.299Z" fill="#F5F5F5"/>
<path d="M251.932 247.197H255.975V224.957H251.932V247.197Z" fill="#F5F5F5"/>
<path d="M251.932 281.961H255.975V259.721H251.932V281.961Z" fill="#F5F5F5"/>
<path d="M251.932 316.748H255.975V294.508H251.932V316.748Z" fill="#F5F5F5"/>
<path d="M251.932 351.523H255.975V329.283H251.932V351.523Z" fill="#F5F5F5"/>
<path d="M251.932 386.299H255.975V364.058H251.932V386.299Z" fill="#F5F5F5"/>
<path opacity="0.5" d="M271.445 217.285H253.953L246.351 400.047H271.445V217.285Z" fill="#E0E0E0"/>
<path d="M411.471 91.3084L308.543 103.047V400.047H411.471V91.3084Z" fill="#F0F0F0"/>
<path d="M493.823 91.3084H411.471V400.047H493.823V91.3084Z" fill="#E6E6E6"/>
<path d="M493.823 116.887H308.543V118.47H493.823V116.887Z" fill="#E0E0E0"/>
<path d="M493.823 133.697H308.543V135.28H493.823V133.697Z" fill="#E0E0E0"/>
<path d="M493.823 150.507H308.543V152.09H493.823V150.507Z" fill="#E0E0E0"/>
<path d="M493.823 167.318H308.543V168.9H493.823V167.318Z" fill="#E0E0E0"/>
<path d="M493.823 184.128H308.543V185.71H493.823V184.128Z" fill="#E0E0E0"/>
<path d="M493.823 200.938H308.543V202.52H493.823V200.938Z" fill="#E0E0E0"/>
<path d="M493.823 217.748H308.543V219.33H493.823V217.748Z" fill="#E0E0E0"/>
<path d="M493.823 234.558H308.543V236.14H493.823V234.558Z" fill="#E0E0E0"/>
<path d="M493.823 251.368H308.543V252.95H493.823V251.368Z" fill="#E0E0E0"/>
<path d="M493.823 268.178H308.543V269.761H493.823V268.178Z" fill="#E0E0E0"/>
<path d="M493.823 284.988H308.543V286.571H493.823V284.988Z" fill="#E0E0E0"/>
<path d="M493.823 301.809H308.543V303.392H493.823V301.809Z" fill="#E0E0E0"/>
<path d="M493.823 318.619H308.543V320.202H493.823V318.619Z" fill="#E0E0E0"/>
<path d="M493.823 335.429H308.543V337.012H493.823V335.429Z" fill="#E0E0E0"/>
<path d="M493.823 352.239H308.543V353.822H493.823V352.239Z" fill="#E0E0E0"/>
<path d="M493.823 369.049H308.543V370.632H493.823V369.049Z" fill="#E0E0E0"/>
<path d="M493.823 385.859H308.543V387.442H493.823V385.859Z" fill="#E0E0E0"/>
<path d="M125.134 400.047H173.958L173.958 145.193H125.134L125.134 400.047Z" fill="#F0F0F0"/>
<path d="M125.134 145.193H173.958L155.993 122.687H86.0726L125.134 145.193Z" fill="#FAFAFA"/>
<path d="M125.134 145.193L86.0726 122.687V400.047H125.134V145.193Z" fill="#EBEBEB"/>
<path d="M86.0842 158.422H173.958V157.07H86.0842V158.422Z" fill="#E0E0E0"/>
<path d="M86.0842 172.852H173.958V171.5H86.0842V172.852Z" fill="#E0E0E0"/>
<path d="M86.0842 187.282H173.958V185.93H86.0842V187.282Z" fill="#E0E0E0"/>
<path d="M86.0842 201.7H173.958V200.348H86.0842V201.7Z" fill="#E0E0E0"/>
<path d="M86.0842 216.13H173.958V214.778H86.0842V216.13Z" fill="#E0E0E0"/>
<path d="M86.0842 230.549H173.958V229.197H86.0842V230.549Z" fill="#E0E0E0"/>
<path d="M86.0842 244.979H173.958V243.627H86.0842V244.979Z" fill="#E0E0E0"/>
<path d="M86.0842 259.409H173.958V258.057H86.0842V259.409Z" fill="#E0E0E0"/>
<path d="M86.0842 273.827H173.958V272.476H86.0842V273.827Z" fill="#E0E0E0"/>
<path d="M86.0842 288.257H173.958V286.906H86.0842V288.257Z" fill="#E0E0E0"/>
<path d="M86.0842 302.676H173.958V301.324H86.0842V302.676Z" fill="#E0E0E0"/>
<path d="M86.0842 317.106H173.958V315.754H86.0842V317.106Z" fill="#E0E0E0"/>
<path d="M86.0842 331.524H173.958V330.173H86.0842V331.524Z" fill="#E0E0E0"/>
<path d="M86.0842 345.954H173.958V344.603H86.0842V345.954Z" fill="#E0E0E0"/>
<path d="M86.0842 360.384H173.958V359.033H86.0842V360.384Z" fill="#E0E0E0"/>
<path d="M86.0842 374.803H173.958V373.451H86.0842V374.803Z" fill="#E0E0E0"/>
<path d="M86.0842 389.233H173.958V387.881H86.0842V389.233Z" fill="#E0E0E0"/>
<path d="M297.671 400.035H363.513V172.805H297.671V400.035Z" fill="#F0F0F0"/>
<path d="M339.968 221.029H350.539V184.555H339.968V221.029Z" fill="#E6E6E6"/>
<path d="M314.054 221.029H324.625V184.555H314.054V221.029Z" fill="#E6E6E6"/>
<path d="M339.968 268.259H350.539V231.785H339.968V268.259Z" fill="#E6E6E6"/>
<path d="M314.054 268.259H324.625V231.785H314.054V268.259Z" fill="#E6E6E6"/>
<path d="M339.968 315.488H350.539V279.015H339.968V315.488Z" fill="#E6E6E6"/>
<path d="M314.054 315.488H324.625V279.015H314.054V315.488Z" fill="#E6E6E6"/>
<path d="M339.968 362.718H350.539V326.245H339.968V362.718Z" fill="#E6E6E6"/>
<path d="M314.054 362.718H324.625V326.245H314.054V362.718Z" fill="#E6E6E6"/>
<path d="M297.659 172.817H363.502L348.066 157.07H282.224L297.659 172.817Z" fill="white"/>
<path d="M297.66 172.817L282.224 157.07L266.778 172.817V400.047H297.66V172.817Z" fill="#E6E6E6"/>
<path d="M220.148 131.456C237.67 131.456 251.874 117.252 251.874 99.7308C251.874 82.2094 237.67 68.0055 220.148 68.0055C202.627 68.0055 188.423 82.2094 188.423 99.7308C188.423 117.252 202.627 131.456 220.148 131.456Z" fill="#FAFAFA"/>
<path d="M454.195 51.4612C446.304 50.6986 439.06 45.1184 428.778 43.5818C423.66 42.8193 420.69 44.7371 417.663 46.5395C413.874 48.8501 409.241 50.0055 403.43 49.8668C395.787 49.6634 388.222 48.2759 381.005 45.7538C374.489 43.5356 367.684 40.8784 362.52 41.8373C352.942 43.5934 352.665 49.9246 344.739 50.8257C336.814 51.7269 335.369 56.0016 341.943 56.0016H462.352C468.105 56.0016 462.097 52.2121 454.195 51.4612Z" fill="#F5F5F5"/>
<path d="M114.586 50.1441C111.259 52.0966 104.685 50.9182 93.8942 49.2314C87.563 48.2494 84.4205 50.2712 80.0302 52.0851C78.2741 52.8245 70.5565 55.3546 80.631 55.3546H136.664C152.192 55.3546 137.75 52.5818 135.266 51.5074H135.139C127.711 48.2031 117.902 48.2031 114.586 50.1441Z" fill="#F5F5F5"/>
<path d="M150.528 94.3932H211.761C217.122 94.3932 211.53 90.8579 204.17 90.1531C196.811 89.4484 190.064 84.2494 180.44 82.8168C170.816 81.3842 170.562 89.1711 157.922 89.0902C147.709 89.044 140.13 94.3932 150.528 94.3932Z" fill="#F5F5F5"/>
<path d="M289.168 452.222C412.883 452.222 513.175 446.366 513.175 439.143C513.175 431.92 412.883 426.065 289.168 426.065C165.452 426.065 65.1611 431.92 65.1611 439.143C65.1611 446.366 165.452 452.222 289.168 452.222Z" fill="#F5F5F5"/>
<path d="M158.754 168.993C158.405 168.993 158.07 168.854 157.823 168.607C157.576 168.36 157.437 168.025 157.437 167.676V61.8938C157.437 61.5445 157.576 61.2095 157.823 60.9625C158.07 60.7155 158.405 60.5767 158.754 60.5767C159.104 60.5767 159.439 60.7155 159.686 60.9625C159.933 61.2095 160.071 61.5445 160.071 61.8938V167.676C160.071 168.025 159.933 168.36 159.686 168.607C159.439 168.854 159.104 168.993 158.754 168.993V168.993Z" fill="#407BFF"/>
<path d="M194.015 168.993C193.666 168.993 193.331 168.854 193.084 168.607C192.837 168.36 192.698 168.025 192.698 167.676V61.8938C192.681 61.7097 192.702 61.524 192.761 61.3486C192.819 61.1732 192.914 61.0121 193.038 60.8753C193.163 60.7386 193.315 60.6294 193.484 60.5547C193.653 60.48 193.836 60.4414 194.021 60.4414C194.206 60.4414 194.389 60.48 194.558 60.5547C194.727 60.6294 194.878 60.7386 195.003 60.8753C195.128 61.0121 195.222 61.1732 195.281 61.3486C195.339 61.524 195.361 61.7097 195.344 61.8938V167.676C195.341 168.026 195.199 168.361 194.95 168.608C194.702 168.854 194.365 168.993 194.015 168.993V168.993Z" fill="#407BFF"/>
<path d="M194.015 98.4715C193.665 98.4726 193.329 98.3356 193.079 98.0902L176.385 81.3957L159.69 98.044C159.436 98.2572 159.11 98.3673 158.779 98.3526C158.447 98.3379 158.133 98.1996 157.898 97.9648C157.663 97.73 157.525 97.4157 157.51 97.084C157.495 96.7522 157.605 96.427 157.819 96.1724L174.513 79.5588L157.819 62.8296C157.618 62.6468 157.478 62.4067 157.417 62.1419C157.357 61.877 157.379 61.6 157.481 61.3482C157.583 61.0964 157.76 60.8819 157.988 60.7336C158.215 60.5854 158.483 60.5104 158.754 60.5189H194.015C194.277 60.5195 194.534 60.5977 194.751 60.7437C194.969 60.8897 195.139 61.0969 195.24 61.3392C195.341 61.5813 195.367 61.8481 195.316 62.1054C195.264 62.3628 195.137 62.5988 194.951 62.7834L178.256 79.5588L194.951 96.2532C195.159 96.4332 195.305 96.6735 195.369 96.9407C195.433 97.2079 195.413 97.4886 195.309 97.7433C195.206 97.998 195.026 98.2141 194.794 98.3613C194.562 98.5084 194.289 98.5793 194.015 98.5639V98.4715ZM161.943 63.2109L176.385 77.6525L190.826 63.2109H161.943Z" fill="#407BFF"/>
<path d="M158.754 63.2108C158.493 63.2126 158.236 63.1364 158.018 62.9918C157.8 62.8472 157.629 62.6408 157.529 62.399C157.429 62.1573 157.402 61.891 157.454 61.6343C157.506 61.3777 157.632 61.1422 157.818 60.958L175.449 43.3276C175.571 43.204 175.717 43.1058 175.878 43.0388C176.038 42.9718 176.211 42.9373 176.385 42.9373C176.559 42.9373 176.731 42.9718 176.892 43.0388C177.052 43.1058 177.198 43.204 177.32 43.3276L194.951 60.958C195.074 61.0804 195.173 61.2262 195.24 61.3868C195.307 61.5474 195.341 61.7197 195.341 61.8938C195.341 62.0678 195.307 62.2401 195.24 62.4007C195.173 62.5614 195.074 62.7071 194.951 62.8296C194.7 63.0738 194.365 63.2104 194.015 63.2104C193.665 63.2104 193.329 63.0738 193.079 62.8296L176.385 46.1351L159.69 62.8296C159.441 63.075 159.104 63.212 158.754 63.2108V63.2108Z" fill="#407BFF"/>
<path d="M229.276 63.2108C228.926 63.2095 228.591 63.0729 228.34 62.8296L211.645 46.1351L194.951 62.8296C194.7 63.0738 194.365 63.2104 194.015 63.2104C193.665 63.2104 193.329 63.0738 193.079 62.8296C192.955 62.7071 192.857 62.5614 192.79 62.4007C192.723 62.2401 192.689 62.0678 192.689 61.8938C192.689 61.7197 192.723 61.5474 192.79 61.3868C192.857 61.2262 192.955 61.0804 193.079 60.958L210.709 43.3276C210.832 43.204 210.978 43.1058 211.138 43.0388C211.299 42.9718 211.471 42.9373 211.645 42.9373C211.819 42.9373 211.992 42.9718 212.152 43.0388C212.313 43.1058 212.459 43.204 212.581 43.3276L230.246 60.958C230.432 61.1422 230.559 61.3777 230.611 61.6343C230.662 61.891 230.636 62.1573 230.536 62.399C230.435 62.6408 230.265 62.8472 230.047 62.9918C229.828 63.1364 229.572 63.2126 229.31 63.2108H229.276Z" fill="#407BFF"/>
<path d="M229.276 63.2108C228.926 63.2095 228.591 63.0729 228.34 62.8296C228.216 62.7071 228.118 62.5614 228.051 62.4007C227.984 62.2401 227.949 62.0678 227.949 61.8938C227.949 61.7197 227.984 61.5474 228.051 61.3868C228.118 61.2262 228.216 61.0804 228.34 60.958L245.97 43.3276C246.093 43.204 246.238 43.1058 246.399 43.0388C246.56 42.9718 246.732 42.9373 246.906 42.9373C247.08 42.9373 247.252 42.9718 247.413 43.0388C247.573 43.1058 247.719 43.204 247.842 43.3276L265.472 60.958C265.596 61.0804 265.694 61.2262 265.761 61.3868C265.828 61.5474 265.862 61.7197 265.862 61.8938C265.862 62.0678 265.828 62.2401 265.761 62.4007C265.694 62.5614 265.596 62.7071 265.472 62.8296C265.222 63.0738 264.886 63.2104 264.536 63.2104C264.187 63.2104 263.851 63.0738 263.6 62.8296L246.906 46.1351L230.246 62.8296C230.118 62.9553 229.967 63.0539 229.8 63.1194C229.633 63.1849 229.455 63.216 229.276 63.2108Z" fill="#407BFF"/>
<path d="M158.754 133.732C158.493 133.734 158.236 133.658 158.018 133.513C157.8 133.368 157.629 133.162 157.529 132.92C157.429 132.679 157.402 132.412 157.454 132.156C157.506 131.899 157.632 131.663 157.818 131.479L193.079 96.2186C193.334 96.0054 193.659 95.8953 193.991 95.91C194.322 95.9246 194.637 96.063 194.872 96.2978C195.106 96.5326 195.245 96.8469 195.259 97.1786C195.274 97.5104 195.164 97.8356 194.951 98.0902L159.69 133.351C159.441 133.596 159.104 133.733 158.754 133.732Z" fill="#407BFF"/>
<path d="M194.015 133.732C193.665 133.733 193.329 133.596 193.079 133.351L157.818 98.044C157.605 97.7894 157.495 97.4642 157.51 97.1324C157.525 96.8007 157.663 96.4864 157.898 96.2516C158.133 96.0168 158.447 95.8784 158.779 95.8638C159.11 95.8491 159.436 95.9592 159.69 96.1724L194.951 131.433C195.137 131.617 195.264 131.853 195.315 132.109C195.367 132.366 195.341 132.632 195.24 132.874C195.14 133.116 194.97 133.322 194.751 133.467C194.533 133.611 194.277 133.688 194.015 133.686V133.732Z" fill="#407BFF"/>
<path d="M194.015 168.993H158.754C158.493 168.995 158.237 168.919 158.019 168.775C157.801 168.631 157.631 168.425 157.53 168.184C157.432 167.941 157.407 167.675 157.458 167.419C157.509 167.162 157.635 166.926 157.819 166.74L174.513 150.034L157.819 133.339C157.605 133.085 157.495 132.759 157.51 132.428C157.525 132.096 157.663 131.782 157.898 131.547C158.133 131.312 158.447 131.174 158.779 131.159C159.11 131.144 159.436 131.254 159.69 131.468L176.385 148.162L193.079 131.468C193.334 131.254 193.659 131.144 193.991 131.159C194.322 131.174 194.637 131.312 194.872 131.547C195.106 131.782 195.245 132.096 195.259 132.428C195.274 132.759 195.164 133.085 194.951 133.339L178.256 150.034L194.951 166.728C195.137 166.913 195.264 167.148 195.315 167.405C195.367 167.661 195.341 167.928 195.24 168.169C195.14 168.411 194.97 168.618 194.751 168.762C194.533 168.907 194.277 168.983 194.015 168.981V168.993ZM161.943 166.359H190.826L176.385 151.917L161.943 166.359Z" fill="#263238"/>
<path d="M146.415 80.9336H127.584L129.952 61.8938H144.035L146.415 80.9336Z" fill="#407BFF"/>
<path d="M146.415 82.2507H127.584C127.397 82.2502 127.212 82.2109 127.041 82.1353C126.87 82.0598 126.716 81.9495 126.59 81.8116C126.468 81.6695 126.377 81.5039 126.321 81.3251C126.265 81.1463 126.247 80.9581 126.266 80.7718L128.646 61.732C128.686 61.4134 128.84 61.1202 129.081 60.9074C129.321 60.6947 129.631 60.5771 129.952 60.5767H144.035C144.358 60.5767 144.669 60.694 144.911 60.9065C145.154 61.1191 145.31 61.4125 145.352 61.732L147.663 80.7718C147.686 80.9569 147.669 81.1447 147.614 81.3229C147.559 81.501 147.467 81.6654 147.343 81.8052C147.22 81.945 147.068 82.057 146.898 82.1338C146.728 82.2106 146.544 82.2504 146.358 82.2507H146.415ZM129.085 79.605H144.913L142.869 63.2108H131.13L129.085 79.605Z" fill="#407BFF"/>
<path d="M264.536 63.2108H124.603C124.419 63.2281 124.233 63.2067 124.058 63.148C123.882 63.0894 123.721 62.9948 123.584 62.8703C123.448 62.7457 123.338 62.5941 123.264 62.4249C123.189 62.2558 123.15 62.0729 123.15 61.888C123.15 61.7031 123.189 61.5202 123.264 61.3511C123.338 61.1819 123.448 61.0302 123.584 60.9057C123.721 60.7812 123.882 60.6866 124.058 60.628C124.233 60.5693 124.419 60.5479 124.603 60.5651H264.536C264.72 60.5479 264.906 60.5693 265.081 60.628C265.257 60.6866 265.418 60.7812 265.555 60.9057C265.691 61.0302 265.801 61.1819 265.875 61.3511C265.95 61.5202 265.989 61.7031 265.989 61.888C265.989 62.0729 265.95 62.2558 265.875 62.4249C265.801 62.5941 265.691 62.7457 265.555 62.8703C265.418 62.9948 265.257 63.0894 265.081 63.148C264.906 63.2067 264.72 63.2281 264.536 63.2108Z" fill="#263238"/>
<path d="M246.906 45.5805H176.431C176.101 45.5497 175.795 45.397 175.572 45.1523C175.35 44.9077 175.226 44.5886 175.226 44.2577C175.226 43.9267 175.35 43.6077 175.572 43.363C175.795 43.1184 176.101 42.9657 176.431 42.9348H246.906C247.09 42.9176 247.276 42.939 247.451 42.9977C247.626 43.0563 247.788 43.1509 247.924 43.2754C248.061 43.3999 248.17 43.5516 248.245 43.7208C248.32 43.8899 248.358 44.0728 248.358 44.2577C248.358 44.4426 248.32 44.6255 248.245 44.7946C248.17 44.9638 248.061 45.1154 247.924 45.24C247.788 45.3645 247.626 45.4591 247.451 45.5177C247.276 45.5764 247.09 45.5978 246.906 45.5805V45.5805Z" fill="#407BFF"/>
<path d="M283.056 121.093H147.109C139.918 121.093 134.088 126.922 134.088 134.113V420.762C134.088 427.953 139.918 433.783 147.109 433.783H283.056C290.247 433.783 296.077 427.953 296.077 420.762V134.113C296.077 126.922 290.247 121.093 283.056 121.093Z" fill="#407BFF"/>
<path opacity="0.2" d="M283.056 121.093H147.109C139.918 121.093 134.088 126.922 134.088 134.113V420.762C134.088 427.953 139.918 433.783 147.109 433.783H283.056C290.247 433.783 296.077 427.953 296.077 420.762V134.113C296.077 126.922 290.247 121.093 283.056 121.093Z" fill="black"/>
<path d="M299.693 121.093H163.745C156.554 121.093 150.725 126.922 150.725 134.113V420.762C150.725 427.953 156.554 433.783 163.745 433.783H299.693C306.884 433.783 312.713 427.953 312.713 420.762V134.113C312.713 126.922 306.884 121.093 299.693 121.093Z" fill="#407BFF"/>
<path d="M307.283 420.762V134.102C307.283 129.91 303.885 126.511 299.693 126.511L163.734 126.511C159.542 126.511 156.143 129.91 156.143 134.102L156.143 420.762C156.143 424.954 159.542 428.353 163.734 428.353H299.693C303.885 428.353 307.283 424.954 307.283 420.762Z" fill="white"/>
<path opacity="0.1" d="M305.118 300.521L298.891 172.292C298.639 167.105 294.229 163.103 289.042 163.355L178.053 168.745C172.865 168.997 168.864 173.406 169.116 178.594L175.342 306.823C175.594 312.011 180.004 316.012 185.192 315.76L296.18 310.371C301.368 310.119 305.369 305.709 305.118 300.521Z" fill="black"/>
<path d="M302.951 141.346V135.916C302.951 133.121 300.685 130.855 297.891 130.855H165.548C162.753 130.855 160.487 133.121 160.487 135.916V141.346C160.487 144.14 162.753 146.406 165.548 146.406H297.891C300.685 146.406 302.951 144.14 302.951 141.346Z" fill="#407BFF"/>
<path d="M175.553 142.27C174.587 142.27 173.66 141.887 172.975 141.205C172.291 140.523 171.905 139.597 171.902 138.631C171.905 137.663 172.291 136.737 172.975 136.053C173.659 135.369 174.585 134.983 175.553 134.98V134.98C176.52 134.983 177.447 135.369 178.131 136.053C178.815 136.737 179.201 137.663 179.204 138.631C179.201 139.597 178.815 140.523 178.13 141.205C177.446 141.887 176.519 142.27 175.553 142.27V142.27Z" fill="white"/>
<path d="M186.401 142.27C185.435 142.27 184.508 141.887 183.824 141.205C183.14 140.523 182.754 139.597 182.75 138.631V138.631C182.754 137.663 183.139 136.737 183.823 136.053C184.507 135.369 185.434 134.983 186.401 134.98V134.98C187.368 134.983 188.293 135.369 188.975 136.053C189.658 136.738 190.041 137.664 190.041 138.631V138.631C190.038 139.595 189.653 140.519 188.971 141.201C188.289 141.883 187.366 142.267 186.401 142.27Z" fill="white"/>
<path d="M197.25 142.27C196.284 142.27 195.357 141.887 194.672 141.205C193.988 140.523 193.602 139.597 193.599 138.631V138.631C193.602 137.663 193.988 136.737 194.672 136.053C195.356 135.369 196.283 134.983 197.25 134.98V134.98C198.216 134.983 199.142 135.369 199.824 136.053C200.506 136.738 200.889 137.664 200.889 138.631V138.631C200.886 139.595 200.502 140.519 199.82 141.201C199.138 141.883 198.214 142.267 197.25 142.27Z" fill="white"/>
<path d="M292.796 134.102H287.735C286.638 134.102 285.748 134.991 285.748 136.089V141.149C285.748 142.247 286.638 143.136 287.735 143.136H292.796C293.893 143.136 294.783 142.247 294.783 141.149V136.089C294.783 134.991 293.893 134.102 292.796 134.102Z" fill="white"/>
<path d="M205.736 366.881C218.652 361.531 224.786 346.724 219.436 333.808C214.086 320.892 199.278 314.758 186.362 320.108C173.447 325.458 167.313 340.266 172.663 353.182C178.013 366.098 192.82 372.231 205.736 366.881Z" fill="#407BFF"/>
<path d="M286.407 331.986H237.051C236.212 331.983 235.409 331.649 234.816 331.056C234.223 330.463 233.888 329.66 233.885 328.821V328.821C233.888 327.982 234.223 327.179 234.816 326.586C235.409 325.993 236.212 325.658 237.051 325.655H286.407C287.246 325.655 288.051 325.989 288.645 326.582C289.239 327.176 289.572 327.981 289.572 328.821V328.821C289.572 329.66 289.239 330.466 288.645 331.059C288.051 331.653 287.246 331.986 286.407 331.986V331.986Z" fill="#407BFF"/>
<path d="M286.407 346.659H237.051C236.212 346.656 235.409 346.322 234.816 345.729C234.223 345.136 233.888 344.332 233.885 343.494V343.494C233.888 342.655 234.223 341.852 234.816 341.259C235.409 340.666 236.212 340.331 237.051 340.328H286.407C287.246 340.328 288.051 340.661 288.645 341.255C289.239 341.849 289.572 342.654 289.572 343.494V343.494C289.572 344.333 289.239 345.138 288.645 345.732C288.051 346.326 287.246 346.659 286.407 346.659Z" fill="#407BFF"/>
<path d="M286.407 355.001H237.051C235.303 355.001 233.885 356.418 233.885 358.166C233.885 359.915 235.303 361.332 237.051 361.332H286.407C288.155 361.332 289.572 359.915 289.572 358.166C289.572 356.418 288.155 355.001 286.407 355.001Z" fill="#407BFF"/>
<path d="M281.369 383.017H182.08C175.815 383.017 170.735 388.097 170.735 394.363V408.469C170.735 414.735 175.815 419.815 182.08 419.815H281.369C287.635 419.815 292.715 414.735 292.715 408.469V394.363C292.715 388.097 287.635 383.017 281.369 383.017Z" fill="#E0E0E0"/>
<path d="M318.787 291.241L308.804 163.25C308.4 158.072 303.875 154.201 298.697 154.605L187.914 163.246C182.735 163.65 178.865 168.175 179.269 173.353L189.252 301.345C189.656 306.523 194.181 310.393 199.359 309.989L310.142 301.348C315.321 300.945 319.191 296.419 318.787 291.241Z" fill="white"/>
<path d="M198.602 310.624C196.085 310.62 193.664 309.665 191.822 307.951C189.979 306.237 188.852 303.891 188.666 301.382L178.684 173.383C178.483 170.746 179.335 168.136 181.055 166.127C182.774 164.117 185.22 162.871 187.857 162.662L298.653 154.02C301.29 153.819 303.9 154.671 305.909 156.391C307.919 158.11 309.165 160.556 309.375 163.193L319.357 291.192C319.561 293.831 318.709 296.443 316.99 298.456C315.27 300.468 312.822 301.715 310.183 301.925L199.387 310.555C199.121 310.624 198.867 310.624 198.602 310.624ZM189.821 301.382C190.01 303.709 191.113 305.866 192.888 307.382C194.664 308.897 196.967 309.648 199.295 309.469L310.091 300.827C312.419 300.636 314.576 299.53 316.091 297.753C317.607 295.976 318.357 293.671 318.178 291.342L308.196 163.343C308.007 161.014 306.903 158.855 305.125 157.339C303.347 155.823 301.04 155.074 298.711 155.256L187.926 163.898C185.599 164.089 183.441 165.195 181.926 166.972C180.41 168.749 179.66 171.054 179.839 173.383L189.821 301.382Z" fill="#407BFF"/>
<path d="M313.97 288.974L311.757 260.604C311.438 256.514 307.864 253.457 303.773 253.776L198.266 262.005C194.175 262.324 191.118 265.899 191.437 269.989L193.65 298.359C193.969 302.449 197.543 305.506 201.634 305.187L307.141 296.958C311.232 296.639 314.289 293.064 313.97 288.974Z" fill="#407BFF"/>
<path opacity="0.2" d="M251.384 245.96L245.532 170.929C245.209 166.788 241.59 163.693 237.448 164.016L191.006 167.638C186.865 167.961 183.77 171.58 184.093 175.722L189.945 250.752C190.268 254.893 193.887 257.988 198.029 257.665L244.47 254.043C248.612 253.72 251.707 250.101 251.384 245.96Z" fill="#407BFF"/>
<path opacity="0.2" d="M304.899 177.621L303.906 164.893C303.647 161.566 300.739 159.079 297.412 159.339L257.617 162.443C254.29 162.702 251.803 165.61 252.062 168.937L253.055 181.664C253.315 184.991 256.222 187.478 259.549 187.219L299.345 184.115C302.672 183.855 305.158 180.948 304.899 177.621Z" fill="#407BFF"/>
<path opacity="0.4" d="M307.437 210.246L306.444 197.519C306.184 194.192 303.277 191.705 299.95 191.964L260.154 195.068C256.827 195.328 254.341 198.235 254.6 201.562L255.593 214.29C255.852 217.617 258.76 220.104 262.087 219.844L301.883 216.74C305.21 216.481 307.696 213.573 307.437 210.246Z" fill="#407BFF"/>
<path opacity="0.6" d="M309.986 242.872L308.993 230.144C308.734 226.817 305.826 224.331 302.499 224.59L262.704 227.694C259.377 227.954 256.89 230.861 257.15 234.188L258.142 246.916C258.402 250.243 261.309 252.73 264.636 252.47L304.432 249.366C307.759 249.107 310.246 246.199 309.986 242.872Z" fill="#407BFF"/>
<path d="M261.729 139.22C261.572 139.22 261.423 139.158 261.312 139.047C261.202 138.937 261.14 138.787 261.14 138.631V61.8938C261.122 61.8083 261.124 61.72 261.145 61.6354C261.166 61.5507 261.206 61.4718 261.261 61.4043C261.317 61.3368 261.386 61.2825 261.465 61.2451C261.544 61.2078 261.63 61.1885 261.717 61.1885C261.804 61.1885 261.891 61.2078 261.969 61.2451C262.048 61.2825 262.118 61.3368 262.173 61.4043C262.228 61.4718 262.268 61.5507 262.289 61.6354C262.31 61.72 262.312 61.8083 262.295 61.8938V138.631C262.295 138.783 262.236 138.93 262.131 139.039C262.025 139.149 261.881 139.214 261.729 139.22V139.22Z" fill="#263238"/>
<path d="M269.065 151.189H254.392C253.808 151.189 253.239 150.999 252.771 150.65C252.303 150.3 251.96 149.808 251.793 149.248L248.639 138.527C248.523 138.123 248.502 137.698 248.578 137.285C248.653 136.872 248.824 136.483 249.076 136.147C249.328 135.811 249.654 135.538 250.029 135.35C250.405 135.161 250.819 135.062 251.238 135.061H272.219C272.639 135.062 273.053 135.161 273.428 135.35C273.803 135.538 274.13 135.811 274.382 136.147C274.633 136.483 274.804 136.872 274.88 137.285C274.956 137.698 274.935 138.123 274.819 138.527L271.665 149.248C271.5 149.809 271.157 150.302 270.688 150.652C270.22 151.002 269.65 151.19 269.065 151.189V151.189Z" fill="#263238"/>
<path d="M261.729 167.803C261.379 167.803 261.044 167.664 260.797 167.417C260.55 167.17 260.412 166.835 260.412 166.486C260.412 166.136 260.55 165.801 260.797 165.554C261.044 165.307 261.379 165.169 261.729 165.169C262.954 165.169 264.13 164.682 264.997 163.815C265.863 162.948 266.35 161.773 266.35 160.547C266.35 159.322 265.863 158.146 264.997 157.28C264.13 156.413 262.954 155.926 261.729 155.926C261.379 155.926 261.044 155.787 260.797 155.54C260.55 155.293 260.412 154.958 260.412 154.609V151.189C260.443 150.86 260.595 150.553 260.84 150.331C261.085 150.108 261.404 149.984 261.735 149.984C262.065 149.984 262.385 150.108 262.629 150.331C262.874 150.553 263.027 150.86 263.057 151.189V153.396C264.831 153.732 266.415 154.717 267.501 156.159C268.587 157.6 269.096 159.394 268.93 161.192C268.764 162.989 267.934 164.659 266.603 165.878C265.271 167.096 263.533 167.774 261.729 167.78V167.803Z" fill="#263238"/>
<path d="M465.61 185.352C467.077 188.737 468.278 191.949 469.457 195.323C470.635 198.696 471.71 202.024 472.622 205.49C473.622 209.028 474.424 212.619 475.026 216.246C475.366 218.184 475.605 220.14 475.742 222.103C475.918 224.414 475.86 226.736 475.569 229.035L475.499 229.509C475.467 229.736 475.417 229.96 475.349 230.179C474.31 233.339 473.063 236.426 471.617 239.422C470.266 242.321 468.729 245.06 467.204 247.775C465.679 250.49 464.015 253.089 462.294 255.666C460.572 258.242 458.828 260.737 456.864 263.221C456.208 264.04 455.286 264.603 454.259 264.812C453.231 265.021 452.162 264.863 451.239 264.366C450.316 263.868 449.596 263.063 449.205 262.09C448.814 261.116 448.777 260.037 449.1 259.039V258.935C450.024 256.151 451.052 253.309 452.035 250.513C453.017 247.717 454.033 244.944 454.969 242.171C455.905 239.398 456.841 236.637 457.673 233.945C458.504 231.253 459.232 228.55 459.741 226.089L459.521 227.244C459.497 226.132 459.385 225.023 459.186 223.929C458.955 222.6 458.666 221.144 458.296 219.677C457.927 218.21 457.522 216.708 457.072 215.194C456.621 213.681 456.159 212.156 455.651 210.573C454.634 207.511 453.583 204.415 452.462 201.33L449.077 192.169L449.019 192.007C448.138 189.811 448.165 187.356 449.095 185.181C450.024 183.005 451.78 181.288 453.975 180.407C456.171 179.526 458.626 179.554 460.802 180.483C462.977 181.413 464.694 183.168 465.575 185.364L465.61 185.352Z" fill="#407BFF"/>
<path opacity="0.7" d="M465.61 185.352C467.077 188.737 468.278 191.949 469.457 195.323C470.635 198.696 471.71 202.024 472.622 205.49C473.622 209.028 474.424 212.619 475.026 216.246C475.366 218.184 475.605 220.14 475.742 222.103C475.918 224.414 475.86 226.736 475.569 229.035L475.499 229.509C475.467 229.736 475.417 229.96 475.349 230.179C474.31 233.339 473.063 236.426 471.617 239.422C470.266 242.321 468.729 245.06 467.204 247.775C465.679 250.49 464.015 253.089 462.294 255.666C460.572 258.242 458.828 260.737 456.864 263.221C456.208 264.04 455.286 264.603 454.259 264.812C453.231 265.021 452.162 264.863 451.239 264.366C450.316 263.868 449.596 263.063 449.205 262.09C448.814 261.116 448.777 260.037 449.1 259.039V258.935C450.024 256.151 451.052 253.309 452.035 250.513C453.017 247.717 454.033 244.944 454.969 242.171C455.905 239.398 456.841 236.637 457.673 233.945C458.504 231.253 459.232 228.55 459.741 226.089L459.521 227.244C459.497 226.132 459.385 225.023 459.186 223.929C458.955 222.6 458.666 221.144 458.296 219.677C457.927 218.21 457.522 216.708 457.072 215.194C456.621 213.681 456.159 212.156 455.651 210.573C454.634 207.511 453.583 204.415 452.462 201.33L449.077 192.169L449.019 192.007C448.138 189.811 448.165 187.356 449.095 185.181C450.024 183.005 451.78 181.288 453.975 180.407C456.171 179.526 458.626 179.554 460.802 180.483C462.977 181.413 464.694 183.168 465.575 185.364L465.61 185.352Z" fill="white"/>
<path d="M449.631 257.479L443.728 260.576L451.988 269.16C453.57 268.03 454.983 266.68 456.182 265.151C456.994 264.055 457.34 262.682 457.145 261.332C456.95 259.982 456.231 258.764 455.142 257.941V257.941C454.361 257.351 453.429 256.995 452.454 256.913C451.478 256.831 450.5 257.027 449.631 257.479V257.479Z" fill="#7F3E3B"/>
<path d="M440.516 270.408L443.924 272.926C444.581 273.409 445.387 273.644 446.201 273.592C447.014 273.539 447.783 273.201 448.372 272.637L451.942 269.171L443.681 260.587L439.892 265.567C439.337 266.293 439.09 267.209 439.207 268.116C439.324 269.022 439.795 269.846 440.516 270.408Z" fill="#7F3E3B"/>
<path d="M355.53 202.751L349.441 194.895L342.452 204.542C342.452 204.542 348.829 210.977 352.792 208.147L355.53 202.751Z" fill="#7F3E3B"/>
<path d="M339.217 193.52L337.333 197.31C336.973 198.043 336.884 198.879 337.08 199.672C337.277 200.465 337.747 201.162 338.408 201.642L342.452 204.542L349.441 194.895L343.896 191.995C343.489 191.786 343.044 191.66 342.588 191.624C342.132 191.587 341.674 191.642 341.239 191.783C340.804 191.925 340.401 192.152 340.054 192.45C339.707 192.748 339.422 193.112 339.217 193.52Z" fill="#7F3E3B"/>
<path d="M456.529 440.183H449.204L448.303 439.34L446.951 440.183C442.48 440.183 436.449 440.021 433.572 439.028C433.489 438.692 433.5 438.339 433.604 438.009C433.708 437.679 433.901 437.384 434.162 437.156C434.162 437.156 446.004 433.494 447.067 431.033H456.044" fill="#263238"/>
<path d="M447.448 336.608C445.981 298.736 448.372 268.802 444.779 254.279L411.275 248.861C411.275 248.861 417.444 313.016 424.861 339.554C432.278 366.092 445.657 431.634 445.657 431.634H457.06C457.06 431.634 457.337 367.686 447.448 336.608Z" fill="#407BFF"/>
<path opacity="0.2" d="M423.186 280.586L416.959 296.761C418.946 310.913 421.326 325.39 423.891 335.788C426.652 316.909 424.653 285.947 423.186 280.586Z" fill="black"/>
<path d="M361.63 429.323C361.63 429.323 378.486 430.605 380.335 428.572L389.173 431.287L386.701 440.183L381.248 438.519L380.635 437.445L379.041 437.838C374.627 436.486 362.959 432.731 360.44 430.906C360.476 430.559 360.605 430.228 360.815 429.949C361.025 429.67 361.306 429.454 361.63 429.323V429.323Z" fill="#263238"/>
<path d="M412.014 338.907C423.283 311.269 430.745 282.228 434.196 252.581L397.619 246.596C397.619 246.596 392.188 312.762 389.82 339.958C387.371 368.229 377.862 428.468 377.862 428.468L389.681 432.05C389.681 432.05 410.789 374.075 412.014 338.907Z" fill="#407BFF"/>
<path d="M447.852 150.092C445.703 157.024 444.386 167.063 446.466 172.736C442.422 175.532 436.068 178.79 428.362 177.554C420.656 176.318 422.851 171.315 425.3 168.935C431.227 166.959 431.851 164.175 430.869 161.506L447.852 150.092Z" fill="#7F3E3B"/>
<path d="M453.398 175.509C451.599 173.348 449.637 171.328 447.529 169.466C445.726 168.219 430.765 166.359 427.195 166.486C423.625 166.613 418.669 171.176 418.669 171.176L453.398 175.509Z" fill="#407BFF"/>
<path opacity="0.7" d="M453.398 175.509C451.599 173.348 449.637 171.328 447.529 169.466C445.726 168.219 430.765 166.359 427.195 166.486C423.625 166.613 418.669 171.176 418.669 171.176L453.398 175.509Z" fill="white"/>
<path d="M427.807 141.808C427.576 142.49 427.033 142.963 426.594 142.778C426.155 142.593 425.959 141.947 426.19 141.253C426.421 140.56 426.964 140.098 427.403 140.294C427.842 140.491 428.038 141.126 427.807 141.808Z" fill="#263238"/>
<path d="M427.542 142.778C426.039 144.592 424.293 146.19 422.354 147.527C422.709 148.019 423.167 148.427 423.695 148.724C424.224 149.022 424.811 149.2 425.416 149.248L427.542 142.778Z" fill="#630F0F"/>
<path d="M427.807 137.083C427.835 137.147 427.879 137.203 427.937 137.244C427.994 137.284 428.061 137.309 428.131 137.314C428.658 137.367 429.166 137.545 429.611 137.832C430.057 138.119 430.429 138.508 430.696 138.966C430.718 139.016 430.75 139.061 430.791 139.099C430.831 139.136 430.879 139.165 430.931 139.184C430.982 139.202 431.038 139.21 431.093 139.206C431.148 139.202 431.201 139.187 431.25 139.162C431.351 139.112 431.427 139.025 431.464 138.919C431.501 138.813 431.495 138.697 431.447 138.596C431.122 138.01 430.66 137.51 430.101 137.14C429.542 136.77 428.902 136.54 428.235 136.47C428.16 136.466 428.086 136.481 428.018 136.514C427.951 136.547 427.893 136.596 427.85 136.657C427.808 136.719 427.781 136.79 427.774 136.864C427.766 136.939 427.778 137.014 427.807 137.083V137.083Z" fill="#263238"/>
<path d="M451.526 147.642C448.233 155.868 446.732 160.859 441.128 163.736C432.613 168.068 423.521 160.697 424.284 151.628C424.965 143.472 430.222 131.387 439.534 130.832C441.592 130.716 443.646 131.123 445.504 132.015C447.363 132.907 448.965 134.254 450.162 135.933C451.359 137.611 452.112 139.564 452.351 141.612C452.589 143.659 452.306 145.734 451.526 147.642Z" fill="#7F3E3B"/>
<path d="M433.029 147.908C432.804 149.772 432.973 151.662 433.524 153.456C434.076 155.25 434.998 156.909 436.23 158.325C437.463 159.74 438.979 160.881 440.68 161.674C442.382 162.467 444.231 162.894 446.108 162.927C454.38 162.927 454.507 151.143 453.04 148.428C457.43 147.665 459.972 141.635 457.291 137.822C461.323 134.656 452 129.85 440.655 129.226C428.142 128.533 430.43 135.904 434.601 138.134C430.592 139.324 430.176 146.464 433.029 147.908Z" fill="#263238"/>
<path d="M430.626 132.38C430.626 132.38 431.423 142.074 439.569 147.908C447.714 153.742 454.958 154.285 454.958 154.285L456.968 147.908C456.968 147.908 438.575 136.828 432.359 130.636C431.747 131.182 431.169 131.765 430.626 132.38Z" fill="#407BFF"/>
<path opacity="0.6" d="M430.626 132.38C430.626 132.38 431.423 142.074 439.569 147.908C447.714 153.742 454.958 154.285 454.958 154.285L456.968 147.908C456.968 147.908 438.575 136.828 432.359 130.636C431.747 131.182 431.169 131.765 430.626 132.38Z" fill="white"/>
<path d="M437.35 148.024C436.288 149.588 434.668 150.687 432.821 151.097C430.511 151.547 429.771 149.19 430.8 146.914C431.724 144.869 434.058 142.166 436.218 142.744C438.379 143.321 438.737 146.036 437.35 148.024Z" fill="#7F3E3B"/>
<path d="M453.04 174.469C441.325 171.246 424.376 168.912 412.846 169.224C409.994 169.312 407.251 170.344 405.05 172.159C402.848 173.974 401.311 176.469 400.68 179.252C396.775 196.189 396.174 226.713 395.042 257.364C420.182 270.072 448.337 265.035 448.337 265.035C449.828 259.039 449.493 238.624 448.973 227.672C452.092 216.904 457.742 204.877 462.028 190.597C462.516 188.948 462.67 187.218 462.481 185.509C462.292 183.8 461.763 182.145 460.926 180.643C460.088 179.141 458.96 177.821 457.605 176.761C456.251 175.7 454.699 174.921 453.04 174.469Z" fill="#407BFF"/>
<path opacity="0.7" d="M453.04 174.469C441.325 171.246 424.376 168.912 412.846 169.224C409.994 169.312 407.251 170.344 405.05 172.159C402.848 173.974 401.311 176.469 400.68 179.252C396.775 196.189 396.174 226.713 395.042 257.364C420.182 270.072 448.337 265.035 448.337 265.035C449.828 259.039 449.493 238.624 448.973 227.672C452.092 216.904 457.742 204.877 462.028 190.597C462.516 188.948 462.67 187.218 462.481 185.509C462.292 183.8 461.763 182.145 460.926 180.643C460.088 179.141 458.96 177.821 457.605 176.761C456.251 175.7 454.699 174.921 453.04 174.469Z" fill="white"/>
<path d="M416.092 167.525C406.434 166.971 400.426 171.742 397.965 186.323C395.504 200.903 392.847 233.957 393.875 245.88C426.305 259.524 446.42 253.967 450.752 250.79C452.45 248.191 451.827 240.115 450.972 236.926C453.142 231.2 454.227 225.119 454.172 218.995C458.978 214.374 461.104 205.513 461.266 202.07C465.494 196.432 466.06 183.665 463.715 180.026C461.37 176.387 454.553 169.674 416.092 167.525Z" fill="#263238"/>
<path opacity="0.2" d="M398.531 248.318C398.378 248.318 398.231 248.257 398.123 248.148C398.014 248.04 397.954 247.893 397.954 247.74C397.954 224.31 401.085 189.754 405.486 177.635C405.538 177.491 405.646 177.373 405.784 177.308C405.923 177.243 406.082 177.236 406.226 177.288C406.298 177.312 406.364 177.351 406.421 177.402C406.478 177.453 406.524 177.515 406.557 177.584C406.589 177.653 406.607 177.728 406.61 177.804C406.612 177.88 406.6 177.956 406.572 178.027C402.633 188.876 399.132 221.456 399.109 247.74C399.109 247.816 399.094 247.891 399.065 247.961C399.036 248.031 398.993 248.095 398.94 248.148C398.886 248.202 398.822 248.245 398.752 248.274C398.682 248.303 398.607 248.318 398.531 248.318Z" fill="white"/>
<path d="M415.93 183.538C414.174 186.739 412.395 189.592 410.477 192.538C408.559 195.484 406.549 198.315 404.354 201.111C402.146 204.005 399.769 206.767 397.237 209.383C395.877 210.803 394.434 212.141 392.916 213.392C391.145 214.892 389.207 216.183 387.14 217.239L386.724 217.447C386.515 217.549 386.299 217.634 386.077 217.701C382.609 218.721 378.978 219.074 375.378 218.741C373.77 218.617 372.172 218.381 370.595 218.036C369.086 217.728 367.594 217.342 366.124 216.881C363.306 215.976 360.564 214.852 357.921 213.519C356.616 212.861 355.357 212.156 354.109 211.416C352.861 210.677 351.706 209.914 350.4 208.967C349.563 208.364 348.96 207.49 348.695 206.493C348.431 205.495 348.52 204.437 348.947 203.498C349.375 202.559 350.116 201.798 351.042 201.344C351.968 200.889 353.024 200.77 354.028 201.007L354.421 201.099L358.037 201.943C359.262 202.232 360.498 202.486 361.722 202.717C364.106 203.187 366.512 203.534 368.932 203.757C371.142 203.958 373.365 203.958 375.575 203.757C377.338 203.624 379.065 203.191 380.681 202.474L379.619 202.948C380.445 202.341 381.218 201.664 381.929 200.926C382.819 200.013 383.778 198.974 384.702 197.864C385.626 196.755 386.55 195.554 387.452 194.341C388.353 193.128 389.289 191.868 390.178 190.574C391.946 188.009 393.714 185.364 395.435 182.672C397.156 179.98 398.901 177.196 400.495 174.585L400.576 174.446C401.173 173.438 401.963 172.557 402.9 171.854C403.838 171.151 404.904 170.64 406.039 170.349C407.174 170.058 408.356 169.994 409.516 170.16C410.675 170.325 411.791 170.718 412.8 171.315C413.808 171.912 414.688 172.702 415.391 173.639C416.094 174.577 416.606 175.643 416.897 176.778C417.187 177.913 417.252 179.094 417.086 180.254C416.92 181.414 416.527 182.53 415.93 183.538V183.538Z" fill="#407BFF"/>
<path opacity="0.7" d="M415.93 183.538C414.174 186.739 412.395 189.592 410.477 192.538C408.559 195.484 406.549 198.315 404.354 201.111C402.146 204.005 399.769 206.767 397.237 209.383C395.877 210.803 394.434 212.141 392.916 213.392C391.145 214.892 389.207 216.183 387.14 217.239L386.724 217.447C386.515 217.549 386.299 217.634 386.077 217.701C382.609 218.721 378.978 219.074 375.378 218.741C373.77 218.617 372.172 218.381 370.595 218.036C369.086 217.728 367.594 217.342 366.124 216.881C363.306 215.976 360.564 214.852 357.921 213.519C356.616 212.861 355.357 212.156 354.109 211.416C352.861 210.677 351.706 209.914 350.4 208.967C349.563 208.364 348.96 207.49 348.695 206.493C348.431 205.495 348.52 204.437 348.947 203.498C349.375 202.559 350.116 201.798 351.042 201.344C351.968 200.889 353.024 200.77 354.028 201.007L354.421 201.099L358.037 201.943C359.262 202.232 360.498 202.486 361.722 202.717C364.106 203.187 366.512 203.534 368.932 203.757C371.142 203.958 373.365 203.958 375.575 203.757C377.338 203.624 379.065 203.191 380.681 202.474L379.619 202.948C380.445 202.341 381.218 201.664 381.929 200.926C382.819 200.013 383.778 198.974 384.702 197.864C385.626 196.755 386.55 195.554 387.452 194.341C388.353 193.128 389.289 191.868 390.178 190.574C391.946 188.009 393.714 185.364 395.435 182.672C397.156 179.98 398.901 177.196 400.495 174.585L400.576 174.446C401.173 173.438 401.963 172.557 402.9 171.854C403.838 171.151 404.904 170.64 406.039 170.349C407.174 170.058 408.356 169.994 409.516 170.16C410.675 170.325 411.791 170.718 412.8 171.315C413.808 171.912 414.688 172.702 415.391 173.639C416.094 174.577 416.606 175.643 416.897 176.778C417.187 177.913 417.252 179.094 417.086 180.254C416.92 181.414 416.527 182.53 415.93 183.538V183.538Z" fill="white"/>
<path d="M457.13 151.963C456.98 152.11 456.794 152.213 456.59 152.262C456.387 152.311 456.174 152.303 455.974 152.24C449.479 149.758 443.501 146.091 438.344 141.427C429.598 133.409 428.847 124.224 432.729 128.614C434.878 126.303 444.005 123.484 452.462 127.147C461.404 131.04 465.714 143.102 457.13 151.963Z" fill="#407BFF"/>
<path d="M449.655 126.176C451.854 128.264 453.43 130.922 454.205 133.854C454.98 136.786 454.925 139.876 454.045 142.778C455.926 142.37 457.734 141.677 459.406 140.722C459.406 140.722 460.757 134.24 458.25 130.07C455.743 125.899 450.198 124.848 449.655 126.176Z" fill="#407BFF"/>
<path opacity="0.2" d="M454.045 142.778C454.925 139.876 454.98 136.786 454.205 133.854C453.43 130.922 451.854 128.264 449.655 126.176C449.728 126.046 449.831 125.936 449.956 125.854C450.08 125.771 450.223 125.72 450.371 125.703C452.127 126.835 456.968 133.709 454.045 142.778Z" fill="black"/>
</svg>
