<svg width="100" height="117" viewBox="0 0 100 117" fill="none" xmlns="http://www.w3.org/2000/svg">
<path d="M20.8334 64.0186V77.6675C20.8334 81.2133 22.5001 84.5162 25.1667 86.2163L46.0001 99.4765C48.5001 101.079 51.5001 101.079 54.0001 99.4765L74.8334 86.2163C77.5001 84.5162 79.1667 81.2133 79.1667 77.6675V64.0186L54.0001 80.0476C51.5001 81.6505 48.5001 81.6505 46.0001 80.0476L20.8334 64.0186ZM46.0001 17.0976L10.8751 39.441C8.00006 41.2867 8.00006 46.144 10.8751 47.9897L46.0001 70.3331C48.5001 71.936 51.5001 71.936 54.0001 70.3331L87.5001 49.0097V77.7161C87.5001 80.3876 89.3751 82.5733 91.6667 82.5733C93.9584 82.5733 95.8334 80.3876 95.8334 77.7161V46.5811C95.8334 44.7839 95.0001 43.181 93.6667 42.3067L54.0001 17.0976C52.769 16.3322 51.3953 15.9319 50.0001 15.9319C48.6049 15.9319 47.2311 16.3322 46.0001 17.0976Z" fill="white"/>
</svg>
