<svg width="150" height="108" viewBox="0 0 150 108" fill="none" xmlns="http://www.w3.org/2000/svg">
<path d="M101.25 50.2494C101.25 65.2494 82.5 76.4994 82.5 87.7494H67.5C67.5 76.4994 48.75 65.2494 48.75 50.2494C48.75 35.7744 60.525 23.9994 75 23.9994C89.4751 23.9994 101.25 35.7744 101.25 50.2494ZM82.5 95.2494H67.5V106.499H82.5V95.2494ZM150 53.9994C150 33.2994 141.6 14.5494 128.025 0.974365L120.075 8.92437C126.001 14.8388 130.702 21.865 133.906 29.6001C137.111 37.3351 138.757 45.6267 138.75 53.9994C138.75 71.5494 131.625 87.5244 120.075 99.0744L128.025 107.024C135 100.069 140.532 91.8043 144.304 82.7046C148.075 73.6048 150.011 63.8496 150 53.9994ZM11.25 53.9994C11.25 36.4494 18.375 20.4744 29.925 8.92437L21.975 0.974365C14.9999 7.9295 9.46774 16.1944 5.69656 25.2941C1.92537 34.3939 -0.010543 44.1491 4.31827e-05 53.9994C4.31827e-05 74.6994 8.40004 93.4494 21.975 107.024L29.925 99.0744C23.9988 93.1599 19.2985 86.1337 16.0938 78.3987C12.8892 70.6636 11.2431 62.372 11.25 53.9994ZM116.25 53.9994C116.25 65.3994 111.6 75.6744 104.175 83.1744L112.125 91.1244C117.008 86.2548 120.88 80.468 123.519 74.0967C126.157 67.7255 127.51 60.8954 127.5 53.9994C127.5 39.5244 121.65 26.3994 112.125 16.8744L104.175 24.8244C111.6 32.3244 116.25 42.5994 116.25 53.9994ZM37.875 91.1244L45.825 83.1744C38.325 75.6744 33.75 65.3994 33.75 53.9994C33.75 42.5994 38.4 32.3244 45.825 24.8244L37.875 16.8744C32.9921 21.7439 29.12 27.5307 26.4814 33.902C23.8428 40.2733 22.4897 47.1033 22.5 53.9994C22.5 68.4744 28.35 81.5994 37.875 91.1244Z" fill="#1877F2"/>
</svg>
