<svg width="100" height="100" viewBox="0 0 100 100" fill="none" xmlns="http://www.w3.org/2000/svg">
<path d="M83.5 36.2914V16.6664H63.9167L50 2.87476L36.2917 16.6664H16.6667V36.2914L2.875 49.9998L16.6667 63.9164V83.4998H36.2917L50 97.2914L63.9167 83.4998H83.5V63.9164L97.2917 49.9998L83.5 36.2914ZM36.7917 29.3748C40.875 29.3748 44.1667 32.6664 44.1667 36.7914C44.1667 38.7474 43.3897 40.6233 42.0066 42.0063C40.6235 43.3894 38.7476 44.1664 36.7917 44.1664C32.6667 44.1664 29.375 40.8748 29.375 36.7914C29.375 32.6664 32.6667 29.3748 36.7917 29.3748ZM63.4167 70.8331C59.3333 70.8331 56.0417 67.4998 56.0417 63.4164C56.0417 61.4605 56.8187 59.5846 58.2018 58.2015C59.5848 56.8184 61.4607 56.0414 63.4167 56.0414C67.5 56.0414 70.8333 59.3331 70.8333 63.4164C70.8333 65.3835 70.0519 67.2699 68.661 68.6608C67.2701 70.0517 65.3837 70.8331 63.4167 70.8331ZM35.4167 70.9581L29.1667 64.7081L64.7083 29.1664L70.9583 35.4164L35.4167 70.9581Z" fill="#FF9900"/>
</svg>
