<?xml version="1.0"?>
<svg xmlns="http://www.w3.org/2000/svg" xmlns:xlink="http://www.w3.org/1999/xlink" xmlns:svgjs="http://svgjs.com/svgjs" version="1.1" width="512" height="512" x="0" y="0" viewBox="0 0 510.047 510.047" style="enable-background:new 0 0 512 512" xml:space="preserve"><g><path xmlns="http://www.w3.org/2000/svg" d="m487.34 22.709c-30.272-30.276-79.287-30.281-109.565 0-3.982 3.982-116.038 116.042-118.538 118.541l-61.1-61.1c-.003-.003-.006-.007-.009-.01s-.007-.006-.01-.009l-74.6-74.6c-5.857-5.857-15.355-5.857-21.213 0l-96.76 96.76c-5.858 5.857-5.858 15.355 0 21.213l135.719 135.719-91.68 91.68c-1.539 1.539-2.849 3.572-3.603 5.8l-45.158 133.508c-3.929 11.61 7.14 23.032 19.016 19.016l133.508-45.159c2.134-.722 4.207-2.008 5.802-3.603l91.679-91.679 135.718 135.718c5.858 5.858 15.355 5.858 21.213 0l96.76-96.76c5.858-5.857 5.858-15.355 0-21.213l-74.604-74.604c-.002-.002-.003-.003-.005-.005s-.003-.003-.005-.005l-61.105-61.105c2.497-2.497 114.573-114.571 118.54-118.538 30.688-30.688 29.82-79.753 0-109.565zm-90.188 449.975-125.108-125.107 75.548-75.547 50.498 50.498-23.409 23.408c-5.858 5.857-5.858 15.354 0 21.213 5.856 5.858 15.354 5.859 21.213 0l23.409-23.408 53.396 53.396zm-37.511-389.412 22.966 22.966-278.237 278.238-22.966-22.966c13.514-13.515 269.204-269.205 278.237-278.238zm39.35-39.35c18.535-18.533 48.63-18.475 67.111-.024.009.009.016.019.025.028 18.407 18.401 18.595 48.535 0 67.131l-18.138 18.138-33.533-33.533c-.01-.01-.018-.021-.028-.031s-.021-.018-.031-.028l-33.544-33.544zm-273.408 361.767 278.237-278.238 22.956 22.956-278.237 278.238zm-4.727 37.698-81.896 27.701 27.701-81.895zm-83.491-330.49 75.547-75.547 53.396 53.396-23.408 23.409c-5.858 5.858-5.858 15.355 0 21.213 5.856 5.858 15.354 5.859 21.213 0l23.408-23.409 50.504 50.504-75.547 75.547z" fill="#1AD03F" data-original="#F80057" style=""/></g></svg>
